<svg xmlns="http://www.w3.org/2000/svg" viewBox="0 0 185.64 226.31"><defs><style>.cls-1{font-size:22px;fill:#666;font-family:Arial-BoldMT, Arial;font-weight:700;}.cls-2{fill:#f4ba89;}.cls-3,.cls-4{isolation:isolate;}.cls-4{font-size:9.62px;fill:#ff0d0d;font-family:ArialMT, Arial;}</style></defs><g id="图层_2" data-name="图层 2"><g id="图层_1-2" data-name="图层 1"><text class="cls-1" transform="translate(22.18 218.03)">Abscisic acid</text><circle class="cls-2" cx="92.82" cy="92.82" r="92.82"/><polygon points="109.9 121.27 88.34 121.27 88.09 120.83 88.34 120.39 109.9 120.39 109.9 120.83 109.9 121.27"/><polygon points="88.34 121.27 77.44 140.16 77.18 139.72 76.93 139.29 87.59 120.83 88.09 120.83 88.34 121.27"/><polygon points="85.44 121.05 76.05 137.32 75.67 137.1 75.29 136.89 84.69 120.61 85.07 120.83 85.44 121.05"/><polygon points="77.44 140.16 55.12 140.16 55.37 139.72 55.62 139.29 76.93 139.29 77.18 139.72 77.44 140.16"/><polygon points="57.26 139.94 48.77 154.63 48.4 154.42 48.02 154.2 56.5 139.5 56.88 139.72 57.26 139.94"/><polygon points="54.99 138.63 46.51 153.32 46.13 153.11 45.75 152.89 54.24 138.19 54.61 138.41 54.99 138.63"/><g class="cls-3"><text class="cls-4" transform="translate(40.72 162.51)">O</text></g><polygon points="55.12 140.16 43.96 120.83 44.46 120.83 44.97 120.83 55.62 139.29 55.37 139.72 55.12 140.16"/><polygon points="43.96 120.83 54.73 102.17 55.37 101.94 55.62 102.38 44.97 120.83 44.46 120.83 43.96 120.83"/><polygon points="55.89 101.5 76.66 101.5 77.18 101.94 76.93 102.38 55.62 102.38 55.37 101.94 55.89 101.5"/><polygon points="76.66 101.5 72.92 80.28 73.4 80.46 73.87 80.63 77.61 101.86 77.18 101.94 76.66 101.5"/><polygon points="72.92 80.28 89.63 66.27 90.11 66.44 90.58 66.61 73.87 80.63 73.4 80.46 72.92 80.28"/><polygon points="75.96 81.16 91.51 68.11 91.79 68.44 92.07 68.78 76.52 81.83 76.24 81.49 75.96 81.16"/><polygon points="89.63 66.27 85.93 45.28 86.32 44.95 86.79 45.13 90.58 66.61 90.11 66.44 89.63 66.27"/><polygon points="86.23 44.46 102.94 30.43 103.03 30.93 103.11 31.43 86.79 45.13 86.32 44.95 86.23 44.46"/><polygon points="88.88 45.65 103.27 33.57 103.55 33.91 103.83 34.24 89.44 46.32 89.16 45.99 88.88 45.65"/><polygon points="102.94 30.43 123.44 37.9 123.53 38.39 123.61 38.89 103.11 31.43 103.03 30.93 102.94 30.43"/><polygon points="125.11 37.34 128.18 54.72 127.75 54.8 127.32 54.87 124.25 37.5 124.68 37.42 125.11 37.34"/><polygon points="122.54 37.8 125.6 55.18 125.17 55.25 124.74 55.33 121.68 37.95 122.11 37.88 122.54 37.8"/><g class="cls-3"><text class="cls-4" transform="translate(123.57 63.77)">O</text></g><polygon points="123.44 37.9 135.34 27.91 135.62 28.24 135.9 28.58 123.61 38.89 123.53 38.39 123.44 37.9"/><g class="cls-3"><text class="cls-4" transform="translate(136.49 28.27)">O</text><text class="cls-4" transform="translate(143.98 28.27)">H</text></g><polygon points="85.93 45.28 65.67 37.91 65.82 37.49 65.97 37.09 86.23 44.46 86.32 44.95 85.93 45.28"/><polygon points="77.41 102.37 77.08 101.47 77.49 101.31 77.9 101.17 78.23 102.07 77.82 102.22 77.41 102.37"/><polygon points="79.99 101.69 79.5 100.33 79.91 100.18 80.32 100.03 80.81 101.39 80.4 101.54 79.99 101.69"/><polygon points="82.58 101 81.92 99.19 82.33 99.04 82.74 98.89 83.4 100.7 82.99 100.85 82.58 101"/><polygon points="85.16 100.32 84.34 98.06 84.75 97.91 85.16 97.76 85.98 100.02 85.57 100.17 85.16 100.32"/><polygon points="87.74 99.63 86.75 96.92 87.17 96.77 87.58 96.62 88.56 99.33 88.15 99.48 87.74 99.63"/><polygon points="90.33 98.95 89.17 95.78 89.58 95.64 89.99 95.49 91.14 98.65 90.73 98.8 90.33 98.95"/><polygon points="92.91 98.26 91.59 94.65 92 94.5 92.41 94.35 93.73 97.97 93.32 98.11 92.91 98.26"/><g class="cls-3"><text class="cls-4" transform="translate(93.94 98.37)">O</text><text class="cls-4" transform="translate(101.42 98.37)">H</text></g><polygon points="77.56 101.72 88.34 120.39 88.09 120.83 87.59 120.83 76.93 102.38 77.18 101.94 77.56 101.72"/><polygon points="54.73 102.17 34.72 94.89 34.87 94.48 35.02 94.07 55.03 101.35 55.37 101.94 54.73 102.17"/><polygon points="55.03 101.35 58.73 80.38 59.16 80.46 59.59 80.53 55.89 101.5 55.37 101.94 55.03 101.35"/></g></g></svg>