<svg xmlns="http://www.w3.org/2000/svg" viewBox="0 0 226.85 227.15"><defs><style>.cls-1{fill:#3186b4;}.cls-2{font-size:22.71px;fill:#fff;font-family:Arial-BoldMT, Arial;font-weight:700;}.cls-3{fill:none;stroke:#fff;stroke-width:0.35px;}</style></defs><g id="图层_2" data-name="图层 2"><g id="图层_1-2" data-name="图层 1"><ellipse class="cls-1" cx="113.43" cy="113.57" rx="113.43" ry="113.57"/><text class="cls-2" transform="translate(47.44 199.17)">Arabidopsis</text><path class="cls-3" d="M82.84,178a25.87,25.87,0,0,1-6.19,1.54H73.76l-2.24-.11-.65-.39-1.48,0h0c-.1-.62-.51-.62-1-.48h0c-.1-.61-.49-.66-1-.51h0c0-.38-.17-.51-.52-.49l0,0c0-.36-.17-.5-.51-.5l0,0a.44.44,0,0,0-.51-.5l0,0c0-.34-.15-.52-.5-.51l0,0c0-.34-.12-.54-.49-.52h0c.27-.75-.38-1.3-.46-2a1,1,0,0,0,0-.46V170.3c0-.32,0-.64.07-1,.2-1,.83-1.87.44-2.93h0c1.29-.58,1.31-1.78,1.44-2.93l0,0c1-.31,1.19-1,1-1.95v0c.6-.1.66-.48.51-1h0c.86-.13,1.14-.65,1-1.47v0c.37,0,.49-.19.49-.52l0,0c.57-.12.68-.48.52-1h0c.37,0,.5-.18.5-.52l0,0c.56-.12.69-.47.52-1h0c.37,0,.5-.17.49-.51l0,0c.59-.1.69-.46.53-1h0c.38,0,.52-.16.49-.51l0,0c.37,0,.5-.18.5-.51l0,0c.58-.1.7-.45.53-1h0c.38,0,.53-.15.49-.51l0,0c.37,0,.51-.17.5-.51l0,0a1.07,1.07,0,0,0,1-1.45h0c.38,0,.53-.14.49-.51v0c.37,0,.52-.15.49-.51l0,0c.37,0,.52-.16.5-.51l0,0c.35,0,.51-.16.5-.51l0,0c.35,0,.51-.17.5-.51l0,0a.45.45,0,0,0,.51-.5l0,0a2.9,2.9,0,0,0,2-2l0,0a.45.45,0,0,0,.51-.51l0,0c.33,0,.52-.16.51-.51l0,0c.35,0,.53-.14.51-.5l0,0c.35,0,.53-.13.51-.49l0,0c.35,0,.55-.12.51-.5l0,0c.37,0,.54-.12.51-.49h0c.51.18.87,0,1-.53l0,0c.34,0,.54-.13.51-.5l0,0c.36,0,.55-.1.52-.48h0c.5.16.87.07,1-.52l0,0c.34,0,.55-.11.52-.49h0a1.05,1.05,0,0,0,1.46-1h0c.5.15.88.08,1-.52l0,0c.49.14.87.06,1-.51l0,0c.33,0,.55-.1.52-.49h0c.49.15.88.1,1-.5h0c.49.14.88.11,1-.5h0c.91.19,1.66.08,2-1h0c.47.13.89.15,1-.49h0c.61.18,1.19.25,1.46-.52l0,0a2.12,2.12,0,0,0,2.44-1h0c.6.16,1.18.26,1.47-.5l0,0,1,.06.66-.41,3.2-.6,3.84-.39c-.62.86-2,.79-2.39,1.88a5.65,5.65,0,0,0-3.54,2.45c1.84-.55,3-1,3.56-2.43.8.34,1.58-.88,2.39,0l-.43,1.08,0-.06a5.86,5.86,0,0,0-2.75,2.87c-3.09,5.18-5.17,10.83-7.56,16.34C94.53,163.06,90.55,171.75,82.84,178ZM98.4,139.41c.44-.07,1,.15,1.21-.43a.4.4,0,0,0-.19-.34c-.58-.1-.79.35-1,.75-.35.07-.76.07-.73.59a.21.21,0,0,0,.15.15C98.34,140.16,98.35,139.76,98.4,139.41ZM86.32,150.49a3.15,3.15,0,0,0-1.46,2.42,4.85,4.85,0,0,0-1,1c-2.17,4.28-4.34,8.58-6.43,12.91a3.47,3.47,0,0,0-.53,2.92c2.22-4.46,4.35-8.64,6.39-12.86.62-1.28,1.61-2.43,1.54-4,1.34-.3,1.38-1.37,1.45-2.42.36-.06.76-.07.73-.59,0-.06-.1-.15-.15-.15C86.38,149.74,86.38,150.15,86.32,150.49Zm1.18-1.81,4.65-4.8A18,18,0,0,0,87.5,148.68Zm5.75-5.07c1-.19,1.52-.59,1.59-1.66C93.81,142.12,93.32,142.54,93.25,143.61ZM97,140.85c-.33-.16-.58-.36-.67-.3a1.28,1.28,0,0,0-.59.63c-.1.44.27.53.57.37S96.68,141.15,97,140.85Zm5.6-4c-.13-.06-.3-.19-.4-.15s-.13.25-.19.39c.14.05.31.18.4.14S102.51,137,102.57,136.86Zm-1.45,1c-.14-.06-.31-.19-.4-.16s-.13.25-.19.39c.13.06.3.19.39.15S101.05,138,101.12,137.82Z"/><path class="cls-3" d="M191.91,138.36l-1.28.1-.64.39-1.29.08-.66.39-1.27.07-.94.1-3.92,0-1.41-.08-2.24-.11-.65-.37-1.79-.1-.63-.37-1.34-.13-1.09-.37-1.92-.46A110.75,110.75,0,0,0,151,134.13l-7.75-.89-1.9-.11-3.4-.41a.9.9,0,0,0-.46,0c-7.39-.8-14.76-1.81-22.23-1.45l0-.65h1.32a.82.82,0,0,0,1.11-.74l.93-.07c.62.66,1.29.3,2,.18,7.81-1.25,15.6-2.93,23.56-2.6,5.82.25,11.62,1.1,17.45,1.33a67.59,67.59,0,0,1,17.68,3c2.14.67,4.2,1.7,6.63,1.6a.7.7,0,0,0-.51-.53c-7.84-2.6-15.76-4.66-24.1-5.07-3.33-.17-6.7-.22-10-.71a60.69,60.69,0,0,0-11-.52c-3.73.15-7.43,1-11.17,1.25-1.53.09-3.07,1.28-4.64.17.39-.07.79-.13,1.18-.22,8.62-2,17.19-4.47,26.21-3.72,4.22.35,8.44.63,12.66.94l3.39.41,1.44.08,2.91.42.23,0h.23L175,126a1.21,1.21,0,0,0,1.1.38l1.79.11,1.11.39,1.77.09.65.39,1.31.09,1.11.41,3.15.8-.1-.05c1.25.4,2.39,1.17,3.77,1.13l0,0c.13.56.5.65,1,.51h0c0,.37.17.51.51.5l0,0c0,.35.16.52.51.5l.05-.06a11.37,11.37,0,0,1-.14,6.83Z"/><path class="cls-3" d="M82.84,178c7.71-6.22,11.69-14.91,15.48-23.67,2.39-5.51,4.47-11.16,7.56-16.34a5.86,5.86,0,0,1,2.75-2.87c-.18,1.83-1.82,2.78-2.59,4.29q-3.69,7.31-6.69,14.91a80,80,0,0,1-11.64,20.4c-1.11,1.41-2.17,3-4.19,3.37Z"/><path class="cls-3" d="M73.76,179.51h2.89l-1.89.86-1-.09Z"/><path class="cls-3" d="M185.83,139.49l.94-.1v.67l-.17-.07Z"/><path class="cls-3" d="M190,138.85l.64-.39Z"/><path class="cls-3" d="M191.91,138.36l.64-.45Z"/><path class="cls-3" d="M188,139.32l.66-.39Z"/><path class="cls-3" d="M38.32,135.49l0-.15.14-.06c.29-.17.56-.36.52-.75h0c.49.14.88.1,1-.51h0a2.88,2.88,0,0,0,2.92-1.47l0,0c1.48-.26,3-.38,3.9-1.93h0c.61.17,1.19.26,1.46-.52l0,0c.87.31,1.56-.2,2.28-.5a46.22,46.22,0,0,1,8.89-2.83,1.29,1.29,0,0,0,1.12-.38l1.78-.11a1.85,1.85,0,0,0,1.57-.39l2.3-.1.93-.06,3.4-.41,1.92-.08,7.27-.41a77,77,0,0,1,7.9.22,170.59,170.59,0,0,1,20.11,4.09l1.85.61c-.42.55-1,.44-1.54.3-2.24-.62-4.53-1-6.78-1.52A96,96,0,0,0,73.23,126a52.11,52.11,0,0,0-11.61,1.6A119.35,119.35,0,0,0,47.5,133c-2.6,1.15-5.36,2-8,3.59.43.2.59.35.7.32.46-.13.91-.31,1.35-.48,9.25-3.74,18.08-8.77,28.37-9.36,3.59-.21,7.19-.72,10.77-.59a93.29,93.29,0,0,1,11.89,1.37c5.18.87,10.4,1.6,15.4,3.29l-2.86.6-3.38,0-1,0-8.24-.4H86.82l-3.39.41-1,.06-1.92.43a1.13,1.13,0,0,0-.48.05c-3.58,1-7.35,1.38-10.61,3.4l0,0c-.59-.14-1.18-.26-1.47.5l0,0a13.6,13.6,0,0,0-6.8,2.44l0,0c-1-.17-2-.18-2.44,1l0,0c-.88-.16-1.67-.11-2,1h0c-.61-.16-1.2-.28-1.46.52l0,0a10.29,10.29,0,0,0-6.3,2.43l0,0h-1.3a.32.32,0,0,1-.35.21l-5.16,1.68-.66.4-3.2.59-.65.38-2.24.09H32.2c.27-.61-.18-1-.43-1.48l-.41-.65.34-3.74,0,0c.6-.1.67-.47.52-1h0c.38,0,.53-.14.49-.51h0c.37,0,.53-.13.49-.5v0c.36,0,.53-.13.5-.5l0,0c.37,0,.54-.13.5-.5h0c.36,0,.54-.11.5-.48h0a1.06,1.06,0,0,0,1.45-1l0,0c.35,0,.55-.1.52-.48h0c.49.15.87.09,1-.52l0,0Z"/><path class="cls-3" d="M115.86,121.26l.14.07,0,.15.8,0h0c0,.33,0,.67,0,1v1.44c-.32.78-.93,1.47-.66,2.57a3.31,3.31,0,0,0,2.41-1.36l0,.09.66-.87,0,0c.35,0,.55-.1.52-.48h0c.5.16.88.09,1-.51h0c.49.14.86.06,1-.51l0,0c.33,0,.55-.11.52-.48h0c.5.16.87.09,1-.51l0,0c.48.13.87.07,1-.51l0,0c.34,0,.56-.09.53-.47h0c.48.14.89.14,1-.49h0c.48.13.89.13,1-.5h0c1.85.32,3.23-1,4.87-1.42l.65-.4,1.28-.08.67-.39,2.71-.1,1.9-.08a86.08,86.08,0,0,1,11.47-.3,1.25,1.25,0,0,0,1.11.39c1.48.23,2.77,1.33,4.39.94h0a2.64,2.64,0,0,0,2.93,1.43l0,0c.12.59.51.63,1,.51l0,0c.12.58.52.62,1,.5l0,0a1.68,1.68,0,0,0,1.95,1l0,0c.11.59.48.67,1,.51h0c-.09.62.4.81.81,1.06-2.75.85-5.48-.09-8.2-.26-5.68-.34-11.3-.59-16.95.5-7.93,1.52-15.72,3.6-23.52,5.62-.89,0-.86-.48-.47-1.08.47-.27,1.19-.75.82-1.15-.6-.66-1,.26-1.39.61-.4-2.29-.88-4.58.38-6.77h-.11Z"/><path class="cls-3" d="M117.57,9.64c-.37,1.11-.16,2.33-.7,3.44-.27.55-.27,1.3.76,1.24.18.33,1.25-.73.85.87-.74,2.92.16,3.91,2.22,3.54a26.11,26.11,0,0,0-1.65,3.67c-.18.62-2.12,1.82.36,2.23.54.09.09.81-.16,1.18-.52.77-1.28,1.43-1.06,2.51a3.18,3.18,0,0,1-.43.06c-.6-.61-1-1.25-1.86,0-1.47,2.12,1.26,1.06,1.34,1.93v2l0,.58-.92-1.06c0-.38.12-.77-.37-1.2l-.1,1.2c-.12,1.11-.23,2.23-.35,3.34,0,1.63,0,3.25,0,4.88l-.24,3.83-.47-.05V36.62h-.39v6.23l-1.64-.06c.13-.69.3-1.38.38-2.09,0-.16-.25-.42-.44-.5a.79.79,0,0,0-.58.12c0,1-.85,2.14.34,3l.51.59c-.75,3-1.74,6.06.54,9V45.26c1,3.15,0,6.43.88,9.62V47.07l.93,1.5c-.62,3.39-.32,6.82-.55,10.23-1.36,1.59,1,1.5,1.1,2.4-.23,2.16-1.63,4-1.58,6.25-.87-1.19-.07-2.59-.58-4-.59.63.1,1.94-1.14,2.06,1.71-6-.92-11.37-2.4-16.9-.12-.46-.18-.93-.27-1.4.75-.5.74-1.37,1-2.09,0-1.51,0-3,.08-4.53,0-.64.11-1.6.76-1.57,3,.16,1.44-1.7,1.38-2.9,1.13-.49.54-1.27.34-2s-.66-1.62-.1-2.46c0-1.41.47-2.93-1-4,.33-1.12.84-1.78,2-.76.4.36.84.58,1.16,0,.23-.38-.18-.75-.48-1-.85-.66-2-1.07-1.59-2.54-.23-1.06-.45-2.13-.67-3.19.71-.05,1-.64,1.47-1.07.38,1.69.56,3.46,1.76,4.88a1.84,1.84,0,0,0,.69-2c-.86-3.52-.81-7.31-3.33-10.33-1.27-1.51-.1-2.42,1.17-3.15.46.1,1.11-1.29,1.43.24C116.13,9.51,117,9.52,117.57,9.64Zm-6,35.17.13,0,0-.2Z"/><path class="cls-3" d="M115.86,121.26l-1.34-.28,0-.18.06.18c-1.26,2.19-.78,4.48-.38,6.77l.57.54c-.39.6-.42,1,.47,1.08,0,.28,0,.55,0,.82-.61.15-1.47.22-1.19,1.11.18.54.79.32,1.18-.06,7.47-.36,14.84.65,22.23,1.45.14.23.29.26.46,0l3.4.41v.7c-7.59-.35-15.09-2-22.76-1.43,5.46.87,10.94,1.62,16.36,2.67,4.51.87,9.07,1.67,13.26,3.71-1.63.52-3-.57-4.44-.84a1,1,0,0,0-1.09-.41l-.84-.08-.65-.4-1.28-.09-.66-.38-1.28-.1a1,1,0,0,0-1.09-.39l-1.32-.11-.65-.37-1.77-.11-.65-.38-2.25-.11c-.13-.23-.28-.27-.46,0l-5.81-.89c-.29-.45-.6-.5-.94-.07l-2.93-.44c-.13-.23-.28-.27-.46,0l-2-.41c-.13-.25-.28-.3-.47-.05-1.21.16-2.21-1.46-3.53-.43H113l-1.07,0-1-.48-.37,0L110,132v-.72c.89-.9.21-1.22-.57-1.49l-1.85-.62c0-.33,0-.66,0-1a.83.83,0,0,0,0-.35l1.08,0c.67.21.91,1.14,1.8,1.08.26-1.44-.7-2.59-.91-3.91l.51-.53c.5.41.32,1.35,1.43,1.8,0-1.49,0-2.67,0-3.85,0-.67.29-1.61-.76-1.74-.8-.1-1.85-.42-2.12.89l-.52.59c-.6,0-.82.33-.89.85-.06,0-.18.1-.18.13a2.17,2.17,0,0,0,.15.35c.08,1.14-.19,2.34.53,3.38l-.54.55-3-2.85.33-.51c.73.42,1.56,1.81,1.76-.49.18-2.05,1.12-3.77,3.65-3.91,2.11-.11-.54-1.91.77-2.37.23,0,.25.6.62.22l-.59-.26c-1.38.43-1.83-.85-2.66-1.44l2,0,.2.26s0-.12,0-.15a1.08,1.08,0,0,0-.18-.11l.13-1.06,1.75,1.16c0-6.07,0-11.81,0-17.56,0-1.28-1.21-1-1.88-1.45l0-.62c.54.09,1.36.42,1.55,0,.33-.78-.72-.83-1.1-1.27l.59-.47c.3,0,.77,0,.75-.32-.11-3.07.64-6.22-.68-9.2,1.34-.75.57-2,.74-3.06l.09-3.3.52,0,.12,3.9c-.13,6.81.34,13.6,0,20.43-.45,9.13,0,18.3-1,27.42,0,.46-.14,1.05.5,1.16.85.15.82-.55.87-1.1.12-1.43.32-2.87.33-4.31.08-7.79.12-15.59.17-23.39l.77.47c0,2.28-.08,4.56,0,6.84,0,.67-.5,1.63.64,2,.28.55-.45,1.16.09,1.74,1.6-.62,2.84-2.23,4.8-1.64-.81,1-2.07,1.17-3.11,1.64-2.37,1.06-2.47,2.84-2.55,5.06C114,120.4,116.14,119.86,115.86,121.26Z"/><path class="cls-3" d="M114.21,103.18l-.77-.47q-.12-10.11-.23-20.22c0-1,.08-2,.1-3.07,0-.54.15-1.24-.81-.82l-.53,0c0-4.36-.3-8.72.56-13,1.24-.12.55-1.43,1.14-2.06.51,1.39-.29,2.79.58,4,.25.91-.35,1.87.21,3,1.8-1.45,3.18-3.25,5.06-4.47,3-2,5.71-1,6.89,2.46h0l-1.36.4c-.35-2-2-3.56-3.44-3a7.63,7.63,0,0,0-3.9,3.06.53.53,0,0,0-.17.08s0,.08,0,.12l.19-.21c2.44-.93,4.9.41,7.34-.07l-.37,1.54,0,0c-2.9-.76-5.81-1.64-8.29,1a3.52,3.52,0,0,1-1.19.82,2.47,2.47,0,0,0-1.43,2.73q.2,4.94.25,9.87c0,4.09,0,8.18,0,12.27l.76,0,2-4.06c.44.88.91.47,1.38,0,.24,1.65,1.2.51,1.77.39,4.53-1,8.8-3.08,13.59-2.88.74,0,2,.58,2.2-.64.11-.84-1-1.35-1.75-1.78a3,3,0,0,0-2.32-.07,47.51,47.51,0,0,0-13.49,5c0-.86-.21-1.87,1.24-1.63,4-2.33,8.44-3.42,12.9-4.38a3.41,3.41,0,0,1,2.34.4c1.14.63,2.48,1.43,2.22,2.84s-1.86,1.32-3,1.26c-4.88-.27-9.26,1.73-13.82,2.9a2.35,2.35,0,0,0-1.24.7C117,97.65,115,100.05,114.21,103.18Z"/><path class="cls-3" d="M97.92,77.91c2.11-2.45,4.91-3.42,8.21-3.72-2.72-6.45-5.41-12.78-13.28-14.39,1.07-.26,2.57.83,3.16-1l2.62,1.76c.23.16.45.49.75.08-.29.14-.2.34,0,.51s.23,0,.34,0l-.32-.5-.42-.54-1-1.39c1.55-.23,1.63-1,.84-2.18a1.58,1.58,0,0,1-.42-1.26c1.06-.57,2.4-.19,3.38-1l1.48.12,0,0c-1.9,4.32-.53,8.3,1.25,13,.5-2.86,1.16-5,2.71-6.66A4.11,4.11,0,0,1,109,59.24a1.88,1.88,0,0,1,2,.34c.63.66.28,1.32,0,2a8.89,8.89,0,0,1-2.57,2.82c-2.91,2.45-3.21,3.83-1.63,7.23a11.81,11.81,0,0,1,1.37,3.82c-1.17.66.58,2-.63,2.66-1.86-.82-3.22.38-4.57,1.25a45,45,0,0,0-3.77,3c-.91.73-2,1.45-3,.69-1.26-.89-.24-2,.1-3a6.1,6.1,0,0,1,.91-1.38c.12.16.23.33.35.5a5.14,5.14,0,0,0-.31.91c-.14.73-1,1.58-.3,2.16s1.45-.41,2-.84c1.87-1.35,3.49-3,5.66-4,.56-.24,1.71-.14,1.34-1.25s-1.29-.9-2.22-.69c-2,.46-3.53,1.81-5.26,2.77ZM106,65.27c1.48-1.51,2.92-2.1,3.69-3.45.25-.42,1-.84.4-1.38a1.17,1.17,0,0,0-1.69.27A8.84,8.84,0,0,0,106,65.27Z"/><path class="cls-3" d="M124.73,70.35l0,0c1.61.25,1.74-.79,1.74-2h0c2.07-.45,2.19-1.74,1.45-3.39l0,0,1.45-.13a2.73,2.73,0,0,0,3.07.7c1.29-.39.18-1.59.3-2.42.75,0,.47,1,1,1.17.29.26.41.1.48-.2l.79-1.07.72,0,.92.38c-.17.2-.33.41-.49.61l-.28.25.29,0-.07-.32c.6.48.89.21,1-.42l0,.07c1.21.28,1.91-.68,2.83-1.12a1.11,1.11,0,0,0,.54,1.08c-.71,1.38-2.19,1.57-3.41,1.93-3.94,1.18-6.13,4.1-7.94,7.47-.05.17-.11.34-.16.51h.58a42.76,42.76,0,0,0,5.56-4.66c.63,2,2,1.62,3.47,1.15-3.59,1.69-7.17,3.39-10,6.29l-.21-.22-1.55-1.79c-1.21,1.14-.8,2.47-.91,3.68l-.2.27.27-.19.46,0a3.07,3.07,0,0,0,.26.25l-1.94,2.89-.3-.27c.35-1,.78-2.08-1-2C123.58,76.06,125.15,73.36,124.73,70.35Z"/><path class="cls-3" d="M117.23,31.23c0-.32,0-.63,0-.95h.5l.22,0,.23-.05.41.5-.32,2.87c-1,1.84-.7,3.69,0,5.53,0,.52-.29,1.08.2,1.75,1-2.6,3.39-4.26,3.91-7,.94.27,1.35,1.08,1.84,1.82-.25.66-.83.86-1.69.91.78,1,2.46-.19,2.48,1.44A1.8,1.8,0,0,1,123.5,40l-2.88,1.39a3.91,3.91,0,0,0-2.17,2l-3.17,5.19-.93-1.5v7.81c-.93-3.19.07-6.47-.88-9.62-.21-.44.15-1.1-.54-1.34l-.51-.59.3-.54,1.64.06.39.91.47.05.22,1.89c1.35-2.07.14-3.91.17-5.72l.2-4.76c1-.5,1.74-1.12,1.37-2.4l0-.58C117.74,31.9,117.76,31.57,117.23,31.23Z"/><path class="cls-3" d="M110.89,45.14c-.29.72-.28,1.59-1,2.09-.21-.59-.46-1.17-.62-1.77-1-3.77-2.83-6.85-6.64-8.37a2.09,2.09,0,0,1-1-1c1-.3,1.32-1.3,2-1.93.74.85.29,2.48,2,2.83.24-2.57-1.24-4.53-2.19-6.66-.28-.65-1.18-1.26-.23-2.05,1.13.09,2-.19,1.93-1.54.6.18,1,.48.91,1.21-.59.65-.71,1.27.12,1.83a17,17,0,0,0,2.53,9.13c.81-1.33.09-2.57-.09-3.81.89-.23,1.81-.92,2.64.14-1.1,1.57-.61,3.54-1.29,5.2A4.12,4.12,0,0,0,110.89,45.14Z"/><path class="cls-3" d="M120.62,41.34,123.5,40l.69,2.27c-.07.41-.13.83-.2,1.24a1.3,1.3,0,0,0-.84,1c0,.06.17.16.26.24l.66-1c.69-.09.61,1.69,1.88.63.7-.6.31.64.61.92-1.86,1.47-3.64,3-5.58,4.36a3.44,3.44,0,0,0-1.82,3.3l0,0c-.77.17-.52.77-.52,1.25-1.91,1.18-2.36,2.94-2,5l-.84,2c-.14-.9-2.46-.81-1.1-2.4,1.52-3.61,2.91-7.28,4.59-10.82A12.82,12.82,0,0,0,120.62,41.34Zm.58,6.53a3.41,3.41,0,0,0,2-2.62C121.77,45.62,121.41,46.47,121.2,47.87Z"/><path class="cls-3" d="M119.72,112.08c-2-.59-3.2,1-4.8,1.64-.54-.58.19-1.19-.09-1.74l.7-.59a1.28,1.28,0,0,0,1.32-.43c1.14-.2,1.74-1.14,2.42-1.89a13.69,13.69,0,0,1,6.64-4.16c1-.28,2.15-.7,2.74.56.52,1.09-.25,1.77-1.17,2.29a3.6,3.6,0,0,0-.67.68c-.88.37-2,.4-2.27,1.62l0-.06c-.46-.09-.87-.07-1,.52v0c-.6-.11-1.2-.23-1.46.55h0a2,2,0,0,0-2.45,1Z"/><path class="cls-3" d="M110.12,114.68l-.13,1.06h0l-2,0H108c0-1.13-.71-1.08-1.49-1l0,0a1.7,1.7,0,0,0-2-1h0a1.07,1.07,0,0,0-1.45-1h0c0-.37-.16-.52-.51-.49v0c0-.36-.15-.52-.5-.5l0,0c0-.35-.15-.52-.5-.5l0,0c0-.35-.12-.55-.5-.51h0c.16-.49.09-.87-.51-1v0l0-1-.38-.65c-.14-1.11.54-1.34,1.44-1.34l0,0c.16.8.6,1.21,1.45,1h0c0,.37.14.53.51.49l0,0c0,.38.16.52.51.49h0l.51.77.14,0v.15c.58.22,1.09.71,1.79.49l0,0c.1.59.47.67,1,.52h0c0,.37.13.54.5.5h0a1.07,1.07,0,0,0,1,1.46h0c-.16.49-.11.87.5,1l0,0c-.14.49-.08.87.51,1Z"/><path class="cls-3" d="M118.29,39.17c-.71-1.84-1.06-3.69,0-5.53.33,0,.34,1.57.9.25a11,11,0,0,0,1-3.68c.06-1-.26-2.41,1.49-2.67.27,0,.22-1.34,1.22-.72a1.34,1.34,0,0,1,.37,2.09C121.09,32.08,120.21,35.88,118.29,39.17Z"/><path class="cls-3" d="M117.57,9.64c-.62-.12-1.44-.13-1.59-.82-.32-1.53-1-.14-1.43-.24-.2-.51-.42-1-.61-1.55-.27-.8-.88-1.58,0-2.4a1.55,1.55,0,0,1,1.54-.4c1.08.31.67,1.3.93,2.13.63-1.07,1.29-2.29,2.67-1.37s.36,1.84-.16,2.7C118.52,8.37,118,9,117.57,9.64Z"/><path class="cls-3" d="M140.46,63.67a1.11,1.11,0,0,1-.54-1.08l0,0,.5-.51,0,0a.5.5,0,0,0,.51-.5l0,0c.4,0,.86.05,1-.51l0,0c.54,0,1.15.14,1.48-.51l0,0c.41,0,.87.07,1-.5l0,0c.57,0,1.22.15,1.56-.54,1.8-.63,3.43-2,5.86-1.12C148.52,61.83,144.56,62.88,140.46,63.67Z"/><path class="cls-3" d="M116.67,59.24c-.36-2.08.09-3.84,2-5,.13-.43,1.18-.49.52-1.25l0,0c1.47.42,2.23-1.12,3.52-1.27.78-.09,1.53-.45,2.3-.58a1.45,1.45,0,0,1,1.77.87c.31.88-.37,1.34-1.06,1.59-1.12.4-2.27.7-3.42,1C119.73,55.35,117.48,56.42,116.67,59.24Zm3.93-5.31a8.67,8.67,0,0,0,5.45-1.87c-2.33.16-4,.55-5.42,1.9l-.17.07s0,.08,0,.12Z"/><path class="cls-3" d="M119.47,91.45c-1.45-.24-1.25.77-1.24,1.63h0c-.47.44-.94.85-1.38,0,.9-2.43,1.47-5,3-7.19,1.66-.48,1.53-1.74,1.31-3,1.38-.47.87-2.16,1.87-2.88a4.12,4.12,0,0,1-.23,2c-.33,1,.34.48.7.4l.27.28C122.36,85.62,119.86,88,119.47,91.45Z"/><path class="cls-3" d="M126.81,108.44a3.6,3.6,0,0,1,.67-.68c.92-.52,1.69-1.2,1.17-2.29-.59-1.26-1.73-.84-2.74-.56a13.69,13.69,0,0,0-6.64,4.16c-.68.75-1.28,1.69-2.42,1.89l-.7-.09c2.55-2.89,5.19-5.69,9.1-6.68,1.43-.36,3.23-1.49,4.23.59s-.49,3.22-2.14,4.11Z"/><path class="cls-3" d="M113.46,23.47c-.46,1.47.74,1.88,1.59,2.54.3.23.71.6.48,1-.32.54-.76.32-1.16,0-1.14-1-1.65-.36-2,.76a.57.57,0,0,0-.46-.07c-1-.67-1.73.37-2.62.25-.62-.28-1.39-.47-.71-1.41a2.19,2.19,0,0,0,2.13.2l-1.19-.76c-.7-1.26-1.08-2.45,1.08-1.71C111.87,24.64,112.26,22.66,113.46,23.47Z"/><path class="cls-3" d="M59.28,126.83a46.22,46.22,0,0,0-8.89,2.83c-.72.3-1.41.81-2.28.5,2.74-2.09,6-3,9.26-3.72a69.4,69.4,0,0,1,13-1.78v.72l-3.4.41c-.34-.44-.65-.39-.93.06l-2.3.1c-.57-.06-1.16-.19-1.57.39l-1.78.1A1,1,0,0,0,59.28,126.83Z"/><path class="cls-3" d="M98.8,56.61c.79,1.14.71,2-.84,2.18L95.48,57.4a6.09,6.09,0,0,0-2-2.81,1.45,1.45,0,0,1-.33-1.3c.21-.43.82-.23,1.29-.14a4.67,4.67,0,0,1,2.44,1.78C97.44,55.55,97.92,56.32,98.8,56.61Z"/><path class="cls-3" d="M182.77,127.4l-1.31-.09-.65-.39-1.77-.09a1,1,0,0,0-1.11-.39l-1.79-.11A1,1,0,0,0,175,126l-2.28-.11c-.13-.23-.28-.27-.46,0l-2.91-.42v-.72a90,90,0,0,1,19.12,3.68c.78.25,1.94.15,2.19,1.35-1.38,0-2.52-.73-3.77-1.13l.1.05-3.15-.8A1,1,0,0,0,182.77,127.4Z"/><path class="cls-3" d="M120.7,18.73c-2.06.37-3-.62-2.22-3.54.4-1.6-.67-.54-.85-.87.29-1.12,1.14-1.21,2.06-1.07s.91.93.92,1.67a1.25,1.25,0,0,0,.35.82C122.61,17.28,122.62,17.29,120.7,18.73Z"/><path class="cls-3" d="M111.07,94.45l-.59.47-2.06-1.19a4.15,4.15,0,0,0-5.25.55c-1.8,1.55-2.56,3.2-1.26,5.4l-.43.53a3.5,3.5,0,0,1-.49-4.93c1.88-2.77,4.33-3.82,6.64-2.88A10.32,10.32,0,0,1,111.07,94.45Z"/><path class="cls-3" d="M136.57,63.48l-.92-.38c0-.65-.06-1.29-.08-1.94l0,0c.35,0,.49-.19.5-.51l0,0c.53-.14.58-.54.51-1l0,0a.5.5,0,0,0,.51-.51l0,0a1,1,0,0,0,1.16-.55c1-.65,2.37-1.62,3.09-.53s-.87,2-1.68,2.74-2.47,1.11-2.47,2.8l0-.07Z"/><path class="cls-3" d="M155.42,118.6c-1.62.39-2.91-.71-4.39-.94a1,1,0,0,0-1.11-.39,86.08,86.08,0,0,0-11.47.3l-.91-.74c5.09-.41,10.18-.88,15.2.48C153.67,117.56,154.78,117.65,155.42,118.6Z"/><path class="cls-3" d="M132.65,63.22c-.12.83,1,2-.3,2.42a2.73,2.73,0,0,1-3.07-.7c-.54-.57-1-.49-1.45.13l0,0c-.84-.53-1.27-1.21-.55-2.11s1.37-1.19,2.23-.31S131.72,62.47,132.65,63.22Z"/><path class="cls-3" d="M101.77,131.71l3.38,0v.85l-3.2.6-.66.41-1-.06c.59-1.26-.4-1.11-1.07-1.14-3.16-.13-6.32-.24-9.48-.35.79-.82,2,.08,2.84-.77l8.24.4C101.12,132.16,101.44,132.18,101.77,131.71Z"/><path class="cls-3" d="M107.55,78.1c1.21-.65-.54-2,.63-2.66l0,.08c.11.22.21.43.32.64,1.2,1.87,1.56,4.23,3.4,5.71-.17,1,.6,2.31-.74,3.06C109.94,82.65,108.74,80.38,107.55,78.1Z"/><path class="cls-3" d="M109.31,27.89c.89.12,1.67-.92,2.62-.25-1.12,1.91.83,2.75,1.42,4.06-.56.84-.14,1.65.1,2.46s.79,1.49-.34,2c-.7-1-.64-2.47-1.68-3.34l-.57-1.6C111.39,29.61,109.09,29.34,109.31,27.89Z"/><path class="cls-3" d="M96,58.82c-.59,1.81-2.09.72-3.16,1a3.7,3.7,0,0,1-3.89-2c.34,0,.67-.07.74-.5l0,0c2-.37,3.71.73,5.59.93Z"/><path class="cls-3" d="M103.64,34.15c-.68.63-1,1.63-2,1.93a2.09,2.09,0,0,1-1.77-1.7c-.16-1.09.1-2.27,1.26-2.52C102.81,31.49,103.17,33,103.64,34.15Z"/><path class="cls-3" d="M110.86,31.2l.57,1.6a4.38,4.38,0,0,1-.2,2.43c-.83-1.06-1.75-.37-2.64-.14C107.47,32.22,108.27,30.85,110.86,31.2Z"/><path class="cls-3" d="M80.53,132.17l1.92-.43c0,.27,0,.54,0,.81a114.13,114.13,0,0,0-11.26,2.92c-.53.17-1.13.72-1.76.15,3.26-2,7-2.42,10.61-3.4C80.24,132.47,80.39,132.42,80.53,132.17Z"/><path class="cls-3" d="M124.24,35.74c-.49-.74-.9-1.55-1.84-1.82,1.32-2.61,2.44-3.05,3.52-1.29S125.65,35.15,124.24,35.74Z"/><path class="cls-3" d="M42.37,145.2l5.16-1.68c.95.73,0,.82-.37.94-3.77,1.28-7.52,2.66-11.54,3v-.76l2.25-.09.64-.38,3.21-.59C41.94,145.47,42.16,145.34,42.37,145.2Z"/><path class="cls-3" d="M124,43.46c.07-.41.13-.83.2-1.24a8.91,8.91,0,0,0,.9-.16c1.18-.34,2.44-.65,3,.84.49,1.31-.42,2-1.53,2.44-.29-.28.1-1.52-.6-.92-1.27,1.06-1.19-.72-1.88-.62A.23.23,0,0,1,124,43.46Z"/><path class="cls-3" d="M114.26,19.21c-.43.43-.76,1-1.47,1.07h0c0-.34,0-.87-.16-1-.4-.27-.33.29-.49.47-.18-.85-1.54-1.61-.68-2.43.51-.47.37-2.09,1.61-1.42S114.51,17.87,114.26,19.21Z"/><path class="cls-3" d="M79.57,124.89l-7.27.41-.92-.73c1.89-.14,3.77-.4,5.66-.39,1.53,0,2.67-.39,3.33-1.83l.33.32c0,.41-.49.77-.16,1.23Z"/><path class="cls-3" d="M131.24,118.62c-1.64.44-3,1.74-4.87,1.42,3-2.25,6.56-2.8,10.17-3.11v.72l-2.71.1-.67.39-1.29.08Z"/><path class="cls-3" d="M102.23,51.51c.54-.59,1.28-1.43,1.89-.51s2.09.94,1.5,2.39c-.47,1.14-1.39,1.18-2.41,1l0,0a6.83,6.83,0,0,1,.33-2.29c.26-1.37-.71-.43-1.16-.48Z"/><path class="cls-3" d="M101.76,54.34c-1,.82-2.32.44-3.38,1A2,2,0,0,1,98,53.5c1.24,0,2.35-1,3.66-.49C101.69,53.45,101.73,53.9,101.76,54.34Z"/><path class="cls-3" d="M80.37,122.35a10.79,10.79,0,0,1,7.4-2.56v.75l-2.29.09a1,1,0,0,0-1.09.42l-3.69,1.62Z"/><path class="cls-3" d="M91.16,119.83a20.49,20.49,0,0,1,7.54.91l-.42.48L96.94,121c-.27-.45-.58-.51-.93-.08l-4.85-.4Z"/><path class="cls-3" d="M106.54,97.61a27,27,0,0,0-1.9,2.4c-1,1.58-2,1.52-3.16.2l.43-.53c.81.48,1.48.7,2.14-.36a13.39,13.39,0,0,1,2-2Z"/><path class="cls-3" d="M61.23,138.52a13.6,13.6,0,0,1,6.8-2.44A13.25,13.25,0,0,1,61.23,138.52Z"/><path class="cls-3" d="M101.65,53c-1.31-.5-2.42.47-3.66.49,0-2.12,0-4.23.05-6.34l.23,0c.47,1.72-.58,3.64.68,5.25.56,0,1.1,0,1.39-.6l1,.17.53.37Z"/><path class="cls-3" d="M49.16,143.34a10.29,10.29,0,0,1,6.3-2.43A11.5,11.5,0,0,1,49.16,143.34Z"/><path class="cls-3" d="M119.13,124.37l-.66.87,0-.09a3.31,3.31,0,0,1-2.41,1.36c-.27-1.1.34-1.79.66-2.57.54-.35.45-.9.45-1.43l.26-.21C118.05,123,116.94,125,119.13,124.37Z"/><path class="cls-3" d="M64.57,173.67c.08.68.73,1.23.46,2-1.85-1.44-1.46-3.42-1.31-5.35h.8v2.91s-.16.12-.15.14A1.73,1.73,0,0,0,64.57,173.67Z"/><path class="cls-3" d="M98.27,47.2l-.23,0c0-.75.08-1.67.87-1.69,1,0,1,1,1,1.79-.39,1.44.58,3.08-.68,4.38a10.29,10.29,0,0,0,.11-4.45C99.14,45.78,98.63,46.86,98.27,47.2Z"/><path class="cls-3" d="M101.85,107c-.9,0-1.58.23-1.44,1.34,0,.21,0,.42-.07.63l-.25.21a14.54,14.54,0,0,1-.34-1.82c0-.6-.09-1.43.75-1.47C101.09,105.87,101.92,106,101.85,107Z"/><path class="cls-3" d="M168,125.3l-3.39-.41c0-.47,0-.94,0-1.42l.22-.18a5.84,5.84,0,0,0,3.63,1.26Z"/><path class="cls-3" d="M46.7,130.65c-.86,1.55-2.42,1.67-3.9,1.93A5.17,5.17,0,0,1,46.7,130.65Z"/><path class="cls-3" d="M92.57,131.28c-.79.85-2-.05-2.84.77h-2l-.93-.77Z"/><path class="cls-3" d="M99.22,51.64c1.26-1.3.29-2.94.68-4.38.75,1.48.22,3.07.44,4.59-.29.6-.83.61-1.39.6C98.94,52.15,98.86,51.82,99.22,51.64Z"/><path class="cls-3" d="M86.82,131.27l.93.77-4.32.34v-.7Z"/><path class="cls-3" d="M73.76,179.51v.77c-1.52-.21-3.15,0-4.38-1.25l1.48,0,.65.39Z"/><path class="cls-3" d="M31.7,140.8c-.12,1.25-.23,2.49-.34,3.74,0,.21-.05.42-.07.63l-.16.14C30.44,143.7,30.14,142.13,31.7,140.8Z"/><path class="cls-3" d="M91.16,119.83v.72H87.77v-.75A8.42,8.42,0,0,1,91.16,119.83Z"/><path class="cls-3" d="M95.09,57.8l.18.45c-1.88-.2-3.62-1.3-5.59-.93C91.6,56.14,93.31,57.37,95.09,57.8Z"/><path class="cls-3" d="M110,96.2l0,.63c-1.09,0-2.22-.3-3.18.52l-.31-.55C107.5,95.56,108.74,95.75,110,96.2Z"/><path class="cls-3" d="M105.12,26.73c0,1.35-.8,1.63-1.93,1.54C103.7,27.58,103.45,26,105.12,26.73Z"/><path class="cls-3" d="M126.81,108.44l.53.45a4.31,4.31,0,0,1-2.8,1.17C124.8,108.84,125.93,108.81,126.81,108.44Z"/><path class="cls-3" d="M158.34,120a2.64,2.64,0,0,1-2.93-1.43C156.59,118.64,157.72,118.82,158.34,120Z"/><path class="cls-3" d="M42.83,132.56A2.88,2.88,0,0,1,39.91,134,3,3,0,0,1,42.83,132.56Z"/><path class="cls-3" d="M66.46,163.48c-.13,1.15-.15,2.35-1.44,2.93C65.05,165.21,65.22,164.08,66.46,163.48Z"/><path class="cls-3" d="M80,145.59a2.9,2.9,0,0,1-2,2A1.91,1.91,0,0,1,80,145.59Z"/><path class="cls-3" d="M65,166.4c.39,1.06-.24,2-.44,2.93l-.64-.05C64.09,168.24,64.12,167.15,65,166.4Z"/><path class="cls-3" d="M58.83,139.48c.47-1.16,1.42-1.15,2.44-1A2,2,0,0,1,58.83,139.48Z"/><path class="cls-3" d="M35.62,146.66v.76a2.93,2.93,0,0,1-1.94,0v-.76Z"/><path class="cls-3" d="M106.15,29.77c-.83-.56-.71-1.18-.12-1.83C106.69,28.51,106.51,29.13,106.15,29.77Z"/><path class="cls-3" d="M98.85,134a2.12,2.12,0,0,1-2.44,1A2,2,0,0,1,98.85,134Z"/><path class="cls-3" d="M119.69,112a2,2,0,0,1,2.45-1A2,2,0,0,1,119.69,112Z"/><path class="cls-3" d="M94,136c-.29,1-1,1.16-2,1A1.61,1.61,0,0,1,94,136Z"/><path class="cls-3" d="M56.89,140.42c.29-1.07,1.08-1.12,2-1C58.5,140.41,57.73,140.48,56.89,140.42Z"/><path class="cls-3" d="M67.43,161.56c.2.92,0,1.64-1,1.95A1.52,1.52,0,0,1,67.43,161.56Z"/><path class="cls-3" d="M109.54,25.92l1.19.76a2.19,2.19,0,0,1-2.13-.2C108.6,25.77,109.18,26,109.54,25.92Z"/><path class="cls-3" d="M136.55,117.65v-.72l1-.1.91.74Z"/><path class="cls-3" d="M106.54,114.84c.78-.13,1.51-.18,1.49,1C107.36,115.75,106.71,115.67,106.54,114.84Z"/><path class="cls-3" d="M104.63,113.86a1.7,1.7,0,0,1,2,1A1.48,1.48,0,0,1,104.63,113.86Z"/><path class="cls-3" d="M135.57,61.16c0,.65.05,1.29.08,1.94l-.72,0C135,62.41,134.84,61.65,135.57,61.16Z"/><path class="cls-3" d="M71.38,124.57l.92.73-1.92.08v-.72Z"/><path class="cls-3" d="M162.19,122a1.68,1.68,0,0,1-1.95-1A1.52,1.52,0,0,1,162.19,122Z"/><path class="cls-3" d="M168,125.3l.45-.75,1,.11v.72Z"/><path class="cls-3" d="M164,123.51c-.41-.25-.9-.44-.81-1.06.77-.18,1.15.42,1.62.84l-.22.18Z"/><path class="cls-3" d="M103.19,112.89a1.07,1.07,0,0,1,1.45,1C103.84,114,103.43,113.58,103.19,112.89Z"/><path class="cls-3" d="M124.73,81.22l-1,1.46-.27-.28a1.66,1.66,0,0,1,1-1.45Z"/><path class="cls-3" d="M106.66,110.38c-.7.22-1.21-.27-1.79-.49C105.8,108.83,106.22,109.62,106.66,110.38Z"/><path class="cls-3" d="M33.68,146.66v.76c-.59,0-1.24,0-1.48-.75Z"/><path class="cls-3" d="M36.06,136.44a1.06,1.06,0,0,1-1.45,1C34.88,136.78,35.24,136.28,36.06,136.44Z"/><path class="cls-3" d="M31.77,145.19c.25.46.7.87.43,1.48-.76-.13-.93-.74-1.07-1.36l.16-.14Z"/><path class="cls-3" d="M87.74,139.35a1.05,1.05,0,0,1-1.46,1A1.26,1.26,0,0,1,87.74,139.35Z"/><path class="cls-3" d="M109.07,112.82a1.07,1.07,0,0,1-1-1.46A1.22,1.22,0,0,1,109.07,112.82Z"/><path class="cls-3" d="M75.18,150.47a1.07,1.07,0,0,1-1,1.45C74,151.07,74.56,150.76,75.18,150.47Z"/><path class="cls-3" d="M103.26,108c-.85.2-1.29-.21-1.45-1C102.71,106.72,103,107.36,103.26,108Z"/><path class="cls-3" d="M102,122.26l1.45,1c-.12.12-.23.25-.34.37a2.52,2.52,0,0,1-1.45-.95Z"/><path class="cls-3" d="M68.89,159.14c.17.82-.11,1.34-1,1.47A1.22,1.22,0,0,1,68.89,159.14Z"/><path class="cls-3" d="M64,169.28l.64.05c0,.33,0,.65-.07,1h-.8A1,1,0,0,1,64,169.28Z"/><path class="cls-3" d="M83.43,131.68v.7l-1,.17c0-.27,0-.54,0-.81Z"/><path class="cls-3" d="M112.15,19.75c.16-.18.09-.74.49-.47.19.12.11.65.16,1C112.58,20.1,112.36,19.93,112.15,19.75Z"/><path class="cls-3" d="M68,136.1c.29-.76.88-.64,1.47-.5C69.15,136.31,68.69,136.56,68,136.1Z"/><path class="cls-3" d="M122.09,111c.26-.78.86-.66,1.46-.55C123.22,111.08,122.79,111.39,122.09,111Z"/><path class="cls-3" d="M100.31,133.52c-.29.76-.87.66-1.47.5C99.16,133.35,99.6,133.05,100.31,133.52Z"/><path class="cls-3" d="M48.15,130.14c-.27.78-.85.69-1.46.52C47,130.07,47.46,129.76,48.15,130.14Z"/><path class="cls-3" d="M145.81,59.67c-.34.69-1,.51-1.56.54A1.72,1.72,0,0,1,145.81,59.67Z"/><path class="cls-3" d="M55.44,140.93c.26-.8.85-.68,1.46-.52A1,1,0,0,1,55.44,140.93Z"/><path class="cls-3" d="M143.31,60.67c-.33.65-.94.48-1.48.51A1.35,1.35,0,0,1,143.31,60.67Z"/><path class="cls-3" d="M98.7,120.74l1.38.53-.37.45-1.43-.5Z"/><path class="cls-3" d="M96.44,135c-.27.77-.85.7-1.46.52C95.32,134.9,95.76,134.58,96.44,135Z"/><path class="cls-3" d="M163.15,122.46c-.5.16-.87.08-1-.51C162.72,121.7,163,121.89,163.15,122.46Z"/><path class="cls-3" d="M118.19,30.27a1.81,1.81,0,0,1,0-.4c.52.14.47.51.37.9Z"/><path class="cls-3" d="M144.28,60.19c-.13.57-.59.49-1,.5C143.41,60.13,143.87,60.22,144.28,60.19Z"/><path class="cls-3" d="M67.93,160.6c.15.5.09.88-.51,1C67.19,161.05,67.37,160.72,67.93,160.6Z"/><path class="cls-3" d="M32.2,139.85c.15.5.08.87-.52,1C31.42,140.27,31.71,140,32.2,139.85Z"/><path class="cls-3" d="M136.54,59.71c.07.45,0,.85-.51,1A.79.79,0,0,1,136.54,59.71Z"/><path class="cls-3" d="M138.16,58.7a1,1,0,0,1-1.16.55A1.08,1.08,0,0,1,138.16,58.7Z"/><path class="cls-3" d="M69.85,157.7c.16.5.05.86-.52,1C68.91,158,69.23,157.79,69.85,157.7Z"/><path class="cls-3" d="M89.68,138.35c-.12.57-.5.65-1,.51C88.77,138.21,89.05,138,89.68,138.35Z"/><path class="cls-3" d="M88.71,138.84c-.1.6-.48.67-1,.52C87.87,138.82,88.14,138.55,88.71,138.84Z"/><path class="cls-3" d="M70.82,156.25c.17.51,0,.86-.52,1C69.89,156.6,70.24,156.36,70.82,156.25Z"/><path class="cls-3" d="M116.77,122.5c0-.33,0-.67,0-1,.54,0,.54.47.69.8l-.26.21Z"/><path class="cls-3" d="M100.08,121.27l1,.47-.38.44-1-.46Z"/><path class="cls-3" d="M71.8,154.81c.16.51.06.87-.53,1C70.92,155.18,71.32,155,71.8,154.81Z"/><path class="cls-3" d="M160.27,121c-.48.12-.88.08-1-.5C159.89,120.08,160.2,120.29,160.27,121Z"/><path class="cls-3" d="M125.42,120.52c-.09.63-.5.63-1,.49C124.57,120.45,124.94,120.38,125.42,120.52Z"/><path class="cls-3" d="M121.55,122.9c-.12.57-.49.65-1,.51C120.65,122.78,120.91,122.49,121.55,122.9Z"/><path class="cls-3" d="M92.09,136.92c-.1.61-.49.64-1,.5C91.23,136.85,91.55,136.67,92.09,136.92Z"/><path class="cls-3" d="M191.65,130.17c-.49.14-.86.05-1-.51C191.31,129.21,191.55,129.55,191.65,130.17Z"/><path class="cls-3" d="M73.25,152.88c.17.52,0,.87-.53,1C72.3,153.2,72.8,153.06,73.25,152.88Z"/><path class="cls-3" d="M159.3,120.51c-.48.12-.87.08-1-.51C158.93,119.6,159.24,119.81,159.3,120.51Z"/><path class="cls-3" d="M126.38,120c-.09.63-.5.63-1,.5C125.52,120,125.89,119.88,126.38,120Z"/><path class="cls-3" d="M123,121.94c-.11.6-.48.67-1,.51C122.14,121.88,122.41,121.6,123,121.94Z"/><path class="cls-3" d="M110.63,117.22l.59.26c-.37.38-.39-.2-.62-.22Z"/><path class="cls-3" d="M110.06,114.75c-.59-.11-.65-.49-.51-1C110.13,113.89,110.42,114.15,110.06,114.75Z"/><path class="cls-3" d="M39.93,134c-.09.61-.48.65-1,.51C39.08,134,39.38,133.76,39.93,134Z"/><path class="cls-3" d="M109.57,113.79c-.61-.11-.66-.49-.5-1C109.62,112.93,109.78,113.26,109.57,113.79Z"/><path class="cls-3" d="M101.07,121.74l.91.52-.34.42-1-.5Z"/><path class="cls-3" d="M120.58,123.4c-.09.6-.47.67-1,.51C119.76,123.41,120,123.13,120.58,123.4Z"/><path class="cls-3" d="M37.52,135.46c-.1.61-.48.67-1,.52C36.7,135.5,37,135.18,37.52,135.46Z"/><path class="cls-3" d="M116.15,110.87l.7.09a1.28,1.28,0,0,1-1.32.43Z"/><path class="cls-3" d="M107.61,110.88c-.51.15-.88.07-1-.52C107.23,110,107.44,110.41,107.61,110.88Z"/><path class="cls-3" d="M123.54,110.52c.11-.59.52-.61,1-.52C124.44,110.63,124,110.61,123.54,110.52Z"/><path class="cls-3" d="M100.74,110c.6.1.67.48.51,1C100.69,110.83,100.44,110.54,100.74,110Z"/><path class="cls-3" d="M95,135.48c-.09.64-.51.62-1,.49C94.11,135.35,94.51,135.34,95,135.48Z"/><path class="cls-3" d="M100.79,109l0,1c-.66.09-.5-.5-.66-.82l.25-.21Z"/><path class="cls-3" d="M47.88,143.31h1.3C48.44,144.21,48.23,144.21,47.88,143.31Z"/><path class="cls-3" d="M68.41,178.56c.48-.14.89-.14,1,.48C68.91,179.2,68.51,179.18,68.41,178.56Z"/><path class="cls-3" d="M67.45,178.06c.49-.15.88-.1,1,.51C67.89,178.8,67.58,178.6,67.45,178.06Z"/><path class="cls-3" d="M83.88,142.21c-.1.58-.46.71-1,.53C83.09,142.3,83.22,141.78,83.88,142.21Z"/><path class="cls-3" d="M91.13,137.41c-.1.6-.49.65-1,.5C90.28,137.35,90.62,137.22,91.13,137.41Z"/><path class="cls-3" d="M141.86,61.15c-.13.56-.59.49-1,.51C141.05,61.2,141.44,61.15,141.86,61.15Z"/><path class="cls-3" d="M85.81,140.77c-.1.59-.47.68-1,.52C85,140.82,85.2,140.42,85.81,140.77Z"/><path class="cls-3" d="M124,121.45c-.11.58-.5.64-1,.51C123.05,121.31,123.34,121.05,124,121.45Z"/><path class="cls-3" d="M101.67,51.9l.56-.39.18.18-.35.57Z"/><path class="cls-3" d="M101.88,52.39l-.53-.37a.38.38,0,0,1,.32-.12l.39.36Z"/><path class="cls-3" d="M89.7,57.29c-.07.43-.4.47-.74.5Z"/><path class="cls-3" d="M33.65,138.38c0,.37-.14.53-.5.5C33,138.44,33.21,138.28,33.65,138.38Z"/><path class="cls-3" d="M33.16,138.86c0,.37-.12.54-.49.5C32.58,139,32.72,138.75,33.16,138.86Z"/><path class="cls-3" d="M90.16,137.9c0,.39-.19.49-.52.49C89.43,137.82,89.78,137.85,90.16,137.9Z"/><path class="cls-3" d="M124.45,121c0,.38-.19.49-.53.47C123.73,120.92,124.09,121,124.45,121Z"/><path class="cls-3" d="M116.78,121.5l-.8,0c.09-.16.15-.44.27-.47C116.61,120.92,116.73,121.2,116.78,121.5Z"/><path class="cls-3" d="M103.43,123.26l.62.44-.47.38-.49-.45Z"/><path class="cls-3" d="M104.05,123.7l.37.33-.33.51-.51-.46Z"/><path class="cls-3" d="M122,122.45c0,.37-.19.49-.52.48C121.3,122.37,121.62,122.36,122,122.45Z"/><path class="cls-3" d="M192.15,130.66c-.34,0-.53-.13-.51-.5C192.12,130,192.34,130.14,192.15,130.66Z"/><path class="cls-3" d="M119.62,123.91c0,.38-.17.51-.52.48C118.93,123.86,119.28,123.89,119.62,123.91Z"/><path class="cls-3" d="M192.64,131.14c-.35,0-.52-.15-.51-.5C192.64,130.47,192.82,130.62,192.64,131.14Z"/><path class="cls-3" d="M39,134.53c0,.39-.23.58-.52.75C38,134.57,38.48,134.56,39,134.53Z"/><path class="cls-3" d="M102.69,112.4c.35,0,.54.12.51.49C102.82,112.94,102.55,112.88,102.69,112.4Z"/><path class="cls-3" d="M102.2,111.92c.35,0,.53.14.5.5C102.25,112.54,102.05,112.41,102.2,111.92Z"/><path class="cls-3" d="M38.32,135.49H37.5c0-.35.15-.62.54-.51C38.17,135,38.23,135.31,38.32,135.49Z"/><path class="cls-3" d="M101.72,111.44c.35,0,.52.15.5.5C101.74,112.08,101.58,111.92,101.72,111.44Z"/><path class="cls-3" d="M108.1,111.37c-.37,0-.54-.13-.5-.5C108,110.85,108.13,111,108.1,111.37Z"/><path class="cls-3" d="M101.24,111c.38,0,.52.16.5.51C101.22,111.63,101.19,111.33,101.24,111Z"/><path class="cls-3" d="M104.74,109.7l-.51-.77C104.76,109,105.24,109,104.74,109.7Z"/><path class="cls-3" d="M36.56,136c0,.38-.17.51-.52.48C35.89,136,36.21,136,36.56,136Z"/><path class="cls-3" d="M66.94,177.58c.35,0,.55.11.52.49C67.11,178.1,66.76,178.13,66.94,177.58Z"/><path class="cls-3" d="M104.25,108.94c-.35,0-.55-.11-.51-.49C104.12,108.39,104.4,108.45,104.25,108.94Z"/><path class="cls-3" d="M103.76,108.47c-.37,0-.55-.12-.51-.49C103.61,108,103.83,108.06,103.76,108.47Z"/><path class="cls-3" d="M66.45,177.1c.34,0,.53.14.51.5C66.47,177.76,66.26,177.63,66.45,177.1Z"/><path class="cls-3" d="M66,176.62a.44.44,0,0,1,.51.5C66,177.31,65.79,177.14,66,176.62Z"/><path class="cls-3" d="M65.49,176.13c.35,0,.51.17.5.51C65.47,176.83,65.31,176.65,65.49,176.13Z"/><path class="cls-3" d="M65,175.64c.37,0,.5.18.49.52C65,176.36,64.93,176.06,65,175.64Z"/><path class="cls-3" d="M106.81,97.35a.62.62,0,0,1-.27.26l-.53-.32c.17-.16.33-.32.49-.49Z"/><path class="cls-3" d="M97.18,78.63l.57-.54.25.56-.47.48Z"/><path class="cls-3" d="M127.1,77.82l-.43.51a3.07,3.07,0,0,1-.26-.25l.48-.48Z"/><path class="cls-3" d="M108.48,76.16c-.11-.21-.21-.42-.32-.64C108.27,75.74,108.37,76,108.48,76.16Z"/><path class="cls-3" d="M128.09,76.87l-.49.49-.23-.24.48-.48Z"/><path class="cls-3" d="M73.73,152.38c0,.36-.11.55-.49.51C73.21,152.54,73.3,152.3,73.73,152.38Z"/><path class="cls-3" d="M74.21,151.89c0,.34-.13.54-.5.51C73.65,152,73.68,151.71,74.21,151.89Z"/><path class="cls-3" d="M97.75,78.09l.17-.18.56.28-.48.46Z"/><path class="cls-3" d="M75.66,150c0,.37-.11.55-.49.51C75.14,150.12,75.25,149.89,75.66,150Z"/><path class="cls-3" d="M76.14,149.48c0,.36-.12.54-.49.51C75.58,149.59,75.66,149.34,76.14,149.48Z"/><path class="cls-3" d="M76.62,149c0,.35-.13.53-.5.51C76,149.05,76.1,148.82,76.62,149Z"/><path class="cls-3" d="M77.1,148.5c0,.35-.15.53-.5.51C76.45,148.53,76.57,148.32,77.1,148.5Z"/><path class="cls-3" d="M77.58,148c0,.34-.15.52-.5.51C76.89,148,77.06,147.84,77.58,148Z"/><path class="cls-3" d="M78.07,147.54a.45.45,0,0,1-.51.5C77.38,147.52,77.55,147.35,78.07,147.54Z"/><path class="cls-3" d="M80.48,145.12a.45.45,0,0,1-.51.51Q79.7,144.85,80.48,145.12Z"/><path class="cls-3" d="M81,144.64c0,.35-.18.5-.51.51C80.27,144.62,80.45,144.46,81,144.64Z"/><path class="cls-3" d="M81.45,144.16c0,.36-.16.51-.51.5C80.76,144.13,81,144,81.45,144.16Z"/><path class="cls-3" d="M134.14,64.19c-.07.3-.19.46-.48.2Z"/><path class="cls-3" d="M81.94,143.69c0,.36-.16.51-.51.49C81.26,143.66,81.51,143.58,81.94,143.69Z"/><path class="cls-3" d="M34.62,137.43c0,.37-.14.52-.5.48C34,137.49,34.26,137.39,34.62,137.43Z"/><path class="cls-3" d="M82.43,143.21c0,.38-.16.52-.51.5C81.79,143.23,82,143.14,82.43,143.21Z"/><path class="cls-3" d="M82.92,142.74c0,.37-.14.53-.51.49C82.34,142.81,82.57,142.72,82.92,142.74Z"/><path class="cls-3" d="M72.28,154.31c0,.35-.11.55-.49.51C71.76,154.47,71.79,154.17,72.28,154.31Z"/><path class="cls-3" d="M70.34,157.19c0,.34-.13.54-.5.52C69.73,157.27,69.78,157,70.34,157.19Z"/><path class="cls-3" d="M84.35,141.75c0,.37-.17.51-.51.5C83.64,141.71,83.91,141.64,84.35,141.75Z"/><path class="cls-3" d="M69.37,158.64c0,.33-.12.54-.49.52C68.77,158.73,68.81,158.44,69.37,158.64Z"/><path class="cls-3" d="M140.4,62.12l-.5.51C139.86,62.26,140,62.07,140.4,62.12Z"/><path class="cls-3" d="M72.76,153.82c0,.33-.13.53-.5.51C72.16,153.9,72.21,153.62,72.76,153.82Z"/><path class="cls-3" d="M84.85,141.29c0,.38-.16.51-.52.48C84.19,141.28,84.49,141.25,84.85,141.29Z"/><path class="cls-3" d="M140.89,61.64a.5.5,0,0,1-.51.5C140.32,61.75,140.58,61.66,140.89,61.64Z"/><path class="cls-3" d="M127.6,77.36l-.5.46-.21-.22.48-.48Z"/><path class="cls-3" d="M136.05,60.67c0,.32-.15.52-.5.51C135.57,60.87,135.64,60.61,136.05,60.67Z"/><path class="cls-3" d="M128.55,76.37l-.46.5-.24-.23.49-.49Z"/><path class="cls-3" d="M71.31,155.75c0,.34-.12.54-.49.51C70.74,155.86,70.76,155.55,71.31,155.75Z"/><path class="cls-3" d="M86.29,140.31c0,.38-.18.5-.52.49C85.57,140.24,85.91,140.26,86.29,140.31Z"/><path class="cls-3" d="M32.68,139.35c0,.37-.11.55-.49.51C32.18,139.52,32.26,139.27,32.68,139.35Z"/><path class="cls-3" d="M137,59.23a.5.5,0,0,1-.51.51Z"/><path class="cls-3" d="M34.13,137.9c0,.37-.13.53-.5.5C33.52,138,33.71,137.81,34.13,137.9Z"/><path class="cls-3" d="M120.12,133.56l2.93.44.94.07,5.81.89.23.06h.23l2.25.11.65.38,1.77.11.65.37,1.33.11,1.08.39,1.28.1.66.38,1.28.09.65.4.85.08,1.08.41c1.48.27,2.81,1.36,4.44.84l-.07.06a5.56,5.56,0,0,0,4.36,1.48h0c.09.64.51.61,1,.49v0c.58,1.29,1.78,1.33,2.93,1.46l0,0c.31,1,1,1.19,2,1h0c.1.6.49.65,1,.51h0c.09.61.48.65,1,.5h0c0,.38.17.5.52.48l0,0c.1.59.48.67,1,.52h0c0,.38.17.51.51.48l0,0a1.07,1.07,0,0,0,1.46,1h0c0,.37.16.51.5.49l0,0c0,.36.17.51.51.5l0,0c0,.35.16.52.51.5l0,0c0,.35.14.53.49.51l0,0c0,.35.12.55.5.51h0c-.16.5-.07.86.52,1l0,0c-.12.48-.08.87.5,1l0,0a2.37,2.37,0,0,0,.42,2l.42,1.1.11,1.33.37.64.09,2.24v2.43l-.47,1v0h-2a.9.9,0,0,0-.46,0c-2.08.42-4.13,1.24-6.3.47a1.08,1.08,0,0,0-.47,0c-2.69-.28-5.08-1.73-7.79-1.89l0,0c-.29-.74-.86-.69-1.47-.51h0c-.1-.62-.5-.63-1-.5l0,0c-.11-.61-.5-.65-1-.5h0c-.1-.61-.48-.66-1-.51h0c0-.38-.18-.51-.52-.49l0,0c-.09-.6-.47-.68-1-.52h0c.14-.8-.21-1.09-1-1h0c0-.37-.14-.53-.51-.49h0c0-.37-.14-.53-.5-.49h0c0-.37-.15-.52-.5-.49h0c0-.35-.15-.52-.51-.5l0,0c0-.36-.16-.51-.51-.5l0,0c0-.35-.16-.51-.51-.49l0,0c0-.36-.16-.52-.5-.51l0,0c0-.34-.17-.5-.51-.5l0,0a.45.45,0,0,0-.51-.5l0,0c-.17-.63-.42-.38-.68-.06l-.19-.05-.06-.19c.3-1.1-.58-1.58-1.18-2.18A46.51,46.51,0,0,0,120,138c-2.1-.73-4.24-1.53-5.74-3.35.28-.35.81-.72.79-1.05,0-.61-.72-.39-1.15-.46l-.17-.48c1.32-1,2.32.59,3.53.43l.23.05h.24l2,.41.23,0ZM154.42,151c0-.36-.06-.76-.59-.73-.05,0-.14.1-.15.15,0,.53.38.52.73.59a6.9,6.9,0,0,0,4.25,2.38C157.09,151.9,156.05,150.94,154.42,151ZM152,149.06c.05.36.06.76.59.73a.28.28,0,0,0,.15-.15c0-.53-.38-.52-.73-.59a6.9,6.9,0,0,0-4.25-2.38C149.33,148.13,150.37,149.11,152,149.06Zm-11.59-7.24c.23.4.44.86,1,.75.08,0,.22-.26.18-.34-.23-.58-.77-.36-1.2-.43,0-1.12-.91-1.44-1.7-1.79a43.94,43.94,0,0,0-6.37-2.09c-5.3-1.38-11-1-16-3.64,0,0-.21.17-.47.39a12.65,12.65,0,0,0,5.45,2.31C127.84,138,134.48,138.47,140.41,141.82Zm18.62,12c.5.64.94,1.4,2.18,1.28A1.91,1.91,0,0,0,159,153.79Zm-12-7.92c-.06.14-.19.31-.15.4s.25.12.38.18c.06-.13.19-.3.15-.39S147.17,145.93,147,145.87Zm-3.9-2.73-.41-.18c-.06.14-.19.31-.15.4s.25.13.38.18Zm1,.8c-.06.14-.19.31-.15.4s.25.12.38.18c.06-.13.2-.3.16-.39S144.28,144,144.14,143.94Zm1.89,1.13-.4-.17c-.06.13-.2.3-.16.39s.25.13.39.19C145.92,145.34,146,145.21,146,145.07Z"/><path class="cls-3" d="M114.24,134.62c1.5,1.82,3.64,2.62,5.74,3.35a46.51,46.51,0,0,1,17.8,11.58c.6.6,1.48,1.08,1.18,2.18l-6.35-5.55A34.38,34.38,0,0,0,121,139.43a31.51,31.51,0,0,1-6.55-3.15c-.42,1.56.22,2.69.76,3.83a24.78,24.78,0,0,0,4.28,6.09c4.4,4.82,4.78,10.67,4.46,16.72a2.51,2.51,0,0,1-1.17,2l-.39-.54c1.37-5.86,1-11.45-2.71-16.44-2.13-2.9-4.72-5.47-5.93-9-.65-2.07-.42-4.26-.8-6.36h.72l.17.48C113.87,133.65,113.79,134.19,114.24,134.62Z"/><path class="cls-3" d="M110.57,132.14l.37,0a21.47,21.47,0,0,1-1.58,7.46c-1.58,4.52-3.69,8.92-4.76,13.56-1.58,6.89-.18,10,6.06,12a4.45,4.45,0,0,1,1.3.62c2.28,1.74,4.62,1.4,7,.28l3.46-1.66.39.54c-3.64,2.37-7.29,4.6-11.63,1.48a2.15,2.15,0,0,0-.65-.31c-7.74-2.06-8.76-8.15-6.39-14.88,1.65-4.68,3.55-9.28,5-14,.26-.83.82-1.74-.61-2.06l.43-1.08C109.91,133.74,110,132.76,110.57,132.14Z"/><path class="cls-3" d="M166,161.65h2a11.79,11.79,0,0,1-7,1.46c-3.5-.26-7-.74-10-2.9,2.71.16,5.1,1.61,7.79,1.89.13.25.29.29.47,0,2.17.77,4.22,0,6.3-.47C165.71,161.92,165.87,161.88,166,161.65Z"/><path class="cls-3" d="M143.28,133.24l7.75.89c.1,1.16.84,1.47,1.86,1.4a1,1,0,0,1,.22.34l-.38.49c-3.39-1-6.77-2.19-10.36-2.4Z"/><path class="cls-3" d="M185.83,139.49l.77.5c-4.07,1.17-8-.15-11.94-.75-.47-.07-.93-.18-1.39-.27l.58-.62,1.34.13.63.37,1.79.1c.21.13.43.25.65.37l2.24.11a.83.83,0,0,0,1.41.08Z"/><path class="cls-3" d="M172.12,144.53c-2.88.93-5.07-.83-7.42-1.93l.45-.45c2.2.56,4.11,2.12,6.53,1.92Z"/><path class="cls-3" d="M168,155.34c0-.44-.07-.89-.11-1.33a1,1,0,0,0-.42-1.1,2.37,2.37,0,0,1-.42-2c1.92,2.08,1.8,4.75,2.13,7.29h-.72l-.09-2.24C168.23,155.76,168.1,155.55,168,155.34Z"/><path class="cls-3" d="M152.52,140.32a5.56,5.56,0,0,1-4.36-1.48A5.86,5.86,0,0,1,152.52,140.32Z"/><path class="cls-3" d="M173.15,139.41a5.54,5.54,0,0,1-.11,4.1l-.45-.39c0-1,0-2.07.08-3.1Z"/><path class="cls-3" d="M156.41,142.24c-1.15-.13-2.35-.17-2.93-1.46A2.94,2.94,0,0,1,156.41,142.24Z"/><path class="cls-3" d="M158.33,143.2c-.92.2-1.64,0-2-1A1.51,1.51,0,0,1,158.33,143.2Z"/><path class="cls-3" d="M168.44,158.22h.72l.12,1a1.21,1.21,0,0,0-.14,1.54V161l-.69-.3Z"/><path class="cls-3" d="M173.15,139.41l-.48.61-.6-1.44.69-.6,1.09.37-.58.62A3.17,3.17,0,0,1,173.15,139.41Z"/><path class="cls-3" d="M143.28,133.24l-.91.72-1-.13v-.7Z"/><path class="cls-3" d="M163.64,146.59a1.07,1.07,0,0,1-1.46-1C163,145.44,163.4,145.89,163.64,146.59Z"/><path class="cls-3" d="M144.23,156.33c.78-.13,1.13.16,1,1C144.69,157.18,144.27,157,144.23,156.33Z"/><path class="cls-3" d="M149.55,159.73c.61-.18,1.18-.23,1.47.51C150.3,160.73,149.89,160.32,149.55,159.73Z"/><path class="cls-3" d="M173,143.51a1.75,1.75,0,0,1-.92,1l-.44-.46.9-.95Z"/><path class="cls-3" d="M169.14,160.76a1.21,1.21,0,0,1,.14-1.54A1.6,1.6,0,0,1,169.14,160.76Z"/><path class="cls-3" d="M168.45,160.65l.69.3c-.24.48-.41,1.06-1.16.73C168.13,161.34,168.29,161,168.45,160.65Z"/><path class="cls-3" d="M155.16,137.36l-1.41-.63.3-.4,1.43.52Z"/><path class="cls-3" d="M157.1,138.36l-1.12-.58.46-.44,1,.51Z"/><path class="cls-3" d="M161.94,141.1l-.93-.56.31-.35,1,.48Z"/><path class="cls-3" d="M153.49,140.8c-.47.12-.89.15-1-.49C153,140.2,153.4,140.15,153.49,140.8Z"/><path class="cls-3" d="M160.47,140.27l-1.05-.57c.14-.16.29-.31.43-.46l.94.53Z"/><path class="cls-3" d="M148.58,159.24c.48-.13.88-.12,1,.5C149.05,159.94,148.68,159.86,148.58,159.24Z"/><path class="cls-3" d="M147.62,158.76c.48-.15.87-.11,1,.5C148.05,159.51,147.74,159.33,147.62,158.76Z"/><path class="cls-3" d="M146.66,158.26c.49-.15.87-.1,1,.51A.65.65,0,0,1,146.66,158.26Z"/><path class="cls-3" d="M158.55,139.18l-.93-.55c.1-.13.21-.25.32-.37l.95.48Z"/><path class="cls-3" d="M145.21,157.29c.5-.16.88-.08,1,.52C145.61,158.1,145.4,157.72,145.21,157.29Z"/><path class="cls-3" d="M159.42,139.7l-.87-.52.34-.44,1,.5Z"/><path class="cls-3" d="M167.05,151c-.58-.12-.62-.51-.5-1C167.21,150.05,167.46,150.34,167.05,151Z"/><path class="cls-3" d="M166.57,150c-.59-.11-.68-.47-.52-1C166.58,149.15,167,149.37,166.57,150Z"/><path class="cls-3" d="M156,137.78l-.82-.42.32-.51,1,.49Z"/><path class="cls-3" d="M161.7,145.16c-.5.15-.88.07-1-.52C161.3,144.34,161.55,144.66,161.7,145.16Z"/><path class="cls-3" d="M160.25,144.19c-.5.15-.89.11-1-.5A.66.66,0,0,1,160.25,144.19Z"/><path class="cls-3" d="M159.29,143.7c-.49.14-.88.09-1-.51C158.87,142.91,159.17,143.13,159.29,143.7Z"/><path class="cls-3" d="M164.7,142.6l-.94-.49.43-.45,1,.49Z"/><path class="cls-3" d="M163.76,142.11l-.92-.5.39-.44,1,.49Z"/><path class="cls-3" d="M162.84,141.61l-.9-.51.33-.43,1,.5Z"/><path class="cls-3" d="M153.75,136.73l-1-.37.38-.49.95.46Z"/><path class="cls-3" d="M157.62,138.63l-.52-.27c.11-.17.21-.34.31-.51l.53.4Z"/><path class="cls-3" d="M140.34,152.48c.34,0,.52.16.51.5C140.33,153.16,140.16,153,140.34,152.48Z"/><path class="cls-3" d="M139.86,152a.45.45,0,0,1,.51.5C139.85,152.69,139.68,152.52,139.86,152Z"/><path class="cls-3" d="M139.21,152c.26-.32.51-.57.68.06A.4.4,0,0,1,139.21,152Z"/><path class="cls-3" d="M143.26,155.37c.36,0,.54.12.5.49C143.37,155.93,143.16,155.8,143.26,155.37Z"/><path class="cls-3" d="M166.06,149c-.38,0-.51-.16-.5-.51C166.08,148.34,166.12,148.63,166.06,149Z"/><path class="cls-3" d="M165.58,148.53c-.35,0-.51-.16-.49-.51C165.62,147.83,165.72,148.07,165.58,148.53Z"/><path class="cls-3" d="M165.11,148c-.35,0-.52-.15-.51-.5C165.11,147.37,165.28,147.53,165.11,148Z"/><path class="cls-3" d="M164.62,147.56c-.34,0-.52-.14-.51-.5C164.57,146.93,164.81,147,164.62,147.56Z"/><path class="cls-3" d="M164.13,147.08c-.34,0-.54-.12-.5-.49C164,146.52,164.29,146.59,164.13,147.08Z"/><path class="cls-3" d="M162.2,145.63c-.34,0-.54-.1-.51-.48C162,145.13,162.38,145.1,162.2,145.63Z"/><path class="cls-3" d="M142.77,154.89c.35,0,.54.12.5.49C142.85,155.48,142.64,155.36,142.77,154.89Z"/><path class="cls-3" d="M146.15,157.78c.34,0,.55.11.52.49C146.32,158.29,146,158.3,146.15,157.78Z"/><path class="cls-3" d="M160.76,144.67c-.35,0-.56-.1-.52-.48C160.57,144.18,160.93,144.13,160.76,144.67Z"/><path class="cls-3" d="M142.28,154.4c.36,0,.53.15.51.5C142.33,155,142.15,154.88,142.28,154.4Z"/><path class="cls-3" d="M141.8,153.92c.35,0,.53.14.51.5C141.84,154.56,141.63,154.43,141.8,153.92Z"/><path class="cls-3" d="M141.31,153.45c.35,0,.52.14.51.49C141.34,154.09,141.13,154,141.31,153.45Z"/><path class="cls-3" d="M143.74,155.85c.37,0,.54.12.51.49C143.88,156.38,143.67,156.25,143.74,155.85Z"/><path class="cls-3" d="M140.83,153c.34,0,.52.15.5.51C140.82,153.64,140.65,153.48,140.83,153Z"/><path class="cls-3" d="M161,140.54l-.54-.27.32-.49.53.4Z"/><path class="cls-3" d="M84.88,152.93c.07,1.55-.92,2.7-1.54,4-2,4.22-4.17,8.4-6.39,12.86a3.47,3.47,0,0,1,.53-2.92c2.09-4.33,4.26-8.63,6.43-12.91a4.85,4.85,0,0,1,1-1Z"/><path class="cls-3" d="M87.5,148.68a18,18,0,0,1,4.65-4.8Z"/><path class="cls-3" d="M105.15,132.59v-.85l2.86-.6,2,.17V132l-1,.17Z"/><path class="cls-3" d="M109,132.2l1-.17.57.11c-.54.62-.66,1.6-1.56,1.93-.81-.85-1.59.37-2.39,0l0,0C107,133,108.37,133.06,109,132.2Z"/><path class="cls-3" d="M106.62,134.1c-.54,1.41-1.72,1.88-3.56,2.43a5.65,5.65,0,0,1,3.54-2.45Z"/><path class="cls-3" d="M93.25,143.61c.07-1.07.56-1.49,1.59-1.66C94.77,143,94.27,143.42,93.25,143.61Z"/><path class="cls-3" d="M84.86,152.91a3.15,3.15,0,0,1,1.46-2.42v0c-.07,1.05-.11,2.12-1.45,2.42Z"/><path class="cls-3" d="M97,140.85c-.29.3-.45.58-.69.7s-.67.07-.57-.37a1.28,1.28,0,0,1,.59-.63C96.39,140.49,96.64,140.69,97,140.85Z"/><path class="cls-3" d="M98.39,139.39c.24-.4.45-.85,1-.75a.4.4,0,0,1,.19.34c-.23.58-.77.36-1.21.43Z"/><path class="cls-3" d="M86.32,150.49c.06-.34.06-.75.59-.72,0,0,.14.09.15.15,0,.52-.37.53-.73.59Z"/><path class="cls-3" d="M102.57,136.86c-.06.13-.09.34-.19.38s-.26-.09-.4-.14c.06-.14.09-.35.19-.39S102.44,136.8,102.57,136.86Z"/><path class="cls-3" d="M98.4,139.41c-.05.35-.06.75-.59.72a.21.21,0,0,1-.15-.15c0-.52.38-.52.73-.59Z"/><path class="cls-3" d="M101.12,137.82c-.07.13-.1.34-.2.38s-.26-.09-.39-.15c.06-.14.09-.34.19-.39S101,137.76,101.12,137.82Z"/><path class="cls-3" d="M101.29,133.6l.66-.41Z"/><path class="cls-3" d="M71.52,179.4l-.65-.39Z"/><path class="cls-3" d="M64.57,173.67a1.73,1.73,0,0,1-.2-.32s.1-.09.15-.14A1,1,0,0,1,64.57,173.67Z"/><path class="cls-3" d="M124.51,127.89c1.57,1.11,3.11-.08,4.64-.17,3.74-.22,7.44-1.1,11.17-1.25a60.69,60.69,0,0,1,11,.52c3.34.49,6.71.54,10,.71,8.34.41,16.26,2.47,24.1,5.07a.7.7,0,0,1,.51.53c-2.43.1-4.49-.93-6.63-1.6a67.59,67.59,0,0,0-17.68-3c-5.83-.23-11.63-1.08-17.45-1.33-8-.33-15.75,1.35-23.56,2.6-.71.12-1.38.48-2-.18C120.42,128.53,122.59,128.6,124.51,127.89Z"/><path class="cls-3" d="M124.51,127.89c-1.92.71-4.09.64-5.83,1.9l-.93.06a.86.86,0,0,0-1.11.75h-1.32a1.82,1.82,0,0,0,0-.4c0-.27,0-.54,0-.82,7.8-2,15.59-4.1,23.52-5.62,5.65-1.09,11.27-.84,16.95-.5,2.72.17,5.45,1.11,8.2.26l.59,0c0,.48,0,1,0,1.42-4.22-.31-8.44-.59-12.66-.94-9-.75-17.59,1.7-26.21,3.72C125.3,127.76,124.9,127.82,124.51,127.89Z"/><path class="cls-3" d="M152.89,135.53c-1,.07-1.76-.24-1.86-1.4a110.75,110.75,0,0,1,19.81,3.39v.86C164.88,137.27,159,135.42,152.89,135.53Z"/><path class="cls-3" d="M115.3,130.19a1.82,1.82,0,0,1,0,.4l0,.65c-.39.38-1,.6-1.18.06C113.83,130.41,114.69,130.34,115.3,130.19Z"/><path class="cls-3" d="M170.84,138.38v-.86l1.92.46-.69.6Z"/><path class="cls-3" d="M116.64,130.6a.86.86,0,0,1,1.11-.75A.82.82,0,0,1,116.64,130.6Z"/><path class="cls-3" d="M181.91,139.51a.83.83,0,0,1-1.41-.08Z"/><path class="cls-3" d="M175,126a1,1,0,0,1,1.1.38A1.21,1.21,0,0,1,175,126Z"/><path class="cls-3" d="M177.93,126.44a1,1,0,0,1,1.11.39Z"/><path class="cls-3" d="M182.77,127.4a1,1,0,0,1,1.11.41Z"/><path class="cls-3" d="M175.82,138.85l-.63-.37Z"/><path class="cls-3" d="M178.26,139.32c-.22-.12-.44-.24-.65-.37Z"/><path class="cls-3" d="M172.3,125.8c.18-.23.33-.19.46,0h-.23Z"/><path class="cls-3" d="M180.81,126.92l.65.39Z"/><path class="cls-3" d="M187,128.61l-.1-.05Z"/><path class="cls-3" d="M138,132.72c-.17.23-.32.2-.46,0A.9.9,0,0,1,138,132.72Z"/><path class="cls-3" d="M110,131.31l-2-.17c-5-1.69-10.22-2.42-15.4-3.29a93.29,93.29,0,0,0-11.89-1.37c-3.58-.13-7.18.38-10.77.59-10.29.59-19.12,5.62-28.37,9.36-.44.17-.89.35-1.35.48-.11,0-.27-.12-.7-.32,2.61-1.61,5.37-2.44,8-3.59a119.35,119.35,0,0,1,14.12-5.45A52.11,52.11,0,0,1,73.23,126a96,96,0,0,1,27.88,2.64c2.25.52,4.54.9,6.78,1.52.55.14,1.12.25,1.54-.3C110.21,130.09,110.89,130.41,110,131.31Z"/><path class="cls-3" d="M79.57,124.89l1-1a67.08,67.08,0,0,1,16.21,1.83c3.44.76,6.9,1.4,10.35,2.09l0,0,.46.4c0,.34,0,.67,0,1a170.59,170.59,0,0,0-20.11-4.09A77,77,0,0,0,79.57,124.89Z"/><path class="cls-3" d="M62.18,126.34c.41-.58,1-.45,1.57-.39A1.85,1.85,0,0,1,62.18,126.34Z"/><path class="cls-3" d="M59.28,126.83a1,1,0,0,1,1.12-.39A1.27,1.27,0,0,1,59.28,126.83Z"/><path class="cls-3" d="M66.05,125.85c.28-.45.59-.5.93-.06Z"/><path class="cls-3" d="M101.77,131.71c-.33.47-.65.45-1,0Z"/><path class="cls-3" d="M80.53,132.17c-.14.25-.29.3-.48.05A1.13,1.13,0,0,1,80.53,132.17Z"/><path class="cls-3" d="M38.51,146.19l-.64.38Z"/><path class="cls-3" d="M42.37,145.2c-.21.14-.43.27-.65.4Z"/><path class="cls-3" d="M31.77,145.19l-.48,0c0-.21.05-.42.07-.63C31.49,144.76,31.63,145,31.77,145.19Z"/><path class="cls-3" d="M114.82,128.29l-.57-.54c.42-.35.79-1.27,1.39-.61C116,127.54,115.29,128,114.82,128.29Z"/><path class="cls-3" d="M116.77,122.5h.45c0,.53.09,1.08-.45,1.43Z"/><path class="cls-3" d="M149.92,117.27a1,1,0,0,1,1.11.39A1.25,1.25,0,0,1,149.92,117.27Z"/><polygon class="cls-3" points="114.63 120.98 114.57 120.8 114.52 120.98 114.63 120.98"/><path class="cls-3" d="M131.24,118.62l.64-.4Z"/><path class="cls-3" d="M133.17,118.14l.67-.39Z"/><path class="cls-3" d="M118.52,125.15l0,.09Z"/><path class="cls-3" d="M112.72,42.79l-.3.54c-1.19-.87-.34-2-.34-3a.79.79,0,0,1,.58-.12c.19.08.46.34.44.5C113,41.41,112.85,42.1,112.72,42.79Z"/><path class="cls-3" d="M114.75,43.76l-.39-.91V36.62h.39Z"/><path class="cls-3" d="M116.26,31.76h-.47l.1-1.2C116.38,31,116.26,31.38,116.26,31.76Z"/><polygon class="cls-3" points="111.61 44.81 111.69 44.63 111.74 44.83 111.61 44.81"/><path class="cls-3" d="M122.43,164.39,119,166.05c-2.39,1.12-4.73,1.46-7-.28a4.45,4.45,0,0,0-1.3-.62c-6.24-2-7.64-5.08-6.06-12,1.07-4.64,3.18-9,4.76-13.56a21.47,21.47,0,0,0,1.58-7.46l1,.48c0,1.05,0,2.1.06,3.13.74,7.77,2,15.51,1.89,23.35,0,.73-.27,1.56.33,2.18.56-.09.58-.44.59-.73.2-4.25-.46-8.45-.69-12.67-.16-3-1.36-5.92-.31-8.92,1.21,3.5,3.8,6.07,5.93,9C123.4,152.94,123.8,158.53,122.43,164.39Z"/><path class="cls-3" d="M107.1,127.82c-3.45-.69-6.91-1.33-10.35-2.09a67.08,67.08,0,0,0-16.21-1.83c-.33-.46.13-.82.16-1.23l3.69-1.62,1.09-.42,2.29-.09h3.39L96,121l.93.08,1.34.19,1.43.5,1,.46,1,.5a2.52,2.52,0,0,0,1.45.95l.49.45.51.46,3,2.85C107.07,127.54,107.09,127.68,107.1,127.82Z"/><path class="cls-3" d="M113.21,82.49q.12,10.11.23,20.22c0,7.8-.09,15.6-.17,23.39,0,1.44-.21,2.88-.33,4.31,0,.55,0,1.25-.87,1.1-.64-.11-.55-.7-.5-1.16,1-9.12.59-18.29,1-27.42.34-6.83-.13-13.62,0-20.43Z"/><path class="cls-3" d="M106.5,96.8c-.16.17-.32.33-.49.49a13.39,13.39,0,0,0-2,2c-.66,1.06-1.33.84-2.14.36-1.3-2.2-.54-3.85,1.26-5.4a4.15,4.15,0,0,1,5.25-.55l2.06,1.19c.38.44,1.43.49,1.1,1.27-.19.44-1,.11-1.55,0C108.74,95.75,107.5,95.56,106.5,96.8Z"/><path class="cls-3" d="M113.79,139c-1.05,3,.15,6,.31,8.92.23,4.22.89,8.42.69,12.67,0,.29,0,.64-.59.73-.6-.62-.34-1.45-.33-2.18.09-7.84-1.15-15.58-1.89-23.35-.1-1,0-2.08-.06-3.13l1.07,0C113.37,134.72,113.14,136.91,113.79,139Z"/><path class="cls-3" d="M107.09,123c.07-.52.29-.88.89-.85a4.93,4.93,0,0,0,1.47,2.84c.21,1.32,1.17,2.47.91,3.91-.89.06-1.13-.87-1.8-1.08l-1-1c-.72-1-.45-2.24-.53-3.38Z"/><path class="cls-3" d="M108.5,121.54c.27-1.31,1.32-1,2.12-.89,1,.13.74,1.07.76,1.74,0,1.18,0,2.36,0,3.85-1.11-.45-.93-1.39-1.43-1.8Z"/><path class="cls-3" d="M113.21,82.49h-.6l-.12-3.9c1-.42.84.28.82.82C113.29,80.44,113.25,81.46,113.21,82.49Z"/><path class="cls-3" d="M108.5,121.54l1.46,2.9-.51.53a4.93,4.93,0,0,1-1.47-2.84C108.16,121.94,108.33,121.74,108.5,121.54Z"/><path class="cls-3" d="M107.59,126.84l1,1-1.07,0-.42,0,0,0c0-.14,0-.28,0-.43Z"/><path class="cls-3" d="M124,134.07l-.94-.07C123.39,133.57,123.7,133.62,124,134.07Z"/><path class="cls-3" d="M138,136.48l-1.08-.39A.94.94,0,0,1,138,136.48Z"/><path class="cls-3" d="M143.79,137.94l-1.08-.41A1,1,0,0,1,143.79,137.94Z"/><path class="cls-3" d="M107.07,127.8l.42,0a1,1,0,0,1,0,.35Z"/><path class="cls-3" d="M107.09,123l0,.48a2.17,2.17,0,0,1-.15-.35S107,123,107.09,123Z"/><path class="cls-3" d="M117.71,133.11h-.24l-.23-.05C117.43,132.81,117.58,132.86,117.71,133.11Z"/><path class="cls-3" d="M120.12,133.56h-.23l-.23,0C119.84,133.29,120,133.33,120.12,133.56Z"/><path class="cls-3" d="M110,115.74a1.08,1.08,0,0,1,.18.11s0,.1,0,.15l-.2-.26Z"/><path class="cls-3" d="M130.26,135H130l-.23-.06C130,134.74,130.13,134.78,130.26,135Z"/><path class="cls-3" d="M133.16,135.5l-.65-.38Z"/><path class="cls-3" d="M135.58,136l-.65-.37Z"/><path class="cls-3" d="M139.93,137l-.66-.38Z"/><path class="cls-3" d="M141.86,137.45l-.65-.4Z"/><path class="cls-3" d="M118.23,93.08a47.51,47.51,0,0,1,13.49-5,3,3,0,0,1,2.32.07c.78.43,1.86.94,1.75,1.78-.16,1.22-1.46.68-2.2.64-4.79-.2-9.06,1.92-13.59,2.88-.57.12-1.53,1.26-1.77-.39Z"/><path class="cls-3" d="M117.72,68.92a7.63,7.63,0,0,1,3.9-3.06c1.44-.6,3.09.94,3.44,3v0c-2.44.48-4.9-.86-7.34.07Z"/><path class="cls-3" d="M117.71,68.91l-.19.21s0-.1,0-.12a.53.53,0,0,1,.17-.08Z"/><path class="cls-3" d="M98,78.65l.48-.46c1.73-1,3.25-2.31,5.26-2.77.93-.21,1.85-.41,2.22.69s-.78,1-1.34,1.25c-2.17,1-3.79,2.65-5.66,4-.59.43-1.28,1.43-2,.84s.16-1.43.3-2.16a5.14,5.14,0,0,1,.31-.91Z"/><path class="cls-3" d="M106,65.27a8.84,8.84,0,0,1,2.4-4.56,1.17,1.17,0,0,1,1.69-.27c.6.54-.15,1-.4,1.38C108.91,63.17,107.47,63.76,106,65.27Z"/><path class="cls-3" d="M128.34,76.15l-.49.49-.48.48-.48.48-.48.48-.46,0-.08-.08c.12-1.21-.29-2.54.92-3.68Z"/><path class="cls-3" d="M124.43,81a1.66,1.66,0,0,0-1,1.45c-.36.08-1,.56-.7-.4a4.12,4.12,0,0,0,.23-2l0,.06c.57-.14.54-.56.49-1l-.07,0C125.21,78.87,124.78,79.93,124.43,81Z"/><path class="cls-3" d="M126,78.12l-.27.19.2-.27Z"/><path class="cls-3" d="M100.79,109l-.45,0c0-.21,0-.42.07-.63Z"/><path class="cls-3" d="M120.63,54c1.38-1.35,3.09-1.74,5.42-1.9a8.67,8.67,0,0,1-5.45,1.87Z"/><path class="cls-3" d="M120.6,53.93l-.18.22s0-.1,0-.12l.17-.07Z"/><path class="cls-3" d="M119.82,85.87c-.23-3.38-1.91-6.41-2.3-9.75a12.86,12.86,0,0,1-.17-2.14c.05-1,.46-1.74,1.54-1.8,1.23-.07,1.67.72,1.75,1.81a70.69,70.69,0,0,1,.49,8.84C121.35,84.13,121.48,85.39,119.82,85.87Zm.1-4.86a18.6,18.6,0,0,0-.21-6.53c-.14-.51,0-1.26-.87-1.13s-.63.83-.61,1.36A16.54,16.54,0,0,0,119.92,81Zm.4,1.3a.94.94,0,0,0,0,.16s.07,0,.11.06a.47.47,0,0,0,0-.16S120.36,82.33,120.32,82.31Z"/><path class="cls-3" d="M85.48,120.63l-1.09.42A1,1,0,0,1,85.48,120.63Z"/><path class="cls-3" d="M96.94,121,96,121C96.36,120.52,96.67,120.58,96.94,121Z"/><path class="cls-3" d="M99.22,51.64c-.36.18-.28.51-.27.81-1.26-1.61-.21-3.53-.68-5.25.36-.34.87-1.42,1.06,0A10.29,10.29,0,0,1,99.22,51.64Z"/><path class="cls-3" d="M140.41,141.82c-5.93-3.35-12.57-3.87-19.1-4.84a12.65,12.65,0,0,1-5.45-2.31c.26-.22.42-.41.47-.39,5,2.67,10.72,2.26,16,3.64a43.94,43.94,0,0,1,6.37,2.09c.79.35,1.69.67,1.7,1.79Z"/><path class="cls-3" d="M152,149.06c-1.63.05-2.67-.93-4.24-2.39a6.9,6.9,0,0,1,4.25,2.38Z"/><path class="cls-3" d="M154.42,151c1.63,0,2.67.92,4.24,2.39a6.9,6.9,0,0,1-4.25-2.38Z"/><path class="cls-3" d="M159,153.79a1.91,1.91,0,0,1,2.18,1.28C160,155.19,159.53,154.43,159,153.79Z"/><path class="cls-3" d="M114.24,134.62c-.45-.43-.37-1-.36-1.51.43.07,1.1-.15,1.15.46C115.05,133.9,114.52,134.27,114.24,134.62Z"/><path class="cls-3" d="M140.42,141.8c.43.07,1-.15,1.2.43,0,.08-.1.32-.18.34-.59.11-.8-.35-1-.75Z"/><path class="cls-3" d="M147,145.87c.13.06.34.09.38.19s-.09.26-.15.39c-.13-.06-.34-.08-.38-.18S147,146,147,145.87Z"/><path class="cls-3" d="M152,149.05c.35.07.76.06.73.59a.28.28,0,0,1-.15.15c-.53,0-.54-.37-.59-.73Z"/><path class="cls-3" d="M154.41,151c-.35-.07-.76-.06-.73-.59,0-.05.1-.15.15-.15.53,0,.54.37.59.73Z"/><path class="cls-3" d="M143.14,143.14l-.18.4c-.13,0-.34-.08-.38-.18s.09-.26.15-.4Z"/><path class="cls-3" d="M144.14,143.94c.14.06.34.09.39.19s-.1.26-.16.39c-.13-.06-.34-.08-.38-.18S144.08,144.08,144.14,143.94Z"/><path class="cls-3" d="M146,145.07c-.05.14-.11.27-.17.41-.14-.06-.34-.09-.39-.19s.1-.26.16-.39Z"/><path class="cls-3" d="M167.45,152.91a1,1,0,0,1,.42,1.1Z"/><path class="cls-3" d="M159.24,162.16c-.18.24-.34.2-.47,0A1.08,1.08,0,0,1,159.24,162.16Z"/><path class="cls-3" d="M166,161.65c-.13.23-.29.27-.46,0A.9.9,0,0,1,166,161.65Z"/><path class="cls-3" d="M168,155.34c.12.21.25.42.37.64Z"/><path class="cls-3" d="M170.84,138.38l1.23.2.6,1.44c0,1,0,2.07-.08,3.1l-.91.95c-2.42.2-4.33-1.36-6.53-1.92l-1-.49-1-.49-1-.5-1-.48-.53-.41-.94-.54-1-.5-.95-.48-.53-.41-1-.51-1-.49-1.43-.52-.94-.46a1,1,0,0,0-.22-.34C159,135.42,164.88,137.27,170.84,138.38Z"/><path class="cls-3" d="M123.47,79c0,.44.08.86-.49,1C123,79.6,122.79,79.09,123.47,79Z"/><path class="cls-3" d="M119.92,81a16.54,16.54,0,0,1-1.69-6.3c0-.53-.13-1.24.61-1.36s.73.62.87,1.13A18.6,18.6,0,0,1,119.92,81Z"/><path class="cls-3" d="M120.32,82.31s.11,0,.11.06a.47.47,0,0,1,0,.16s-.11,0-.11-.06A.94.94,0,0,1,120.32,82.31Z"/></g></g></svg>