<svg xmlns="http://www.w3.org/2000/svg" viewBox="0 0 250 250"><defs><style>.cls-1{fill:#99a164;}.cls-2{fill:#ccc;}.cls-3{font-size:18px;fill:#fff;font-family:Arial-BoldItalicMT, Arial;font-weight:700;font-style:italic;}.cls-4{fill:none;stroke:#fff;stroke-width:0.5px;}</style></defs><g id="图层_2" data-name="图层 2"><g id="图层_1-2" data-name="图层 1"><circle class="cls-1" cx="125" cy="125" r="124"/><path class="cls-2" d="M125,2a123,123,0,0,1,87,210A123,123,0,1,1,38,38,122.16,122.16,0,0,1,125,2m0-2A125,125,0,1,0,250,125,125,125,0,0,0,125,0Z"/><text class="cls-3" transform="translate(31.1 199.45)">Arabidopsis thalinana</text><g id="g4514"><path id="path4354" class="cls-4" d="M126.33,80.27a3.34,3.34,0,0,0-3.43,3.13c0,.73.07,1.45,0,2.19,0,4.88.25,9.76.29,14.64A88.09,88.09,0,0,0,124.37,113c.51.84,2,.16,1.74-.78.91-6.68,1.64-13.4,2-20.14a54.63,54.63,0,0,0,1.36-9.19,2.89,2.89,0,0,0-3.09-2.62Z"/><path id="path4396" class="cls-4" d="M126.33,80.27a3.34,3.34,0,0,0-3.43,3.13c0,.73.07,1.45,0,2.19,0,4.88.25,9.76.29,14.64A88.09,88.09,0,0,0,124.37,113c.51.84,2,.16,1.74-.78.91-6.68,1.64-13.4,2-20.14a54.63,54.63,0,0,0,1.36-9.19,2.89,2.89,0,0,0-3.09-2.62Z"/><g id="g4301"><path id="path3388" class="cls-4" d="M122.78,116.36c-1.33,1.41-3.34,1.8-5,2.61-3.8,1.5-7.58,3-11.26,4.8-4.39,2-8.93,3.69-13.45,5.38-5.83,2.33-11.52,5.14-17.69,6.49-4,.65-8-.84-11.92.23-2,.59-3.89,1.45-5.87,2.07-7.09,2.42-14.34,4.69-20.73,8.69A37.34,37.34,0,0,0,24.27,159c-1.53,2.63-2.69,5.73-2.12,8.82A7.3,7.3,0,0,0,27,173.41c2.58.93,5.38.49,8,.12a107.79,107.79,0,0,0,12.46-2.39,58.71,58.71,0,0,0,14.74-5.92c5-3.15,8.9-7.57,13-11.71a14.25,14.25,0,0,0,3.33-6.7c.73-2.68,1.78-5.51,4.12-7.2,4.18-3.25,9.21-5.11,14.1-7,6.24-2.32,12.53-4.55,18.59-7.34a81.69,81.69,0,0,0,8.66-4.38,2.34,2.34,0,0,0-.24-3.48c-.38-.28-.81-.88-1-1.05Z"/><path id="path3412" class="cls-4" d="M43.6,100.93c-6.37.37-12.86,1.67-18.38,5a14.46,14.46,0,0,0-5,4.55c-.48,1.81.81,3.52,2.27,4.45,4.72,3.5,10.51,5.15,16.24,6.11,5.93,1.06,12.08,1.82,18.06.63a23,23,0,0,0,9.73-4.78,10.07,10.07,0,0,1,4.15-2c3-.71,6.08-.12,9,.47,4.21.69,8.48.61,12.71,1.08,2.55.27,5.13.24,7.69.33l23.86.77c-11.22-2.39-22.66-3.35-34-5-5.29-.73-10.63-1.56-15.63-3.51-4.16-1.51-8-3.82-12.08-5.48A34,34,0,0,0,50.52,101c-2.3-.14-4.61-.1-6.92-.07Z"/><path id="path3415" class="cls-4" d="M123.31,119.46c-3.48,6.34-6.19,13.16-10.74,18.84-2.74,3-6.63,4.83-8.75,8.37a9.73,9.73,0,0,0,2.74,12.4,8.29,8.29,0,0,0,11.18-2.76,12.55,12.55,0,0,0,0-13.22c-1-2-.54-4.3.23-6.27s1.59-3.91,2.18-5.94a52,52,0,0,1,4-8.91,3.16,3.16,0,0,0,0-2.67c-.09-.23,0-1.32-.32-.78Z"/><path id="path3418" class="cls-4" d="M189.2,131.57a11.73,11.73,0,0,0-7,2.3c-2.84.57-5.58-.67-8.2-1.58-13-4.36-26-8.76-39.41-11.58-3.24-.7-6.5-1.3-9.74-2-.6.14-.27,1.11.28,1,13.55,3.69,27,8.07,39.67,14.12,4.64,2.22,9.35,4.33,13.78,7,1.83,1.57,2,4.12,3,6.18,1.82,4.25,5.47,7.43,9.46,9.62,2.51,1.46,4.89,3.2,7.53,4.44a14.2,14.2,0,0,0,6,1c4.61.09,9.34.28,13.78-1.18a17.11,17.11,0,0,0,6.33-3.18c1.08-.82,2.33-1.36,3.46-2.1a5.19,5.19,0,0,0,2.07-4.34,6.61,6.61,0,0,0-4-6c-4.84-2.5-10.32-3.2-15.47-4.79a59.57,59.57,0,0,1-14.8-6.14A23.87,23.87,0,0,0,189.2,131.57Z"/><path id="path3421" class="cls-4" d="M212,112.52c-14.14-1-28.28.3-42.41.82-10.85.41-21.72.6-32.56,1.35-2.71.27-5.42,1-8.15.67-1.84-.43-3.78-1.43-5.68-.69a46.52,46.52,0,0,0-4.11,2.22c-.3-.5-1.11,0-.92.47a15.72,15.72,0,0,0-.5,2.62c.91,0,1.09-1.5,2.1-1.27,1.34.09,2,1.46,2.69,2.41.77.75,1.88.18,2.63-.29,1.63-.76,3.7-.73,4.95-2.19a6.07,6.07,0,0,1,5.08-2.55c9-1.08,18-.13,27,.48,6,.43,12.07,1.13,17.67,3.43,6.39,2.54,12.65,5.63,19.45,6.93,8.28,1.63,16.68,2.95,25.14,2.68,4.5-.15,9.14-.65,13.23-2.69a3.33,3.33,0,0,0,2-2c.51-1.6-.57-3.19-1.85-4.06s-2.92-1.74-4.42-2.53c-6.64-3.37-14-5-21.35-5.83Z"/><path id="path3425" class="cls-4" d="M174.28,56.74a12.34,12.34,0,0,0-4-1.66A16.68,16.68,0,0,0,156.47,58a31.32,31.32,0,0,0-11.23,11.76c-1.53,2.82-3,5.68-4.75,8.39-.79,2.14-.09,4.42,0,6.61.3,2.81.53,5.86-.88,8.43-1.59,3.13-4,5.7-5.61,8.84-2.55,4.16-5.93,7.68-9,11.43a9.12,9.12,0,0,0-1.86,4.17,1.3,1.3,0,0,0,2.38,0C131,111,136.05,104,141.06,97c1.2-1.81,2.54-3.67,4.54-4.57A33,33,0,0,0,149.73,90c2.25-1.45,5-1.65,7.48-2.3a14.49,14.49,0,0,0,5.15-2.23c2.68-1.76,5.29-3.65,7.84-5.6A28.17,28.17,0,0,0,174.39,75c1.26-1.42,2.66-2.91,3-4.88a16.82,16.82,0,0,0-.95-10.2,9.71,9.71,0,0,0-2.16-3.22Z"/><path id="path4298" class="cls-4" d="M74.9,45.88C70,42.71,64.5,40.46,58.83,40.66a4.14,4.14,0,0,0-3.27,5.06c.78,3,3,5,4.8,7.16,1.67,1.93,3.39,3.8,5.18,5.59A10.22,10.22,0,0,0,71.06,64c2.07,1.83,3.64,4.57,6.26,5.46a13.11,13.11,0,0,1,5.82,4.35c3.48,3.13,8,4.06,11.8,6.49a46.3,46.3,0,0,1,5.22,5.17,45.77,45.77,0,0,1,4.26,6.3c2.19,3.16,4.91,5.79,7.12,8.92a18.26,18.26,0,0,0,2.76,4.58c2.66,3.51,5.34,7,8.07,10.45.29.4.81.6,1.15.14a1.33,1.33,0,0,0-.14-1.85Q111,94,98.43,74c-1.8-3.36-2.14-7.59-4.52-10.57a71.84,71.84,0,0,0-7.77-8.1c-3.43-3.1-7-6.07-10.5-9Z"/></g><path id="path4312" class="cls-4" d="M59,40.73a4.2,4.2,0,0,0-3.28,3.11,4.81,4.81,0,0,0,.46,3.2c1,2.26,2.85,4,4.43,5.92,2.28,2.63,4.6,5.24,6.62,8.08,1.11,1.4,2.74,2.24,4.07,3.41a37.21,37.21,0,0,1,3.21,3.07A24,24,0,0,0,79,70.39a13.24,13.24,0,0,1,3,2.28,23.13,23.13,0,0,0,6,4.2c2.76,1.41,5.72,2.53,8.11,4.56,2.85,2.4,5,5.48,7.18,8.46,1.77,2.48,3.51,5,5.45,7.32a82.41,82.41,0,0,1,4.95,6.94c2.3,3.39,4.94,6.55,7.32,9.89a1.54,1.54,0,0,1-1.21,1.9c-1.34.49-2.77.12-4.13,0-9.1-1.23-18.19-2.45-27.28-3.76a74.92,74.92,0,0,1-11.2-2.3c-4.49-1.32-8.64-3.52-12.93-5.38a38.17,38.17,0,0,0-9.22-2.9A62.24,62.24,0,0,0,44.67,101a45.83,45.83,0,0,0-15.11,2.89,24.68,24.68,0,0,0-7.3,4.35,8.31,8.31,0,0,0-1.88,2.41,3.09,3.09,0,0,0,1,3.14,20.12,20.12,0,0,0,4.48,3.1,36.63,36.63,0,0,0,8.85,3.21,85,85,0,0,0,15.41,2,31.56,31.56,0,0,0,6.21-.51,23.3,23.3,0,0,0,9-3.9,21.31,21.31,0,0,1,5.1-2.75,15.25,15.25,0,0,1,6.13-.13c3.59.42,7.18.87,10.79,1.09,8.38.64,16.78.9,25.17,1.26.82.06,1.65,0,2.47.14a7.66,7.66,0,0,0,1.67.51c.39,0,.95.17.95.66s-.71.8-1.18,1c-6.68,2.76-13.29,5.65-20,8.29-4.56,1.82-9.11,3.66-13.71,5.38a45.47,45.47,0,0,1-6.64,2.14,22.09,22.09,0,0,1-5.8.32,20.77,20.77,0,0,0-7,.42c-2.92.77-5.71,1.94-8.57,2.91-4.3,1.55-8.64,3.06-12.79,5a45.83,45.83,0,0,0-7.48,4.37,37.7,37.7,0,0,0-7.51,7,24.88,24.88,0,0,0-4.4,7.84,8.56,8.56,0,0,0,.44,6.66,7.59,7.59,0,0,0,5,3.74c2.28.58,4.62.09,6.91-.15,3.56-.45,7.09-1.14,10.6-1.93A64.92,64.92,0,0,0,59,166.8a35.94,35.94,0,0,0,6.08-3.71,81.93,81.93,0,0,0,7.9-7.35,41.25,41.25,0,0,0,3.62-4.18,14.88,14.88,0,0,0,2-4.46c.69-2.18,1.38-4.48,3-6.19a24.42,24.42,0,0,1,7.27-4.83c4.11-2,8.41-3.53,12.64-5.22s8.33-3.26,12.43-5c2.41-1,4.8-2.16,7.17-3.3.49-.06.65.71.27,1-2.64,4.64-4.88,9.54-8.13,13.81a29,29,0,0,1-4.64,4.56,29,29,0,0,0-3.62,3.48,8.76,8.76,0,0,0-2,4.26,10.08,10.08,0,0,0,1.22,6.69,7.55,7.55,0,0,0,10,3,8.89,8.89,0,0,0,4.1-4.05,11.94,11.94,0,0,0,1.2-6.52,14.6,14.6,0,0,0-1.24-4.69,9.4,9.4,0,0,1-1-3.69,20,20,0,0,1,1.13-4.43c1-2.7,2-5.38,3.07-8a49.78,49.78,0,0,1,3-6.35,3.31,3.31,0,0,1,3.77-.84c7,2,13.86,4.24,20.68,6.67,4.93,1.77,9.77,3.79,14.53,6,3.91,1.82,7.8,3.68,11.64,5.66a16.59,16.59,0,0,1,4.12,2.73,8.94,8.94,0,0,1,1.3,2.51,25.72,25.72,0,0,0,2.48,5.15,16,16,0,0,0,3.94,4.3A82.35,82.35,0,0,0,195.1,159c2.16,1.29,4.45,2.62,7,2.82,2.23.23,4.48.16,6.72.21,3.49-.2,7.08-.26,10.39-1.53a38,38,0,0,0,8.62-4.93A4.93,4.93,0,0,0,230,152.2a6.59,6.59,0,0,0-2.69-6.22,22.81,22.81,0,0,0-5.16-2.25c-5.6-1.87-11.36-3.22-16.94-5.15a55.82,55.82,0,0,1-7.1-3.09,49.87,49.87,0,0,0-8-3.58,8.18,8.18,0,0,0-5.56.71c-1.42.63-2.89,1.5-4.51,1.27a35.25,35.25,0,0,1-5.41-1.4c-8.16-2.62-16.3-5.31-24.53-7.7-6.43-1.92-13-3.51-19.54-4.86-.37-.14-1,0-1.09-.52,0-.67.69-1,1.1-1.37a6.79,6.79,0,0,1,4-1.79,104.5,104.5,0,0,1,19-.17c4.54.25,9.08.6,13.6,1.1a49.18,49.18,0,0,1,11.38,2.52c3.33,1.14,6.56,2.56,9.85,3.79,2.42.94,4.87,1.79,7.37,2.51a82.89,82.89,0,0,0,8.11,1.72,137.21,137.21,0,0,0,15.12,1.74,58.45,58.45,0,0,0,10.66-.4,25.31,25.31,0,0,0,8.29-2.52,2.71,2.71,0,0,0,1.62-1.9,3.41,3.41,0,0,0-1.5-3.34,33.31,33.31,0,0,0-4.37-2.63,51.58,51.58,0,0,0-11.88-4.33,74.11,74.11,0,0,0-13.9-2c-7-.31-14.06,0-21.09.24q-19.54.69-39.07,1.61c-4.39.25-8.79.44-13.17.78a25.3,25.3,0,0,1-5.5.12,1.6,1.6,0,0,1-1-.56c-.12-.55.47-.87.73-1.27,3-3.67,5.68-7.59,8.58-11.33,2.09-2.79,4.16-5.61,6.43-8.25a35.3,35.3,0,0,1,5.88-3.67c2.66-1.38,5.62-2,8.48-2.77a15,15,0,0,0,4.38-2.16,64.08,64.08,0,0,0,8-6,40.28,40.28,0,0,0,5.55-6.6,8.21,8.21,0,0,0,1.35-3.73,19.08,19.08,0,0,0-.36-6.3,12.48,12.48,0,0,0-2.7-5.4A9.58,9.58,0,0,0,169.3,55a16.34,16.34,0,0,0-9.72,1.27,33,33,0,0,0-5.24,3.35,31.48,31.48,0,0,0-7,6.94c-2,2.94-3.64,6.06-5.37,9.13a22.75,22.75,0,0,0-1.51,3.1c-.49,1.84-.08,3.74,0,5.6a21.32,21.32,0,0,1-.18,6.72A24.49,24.49,0,0,1,137,97.41c-2.27,3.49-4.51,7-7.1,10.28-1.78,2.2-3.59,4.38-5.4,6.55-.48.35-1.12-.06-1.3-.55Q110.89,94,98.67,74.18c-1.27-2.08-1.84-4.47-2.76-6.71A18.32,18.32,0,0,0,92,61.38a110.22,110.22,0,0,0-8.29-8c-2.74-2.46-5.53-4.88-8.5-7.06a27.48,27.48,0,0,0-7.67-4A23.53,23.53,0,0,0,59,40.73Z"/><g id="g4502"><path id="path4345" class="cls-4" d="M115.9,84.09c-.39.42,0,1,.1,1.52.71,1.24,2.37,1.66,2.88,3.06.87,2,.27,4.15.42,6.22A3.55,3.55,0,0,1,118,97.83a2.56,2.56,0,0,0-.78,2.77c.56,3.26,2.26,6.2,2.79,9.47a35.71,35.71,0,0,0,2.12,6.87c.85.66,2.12-.36,1.89-1.34a69.52,69.52,0,0,0,.1-21.88,32.56,32.56,0,0,0-1.63-7,3.91,3.91,0,0,0-3.22-2.21,14.42,14.42,0,0,0-3.3-.46Z"/><path id="path4364" class="cls-4" d="M115.84,84.09c-.4.42,0,1,.1,1.53.71,1.23,2.38,1.64,2.89,3,.88,2,.28,4.15.44,6.22a3.54,3.54,0,0,1-1.33,2.94,2.56,2.56,0,0,0-.77,2.77c.57,3.26,2.28,6.2,2.82,9.47a36.38,36.38,0,0,0,2.14,6.86c.85.66,2.12-.37,1.88-1.34a69.52,69.52,0,0,0,0-21.88,33.23,33.23,0,0,0-1.66-7,3.9,3.9,0,0,0-3.23-2.2,14.4,14.4,0,0,0-3.3-.45Z"/></g><g id="g4498"><path id="path4348" class="cls-4" d="M131.94,85.08c-1.6-.16-2.76,1.21-3.53,2.43a6.65,6.65,0,0,0-.55,3.79c.43,1.12-.37,2.16-.59,3.23a78.68,78.68,0,0,0-3.3,22c.17.91,1.68,1.13,2,.18,1-1.51,1.49-3.25,2.38-4.8,1.68-3.48,3.37-7,4.8-10.54,0-2.06-1.65-3.85-1.15-6,.05-3,1.4-5.67,2.17-8.47a1.93,1.93,0,0,0-2.18-1.9Z"/><path id="path4382" class="cls-4" d="M131.94,85.08c-1.6-.16-2.76,1.21-3.53,2.43a6.65,6.65,0,0,0-.55,3.79c.43,1.12-.37,2.16-.59,3.23a78.68,78.68,0,0,0-3.3,22c.17.91,1.68,1.13,2,.18,1-1.51,1.49-3.25,2.38-4.8,1.68-3.48,3.37-7,4.8-10.54,0-2.06-1.65-3.85-1.15-6,.05-3,1.4-5.67,2.17-8.47a1.93,1.93,0,0,0-2.18-1.9Z"/></g><path id="path4376" class="cls-4" d="M143.73,98.55c-.3,0-.6,0-.91.07-4.36.57-8.16,3.14-11.25,6.13-2.44,2.62-5.18,5-7.25,7.93-2-2.55-4.42-4.73-6.61-7.09-3.1-3-6.9-5.56-11.26-6.13a11,11,0,0,0-1.81-.06c-1.81.08-3.61.49-5.41.64-.71.29-.67,1.17-.61,1.8-.66.15-1.67-.06-2,.74,0,.25-.38.19-.43.42.23,1.58,1.92,2.49,2.07,4.1.65,1.26,2.22,1.31,3.35,1.92a6.59,6.59,0,0,0,2.92.38.7.7,0,0,1-.17,1.3.84.84,0,0,0,.19,1.43c1.33,1,3.19.7,4.45,1.78a1.41,1.41,0,0,0,1.68,1.24,48.61,48.61,0,0,1,6.76,1.64,1,1,0,0,0,.46.85c1.12.88,1.86,2.24,3.24,2.74a7.3,7.3,0,0,0,6.66-.75l.23-.09c1.39-.5,2.12-1.86,3.24-2.74a1,1,0,0,0,.46-.85,47.86,47.86,0,0,1,6.76-1.63,1.42,1.42,0,0,0,1.68-1.25c1.27-1.08,3.13-.82,4.45-1.78a.83.83,0,0,0,.19-1.43.71.71,0,0,1-.17-1.3,6.59,6.59,0,0,0,2.92-.38c1.13-.61,2.71-.66,3.36-1.92.14-1.61,1.84-2.52,2.07-4.1,0-.23-.44-.17-.44-.42-.28-.8-1.29-.59-1.95-.73.06-.64.11-1.52-.61-1.81-1.8-.15-3.6-.56-5.41-.64-.3,0-.6,0-.9,0Z"/><path id="path4436" class="cls-4" d="M143.73,98.55c-.3,0-.6,0-.91.07-4.36.57-8.16,3.14-11.25,6.13-2.44,2.62-5.18,5-7.25,7.93-2-2.55-4.42-4.73-6.61-7.09-3.1-3-6.9-5.56-11.26-6.13a11,11,0,0,0-1.81-.06c-1.81.08-3.61.49-5.41.64-.71.29-.67,1.17-.61,1.8-.66.15-1.67-.06-2,.74,0,.25-.38.19-.43.42.23,1.58,1.92,2.49,2.07,4.1.65,1.26,2.22,1.31,3.35,1.92a6.59,6.59,0,0,0,2.92.38.7.7,0,0,1-.17,1.3.84.84,0,0,0,.19,1.43c1.33,1,3.19.7,4.45,1.78a1.41,1.41,0,0,0,1.68,1.24,48.61,48.61,0,0,1,6.76,1.64,1,1,0,0,0,.46.85c1.12.88,1.86,2.24,3.24,2.74a7.3,7.3,0,0,0,6.66-.75l.23-.09c1.39-.5,2.12-1.86,3.24-2.74a1,1,0,0,0,.46-.85,47.86,47.86,0,0,1,6.76-1.63,1.42,1.42,0,0,0,1.68-1.25c1.27-1.08,3.13-.82,4.45-1.78a.83.83,0,0,0,.19-1.43.71.71,0,0,1-.17-1.3,6.59,6.59,0,0,0,2.92-.38c1.13-.61,2.71-.66,3.36-1.92.14-1.61,1.84-2.52,2.07-4.1,0-.23-.44-.17-.44-.42-.28-.8-1.29-.59-1.95-.73.06-.64.11-1.52-.61-1.81-1.8-.15-3.6-.56-5.41-.64-.3,0-.6,0-.9,0Z"/><path id="path4460" class="cls-4" d="M143.73,98.55c-.3,0-.6,0-.91.07-4.36.57-8.16,3.14-11.25,6.13-2.44,2.62-5.18,5-7.25,7.93-2-2.55-4.42-4.73-6.61-7.09-3.1-3-6.9-5.56-11.26-6.13a11,11,0,0,0-1.81-.06c-1.81.08-3.61.49-5.41.64-.71.29-.67,1.17-.61,1.8-.66.15-1.67-.06-2,.74,0,.25-.38.19-.43.42.23,1.58,1.92,2.49,2.07,4.1.65,1.26,2.22,1.31,3.35,1.92a6.59,6.59,0,0,0,2.92.38.7.7,0,0,1-.17,1.3.84.84,0,0,0,.19,1.43c1.33,1,3.19.7,4.45,1.78a1.41,1.41,0,0,0,1.68,1.24,48.61,48.61,0,0,1,6.76,1.64,1,1,0,0,0,.46.85c1.12.88,1.86,2.24,3.24,2.74a7.3,7.3,0,0,0,6.66-.75l.23-.09c1.39-.5,2.12-1.86,3.24-2.74a1,1,0,0,0,.46-.85,47.86,47.86,0,0,1,6.76-1.63,1.42,1.42,0,0,0,1.68-1.25c1.27-1.08,3.13-.82,4.45-1.78a.83.83,0,0,0,.19-1.43.71.71,0,0,1-.17-1.3,6.59,6.59,0,0,0,2.92-.38c1.13-.61,2.71-.66,3.36-1.92.14-1.61,1.84-2.52,2.07-4.1,0-.23-.44-.17-.44-.42-.28-.8-1.29-.59-1.95-.73.06-.64.11-1.52-.61-1.81-1.8-.15-3.6-.56-5.41-.64-.3,0-.6,0-.9,0Z"/><path id="path4510" class="cls-4" d="M143.73,98.55c-.3,0-.6,0-.91.07-4.36.57-8.16,3.14-11.25,6.13-2.44,2.62-5.18,5-7.25,7.93-2-2.55-4.42-4.73-6.61-7.09-3.1-3-6.9-5.56-11.26-6.13a11,11,0,0,0-1.81-.06c-1.81.08-3.61.49-5.41.64-.71.29-.67,1.17-.61,1.8-.66.15-1.67-.06-2,.74,0,.25-.38.19-.43.42.23,1.58,1.92,2.49,2.07,4.1.65,1.26,2.22,1.31,3.35,1.92a6.59,6.59,0,0,0,2.92.38.7.7,0,0,1-.17,1.3.84.84,0,0,0,.19,1.43c1.33,1,3.19.7,4.45,1.78a1.41,1.41,0,0,0,1.68,1.24,48.61,48.61,0,0,1,6.76,1.64,1,1,0,0,0,.46.85c1.12.88,1.86,2.24,3.24,2.74a7.3,7.3,0,0,0,6.66-.75l.23-.09c1.39-.5,2.12-1.86,3.24-2.74a1,1,0,0,0,.46-.85,47.86,47.86,0,0,1,6.76-1.63,1.42,1.42,0,0,0,1.68-1.25c1.27-1.08,3.13-.82,4.45-1.78a.83.83,0,0,0,.19-1.43.71.71,0,0,1-.17-1.3,6.59,6.59,0,0,0,2.92-.38c1.13-.61,2.71-.66,3.36-1.92.14-1.61,1.84-2.52,2.07-4.1,0-.23-.44-.17-.44-.42-.28-.8-1.29-.59-1.95-.73.06-.64.11-1.52-.61-1.81-1.8-.15-3.6-.56-5.41-.64-.3,0-.6,0-.9,0Z"/></g></g></g></svg>