<svg xmlns="http://www.w3.org/2000/svg" viewBox="0 0 60 103.96"><defs><style>.cls-1{opacity:0.5;}.cls-2{fill:#fff;}</style></defs><g id="图层_2" data-name="图层 2"><g id="图层_1-2" data-name="图层 1"><g class="cls-1"><path class="cls-2" d="M34.83,68.4,58,45.22a6.82,6.82,0,0,0-9.65-9.65L30,53.91,11.65,35.57A6.82,6.82,0,1,0,2,45.22L25.17,68.4A6.84,6.84,0,0,0,34.83,68.4Z"/></g><g class="cls-1"><path class="cls-2" d="M34.83,102,58,78.79a6.82,6.82,0,0,0-9.65-9.65L30,87.48,11.65,69.14A6.82,6.82,0,1,0,2,78.79L25.17,102A6.83,6.83,0,0,0,34.83,102Z"/></g><g class="cls-1"><path class="cls-2" d="M34.83,34.83,58,11.66A6.83,6.83,0,0,0,48.35,2L30,20.34,11.65,2A6.83,6.83,0,0,0,2,11.66L25.17,34.83A6.84,6.84,0,0,0,34.83,34.83Z"/></g></g></g></svg>