<svg xmlns="http://www.w3.org/2000/svg" viewBox="0 0 185.64 226.83"><defs><style>.cls-1{font-size:22px;fill:#666;font-family:Arial-BoldMT, Arial;font-weight:700;}.cls-2{fill:#41988e;}.cls-3,.cls-4,.cls-5{isolation:isolate;}.cls-4,.cls-5{font-size:12.47px;font-family:ArialMT, Arial;}.cls-4{fill:#304ff7;}.cls-5{fill:#ff0d0d;}</style></defs><g id="图层_2" data-name="图层 2"><g id="图层_1-2" data-name="图层 1"><text class="cls-1" transform="translate(56.18 218.55)">Auxins</text><circle class="cls-2" cx="92.82" cy="92.82" r="92.82"/><polygon points="147.25 138.99 132.79 164.04 132.46 163.48 132.14 162.91 145.95 138.99 146.6 138.99 147.25 138.99"/><polygon points="143.17 139.27 130.99 160.37 130.5 160.09 130.01 159.8 142.19 138.71 142.68 138.99 143.17 139.27"/><polygon points="132.79 164.04 103.86 164.04 104.19 163.48 104.51 162.91 132.14 162.91 132.46 163.48 132.79 164.04"/><polygon points="103.86 164.04 89.68 139.49 90.05 138.99 90.7 138.99 104.51 162.91 104.19 163.48 103.86 164.04"/><polygon points="105.66 160.37 93.48 139.27 93.97 138.99 94.46 138.71 106.64 159.8 106.14 160.09 105.66 160.37"/><polygon points="89.76 138.35 103.49 114.58 104.19 114.5 104.51 115.07 90.7 138.99 90.05 138.99 89.76 138.35"/><polygon points="104.44 113.94 132.79 113.94 132.46 114.5 132.14 115.07 104.51 115.07 104.19 114.5 104.44 113.94"/><polygon points="106.14 117.33 130.5 117.33 130.5 117.9 130.5 118.46 106.14 118.46 106.14 117.9 106.14 117.33"/><polygon points="132.79 113.94 147.25 138.99 146.6 138.99 145.95 138.99 132.14 115.07 132.46 114.5 132.79 113.94"/><polygon points="103.49 114.58 85.12 94.17 85.27 93.49 85.88 93.33 104.44 113.94 104.19 114.5 103.49 114.58"/><polygon points="84.62 98.11 63.3 107.6 63.06 107.09 62.84 106.57 84.16 97.08 84.39 97.59 84.62 98.11"/><polygon points="85.12 94.17 60.04 105.34 59.43 104.99 58.83 104.64 84.77 93.09 85.27 93.49 85.12 94.17"/><polygon points="60.04 105.34 62.29 126.76 61.73 126.82 61.16 126.88 58.83 104.64 59.43 104.99 60.04 105.34"/><g class="cls-3"><text class="cls-4" transform="translate(48.88 138.16)">H</text><text class="cls-4" transform="translate(57.89 138.16)">N</text></g><polygon points="68.14 133.75 89.76 138.35 90.05 138.99 89.68 139.49 67.9 134.86 68.02 134.31 68.14 133.75"/><polygon points="84.77 93.09 90.52 66.03 91.14 65.83 91.76 65.63 85.88 93.33 85.27 93.49 84.77 93.09"/><polygon points="90.52 66.03 69.51 47.11 70.13 46.91 70.75 46.71 91.76 65.63 91.14 65.83 90.52 66.03"/><polygon points="71.76 48.76 49.92 55.86 49.74 55.32 49.57 54.78 71.41 47.68 71.59 48.22 71.76 48.76"/><polygon points="70.71 45.53 48.87 52.63 48.7 52.09 48.52 51.55 70.36 44.46 70.54 44.99 70.71 45.53"/><g class="cls-3"><text class="cls-5" transform="translate(38.39 60.7)">O</text></g><polygon points="69.51 47.11 74.12 25.42 74.67 25.54 75.23 25.66 70.75 46.71 70.13 46.91 69.51 47.11"/><g class="cls-3"><text class="cls-5" transform="translate(71.16 24.3)">O</text><text class="cls-5" transform="translate(80.86 24.3)">H</text></g></g></g></svg>