<svg xmlns="http://www.w3.org/2000/svg" viewBox="0 0 185.64 226.39"><defs><style>.cls-1{fill:#41988e;}.cls-2,.cls-4{fill:#f2f2f2;}.cls-3,.cls-4{isolation:isolate;}.cls-4{font-size:13.19px;font-family:ArialMT, Arial;}.cls-5{font-size:22px;fill:#666;font-family:Arial-BoldMT, Arial;font-weight:700;}</style></defs><g id="图层_2" data-name="图层 2"><g id="图层_1-2" data-name="图层 1"><circle class="cls-1" cx="92.82" cy="92.82" r="92.82"/><polygon class="cls-2" points="167.82 108.47 152.51 134.98 152.17 134.38 151.82 133.78 166.44 108.47 167.13 108.47 167.82 108.47"/><polygon class="cls-2" points="163.5 108.77 150.62 131.09 150.1 130.79 149.58 130.49 162.47 108.17 162.99 108.47 163.5 108.77"/><polygon class="cls-2" points="152.51 134.98 121.9 134.98 122.25 134.38 122.59 133.78 151.82 133.78 152.17 134.38 152.51 134.98"/><polygon class="cls-2" points="121.9 134.98 106.94 109.07 107.29 108.47 107.98 108.47 122.59 133.78 122.25 134.38 121.9 134.98"/><polygon class="cls-2" points="123.8 131.09 110.91 108.77 111.43 108.47 111.95 108.17 124.84 130.49 124.32 130.79 123.8 131.09"/><polygon class="cls-2" points="106.94 107.87 121.9 81.96 122.25 82.56 122.59 83.15 107.98 108.47 107.29 108.47 106.94 107.87"/><polygon class="cls-2" points="121.9 81.96 152.51 81.96 152.17 82.56 151.82 83.15 122.59 83.15 122.25 82.56 121.9 81.96"/><polygon class="cls-2" points="124.32 85.55 150.1 85.55 150.1 86.15 150.1 86.75 124.32 86.75 124.32 86.15 124.32 85.55"/><polygon class="cls-2" points="152.51 81.96 167.82 108.47 167.13 108.47 166.44 108.47 151.82 83.15 152.17 82.56 152.51 81.96"/><polygon class="cls-2" points="106.94 109.07 77.02 109.07 77.36 108.47 77.71 107.87 106.94 107.87 107.29 108.47 106.94 109.07"/><polygon class="cls-2" points="77.02 109.07 62.06 83.15 62.4 82.56 62.75 81.96 77.71 107.87 77.36 108.47 77.02 109.07"/><polygon class="cls-2" points="59.81 82.26 71.45 62.1 71.97 62.4 72.48 62.7 60.85 82.86 60.33 82.56 59.81 82.26"/><polygon class="cls-2" points="62.92 84.05 74.56 63.9 75.08 64.19 75.59 64.49 63.96 84.65 63.44 84.35 62.92 84.05"/><g class="cls-3"><text class="cls-4" transform="translate(72.23 61.99)">O</text></g><polygon class="cls-2" points="62.06 83.15 38.81 83.15 38.81 82.56 38.81 81.96 62.75 81.96 62.4 82.56 62.06 83.15"/><g class="cls-3"><text class="cls-4" transform="translate(17.82 87.9)">H</text><text class="cls-4" transform="translate(27.35 87.9)">O</text></g><text class="cls-5" transform="translate(56.15 218.11)">Auxins</text></g></g></svg>