<svg xmlns="http://www.w3.org/2000/svg" viewBox="0 0 185.64 226.14"><defs><style>.cls-1{font-size:22px;fill:#666;font-family:Arial-BoldMT, Arial;font-weight:700;}.cls-2{fill:#fbe9d7;}.cls-3,.cls-4{isolation:isolate;}.cls-4{font-size:7.59px;fill:#ff0d0d;font-family:ArialMT, Arial;}</style></defs><g id="图层_2" data-name="图层 2"><g id="图层_1-2" data-name="图层 1"><text class="cls-1" transform="translate(2.94 217.86)">Brassinosteroids</text><circle class="cls-2" cx="92.82" cy="92.82" r="92.82"/><polygon points="156.81 109.84 148.31 95.11 148.5 94.76 148.9 94.76 157.41 109.5 157.11 109.67 156.81 109.84"/><polygon points="148.31 95.11 131.29 95.11 131.29 94.76 131.29 94.42 148.31 94.42 148.5 94.76 148.31 95.11"/><polygon points="148.31 94.42 156.71 79.86 157.11 79.86 157.31 80.2 148.9 94.76 148.5 94.76 148.31 94.42"/><polygon points="157.31 79.51 174.32 79.51 174.32 79.86 174.32 80.2 157.31 80.2 157.11 79.86 157.31 79.51"/><polygon points="156.71 79.86 148.31 65.3 148.5 64.95 148.9 64.95 157.31 79.51 157.11 79.86 156.71 79.86"/><polygon points="148.31 65.3 131.49 65.3 131.29 64.95 131.49 64.61 148.31 64.61 148.5 64.95 148.31 65.3"/><polygon points="130.9 64.95 122.49 50.39 122.69 50.05 123.08 50.05 131.49 64.61 131.29 64.95 130.9 64.95"/><polygon points="122.49 49.7 131 34.97 131.29 35.14 131.59 35.31 123.08 50.05 122.69 50.05 122.49 49.7"/><polygon points="122.49 50.39 105.65 50.39 105.48 50.05 105.65 49.7 122.49 49.7 122.69 50.05 122.49 50.39"/><polygon points="105.05 50.05 95.23 36.53 95.36 36.12 95.49 35.72 105.65 49.7 105.48 50.05 105.05 50.05"/><polygon points="95.23 36.53 79.33 41.69 78.99 41.44 78.65 41.19 95.49 35.72 95.36 36.12 95.23 36.53"/><polygon points="79.33 41.69 79.33 58.4 78.99 58.65 78.65 58.5 78.65 41.19 78.99 41.44 79.33 41.69"/><polygon points="79.33 58.4 95.23 63.56 95.36 63.97 95.06 64.23 79.07 59.04 78.99 58.65 79.33 58.4"/><polygon points="95.81 64.42 99.32 80.93 98.94 80.81 98.56 80.68 95.06 64.23 95.36 63.97 95.81 64.42"/><polygon points="99.32 80.93 86.23 92.71 86.15 92.32 86.07 91.93 98.56 80.68 98.94 80.81 99.32 80.93"/><polygon points="86.23 92.71 69.89 87.4 69.78 87 70.07 86.74 86.07 91.93 86.15 92.32 86.23 92.71"/><polygon points="69.41 86.91 65.9 70.4 66.2 70.17 66.58 70.29 70.07 86.74 69.78 87 69.41 86.91"/><polygon points="65.9 70.4 50.8 62.85 50.81 62.47 50.81 62.09 66.15 69.75 66.2 70.17 65.9 70.4"/><polygon points="50.8 62.85 38.98 68.33 38.83 68.02 38.69 67.7 50.81 62.09 50.81 62.47 50.8 62.85"/><g class="cls-3"><text class="cls-4" transform="translate(32.24 72.78)">O</text></g><polygon points="34.59 73.61 31.48 86.35 31.11 86.42 30.74 86.5 33.92 73.45 34.26 73.53 34.59 73.61"/><polygon points="31.88 87.67 18.2 90.58 18.13 90.24 18.06 89.9 31.74 87 31.81 87.33 31.88 87.67"/><polygon points="31.45 85.65 17.77 88.56 17.7 88.22 17.63 87.88 31.31 84.97 31.38 85.31 31.45 85.65"/><g class="cls-3"><text class="cls-4" transform="translate(11.32 93.08)">O</text></g><polygon points="31.48 86.35 41.81 99.7 41.64 100.04 41.22 100.06 30.74 86.5 31.11 86.42 31.48 86.35"/><polygon points="41.81 99.7 58.69 99.95 58.85 100.3 58.64 100.64 41.83 100.39 41.64 100.04 41.81 99.7"/><polygon points="59.47 100.7 67.63 115.33 67.23 115.33 66.83 115.32 58.64 100.64 58.85 100.3 59.47 100.7"/><polygon points="67.63 115.33 58.8 130.11 58.4 130.1 58.21 129.76 66.83 115.32 67.23 115.33 67.63 115.33"/><polygon points="58.2 130.45 41.39 130.19 41.19 129.85 41.4 129.5 58.21 129.76 58.4 130.1 58.2 130.45"/><polygon points="40.8 129.84 32.41 114.81 32.81 114.81 33.21 114.82 41.4 129.5 41.19 129.85 40.8 129.84"/><polygon points="32.41 114.81 41.22 100.06 41.64 100.04 41.83 100.39 33.21 114.82 32.81 114.81 32.41 114.81"/><polygon points="41.39 130.19 34.95 140.97 34.65 140.79 34.36 140.62 40.8 129.84 41.19 129.85 41.39 130.19"/><g class="cls-3"><text class="cls-4" transform="translate(23.93 147.7)">H</text><text class="cls-4" transform="translate(29.41 147.7)">O</text></g><polygon points="58.8 130.11 64.95 141.14 64.65 141.31 64.35 141.48 58.2 130.45 58.4 130.1 58.8 130.11"/><g class="cls-3"><text class="cls-4" transform="translate(63.83 148.21)">O</text><text class="cls-4" transform="translate(69.74 148.21)">H</text></g><polygon points="59.53 100.01 76.02 101.5 75.99 101.84 75.96 102.18 59.47 100.7 58.85 100.3 59.53 100.01"/><polygon points="58.69 99.95 69.41 86.91 69.78 87 69.89 87.4 59.53 100.01 58.85 100.3 58.69 99.95"/><polygon points="66.15 69.75 78.65 58.5 78.99 58.65 79.07 59.04 66.58 70.29 66.2 70.17 66.15 69.75"/><polygon points="95.95 63.74 112.27 67.21 112.2 67.55 112.12 67.89 95.81 64.42 95.36 63.97 95.95 63.74"/><polygon points="95.23 63.56 105.05 50.05 105.48 50.05 105.65 50.39 95.95 63.74 95.36 63.97 95.23 63.56"/><polygon points="131.49 65.3 125.2 76.2 124.9 76.03 124.6 75.86 130.9 64.95 131.29 64.95 131.49 65.3"/><g class="cls-3"><text class="cls-4" transform="translate(114.26 82.93)">H</text><text class="cls-4" transform="translate(119.74 82.93)">O</text></g><polygon points="148.31 64.61 154.6 53.7 154.9 53.87 155.2 54.05 148.9 64.95 148.5 64.95 148.31 64.61"/><g class="cls-3"><text class="cls-4" transform="translate(154.16 53.12)">O</text><text class="cls-4" transform="translate(160.06 53.12)">H</text></g></g></g></svg>