<svg xmlns="http://www.w3.org/2000/svg" viewBox="0 0 185.64 225.78"><defs><style>.cls-1{fill:#9fc6c0;}.cls-2{font-size:22px;fill:#666;font-family:Arial-BoldMT, Arial;font-weight:700;}.cls-3,.cls-4{isolation:isolate;}.cls-4{font-size:10.66px;fill:#304ff7;font-family:ArialMT, Arial;}</style></defs><g id="图层_2" data-name="图层 2"><g id="图层_1-2" data-name="图层 1"><text/><circle class="cls-1" cx="92.82" cy="92.82" r="92.82"/><text class="cls-2" transform="translate(36.86 217.5)">Cytokinins</text><polygon points="155.31 31.31 132.56 38.7 132.18 38.32 132.29 37.77 155.01 30.39 155.16 30.85 155.31 31.31"/><polygon points="132.56 38.7 125.28 60.02 124.82 59.87 124.37 59.71 131.62 38.46 132.18 38.32 132.56 38.7"/><polygon points="129.68 39.33 127.6 62.32 127.15 61.96 126.7 61.6 128.72 39.24 129.2 39.28 129.68 39.33"/><polygon points="127.6 62.32 104.58 69.8 104.16 69.43 103.75 69.06 126.7 61.6 127.15 61.96 127.6 62.32"/><polygon points="104.58 69.8 100.75 87.8 100.28 87.7 99.81 87.6 103.75 69.06 104.16 69.43 104.58 69.8"/><g class="cls-3"><text class="cls-4" transform="translate(95.29 97.39)">N</text><text class="cls-4" transform="translate(102.99 97.39)">H</text></g><polygon points="94.47 95.1 76.57 100.91 76.15 100.54 76.27 99.99 94.17 94.18 94.32 94.64 94.47 95.1"/><polygon points="72.64 101.93 60.74 91.22 61.06 90.86 61.39 90.5 73.29 101.22 72.97 101.58 72.64 101.93"/><polygon points="75.62 100.71 62.68 89.06 63.01 88.7 63.33 88.34 76.27 99.99 76.15 100.54 75.62 100.71"/><g class="cls-3"><text class="cls-4" transform="translate(54.34 88.68)">N</text></g><polygon points="53.52 86.39 35.62 92.21 35.2 91.84 34.79 91.46 53.23 85.47 53.38 85.93 53.52 86.39"/><polygon points="38.16 94.18 34.63 110.81 34.16 110.71 33.68 110.61 37.22 93.98 37.69 94.08 38.16 94.18"/><polygon points="35.62 92.21 31.79 110.2 31.32 110.1 30.85 110 34.79 91.46 35.2 91.84 35.62 92.21"/><g class="cls-3"><text class="cls-4" transform="translate(26.33 119.8)">N</text></g><polygon points="35.32 119.45 48.26 131.11 48.14 131.65 47.66 131.87 34.67 120.17 34.99 119.81 35.32 119.45"/><polygon points="48.26 131.11 70.71 123.81 71.13 124.18 70.94 124.75 48.62 132 48.14 131.65 48.26 131.11"/><polygon points="50.89 133.3 69.87 127.13 70.02 127.59 70.17 128.05 51.19 134.22 51.04 133.76 50.89 133.3"/><polygon points="71.64 124.07 81.82 138.08 81.43 138.36 81.04 138.65 70.94 124.75 71.13 124.18 71.64 124.07"/><g class="cls-3"><text class="cls-4" transform="translate(81.49 148.05)">N</text><text class="cls-4" transform="translate(89.18 148.05)">H</text></g><polygon points="81.82 149.4 71.31 163.86 71.13 163.29 70.94 162.72 81.04 148.83 81.43 149.11 81.82 149.4"/><polygon points="71.31 163.86 52.8 157.85 52.95 157.39 53.1 156.93 70.94 162.72 71.13 163.29 71.31 163.86"/><polygon points="69.87 160.34 53.7 155.09 53.85 154.63 54 154.17 70.17 159.42 70.02 159.88 69.87 160.34"/><g class="cls-3"><text class="cls-4" transform="translate(44.29 160.14)">N</text></g><polygon points="47.66 150.45 47.66 131.87 48.14 131.65 48.62 132 48.62 150.45 48.14 150.45 47.66 150.45"/><polygon points="70.71 123.81 75.62 100.71 76.15 100.54 76.57 100.91 71.64 124.07 71.13 124.18 70.71 123.81"/><polygon points="131.62 38.46 113.89 22.5 114.21 22.14 114.54 21.79 132.29 37.77 132.18 38.32 131.62 38.46"/></g></g></svg>