<svg xmlns="http://www.w3.org/2000/svg" viewBox="0 0 185.64 226.3"><defs><style>.cls-1{font-size:22px;fill:#666;font-family:Arial-BoldMT, Arial;font-weight:700;}.cls-2{fill:#dee9f3;}.cls-3,.cls-4{isolation:isolate;}.cls-4{font-size:9.75px;fill:#ff0d0d;font-family:ArialMT, Arial;}</style></defs><g id="图层_2" data-name="图层 2"><g id="图层_1-2" data-name="图层 1"><text class="cls-1" transform="translate(35.89 218.02)">Gibberellin</text><circle class="cls-2" cx="92.82" cy="92.82" r="92.82"/><polygon points="86.12 145.36 103.61 132.65 104.27 132.72 104.33 133.23 86.64 146.08 86.38 145.72 86.12 145.36"/><polygon points="106.37 133.17 124.42 141.21 124.48 141.72 124.3 142.12 104.33 133.23 104.27 132.72 106.37 133.17"/><polygon points="124.42 141.21 141.9 128.51 142.37 128.72 142.83 128.92 124.74 142.07 124.48 141.72 124.42 141.21"/><polygon points="141.9 128.51 139.84 108.86 140.06 106.72 140.29 104.69 142.83 128.92 142.37 128.72 141.9 128.51"/><polygon points="120.21 97.39 140.29 104.69 140.06 106.72 139.84 108.86 119.89 98.25 119.85 97.73 120.21 97.39"/><polygon points="119.89 98.25 102.44 110.92 101.96 110.73 101.96 110.18 118.66 98.05 119.85 97.73 119.89 98.25"/><polygon points="101.53 110.96 83.81 98.08 84.07 97.73 84.59 97.56 101.96 110.18 101.96 110.73 101.53 110.96"/><polygon points="83.65 97.59 90.48 76.56 90.91 76.7 91.23 77.14 84.59 97.56 84.07 97.73 83.65 97.59"/><polygon points="91.16 76.25 112.74 76.25 113.02 76.7 112.7 77.14 91.23 77.14 90.91 76.7 91.16 76.25"/><polygon points="112.74 76.25 122.64 55.95 124.08 57.54 125.46 59.05 113.51 76.76 113.02 76.7 112.74 76.25"/><polygon points="122.64 55.95 112.76 38.84 113.02 38.39 113.27 37.95 125.46 59.05 124.08 57.54 122.64 55.95"/><polygon points="112.76 38.84 91.16 38.84 90.91 38.39 91.19 37.95 113.27 37.95 113.02 38.39 112.76 38.84"/><polygon points="91.16 38.84 80.36 57.54 79.85 57.54 79.34 57.54 89.84 39.35 90.91 38.39 91.16 38.84"/><polygon points="80.36 57.54 91.16 76.25 90.91 76.7 90.52 76.92 79.34 57.54 79.85 57.54 80.36 57.54"/><polygon points="89.84 39.35 70.32 48.04 69.87 47.75 69.43 47.46 90.23 38.21 90.91 38.39 89.84 39.35"/><polygon points="69.61 49.75 50.94 36.18 51.2 35.82 51.46 35.47 70.13 49.03 69.87 49.39 69.61 49.75"/><polygon points="71.01 47.48 52.5 34.03 52.76 33.68 53.02 33.32 71.53 46.77 71.27 47.13 71.01 47.48"/><polygon points="70.32 48.04 70.32 68.5 69.87 69.86 69.43 71.22 69.43 47.46 69.87 47.75 70.32 48.04"/><polygon points="91 76.23 90.71 77.13 90.29 77 89.87 76.86 90.16 75.95 90.58 76.09 91 76.23"/><polygon points="88.54 75.23 88.13 76.49 87.71 76.36 87.29 76.22 87.7 74.96 88.12 75.09 88.54 75.23"/><polygon points="86.08 74.24 85.56 75.85 85.14 75.71 84.72 75.58 85.24 73.96 85.66 74.1 86.08 74.24"/><polygon points="83.62 73.24 82.98 75.21 82.56 75.07 82.14 74.94 82.78 72.97 83.2 73.11 83.62 73.24"/><polygon points="81.16 72.25 80.41 74.57 79.99 74.43 79.57 74.29 80.32 71.98 80.74 72.11 81.16 72.25"/><polygon points="78.7 71.25 77.83 73.92 77.41 73.79 76.99 73.65 77.86 70.98 78.28 71.12 78.7 71.25"/><polygon points="76.24 70.26 75.26 73.28 74.84 73.15 74.42 73.01 75.4 69.99 75.82 70.12 76.24 70.26"/><polygon points="73.78 69.27 72.68 72.64 72.26 72.5 71.84 72.37 72.94 68.99 73.36 69.13 73.78 69.27"/><polygon points="71.32 68.27 70.11 72 69.69 71.86 69.27 71.73 70.48 68 70.9 68.14 71.32 68.27"/><polygon points="90.23 38.21 80.96 25.16 82.69 24.16 84.41 23.16 91.19 37.95 90.91 38.39 90.23 38.21"/><g class="cls-3"><text class="cls-4" transform="translate(69.01 23.19)">H</text><text class="cls-4" transform="translate(76.06 23.19)">O</text></g><polygon points="113.51 76.76 120.21 97.39 119.85 97.73 119.22 97.22 112.7 77.14 113.02 76.7 113.51 76.76"/><polygon points="83.87 97.29 84.17 98.2 83.75 98.33 83.33 98.47 83.03 97.56 83.45 97.43 83.87 97.29"/><polygon points="81.58 97.86 81.98 99.08 81.56 99.22 81.14 99.36 80.74 98.13 81.16 98 81.58 97.86"/><polygon points="79.3 98.43 79.79 99.97 79.37 100.1 78.95 100.24 78.45 98.7 78.88 98.57 79.3 98.43"/><polygon points="77.01 99 77.61 100.85 77.19 100.99 76.77 101.12 76.17 99.28 76.59 99.14 77.01 99"/><polygon points="74.72 99.57 75.42 101.73 75 101.87 74.58 102.01 73.88 99.85 74.3 99.71 74.72 99.57"/><polygon points="72.43 100.14 73.23 102.62 72.81 102.75 72.39 102.89 71.59 100.42 72.01 100.28 72.43 100.14"/><polygon points="70.14 100.71 71.05 103.5 70.63 103.64 70.2 103.78 69.3 100.99 69.72 100.85 70.14 100.71"/><polygon points="67.85 101.28 68.86 104.39 68.44 104.52 68.02 104.66 67.01 101.56 67.43 101.42 67.85 101.28"/><polygon points="65.56 101.86 66.67 105.27 66.25 105.41 65.83 105.54 64.72 102.13 65.14 101.99 65.56 101.86"/><polygon points="63.27 102.43 64.48 106.15 64.06 106.29 63.64 106.43 62.43 102.7 62.85 102.56 63.27 102.43"/><polygon points="62.27 106.25 50.1 95.29 50.4 94.96 50.69 94.63 62.86 105.6 62.57 105.93 62.27 106.25"/><polygon points="64.2 104.42 51.88 93.32 52.17 92.99 52.47 92.66 64.79 103.76 64.5 104.09 64.2 104.42"/><g class="cls-3"><text class="cls-4" transform="translate(42.81 93.71)">O</text></g><polygon points="63.26 105.26 57.95 120.69 57.53 120.55 57.12 120.41 62.81 103.87 63.04 104.56 63.26 105.26"/><g class="cls-3"><text class="cls-4" transform="translate(45 129.42)">H</text><text class="cls-4" transform="translate(52.05 129.42)">O</text></g><polygon points="102.44 110.92 106.37 133.17 104.27 132.72 102.18 129.74 101.53 110.96 101.96 110.73 102.44 110.92"/><polygon points="118.66 98.05 102.49 96.35 102.54 95.91 102.58 95.47 119.22 97.22 119.85 97.73 118.66 98.05"/><g class="cls-3"><text class="cls-4" transform="translate(94.06 99.36)">O</text></g><polygon points="96.07 100.52 89.39 115.54 88.87 115.62 88.34 115.7 95.27 100.16 95.67 100.33 96.07 100.52"/><polygon points="89.97 117.11 73.21 122.88 73.06 122.46 72.92 122.05 89.69 116.27 89.83 116.69 89.97 117.11"/><polygon points="89.75 114.38 72.34 120.37 72.2 119.95 72.06 119.54 89.46 113.55 89.6 113.96 89.75 114.38"/><g class="cls-3"><text class="cls-4" transform="translate(64.16 126.77)">O</text></g><polygon points="89.39 115.54 102.18 129.74 104.27 132.72 103.61 132.65 88.34 115.7 88.87 115.62 89.39 115.54"/><polygon points="124 141.83 124.97 141.73 125.02 142.17 125.06 142.61 124.09 142.71 124.04 142.27 124 141.83"/><polygon points="124.04 144.55 125.49 144.39 125.54 144.83 125.59 145.27 124.13 145.43 124.08 144.99 124.04 144.55"/><polygon points="124.08 147.26 126.02 147.06 126.06 147.5 126.11 147.94 124.17 148.14 124.12 147.7 124.08 147.26"/><polygon points="124.12 149.97 126.54 149.72 126.59 150.16 126.64 150.6 124.21 150.85 124.16 150.41 124.12 149.97"/><polygon points="124.16 152.69 127.07 152.38 127.11 152.82 127.16 153.26 124.25 153.57 124.2 153.13 124.16 152.69"/><polygon points="124.2 155.4 127.59 155.04 127.64 155.48 127.69 155.92 124.29 156.28 124.24 155.84 124.2 155.4"/><polygon points="124.24 158.12 128.12 157.71 128.16 158.15 128.21 158.59 124.33 158.99 124.28 158.56 124.24 158.12"/><g class="cls-3"><text class="cls-4" transform="translate(122.99 167.66)">O</text><text class="cls-4" transform="translate(130.58 167.66)">H</text></g></g></g></svg>