<svg xmlns="http://www.w3.org/2000/svg" viewBox="0 0 185.64 226.56"><defs><style>.cls-1{font-size:22px;fill:#666;font-family:Arial-BoldMT, Arial;font-weight:700;}.cls-2{fill:#d77765;}.cls-3,.cls-4{isolation:isolate;}.cls-4{font-size:12.43px;fill:#ff0d0d;font-family:ArialMT, Arial;}</style></defs><g id="图层_2" data-name="图层 2"><g id="图层_1-2" data-name="图层 1"><text class="cls-1" transform="translate(19.37 218.28)">Jasmonic acid</text><circle class="cls-2" cx="92.82" cy="92.82" r="92.82"/><polygon points="171.15 108 143.29 108 142.97 107.43 142.64 106.87 171.15 106.87 171.15 107.43 171.15 108"/><polygon points="143.29 108 129.2 132.4 128.88 131.84 128.55 131.27 142.64 106.87 142.97 107.43 143.29 108"/><polygon points="129.2 132.4 100.37 132.4 100.7 131.84 101.02 131.27 128.55 131.27 128.88 131.84 129.2 132.4"/><polygon points="126.92 129.02 102.65 129.02 102.65 128.46 102.65 127.89 126.92 127.89 126.92 128.46 126.92 129.02"/><polygon points="100.37 132.4 87.45 110.03 86.61 107.43 85.82 104.95 101.02 131.27 100.7 131.84 100.37 132.4"/><polygon points="58.7 106.85 85.82 104.95 86.61 107.43 87.45 110.03 58.7 108.02 58.43 107.43 58.7 106.85"/><polygon points="57.73 107.43 41.65 85.3 41.86 84.64 42.32 84.3 58.7 106.85 58.43 107.43 57.73 107.43"/><polygon points="41.65 85.3 15.63 93.75 15.06 93.34 14.5 92.93 41.69 84.1 41.86 84.64 41.65 85.3"/><polygon points="15.63 93.75 15.63 121.11 15.06 121.52 14.5 121.93 14.5 92.93 15.06 93.34 15.63 93.75"/><polygon points="15.63 121.11 41.65 129.57 41.86 130.23 42.08 130.89 14.5 121.93 15.06 121.52 15.63 121.11"/><polygon points="43.63 128.36 50.68 150.07 50.14 150.24 49.61 150.42 42.55 128.71 43.09 128.54 43.63 128.36"/><polygon points="40.41 129.41 47.46 151.11 46.93 151.29 46.39 151.46 39.34 129.76 39.87 129.58 40.41 129.41"/><g class="cls-3"><text class="cls-4" transform="translate(45.74 162.06)">O</text></g><polygon points="41.65 129.57 57.73 107.43 58.43 107.43 58.7 108.02 42.08 130.89 41.86 130.23 41.65 129.57"/><polygon points="42.46 84.76 41.3 84.38 41.48 83.85 41.65 83.31 42.81 83.69 42.63 84.22 42.46 84.76"/><polygon points="43.59 81.97 42.03 81.47 42.2 80.93 42.38 80.39 43.94 80.9 43.76 81.44 43.59 81.97"/><polygon points="44.71 79.19 42.76 78.55 42.93 78.01 43.11 77.48 45.06 78.11 44.89 78.65 44.71 79.19"/><polygon points="45.84 76.4 43.49 75.63 43.66 75.1 43.83 74.56 46.19 75.33 46.01 75.86 45.84 76.4"/><polygon points="46.97 73.61 44.21 72.72 44.39 72.18 44.56 71.64 47.31 72.54 47.14 73.07 46.97 73.61"/><polygon points="48.09 70.82 44.94 69.8 45.11 69.26 45.29 68.73 48.44 69.75 48.27 70.29 48.09 70.82"/><polygon points="49.22 68.04 45.67 66.88 45.84 66.35 46.02 65.81 49.57 66.96 49.39 67.5 49.22 68.04"/><polygon points="50.34 65.25 46.4 63.97 46.57 63.43 46.74 62.89 50.69 64.18 50.52 64.71 50.34 65.25"/><polygon points="51.47 62.46 47.12 61.05 47.3 60.51 47.47 59.98 51.82 61.39 51.65 61.92 51.47 62.46"/><polygon points="52.6 59.67 47.85 58.13 48.02 57.59 48.2 57.06 52.95 58.6 52.77 59.14 52.6 59.67"/><polygon points="49.5 57.48 77.7 51.49 78.13 51.98 78.57 52.46 51.65 58.18 50.57 57.83 49.5 57.48"/><polygon points="79.16 49.74 93.02 65.14 92.6 65.52 92.18 65.89 78.32 50.5 78.74 50.12 79.16 49.74"/><polygon points="76.64 52 90.51 67.4 90.09 67.78 89.67 68.16 75.81 52.76 76.22 52.38 76.64 52"/><g class="cls-3"><text class="cls-4" transform="translate(92.16 77.95)">O</text></g><polygon points="77.7 51.49 84.27 31.27 84.81 31.44 85.34 31.62 78.57 52.46 78.13 51.98 77.7 51.49"/><g class="cls-3"><text class="cls-4" transform="translate(82.01 30.21)">O</text><text class="cls-4" transform="translate(91.68 30.21)">H</text></g></g></g></svg>