<svg xmlns="http://www.w3.org/2000/svg" viewBox="0 0 250 250"><defs><style>.cls-1{fill:#133f7f;}.cls-2{fill:#ccc;}.cls-3{fill:none;stroke:#f2f2f2;stroke-miterlimit:10;stroke-width:0.5px;}.cls-4{font-size:18px;fill:#fff;font-family:Arial-BoldItalicMT, Arial;font-weight:700;font-style:italic;}</style></defs><g id="图层_2" data-name="图层 2"><g id="图层_1-2" data-name="图层 1"><circle class="cls-1" cx="125" cy="125" r="124"/><path class="cls-2" d="M125,2a123,123,0,0,1,87,210A123,123,0,1,1,38,38,122.16,122.16,0,0,1,125,2m0-2A125,125,0,1,0,250,125,125,125,0,0,0,125,0Z"/><path class="cls-3" d="M23.25,148.79c.14-1,.25-2,.42-3.06a24,24,0,0,1,3.81-9.52,6,6,0,0,1,1.72-1.77.58.58,0,0,0,.28-.35c.45-1.46.92-2.92,1.37-4.38a3.49,3.49,0,0,0,.07-.37c-.25,0-.35.2-.49.31a10.56,10.56,0,0,1-3,1.89,1.94,1.94,0,0,1-2.2-.09,1.93,1.93,0,0,1-.3-2.13,18.13,18.13,0,0,1,3.94-6.84A16.12,16.12,0,0,1,34,118.37a1.8,1.8,0,0,1,1.94.16c.41.4.5.13.58-.2a17.52,17.52,0,0,1,1.07-3.06c-.28.17-.43.25-.57.35a20.06,20.06,0,0,1-4.17,2.27,4.24,4.24,0,0,1-1.35.33,1.23,1.23,0,0,1-1.36-1.66,6.8,6.8,0,0,1,1.29-2.45,22.62,22.62,0,0,1,6.37-5.52l.57-.34a8.5,8.5,0,0,1-1.43-.1,1.43,1.43,0,0,1-1.08-2.28,9.58,9.58,0,0,1,2-2.49A16.94,16.94,0,0,1,47.1,98.9a4,4,0,0,1,2.44.19,1.65,1.65,0,0,1,1.06,2.06A16.68,16.68,0,0,0,52.71,99a19,19,0,0,1,6.19-5.69,3,3,0,0,1,1.53-.52c.47,0,.57-.28.51-1.1-.16-.06-.26.07-.37.14a12.51,12.51,0,0,1-3.09,1.41c-.16,0-.33.07-.4.28a3,3,0,0,1-1,1.23,13.3,13.3,0,0,1-6.67,3.07,16.86,16.86,0,0,1-4.25.43A3.13,3.13,0,0,1,44,98a.89.89,0,0,1-.38-1.48,6.3,6.3,0,0,1,1.78-1.55A18.67,18.67,0,0,1,49.75,93c.31-.09.43-.15.21-.49a1.62,1.62,0,0,1,.2-2,7.73,7.73,0,0,1,2.15-1.84A17.19,17.19,0,0,1,61,86.25a6.16,6.16,0,0,1,1.54.16c1.31.34,1.54.67,1.49,2l.45-.27a18.88,18.88,0,0,1,8.35-3,7,7,0,0,0,2.34-1.07h-.36a25,25,0,0,1-6-.26,4.46,4.46,0,0,1-1.69-.61A1.07,1.07,0,0,1,67,81.35a6.78,6.78,0,0,1,1.67-.91,22.87,22.87,0,0,1,8-1.74l.41,0,.07-.06-.45-.32a3.17,3.17,0,0,1-1.15-1.36,1.31,1.31,0,0,1,.4-1.67,4.79,4.79,0,0,1,1.54-.83,18.14,18.14,0,0,1,7-1,5.62,5.62,0,0,1,.92.07c.47.1.65,0,.75-.52a2.22,2.22,0,0,1,1.23-1.4,6.63,6.63,0,0,1,2.9-.85,18.34,18.34,0,0,1,11.2,2.76c1.43.9,1.38,2.39-.11,3.23a7.62,7.62,0,0,1-3.61.76,21.72,21.72,0,0,1-4.48-.28c-.28,0-.47,0-.6.29a1.8,1.8,0,0,1-.8.86c-.24.15-.49.29-.73.47,1.93-.38,3.87-.72,5.81-1a115,115,0,0,1,15.52-1c.22,0,.62.15.61-.23,0-.23-.37-.08-.57-.09A21.66,21.66,0,0,1,102.62,74a6.67,6.67,0,0,1-1.33-1,2.94,2.94,0,0,1-.64-.81,1.36,1.36,0,0,1,1-2.13,7.61,7.61,0,0,1,2.93-.1,23.6,23.6,0,0,1,9,3c.32.2.63.42.93.65s.76.65.6,1.26c-.07.23,0,.39.32.29a12.32,12.32,0,0,1,6.38,0l.52.11c-.27-.35-.46-.64-.69-.9a1.57,1.57,0,0,1-.3-1.59.9.9,0,0,1,.79-.71,2.51,2.51,0,0,1,1.5.3A18.35,18.35,0,0,1,130,78a2.65,2.65,0,0,1,.24.4c.37.77.14,1.17-.81,1.24a12.81,12.81,0,0,0,2.37.77,11.2,11.2,0,0,1,5.31,2.26,8.71,8.71,0,0,0,1.27.7,72.38,72.38,0,0,1,11.17,7.53,38.07,38.07,0,0,1,6.54,6.94,3.4,3.4,0,0,0,.71.76l-.17-.33a64.93,64.93,0,0,0-7.27-9.64c-.91-1.06-1.75-2.18-2.69-3.21-.24-.26-.45-.49-.87-.37a1.36,1.36,0,0,1-.8-.18,7.44,7.44,0,0,1-2.76-2.12A17.61,17.61,0,0,1,140.32,80c-.11-.19-.2-.32-.47-.23a1.25,1.25,0,0,1-1-.24,4.12,4.12,0,0,1-.94-.72,19.7,19.7,0,0,1-4.41-6.13,1.78,1.78,0,0,0-.74-.88c-.33-.19-.63-.42-.95-.63s-.8-.73-1.39-.11c-.31.33-.88.18-1.34.06a9.37,9.37,0,0,1-3.47-1.77.49.49,0,0,0-.71,0,3.67,3.67,0,0,1-2.37.59,17.46,17.46,0,0,1-9.29-2.73,4.54,4.54,0,0,1-1.31-1.16,1.21,1.21,0,0,1,.58-2,7.37,7.37,0,0,1,2.29-.32.45.45,0,0,0,.31-.14l-3-.7-2.22-.5c-.12,0-.27-.11-.37,0a2.45,2.45,0,0,1-1.35.81,4.21,4.21,0,0,1,1,1,1.09,1.09,0,0,1,0,1.51,3.21,3.21,0,0,1-1.35,1,15.45,15.45,0,0,1-9.38.7,3.54,3.54,0,0,1-1.52-.74,1,1,0,0,1-.1-1.54,3.5,3.5,0,0,1,1.38-.89,17.47,17.47,0,0,1,4.62-1c.38,0,.76-.08,1.14-.15-1.15-.23-2.29-.48-3.42-.79-.56-.15-1.14-.29-1.68-.49a3.76,3.76,0,0,0-3,.11,13,13,0,0,1-5.52.86c-.39,0-.6.06-.73.49a3.08,3.08,0,0,1-1.37,1.63,15.9,15.9,0,0,1-6.17,2.25,10.76,10.76,0,0,1-4,0,1.72,1.72,0,0,1-1.67-1.65l-2.11.69a50.86,50.86,0,0,0-8.8,3.57c-.3.16-.5.27-.34.69a1.53,1.53,0,0,1-.3,1.32,9.18,9.18,0,0,1-2.25,2.4,19.55,19.55,0,0,1-8.94,4.17,7.36,7.36,0,0,1-2.52.06,1.31,1.31,0,0,1-1-2.12,7,7,0,0,1,1.61-1.87A21.07,21.07,0,0,1,63.3,69.26a1.41,1.41,0,0,1,1,.11.39.39,0,0,0,.44,0,55.36,55.36,0,0,1,10.24-4.12.59.59,0,0,0,.22-.14c-1,0-1.91,0-2.85-.15-.12,0-.19,0-.25.15a2.7,2.7,0,0,1-1.27,1.09A27,27,0,0,1,61,68.9a7.61,7.61,0,0,1-2.47-.19c-1.09-.27-1.32-1-.62-1.87a4.64,4.64,0,0,1,1.36-1.1,18.74,18.74,0,0,1,8.26-2.58l.26,0,.12-.06a1.54,1.54,0,0,1-.18-1.37,2.45,2.45,0,0,1,1.17-1.12,14.39,14.39,0,0,1,5.87-1.65,18.51,18.51,0,0,1,5.46.17c.23,0,.35,0,.35-.26a1.76,1.76,0,0,1,1.3-1.68A9.31,9.31,0,0,1,85,56.56a25.22,25.22,0,0,1,6.82.69c.38.08.63.15.75-.39s.76-.94,1.36-1.14a10,10,0,0,1,4.2-.36,19.79,19.79,0,0,1,9.46,3.72,7.38,7.38,0,0,1,1.53,1.13c.12.13.3.24.34.39.15.64.68.62,1.16.69,1.06.18,2.13.35,3.23.45l-.52-.23a26.46,26.46,0,0,1-7.51-4.88A8,8,0,0,1,104.38,55a1.31,1.31,0,0,1,1.08-2.19,5.3,5.3,0,0,1,2.2.27,24,24,0,0,1,8.67,5.17,3.63,3.63,0,0,1,1.26,1.91c.27,1.44-.21,2-1.68,2.16l4.38,1.48c-.12-.22-.19-.38-.28-.53a9.38,9.38,0,0,1-1.33-3.61,1.92,1.92,0,0,1,.56-1.94,1.82,1.82,0,0,1,2,.14A15.23,15.23,0,0,1,125,60.6a22.35,22.35,0,0,1,5.12,6.7c.26.6.49,1.21.74,1.81a.51.51,0,0,0,.21.29l1.59,1c0-.51-.09-1-.07-1.38a1,1,0,0,1,1.38-1,4.5,4.5,0,0,1,1.68,1,18,18,0,0,1,3.6,4.63c.16.28.25.47.63.22a1.25,1.25,0,0,1,1.24,0,6.72,6.72,0,0,1,1.66,1.14,15,15,0,0,1,4.08,6.25,3.13,3.13,0,0,1,.32,2.14c-.07.18.1.28.2.39a118.33,118.33,0,0,1,14,19.46c.46.79.94,1.57,1.41,2.35a1,1,0,0,0,.12.15.63.63,0,0,0-.11-.48c-2.6-6.22-5.38-12.35-8.55-18.3-1.09-2-2.36-4-3.54-6-.06-.1-.12-.22-.26-.22a2.51,2.51,0,0,1-1.61-.85,21.91,21.91,0,0,1-3.34-3.79c-.64-.9-1.23-1.83-1.86-2.74a1.85,1.85,0,0,1-.19-1.72c.19-.61.71-.64,1.25-.65a3.14,3.14,0,0,0-.55-1c-.08-.15-.18-.1-.29,0a.91.91,0,0,1-1,.07,5,5,0,0,1-1.45-1,15.88,15.88,0,0,1-2.48-2.83c-.48-.7-.88-1.44-1.42-2.1a2.72,2.72,0,0,1-.52-1.33c-.21-1.19.11-1.61,1.36-1.69-.39-.52-.5-1.17-1.33-1.3a3.85,3.85,0,0,1-1.72-1.1,23.3,23.3,0,0,1-4.82-6,2.89,2.89,0,0,1-.37-1.21c-.09-.84.3-1.23,1.38-1.39l-1.26-2c-.08-.13-.16-.21-.33-.1a1.28,1.28,0,0,1-1.19,0,8.1,8.1,0,0,1-2.41-1.49,19.92,19.92,0,0,1-5.45-6.14,5.34,5.34,0,0,1-.72-2.13c-.06-1.08.61-1.62,1.65-1.29a7.48,7.48,0,0,1,2.07,1.14c.31.22.6.45,1,.75a4.88,4.88,0,0,0-.84-1.41,20.91,20.91,0,0,1-1.72-2.25c-.08-.13-.15-.26-.36-.24a2.58,2.58,0,0,1-1.76-.61,18.26,18.26,0,0,1-3.93-3.87,36.56,36.56,0,0,1-3-4.67,3.93,3.93,0,0,1-.6-2.46c.11-1.26.85-1.73,2-1.28a8.88,8.88,0,0,1,3.69,2.84c.28.34.49.52,1,.22a1.39,1.39,0,0,1,1.43.09,6.65,6.65,0,0,1,1.58,1.31,13.46,13.46,0,0,1,2,2.65,33.68,33.68,0,0,1,2.62,5.89,6.58,6.58,0,0,1,.36,2.29c0,1.07-.37,1.42-1.41,1.47,1,2.21,2.65,3.92,3.75,6a36.89,36.89,0,0,1-1.22-4.09,8.71,8.71,0,0,1-.09-4.42c.14-.5.34-.63.85-.5a2.3,2.3,0,0,1,1.27,1.08,18.84,18.84,0,0,1,1.93,3.83c.08.22.17.44.25.67.2,0,.21-.18.28-.29a1.28,1.28,0,0,1,1.28-.78,1.52,1.52,0,0,1,1.41,1,18.73,18.73,0,0,1,.8,3.2,20.54,20.54,0,0,1,.34,4.43.82.82,0,0,0,.22.59,20.15,20.15,0,0,1,4.23,9.52,3.24,3.24,0,0,1,0,.62c-.05,1.11-.58,1.44-1.61,1a1.45,1.45,0,0,0-.4-.12,10.49,10.49,0,0,0,1.29,1.91,21.92,21.92,0,0,1,2.74,3.88,6.76,6.76,0,0,1,1,2.77,1.21,1.21,0,0,0,0-1.14,17.83,17.83,0,0,1-1.8-10.43,4.77,4.77,0,0,1,.27-1.05.83.83,0,0,1,1.26-.53,2.24,2.24,0,0,1,1,1,13.62,13.62,0,0,1,1.23,3.5c.08.31.11.52.56.52a1.7,1.7,0,0,1,1.41,1,9.14,9.14,0,0,1,1,3.13,25.25,25.25,0,0,1,.46,7.15,3.57,3.57,0,0,1-.41,1.43.31.31,0,0,0,0,.37,19.61,19.61,0,0,1,2,4.11c0-.37-.08-.74-.11-1.11a20.38,20.38,0,0,1,.1-4.13.73.73,0,0,1,.48-.61,1,1,0,0,1,1.07.14,2,2,0,0,1,.59.84,18.51,18.51,0,0,1,1.54,8.62c-.06.72-.13,1.5-.95,1.88-.25.12,0,.31,0,.43.77,1.45,1.55,2.88,2.31,4.33,3.47,6.57,6.94,13.13,9.9,20,.7,1.61,1.37,3.24,2.05,4.86a1.13,1.13,0,0,0,.32.48c-.14-.56-.27-1.12-.43-1.67-1.23-4.28-2.18-8.63-3.1-13-.86-4-1.57-8.1-2.37-12.14s-1.53-8-2.35-12c-.75-3.61-1.39-7.26-2.1-10.88-.88-4.44-1.56-8.93-2.68-13.32-.62-2.41-1.47-4.76-2.16-7.16-1.05-3.61-2-7.25-3-10.87-.8-2.8-1.67-5.58-2.51-8.36-.6-2-1.41-3.95-2.1-5.93a1.18,1.18,0,0,1,0-.2h.21c1.12,2,2.07,4.17,3.08,6.26a98.2,98.2,0,0,1,4.09,10c2.3,6.43,4.67,12.83,6.93,19.28s4.64,12.81,6.91,19.23c2.67,7.56,5.45,15.08,7.85,22.73a.71.71,0,0,0,.23.34L174.79,94c-.06-.7-.09-1.41-.1-2.11,0-1.68-.17-3.37-.14-5s-.08-3.45-.12-5.17-.1-3.67-.21-5.51c-.13-2.24-.06-4.48-.06-6.71,0-.86.11-1.72.08-2.58-.08-2.3-.16-4.61-.22-6.91-.05-1.72-.14-3.44-.2-5.15s-.27-3.59-.39-5.38c-.05-.69-.07-1.38-.09-2.06-.06-1.77-.23-3.53-.35-5.29s-.3-3.78-.51-5.67-.39-3.63-.58-5.44a26.34,26.34,0,0,1-.24-4.26c0-.08,0-.15.07-.36a10.83,10.83,0,0,1,.54,1.31c1.3,5.21,2.81,10.36,4.21,15.55.7,2.6,1.17,5.26,1.79,7.88.71,3,1.42,6,2.11,9,.86,3.73,1.72,7.46,2.55,11.2s1.66,7.52,2.47,11.28c.68,3.17,1.4,6.33,2,9.52.41,2.31.78,4.63,1.16,6.94.28,1.7.57,3.39.81,5.09.21,1.47.34,2.94.54,4.41.28,2.09.4,4.19.6,6.28.13,1.46.21,2.92.21,4.38,0,2.43.18,4.85.12,7.28,0,.53-.13,1-.1,1.72.44-1,.84-1.88,1.19-2.77.77-2,1.63-3.88,2.37-5.86a83.3,83.3,0,0,0,2.74-8.73c.58-2.27,1.14-4.55,1.62-6.85.34-1.67.62-3.36.88-5s.52-3.5.69-5.26a66.34,66.34,0,0,0,.24-7.05c0-1.35,0-2.69-.13-4a12.43,12.43,0,0,0-.28-2,.87.87,0,0,1,0-.36c0-.16,0-.36.22-.39a.4.4,0,0,1,.45.26,4.69,4.69,0,0,1,.35,1.32c.2,1.38.36,2.77.44,4.17.1,1.7,0,3.41.13,5.1.26,3.55.12,7.09.2,10.64.05,2.31,0,4.64-.16,7-.07,1.47-.1,2.95-.19,4.43-.12,1.86-.3,3.72-.39,5.58-.05,1.08-.14,2.16-.24,3.23-.13,1.46-.28,2.92-.52,4.36-.36,2.08-.79,4.16-1.23,6.23a155.28,155.28,0,0,1-4.45,16.85c-.63,1.88-1.07,3.81-1.61,5.71a.64.64,0,0,0,0,.2c0,1.72-.13,3.44-.11,5.16a93.35,93.35,0,0,0,3.73,24.23c1.39,4.91,2.79,9.81,4.52,14.61.32.87.69,1.73,1,2.6a.78.78,0,0,1-.37,1.13c-.75.46-1,.47-1.44,0a8.77,8.77,0,0,1-.67-.93c-.11-.17-.16-.22-.37-.05a.63.63,0,0,0-.17,1,12.08,12.08,0,0,1,.63,1.18c.17.34.26.6-.25.81s-.94.2-1.39.37c-.26.09-.39-.17-.48-.37-.28-.61-.55-1.23-.82-1.84-.09-.2-.14-.39-.42-.38a.43.43,0,0,1-.27-.13,14.23,14.23,0,0,1-2.19-2.46,77.81,77.81,0,0,1-4.44-10.18c-1.38-3.74-3-7.39-4.4-11.12a62.31,62.31,0,0,1-3.17-11.11,41.62,41.62,0,0,1-.56-4.72c-.08-1.21-.08-2.41-.07-3.61,0-1,.11-2,.2-2.92a3.77,3.77,0,0,0-.3-1.56c-.82-2.43-1.69-4.84-2.57-7.25-1.8-5-5.31-8.23-10-10.43-1.93-.91-3.79-2-5.8-2.69a24.12,24.12,0,0,0-7.76-1.35c-.37,0-.68,0-.77.5a1.61,1.61,0,0,1-.74.91,18.37,18.37,0,0,1-7.74,3.38,3.55,3.55,0,0,1-1,0,1,1,0,0,1-.91-1.43,8.66,8.66,0,0,1,.41-.89l-1.83.89c-.11.05-.12.16-.11.27a3.75,3.75,0,0,1-.63,2.1,17.54,17.54,0,0,1-4.41,5.21,4.52,4.52,0,0,1-1.53.85c-.9.26-1.4-.1-1.35-1a7.1,7.1,0,0,1,.93-3,2.29,2.29,0,0,0,.19-.48,21,21,0,0,0-3.73,3.18c.47,0,.92-.13,1.28.24a2,2,0,0,1,.48,1.43,6.75,6.75,0,0,1-.3,1.73,17.35,17.35,0,0,1-3.35,6.7,8.27,8.27,0,0,1-.72.73c-.17.15-.4.33-.6.27-.61-.19-.69.24-.86.63a22.64,22.64,0,0,1-1.73,3.17,5.83,5.83,0,0,1-1.14,1.34.91.91,0,0,1-1.45,0c-.18.09-.23.28-.32.43a16.14,16.14,0,0,1-2.55,3.31,5.41,5.41,0,0,1-1.38,1c-.78.38-1.26.13-1.42-.72a6.83,6.83,0,0,1,.27-2.91,18.06,18.06,0,0,1,5.07-8.74,16.23,16.23,0,0,0,1.81-2.42c-.12-.17-.23-.05-.33,0a5.47,5.47,0,0,1-1.06.26c-1,.08-1.44-.39-1.31-1.39a4.23,4.23,0,0,1,.55-1.55,15.44,15.44,0,0,1,7-6.37A3.16,3.16,0,0,1,131,140c.8,0,1.18.22,1.59,1.15a29.14,29.14,0,0,1,6.13-4.16.84.84,0,0,0-.61.12,16.39,16.39,0,0,1-4.52,1.24,3.44,3.44,0,0,1-1.28,0,.75.75,0,0,1-.51-1.25,3.21,3.21,0,0,1,.65-.73,13.78,13.78,0,0,1,6.66-3.45c.31-.07.42-.14.39-.49a1.32,1.32,0,0,1,.62-1.08,8.5,8.5,0,0,1,4.13-1.77,15.22,15.22,0,0,1,5-.11,1.76,1.76,0,0,1,.54.16c1,.42,1.07,1.16.28,1.84a5.44,5.44,0,0,1-1.78.94,25.91,25.91,0,0,1-4.44,1.17c-.12,0-.27,0-.32.11-.38.84-1.19,1.21-1.89,1.72.05,0,.09,0,.12,0,1.86-1,3.9-1.65,5.82-2.53a10.08,10.08,0,0,1,5-1.13c.84.07,1.68.07,2.57.07-.12-.22-.32-.23-.48-.3a7.6,7.6,0,0,1-1.86-1.1c-.75-.66-.61-1.38.36-1.68a6.22,6.22,0,0,1,3-.11,10.64,10.64,0,0,1,5.23,2.2,1.26,1.26,0,0,1,.27,1.89,36.94,36.94,0,0,1,7.38,3.13,29.56,29.56,0,0,1,6.63,4.49c-.25-.77-.55-1.52-.76-2.31a25.78,25.78,0,0,0-1.87-4.44,71.49,71.49,0,0,0-15.49-20.9,28.75,28.75,0,0,0-2.85-2.31c-.15-.11-.27-.23-.5-.09a12.25,12.25,0,0,1-5.81,1.43,16,16,0,0,1-5.37-.59,2.78,2.78,0,0,1-1.51-.84c-.2-.24-.42-.1-.62,0a29.49,29.49,0,0,1-4.18.63,11.45,11.45,0,0,1-3.6-.27c-.42-.1-.86-.22-1-.72s.2-.84.55-1.14a8.28,8.28,0,0,1,2.1-1.3,22.08,22.08,0,0,1,5.68-1.67,8.33,8.33,0,0,1,2.82,0,2.74,2.74,0,0,1,1.87,1,.31.31,0,0,0,.36.12l2-.31c-.13-.19-.33-.19-.5-.25a28.82,28.82,0,0,0-7.59-1.46,5.07,5.07,0,0,1-.56-.05c-.29-.06-.44,0-.59.31a2.54,2.54,0,0,1-1.62,1.19,8.09,8.09,0,0,1-2.24.32,26.81,26.81,0,0,1-3.47-.09,3,3,0,0,0-1.22.11,64.55,64.55,0,0,0-16.68,7.62,1.12,1.12,0,0,0-.38.34,8.59,8.59,0,0,1-3.11,3.11c-.1.07-.25.1-.3.32a1.5,1.5,0,0,1,1-.14,1.34,1.34,0,0,1,1.34,1.36,3,3,0,0,1-.12,1.07,19.08,19.08,0,0,1-4.89,8.45,8,8,0,0,1-2.35,1.67,2.41,2.41,0,0,1-1.6.26c-.34-.08-.37.17-.45.36a26.9,26.9,0,0,1-2.74,4.62,10.21,10.21,0,0,1-3.17,3.07.81.81,0,0,0-.33.5,20.2,20.2,0,0,1-3.48,5.77,6.11,6.11,0,0,1-2,1.6,1.45,1.45,0,0,1-2.28-1.13,6.64,6.64,0,0,1,.18-3,22.17,22.17,0,0,1,3-7.12l.2-.37c-.13-.05-.16,0-.2.1a70.33,70.33,0,0,0-4.54,7c-.16.3-.21.49.11.72a.89.89,0,0,1,.28.69,4.3,4.3,0,0,1-.28,2,23.53,23.53,0,0,1-3.66,6.45,6.3,6.3,0,0,1-1.93,1.7c-1.05.58-1.73.16-1.69-1a10.45,10.45,0,0,1,.79-3.25A16.21,16.21,0,0,1,83.05,145a7.07,7.07,0,0,1,2.4-2.08.46.46,0,0,0,.25-.31c.21-.67.57-1.29.85-2l-.39.41a10,10,0,0,1-2.83,2.3,3,3,0,0,1-1.43.4,1,1,0,0,1-1.07-1,3.41,3.41,0,0,1,.42-1.63,14.14,14.14,0,0,1,3.55-4.47,7.54,7.54,0,0,1,1.63-1.16,1.92,1.92,0,0,1,1-.19A1.26,1.26,0,0,1,88.72,137c0,.11,0,.22-.09.47l3.33-4.7c-.22,0-.33.1-.47.18A10.5,10.5,0,0,1,88.84,134l-.2,0c-1.35.22-1.89-.41-1.41-1.69A8.73,8.73,0,0,1,89,129.71a14.75,14.75,0,0,1,6.17-4.11,1.67,1.67,0,0,1,2,.4c.13.13.21.2.37,0,1.67-1.82,3.46-3.51,5.28-5.17,0,0,0,0,0-.09-.35,0-.71,0-1.06,0a1.12,1.12,0,0,1-1-1.6,6.17,6.17,0,0,1,1.25-2,16.38,16.38,0,0,1,7.86-4.74,4.67,4.67,0,0,1,1.94-.16,1.28,1.28,0,0,1,1.09.77c.07.19.16.23.34.11,1.5-.94,3-1.81,4.59-2.7-1,.15-1.89.3-2.83.43a6,6,0,0,1-2.11-.05c-.92-.2-1.15-.88-.55-1.59a6.79,6.79,0,0,1,1.86-1.47,20.14,20.14,0,0,1,7.94-2.45,4.1,4.1,0,0,1,2.6.43c.68.42.79.54.69,1.36l2.54-.85c0-.2-.21-.16-.33-.19a9.21,9.21,0,0,1-2.53-1c-.91-.57-.89-1.3,0-1.82a10.56,10.56,0,0,1,4.48-1.12,17.85,17.85,0,0,1,7.32,1,3.83,3.83,0,0,1,1.24.63,1.21,1.21,0,0,0,.78.2,28.58,28.58,0,0,1,11.25,2.64,3,3,0,0,0,1.1.27,4.54,4.54,0,0,1,3.15,1.45,1,1,0,0,1,.3.41c.1.61.58.87,1,1.17a31.58,31.58,0,0,1,4.37,3.87,74.27,74.27,0,0,1,9.47,11.6c.72,1.13,1.38,2.3,2.07,3.46.12-.15,0-.26,0-.38a50.84,50.84,0,0,0-6.08-12.4,71.19,71.19,0,0,0-13.32-15.6c-2.5-2.1-5-4.22-7.65-6.07a14.59,14.59,0,0,0-1.46-.89c-.22-.12-.36-.19-.49.14s-.68.55-1.13.59a7.69,7.69,0,0,1-2.86-.36,13.56,13.56,0,0,1-3.44-1.52,1.05,1.05,0,0,0-1-.09,12,12,0,0,1-6.43.26A9.49,9.49,0,0,1,123.91,91a4,4,0,0,1-1-1,1.18,1.18,0,0,1-.18-1.17c.14-.31,0-.35-.24-.35s-.72,0-1.08,0a.59.59,0,0,0-.5.22,4.88,4.88,0,0,1-1.61,1.28,16.94,16.94,0,0,1-6.37,2.15A6.31,6.31,0,0,1,110,91.8a1.69,1.69,0,0,1-.74-.34c-.57-.65-1.09-.34-1.7-.06a16.09,16.09,0,0,1-7.17,1.73,1.44,1.44,0,0,0-.5.1q-1.32.51-2.64,1c-.15.06-.37.07-.29.33a2.49,2.49,0,0,1-.7,2.28,16.13,16.13,0,0,1-2.78,2.76,21,21,0,0,1-4.78,2.95,5.18,5.18,0,0,1-1.89.49c-1.08,0-1.52-.55-1.17-1.58a16.13,16.13,0,0,1,.73-1.52l-2.8,1.8a1.66,1.66,0,0,1,.89,1.38,3.29,3.29,0,0,1-.31,1.61,16.24,16.24,0,0,1-3.56,4.59,13.57,13.57,0,0,1-2.68,2.1,4.4,4.4,0,0,1-2.26.79c-.27,0-.34.2-.46.36a16.46,16.46,0,0,1-3.29,3.48,6.37,6.37,0,0,1-2.11,1.18.74.74,0,0,0-.44.46,26.14,26.14,0,0,1-2.93,4.62A7.87,7.87,0,0,1,64.85,124c-1.24.93-1.95.76-2.62-.66-.18.24-.34.43-.28.74a6,6,0,0,1-.41,3.44,16.73,16.73,0,0,1-2.92,4.68,4.09,4.09,0,0,1-1.41,1.1.85.85,0,0,1-1.3-.64,4.06,4.06,0,0,1,.08-2,16,16,0,0,1,3.31-6.59,5,5,0,0,1,.69-.77,1.15,1.15,0,0,1,1.16-.22c.12,0,.27.16.36,0a6.48,6.48,0,0,0,.77-1.56,12.93,12.93,0,0,1,5.62-8.69,6,6,0,0,0,1.72-1.68,17.44,17.44,0,0,1,3.92-4.3,2.88,2.88,0,0,1,2-.63,1.48,1.48,0,0,0,1.07-.39,102.74,102.74,0,0,1,8.81-6.14,1.1,1.1,0,0,0,.48-.4,13.7,13.7,0,0,1-1.57,0,2.55,2.55,0,0,1-1.22-.36c-.31-.21-.44-.13-.64.14A16.68,16.68,0,0,1,77.05,104a7.63,7.63,0,0,1-2.74,1c-1.29.19-1.87-.5-1.43-1.74a14.57,14.57,0,0,1,1.59-2.83.58.58,0,0,0,.12-.37c-.29.22-.59.43-.87.66-2.18,1.8-4.42,3.53-6.46,5.49a4.46,4.46,0,0,0-.58.72,8.53,8.53,0,0,1-2.47,2.39,7.34,7.34,0,0,0-1.44,1.3,2.15,2.15,0,0,1,1.38,2.55,16.49,16.49,0,0,1-5.46,10.54,4.43,4.43,0,0,1-1.62,1,1.19,1.19,0,0,1-1.75-1,7,7,0,0,1,.16-3.22,18.4,18.4,0,0,1,.85-2.57,1,1,0,0,0-.39.39l-2.13,3.06a4.43,4.43,0,0,0-1,2.47,6.65,6.65,0,0,1-.87,2.47,23.11,23.11,0,0,1-4.39,6.29c-.24.25-.25.38,0,.65a2.33,2.33,0,0,1,.39,1.92,20.86,20.86,0,0,1-1,4.11,22,22,0,0,1-3.87,7,4.5,4.5,0,0,1-1.18,1.08,1.28,1.28,0,0,1-2-.69,6.55,6.55,0,0,1-.18-3.67,18.38,18.38,0,0,1,2.8-7c.07-.1.17-.18.16-.32-1.5-.46-1.94-1.26-1.47-2.79A22.74,22.74,0,0,1,44.86,126c.21-.27.26-.42,0-.7a1.55,1.55,0,0,1-.22-1.62,9,9,0,0,1,1.43-2.84,20.56,20.56,0,0,1,8.39-7.24c1.34-.58,2.19,0,2.22,1.43,0,.24,0,.48,0,.78,1.47-1.44,2.55-3.16,3.91-4.71a22.07,22.07,0,0,1-2.27.56,6.43,6.43,0,0,1-1.91.06A1.74,1.74,0,0,1,55,109a7.55,7.55,0,0,1,2.24-2.4,16.27,16.27,0,0,1,3.75-2c.27-.11.51-.15.21-.54s-.17-1,.16-1.47A12,12,0,0,1,65,99.17,15.94,15.94,0,0,1,72,97c1.26-.1,2.24.09,2.63,1.87,2.12-1.49,4.2-3,6.36-4.43-1.09.35-2.19.68-3.31.92a15.42,15.42,0,0,1-2.25.31,3.18,3.18,0,0,1-1-.07.86.86,0,0,1-.66-1.22,4,4,0,0,1,1-1.39,16.81,16.81,0,0,1,6.42-4c.3-.11.49-.18.44-.58a1.53,1.53,0,0,1,.7-1.27,7.72,7.72,0,0,1,2-1.17A19.06,19.06,0,0,1,93,84.25a3.27,3.27,0,0,1,2,1,.91.91,0,0,1,.14.93,4.42,4.42,0,0,1-.66,1.21c2.24-.77,4.33-1.64,6.53-2.24,0-.22-.21-.17-.33-.19a14.6,14.6,0,0,1-2.75-.7,7.19,7.19,0,0,1-.75-.34c-.39-.21-.77-.45-.79-.94s.39-.79.79-1a11.17,11.17,0,0,1,4.56-1.21,15.88,15.88,0,0,1,5.49.41,5,5,0,0,1,3.3,2.11c.17.31.4.13.63.13,0-.22-.19-.28-.28-.39-.68-.77-.53-1.37.42-1.75a6.71,6.71,0,0,1,1.92-.4,15.63,15.63,0,0,1,6.93,1.1,9.56,9.56,0,0,1,2.8,2,1.29,1.29,0,0,0,.71.37,42.17,42.17,0,0,1,7.76,1.94.91.91,0,0,0,.35.09,7.89,7.89,0,0,1,4.53,1.22c3.19,1.81,6.59,3.29,9.55,5.45,6.14,4.49,11.86,9.45,16.36,15.66.11.15.24.3.38.47.09-.21-.06-.31-.13-.42a106.88,106.88,0,0,0-8.89-12.44,47.77,47.77,0,0,0-10.36-8.82c-1.69-1.13-3.47-2.12-5.23-3.14-.16-.09-.3-.25-.46,0a1.44,1.44,0,0,1-1.27.68A15.21,15.21,0,0,1,127,82.73a2.9,2.9,0,0,1-.61-.55.94.94,0,0,1,.44-1.63c.55-.2,1.14,0,1.81-.28-1.14-.35-2.18-.66-3.22-1-.07,0-.17,0-.25,0a16.76,16.76,0,0,1-11-1,.52.52,0,0,1-.18-.1c-.61-.69-1.42-.56-2.2-.55a103.5,103.5,0,0,0-19.48,1.84A78.17,78.17,0,0,0,75.51,85a1.12,1.12,0,0,0-.52.31.81.81,0,0,0,.5.1.89.89,0,0,1,.85,1.36,4,4,0,0,1-.82,1.18A18.54,18.54,0,0,1,70,91.64a18.4,18.4,0,0,1-5.36,1.84,5.22,5.22,0,0,1-3.09-.32,2.37,2.37,0,0,1,.08,2.68,16.61,16.61,0,0,1-6.82,7.21,5.4,5.4,0,0,1-2,.68c-1.34.21-1.89-.39-1.56-1.7,0-.08,0-.16.05-.25-.17-.06-.23.08-.31.15a71.66,71.66,0,0,0-5.7,6c-.23.27-.25.39.07.61a1.92,1.92,0,0,1,.71,1.84,6.38,6.38,0,0,1-.32,1.62,23.58,23.58,0,0,1-3.39,6.83,10,10,0,0,1-2.67,2.55c-1.37.85-2.26.65-3.15-.7-.22.35-.17.58.18.86a3.22,3.22,0,0,1,1,2,16.44,16.44,0,0,1,0,5.81,21.91,21.91,0,0,1-2.19,7,7.34,7.34,0,0,1-1.43,2,2.23,2.23,0,0,1-1.4.71c-.38,0-.26.29-.27.48a20.68,20.68,0,0,1-1.54,7.29c-.25.59-.55,1.16-.82,1.73-.08.16-.16.29-.05.48a8.32,8.32,0,0,1,.94,3.78,26.49,26.49,0,0,1-1.42,10.63,6.53,6.53,0,0,1-1,1.87c-.92,1.15-2,1-2.61-.28a10.92,10.92,0,0,1-.83-4.34,27.18,27.18,0,0,1,.68-7.13c.08-.37,0-.49-.38-.42a1.39,1.39,0,0,1-1.4-.69,4.14,4.14,0,0,1-.67-1.83c0-.2-.07-.4-.11-.6ZM175.83,76.53a1.84,1.84,0,0,0-.46,1.21c0,.74.08,1.48.1,2.22.05,1.68.05,3.37.1,5.06.08,3.55,0,7.1.12,10.64,0,.81.08,1.62.14,2.42a8.27,8.27,0,0,0,.14,1.79c.43,1.46.87,2.92,1.33,4.37,1,3.13,2.06,6.24,2.84,9.43,1.14,4.69,2.27,9.38,3.48,14.06a62.84,62.84,0,0,1,1.47,8,20.67,20.67,0,0,1,.42,4c.22-.09.25-.26.31-.38,1.23-2.55,2.31-5.16,3.5-7.72a7.23,7.23,0,0,0,.65-3.51c-.07-1.51-.11-3-.19-4.54s-.15-3-.21-4.52c-.09-2.26-.31-4.5-.53-6.75-.12-1.19-.17-2.38-.34-3.57a2.91,2.91,0,0,0-.26-1.37,2.76,2.76,0,0,0-.33,1.36c.1.51.15,1,.24,1.53s.26,1.28.33,2c.22,2.12.56,4.24.71,6.37a29.17,29.17,0,0,1,.16,4.38,1.63,1.63,0,0,1-.47,1.13l-.22-.43c-1.16,2-1.56,3.73-1.16,5.17.1-.26.16-.45.23-.64.27-.8.53-1.6.81-2.39.09-.24.09-.67.47-.53s.08.47,0,.72a2.25,2.25,0,0,1-.08.24c-.42,1.24-.84,2.48-1.28,3.71a2.79,2.79,0,0,0-.15,1.11,4.6,4.6,0,0,1-.12,2c-.06.16-.12.39-.29.4s-.18-.25-.25-.39,0-.28-.19-.34a5,5,0,0,1-1.25,2,18.45,18.45,0,0,1,1.05-3c.38-1,0-2,0-3-.67,1-.88,2.26-1.92,3.1a2.22,2.22,0,0,1,.3-1.16q.68-1.51,1.38-3c.36-.77,0-1.52,0-2.27-.57.9-.77,2-1.7,2.81a2.92,2.92,0,0,1,.06-.4,13,13,0,0,1,1.21-2.9c.58-1.07.24-2.13.2-3.2-.68,1.07-.94,2.39-2,3.32a2,2,0,0,1,.28-1.09c.4-.88.75-1.79,1.23-2.62.62-1.07.28-2.15.18-3.24a1.82,1.82,0,0,0-.26.44,20.11,20.11,0,0,1-1,2.1,4.44,4.44,0,0,0-.89,2,.42.42,0,0,1-.26.41c-.07-.24-.15-.45-.2-.67a26.78,26.78,0,0,1-.34-3.68c-.09-1.48-.32-3-.36-4.43,0-.68-.1-1.37-.13-2.06a.38.38,0,0,1,.33-.45c.28,0,.4.17.44.41s.05.49.07.74c.44-.75.71-1.55,1.13-2.26.7-1.2.19-2.35,0-3.54a18.9,18.9,0,0,0-1.2,2.69,1.83,1.83,0,0,1-1,1.14c.47-.81.11-1.61,0-2.41s-.23-1.86-.37-2.93c-.75,1.26-1.06,2.61-2.07,3.64a2.21,2.21,0,0,1,.27-1.16c.41-.89.77-1.81,1.26-2.66a3.88,3.88,0,0,0,.18-2.78,13.36,13.36,0,0,0-1.66,5c-.1-.68-.57-1.22-.44-2a10.74,10.74,0,0,0,0-2.25c-.31.33-.45.66-.93.83.52-1.25,1.2-2.38.72-3.74a3.72,3.72,0,0,1-1.1,1.49,3.22,3.22,0,0,1,.53-1.55,4.08,4.08,0,0,0,.46-3.17,4.37,4.37,0,0,1,0-1c0-.85,0-1.71-.09-2.56a6.5,6.5,0,0,0-.59.93,2,2,0,0,0-.33,1.41,1.68,1.68,0,0,1-.38,1.44c-.68-1-.46-2.14-.75-3.18-.2.07-.23.31-.53.29a5.07,5.07,0,0,0,.27-3.3c-.26.13-.3.47-.61.56a5.3,5.3,0,0,1,.42-1.4,1.59,1.59,0,0,0,.14-.75c-.06-.84-.1-1.68-.14-2.53,0-.37-.25-.8-.2-1.06a8.88,8.88,0,0,0,0-2.47c-.1-1.35-.21-2.7-.34-4C175.93,78.55,175.87,77.54,175.83,76.53ZM31.68,139.79c0-.26.22-.75-.09-1.09a5.07,5.07,0,0,1-1.1-2.94c-.11-.84-.46-1-1.22-.65a1.83,1.83,0,0,0-.73.65c-.23.34-.44.7-.66,1A24.34,24.34,0,0,0,24,149a5.14,5.14,0,0,0,.51,2.91.91.91,0,0,0,1.47.34,10.39,10.39,0,0,0,3.32-3.68A19.26,19.26,0,0,0,31.68,139.79Zm83.8-54.22c-1-.39-1.91-.8-2.77-1.22a.44.44,0,0,0-.2,0,10.93,10.93,0,0,0-2.91.34,10.48,10.48,0,0,1-2.58.53,24.32,24.32,0,0,0-5.35.77A69.05,69.05,0,0,0,84,93.71l-1.39.85a1.69,1.69,0,0,1,1.21,1.17l.3-.2a14.54,14.54,0,0,1,5.46-2.62,4.85,4.85,0,0,1,1.77-.27c1.47.18,2.3.5,2.61,1.63a3.49,3.49,0,0,1,1.48-.41c1.25,0,2.21-.77,3.37-1.08a1.72,1.72,0,0,1-.21-2.68,5.63,5.63,0,0,1,.94-.95,16.28,16.28,0,0,1,8.68-3.79,3.31,3.31,0,0,1,3.18,1.21c.08.11.15.17.29.11A17.85,17.85,0,0,1,115.48,85.57ZM97,56c-.44,0-.87,0-1.29.06a5.34,5.34,0,0,0-1.89.49.91.91,0,0,0-.49,1.37A2.76,2.76,0,0,0,94.37,59a16.87,16.87,0,0,0,4,1.92A32.36,32.36,0,0,0,106,62.6a5.21,5.21,0,0,0,2.35-.25.77.77,0,0,0,.42-1.21,1.81,1.81,0,0,0-.37-.49,14,14,0,0,0-1.78-1.47A18.43,18.43,0,0,0,97,56ZM36.12,122c-.06.11-.12.2-.16.29a24,24,0,0,1-2.77,4.47,10.88,10.88,0,0,0-1.87,4.43,15.78,15.78,0,0,0-.2,4.12,5.46,5.46,0,0,0,.58,2.38c.48.85.9.9,1.71.31a3.18,3.18,0,0,0,.55-.55,8.2,8.2,0,0,0,1.26-2.06,22.79,22.79,0,0,0,2-8,11.11,11.11,0,0,0-.3-4.1A2,2,0,0,0,36.12,122Zm158.84.82a1,1,0,0,0-.19.25c-.92,2.21-1.83,4.41-2.73,6.62-1.39,3.41-2.82,6.81-4.41,10.13-.81,1.68-1.56,3.38-2.23,5.13-.81,2.12-1.15,4.37-1.76,6.54a35.66,35.66,0,0,0-1.13,11.21,44.62,44.62,0,0,0,2.34,11.88,1,1,0,0,0,.3.57,42.17,42.17,0,0,1-1.31-10.31c-.22,0-.28.27-.49.21a1.17,1.17,0,0,1,.15-.84,3.7,3.7,0,0,0,.39-1.85c0-.43,0-.86.06-1.29a1,1,0,0,0,0-.29c-.54-.09-.21-.45-.14-.61a15.1,15.1,0,0,0,.59-3.28c-.32.2-.42.55-.87.65.65-1.47,1.46-2.79,1.35-4.41a13,13,0,0,1-1.62,2.3,1.83,1.83,0,0,1,.34-1.17c.43-.75.85-1.5,1.33-2.22a10.1,10.1,0,0,0,.86-2.9,3.39,3.39,0,0,0-.44.39.55.55,0,0,1-.53.22,20,20,0,0,0,3-6.79,5.07,5.07,0,0,1-1.06,1,4.55,4.55,0,0,1,.8-1.44,10.67,10.67,0,0,0,1.6-3.11l1-3.06c.26-.76.66-1.48.94-2.24a13,13,0,0,0,.49-1.36,2.35,2.35,0,0,0,.22-1.21c-.09-.46.47-.91.66-1.41A75.76,75.76,0,0,0,195,122.81Zm-98.71-46a15,15,0,0,0,3.6-.25,3.11,3.11,0,0,0,1.44-.66c.44-.38.55-.86.24-1.22a4,4,0,0,0-1.12-1,18.49,18.49,0,0,0-7.13-2.14,10.93,10.93,0,0,0-4.75.38,3.68,3.68,0,0,0-1.38.8,1,1,0,0,0,.13,1.73,6.48,6.48,0,0,0,.67.39A18,18,0,0,0,96.25,76.76ZM83.71,74.12h0c-.36,0-.73,0-1.09,0A14.43,14.43,0,0,0,77,75.41c-1,.52-1.11,1-.32,1.88a3,3,0,0,0,.43.37,6.38,6.38,0,0,0,2.18,1,17.91,17.91,0,0,0,6.44.59,25.08,25.08,0,0,0,4.67-1.07,3.62,3.62,0,0,0,1.37-.79c.32-.32.28-.45-.14-.58s-.67-.18-1-.29a10.68,10.68,0,0,1-3.83-1.74,3,3,0,0,0-2.05-.71C84.4,74.11,84.05,74.12,83.71,74.12ZM37.82,107.55a5.44,5.44,0,0,0,.57,0,19.22,19.22,0,0,0,10-4.75A5.61,5.61,0,0,0,49.79,101c.28-.55.15-1-.41-1.17a4.55,4.55,0,0,0-2.27-.33,16.12,16.12,0,0,0-9.67,5.21,6.42,6.42,0,0,0-1,1.54c-.28.57-.11.95.5,1.15A3.18,3.18,0,0,0,37.82,107.55ZM96.23,60.93c-.15-.21-.35-.24-.51-.33a7,7,0,0,1-3.06-2.38c-.08-.14-.22-.14-.35-.17a25.5,25.5,0,0,0-7.53-.78,7.24,7.24,0,0,0-2.85.66,1,1,0,0,0-.55,1.46,2.6,2.6,0,0,0,1,1.17,10.08,10.08,0,0,0,3.73,1.27c.89.14,1.79,0,2.66.12a17.93,17.93,0,0,0,3.51.08A8.56,8.56,0,0,0,96.23,60.93ZM52.17,77.86c.5-.06,1-.09,1.49-.18a19,19,0,0,0,9.44-4.81,5.68,5.68,0,0,0,1.22-1.53.76.76,0,0,0-.38-1.22A1.49,1.49,0,0,0,63,70c-.46.08-.92.13-1.37.23a20.32,20.32,0,0,0-9.72,5.07,4.77,4.77,0,0,0-1.26,1.63.54.54,0,0,0,.41.82A4.66,4.66,0,0,0,52.17,77.86Zm-16.43,42.7c0-1.37-.35-1.71-1.3-1.57a3.31,3.31,0,0,0-1.34.63,19.67,19.67,0,0,0-7.24,9,4.27,4.27,0,0,0-.39,1.7.7.7,0,0,0,.89.78,3.46,3.46,0,0,0,1.13-.35,11.22,11.22,0,0,0,3.17-2.29,29.84,29.84,0,0,0,3.86-4.94A6.35,6.35,0,0,0,35.74,120.56ZM56,115.24a2.26,2.26,0,0,0,0-.26c-.06-.81-.58-1.13-1.31-.8A16.27,16.27,0,0,0,50,117.36a19.92,19.92,0,0,0-4.32,5.55,4.46,4.46,0,0,0-.44,1.27c-.09.53.09.75.6.93a2.07,2.07,0,0,0,1.76-.35,17.75,17.75,0,0,0,4.76-3.5,16.08,16.08,0,0,0,3.14-4.19A4.17,4.17,0,0,0,56,115.24Zm-3.79,8c-.05-.22.06-.56-.18-.68s-.36.21-.52.34A19,19,0,0,1,48,125.27a4.51,4.51,0,0,1-1.75.57.9.9,0,0,0-.73.39,24.78,24.78,0,0,0-3.44,6,5.15,5.15,0,0,0-.43,1.58,1.08,1.08,0,0,0,.89,1.16,1.75,1.75,0,0,0,1.32-.27,14.45,14.45,0,0,0,4.1-3.57,21.27,21.27,0,0,0,4-6.66A4.19,4.19,0,0,0,52.17,123.27Zm-21.89,32c0-.49,0-1,0-1.45a13.08,13.08,0,0,0-.6-3.82c0-.12-.05-.3-.2-.32s-.2.17-.27.27a11.62,11.62,0,0,1-2.2,2.39.92.92,0,0,0-.32.52,27.23,27.23,0,0,0-.73,9.43,6.41,6.41,0,0,0,.71,2.57c.37.65.76.68,1.24.11a6.21,6.21,0,0,0,1-2A25.85,25.85,0,0,0,30.28,155.29ZM82.87,61.52a7,7,0,0,1-1.75-1.3,1.14,1.14,0,0,0-.69-.4,19.64,19.64,0,0,0-7.6.09,10.72,10.72,0,0,0-3.93,1.48c-.81.53-.78,1.13,0,1.72a5.21,5.21,0,0,0,2.2,1,17.81,17.81,0,0,0,6.51-.1,1.58,1.58,0,0,0,.51-.24A20.82,20.82,0,0,1,81.74,62ZM61.52,90.1a20.6,20.6,0,0,1-4.27,1.55,5,5,0,0,1-1.73.26c-.13,0-.31,0-.33-.19s.17-.19.3-.22c.54-.11,1.09-.17,1.62-.32a15.26,15.26,0,0,0,4.4-1.72c.22-.14.43-.62.8-.15,0,0,.14-.06.19-.13A3.94,3.94,0,0,0,63.2,88c.1-.28,0-.48-.22-.59a5,5,0,0,0-2-.61,16.91,16.91,0,0,0-8.56,2.52,6.53,6.53,0,0,0-1.71,1.56,1.08,1.08,0,0,0,.24,1.62,2.69,2.69,0,0,0,1.38.5,12.27,12.27,0,0,0,7.66-1.73A8.08,8.08,0,0,0,61.52,90.1Zm1.89,23c0-.14,0-.28,0-.42,0-.5-.09-1-.62-1.2a1.22,1.22,0,0,0-1.33.46c-.43.49-.87,1-1.34,1.42A14.87,14.87,0,0,0,56.28,120a7.69,7.69,0,0,0-.38,3.2c.11.88.42,1.06,1.2.68a5.57,5.57,0,0,0,1.61-1.19,18,18,0,0,0,3.86-5.94A10.72,10.72,0,0,0,63.41,113.08Zm-21.77-5.49a.82.82,0,0,0-.65.1,19.22,19.22,0,0,0-3.64,1.93A20.72,20.72,0,0,0,31.64,115a5.2,5.2,0,0,0-.84,1.76c-.15.58.11.86.7.81a4.16,4.16,0,0,0,1.24-.34,23,23,0,0,0,5-3,3.36,3.36,0,0,0,.85-1,12.39,12.39,0,0,1,3.75-4.07,1.3,1.3,0,0,0,.52-1,.51.51,0,0,0-.41-.61C42.2,107.47,41.92,107.62,41.64,107.59ZM95,137.28c0,.42,0,.84.34,1s.76,0,1.07-.27.43-.34.63-.53a21.53,21.53,0,0,0,4.42-6.31,1.92,1.92,0,0,0,.28-1.66,1.25,1.25,0,0,1,0-.61,10.66,10.66,0,0,1,1.24-3.86c.1-.21.21-.41,0-.61a.51.51,0,0,0-.61-.13,5.23,5.23,0,0,0-2.5,1.74,27.87,27.87,0,0,0-4.69,10.14C95.09,136.59,95.05,137,95,137.28Zm-54.83,7.29a5.31,5.31,0,0,0,.25,1.74c.24.7.61.81,1.22.39a4.6,4.6,0,0,0,1-1,22.16,22.16,0,0,0,4.5-10.08,3.29,3.29,0,0,0,0-1.59c-.15-.5-.43-.58-.81-.25a9.76,9.76,0,0,1-2.4,1.6.88.88,0,0,0-.36.28A17.19,17.19,0,0,0,40.17,144.57ZM192.1,158.41a26.89,26.89,0,0,0-.58,2.92c-.22,1.47-.36,2.94-.55,4.41s-.29,3.17-.37,4.75a25.15,25.15,0,0,0,.65,6c.76,3.94,1.86,7.8,2.89,11.68a77.44,77.44,0,0,0,4.08,12.27c.08.17.1.37.27.49a2,2,0,0,0,.11-2.12,37.7,37.7,0,0,1-1.8-4.31,67.75,67.75,0,0,1-3.15-11.63c-.35-2.34-.72-4.67-1-7-.16-1.39-.31-2.78-.41-4.18-.13-1.93-.24-3.87-.31-5.8a60.47,60.47,0,0,1,.22-6.86A1.42,1.42,0,0,0,192.1,158.41ZM111,119.64c0-.74-.25-1-1-.85a4.6,4.6,0,0,0-2.28,1.2,20.74,20.74,0,0,0-4.61,6.23,10.59,10.59,0,0,0-.78,2.45,1.23,1.23,0,0,0,.37,1.32c.4.34.83.14,1.22,0a7.67,7.67,0,0,0,2.57-1.87,18.66,18.66,0,0,0,4.34-7.6A3.18,3.18,0,0,0,111,119.64ZM63.94,104a6.23,6.23,0,0,0,1.49-.1,10.73,10.73,0,0,0,5.62-2.23c.62-.55,1.28-1,1.92-1.57a2.24,2.24,0,0,0,.63-.67,1.06,1.06,0,0,0-.22-1.36A2,2,0,0,0,72,97.61a16.4,16.4,0,0,0-5.45,1.47,11.51,11.51,0,0,0-4.59,3.82c-.38.54-.26.84.38,1A6.5,6.5,0,0,0,63.94,104ZM96,131.43a3.19,3.19,0,0,0-1,.72,21,21,0,0,0-5.9,10.8,5.33,5.33,0,0,0-.13,2.51c.19.74.51.9,1.21.6a5.54,5.54,0,0,0,2-1.58,19.23,19.23,0,0,0,3-5.07c0-.1.14-.2,0-.35a2.08,2.08,0,0,0-.46.65,19.17,19.17,0,0,1-1.9,2.57c-.14.15-.39.34-.53.2s0-.37.17-.51a23,23,0,0,0,1.84-2.56c.43-.65.42-.65,0-1.36-.9,1.07-1.44,2.49-2.86,3.07a1.45,1.45,0,0,1,.42-.71,20.1,20.1,0,0,0,2.24-3,1.82,1.82,0,0,0,.28-.71,13.34,13.34,0,0,1,.39-1.66A33.88,33.88,0,0,1,96,131.43Zm7.4-60.82c-.45,0-.89.06-1.31.13s-.77.06-.9.49a1.15,1.15,0,0,0,.39,1.07,3.15,3.15,0,0,0,.37.36,9.1,9.1,0,0,0,2.12,1.27,22.26,22.26,0,0,0,8.12,1.81,3.6,3.6,0,0,0,1.62-.24c.42-.18.54-.47.24-.81a5.84,5.84,0,0,0-1.38-1.34A23,23,0,0,0,103.42,70.61ZM106,53.52c-.14,0-.27,0-.41,0-.77.07-1,.46-.56,1.1a6.67,6.67,0,0,0,.71.88,24.71,24.71,0,0,0,8.79,5.65,4.91,4.91,0,0,0,1.56.35c.66,0,1-.32.79-.94a3.69,3.69,0,0,0-1-1.83,25,25,0,0,0-7.4-4.63A6.14,6.14,0,0,0,106,53.52ZM130,68.76c-.13-.35-.2-.55-.29-.76a16.29,16.29,0,0,0-2.82-4.42,20.71,20.71,0,0,0-5.82-5c-.45-.24-1-.59-1.45-.23s-.33.94-.26,1.45a10.54,10.54,0,0,0,1.67,3.91,2.1,2.1,0,0,0,1.06.93c.67.27,1.31.6,2,.93C126,66.51,128,67.56,130,68.76ZM57.18,111.1a13.24,13.24,0,0,0,5.25-1.58,2.22,2.22,0,0,0,.45-.36c1-1,2.06-2,3.11-3a.59.59,0,0,0,.06-.94,1,1,0,0,0-.73-.45,10.22,10.22,0,0,0-3,0,12.94,12.94,0,0,0-6.08,3.65,3.8,3.8,0,0,0-.73,1.12.93.93,0,0,0,.63,1.38A3.55,3.55,0,0,0,57.18,111.1Zm15-27.71a20,20,0,0,0,8.55-1.52,4.4,4.4,0,0,0,1.47-.94c.12-.13.3-.27.21-.48a.58.58,0,0,0-.5-.4l-.76-.1A14.78,14.78,0,0,0,77,79.38c-.51.06-1,.06-1.54.11a19.81,19.81,0,0,0-7.27,2,3.84,3.84,0,0,0-.69.44c-.28.23-.25.47.05.67a3.4,3.4,0,0,0,1.11.42A18.08,18.08,0,0,0,72.22,83.39Zm-35.1,36c0,.89.22,1.37.67,1.62a1.33,1.33,0,0,0,1.44-.23,8.73,8.73,0,0,0,2.4-2.25A22.38,22.38,0,0,0,45,111.6a3.83,3.83,0,0,0,.23-1.68.92.92,0,0,0-.56-.81c-.38-.13-.55.19-.74.42a108.46,108.46,0,0,0-6.49,8.88A2,2,0,0,0,37.12,119.37Zm78.53-54.93a8.32,8.32,0,0,0-2.81.22c-.62.2-.71.53-.3,1a3.82,3.82,0,0,0,1,.87,16.35,16.35,0,0,0,9.29,2.6,3.49,3.49,0,0,0,1.31-.27c.35-.15.46-.3.09-.59A18.79,18.79,0,0,1,122,66.15a1.26,1.26,0,0,0-.46-.33A12.78,12.78,0,0,0,115.65,64.44ZM86.94,89.55a12.48,12.48,0,0,0,6-1.87,4,4,0,0,0,1.34-1.34.64.64,0,0,0-.22-1,3.81,3.81,0,0,0-2.51-.52,19,19,0,0,0-7.73,2,4.22,4.22,0,0,0-1.38,1c-.31.38-.28.65.11,1a2.49,2.49,0,0,0,1.11.5A10.4,10.4,0,0,0,86.94,89.55Zm39.64-52.23c0-.14,0-.24,0-.34s0-.24-.06-.36a24,24,0,0,0-3.92-8.47,13.62,13.62,0,0,0-1.14-1.27,3.8,3.8,0,0,0-1.11-.83.85.85,0,0,0-1.14.25,1.24,1.24,0,0,0-.12,1.32,33.57,33.57,0,0,0,4.18,8,9.71,9.71,0,0,0,2.12,2.31c.27.2.59.51.92.36S126.55,37.64,126.58,37.32ZM61.22,94.43a.78.78,0,0,0-.65-.82,1.57,1.57,0,0,0-1.28.24,17.61,17.61,0,0,0-5.06,4.27,12.26,12.26,0,0,0-2.33,4.17c-.2.64,0,.83.65.75a4.75,4.75,0,0,0,1.81-.58,15.74,15.74,0,0,0,6.59-7A2.32,2.32,0,0,0,61.22,94.43Zm41.05,25.65c.11,0,.37,0,.62-.1a19.11,19.11,0,0,0,7.65-3.79,5.34,5.34,0,0,0,1.29-1.47,2.47,2.47,0,0,0,.32-.7c.17-.63-.12-1-.78-1a10.59,10.59,0,0,0-1.59.17,13,13,0,0,0-5.84,2.91,9,9,0,0,0-2.49,2.93C101.05,119.81,101.25,120.11,102.27,120.08Zm-2.4-27.77.38-.12a67,67,0,0,1,7.93-2.63.44.44,0,0,0,.35-.26,4,4,0,0,1,1.85-2c.44-.27.44-.42,0-.71a3.78,3.78,0,0,0-2.71-.58,16.28,16.28,0,0,0-7.94,3.84,4,4,0,0,0-.72.81c-.19.32-.38.65-.19,1S99.44,92.21,99.87,92.31Zm-39.34-24a26.21,26.21,0,0,0,10.06-2.82,3.61,3.61,0,0,0,.51-.36c.08-.07.22-.14.17-.28s-.17-.09-.27-.12a7.17,7.17,0,0,1-2.19-.87.78.78,0,0,0-.49-.12,18.59,18.59,0,0,0-9,2.74,3.37,3.37,0,0,0-1,.89c-.28.38-.22.57.24.71A7.49,7.49,0,0,0,60.53,68.27Zm87,42.77a18.58,18.58,0,0,0,2.87-.22,9.62,9.62,0,0,0,3.19-1c.65-.35.68-.69.12-1.18a4.41,4.41,0,0,0-1.76-.94,14.17,14.17,0,0,0-3.11-.4,16.06,16.06,0,0,0-4.57.63,4.57,4.57,0,0,0-1.8.87c-.68.55-.61,1.09.19,1.44a7,7,0,0,0,.88.29A16.37,16.37,0,0,0,147.51,111ZM82,95.32a2.34,2.34,0,0,0-1.38.48c-1,.69-2.09,1.34-3.07,2.1a14.85,14.85,0,0,0-4.06,5.65s0,.06,0,.1c-.11.5,0,.63.51.6a5.37,5.37,0,0,0,2.24-.72,16.25,16.25,0,0,0,5.58-4.91,10.52,10.52,0,0,0,1.09-2C83.27,95.82,82.91,95.31,82,95.32Zm39.59-60.86a1,1,0,0,0-.22-.54,38.07,38.07,0,0,1-2-3.78,11.31,11.31,0,0,1-1.17-3.89.64.64,0,0,0-.15-.37,9.45,9.45,0,0,0-3.16-2.7c-.41-.18-.87-.58-1.28-.23s-.31.91-.24,1.42a4.15,4.15,0,0,0,.52,1.44,26.91,26.91,0,0,0,5.74,7.45A5.18,5.18,0,0,0,121.62,34.46Zm-.75,3.81a6.69,6.69,0,0,0,1.29,3.36,26.12,26.12,0,0,0,5.15,5,6.41,6.41,0,0,0,1.52.88c.23.09.52.27.72,0s-.07-.44-.19-.65c-.81-1.41-1.71-2.79-2.43-4.25a11.28,11.28,0,0,0-4.58-4.48,2.66,2.66,0,0,0-.9-.38C121.08,37.75,120.83,37.86,120.87,38.27Zm-19,28.91a15.67,15.67,0,0,0,5.48-1,3,3,0,0,0,1.18-.82.47.47,0,0,0,0-.69,2.09,2.09,0,0,0-1.62-.89,28.9,28.9,0,0,0-3.72.12,15.77,15.77,0,0,0-5,1.16c-.4.19-1,.36-1,.89s.62.59,1,.73A12.12,12.12,0,0,0,101.85,67.18Zm19.36,11.94c.73,0,1.45-.07,2.17-.14a3.6,3.6,0,0,0,1.72-.49c.34-.22.38-.51.07-.74-1.2-.88-2.33-1.9-3.93-2-.56,0-1.12-.19-1.68-.24a9.12,9.12,0,0,0-4.89.73c-.37.18-.91.32-.92.8s.56.6.93.76A16.13,16.13,0,0,0,121.21,79.12ZM83.76,103.48c0-.89-.57-1.24-1.38-.82l-.18.1A18.14,18.14,0,0,0,77.4,107a10.5,10.5,0,0,0-2.05,3.66c-.18.69.2,1.09.89.9a3.58,3.58,0,0,0,.77-.29,17,17,0,0,0,6.42-6.55A2.34,2.34,0,0,0,83.76,103.48ZM62.25,92.61a3.6,3.6,0,0,0,1.81.19,15.79,15.79,0,0,0,5.2-1.64,18.49,18.49,0,0,0,5.61-3.72,3.17,3.17,0,0,0,.66-.92c0-.13.12-.26-.08-.34A2.51,2.51,0,0,0,73.23,86c-3.46,1.69-6.64,3.85-9.91,5.86C63,92.1,62.66,92.33,62.25,92.61Zm23.48-2.3-.87-.07a5.52,5.52,0,0,1-2.61-.71.68.68,0,0,0-.71-.07,17.34,17.34,0,0,0-5.29,3,8.57,8.57,0,0,0-1.65,1.7c-.14.2-.35.41-.24.65s.45.21.7.21a11.84,11.84,0,0,0,2.65-.37A15.89,15.89,0,0,0,85,91.15,3.18,3.18,0,0,0,85.73,90.31Zm2.51,43.11a3.25,3.25,0,0,0,1.19-.29,15.77,15.77,0,0,0,6.67-5.22,4.09,4.09,0,0,0,.4-.67c.27-.59.06-.94-.59-1a2.72,2.72,0,0,0-1.16.18,13.25,13.25,0,0,0-6.46,5.26,3.55,3.55,0,0,0-.51,1.12C87.66,133.33,87.74,133.43,88.24,133.42Zm52.21-73.89c0-.09,0-.33-.07-.57a21.37,21.37,0,0,0-3.62-8.27,4.13,4.13,0,0,0-.68-.77.9.9,0,0,0-1-.26.79.79,0,0,0-.44.86,9.83,9.83,0,0,0,.41,2.8,20.41,20.41,0,0,0,2.61,5.14,5.13,5.13,0,0,0,2,1.71C140.34,60.54,140.46,60.46,140.45,59.53Zm-55.34,39a6.66,6.66,0,0,0,4.57-1.63,18.71,18.71,0,0,1,2.78-1.86,2.16,2.16,0,0,0,.43-.29.52.52,0,0,0-.14-.92,3.92,3.92,0,0,0-2.55-.41,14.17,14.17,0,0,0-5.72,2.63,4,4,0,0,0-1.22,1.63c-.14.34,0,.52.28.65A4,4,0,0,0,85.11,98.57Zm48.18,7.37a16.32,16.32,0,0,0,2.52-.17,2.81,2.81,0,0,0,1.58-.7.47.47,0,0,0,0-.78,3.59,3.59,0,0,0-1.68-.85,18.68,18.68,0,0,0-7.37-.46,8.51,8.51,0,0,0-2.89.89c-.38.21-.35.36,0,.56a7.42,7.42,0,0,0,1.56.67A22.45,22.45,0,0,0,133.29,105.94ZM149,70.51a30.78,30.78,0,0,0-1-6.66,4.13,4.13,0,0,0-.61-1.31c-.43-.6-.75-.58-1.06.09a6.57,6.57,0,0,0-.45,1.63,12.78,12.78,0,0,0,.5,5.39,6.26,6.26,0,0,0,1.93,3.61c.31.24.38.2.45-.12A14,14,0,0,0,149,70.51ZM131.56,142c-.28.11-.52.18-.75.29a16.93,16.93,0,0,0-3.82,2.51,2,2,0,0,1-.9.56.86.86,0,0,1,.41-.73,16.78,16.78,0,0,1,3.91-2.66c.31-.15.64-.24,1-.36.13-.05.36.19.39-.14a.52.52,0,0,0-.29-.6,1.4,1.4,0,0,0-.5-.11,2.92,2.92,0,0,0-1.47.4,16.43,16.43,0,0,0-3.62,2.63,12.82,12.82,0,0,0-2.6,3.39,4,4,0,0,0-.42,1.27c0,.31.06.6.42.54a4.52,4.52,0,0,0,3-1.3,56.64,56.64,0,0,1,4.84-5.08A1.29,1.29,0,0,0,131.56,142ZM56.12,93.53l-.55.08a9.53,9.53,0,0,1-4-.07,2.8,2.8,0,0,0-1.94.12l-.39.13a13.34,13.34,0,0,0-4.67,2.56c-.23.22-.6.44-.48.79s.56.34.89.38a12.06,12.06,0,0,0,3.39-.22A16.14,16.14,0,0,0,54,95.44,7,7,0,0,0,56.12,93.53ZM76.2,107.24c-.17,0-.25.08-.34.15a58.33,58.33,0,0,0-7,6.74,2.33,2.33,0,0,0-.57,1.56c0,1,.47,1.32,1.38.92a12.58,12.58,0,0,0,5-4.5.35.35,0,0,0,0-.38,1.93,1.93,0,0,1,0-1.32A9.57,9.57,0,0,1,76,107.77C76.08,107.62,76.26,107.49,76.2,107.24Zm3.66-40.56A16.25,16.25,0,0,0,87,64.87a4.71,4.71,0,0,0,1.55-1.1c.23-.27.59-.6.42-.92s-.6-.1-.92-.08l-.16,0-3.9.77a60.94,60.94,0,0,0-6.25,1.61c-.27.09-.47.2-.49.52a.59.59,0,0,0,.38.61,2,2,0,0,0,.48.18A7.22,7.22,0,0,0,79.86,66.68Zm34,43.54a18.93,18.93,0,0,0,3.14-.41,21.67,21.67,0,0,0,6.74-2.37c.34-.2.9-.43.8-.82s-.69-.48-1.14-.55a8.05,8.05,0,0,0-3.31.18,21.28,21.28,0,0,0-5.82,2.22,6.21,6.21,0,0,0-1.44,1.17c-.23.26-.18.43.17.48S113.63,110.19,113.84,110.22Zm-27-7.82a3.33,3.33,0,0,0,.38-.05,4.79,4.79,0,0,0,.74-.21,19.46,19.46,0,0,0,7.8-5.77,2.65,2.65,0,0,0,.49-1c0-.18.1-.41,0-.55s-.35,0-.51.09c-1.92.85-3.78,1.82-5.62,2.83a9.88,9.88,0,0,0-3,2.66,4.25,4.25,0,0,0-.74,1.29C86.12,102.27,86.24,102.42,86.85,102.4ZM121,159a1,1,0,0,1,.23-.85c.48-.79.87-1.61,1.28-2.42.13-.25,0-.78.58-.66,0,0,.06-.11.06-.17a17.36,17.36,0,0,1,.56-2.63c-.34,0-.49.25-.66.43a17.73,17.73,0,0,0-4.46,8.15,7.13,7.13,0,0,0-.25,2.3c0,.6.17.66.71.36a5.57,5.57,0,0,0,1.06-.82,17.75,17.75,0,0,0,3-4.09,1,1,0,0,0,0-.81c-.78,1.07-1.08,2.39-2.16,3.24a.7.7,0,0,1,.15-.79c.64-1,1.17-2.06,1.73-3.11a2.64,2.64,0,0,0,.27-1.46C122.4,156.82,122.11,158.13,121,159Zm23.41-51.84a3.06,3.06,0,0,0-1.89-.67,15.37,15.37,0,0,0-7.59,1.65,7.34,7.34,0,0,0-1.79,1.11c-.13.11-.31.22-.28.41s.26.19.41.24a4.64,4.64,0,0,0,.51.11,18.86,18.86,0,0,0,7.21-.55.47.47,0,0,0,.36-.33,2.22,2.22,0,0,1,.94-1.07A7.83,7.83,0,0,1,144.44,107.17ZM107.33,83.88c-1.44,0-2.88-.11-4.31-.26a13.18,13.18,0,0,1-2.5-.41c-.16,0-.34-.16-.3-.36s.24-.14.38-.11a30.17,30.17,0,0,0,7.09.6c.3,0,.71-.18.84.34,0,.1.18.06.28,0l.61-.08c.13,0,.32,0,.36-.13s-.09-.26-.19-.35a5,5,0,0,0-2.33-1.26,16.88,16.88,0,0,0-4.85-.53,11.43,11.43,0,0,0-4.7,1.09c-.23.12-.6.21-.58.51s.38.36.62.48a9.58,9.58,0,0,0,2.17.67,12.08,12.08,0,0,0,3.58.4C104.78,84.36,106.05,84.12,107.33,83.88ZM86.55,144.11c0-.67-.31-.89-1-.64a1.6,1.6,0,0,0-.6.39,16.17,16.17,0,0,0-3.79,5.79,10.12,10.12,0,0,0-.78,3.15c0,.54.11.63.59.37a5.4,5.4,0,0,0,1.7-1.49,22.61,22.61,0,0,0,3.58-6.3A3.68,3.68,0,0,0,86.55,144.11Zm48.56-59.72a6.74,6.74,0,0,0,1.19-.08c.65-.15.77-.49.33-1a3.37,3.37,0,0,0-1.06-.81,16.18,16.18,0,0,0-7.14-1.61,3.9,3.9,0,0,0-1.21.21c-.43.13-.48.45-.16.77a5,5,0,0,0,.88.63A16,16,0,0,0,135.11,84.39ZM133.9,50.17c.42-1.07.89-1.45,1.67-1.28.45.1.46-.08.46-.42a22.51,22.51,0,0,0-.52-4.41,12.52,12.52,0,0,0-.62-2.23.87.87,0,0,0-.81-.54c-.37,0-.52.21-.66.48a8.64,8.64,0,0,0-.5,1.4C132.08,45.63,133,47.83,133.9,50.17ZM81.47,142.45c0,.51.18.68.64.62a3.65,3.65,0,0,0,1.54-.69,13.36,13.36,0,0,0,4.06-4.68,3.39,3.39,0,0,0,.29-.77c.17-.67-.15-1-.82-.84a4.65,4.65,0,0,0-1.77.83,12.6,12.6,0,0,0-3.67,4.6A2.87,2.87,0,0,0,81.47,142.45Zm46,10.21c-.29.45-.53.85-.8,1.22s-.45.85-1.13,1c.67-1.58,2.09-2.68,2.16-4.51-.15.21-.25.34-.34.48l-1.61,2.47a3.83,3.83,0,0,1-.36.44.23.23,0,0,1-.28.07c-.11-.06-.08-.19,0-.28a4,4,0,0,1,.28-.54c.62-1,1.24-1.91,1.85-2.87a9.35,9.35,0,0,0,1-2c.13-.35-.06-.33-.24-.31a2,2,0,0,0-1.33.71,11.13,11.13,0,0,0-2.22,3.81,13.49,13.49,0,0,0-.47,6.21c0,.25.08.61.46.28a9.5,9.5,0,0,0,1.91-2.82c-.29.18-.5.47-1,.49.14-.24.22-.43.33-.59a13.87,13.87,0,0,0,1.17-1.7c.15-.27.21-.66.43-.81C127.69,153.26,127.57,153,127.46,152.66ZM194.26,178h0c0,.36,0,.74.1,1.1.3,1.77.6,3.55.92,5.31a70.9,70.9,0,0,0,2.45,9.64c.68,2,1.43,4,2.1,6a7,7,0,0,0,.89,1.79c.17.24.33.35.63.17s.17-.35.1-.55c-.33-.86-.68-1.7-1-2.56-1.94-5.41-3.56-10.93-5.07-16.48C195,181,194.63,179.47,194.26,178ZM132.43,48.49a2,2,0,0,0,0-.27,9.58,9.58,0,0,1-.18-5.2.77.77,0,0,0-.05-.45,20.87,20.87,0,0,0-2.22-4.88,3.69,3.69,0,0,0-.62-.75c-.25-.21-.41-.2-.52.14a3,3,0,0,0-.13,1.22,22.46,22.46,0,0,0,2.75,8.81A5.54,5.54,0,0,0,132.43,48.49Zm10.27,85.19a8.05,8.05,0,0,1-2.09-.24,1.58,1.58,0,0,0-.86,0,13.36,13.36,0,0,0-5.72,2.49,9.1,9.1,0,0,0-1.54,1.37c-.24.27-.21.46.19.48a6.41,6.41,0,0,0,1.24-.05,22.08,22.08,0,0,0,8.09-3.36A2.19,2.19,0,0,0,142.7,133.68Zm2.67-65a1.1,1.1,0,0,0,0-.55,9.72,9.72,0,0,1,.12-4.85,3.34,3.34,0,0,0,.05-2.05c-.08-.28-.13-.57-.21-.85a10.74,10.74,0,0,0-1.08-2.84c-.18-.28-.39-.66-.77-.57s-.3.51-.34.8A17.25,17.25,0,0,0,144.9,68,1.4,1.4,0,0,0,145.37,68.64Zm6.42,63.81a10.32,10.32,0,0,0-6.81,3.14,2.5,2.5,0,0,0-.45.75c-.13.38,0,.56.39.58a4.26,4.26,0,0,0,1.18-.07,18.5,18.5,0,0,0,6.62-2.89,4.94,4.94,0,0,0,.77-.68c.24-.24.19-.44-.15-.57A3.72,3.72,0,0,0,151.79,132.45Zm-17.9-40.94a14.39,14.39,0,0,1-2.08-1.93.9.9,0,0,0-.42-.18,21.59,21.59,0,0,0-6.73-.88c-.49,0-1.1,0-1.28.56s.38.82.74,1.13c.1.09.21.31.42.15s.43-.07.65,0a30.46,30.46,0,0,0,3.9.74,15.56,15.56,0,0,0,2.37.18c.17,0,.38,0,.39.22s-.2.26-.37.28a2.75,2.75,0,0,1-.41,0,18.31,18.31,0,0,1-2.46-.25c-.93-.14-1.85-.31-2.77-.46A11.82,11.82,0,0,0,133.89,91.51ZM56.53,131.8c0,.14,0,.27,0,.41,0,.5.19.58.61.32a3.67,3.67,0,0,0,.9-.76,16.18,16.18,0,0,0,2.68-4.21,5.78,5.78,0,0,0,.56-2.24c0-.18.08-.4-.13-.52a.44.44,0,0,1-.19-.61c0-.12.1-.23,0-.33a.37.37,0,0,0-.39,0,2.75,2.75,0,0,0-.92.81,16,16,0,0,0-2.29,4A9.15,9.15,0,0,0,56.53,131.8ZM190.77,178c.07.59.17,1.18.23,1.77a38.25,38.25,0,0,0,.76,4.89c.77,3.44,1.86,6.79,2.94,10.14.62,2,1.51,3.85,2,5.85a17,17,0,0,0,1.37,3.2c.21.42.54.25.79.12s0-.31-.06-.44a62.2,62.2,0,0,1-3.94-10.12C193.6,188.21,192,183.14,190.77,178Zm-61.21-28.39-.07-.12a29.34,29.34,0,0,0,2.3-4.09c.09-.2.25-.26.44-.06a.47.47,0,0,0,.55,0,1.28,1.28,0,0,0-.1-1.14c-.18-.34-.44-.18-.67-.06a4.86,4.86,0,0,0-2.26,2.39,20,20,0,0,0-1.7,5.49,4.35,4.35,0,0,0,0,1.08.63.63,0,0,0,.43.53c.22.1.34-.12.47-.24a10.47,10.47,0,0,0,1.29-1.61,5.91,5.91,0,0,0,.83-1.57,7.26,7.26,0,0,0-.5.63.85.85,0,0,1-.74.41,15.11,15.11,0,0,0,2.41-5.56C131.37,147.05,131,148.69,129.56,149.57Zm16.8-66.82a1.13,1.13,0,0,0,0-.8,13.93,13.93,0,0,0-4.26-6.52,4.71,4.71,0,0,0-1.3-.83.6.6,0,0,0-.68,0,1.58,1.58,0,0,0-.09,1.88c2.09,1.89,4.09,3.85,6,5.93C146.09,82.56,146.17,82.73,146.36,82.75ZM135.1,143.27c0,.69.08.79.53.65a3.89,3.89,0,0,0,1.25-.71,17.07,17.07,0,0,0,4.23-5,8.8,8.8,0,0,0,.42-1c.05-.14.13-.33,0-.44s-.28,0-.41.1c-.95.5-1.91,1-2.83,1.5A6.73,6.73,0,0,0,135.1,143.27Zm7.41-10.36a7.65,7.65,0,0,0,2.61-.34,16.29,16.29,0,0,0,4.12-1.45c.22-.13.52-.25.49-.54s-.34-.25-.54-.33a1.74,1.74,0,0,0-.58-.2,13.91,13.91,0,0,0-5.87.63,5.57,5.57,0,0,0-2.22,1.28c-.41.4-.37.52.16.72A6.71,6.71,0,0,0,142.51,132.91ZM67.6,115.78l-.26.31q-2.06,2.68-4,5.44a2,2,0,0,0-.23,1.86c.09.39.35.48.71.34a3.08,3.08,0,0,0,1-.66,22,22,0,0,0,3.77-5.4c0-.09.17-.24,0-.3C67.83,117.12,67.69,116.52,67.6,115.78Zm70.06-53.29a2.44,2.44,0,0,0,.25.95,17.73,17.73,0,0,0,4,5.32,4.53,4.53,0,0,0,1.17.76c.26.11.35,0,.34-.24a3.46,3.46,0,0,0-.33-1.19,19.9,19.9,0,0,0-3.31-5,4.59,4.59,0,0,0-1.09-.87,1.85,1.85,0,0,0-.52-.22C137.85,62,137.65,62.07,137.66,62.49Zm-8.11,16.35c0-.22-.11-.36-.22-.5a17.9,17.9,0,0,0-5.86-5.12,3.12,3.12,0,0,0-1-.34c-.32,0-.49.07-.51.42a1.53,1.53,0,0,0,.39,1.08A13.93,13.93,0,0,0,129,78.73,1.11,1.11,0,0,0,129.55,78.84ZM121.86,84a2.52,2.52,0,0,0-.75-.63A12.48,12.48,0,0,0,113,81.59a4.31,4.31,0,0,0-1.5.38c-.15.07-.37.17-.2.37.43.49.83,1,1.6,1a32.41,32.41,0,0,1,3.41.08C118.11,83.54,120,83.78,121.86,84Zm29.92-8.37a19.53,19.53,0,0,0,.64,5,7.1,7.1,0,0,0,.86,2.09c.12.2.22.52.48.48s.24-.39.29-.62a7.23,7.23,0,0,0,.13-1.23,19.21,19.21,0,0,0-1.34-7,5.11,5.11,0,0,0-.37-.74c-.08-.15-.18-.33-.38-.3s-.18.25-.21.41A11,11,0,0,0,151.78,75.67ZM109.34,89.23a7.32,7.32,0,0,0,1.43-.25A60.69,60.69,0,0,1,120,87.59c.19,0,.49.11.54-.13s-.16-.45-.36-.59a.87.87,0,0,0-.39-.14,16.07,16.07,0,0,1-2.26-.52,2.77,2.77,0,0,0-1.07-.1,14.61,14.61,0,0,0-5.85,1.9A3.34,3.34,0,0,0,109.34,89.23ZM139,75.63c0-.39.13-.67,0-.95a17.66,17.66,0,0,0-4-5.25,3.45,3.45,0,0,0-1.16-.67c-.23-.07-.55-.12-.54.24,0,1,0,1.92.91,2.59S136,73,136.82,73.68,138.24,74.93,139,75.63Zm16,53.59-.87,0a3.45,3.45,0,0,0-.56.1c-.18,0-.42,0-.47.25s.19.3.33.42l.3.2a15.3,15.3,0,0,0,6.53,1.92c.3,0,.74.11.85-.28s-.21-.66-.51-.88l-.12-.09A12.45,12.45,0,0,0,155.06,129.22ZM130.92,88c-.23-.36.11-.78-.35-.94a38.28,38.28,0,0,0-6.34-1.62c-.16,0-.27,0-.28.19-.06.74-.59,1-1.21,1.14a5.48,5.48,0,0,1-1.28.09c-.23,0-.28.06-.24.3.06.39.29.41.61.43C124.81,87.76,127.82,87.28,130.92,88ZM137,59.22c0-.11,0-.15,0-.17-1.43-2.37-2.87-4.73-4.39-7a2.27,2.27,0,0,0-1-.81c-.45-.2-.62-.08-.69.4a1.48,1.48,0,0,0,.17,1,22.45,22.45,0,0,0,4.67,5.73A5.6,5.6,0,0,0,137,59.22ZM119.94,88.59l0-.12h-.36a68.6,68.6,0,0,0-10.08,1.67c-.49.1-.24.38-.09.55a2.13,2.13,0,0,0,1.06.5,7.7,7.7,0,0,0,4.23-.18,13.45,13.45,0,0,0,3.23-1.23c-1.14.32-2.29.61-3.45.83a6.45,6.45,0,0,1-2.05.21c-.14,0-.35-.06-.34-.24s.2-.21.35-.22A20.77,20.77,0,0,0,118.31,89c.14-.06.35-.15.42,0,.15.42.34.16.51,0S119.71,88.75,119.94,88.59Zm69.26,83.12a5.76,5.76,0,0,0-.46,2.72c.2,1.86.29,3.74.5,5.61a20.69,20.69,0,0,0,1,5.67c.64,1.61,1.1,3.3,1.84,4.88a6.57,6.57,0,0,1,.31,1,7.31,7.31,0,0,0,1,1.82,80.69,80.69,0,0,1-3.06-10.59A59,59,0,0,1,189.2,171.71ZM150.12,80.06a2.78,2.78,0,0,0-.13-.31c-1.34-2.52-2.79-5-4.33-7.39a1.23,1.23,0,0,0-1.21-.49.27.27,0,0,0-.29.24,1.59,1.59,0,0,0,.12,1.15,38,38,0,0,0,3.9,5.12A9.54,9.54,0,0,0,150.12,80.06Zm-17.05,9.81c.05.2.2.27.31.37a14,14,0,0,0,5.3,2.89,6.75,6.75,0,0,0,2.6.36c.26,0,.61,0,.66-.33s-.26-.41-.49-.52c-1.34-.59-2.72-1.07-4.1-1.55A38.18,38.18,0,0,0,133.07,89.87Zm53.76,10.61c.28-.53.62-.89.54-1.41-.12-.85-.27-1.71-.41-2.56-.38-2.17-.75-4.34-1.13-6.5-.14-.77-.32-1.54-.5-2.42A1.69,1.69,0,0,0,185,89a6.18,6.18,0,0,1,.36,1.57,21.06,21.06,0,0,0,.37,3c.09,1.16.37,2.31.57,3.46S186.62,99.23,186.83,100.48Zm-78.26,18.07c-1,.48-2.06.88-3,1.39a13.79,13.79,0,0,0-2.58,2.13c-.81.71-1.58,1.47-2.37,2.2.51-.23,1-.47,1.49-.66a1.14,1.14,0,0,1,1.18.1c.31.26.42.14.6-.13a19,19,0,0,1,4.45-4.79C108.4,118.72,108.48,118.63,108.57,118.55ZM71.05,86.18c-.12-.08-.21,0-.3,0a18.81,18.81,0,0,0-7.37,3.57A6.87,6.87,0,0,0,62.11,91a1.39,1.39,0,0,0-.39,1C64.83,89.94,67.9,88,71.05,86.18ZM181.49,91l.09,0c.45-1,.86-1.94,1.37-2.86a4.5,4.5,0,0,0,.54-3.5,9.15,9.15,0,0,0-.26-1.26c-.28.66-.51,1.23-.74,1.8a25,25,0,0,1-1,2.51,1.58,1.58,0,0,0-.27,1C181.3,89.46,181.39,90.23,181.49,91Zm-67-6.66a11,11,0,0,0,2.13.88,14.59,14.59,0,0,0,5.19.91,2.82,2.82,0,0,0,1.11-.22.38.38,0,0,0,.22-.42.34.34,0,0,0-.32-.29L121.77,85A53.26,53.26,0,0,0,114.51,84.34Zm20-11.28c0,.17,0,.22.07.26a19.63,19.63,0,0,0,4,5.13,3.44,3.44,0,0,0,.55.39c.14.09.3.24.46.13s0-.32,0-.47c-.11-.43-.25-.86-.36-1.29a.8.8,0,0,0-.22-.45A38.39,38.39,0,0,0,134.49,73.06Zm43,14.78a.71.71,0,0,0,.29-.45c.44-1.14.81-2.31,1.35-3.4.63-1.28.19-2.5,0-3.76-.48,1.07-.84,2.19-1.37,3.22C177.06,84.88,177.57,86.33,177.5,87.84ZM174,121.73c-.25.19-.23.48-.57.58a3.56,3.56,0,0,0-.21-3.07c-.44,1.55-.43,1.55-.19,2.46.59,2.27,1.37,4.47,2.15,6.68.05.16.12.32.22.58a2,2,0,0,0,.13-1.46c-.17-.51-.28-1-.42-1.55C174.69,124.56,174.33,123.16,174,121.73Zm9.94-20.33a2.67,2.67,0,0,0-.43.78,4.39,4.39,0,0,0-.54,3.3c.19.89.25,1.81.37,2.8a5,5,0,0,0,1-4C184.16,103.36,184,102.41,183.89,101.4Zm1.72,12.87-.11,0a16.85,16.85,0,0,1-.74,1.61A5.66,5.66,0,0,0,184,120a2.73,2.73,0,0,0,.13.86c.47-1.32,1.08-2.52,1.59-3.75a1.33,1.33,0,0,0,.17-.64C185.78,115.75,185.69,115,185.61,114.27Zm-.11-16.52c-.08.07-.13.09-.15.13a4.53,4.53,0,0,0-.64,3.58,3.19,3.19,0,0,1,.08.62c.1.69.2,1.39.29,2.09a13.53,13.53,0,0,0,1-2,.69.69,0,0,0,.06-.4C185.93,100.46,185.72,99.13,185.5,97.75Zm-16.23,5.32a10.06,10.06,0,0,1-.33,1.21,2.45,2.45,0,0,0,0,1.56c.26,1,.46,2,.68,3,.07.32.12.64.21,1a3.75,3.75,0,0,0,.28,1,5.52,5.52,0,0,0-.07-4.62l-.25.36A6.52,6.52,0,0,0,169.27,103.07ZM123.6,66.7a10.62,10.62,0,0,0,1.57,1.43A10.53,10.53,0,0,0,129,70.36a2.28,2.28,0,0,0,.86.14c.15,0,.33,0,.36-.22s-.15-.21-.26-.28c-1.32-.79-2.63-1.61-4-2.32A14.3,14.3,0,0,0,123.6,66.7ZM140.18,78c.49,2.28,3.82,6.07,5.48,6.23A80.32,80.32,0,0,0,140.18,78Zm-8.58,9.81a1,1,0,0,0,.76,1,62.8,62.8,0,0,1,6.2,1.79c.13,0,.31.22.4,0s-.09-.29-.26-.37a58.86,58.86,0,0,0-6.77-2.69C131.69,87.44,131.56,87.47,131.6,87.76Zm53.51,22.89H185c-.41.92-.79,1.86-1.24,2.76-.53,1.07,0,2.09,0,3.15.6-1.13,1.11-2.27,1.62-3.41a.82.82,0,0,0,0-.35Zm-7.33-19.49c.39-1,1.11-1.79.92-2.92-.06-.36,0-.73.53-.63.23,0,.21-.19.29-.3.67-1,.34-2.1.19-3.2-.21.14-.22.34-.29.51-.53,1.35-1,2.73-1.6,4.07A4.71,4.71,0,0,0,177.78,91.16ZM99.26,125.77a51.87,51.87,0,0,0-6.45,7.67,9.79,9.79,0,0,1,2.38-2.3,7.07,7.07,0,0,0,2.63-3.08C98.26,127.27,98.78,126.53,99.26,125.77Zm92.82,11a17.35,17.35,0,0,0-3.39,6.91C190.23,141.56,191.71,139.41,192.08,136.76ZM178.27,80.7a3.62,3.62,0,0,0,.69-2.86,9.76,9.76,0,0,1-.16-1.44l-.27-2.59a3.81,3.81,0,0,0-.62,1.79C178,77.31,178.15,79,178.27,80.7Zm9.82,69.67c-.79,1.37-1.59,2.63-2.27,3.95a7,7,0,0,0-.39,2.43C186.6,154.77,188,152.9,188.09,150.37Zm-7.74-82.73a3.25,3.25,0,0,0-.29,2.13c.13.62.19,1.26.28,1.89l.43,3a2.93,2.93,0,0,0,.45-2.63,4.64,4.64,0,0,1-.14-.76C180.85,70.13,180.61,69,180.35,67.64ZM196,200.84c-1.51-2.91-3.09-5.77-4.64-8.76,0,.15,0,.19,0,.21a59.71,59.71,0,0,0,3.31,7.23A4.51,4.51,0,0,0,196,200.84ZM63.45,120.05c.71-1,1.4-1.92,2.11-2.86s1.51-2,2.26-3c.12-.16.34-.36.15-.54s-.3.1-.42.2A13.07,13.07,0,0,0,63.45,120.05Zm124.43-13c.17-.19.16-.41.33-.47s.21-.27.19-.46c-.14-1-.26-1.94-.4-2.92s-.29-1.86-.44-2.86a2.62,2.62,0,0,0-.45,2.16,22.29,22.29,0,0,1,.48,2.81C187.63,105.86,187.77,106.41,187.88,107Zm1.27,39.24c-.69,1.08-1.34,2.2-2.1,3.24a6.55,6.55,0,0,0-1,3.12C187.19,150.56,188.88,148.79,189.15,146.28Zm-2.34-39.79c-.84,1.51-1.43,3.08-.67,4.82C187.05,109.82,187.6,108.24,186.81,106.49Zm.48,15.41c.73-1.65,1.71-3.24,1-5.23C187.59,118.37,186.58,120,187.29,121.9Zm.08-11.77a5.21,5.21,0,0,0-.75,4.76C187.39,113.38,188.18,111.88,187.37,110.13Zm2.95,32.13c-1.23,2-2.9,3.72-3.19,6.19C188.28,146.44,190,144.73,190.32,142.26ZM185,161a11.38,11.38,0,0,0,2-5.74C186,157,184.68,158.7,185,161Zm1.3-57.86a4.93,4.93,0,0,0-.68,4.64A5.09,5.09,0,0,0,186.31,103.09Zm.68,15.15c1-1.67,1.43-3.69.88-4.74C187.13,115,186.3,116.47,187,118.24Zm-11.23-3.85c-.79,1.62-.34,3.17.27,4.67C176.89,117.46,176.3,115.91,175.76,114.39Zm6.05-32.64a4.48,4.48,0,0,0,.33-4.42A5.34,5.34,0,0,0,181.81,81.75Zm6.77,38.53c-.6,1.68-1.71,3.09-1.08,5C188.1,123.66,189.11,122.23,188.58,120.28ZM43.7,108.54l2.84-3.31c-1,.52-2,1-3,1.5-.14.06-.42.14-.2.35A1.73,1.73,0,0,1,43.7,108.54Zm135.67,19.34a6.19,6.19,0,0,0-.26,2.38c.21.76.4,1.52.61,2.31A5.57,5.57,0,0,0,179.37,127.88Zm-94-65.5a3.25,3.25,0,0,0-2.36-.2,16.11,16.11,0,0,0-3.15,1.47C81.71,63.2,83.56,62.84,85.39,62.38Zm98,36c-.71,1.3-1.31,2.6-.71,4.12C183.35,101.2,184.11,99.93,183.41,98.38Zm10,33.65a16.89,16.89,0,0,0-2.51,5.35A10,10,0,0,0,193.44,132ZM173,96.69a2.51,2.51,0,0,0,0-1.83c-.52-1.51-1-3-1.5-4.66a1.44,1.44,0,0,0-.1,1.1c.24.77.46,1.55.69,2.33,0,.12,0,.28.18.35s.21.33.2.54A8.14,8.14,0,0,0,173,96.69Zm-2.13,17.42a5,5,0,0,0,0-4.24,5.62,5.62,0,0,1-.61,1.65c-.08.12,0,.24,0,.36C170.49,112.59,170.67,113.31,170.88,114.11Zm19.23,46c-.72,1.77-1.83,3.44-1.47,5.59C189.29,163.81,190.1,162.06,190.11,160.09Zm-3.83-.39c-.7,1.51-1.79,2.82-1.38,4.68C185.6,162.86,186.51,161.5,186.28,159.7ZM191.39,145a10,10,0,0,0-2.11,5A10.93,10.93,0,0,0,191.39,145Zm-10.94-41.28c.54-1.38,1.51-2.61.89-4.21A5,5,0,0,0,180.45,103.75ZM162.59,77c.43-1.26-.14-2.28-.42-3.35a.31.31,0,0,0-.06-.13c-.53.14-.21-.28-.25-.41s0-.42,0-.62c-.4-1.49-.82-3-1.24-4.46C161.1,71,161.85,74,162.59,77Zm17.33,17.35c1.17-1.28.75-2.68.54-4.1C179.48,91.54,179.88,92.94,179.92,94.34Zm5,.5a4.05,4.05,0,0,0-.53,3.72A3.65,3.65,0,0,0,184.92,94.84Zm-9.74,27.76c.16-.68.59-1.3.32-2s-.41-1.3-.61-2C174.07,120,174.82,121.3,175.18,122.6Zm.4-52.3c-.82,1.85-.08,3.76-.27,5.65a.9.9,0,0,0,.18-.31C176.11,73.87,175.52,72.08,175.58,70.3Zm14.56,79.52a9.7,9.7,0,0,0-2,5.05A12.77,12.77,0,0,0,190.14,149.82Zm1.24,4.86a13,13,0,0,0-1.08,2.55,3.78,3.78,0,0,1-.63,1.29,4.25,4.25,0,0,0-.7,2.67A32.62,32.62,0,0,0,191.38,154.68ZM38.13,116c1.38-2,2.8-3.93,4.27-5.83A14.64,14.64,0,0,0,38.13,116ZM177.5,69.19a9.17,9.17,0,0,0,.1-5.18C177.05,65.26,177.32,65.09,177.5,69.19Zm1.91,1.67c-.28.59.05,5.24.41,6.25a1.57,1.57,0,0,0,.31-.88C179.9,74.47,179.66,72.7,179.41,70.86Zm-.75,57.41a5.44,5.44,0,0,0-.18-4.13A5.07,5.07,0,0,0,178.66,128.27ZM163.87,86.66h-.08c.64,3.31,1.27,6.62,1.92,10a3,3,0,0,0,0-2C165.08,92,164.47,89.33,163.87,86.66ZM176,126.15a4.39,4.39,0,0,0-.17-3.92c-.07.57-.55,1-.45,1.49C175.57,124.51,175.82,125.28,176,126.15Zm2.62,6c-.79,1.62.12,2.94.36,4.41C179.75,135,178.93,133.62,178.66,132.11Zm-3.37-86.46c.46,3.6.9,7.2,1.27,10.91C176.89,55.77,176.16,49.55,175.29,45.65Zm5.83,51a4.25,4.25,0,0,0-.83,3.71A4.25,4.25,0,0,0,181.12,96.63Zm-14.89-3.54a5.64,5.64,0,0,0-.22-4.22C165.31,90.28,165.85,91.65,166.23,93.09ZM185,167.4c.88-1.43,1.29-3.12,1-4C185.38,164.69,184.51,165.86,185,167.4Zm-6.2-77c-.6,1.23-1.29,2.37-.74,3.79C178.66,93,179.25,91.87,178.79,90.4Zm-7,26.74a4.76,4.76,0,0,0,0-3.81A4.39,4.39,0,0,0,171.74,117.14Zm8.89,18.54c.52-1.28.47-3.22-.12-3.92C180.24,133.08,179.87,134.39,180.63,135.68Zm1.47-39.19c.88-1.31,1.11-2.5.67-3.45A3.74,3.74,0,0,0,182.1,96.49Zm7,57.8c-.81,1.52-1.76,2.89-1.67,4.69A11.43,11.43,0,0,0,189.11,154.29Zm-7.88-76.37a3.68,3.68,0,0,0,.32-3.52C180.71,75.49,181,76.7,181.23,77.92ZM70.46,111.24c1.4-1.42,2.89-2.74,4.37-4.09C73.62,107.42,71,109.9,70.46,111.24ZM177.79,73.69a5.74,5.74,0,0,0,.3-4.16C177.29,70.86,177.73,72.29,177.79,73.69Zm-2.86,41.58c.33-1.33.71-2.59,0-3.82A4.54,4.54,0,0,0,174.93,115.27Zm2,6.72a4.38,4.38,0,0,0,0-3.68A4.18,4.18,0,0,0,176.92,122ZM175,55.64c0,.82,0,1.62.05,2.43,0,2.71.22,5.42.22,8.14v2.9C175.6,68.5,175.39,58.89,175,55.64Zm10.31,114.9a6.27,6.27,0,0,0,.63-3.77C185.3,168,184.77,169.15,185.32,170.54ZM165.06,85.17c-.59,1.37-.05,2.64.23,4A5,5,0,0,0,165.06,85.17Zm12.86,47.09a4.48,4.48,0,0,0-.24-3.65A4.14,4.14,0,0,0,177.92,132.26Zm-1-74.53c-.29,1.86.19,3.68.26,5.53C177.77,61.39,177.06,59.57,176.94,57.73Zm5.42,41.51c.93-1.67,1.12-2.62.72-3.48C182.54,96.87,181.83,97.91,182.36,99.24Zm-.18-14.72c.35-1.17,1.3-2.16.63-3.54C182.31,82.12,181.59,83.16,182.18,84.52Zm-15.24,8.19a5.72,5.72,0,0,0,.12,4A5.7,5.7,0,0,0,166.94,92.71ZM198,124.4c-1.15,1.28-1.17,2.94-1.51,4.49C197.62,127.59,197.53,125.9,198,124.4ZM183.1,141.24a5.66,5.66,0,0,0,.2,4A6.06,6.06,0,0,0,183.1,141.24ZM134,52a6.88,6.88,0,0,0-2.7-3.58C132.17,49.66,132.73,51.1,134,52Zm47.55,86.87c.41-1.88.37-2.93-.14-3.84C181.15,136.33,180.81,137.61,181.56,138.89Zm-4.11-27.23c-.07-.44.42-.73.31-1.14-.24-.85-.5-1.69-.77-2.59C176.35,109.32,177.13,110.45,177.45,111.66Zm-8,.78.1,0c-.63-2.78-1.26-5.56-1.89-8.38a.74.74,0,0,0-.15.76c.16.66.31,1.32.48,2Q168.66,109.6,169.4,112.44Zm7.41,13c-.51,1.6-.47,2.56.1,3.54A4.37,4.37,0,0,0,176.81,125.48ZM166.05,76.93c-.46,1.45.37,2.66.71,4C167.26,79.43,166.33,78.24,166.05,76.93Zm11.21,6.27c.21-.24.42-.48.35-.75a16.71,16.71,0,0,1-.27-2.72c-.06-.68-.11-1.35-.18-2.15a1.25,1.25,0,0,0-.28.79C177,80,177.13,81.59,177.26,83.2Zm-3.13,29c.35-1.2.67-2.36,0-3.53A4.55,4.55,0,0,0,174.13,112.22Zm-5.63-8.38c.51-1.72.5-2.84,0-3.73A5.31,5.31,0,0,0,168.5,103.84Zm9.19,17.38c-.31,1.19-.7,2.37,0,3.58C177.94,123.59,178.39,122.41,177.69,121.22ZM170,99.41c-.62,1.36-.05,2.55.26,3.8C170.93,101.89,170.21,100.71,170,99.41ZM180.83,94a3.79,3.79,0,0,0-.71,3.23A3.42,3.42,0,0,0,180.83,94Zm-8.39,8.82a4.28,4.28,0,0,0,.16,3.38A3.75,3.75,0,0,0,172.44,102.78ZM193.1,136.9a6.63,6.63,0,0,0,1.5-3.9A7.42,7.42,0,0,0,193.1,136.9Zm-4.93,22a5.48,5.48,0,0,0-1.06,3.68A7,7,0,0,0,188.17,158.91ZM190.61,145a7.15,7.15,0,0,0,1.79-3.72A7.09,7.09,0,0,0,190.61,145Zm-6.42-55a2.94,2.94,0,0,0-.49,3A3,3,0,0,0,184.19,90Zm-1.75.52a3.25,3.25,0,0,0-.6,3C182.33,92.63,183,91.73,182.44,90.55Zm-9.12,15.3a4.12,4.12,0,0,0,.06,3.4A4.28,4.28,0,0,0,173.32,105.85Zm5.8,36.44c.43,1.08.86,2.16,1.3,3.3.35-.73,0-1.34-.09-2S179.54,142.7,179.12,142.29ZM167.85,100.2a5,5,0,0,0-.11-3.6A5,5,0,0,0,167.85,100.2Zm25.63,37.26a7.62,7.62,0,0,0-1.7,3.72A7.08,7.08,0,0,0,193.48,137.46Zm-19.37-18.6a3.39,3.39,0,0,0-.13-3.17A3.79,3.79,0,0,0,174.11,118.86Zm-1.58-2.28a3.09,3.09,0,0,0,0,3.09A3.71,3.71,0,0,0,172.53,116.58Zm7.24,19.77a3.87,3.87,0,0,0,.2,3.29A4.15,4.15,0,0,0,179.77,136.35Zm2.62,5.5c.13-1.25.56-2.38-.06-3.52A4.45,4.45,0,0,0,182.39,141.85Zm.93-51.42a2.74,2.74,0,0,0,.47-2.83C183.34,88.5,182.72,89.34,183.32,90.43Zm-20.19-13c-.39,1.43.26,2.65.48,3.94A7.3,7.3,0,0,0,163.13,77.43Zm8.42,19.25a5.49,5.49,0,0,0-.58-3.37C170.53,94.55,171.26,95.58,171.55,96.68Zm9.21-15.48c-.7,1.09-.14,2.14-.12,3.25C181.21,83.66,181.24,82.71,180.76,81.2Zm6.78,85.16a5.22,5.22,0,0,0-.49,3.6C187.55,168.87,187.62,168.37,187.54,166.36Zm-3-73.79c-.76,1.18-.93,2.07-.52,2.83C184.36,94.47,185.08,93.65,184.57,92.57Zm-4.29-15c-.69,1.05-.11,2.11-.06,3.16C180.92,79.71,180.35,78.65,180.28,77.6Zm-8.38,32c.55-1.06,0-2-.19-3.1A3.46,3.46,0,0,0,171.9,109.56ZM150.12,78a11.2,11.2,0,0,0-2.78-4.71Zm30.56,61.6a3,3,0,0,0,.25,2.89A3.4,3.4,0,0,0,180.68,139.63ZM195.59,133c.93-.93.94-2.17,1.18-3.34C195.84,130.59,195.91,131.86,195.59,133ZM159.85,62.87l2,6.81.15-.05A48.76,48.76,0,0,0,159.85,62.87Zm20.24,24.61a3.24,3.24,0,0,0-.4,2.8A3,3,0,0,0,180.09,87.48Zm14.54,40.33a9.27,9.27,0,0,0-1.48,3.57A7.42,7.42,0,0,0,194.63,127.81ZM171,106.31c.54-1.08.15-2-.13-3A3.77,3.77,0,0,0,171,106.31Zm16.7,56.46a4,4,0,0,0-.7,3.15A5.74,5.74,0,0,0,187.74,162.77Zm-9.63-51a3.83,3.83,0,0,0,.19,3C178.83,113.78,178.39,112.83,178.11,111.79Zm-5.6-2c-.56,1.09-.08,2,.11,3A3.85,3.85,0,0,0,172.51,109.81Zm.75,3.08a3.65,3.65,0,0,0,.09,3A3.5,3.5,0,0,0,173.26,112.89Zm-5.48-28.77c.5-1.17-.12-2-.39-3C166.9,82.2,167.48,83.09,167.78,84.12ZM186,170.55a3.08,3.08,0,0,0-.15,3C186.41,172.56,186,171.54,186,170.55ZM164.2,81.88a5.17,5.17,0,0,0,.22,3.22A4.45,4.45,0,0,0,164.2,81.88Zm7.57,21a3.25,3.25,0,0,0-.16-2.87C171.11,101,171.52,101.87,171.77,102.84Zm-1.31-6.26c-.29,1.1.35,2,.53,3.06C171.53,98.49,170.69,97.59,170.46,96.58Zm3.18.28a2.77,2.77,0,0,0,.15,2.32c0,.1,0,.35.22.21s.43-.09.31-.41C174.09,98.31,173.89,97.64,173.64,96.86Zm6.84,24.57c-.39,1.19.21,2.2.43,3.27C181.21,123.73,181.11,123.05,180.48,121.43Zm15.1,7a19.68,19.68,0,0,0-1.15,3.66A5.85,5.85,0,0,0,195.58,128.43ZM179.72,67.51a3.73,3.73,0,0,0-.1-3.16C179.17,65.42,179.67,66.39,179.72,67.51Zm-15.07,6.2c.35-1.25-.44-2.25-.67-3.38C163.76,71.55,164.37,72.59,164.65,73.71ZM86.06,80.09c-.82,0-1.62.1-2.42.08-.26,0-.35.08-.3.32s-.09.3,0,.48Zm111.56,43.68a4,4,0,0,0,1-2.92A5.36,5.36,0,0,0,197.62,123.77ZM196.36,137a7.68,7.68,0,0,0-1.31,3.21A6.75,6.75,0,0,0,196.36,137ZM168.43,84.24c-.5,1.18.17,2,.4,2.92C169.3,86.14,168.62,85.3,168.43,84.24Zm7.45,44.57c-.24.26-.47.36-.36.65.28.72.55,1.44.82,2.16C176.68,130.62,176,129.82,175.88,128.81Zm-9.66-31.69c-.45.39-.47-.23.23,2.92C166.91,99,166.39,98.11,166.22,97.12Zm-3.58-31a11.18,11.18,0,0,0,.79,3.32A5.58,5.58,0,0,0,162.64,66.14ZM88.14,90.26c-1.32-.38-1.84.6-2.48,1.39Zm88.13,21.31a7.39,7.39,0,0,0,.69,3.17A7.9,7.9,0,0,0,176.27,111.57ZM169.2,96.78a2.89,2.89,0,0,0,.15,2.59A3.17,3.17,0,0,0,169.2,96.78Zm19.33,71.79a9.81,9.81,0,0,0,1-3.54A7.34,7.34,0,0,0,188.53,168.57Zm-8.62-47.88c.42-.94-.11-1.76-.29-2.63C179.2,119,179.71,119.83,179.91,120.69Zm-4.32-15.51c.32-1,.34-.83-.3-2.66C174.85,103.45,175.37,104.24,175.59,105.18Zm.78,2.68a3,3,0,0,0-.21-2.54A2.77,2.77,0,0,0,176.37,107.86Zm19.49,26a3.89,3.89,0,0,0-1.06,2.64A4.43,4.43,0,0,0,195.86,133.81Zm-14.6-49.07c-.63.77-.37,1.57-.26,2.4C181.67,86.37,181.38,85.57,181.26,84.74ZM168.58,96.39c.51-1.12,0-2-.28-2.88C168,94.48,168.46,95.35,168.58,96.39Zm-65.49-4.3A12.91,12.91,0,0,0,107,90.8,25,25,0,0,0,103.09,92.09Zm41.46-23L146,71.31a8.54,8.54,0,0,0-.3-1.49c0-.14-.08-.25-.25-.28A3.37,3.37,0,0,1,144.55,69.06Zm48,75.25a6,6,0,0,0,1.14-3.17A10,10,0,0,0,192.59,144.31ZM169.71,90.25c.37-.89-.07-1.64-.31-2.43C169,88.71,169.5,89.46,169.71,90.25Zm12.12,54.94a3.3,3.3,0,0,0-.25-2.46A2.93,2.93,0,0,0,181.83,145.19Zm16.68-25.64.15,0a12.24,12.24,0,0,0,.73-4C199.1,116.93,198.8,118.24,198.51,119.55ZM176.82,76.62c.42-1.05,0-2.09,0-3.14A11,11,0,0,0,176.82,76.62Zm-2.1,25.56c.47-.91,0-1.65-.21-2.47A3.1,3.1,0,0,0,174.72,102.18ZM184,81.54a.94.94,0,0,0,0,.63c.12.78.23,1.57.37,2.35,0,.13-.09.4.21.37s.16-.31.13-.45C184.47,83.49,184.24,82.54,184,81.54ZM178.94,115a2.73,2.73,0,0,0,.11,2.44C179.51,116.61,179.1,115.86,178.94,115Zm-.12-54.91-.15,0c.15,1.12.31,2.24.47,3.37l.17,0C179.49,62.27,179,61.19,178.82,60.06ZM176.55,72h.21c-.07-1.48-.14-3-.22-4.44h-.17Zm5,53.25a3.63,3.63,0,0,0,.23,2.6A3.66,3.66,0,0,0,181.52,125.21Zm17.19,1.19a7.11,7.11,0,0,0-.86,2.84C198.55,128.42,198.5,127.37,198.71,126.4Zm-14-39.05c.08-.24.57-.15.44-.57s-.23-1-.35-1.45C184.33,86,184.65,86.67,184.75,87.35ZM167,100.64c-.4,1,0,1.82.19,2.75A4.1,4.1,0,0,0,167,100.64ZM66.48,104.47a4.49,4.49,0,0,1,.34.51c.1.19.19.22.35.07.33-.33.68-.64,1.12-1Zm117.13,33a2.8,2.8,0,0,0,.3,2.46A5.31,5.31,0,0,0,183.61,137.44Zm3.62,35.46a4.12,4.12,0,0,0,.32-2.48A3,3,0,0,0,187.23,172.9Zm5.51-27.51a4.69,4.69,0,0,0-1.05,2.68A6.64,6.64,0,0,0,192.74,145.39ZM173.06,100a2.79,2.79,0,0,0,.34,2.38C173.75,101.51,173.22,100.84,173.06,100Zm1.65,5.8c-.38.81.07,1.51.28,2.37C175.34,107.22,174.88,106.53,174.71,105.77Zm15.83,46.79a11,11,0,0,0,1.05-2.93A6.18,6.18,0,0,0,190.54,152.56Zm3.35-12.82a6.25,6.25,0,0,0,1.18-2.62A5,5,0,0,0,193.89,139.74Zm-11.53-11.51c-.18,1.39-.16,1.6.17,2.22C183,129.72,182.54,129.06,182.36,128.23Zm-9.88-28.91c.29-.79-.15-1.43-.32-2.2C171.74,98,172.25,98.64,172.48,99.32Zm8.86,48.83a2.41,2.41,0,0,0-.33-2A2.19,2.19,0,0,0,181.34,148.15Zm13.12-4a6.7,6.7,0,0,0-1.13,2.63A7.42,7.42,0,0,0,194.46,144.12Zm-29-67.64a2.25,2.25,0,0,0-.24-2.1A3,3,0,0,0,165.42,76.48Zm28.74,66.91a8.62,8.62,0,0,0,1.25-2.59A6.64,6.64,0,0,0,194.16,143.39Zm-10.44-9.11a18.17,18.17,0,0,0-.55-2.8C182.87,132.6,183.44,133.41,183.72,134.28ZM170.43,92.92a2.21,2.21,0,0,0-.19-2A2.64,2.64,0,0,0,170.43,92.92Zm26.62,39.81a4.45,4.45,0,0,0,.9-2.37A4.37,4.37,0,0,0,197.05,132.73Zm-29.21-45.3a5.38,5.38,0,0,0,.52,2.36A5,5,0,0,0,167.84,87.43Zm6.32,17.72c.36-.87,0-1.51-.26-2.27C173.55,103.73,174,104.36,174.16,105.15Zm-5.33-14.36a4,4,0,0,0,.43,2.36A5.09,5.09,0,0,0,168.83,90.79Zm20.36,77.88c-.23.84-.75,1.61-.53,2.54A7.58,7.58,0,0,0,189.19,168.67Zm-8.67-40.9a8.53,8.53,0,0,0-.65-2.71A9.67,9.67,0,0,0,180.52,127.77Zm-4.74-17.11c.24-.72-.11-1.33-.32-2.1C175.16,109.42,175.59,110,175.78,110.66Zm21.44,23a3.55,3.55,0,0,0-.84,2.13A4.22,4.22,0,0,0,197.22,133.65ZM167.36,90.06a9.71,9.71,0,0,0,.51,2.45A5.59,5.59,0,0,0,167.36,90.06Zm9.56,42.2-.21,0a9.45,9.45,0,0,0,.66,2.2l.15,0Zm.5-16.54a3.18,3.18,0,0,0,.35,1.87A2.88,2.88,0,0,0,177.42,115.72Zm2.05,7.94a6.7,6.7,0,0,0-.51-2.24A6.36,6.36,0,0,0,179.47,123.66Zm-9.53-27.77a2,2,0,0,0-.31-1.79A3.73,3.73,0,0,0,169.94,95.89Zm17.61,79.42a2.34,2.34,0,0,0,.12-1.68A2,2,0,0,0,187.55,175.31Zm-15.8-54.65a9.46,9.46,0,0,0,.82,3C172.3,122.63,172,121.64,171.75,120.66Zm6.5-2.11a2.27,2.27,0,0,0,.26,1.67A2.75,2.75,0,0,0,178.25,118.55Zm4.14,27.3a2.49,2.49,0,0,0,.19,2A4.93,4.93,0,0,0,182.39,145.85Zm9.73,5c.7-.47.56-1.22.82-1.81A6.37,6.37,0,0,0,192.12,150.88ZM176.29,65.94h.12a22.16,22.16,0,0,0-.12-2.5Zm10.09,109.94c.29-.62,0-1.11,0-1.73C186,174.78,186.24,175.26,186.38,175.88ZM165.45,82.59a12,12,0,0,0,.54,2.67l.13,0C165.89,84.35,165.67,83.47,165.45,82.59Zm17.53,54a2.14,2.14,0,0,0-.2-1.62A2.08,2.08,0,0,0,183,136.56ZM178.8,67.27l.21,2.48.14,0A9,9,0,0,0,178.8,67.27ZM171,89.72c.36-.69-.11-1.12-.21-1.6C170.51,88.65,170.82,89.11,171,89.72Zm-9.57-27c.22.7.43,1.41.65,2.11A3.86,3.86,0,0,0,161.39,62.69Zm20.88,71.43a3.06,3.06,0,0,0-.38-1.9A7.1,7.1,0,0,0,182.27,134.12ZM166.43,86.54a8.51,8.51,0,0,0,.55,2.25A8.92,8.92,0,0,0,166.43,86.54Zm14.62,42.54-.15,0a8.76,8.76,0,0,0,.42,1.6l.17-.05C181.35,130.14,181.2,129.61,181.05,129.08Zm-18.51-57.6a4.05,4.05,0,0,0,.51,2ZM195,125.85a3.73,3.73,0,0,0,.57-1.89ZM130.27,46.42a2.53,2.53,0,0,0,.85,1.56C130.83,47.46,130.55,46.94,130.27,46.42Zm66.1,78.34-.51,2A4,4,0,0,0,196.37,124.76Zm-29-38.47a2.55,2.55,0,0,0-.45-1.67ZM199.2,123.2l-.4,1.8A3.21,3.21,0,0,0,199.2,123.2ZM127.32,79l0-.09-1-.51c-.08,0-.16,0-.21,0s0,.19.12.23Zm37.23.35a5.17,5.17,0,0,0,.39,1.64A5,5,0,0,0,164.55,79.36Zm18.94,0a5.49,5.49,0,0,0,.41,1.79A6.94,6.94,0,0,0,183.49,79.41Zm-13.26,7.73.13,0a4.22,4.22,0,0,0-.59-1.58C169.93,86.06,170.08,86.6,170.23,87.14ZM151.36,79.4c-.06.42-.21.86.26,1.25Zm30.72,70.67a1.71,1.71,0,0,0-.24-1.18C181.66,149.32,181.87,149.62,182.08,150.07Z"/><path class="cls-3" d="M124.51,111.05a2.43,2.43,0,0,1-.36,1.17,10.18,10.18,0,0,1-1.72,2.25,19.32,19.32,0,0,1-5.41,4.27,7.34,7.34,0,0,1-2.19.73c-1,.17-1.63-.46-1.39-1.5a4.35,4.35,0,0,1,.49-1.13,16.39,16.39,0,0,1,7.48-6.66,3.15,3.15,0,0,1,2.16-.28A1,1,0,0,1,124.51,111.05Zm-1.67-.53a2.12,2.12,0,0,0-1,.25,16.52,16.52,0,0,0-6.38,5,7.87,7.87,0,0,0-1.26,2.24c-.19.6,0,.81.63.71a8,8,0,0,0,2.94-1.22,21.18,21.18,0,0,0,5.13-4.68,5.59,5.59,0,0,0,.73-1.19C123.92,110.87,123.7,110.52,122.84,110.52Z"/><path class="cls-3" d="M28.56,147a1.4,1.4,0,0,1,.14-.89,37.42,37.42,0,0,0,2-6c0-.16,0-.4.26-.37s.19.29.16.46a30.21,30.21,0,0,1-1.38,4.58c-.2.55-.43,1.09-.66,1.63A1,1,0,0,1,28.56,147Z"/><path class="cls-3" d="M29.42,140.86a3.31,3.31,0,0,1,.16-2,.18.18,0,0,1,.24-.12A.24.24,0,0,1,30,139,4.6,4.6,0,0,1,29.42,140.86Z"/><path class="cls-3" d="M99,60.49a1.84,1.84,0,0,1-.29,0A22.31,22.31,0,0,1,95.45,59c-.16-.09-.3-.23-.18-.42s.3-.11.46,0c1,.53,2,1,3,1.41a2.12,2.12,0,0,1,.36.21c.08.06.19.12.16.24S99,60.42,99,60.49Z"/><path class="cls-3" d="M104.32,62l-2.77-.75c-.16-.05-.29-.16-.22-.34s.22-.19.38-.15l2.73.74c.16,0,.4.11.35.31S104.51,61.92,104.32,62Z"/><path class="cls-3" d="M36.38,126a30.72,30.72,0,0,1-1.3,6.53c-.18.62-.37,1.22-.57,1.83,0,.13-.09.34-.3.28s-.13-.24-.11-.36a6.43,6.43,0,0,1,.17-.76,38,38,0,0,0,1.55-6.73c0-.43,0-.86.08-1.29,0-.19,0-.43.26-.41s.21.24.22.41Z"/><path class="cls-3" d="M34.14,130.22a1.06,1.06,0,0,1,0-.8c.17-.75.36-1.5.55-2.25,0-.17.07-.43.33-.38s.18.32.13.51c-.16.68-.33,1.37-.51,2A1.71,1.71,0,0,1,34.14,130.22Z"/><path class="cls-3" d="M94.9,75.66a26.46,26.46,0,0,0,5.17-.62c.17-.05.37-.12.43.11s-.16.27-.32.33a10.1,10.1,0,0,1-2.38.44,27.92,27.92,0,0,1-4.38.19c-.24,0-.65,0-.63-.26s.42-.18.66-.19Z"/><path class="cls-3" d="M94,74.69a1,1,0,0,1,.72-.22c.94,0,1.88-.15,2.82-.24.17,0,.42-.09.46.16s-.22.31-.42.33a21.36,21.36,0,0,1-2.66.22A1.28,1.28,0,0,1,94,74.69Z"/><path class="cls-3" d="M83.94,78.29A1.85,1.85,0,0,1,85.09,78a35.17,35.17,0,0,0,4.34-.63c.2,0,.49-.23.56.11s-.27.32-.47.36a27,27,0,0,1-3.47.55q-.72.09-1.44.12A.71.71,0,0,1,83.94,78.29Z"/><path class="cls-3" d="M84,77.19a.5.5,0,0,1,.44-.26l3.23-.27c.15,0,.34,0,.37.19s-.15.25-.31.26c-1.08.07-2.15.15-3.23.21A.56.56,0,0,1,84,77.19Z"/><path class="cls-3" d="M83.76,76.14a1.38,1.38,0,0,1,1.07-.37L86,75.68c.13,0,.25,0,.26.19a.17.17,0,0,1-.14.19A7.07,7.07,0,0,1,83.76,76.14Z"/><path class="cls-3" d="M42.69,104.79a.7.7,0,0,1,.45-.31,21,21,0,0,0,5.16-3,1.83,1.83,0,0,1,.26-.16.2.2,0,0,1,.27.07.18.18,0,0,1,0,.24,1.1,1.1,0,0,1-.21.22,22.66,22.66,0,0,1-4.68,2.8C43.31,105,43.15,105,42.69,104.79Z"/><path class="cls-3" d="M44.65,102.29a1,1,0,0,1,.57-.55l1.87-1c.13-.07.26-.12.38,0a.2.2,0,0,1,0,.32A6.89,6.89,0,0,1,44.65,102.29Z"/><path class="cls-3" d="M88.58,60.52a1.27,1.27,0,0,1,.83-.35,12.68,12.68,0,0,1,3.58.32c.17,0,.37.08.35.3s-.26.21-.42.17a18.23,18.23,0,0,0-3.68-.37C89.06,60.59,88.88,60.55,88.58,60.52Z"/><path class="cls-3" d="M57.48,74.42a1.48,1.48,0,0,1,.86-.66,28.57,28.57,0,0,0,3.32-1.54c.16-.09.35-.22.49,0s0,.3-.18.37a19.63,19.63,0,0,1-4.09,1.8A2.3,2.3,0,0,1,57.48,74.42Z"/><path class="cls-3" d="M29.18,127.24c.13-.35.42-.51.67-.72a26.62,26.62,0,0,0,4-4.15,6.84,6.84,0,0,0,1-1.75c.05-.16.12-.31.32-.24a.27.27,0,0,1,.15.38,7.26,7.26,0,0,1-.42.94,21.25,21.25,0,0,1-4.77,5.24A1.16,1.16,0,0,1,29.18,127.24Z"/><path class="cls-3" d="M32,123.11a16.12,16.12,0,0,0,1.33-1.84.21.21,0,0,1,.28-.06.22.22,0,0,1,.12.21C33.8,122,32.66,123.13,32,123.11Z"/><path class="cls-3" d="M51.63,120.12a.88.88,0,0,1,.42-.56,8.85,8.85,0,0,0,2.51-3.33,1.62,1.62,0,0,1,.17-.32.2.2,0,0,1,.27-.08.2.2,0,0,1,.11.21,1.4,1.4,0,0,1-.1.35,9.19,9.19,0,0,1-2.34,3.28A1.3,1.3,0,0,1,51.63,120.12Z"/><path class="cls-3" d="M46.15,130.57a1.67,1.67,0,0,1,.58-.76,17.88,17.88,0,0,0,2.9-3.42,7.92,7.92,0,0,0,.88-1.86c.07-.2.09-.54.38-.45s.11.38.06.57a7.77,7.77,0,0,1-1.07,2.23,19.57,19.57,0,0,1-2.79,3.24A1.2,1.2,0,0,1,46.15,130.57Z"/><path class="cls-3" d="M46.75,128.59a1,1,0,0,1,.32-.62,8.63,8.63,0,0,0,1.68-2.51c.06-.14.13-.3.33-.24a.23.23,0,0,1,.12.35,6.31,6.31,0,0,1-2.11,2.9A1.46,1.46,0,0,1,46.75,128.59Z"/><path class="cls-3" d="M29.05,157.28a2.86,2.86,0,0,1-.08-1.47,22.4,22.4,0,0,0,0-3.57,1.79,1.79,0,0,1,0-.4.22.22,0,0,1,.22-.19.23.23,0,0,1,.22.18,1.17,1.17,0,0,1,0,.26,20.42,20.42,0,0,1-.06,4.28A1.5,1.5,0,0,1,29.05,157.28Z"/><path class="cls-3" d="M73.07,63a.88.88,0,0,1,.68-.28c1.16,0,2.29-.24,3.43-.37.31,0,.83-.28.9.14s-.49.29-.77.33a24.53,24.53,0,0,1-3.42.39A1.16,1.16,0,0,1,73.07,63Z"/><path class="cls-3" d="M58.76,90a.63.63,0,0,1,.46-.41,7.74,7.74,0,0,0,2.24-1.13c.11-.08.24-.16.37,0s0,.27-.08.36A5,5,0,0,1,58.76,90Z"/><path class="cls-3" d="M62.72,113.11a12.67,12.67,0,0,1-1.51,4.32.73.73,0,0,1-.14.16c-.13.1-.28.28-.44.16s0-.3.08-.42a12.57,12.57,0,0,0,1.52-4.41c0-.16.05-.33.26-.3S62.71,112.85,62.72,113.11Z"/><path class="cls-3" d="M57.92,121.67a.56.56,0,0,1,.2-.47,8.47,8.47,0,0,0,1.26-1.88c.07-.14.16-.3.35-.23s.16.26.1.4a6.16,6.16,0,0,1-1.4,2A.51.51,0,0,1,57.92,121.67Z"/><path class="cls-3" d="M97.41,135.61a1,1,0,0,1,.35-.61,36.11,36.11,0,0,0,2.82-3.93c.09-.14.15-.37.36-.27s.1.34,0,.49a36.66,36.66,0,0,1-2.91,4C97.85,135.5,97.8,135.5,97.41,135.61Z"/><path class="cls-3" d="M99.09,131.12c0-.18.12-.29.22-.4a7.29,7.29,0,0,0,1.32-2c.06-.15.14-.31.33-.25a.24.24,0,0,1,.12.35A5.06,5.06,0,0,1,99.62,131,.66.66,0,0,1,99.09,131.12Z"/><path class="cls-3" d="M42.07,143.53a2.7,2.7,0,0,1,.59-.91,17.52,17.52,0,0,0,3.58-7.06,2,2,0,0,1,.11-.35.21.21,0,0,1,.25-.14.2.2,0,0,1,.14.24q0,.33-.12.66a18,18,0,0,1-3.54,6.87A1.69,1.69,0,0,1,42.07,143.53Z"/><path class="cls-3" d="M105,127.37a2.47,2.47,0,0,1,.74-.89,19.4,19.4,0,0,0,3.44-4.37,6.66,6.66,0,0,0,.65-1.67c0-.15.1-.34.3-.28s.17.24.12.39a8.2,8.2,0,0,1-.88,2.09,19.78,19.78,0,0,1-3.2,4A2.32,2.32,0,0,1,105,127.37Z"/><path class="cls-3" d="M72,99.53a1.86,1.86,0,0,1-.18.28,13,13,0,0,1-2,1.68l-.09,0c-.24.09-.54.31-.69,0s.24-.33.42-.45a13.52,13.52,0,0,0,2-1.67c.11-.11.21-.24.39-.17S72,99.41,72,99.53Z"/><path class="cls-3" d="M113.92,60a1.27,1.27,0,0,1-.55-.13,28.36,28.36,0,0,1-3.68-2.09,2.69,2.69,0,0,1-.32-.27c-.1-.1-.17-.22-.07-.36a.24.24,0,0,1,.37,0l.59.41a30.29,30.29,0,0,0,3.24,1.83,5.54,5.54,0,0,1,.53.3c.09,0,.19.13.15.24S114,60,113.92,60Z"/><path class="cls-3" d="M126.71,65.45a1.51,1.51,0,0,1-.57-.58,22,22,0,0,0-3.72-4.39c-.11-.09-.22-.2-.12-.34s.24-.13.37,0a1.9,1.9,0,0,1,.37.26,24.14,24.14,0,0,1,3.47,4.21A1.11,1.11,0,0,1,126.71,65.45Z"/><path class="cls-3" d="M59.68,109.58c-.15,0-.39,0-.41-.18s.21-.19.35-.24a10.8,10.8,0,0,0,5-3.5c.1-.12.21-.27.38-.14s.08.29,0,.42a4.12,4.12,0,0,1-.44.57,13.64,13.64,0,0,1-4,2.85A2.11,2.11,0,0,1,59.68,109.58Z"/><path class="cls-3" d="M73.34,82.83c-.24,0-.48,0-.72,0s-.45,0-.45-.24.27-.22.44-.22c.72,0,1.44-.06,2.16-.15A26.73,26.73,0,0,0,80.58,81c.16-.05.35-.15.44.07s-.12.32-.29.39a19.82,19.82,0,0,1-4.16,1A29,29,0,0,1,73.34,82.83Z"/><path class="cls-3" d="M75.38,81.21a.67.67,0,0,1,.53-.32c1-.17,1.9-.31,2.85-.45.16,0,.4-.08.44.14s-.21.26-.39.29L76,81.32A.73.73,0,0,1,75.38,81.21Z"/><path class="cls-3" d="M44.3,111.32a13.22,13.22,0,0,1-1,3c-.09.17-.22.43-.46.31s-.06-.36,0-.51a15.52,15.52,0,0,0,1-2.88c0-.16.09-.36.32-.31S44.32,111.15,44.3,111.32Z"/><path class="cls-3" d="M40.69,118.08c-.29,0-.33-.12-.2-.28.35-.47.67-1,1-1.46a.24.24,0,0,1,.31-.12.21.21,0,0,1,.15.28,3.52,3.52,0,0,1-1,1.51A.53.53,0,0,1,40.69,118.08Z"/><path class="cls-3" d="M86.78,88.8c-.11,0-.27,0-.31-.11s.11-.24.24-.28l1.43-.4c1-.27,1.91-.56,2.84-.91.18-.06.42-.24.52.06s-.17.3-.34.37A33.49,33.49,0,0,1,87,88.78.65.65,0,0,1,86.78,88.8Z"/><path class="cls-3" d="M86.93,87.53a1.39,1.39,0,0,1,.73-.46c1-.33,2-.64,3-1A1.8,1.8,0,0,1,91,86a.22.22,0,0,1,.25.14.19.19,0,0,1-.14.24,22.07,22.07,0,0,1-4,1.19A.8.8,0,0,1,86.93,87.53Z"/><path class="cls-3" d="M124.62,34.1c0,.09,0,.25-.11.29s-.17-.1-.23-.19l-.24-.46a28.11,28.11,0,0,0-3.12-5.39c-.1-.12-.21-.27-.07-.41s.33-.06.45.07a9,9,0,0,1,.6.78,32.48,32.48,0,0,1,2.51,4.5A1.87,1.87,0,0,1,124.62,34.1Z"/><path class="cls-3" d="M54.39,100.77c.08-.26.3-.33.46-.43a22.12,22.12,0,0,0,4.43-3.76,5.29,5.29,0,0,0,1-1.6c.07-.15.14-.36.37-.26s.13.29.07.45a5.22,5.22,0,0,1-1,1.62,23.82,23.82,0,0,1-4.08,3.62A1.42,1.42,0,0,1,54.39,100.77Z"/><path class="cls-3" d="M103.32,118.64a3,3,0,0,1-.31,0c-.13,0-.24-.09-.22-.24s.11-.17.22-.18a10,10,0,0,0,3.55-1c.11-.06.26-.11.34,0s0,.26-.12.35a1.1,1.1,0,0,1-.26.18A10.87,10.87,0,0,1,103.32,118.64Z"/><path class="cls-3" d="M110.72,115.22a.81.81,0,0,1-.47.59q-1,.61-2,1.2c-.16.1-.37.25-.51,0s.1-.35.27-.45c.72-.44,1.45-.86,2.17-1.29A.58.58,0,0,1,110.72,115.22Z"/><path class="cls-3" d="M103.34,89.9a1.2,1.2,0,0,1,.68-.33,20.58,20.58,0,0,0,3.33-1.09c.18-.07.42-.22.54,0s-.16.37-.35.44a17.58,17.58,0,0,1-3.07,1A1.59,1.59,0,0,1,103.34,89.9Z"/><path class="cls-3" d="M151.49,109.63a1.36,1.36,0,0,1-.94.46,24.31,24.31,0,0,1-4,.1c-.18,0-.38,0-.4-.24s.16-.24.32-.24a42.33,42.33,0,0,0,4.78-.11Z"/><path class="cls-3" d="M81.67,97.19c0,.09-.07.18-.11.27a5.68,5.68,0,0,1-1,1.6,17.44,17.44,0,0,1-3.74,3c-.25.15-.64.43-.81.16s.31-.41.54-.55a18.71,18.71,0,0,0,3.34-2.6,6.3,6.3,0,0,0,1.31-1.84c.07-.14.15-.28.34-.27S81.65,97.07,81.67,97.19Z"/><path class="cls-3" d="M78,99.42a1.54,1.54,0,0,1,.61-.67,5.69,5.69,0,0,0,1-1c.07-.1.17-.18.3-.12s.12.2.08.32A3.07,3.07,0,0,1,78,99.42Z"/><path class="cls-3" d="M116.93,27.26a3.32,3.32,0,0,1-.79-.94c-.24-.37-.5-.73-.75-1.1-.09-.12-.15-.25,0-.36a.18.18,0,0,1,.27.05A5,5,0,0,1,116.93,27.26Z"/><path class="cls-3" d="M118.46,78.1a7.88,7.88,0,0,1-2.14-.51c-.16-.06-.35-.15-.27-.36s.28-.16.44-.1a8.67,8.67,0,0,0,2,.5c.2,0,.54,0,.5.26S118.63,78.09,118.46,78.1Z"/><path class="cls-3" d="M120.29,77.51l1.54.23c.12,0,.26.05.26.2s-.16.18-.28.19a16,16,0,0,1-1.94-.22.18.18,0,0,1-.16-.23C119.78,77.46,120,77.51,120.29,77.51Z"/><path class="cls-3" d="M78.26,109a2,2,0,0,1,.65-.78,16.61,16.61,0,0,0,2.71-3,3,3,0,0,0,.7-1.58c0-.16.06-.28.23-.29s.27.14.28.31a2.16,2.16,0,0,1-.34,1.17,14.72,14.72,0,0,1-3.39,3.86A1,1,0,0,1,78.26,109Z"/><path class="cls-3" d="M69.57,90.32a1.43,1.43,0,0,1,.71-.6,15.77,15.77,0,0,0,3.22-2.13c.13-.11.27-.26.44-.07s0,.27-.08.36a11.5,11.5,0,0,1-4,2.44A1.08,1.08,0,0,1,69.57,90.32Z"/><path class="cls-3" d="M76.42,93.74c.07-.29.28-.38.47-.48,1.74-.87,3.45-1.78,5.23-2.55a2.37,2.37,0,0,1,.34-.13c.13,0,.29-.08.37.08s0,.29-.19.35c-1.9.81-3.7,1.82-5.57,2.68A1,1,0,0,1,76.42,93.74Z"/><path class="cls-3" d="M138.43,56a1.05,1.05,0,0,1-.48-.64,29.52,29.52,0,0,0-2-4.08,3.18,3.18,0,0,1-.16-.32.23.23,0,0,1,.1-.31.24.24,0,0,1,.32.07,1,1,0,0,1,.15.21,29.14,29.14,0,0,1,1.94,3.92A1.67,1.67,0,0,1,138.43,56Z"/><path class="cls-3" d="M86,97.39a4.92,4.92,0,0,0,1.48-.13c.12,0,.27,0,.33.08s-.08.27-.2.31a4.81,4.81,0,0,1-2.44.18c-.14,0-.27-.11-.23-.28s.16-.16.28-.16Z"/><path class="cls-3" d="M91,95a.84.84,0,0,1-.37.77,5.46,5.46,0,0,1-1.23.84c-.11.06-.23.09-.32,0a.18.18,0,0,1,0-.27Z"/><path class="cls-3" d="M130.62,105.09a27.17,27.17,0,0,1-2.89-.42c-.19,0-.46-.08-.39-.36s.32-.19.52-.15c.93.18,1.86.32,2.8.41.22,0,.63,0,.61.24S130.85,105.05,130.62,105.09Z"/><path class="cls-3" d="M133.13,105.24c-.23,0-.48,0-.5-.22s.22-.25.41-.28c.92-.11,1.85,0,2.77-.23.11,0,.27-.05.32.07s-.1.23-.2.31a1.76,1.76,0,0,1-.89.23C134.39,105.17,133.73,105.14,133.13,105.24Z"/><path class="cls-3" d="M49.08,95.81c-.17,0-.4,0-.43-.21s.18-.2.31-.23l5-1.18c.13,0,.29,0,.35.12s-.08.29-.23.34c-.35.11-.7.2-1,.28l-3.62.83Z"/><path class="cls-3" d="M49.85,94.67c-.17,0-.41,0-.43-.21s.21-.21.35-.25q.52-.12,1-.21c.16,0,.33,0,.36.2s-.12.26-.28.29Z"/><path class="cls-3" d="M72.3,113.84c-.12,0-.19-.11-.06-.25.39-.46.81-.89,1.22-1.33a.15.15,0,0,1,.23,0,.31.31,0,0,1,.07.18A3.2,3.2,0,0,1,72.3,113.84Z"/><path class="cls-3" d="M69.85,115.55a4.23,4.23,0,0,1,1.44-1.09.21.21,0,0,1,.28.06.16.16,0,0,1,0,.23A2.74,2.74,0,0,1,69.85,115.55Z"/><path class="cls-3" d="M120.63,107.76a1.72,1.72,0,0,1-1,.78,12.16,12.16,0,0,1-3.26.69c-.19,0-.41,0-.45-.22s.13-.23.28-.24a14.36,14.36,0,0,0,4.18-1A1.65,1.65,0,0,1,120.63,107.76Z"/><path class="cls-3" d="M92.75,98.47a1.35,1.35,0,0,1-.6.76,22.7,22.7,0,0,1-4.52,2.45c-.15.07-.35.15-.45-.06s.08-.27.23-.33a23.65,23.65,0,0,0,4.89-2.72A.49.49,0,0,1,92.75,98.47Z"/><path class="cls-3" d="M139.09,109.3a1.32,1.32,0,0,1-1,.45,12.49,12.49,0,0,1-2.93-.17c-.17,0-.36-.09-.33-.31s.21-.2.37-.17a14,14,0,0,0,3.54.15A1.51,1.51,0,0,1,139.09,109.3Z"/><path class="cls-3" d="M102.92,82.55a.72.72,0,0,1,.6-.19c.88,0,1.75.12,2.62.2.18,0,.44,0,.41.29s-.29.18-.46.17l-2.52-.22A1,1,0,0,1,102.92,82.55Z"/><path class="cls-3" d="M83.27,149a.42.42,0,0,1,.17-.44A11.06,11.06,0,0,0,85,146c.1-.19.18-.54.49-.38s.06.43,0,.62a11.89,11.89,0,0,1-1.21,2.15A1.28,1.28,0,0,1,83.27,149Z"/><path class="cls-3" d="M149.11,135.32c-.2,0-.36,0-.39-.14s.1-.21.2-.26l2.55-1.2a.24.24,0,0,1,.32.08.22.22,0,0,1-.06.32A10.25,10.25,0,0,1,149.11,135.32Z"/><path class="cls-3" d="M126.29,90.25a1.07,1.07,0,0,1,.87-.16l3.58.5c.2,0,.48,0,.46.3s-.3.22-.49.19q-1.92-.26-3.84-.54A.87.87,0,0,1,126.29,90.25Z"/><path class="cls-3" d="M59,129.46a10.62,10.62,0,0,0,1.43-3.16c0-.14.14-.26.3-.21a.21.21,0,0,1,.14.29,7.5,7.5,0,0,1-1.12,2.69A1,1,0,0,1,59,129.46Z"/><path class="cls-3" d="M139.23,139.24c.22.06.24.23.14.39a7.17,7.17,0,0,1-1.72,2c-.14.09-.36.24-.5,0s.1-.27.2-.37a10.53,10.53,0,0,0,1.55-1.78C139,139.37,139.05,139.25,139.23,139.24Z"/><path class="cls-3" d="M146.35,131.61a1.43,1.43,0,0,1-1,.39c-.6,0-1.2,0-1.8,0-.15,0-.29,0-.33-.19s.08-.23.21-.23A19.62,19.62,0,0,1,146.35,131.61Z"/><path class="cls-3" d="M65,121.88a1.18,1.18,0,0,1,.35-.58,10.39,10.39,0,0,0,1.84-2.79c.06-.15.13-.31.33-.24s.15.27.09.4a8.28,8.28,0,0,1-2.09,3A.59.59,0,0,1,65,121.88Z"/><path class="cls-3" d="M113.21,87.68a.75.75,0,0,1,.6-.31,18.63,18.63,0,0,1,3.34-.23,1.35,1.35,0,0,1,.35.06.21.21,0,0,1,.15.24.18.18,0,0,1-.2.14c-1.39-.1-2.77.23-4.16.18C113.27,87.76,113.24,87.72,113.21,87.68Z"/><path class="cls-3" d="M120.81,113.81a1.7,1.7,0,0,1-.52.86,15.83,15.83,0,0,1-3.47,2.49c-.15.09-.37.24-.49,0s.13-.31.29-.4a17.48,17.48,0,0,0,3.5-2.54A1.36,1.36,0,0,1,120.81,113.81Z"/><text class="cls-4" transform="translate(70.66 208.56)">Oryza sativa</text></g></g></svg>