<svg xmlns="http://www.w3.org/2000/svg" viewBox="0 0 226.85 227.15"><defs><style>.cls-1{fill:#aa4f4e;}.cls-2{fill:none;stroke:#fff;stroke-miterlimit:10;stroke-width:0.6px;}.cls-3{font-size:22.71px;fill:#fff;font-family:Arial-BoldMT, Arial;font-weight:700;}</style></defs><g id="图层_2" data-name="图层 2"><g id="图层_1-2" data-name="图层 1"><ellipse class="cls-1" cx="113.43" cy="113.57" rx="113.43" ry="113.57"/><path class="cls-2" d="M17.41,135.69c.14-1,.25-1.93.41-2.9a22.59,22.59,0,0,1,3.6-9A5.61,5.61,0,0,1,23,122.11a.61.61,0,0,0,.27-.34c.42-1.38.86-2.76,1.29-4.15,0-.1,0-.22.07-.34-.24,0-.33.18-.46.29a10.4,10.4,0,0,1-2.84,1.79c-.7.27-1.44.5-2.08-.09a1.83,1.83,0,0,1-.29-2,17.18,17.18,0,0,1,3.73-6.48,15.27,15.27,0,0,1,4.85-3.89,1.7,1.7,0,0,1,1.84.15c.38.38.47.12.55-.18A16.49,16.49,0,0,1,31,104c-.26.16-.4.24-.54.34a19.28,19.28,0,0,1-3.94,2.15,4.3,4.3,0,0,1-1.27.31,1.16,1.16,0,0,1-1.29-1.57,6.47,6.47,0,0,1,1.22-2.32,21.39,21.39,0,0,1,6-5.22l.53-.33a9,9,0,0,1-1.36-.09,1.36,1.36,0,0,1-1-2.16,8.78,8.78,0,0,1,1.88-2.36A16,16,0,0,1,40,88.46a3.78,3.78,0,0,1,2.3.18,1.55,1.55,0,0,1,1,2,16.19,16.19,0,0,0,2-2.07,17.86,17.86,0,0,1,5.85-5.39,3,3,0,0,1,1.45-.5c.45,0,.53-.26.48-1-.15,0-.24.07-.35.13a11.9,11.9,0,0,1-2.92,1.34c-.15,0-.31.07-.38.26a2.81,2.81,0,0,1-.93,1.17,12.56,12.56,0,0,1-6.31,2.91,16.49,16.49,0,0,1-4,.41A3.15,3.15,0,0,1,37,87.56a.85.85,0,0,1-.37-1.4,6.08,6.08,0,0,1,1.69-1.47,17.66,17.66,0,0,1,4.15-1.83c.29-.09.41-.14.2-.47a1.52,1.52,0,0,1,.19-1.94,7.53,7.53,0,0,1,2-1.74,16.18,16.18,0,0,1,8.2-2.23,5.46,5.46,0,0,1,1.45.15c1.24.32,1.46.64,1.41,1.88l.43-.26a17.7,17.7,0,0,1,7.89-2.79,6.84,6.84,0,0,0,2.22-1c-.12,0-.23,0-.34,0a23.84,23.84,0,0,1-5.66-.25,4.58,4.58,0,0,1-1.6-.57,1,1,0,0,1-.1-1.78A6.41,6.41,0,0,1,60.37,71a21.31,21.31,0,0,1,7.55-1.64l.39,0,.07-.06L68,69a3,3,0,0,1-1.08-1.3,1.24,1.24,0,0,1,.37-1.58,4.78,4.78,0,0,1,1.46-.78,17.16,17.16,0,0,1,6.59-.92,5,5,0,0,1,.87.06c.44.1.61-.05.71-.49A2.1,2.1,0,0,1,78,62.61a6.34,6.34,0,0,1,2.74-.8,17.26,17.26,0,0,1,10.59,2.61c1.36.85,1.3,2.26-.1,3.06a7.32,7.32,0,0,1-3.41.72,20.75,20.75,0,0,1-4.24-.27c-.27,0-.45,0-.56.28a1.75,1.75,0,0,1-.76.81c-.23.14-.47.28-.69.44q2.73-.54,5.49-.94a109,109,0,0,1,14.67-1c.21,0,.59.15.58-.21s-.35-.08-.54-.09a20.41,20.41,0,0,1-9.34-2.36A6.37,6.37,0,0,1,91.2,64a2.76,2.76,0,0,1-.6-.76,1.29,1.29,0,0,1,.91-2,7.17,7.17,0,0,1,2.77-.1,22.34,22.34,0,0,1,8.5,2.88,7.66,7.66,0,0,1,.88.61c.39.3.72.62.57,1.19-.07.22,0,.38.3.28a11.57,11.57,0,0,1,6,0l.48.1c-.25-.33-.43-.6-.65-.85a1.5,1.5,0,0,1-.28-1.5.86.86,0,0,1,.75-.68,2.42,2.42,0,0,1,1.42.29,17.32,17.32,0,0,1,6.08,5.27,2.71,2.71,0,0,1,.22.38c.35.72.13,1.11-.77,1.17a11.54,11.54,0,0,0,2.25.73,10.72,10.72,0,0,1,5,2.14,8.16,8.16,0,0,0,1.19.66,67.76,67.76,0,0,1,10.57,7.13A35.69,35.69,0,0,1,143,87.47a3.25,3.25,0,0,0,.68.71l-.17-.31a60.39,60.39,0,0,0-6.88-9.12c-.85-1-1.64-2.07-2.54-3-.22-.25-.42-.47-.82-.36a1.2,1.2,0,0,1-.75-.17,6.85,6.85,0,0,1-2.61-2,16.23,16.23,0,0,1-1.83-2.6c-.11-.18-.19-.3-.45-.21a1.22,1.22,0,0,1-1-.23,4.53,4.53,0,0,1-.9-.68,18.71,18.71,0,0,1-4.16-5.81,1.61,1.61,0,0,0-.71-.83c-.31-.18-.59-.4-.89-.59s-.76-.7-1.31-.11c-.3.31-.84.17-1.27.06a9.1,9.1,0,0,1-3.29-1.68.45.45,0,0,0-.66,0,3.49,3.49,0,0,1-2.24.56,16.49,16.49,0,0,1-8.79-2.58,4.5,4.5,0,0,1-1.24-1.1,1.14,1.14,0,0,1,.55-1.89,6.67,6.67,0,0,1,2.17-.31.41.41,0,0,0,.29-.13l-2.83-.67-2.09-.47c-.12,0-.27-.11-.36,0a2.35,2.35,0,0,1-1.28.77,3.82,3.82,0,0,1,1,.95,1,1,0,0,1,0,1.43,3,3,0,0,1-1.27,1,14.57,14.57,0,0,1-8.87.66A3.34,3.34,0,0,1,87,58a.94.94,0,0,1-.1-1.46,3.51,3.51,0,0,1,1.31-.84,16,16,0,0,1,4.37-1c.36,0,.71-.08,1.07-.15-1.08-.22-2.16-.45-3.22-.74-.54-.15-1.08-.28-1.6-.47a3.52,3.52,0,0,0-2.79.11,12.26,12.26,0,0,1-5.22.81c-.37,0-.57.06-.69.47a2.91,2.91,0,0,1-1.3,1.53A15,15,0,0,1,73,58.43a10.5,10.5,0,0,1-3.75,0c-1-.22-1.36-.54-1.57-1.56l-2,.65a47.26,47.26,0,0,0-8.32,3.38c-.28.15-.47.25-.32.65a1.47,1.47,0,0,1-.28,1.25,8.69,8.69,0,0,1-2.13,2.27,18.49,18.49,0,0,1-8.46,4,6.8,6.8,0,0,1-2.38,0,1.24,1.24,0,0,1-1-2,6.47,6.47,0,0,1,1.53-1.77,19.89,19.89,0,0,1,10.91-4.94,1.39,1.39,0,0,1,.9.11.36.36,0,0,0,.41,0,52.12,52.12,0,0,1,9.69-3.91.41.41,0,0,0,.2-.13c-.9,0-1.8,0-2.69-.14a.21.21,0,0,0-.23.14,2.59,2.59,0,0,1-1.21,1,25.54,25.54,0,0,1-9.26,2.6,7.06,7.06,0,0,1-2.33-.19c-1-.25-1.25-.94-.58-1.77a4.44,4.44,0,0,1,1.28-1,17.87,17.87,0,0,1,7.81-2.44l.25,0s0,0,.11-.06a1.5,1.5,0,0,1-.17-1.29,2.35,2.35,0,0,1,1.1-1.06,13.93,13.93,0,0,1,5.56-1.57,17.18,17.18,0,0,1,5.16.17c.21,0,.33,0,.33-.25A1.68,1.68,0,0,1,72.84,49a8.85,8.85,0,0,1,3-.58,24.13,24.13,0,0,1,6.45.65c.36.08.59.14.71-.36s.72-.89,1.29-1.09a9.47,9.47,0,0,1,4-.33,18.58,18.58,0,0,1,9,3.52,7.54,7.54,0,0,1,1.45,1.07c.1.12.28.23.31.37.15.61.65.58,1.1.65,1,.17,2,.33,3.06.43l-.5-.22a25.17,25.17,0,0,1-7.1-4.62,8.28,8.28,0,0,1-1.36-1.53,1.24,1.24,0,0,1,1-2.07,4.85,4.85,0,0,1,2.07.25,22.68,22.68,0,0,1,8.2,4.89,3.44,3.44,0,0,1,1.19,1.81c.26,1.36-.19,1.94-1.59,2l4.14,1.41-.26-.51a8.91,8.91,0,0,1-1.26-3.41,1.84,1.84,0,0,1,.53-1.84c.64-.46,1.29-.17,1.89.13a14.6,14.6,0,0,1,3.54,2.59,21,21,0,0,1,4.84,6.34c.25.56.46,1.14.7,1.72a.52.52,0,0,0,.2.27l1.5,1a12,12,0,0,1-.06-1.31.91.91,0,0,1,1.3-.91,4.27,4.27,0,0,1,1.59.94,17.07,17.07,0,0,1,3.4,4.39c.15.26.24.44.6.21a1.17,1.17,0,0,1,1.17,0,6.23,6.23,0,0,1,1.57,1.07,14.16,14.16,0,0,1,3.85,5.92,2.92,2.92,0,0,1,.31,2c-.06.16.09.26.19.36A112.92,112.92,0,0,1,148,92.67c.44.75.89,1.48,1.34,2.23a1,1,0,0,0,.11.13c.06-.19,0-.32-.1-.45-2.46-5.89-5.09-11.69-8.09-17.32-1-1.94-2.23-3.8-3.35-5.69-.05-.1-.11-.21-.24-.21a2.39,2.39,0,0,1-1.52-.8A20.45,20.45,0,0,1,133,67c-.61-.84-1.16-1.73-1.76-2.59a1.78,1.78,0,0,1-.18-1.63c.18-.57.67-.6,1.19-.61a3.24,3.24,0,0,0-.52-.93c-.08-.14-.18-.09-.28,0a.86.86,0,0,1-1,.06,4.9,4.9,0,0,1-1.38-.92,15.31,15.31,0,0,1-2.34-2.68c-.46-.66-.84-1.37-1.35-2a2.62,2.62,0,0,1-.48-1.26c-.2-1.12.1-1.52,1.28-1.6-.37-.49-.47-1.1-1.25-1.23a3.54,3.54,0,0,1-1.63-1,22.16,22.16,0,0,1-4.56-5.64,2.8,2.8,0,0,1-.35-1.15c-.08-.79.28-1.16,1.3-1.32l-1.18-1.86c-.08-.12-.16-.19-.32-.1a1.19,1.19,0,0,1-1.13,0,7.85,7.85,0,0,1-2.27-1.41,19,19,0,0,1-5.16-5.81,5.18,5.18,0,0,1-.67-2c-.06-1,.57-1.53,1.55-1.21a6.76,6.76,0,0,1,2,1.08c.28.2.56.42.94.71a4.51,4.51,0,0,0-.78-1.34,18.84,18.84,0,0,1-1.64-2.13c-.07-.13-.14-.25-.33-.22a2.47,2.47,0,0,1-1.67-.58,17.45,17.45,0,0,1-3.71-3.67,33.77,33.77,0,0,1-2.87-4.42,3.79,3.79,0,0,1-.57-2.33c.11-1.19.81-1.64,1.93-1.21a8.38,8.38,0,0,1,3.49,2.69c.27.32.46.49.9.21a1.29,1.29,0,0,1,1.35.08,6.2,6.2,0,0,1,1.5,1.25,13,13,0,0,1,1.87,2.5,30.87,30.87,0,0,1,2.47,5.58,6.37,6.37,0,0,1,.35,2.17c0,1-.35,1.34-1.34,1.39.9,2.09,2.51,3.71,3.55,5.7a35.26,35.26,0,0,1-1.16-3.88,8.45,8.45,0,0,1-.09-4.18c.14-.48.33-.6.81-.47a2.18,2.18,0,0,1,1.21,1,18.05,18.05,0,0,1,1.82,3.62l.24.63c.18,0,.2-.16.26-.27a1.22,1.22,0,0,1,1.21-.74,1.44,1.44,0,0,1,1.33,1,16.59,16.59,0,0,1,.76,3,19,19,0,0,1,.32,4.19.81.81,0,0,0,.21.57,19,19,0,0,1,4,9,2.89,2.89,0,0,1,0,.59c-.06,1-.55,1.36-1.52,1a1.41,1.41,0,0,0-.38-.11,9.66,9.66,0,0,0,1.22,1.8,21.33,21.33,0,0,1,2.59,3.67,6.47,6.47,0,0,1,.95,2.63,1.12,1.12,0,0,0,0-1.08,17,17,0,0,1-1.7-9.88,5,5,0,0,1,.25-1,.79.79,0,0,1,1.2-.5,2.13,2.13,0,0,1,.95.95,13,13,0,0,1,1.16,3.32c.08.3.11.49.53.5a1.59,1.59,0,0,1,1.34.94,8.65,8.65,0,0,1,1,3,24,24,0,0,1,.44,6.77,3.34,3.34,0,0,1-.39,1.35c-.07.12-.12.22,0,.36a18.74,18.74,0,0,1,1.91,3.89c0-.35-.08-.7-.1-1.06a19.56,19.56,0,0,1,.09-3.9.7.7,0,0,1,.46-.58,1,1,0,0,1,1,.13,2,2,0,0,1,.56.8,17.7,17.7,0,0,1,1.45,8.16c-.06.67-.12,1.41-.9,1.78-.24.11,0,.29.05.4.72,1.37,1.47,2.73,2.19,4.1,3.27,6.22,6.56,12.43,9.35,18.89.66,1.52,1.29,3.06,1.94,4.6a1.11,1.11,0,0,0,.31.45c-.14-.52-.26-1.05-.41-1.57-1.16-4.06-2.06-8.17-2.94-12.3-.8-3.82-1.48-7.66-2.24-11.49s-1.44-7.6-2.22-11.39c-.71-3.43-1.31-6.88-2-10.31-.83-4.2-1.47-8.45-2.54-12.6-.59-2.29-1.38-4.52-2-6.78-1-3.42-1.88-6.87-2.86-10.29-.75-2.65-1.57-5.28-2.37-7.92-.57-1.91-1.33-3.74-2-5.62a1,1,0,0,1,0-.18h.2c1.06,1.93,2,3.94,2.92,5.92a96.38,96.38,0,0,1,3.86,9.5c2.17,6.09,4.42,12.16,6.55,18.26s4.39,12.13,6.54,18.21c2.52,7.15,5.15,14.27,7.42,21.51a.55.55,0,0,0,.21.32c-.06-.78-.13-1.57-.2-2.35s-.09-1.33-.09-2c0-1.6-.16-3.19-.14-4.79s-.07-3.26-.1-4.89-.1-3.48-.2-5.22c-.13-2.12-.06-4.24-.06-6.36,0-.81.11-1.62.08-2.44-.08-2.18-.16-4.36-.22-6.54,0-1.62-.12-3.25-.19-4.88s-.24-3.39-.36-5.09c0-.65-.07-1.3-.09-2,0-1.67-.21-3.33-.32-5s-.29-3.59-.49-5.37-.37-3.44-.55-5.16a24.64,24.64,0,0,1-.22-4,2.17,2.17,0,0,1,.06-.34,8.69,8.69,0,0,1,.51,1.25c1.23,4.93,2.66,9.81,4,14.71.66,2.47,1.11,5,1.7,7.47.67,2.84,1.34,5.68,2,8.53q1.22,5.29,2.41,10.6T170.72,73c.65,3,1.33,6,1.86,9,.39,2.19.74,4.38,1.09,6.57.27,1.61.54,3.21.77,4.82.2,1.39.32,2.79.51,4.18.27,2,.38,4,.57,5.94.12,1.38.2,2.76.2,4.14,0,2.3.16,4.6.12,6.9,0,.5-.13,1-.1,1.62.41-1,.79-1.77,1.12-2.61.73-1.86,1.54-3.68,2.24-5.55a79.29,79.29,0,0,0,2.6-8.27c.54-2.15,1.07-4.31,1.52-6.48.33-1.58.59-3.18.84-4.78s.49-3.32.65-5a62,62,0,0,0,.22-6.68c0-1.27,0-2.54-.12-3.81a11.38,11.38,0,0,0-.26-1.91,1.25,1.25,0,0,1,0-.34c0-.15,0-.34.2-.37a.4.4,0,0,1,.44.25,4.51,4.51,0,0,1,.32,1.25c.2,1.31.35,2.62.42,4,.09,1.61,0,3.23.12,4.83.25,3.35.12,6.71.19,10.07.05,2.19-.05,4.39-.15,6.59-.06,1.39-.09,2.79-.18,4.19-.11,1.76-.28,3.52-.37,5.29-.05,1-.13,2-.22,3-.12,1.38-.27,2.76-.5,4.13-.34,2-.74,3.94-1.16,5.9a149.12,149.12,0,0,1-4.21,16c-.59,1.78-1,3.61-1.52,5.41a.58.58,0,0,0,0,.19c0,1.63-.12,3.25-.1,4.88a88.18,88.18,0,0,0,3.53,22.94c1.31,4.65,2.64,9.29,4.27,13.83.3.83.65,1.64,1,2.46a.72.72,0,0,1-.34,1.07c-.71.44-1,.44-1.37,0a9.19,9.19,0,0,1-.63-.87c-.11-.16-.15-.21-.35-.05a.59.59,0,0,0-.16.92c.22.36.4.74.59,1.12s.25.57-.23.77-.89.18-1.32.35c-.24.09-.36-.16-.45-.35-.27-.58-.52-1.16-.78-1.75-.08-.18-.13-.36-.39-.36a.35.35,0,0,1-.26-.12,13.13,13.13,0,0,1-2.07-2.33,74.81,74.81,0,0,1-4.2-9.63c-1.3-3.54-2.82-7-4.15-10.53a59.3,59.3,0,0,1-3-10.52,41.92,41.92,0,0,1-.53-4.47c-.07-1.14-.07-2.28-.06-3.41,0-.93.11-1.85.19-2.77a3.47,3.47,0,0,0-.28-1.47c-.78-2.31-1.6-4.59-2.43-6.87a17.23,17.23,0,0,0-9.44-9.87c-1.82-.86-3.58-1.86-5.48-2.55a22.71,22.71,0,0,0-7.34-1.28c-.35,0-.64,0-.73.48a1.53,1.53,0,0,1-.7.85,17.47,17.47,0,0,1-7.32,3.21,3.93,3.93,0,0,1-1,0,.93.93,0,0,1-.86-1.36,7.82,7.82,0,0,1,.39-.84l-1.73.84c-.1,0-.11.15-.11.25a3.49,3.49,0,0,1-.59,2,16.55,16.55,0,0,1-4.18,4.94,4.16,4.16,0,0,1-1.44.8c-.85.25-1.32-.09-1.28-1a7,7,0,0,1,.88-2.88,1.45,1.45,0,0,0,.18-.44,19.81,19.81,0,0,0-3.53,3c.45,0,.88-.13,1.21.22a1.87,1.87,0,0,1,.46,1.36,6,6,0,0,1-.29,1.63,16.25,16.25,0,0,1-3.16,6.34,9,9,0,0,1-.68.7c-.16.14-.38.31-.57.25-.57-.17-.65.23-.81.6a21.26,21.26,0,0,1-1.64,3,5.43,5.43,0,0,1-1.07,1.27c-.54.45-.84.44-1.38,0-.17.09-.21.27-.3.41a15.27,15.27,0,0,1-2.41,3.13,5.06,5.06,0,0,1-1.3,1c-.74.35-1.2.12-1.34-.68a6.29,6.29,0,0,1,.25-2.76,17.12,17.12,0,0,1,4.79-8.27,15.75,15.75,0,0,0,1.72-2.29c-.13-.16-.23-.05-.32,0a4.86,4.86,0,0,1-1,.24c-.94.08-1.37-.36-1.24-1.31a4,4,0,0,1,.52-1.47,14.63,14.63,0,0,1,6.61-6,3.27,3.27,0,0,1,1.19-.27c.75,0,1.11.21,1.5,1.09a27.78,27.78,0,0,1,5.8-3.93.73.73,0,0,0-.57.11,15.92,15.92,0,0,1-4.28,1.18,3.52,3.52,0,0,1-1.21,0,.72.72,0,0,1-.49-1.19,3.13,3.13,0,0,1,.62-.69,13.07,13.07,0,0,1,6.29-3.27c.3-.06.41-.13.38-.46a1.24,1.24,0,0,1,.58-1,8.07,8.07,0,0,1,3.91-1.68,14.35,14.35,0,0,1,4.76-.1,1.77,1.77,0,0,1,.51.15c.9.4,1,1.1.26,1.74a4.81,4.81,0,0,1-1.67.89,25.48,25.48,0,0,1-4.2,1.11c-.11,0-.26,0-.31.1-.36.8-1.12,1.15-1.78,1.63.05,0,.09,0,.11,0,1.76-1,3.69-1.56,5.5-2.4a9.59,9.59,0,0,1,4.71-1.06c.8.06,1.59.07,2.43.06-.12-.2-.3-.22-.45-.28a7.1,7.1,0,0,1-1.76-1c-.71-.63-.57-1.31.34-1.59a5.82,5.82,0,0,1,2.81-.11,10.08,10.08,0,0,1,4.94,2.08,1.2,1.2,0,0,1,.26,1.79,35.22,35.22,0,0,1,7,3,27.83,27.83,0,0,1,6.27,4.25c-.24-.73-.52-1.44-.72-2.18a24.35,24.35,0,0,0-1.77-4.21,67.67,67.67,0,0,0-14.64-19.79,28.27,28.27,0,0,0-2.7-2.18c-.14-.11-.26-.22-.47-.09a11.48,11.48,0,0,1-5.5,1.35,15.29,15.29,0,0,1-5.08-.55,2.63,2.63,0,0,1-1.42-.8c-.19-.23-.4-.09-.59,0a26.28,26.28,0,0,1-4,.6,11.35,11.35,0,0,1-3.39-.25c-.4-.1-.82-.22-.94-.68s.19-.81.52-1.09a7.81,7.81,0,0,1,2-1.23A20.55,20.55,0,0,1,128.25,95a7.91,7.91,0,0,1,2.66,0,2.67,2.67,0,0,1,1.77.95.31.31,0,0,0,.34.12l1.94-.29c-.12-.18-.32-.19-.47-.25a27,27,0,0,0-7.18-1.37,4.52,4.52,0,0,1-.53-.06c-.28,0-.41,0-.56.3a2.39,2.39,0,0,1-1.53,1.13,7.59,7.59,0,0,1-2.12.3,23.77,23.77,0,0,1-3.27-.09,3,3,0,0,0-1.16.11,60.71,60.71,0,0,0-15.77,7.22.86.86,0,0,0-.36.32,8.12,8.12,0,0,1-2.94,2.94c-.1.06-.24.1-.29.3a1.47,1.47,0,0,1,1-.13A1.26,1.26,0,0,1,101,107.8a2.88,2.88,0,0,1-.11,1,18.13,18.13,0,0,1-4.62,8,7.56,7.56,0,0,1-2.22,1.58,2.29,2.29,0,0,1-1.52.25c-.32-.07-.34.16-.43.34a25.6,25.6,0,0,1-2.58,4.37,9.69,9.69,0,0,1-3,2.91.85.85,0,0,0-.32.47A18.78,18.78,0,0,1,83,132.2a5.84,5.84,0,0,1-1.91,1.51,1.37,1.37,0,0,1-2.15-1.07,6.36,6.36,0,0,1,.17-2.81,21.25,21.25,0,0,1,2.79-6.75c.07-.1.13-.22.2-.34-.13,0-.16.05-.19.1a64.54,64.54,0,0,0-4.29,6.66c-.15.28-.2.46.1.68a.89.89,0,0,1,.27.66,4.28,4.28,0,0,1-.27,1.87,22.32,22.32,0,0,1-3.46,6.1,5.73,5.73,0,0,1-1.82,1.61c-1,.55-1.64.16-1.6-1a10,10,0,0,1,.74-3.08A15,15,0,0,1,74,132.09a6.52,6.52,0,0,1,2.26-2,.44.44,0,0,0,.24-.29c.2-.64.54-1.22.8-1.86l-.36.39a9.69,9.69,0,0,1-2.68,2.17,2.84,2.84,0,0,1-1.36.38,1,1,0,0,1-1-1,3.2,3.2,0,0,1,.39-1.54,13.42,13.42,0,0,1,3.36-4.23,7,7,0,0,1,1.54-1.1,1.79,1.79,0,0,1,1-.18,1.2,1.2,0,0,1,1.18,1.62c0,.1,0,.21-.09.44l3.15-4.45a.68.68,0,0,0-.44.17,9.71,9.71,0,0,1-2.51,1.06l-.19.05c-1.28.2-1.78-.4-1.34-1.6a8.5,8.5,0,0,1,1.65-2.53,13.92,13.92,0,0,1,5.84-3.89,1.57,1.57,0,0,1,1.88.37c.12.13.2.19.35,0,1.57-1.72,3.27-3.32,5-4.9v-.08c-.33,0-.67,0-1,0a1.06,1.06,0,0,1-1-1.52,5.66,5.66,0,0,1,1.19-1.89,15.38,15.38,0,0,1,7.42-4.49,4.39,4.39,0,0,1,1.84-.15,1.19,1.19,0,0,1,1,.72c.07.18.15.22.33.11,1.41-.89,2.87-1.72,4.33-2.55-.89.13-1.78.28-2.67.4a5.6,5.6,0,0,1-2-.05c-.86-.18-1.08-.83-.51-1.51a6.22,6.22,0,0,1,1.76-1.38,18.94,18.94,0,0,1,7.5-2.33,3.88,3.88,0,0,1,2.46.42c.64.39.74.5.65,1.28l2.4-.81c0-.18-.2-.15-.31-.18a8.41,8.41,0,0,1-2.4-1c-.85-.53-.84-1.22,0-1.71a9.84,9.84,0,0,1,4.23-1.06,16.82,16.82,0,0,1,6.93.91A3.66,3.66,0,0,1,126,93a1.16,1.16,0,0,0,.74.19,31.31,31.31,0,0,1,7.45,1.26,28.06,28.06,0,0,1,3.19,1.24,2.83,2.83,0,0,0,1,.25,4.33,4.33,0,0,1,3,1.38.86.86,0,0,1,.28.39c.09.57.55.82.95,1.11a29.88,29.88,0,0,1,4.13,3.66,70.39,70.39,0,0,1,8.95,11c.68,1.07,1.31,2.17,2,3.27.11-.14,0-.24,0-.35a47.83,47.83,0,0,0-5.75-11.75,67.33,67.33,0,0,0-12.6-14.76c-2.35-2-4.69-4-7.23-5.75a12.89,12.89,0,0,0-1.37-.84c-.22-.12-.35-.19-.47.13s-.64.52-1.07.56a7.28,7.28,0,0,1-2.7-.34,13.15,13.15,0,0,1-3.25-1.44,1,1,0,0,0-1-.09,11.31,11.31,0,0,1-6.08.25,8.87,8.87,0,0,1-3.55-1.43,3.54,3.54,0,0,1-1-.94,1.1,1.1,0,0,1-.17-1.11c.13-.29,0-.33-.23-.33l-1,0a.5.5,0,0,0-.46.21A5.08,5.08,0,0,1,108.19,80a16.14,16.14,0,0,1-6,2,5.89,5.89,0,0,1-2.7-.25,1.86,1.86,0,0,1-.71-.32c-.54-.62-1-.33-1.6-.06A15.2,15.2,0,0,1,90.37,83a1.07,1.07,0,0,0-.47.09c-.84.32-1.67.66-2.5,1-.14.06-.35.07-.28.32a2.34,2.34,0,0,1-.65,2.15,15.52,15.52,0,0,1-2.63,2.62A20.09,20.09,0,0,1,79.31,92a5.16,5.16,0,0,1-1.78.47c-1,0-1.44-.53-1.11-1.51.17-.49.47-.92.69-1.43l-2.65,1.7a1.6,1.6,0,0,1,.85,1.31A3.05,3.05,0,0,1,75,94a15.33,15.33,0,0,1-3.36,4.35,13.87,13.87,0,0,1-2.53,2,4.06,4.06,0,0,1-2.14.74c-.26,0-.33.19-.44.34a15.22,15.22,0,0,1-3.11,3.3,6.22,6.22,0,0,1-2,1.12c-.24.07-.32.24-.42.44a25,25,0,0,1-2.77,4.37,7.77,7.77,0,0,1-1.5,1.53c-1.18.88-1.84.72-2.48-.62a.86.86,0,0,0-.27.7,5.53,5.53,0,0,1-.39,3.26A15.46,15.46,0,0,1,50.86,120,3.82,3.82,0,0,1,49.52,121a.8.8,0,0,1-1.22-.61,3.9,3.9,0,0,1,.07-1.89,15.21,15.21,0,0,1,3.13-6.24,4.92,4.92,0,0,1,.65-.72,1.08,1.08,0,0,1,1.1-.21c.11,0,.26.15.34,0a6.18,6.18,0,0,0,.73-1.48,12.17,12.17,0,0,1,5.31-8.22,5.65,5.65,0,0,0,1.63-1.6A16.44,16.44,0,0,1,65,96a2.66,2.66,0,0,1,1.86-.6,1.38,1.38,0,0,0,1-.37,94,94,0,0,1,8.33-5.81,1,1,0,0,0,.45-.38,10.4,10.4,0,0,1-1.48,0A2.33,2.33,0,0,1,74,88.46c-.29-.2-.41-.13-.6.13a15.7,15.7,0,0,1-5.09,4.64,7.32,7.32,0,0,1-2.6,1c-1.22.17-1.76-.48-1.35-1.65a13.9,13.9,0,0,1,1.5-2.69.55.55,0,0,0,.12-.34c-.28.2-.56.4-.83.62-2.06,1.7-4.17,3.34-6.1,5.2a3.56,3.56,0,0,0-.55.68,8,8,0,0,1-2.34,2.26,6.86,6.86,0,0,0-1.36,1.23,2.05,2.05,0,0,1,1.31,2.42,15.56,15.56,0,0,1-5.17,10,4.11,4.11,0,0,1-1.53,1,1.14,1.14,0,0,1-1.66-.9,6.7,6.7,0,0,1,.16-3,17.81,17.81,0,0,1,.8-2.44c-.21.09-.27.25-.36.38-.68,1-1.35,1.92-2,2.89a4.22,4.22,0,0,0-1,2.34,6.34,6.34,0,0,1-.81,2.34,22.21,22.21,0,0,1-4.16,6c-.23.24-.24.36,0,.62a2.16,2.16,0,0,1,.37,1.81,20.13,20.13,0,0,1-.93,3.9,20.69,20.69,0,0,1-3.67,6.64,4.16,4.16,0,0,1-1.11,1,1.21,1.21,0,0,1-1.93-.65,6.21,6.21,0,0,1-.17-3.47,17.32,17.32,0,0,1,2.65-6.63c.06-.1.16-.18.15-.3-1.42-.44-1.83-1.2-1.39-2.64a21.19,21.19,0,0,1,3.52-6.51c.2-.27.25-.41,0-.68a1.47,1.47,0,0,1-.21-1.52,8.48,8.48,0,0,1,1.36-2.7,19.39,19.39,0,0,1,7.92-6.85c1.27-.55,2.08,0,2.11,1.36v.73c1.39-1.36,2.41-3,3.7-4.45-.74.18-1.43.42-2.15.53a6,6,0,0,1-1.8,0A1.65,1.65,0,0,1,47.42,98a7.19,7.19,0,0,1,2.12-2.27,15.92,15.92,0,0,1,3.55-2c.25-.1.48-.13.19-.5s-.15-1,.16-1.4a11.39,11.39,0,0,1,3.42-3.17,15,15,0,0,1,6.61-2c1.19-.1,2.12.09,2.48,1.77,2-1.41,4-2.86,6-4.19-1,.32-2.07.64-3.13.86a13.87,13.87,0,0,1-2.12.3,3.57,3.57,0,0,1-1-.06.83.83,0,0,1-.61-1.17A3.73,3.73,0,0,1,66,82.86,16.25,16.25,0,0,1,72.11,79c.28-.1.46-.16.42-.55a1.43,1.43,0,0,1,.66-1.19,7.37,7.37,0,0,1,1.89-1.12,18,18,0,0,1,8.27-1.59,3,3,0,0,1,1.92,1,.83.83,0,0,1,.13.87,4.21,4.21,0,0,1-.62,1.15c2.12-.73,4.1-1.56,6.17-2.12,0-.21-.2-.16-.3-.18a12.9,12.9,0,0,1-2.6-.67,5.78,5.78,0,0,1-.72-.31c-.36-.2-.73-.43-.74-.9s.36-.74.74-1a10.32,10.32,0,0,1,4.31-1.14,14.85,14.85,0,0,1,5.19.38,4.68,4.68,0,0,1,3.12,2c.17.29.38.13.6.12,0-.2-.17-.27-.27-.37-.63-.72-.5-1.29.41-1.65a5.63,5.63,0,0,1,1.81-.38,14.8,14.8,0,0,1,6.55,1,9.2,9.2,0,0,1,2.65,1.9,1.26,1.26,0,0,0,.67.36,38.83,38.83,0,0,1,7.34,1.83.82.82,0,0,0,.33.09,7.36,7.36,0,0,1,4.28,1.15c3,1.71,6.23,3.11,9,5.16,5.81,4.25,11.21,9,15.47,14.82l.35.45c.09-.2,0-.29-.11-.4A103.7,103.7,0,0,0,140.65,86a45,45,0,0,0-9.8-8.34c-1.59-1.08-3.28-2-4.94-3-.15-.08-.28-.24-.43,0a1.38,1.38,0,0,1-1.2.65,14.4,14.4,0,0,1-8.81-2.21,3.18,3.18,0,0,1-.58-.52.9.9,0,0,1,.42-1.55c.52-.19,1.08,0,1.71-.26-1.08-.33-2.06-.63-3-.91a.51.51,0,0,0-.24,0,15.78,15.78,0,0,1-10.44-1,.38.38,0,0,1-.18-.09c-.57-.65-1.34-.53-2.08-.52a97.14,97.14,0,0,0-18.41,1.74,73.8,73.8,0,0,0-15.8,5.17,1.07,1.07,0,0,0-.49.29.71.71,0,0,0,.47.1.85.85,0,0,1,.81,1.29A3.63,3.63,0,0,1,66.83,78a17.6,17.6,0,0,1-5.23,3.55,17.39,17.39,0,0,1-5.07,1.73A4.86,4.86,0,0,1,53.6,83a2.23,2.23,0,0,1,.08,2.54,15.71,15.71,0,0,1-6.45,6.83,5.24,5.24,0,0,1-1.88.64c-1.28.2-1.8-.37-1.48-1.61,0-.08,0-.16.05-.23-.17-.06-.22.07-.29.14A65.57,65.57,0,0,0,38.24,97c-.22.25-.24.36.06.58A1.8,1.8,0,0,1,39,99.32a6.19,6.19,0,0,1-.3,1.53,22.67,22.67,0,0,1-3.2,6.46,9.25,9.25,0,0,1-2.53,2.42c-1.3.81-2.14.62-3-.66-.21.33-.17.55.16.81a3,3,0,0,1,1,1.88,15.18,15.18,0,0,1,0,5.5A20.61,20.61,0,0,1,29,123.9a7,7,0,0,1-1.36,1.91,2,2,0,0,1-1.32.67c-.36,0-.25.28-.25.46a19.74,19.74,0,0,1-1.46,6.91c-.24.55-.52,1.09-.78,1.63-.07.15-.15.28-.05.45a7.75,7.75,0,0,1,.89,3.58,25.15,25.15,0,0,1-1.33,10.07,6.25,6.25,0,0,1-.93,1.77c-.86,1.09-1.88,1-2.47-.27a10.46,10.46,0,0,1-.78-4.1,26.07,26.07,0,0,1,.64-6.76c.08-.34.05-.46-.35-.39a1.32,1.32,0,0,1-1.33-.66,3.81,3.81,0,0,1-.63-1.73c0-.19-.07-.38-.11-.57ZM161.68,67.28a1.72,1.72,0,0,0-.44,1.15c0,.7.08,1.4.1,2.09,0,1.6,0,3.2.09,4.8.08,3.35,0,6.71.11,10.07,0,.77.08,1.53.14,2.29a7.37,7.37,0,0,0,.13,1.69c.41,1.38.82,2.77,1.26,4.14.93,3,2,5.91,2.68,8.93,1.08,4.44,2.15,8.88,3.29,13.31a62,62,0,0,1,1.4,7.53,20,20,0,0,1,.39,3.8c.21-.09.23-.25.29-.37,1.17-2.41,2.19-4.88,3.31-7.31a6.91,6.91,0,0,0,.62-3.32c-.07-1.43-.11-2.86-.19-4.29s-.13-2.86-.19-4.28c-.09-2.14-.29-4.27-.5-6.39-.12-1.13-.17-2.26-.32-3.38a2.72,2.72,0,0,0-.25-1.3,2.56,2.56,0,0,0-.31,1.29c.09.48.14,1,.23,1.45s.24,1.21.31,1.84c.21,2,.52,4,.67,6a28.75,28.75,0,0,1,.15,4.15,1.57,1.57,0,0,1-.44,1.07l-.21-.41c-1.1,1.9-1.48,3.53-1.1,4.89.09-.25.16-.42.22-.6.25-.76.5-1.52.77-2.27.08-.22.08-.63.44-.5s.08.45,0,.68a.88.88,0,0,1-.07.23c-.4,1.18-.8,2.35-1.21,3.52a2.48,2.48,0,0,0-.14,1,4.24,4.24,0,0,1-.12,1.84c0,.15-.11.37-.26.38s-.18-.23-.25-.37,0-.26-.17-.32a4.5,4.5,0,0,1-1.19,1.87,17.76,17.76,0,0,1,1-2.84c.36-.94,0-1.86,0-2.79-.63,1-.83,2.13-1.81,2.93a2.09,2.09,0,0,1,.28-1.1c.43-.95.86-1.9,1.31-2.85.34-.72,0-1.43,0-2.14-.54.85-.73,1.9-1.61,2.66,0-.2,0-.29.05-.38a12.23,12.23,0,0,1,1.15-2.74c.55-1,.23-2,.19-3-.65,1-.89,2.27-1.89,3.15a1.9,1.9,0,0,1,.28-1,24.18,24.18,0,0,1,1.16-2.47c.58-1,.26-2,.17-3.07a2,2,0,0,0-.25.41,19.09,19.09,0,0,1-.94,2,4.24,4.24,0,0,0-.83,1.86.4.4,0,0,1-.26.38c-.06-.22-.14-.42-.18-.62a24.09,24.09,0,0,1-.32-3.49c-.09-1.4-.31-2.79-.34-4.19,0-.65-.1-1.3-.13-1.95a.36.36,0,0,1,.31-.43c.27,0,.38.16.42.38s0,.47.06.7c.43-.7.68-1.46,1.07-2.14.67-1.13.18-2.22,0-3.34a18.41,18.41,0,0,0-1.13,2.54,1.73,1.73,0,0,1-.92,1.08c.45-.76.11-1.52,0-2.27s-.22-1.77-.35-2.78c-.71,1.19-1,2.47-2,3.44a2.07,2.07,0,0,1,.26-1.09A27.65,27.65,0,0,1,167,94.5a3.7,3.7,0,0,0,.17-2.64,12.57,12.57,0,0,0-1.57,4.75c-.1-.65-.54-1.16-.41-1.87a9.68,9.68,0,0,0-.06-2.13c-.29.32-.42.63-.87.79.49-1.19,1.13-2.25.68-3.54a3.49,3.49,0,0,1-1,1.41,3,3,0,0,1,.5-1.47,3.92,3.92,0,0,0,.44-3,4,4,0,0,1-.05-.9c0-.81,0-1.61-.08-2.42a5.84,5.84,0,0,0-.56.88,1.88,1.88,0,0,0-.31,1.33,1.58,1.58,0,0,1-.35,1.36c-.66-.92-.44-2-.72-3-.19.06-.21.29-.5.27a4.82,4.82,0,0,0,.26-3.13c-.25.13-.29.45-.58.53a4.82,4.82,0,0,1,.4-1.32,1.57,1.57,0,0,0,.13-.71c0-.8-.1-1.59-.14-2.39,0-.36-.23-.76-.18-1a8.34,8.34,0,0,0,0-2.34c-.09-1.28-.2-2.55-.33-3.83C161.77,69.19,161.72,68.24,161.68,67.28ZM25.39,127.17c0-.25.21-.71-.09-1a4.86,4.86,0,0,1-1-2.79c-.1-.79-.43-1-1.16-.62a1.76,1.76,0,0,0-.68.62c-.22.32-.42.66-.63,1a23,23,0,0,0-3.68,11.55,4.75,4.75,0,0,0,.47,2.75A.86.86,0,0,0,20,139a9.7,9.7,0,0,0,3.13-3.48A18.2,18.2,0,0,0,25.39,127.17Zm79.23-51.34A28.52,28.52,0,0,1,102,74.69a.43.43,0,0,0-.19,0,11.14,11.14,0,0,0-2.76.32,9.65,9.65,0,0,1-2.43.51,22.23,22.23,0,0,0-5.06.73,64.76,64.76,0,0,0-16.72,7.33l-1.32.81a1.61,1.61,0,0,1,1.15,1.11l.28-.2a13.85,13.85,0,0,1,5.16-2.47,4.38,4.38,0,0,1,1.68-.26c1.38.17,2.17.47,2.46,1.54a3.44,3.44,0,0,1,1.4-.38c1.18,0,2.09-.73,3.19-1a1.62,1.62,0,0,1-.2-2.53,5.06,5.06,0,0,1,.89-.9,15.39,15.39,0,0,1,8.2-3.59,3.13,3.13,0,0,1,3,1.15c.08.1.14.15.28.09A17,17,0,0,1,104.62,75.83ZM87.1,47.8c-.4,0-.81,0-1.22.06a5.05,5.05,0,0,0-1.78.47.87.87,0,0,0-.47,1.29,2.68,2.68,0,0,0,1,1.08,16,16,0,0,0,3.77,1.82,30.89,30.89,0,0,0,7.24,1.57,4.74,4.74,0,0,0,2.21-.24.73.73,0,0,0,.41-1.14,1.84,1.84,0,0,0-.36-.47,14.09,14.09,0,0,0-1.68-1.39A17.45,17.45,0,0,0,87.1,47.8ZM29.58,110.32a2.52,2.52,0,0,0-.15.27,22.77,22.77,0,0,1-2.62,4.23A10.43,10.43,0,0,0,25,119a15,15,0,0,0-.18,3.9,5,5,0,0,0,.55,2.26c.45.8.84.84,1.61.29a3.65,3.65,0,0,0,.52-.52,8.39,8.39,0,0,0,1.2-2,21.71,21.71,0,0,0,1.87-7.6,10.58,10.58,0,0,0-.29-3.88A1.88,1.88,0,0,0,29.58,110.32Zm150.18.77c-.1.14-.16.18-.18.24-.86,2.09-1.73,4.18-2.58,6.27-1.31,3.23-2.66,6.44-4.17,9.59-.76,1.59-1.47,3.2-2.1,4.85-.77,2-1.09,4.14-1.67,6.2A33.92,33.92,0,0,0,168,148.85a42.75,42.75,0,0,0,2.21,11.25.91.91,0,0,0,.29.53,39.55,39.55,0,0,1-1.24-9.75c-.21,0-.26.25-.46.19a1.07,1.07,0,0,1,.14-.79,3.43,3.43,0,0,0,.36-1.75c0-.41,0-.81.06-1.22a1.07,1.07,0,0,0,0-.28c-.51-.08-.21-.42-.14-.57a13.78,13.78,0,0,0,.56-3.11c-.3.18-.39.52-.82.61.61-1.38,1.38-2.64,1.27-4.18a12.65,12.65,0,0,1-1.52,2.19,1.72,1.72,0,0,1,.31-1.11c.41-.71.81-1.42,1.26-2.1a9.46,9.46,0,0,0,.81-2.75,5.06,5.06,0,0,0-.41.37.53.53,0,0,1-.5.21,19.14,19.14,0,0,0,2.85-6.43,4.84,4.84,0,0,1-1,.92,4.74,4.74,0,0,1,.75-1.37,10,10,0,0,0,1.52-2.94c.33-1,.66-1.93,1-2.9.24-.71.62-1.39.89-2.11.15-.43.34-.85.46-1.29a2.26,2.26,0,0,0,.2-1.15c-.08-.44.45-.87.63-1.34A70.42,70.42,0,0,0,179.76,111.09ZM86.44,67.49a14.06,14.06,0,0,0,3.4-.23,3.13,3.13,0,0,0,1.36-.62c.42-.37.52-.82.23-1.16a3.75,3.75,0,0,0-1.07-1,17.18,17.18,0,0,0-6.73-2,10.34,10.34,0,0,0-4.49.36,3.52,3.52,0,0,0-1.3.75A1,1,0,0,0,78,65.23a5.67,5.67,0,0,0,.63.36A16.92,16.92,0,0,0,86.44,67.49ZM74.58,65h0c-.34,0-.69,0-1,0a13.7,13.7,0,0,0-5.34,1.22c-1,.49-1,1-.3,1.78a2.71,2.71,0,0,0,.41.35,5.78,5.78,0,0,0,2.06,1,16.65,16.65,0,0,0,6.09.56,22.93,22.93,0,0,0,4.41-1,3.64,3.64,0,0,0,1.31-.75c.3-.31.26-.43-.14-.55s-.63-.17-.94-.27a10,10,0,0,1-3.62-1.66A2.79,2.79,0,0,0,75.56,65C75.23,65,74.9,65,74.58,65ZM31.19,96.65a4.9,4.9,0,0,0,.54,0,18.16,18.16,0,0,0,9.49-4.49,5.58,5.58,0,0,0,1.29-1.64c.26-.52.14-.91-.39-1.1A4.28,4.28,0,0,0,40,89.06,15.24,15.24,0,0,0,30.83,94a6.27,6.27,0,0,0-1,1.45c-.27.55-.11.9.47,1.09A2.89,2.89,0,0,0,31.19,96.65ZM86.42,52.51a1.12,1.12,0,0,0-.49-.31A6.65,6.65,0,0,1,83.05,50c-.08-.13-.22-.14-.34-.17A24.41,24.41,0,0,0,75.59,49a6.93,6.93,0,0,0-2.69.63,1,1,0,0,0-.52,1.38,2.34,2.34,0,0,0,.93,1.11,9.32,9.32,0,0,0,3.52,1.2c.84.13,1.69,0,2.52.12a18.33,18.33,0,0,0,3.31.07A8,8,0,0,0,86.42,52.51Zm-41.66,16c.47-.06.94-.09,1.41-.17a18,18,0,0,0,8.92-4.55,5.53,5.53,0,0,0,1.15-1.45.72.72,0,0,0-.36-1.16,1.37,1.37,0,0,0-.89-.16c-.44.07-.87.13-1.3.22a19.25,19.25,0,0,0-9.19,4.8,4.62,4.62,0,0,0-1.19,1.54.52.52,0,0,0,.39.78A4.67,4.67,0,0,0,44.76,68.54ZM29.22,109c0-1.3-.33-1.62-1.22-1.48a3,3,0,0,0-1.27.59,18.66,18.66,0,0,0-6.85,8.52,4,4,0,0,0-.36,1.61.67.67,0,0,0,.84.74,3.33,3.33,0,0,0,1.07-.33,10.68,10.68,0,0,0,3-2.16,27.91,27.91,0,0,0,3.65-4.68A6.07,6.07,0,0,0,29.22,109Zm19.12-5a2.08,2.08,0,0,0,0-.25c-.05-.77-.55-1.07-1.24-.75a15.34,15.34,0,0,0-4.43,3,18.88,18.88,0,0,0-4.09,5.26,4.6,4.6,0,0,0-.41,1.2c-.09.5.09.71.57.88a2,2,0,0,0,1.66-.33,16.78,16.78,0,0,0,4.5-3.31,15.33,15.33,0,0,0,3-4A4,4,0,0,0,48.34,103.93Zm-3.58,7.6c0-.21.06-.53-.18-.65s-.33.2-.49.33a18.06,18.06,0,0,1-3.27,2.21,4.27,4.27,0,0,1-1.66.54.83.83,0,0,0-.69.38A23.43,23.43,0,0,0,35.22,120a4.84,4.84,0,0,0-.41,1.5,1,1,0,0,0,.84,1.09,1.62,1.62,0,0,0,1.25-.25A13.8,13.8,0,0,0,40.78,119a20.38,20.38,0,0,0,3.75-6.31A3.72,3.72,0,0,0,44.76,111.53Zm-20.7,30.31c0-.46,0-.92,0-1.37a12.6,12.6,0,0,0-.56-3.61c0-.12,0-.29-.2-.31s-.18.16-.25.26A11.16,11.16,0,0,1,21,139.07a.87.87,0,0,0-.3.49,25.83,25.83,0,0,0-.69,8.93,6.09,6.09,0,0,0,.67,2.43c.35.62.72.65,1.17.11a5.9,5.9,0,0,0,1-1.85A24.43,24.43,0,0,0,24.06,141.84ZM73.78,53.07a6.43,6.43,0,0,1-1.65-1.24,1.12,1.12,0,0,0-.66-.37,18.41,18.41,0,0,0-7.17.08,10.3,10.3,0,0,0-3.72,1.4c-.76.5-.74,1.07,0,1.64a5,5,0,0,0,2.08.91,16.57,16.57,0,0,0,6.16-.1,1.3,1.3,0,0,0,.48-.22,19.58,19.58,0,0,1,3.4-1.69ZM53.6,80.13a19.15,19.15,0,0,1-4,1.46,4.51,4.51,0,0,1-1.63.24c-.13,0-.3,0-.31-.18s.16-.17.28-.2c.51-.1,1-.16,1.53-.3a14.3,14.3,0,0,0,4.16-1.63c.21-.13.4-.58.75-.14,0,.05.14-.06.19-.12a4.29,4.29,0,0,0,.66-1.08c.09-.27,0-.46-.21-.56A4.6,4.6,0,0,0,53,77,15.87,15.87,0,0,0,45,79.43a5.84,5.84,0,0,0-1.62,1.47,1,1,0,0,0,.23,1.53,2.49,2.49,0,0,0,1.3.48,11.56,11.56,0,0,0,7.24-1.64A7.61,7.61,0,0,0,53.6,80.13Zm1.79,21.75v-.39c0-.48-.09-1-.59-1.14a1.14,1.14,0,0,0-1.25.43c-.42.46-.83.93-1.28,1.35a14,14,0,0,0-3.62,6.33,7.07,7.07,0,0,0-.36,3c.1.84.39,1,1.13.65A5.48,5.48,0,0,0,50.94,111a17,17,0,0,0,3.65-5.62A10.37,10.37,0,0,0,55.39,101.88ZM34.8,96.69c-.23-.1-.42,0-.61.09a17.72,17.72,0,0,0-3.44,1.83,19.65,19.65,0,0,0-5.4,5,5,5,0,0,0-.8,1.67c-.14.54.11.82.67.77a4.32,4.32,0,0,0,1.17-.32,21.91,21.91,0,0,0,4.77-2.85A3.17,3.17,0,0,0,32,102a11.75,11.75,0,0,1,3.54-3.85,1.2,1.2,0,0,0,.49-.92c0-.31-.09-.47-.39-.58S35.07,96.71,34.8,96.69Zm50.46,28.1c0,.4,0,.8.32,1s.71,0,1-.26.4-.32.59-.5a20.41,20.41,0,0,0,4.18-6,1.75,1.75,0,0,0,.26-1.57,1.26,1.26,0,0,1,0-.58,10.21,10.21,0,0,1,1.17-3.65c.1-.2.2-.38,0-.58a.5.5,0,0,0-.58-.12,4.9,4.9,0,0,0-2.36,1.65,26.21,26.21,0,0,0-4.43,9.6C85.34,124.14,85.3,124.5,85.26,124.79ZM33.42,131.7a4.85,4.85,0,0,0,.23,1.65c.23.65.58.76,1.15.36a4.55,4.55,0,0,0,.93-.93A21,21,0,0,0,40,123.23a3,3,0,0,0,0-1.51c-.14-.47-.4-.55-.76-.23A9.17,9.17,0,0,1,37,123a.82.82,0,0,0-.34.27A16.23,16.23,0,0,0,33.42,131.7Zm143.64,13.09a22.15,22.15,0,0,0-.54,2.77c-.21,1.39-.35,2.78-.52,4.17s-.28,3-.36,4.51a24,24,0,0,0,.62,5.72C177,165.69,178,169.35,179,173a73.29,73.29,0,0,0,3.86,11.62c.07.16.09.35.25.46a1.92,1.92,0,0,0,.11-2A35.52,35.52,0,0,1,181.5,179a63.49,63.49,0,0,1-3-11c-.33-2.21-.68-4.42-.94-6.64-.15-1.31-.29-2.63-.38-4-.13-1.83-.24-3.66-.3-5.5a56,56,0,0,1,.21-6.48A1.34,1.34,0,0,0,177.06,144.79Zm-76.71-36.7c0-.7-.23-.93-.93-.8a4.25,4.25,0,0,0-2.16,1.14,19.71,19.71,0,0,0-4.36,5.89,10.08,10.08,0,0,0-.73,2.32,1.18,1.18,0,0,0,.34,1.25c.39.32.79.13,1.15,0a7.12,7.12,0,0,0,2.44-1.77,17.51,17.51,0,0,0,4.1-7.2A2.76,2.76,0,0,0,100.35,108.09ZM55.88,93.29a6.61,6.61,0,0,0,1.41-.1,10.25,10.25,0,0,0,5.32-2.11c.58-.52,1.21-1,1.82-1.48A2.24,2.24,0,0,0,65,89a1,1,0,0,0-.21-1.29,2,2,0,0,0-1.35-.44,15.58,15.58,0,0,0-5.15,1.4A10.74,10.74,0,0,0,54,92.25c-.36.51-.24.79.36.94A6.72,6.72,0,0,0,55.88,93.29Zm30.34,26a2.79,2.79,0,0,0-.94.69,19.91,19.91,0,0,0-5.59,10.22,5.14,5.14,0,0,0-.12,2.37c.18.71.49.86,1.15.58a5.46,5.46,0,0,0,1.84-1.5,18,18,0,0,0,2.88-4.8c0-.09.14-.19,0-.33a2.37,2.37,0,0,0-.44.61,17.78,17.78,0,0,1-1.79,2.44c-.13.14-.36.31-.5.19s.05-.35.17-.49a23.09,23.09,0,0,0,1.73-2.42c.41-.62.4-.62,0-1.29-.85,1-1.36,2.36-2.7,2.9a1.32,1.32,0,0,1,.4-.67,18.51,18.51,0,0,0,2.11-2.86,1.68,1.68,0,0,0,.27-.68,12.29,12.29,0,0,1,.36-1.57A32.64,32.64,0,0,1,86.22,119.25Zm7-57.57c-.43,0-.84,0-1.24.12s-.73.06-.85.46a1.07,1.07,0,0,0,.36,1,3.73,3.73,0,0,0,.35.34,8.54,8.54,0,0,0,2,1.21,21.23,21.23,0,0,0,7.68,1.71,3.39,3.39,0,0,0,1.54-.23c.4-.17.51-.44.23-.76A5.43,5.43,0,0,0,102,64.27,21.52,21.52,0,0,0,93.22,61.68Zm2.4-16.18h-.39c-.73.06-.93.43-.53,1a5.29,5.29,0,0,0,.67.83,23.41,23.41,0,0,0,8.31,5.35,4.74,4.74,0,0,0,1.48.33c.62,0,.89-.3.74-.89a3.56,3.56,0,0,0-.92-1.73A23.67,23.67,0,0,0,98,46,6,6,0,0,0,95.62,45.5Zm22.75,14.42c-.13-.33-.2-.52-.28-.71a15.89,15.89,0,0,0-2.66-4.2,19.81,19.81,0,0,0-5.51-4.77c-.42-.23-.91-.56-1.37-.22s-.32.89-.25,1.37a9.88,9.88,0,0,0,1.59,3.71,1.94,1.94,0,0,0,1,.87c.63.26,1.24.57,1.85.88C114.6,57.79,116.43,58.79,118.37,59.92ZM49.5,100a12.71,12.71,0,0,0,5-1.5,1.7,1.7,0,0,0,.42-.34c1-1,1.95-1.92,2.95-2.86a.56.56,0,0,0,.05-.89,1,1,0,0,0-.69-.43,9.76,9.76,0,0,0-2.86.05,12.16,12.16,0,0,0-5.75,3.46,3.4,3.4,0,0,0-.69,1.06.88.88,0,0,0,.59,1.31A3.49,3.49,0,0,0,49.5,100ZM63.72,73.78a19,19,0,0,0,8.08-1.44,4.52,4.52,0,0,0,1.39-.89c.12-.13.28-.26.2-.46a.57.57,0,0,0-.47-.38l-.73-.1a14.11,14.11,0,0,0-4-.53c-.48.06-1,0-1.46.1A18.92,18.92,0,0,0,59.87,72a4.1,4.1,0,0,0-.66.42c-.26.22-.23.45.06.63a3.23,3.23,0,0,0,1,.41A18.26,18.26,0,0,0,63.72,73.78ZM30.53,107.83c0,.85.2,1.3.63,1.54a1.27,1.27,0,0,0,1.37-.22A8.49,8.49,0,0,0,34.79,107,21.11,21.11,0,0,0,38,100.48a3.59,3.59,0,0,0,.21-1.59.83.83,0,0,0-.52-.76c-.36-.13-.52.17-.71.39-2.21,2.68-4.2,5.52-6.13,8.4A1.84,1.84,0,0,0,30.53,107.83Zm74.25-52a8,8,0,0,0-2.66.21c-.59.19-.67.5-.29,1a3.77,3.77,0,0,0,1,.82,15.39,15.39,0,0,0,8.79,2.46,3.27,3.27,0,0,0,1.23-.26c.34-.14.44-.28.09-.56a17.5,17.5,0,0,1-2.09-2,1.1,1.1,0,0,0-.43-.31A12.26,12.26,0,0,0,104.78,55.83ZM77.63,79.6a11.7,11.7,0,0,0,5.66-1.77,3.68,3.68,0,0,0,1.27-1.27.6.6,0,0,0-.2-.91,3.67,3.67,0,0,0-2.38-.5,18.09,18.09,0,0,0-7.31,1.93,3.91,3.91,0,0,0-1.3.94c-.3.36-.26.61.1.91a2.44,2.44,0,0,0,1.06.48A9.77,9.77,0,0,0,77.63,79.6Zm37.48-49.45c0-.12,0-.22,0-.32a2,2,0,0,0,0-.34,22.89,22.89,0,0,0-3.71-8,11.15,11.15,0,0,0-1.08-1.2,3.71,3.71,0,0,0-1-.8.82.82,0,0,0-1.09.25A1.16,1.16,0,0,0,108,21,31.63,31.63,0,0,0,112,28.53a9.06,9.06,0,0,0,2,2.18c.25.2.56.49.86.34S115.09,30.46,115.11,30.15ZM53.31,84.23a.73.73,0,0,0-.61-.78,1.53,1.53,0,0,0-1.21.22,16.94,16.94,0,0,0-4.79,4,11.49,11.49,0,0,0-2.19,3.94c-.2.61,0,.79.61.71a4.45,4.45,0,0,0,1.71-.54,15,15,0,0,0,6.23-6.62A2.06,2.06,0,0,0,53.31,84.23Zm38.82,24.28c.1,0,.35,0,.58-.09a18.19,18.19,0,0,0,7.24-3.59,5.22,5.22,0,0,0,1.22-1.39,2.8,2.8,0,0,0,.3-.66c.16-.61-.12-1-.74-1a12.5,12.5,0,0,0-1.5.16,12.24,12.24,0,0,0-5.52,2.77,8.37,8.37,0,0,0-2.36,2.76C91,108.25,91.16,108.54,92.13,108.51ZM89.86,82.22l.36-.11a61.63,61.63,0,0,1,7.5-2.5.41.41,0,0,0,.33-.25,3.88,3.88,0,0,1,1.74-1.84c.42-.25.42-.4,0-.67a3.61,3.61,0,0,0-2.57-.55,15.43,15.43,0,0,0-7.5,3.64,3.14,3.14,0,0,0-.68.77.9.9,0,0,0-.18,1C89.05,82.05,89.46,82.12,89.86,82.22ZM52.67,59.46a24.84,24.84,0,0,0,9.5-2.67,2.77,2.77,0,0,0,.48-.34c.09-.06.21-.14.17-.27s-.16-.09-.25-.11a6.79,6.79,0,0,1-2.08-.82.77.77,0,0,0-.47-.12,17.52,17.52,0,0,0-8.49,2.6,3.14,3.14,0,0,0-.94.84c-.26.36-.2.54.23.67A7.15,7.15,0,0,0,52.67,59.46ZM134.9,100a19.53,19.53,0,0,0,2.72-.2,9.34,9.34,0,0,0,3-.94c.62-.33.65-.65.12-1.11a4.22,4.22,0,0,0-1.67-.89,13.24,13.24,0,0,0-2.94-.38,15.06,15.06,0,0,0-4.32.59,4.22,4.22,0,0,0-1.7.83c-.64.52-.58,1,.18,1.36a8.09,8.09,0,0,0,.83.28A15.54,15.54,0,0,0,134.9,100ZM73,85.06a2.26,2.26,0,0,0-1.3.46c-1,.66-2,1.27-2.9,2A14,14,0,0,0,65,92.85a.38.38,0,0,0,0,.1c-.1.47,0,.6.49.57a5,5,0,0,0,2.12-.68A15.46,15.46,0,0,0,72.8,88.2a11,11,0,0,0,1-1.94C74.16,85.54,73.82,85.06,73,85.06Zm37.43-57.61a.9.9,0,0,0-.21-.51,37.11,37.11,0,0,1-1.9-3.58,10.59,10.59,0,0,1-1.1-3.68.56.56,0,0,0-.15-.35,8.75,8.75,0,0,0-3-2.56c-.38-.17-.83-.54-1.22-.21s-.29.86-.22,1.33a3.89,3.89,0,0,0,.5,1.37,25.39,25.39,0,0,0,5.42,7.06A5.14,5.14,0,0,0,110.42,27.45Zm-.71,3.61a6.35,6.35,0,0,0,1.22,3.18A24.73,24.73,0,0,0,115.81,39a5.4,5.4,0,0,0,1.43.83c.22.09.5.26.68,0s-.06-.42-.18-.61c-.77-1.34-1.62-2.64-2.3-4A10.59,10.59,0,0,0,111.11,31a2.57,2.57,0,0,0-.85-.36C109.91,30.57,109.68,30.67,109.71,31.06Zm-18,27.36a14.47,14.47,0,0,0,5.18-1A2.64,2.64,0,0,0,98,56.69.44.44,0,0,0,98,56a2,2,0,0,0-1.52-.84,27.55,27.55,0,0,0-3.52.11,14.77,14.77,0,0,0-4.73,1.1c-.39.18-1,.34-.91.84s.59.56,1,.7A11.52,11.52,0,0,0,91.73,58.42ZM110,69.73c.68,0,1.36-.07,2-.13a3.45,3.45,0,0,0,1.63-.46c.33-.22.36-.49.07-.71-1.14-.83-2.2-1.79-3.72-1.9-.53,0-1.06-.18-1.59-.22a8.53,8.53,0,0,0-4.62.69c-.35.17-.86.29-.87.76s.53.56.89.71A15.21,15.21,0,0,0,110,69.73ZM74.63,92.8c0-.85-.54-1.18-1.31-.79l-.17.1a17.23,17.23,0,0,0-4.54,4,9.8,9.8,0,0,0-1.93,3.47c-.18.64.19,1,.83.85a3.56,3.56,0,0,0,.73-.28,16.1,16.1,0,0,0,6.08-6.2A2.33,2.33,0,0,0,74.63,92.8ZM54.29,82.5a3.55,3.55,0,0,0,1.71.19,15,15,0,0,0,4.91-1.56,17.38,17.38,0,0,0,5.31-3.52,3.08,3.08,0,0,0,.62-.87c.06-.12.12-.25-.07-.32a2.35,2.35,0,0,0-2.1-.15c-3.27,1.6-6.28,3.64-9.37,5.55C55,82,54.68,82.23,54.29,82.5Zm22.2-2.18c-.31,0-.57,0-.82-.06a5.2,5.2,0,0,1-2.47-.68.65.65,0,0,0-.67-.06,16.92,16.92,0,0,0-5,2.8A8.21,8.21,0,0,0,66,83.94c-.13.18-.33.38-.23.61s.43.19.66.19a11.23,11.23,0,0,0,2.51-.34,15.13,15.13,0,0,0,6.84-3.28A3.21,3.21,0,0,0,76.49,80.32Zm2.37,40.81a2.93,2.93,0,0,0,1.13-.27,14.84,14.84,0,0,0,6.3-4.94,3.4,3.4,0,0,0,.38-.63c.26-.56.06-.89-.55-.92a2.79,2.79,0,0,0-1.11.18,12.53,12.53,0,0,0-6.1,5,3.66,3.66,0,0,0-.49,1.06C78.31,121.05,78.39,121.15,78.86,121.13Zm49.37-69.94c0-.09,0-.32-.07-.55a20.09,20.09,0,0,0-3.42-7.82,4.47,4.47,0,0,0-.64-.73.86.86,0,0,0-.94-.25.75.75,0,0,0-.42.81,9.49,9.49,0,0,0,.39,2.65,18.93,18.93,0,0,0,2.47,4.87,4.89,4.89,0,0,0,1.85,1.62C128.12,52.14,128.24,52.06,128.23,51.19Zm-52.32,37a6.32,6.32,0,0,0,4.31-1.55,18.09,18.09,0,0,1,2.64-1.76,1.87,1.87,0,0,0,.4-.27.49.49,0,0,0-.14-.87,3.68,3.68,0,0,0-2.41-.4,13.29,13.29,0,0,0-5.4,2.5,3.56,3.56,0,0,0-1.15,1.54.39.39,0,0,0,.26.61A3.79,3.79,0,0,0,75.91,88.15Zm45.54,7a17.11,17.11,0,0,0,2.39-.15,2.68,2.68,0,0,0,1.49-.67.44.44,0,0,0,0-.74,3.33,3.33,0,0,0-1.58-.81,17.8,17.8,0,0,0-7-.43,8.09,8.09,0,0,0-2.74.85c-.35.19-.32.34,0,.52a6.66,6.66,0,0,0,1.48.63A20.81,20.81,0,0,0,121.45,95.12Zm14.87-33.55a29.41,29.41,0,0,0-.95-6.3A4.11,4.11,0,0,0,134.8,54c-.4-.57-.71-.55-1,.09a6.35,6.35,0,0,0-.42,1.55,12.08,12.08,0,0,0,.48,5.1,5.82,5.82,0,0,0,1.82,3.41c.29.23.35.2.43-.11A13.52,13.52,0,0,0,136.32,61.57Zm-16.5,67.66-.7.27a15.89,15.89,0,0,0-3.62,2.39,1.92,1.92,0,0,1-.85.52.81.81,0,0,1,.38-.69,16.58,16.58,0,0,1,3.7-2.52c.29-.14.61-.22.91-.34.13-.05.34.18.37-.13a.51.51,0,0,0-.27-.57,1.29,1.29,0,0,0-.48-.1,2.74,2.74,0,0,0-1.39.38,15.77,15.77,0,0,0-3.42,2.49,11.65,11.65,0,0,0-2.45,3.21,3.42,3.42,0,0,0-.4,1.19c0,.3.05.58.39.52a4.29,4.29,0,0,0,2.79-1.23,53.35,53.35,0,0,1,4.58-4.81A1.21,1.21,0,0,0,119.82,129.23ZM48.5,83.37l-.53.08a9.15,9.15,0,0,1-3.83-.06,2.67,2.67,0,0,0-1.83.1l-.37.13A12.74,12.74,0,0,0,37.52,86c-.21.21-.57.42-.45.75s.53.32.85.36a11.09,11.09,0,0,0,3.2-.21,15.08,15.08,0,0,0,5.34-1.76A6.76,6.76,0,0,0,48.5,83.37Zm19,13a.38.38,0,0,0-.32.15,54.4,54.4,0,0,0-6.59,6.38,2.28,2.28,0,0,0-.54,1.47c0,.93.45,1.25,1.31.87A11.89,11.89,0,0,0,66.06,101a.32.32,0,0,0,0-.36,1.82,1.82,0,0,1,0-1.24,9.33,9.33,0,0,1,1.19-2.51C67.37,96.71,67.54,96.59,67.48,96.35ZM70.94,58a15.21,15.21,0,0,0,6.71-1.71,4.62,4.62,0,0,0,1.47-1c.22-.25.56-.57.39-.87s-.56-.1-.87-.08l-.14,0L74.81,55a54.53,54.53,0,0,0-5.91,1.53c-.26.08-.45.18-.47.48a.57.57,0,0,0,.36.59,2.45,2.45,0,0,0,.45.17A7,7,0,0,0,70.94,58Zm32.13,41.22a18,18,0,0,0,3-.38,20.26,20.26,0,0,0,6.37-2.25c.33-.19.86-.4.77-.77s-.66-.46-1.08-.53a7.69,7.69,0,0,0-3.13.17,20.4,20.4,0,0,0-5.5,2.11,5.57,5.57,0,0,0-1.36,1.1c-.22.25-.17.41.15.46S102.87,99.15,103.07,99.17Zm-25.52-7.4a2.67,2.67,0,0,0,.35,0,3.58,3.58,0,0,0,.71-.2A18.43,18.43,0,0,0,86,86.06a2.55,2.55,0,0,0,.47-.91c0-.17.09-.38,0-.51s-.34,0-.48.08c-1.82.8-3.58,1.72-5.32,2.68a9.38,9.38,0,0,0-2.88,2.51,4.17,4.17,0,0,0-.7,1.23C76.86,91.64,77,91.79,77.55,91.77Zm32.31,53.59a.93.93,0,0,1,.23-.8c.44-.74.82-1.52,1.2-2.29.12-.24,0-.74.55-.62a.52.52,0,0,0,.06-.17,15.57,15.57,0,0,1,.53-2.49c-.32,0-.46.24-.62.41a16.85,16.85,0,0,0-4.23,7.71,6.7,6.7,0,0,0-.23,2.18c.05.57.16.62.67.34a5,5,0,0,0,1-.77,16.86,16.86,0,0,0,2.79-3.87.9.9,0,0,0,0-.77c-.74,1-1,2.27-2,3.06a.66.66,0,0,1,.14-.74c.6-.95,1.11-1.95,1.63-2.94a2.57,2.57,0,0,0,.27-1.38C111.16,143.29,110.89,144.53,109.86,145.36ZM132,96.29a2.82,2.82,0,0,0-1.78-.64A14.6,14.6,0,0,0,123,97.21a7.33,7.33,0,0,0-1.7,1.06c-.12.1-.29.21-.26.38s.24.19.39.23a2.56,2.56,0,0,0,.48.1,17.85,17.85,0,0,0,6.82-.52.43.43,0,0,0,.33-.31,2.19,2.19,0,0,1,.89-1A7.22,7.22,0,0,1,132,96.29ZM96.91,74.24c-1.36,0-2.72-.1-4.08-.25a11.65,11.65,0,0,1-2.35-.39c-.16,0-.33-.15-.29-.34s.23-.13.36-.1a29,29,0,0,0,6.7.56c.29,0,.68-.17.79.33,0,.1.18,0,.27,0l.58-.08c.12,0,.3,0,.34-.13s-.09-.24-.18-.33a4.78,4.78,0,0,0-2.21-1.19,15.71,15.71,0,0,0-4.58-.5,10.81,10.81,0,0,0-4.44,1c-.23.12-.57.2-.56.48s.36.35.6.46a9.1,9.1,0,0,0,2,.63,11.15,11.15,0,0,0,3.39.38C94.5,74.7,95.7,74.46,96.91,74.24Zm-19.65,57c0-.64-.29-.84-.9-.61a1.61,1.61,0,0,0-.56.37,15.34,15.34,0,0,0-3.59,5.49,9.87,9.87,0,0,0-.73,3c0,.52.1.6.56.36a5.29,5.29,0,0,0,1.6-1.41,21.53,21.53,0,0,0,3.39-6A3.55,3.55,0,0,0,77.26,131.26Zm45.92-56.54a6,6,0,0,0,1.12-.08c.62-.14.73-.46.32-1a3.13,3.13,0,0,0-1-.76,15.18,15.18,0,0,0-6.74-1.53,3.75,3.75,0,0,0-1.15.19c-.41.12-.45.43-.15.73a4.08,4.08,0,0,0,.83.6A15,15,0,0,0,123.18,74.72ZM122,42.32c.39-1,.84-1.37,1.57-1.21.43.1.44-.07.44-.4a21.68,21.68,0,0,0-.49-4.17,13.08,13.08,0,0,0-.59-2.12.82.82,0,0,0-.77-.5c-.34,0-.49.2-.62.45a8.74,8.74,0,0,0-.47,1.33C120.31,38,121.16,40.11,122,42.32ZM72.46,129.69c0,.48.17.64.6.58a3.23,3.23,0,0,0,1.46-.65,12.6,12.6,0,0,0,3.84-4.43,3.79,3.79,0,0,0,.28-.73c.16-.64-.14-.95-.78-.8a4.3,4.3,0,0,0-1.67.79,11.88,11.88,0,0,0-3.47,4.35A2.88,2.88,0,0,0,72.46,129.69Zm43.48,9.66c-.27.43-.49.8-.75,1.16s-.43.81-1.07,1c.63-1.49,2-2.53,2-4.27-.14.2-.24.33-.32.46L114.32,140a4.35,4.35,0,0,1-.34.41.22.22,0,0,1-.27.07c-.1-.06-.07-.18,0-.26a4.25,4.25,0,0,1,.27-.52c.58-.91,1.17-1.81,1.75-2.71a8.63,8.63,0,0,0,1-1.85c.12-.33,0-.31-.22-.3a1.89,1.89,0,0,0-1.26.68,10.69,10.69,0,0,0-2.1,3.6,12.64,12.64,0,0,0-.44,5.89c0,.23.07.57.43.25a8.8,8.8,0,0,0,1.8-2.66c-.27.17-.46.45-.9.46.13-.22.2-.4.31-.55a15,15,0,0,0,1.11-1.62c.14-.25.19-.62.4-.76C116.16,139.92,116.05,139.7,115.94,139.35Zm63.17,24h-.05c0,.35,0,.7.1,1,.28,1.68.56,3.36.87,5a66.36,66.36,0,0,0,2.32,9.13c.64,1.91,1.35,3.79,2,5.7a6.7,6.7,0,0,0,.85,1.69c.16.23.3.33.59.17s.16-.34.09-.53c-.31-.81-.64-1.61-.93-2.42-1.84-5.13-3.37-10.35-4.79-15.6C179.76,166.15,179.45,164.74,179.11,163.33ZM120.65,40.73c0-.13,0-.19-.05-.25a9.14,9.14,0,0,1-.17-4.92.63.63,0,0,0,0-.43,20.07,20.07,0,0,0-2.1-4.62,3.33,3.33,0,0,0-.59-.71c-.23-.21-.39-.19-.49.13a2.81,2.81,0,0,0-.12,1.15,21.28,21.28,0,0,0,2.6,8.34A4.84,4.84,0,0,0,120.65,40.73Zm9.71,80.65a7.69,7.69,0,0,1-2-.23,1.63,1.63,0,0,0-.82,0,12.64,12.64,0,0,0-5.4,2.35,9.49,9.49,0,0,0-1.46,1.3c-.23.26-.2.44.18.46a6.55,6.55,0,0,0,1.17,0A20.88,20.88,0,0,0,129.7,122,2,2,0,0,0,130.36,121.38Zm2.51-61.57a.9.9,0,0,0,0-.52A9.26,9.26,0,0,1,133,54.7a3.17,3.17,0,0,0,.05-2c-.08-.26-.12-.54-.2-.8a10.23,10.23,0,0,0-1-2.68c-.17-.27-.37-.63-.73-.54s-.28.47-.32.75a16.42,16.42,0,0,0,1.71,9.76A1.25,1.25,0,0,0,132.87,59.81ZM139,120.22a9.74,9.74,0,0,0-6.44,3,2.45,2.45,0,0,0-.43.71c-.12.36,0,.53.37.55a4.2,4.2,0,0,0,1.12-.06,17.5,17.5,0,0,0,6.25-2.74,4.92,4.92,0,0,0,.73-.64c.23-.23.19-.42-.13-.55A3.69,3.69,0,0,0,139,120.22ZM122,81.46a13.44,13.44,0,0,1-2-1.83.85.85,0,0,0-.4-.17,20.45,20.45,0,0,0-6.36-.83c-.47,0-1,0-1.21.53s.36.78.69,1.07c.1.09.2.29.41.14s.4-.06.6,0a28.91,28.91,0,0,0,3.69.7,13,13,0,0,0,2.24.17c.16,0,.36,0,.37.21s-.18.25-.34.27a2.54,2.54,0,0,1-.39,0,16.56,16.56,0,0,1-2.33-.23l-2.62-.44A11.19,11.19,0,0,0,122,81.46ZM48.88,119.6c0,.13,0,.26,0,.39,0,.48.18.55.58.31a4,4,0,0,0,.85-.73,15.36,15.36,0,0,0,2.53-4,5.57,5.57,0,0,0,.53-2.12c0-.17.08-.38-.12-.49a.42.42,0,0,1-.18-.58c0-.11.09-.22,0-.31a.32.32,0,0,0-.36,0,2.39,2.39,0,0,0-.87.77,15.08,15.08,0,0,0-2.17,3.8A8.68,8.68,0,0,0,48.88,119.6ZM175.8,163.31c.07.55.16,1.11.22,1.67a36.23,36.23,0,0,0,.72,4.63c.73,3.25,1.76,6.42,2.77,9.6.6,1.86,1.44,3.64,1.93,5.54a16.77,16.77,0,0,0,1.3,3c.2.41.51.24.75.13s0-.3-.05-.43a57.78,57.78,0,0,1-3.73-9.58C178.48,173,176.94,168.21,175.8,163.31Zm-57.87-26.88c-.05-.1-.07-.11-.07-.12a25.79,25.79,0,0,0,2.18-3.87c.08-.19.23-.25.42-.05a.42.42,0,0,0,.51,0,1.19,1.19,0,0,0-.09-1.07c-.17-.32-.42-.17-.63-.07a4.67,4.67,0,0,0-2.14,2.27,18.91,18.91,0,0,0-1.61,5.2,5,5,0,0,0,0,1,.61.61,0,0,0,.41.51c.2.08.32-.12.44-.24a8.94,8.94,0,0,0,1.22-1.52,5.61,5.61,0,0,0,.79-1.49c-.18.19-.32.4-.48.6a.8.8,0,0,1-.69.39,14.37,14.37,0,0,0,2.28-5.26C119.64,134,119.32,135.6,117.93,136.43Zm15.89-63.26a1.08,1.08,0,0,0,0-.76,13.29,13.29,0,0,0-4-6.18,4.66,4.66,0,0,0-1.23-.78.59.59,0,0,0-.65,0,1.5,1.5,0,0,0-.08,1.78,76.69,76.69,0,0,1,5.65,5.61C133.56,73,133.64,73.14,133.82,73.17Zm-10.65,57.29c0,.66.08.75.5.62a3.64,3.64,0,0,0,1.18-.67,16.27,16.27,0,0,0,4-4.77,9.82,9.82,0,0,0,.4-.94c.05-.14.12-.31,0-.42s-.27,0-.39.1c-.9.47-1.81.91-2.68,1.42A6.37,6.37,0,0,0,123.17,130.46Zm7-9.81a7.06,7.06,0,0,0,2.46-.32,15.08,15.08,0,0,0,3.9-1.37c.2-.12.49-.23.46-.51s-.32-.23-.51-.32a1.78,1.78,0,0,0-.55-.18,12.85,12.85,0,0,0-5.54.6,5.3,5.3,0,0,0-2.11,1.2c-.39.39-.35.49.16.69A6,6,0,0,0,130.18,120.65ZM59.35,104.44c-.12.14-.19.21-.25.29-1.3,1.69-2.56,3.41-3.8,5.15a2,2,0,0,0-.22,1.76c.09.37.34.46.67.32a2.66,2.66,0,0,0,.93-.62,20.75,20.75,0,0,0,3.56-5.11c0-.09.16-.23,0-.29C59.57,105.7,59.44,105.14,59.35,104.44ZM125.59,54a2.3,2.3,0,0,0,.23.89,16.79,16.79,0,0,0,3.8,5,4,4,0,0,0,1.1.72c.24.1.34,0,.32-.23a3.12,3.12,0,0,0-.31-1.12,19,19,0,0,0-3.13-4.7,4.33,4.33,0,0,0-1-.82,1.65,1.65,0,0,0-.49-.21C125.77,53.47,125.57,53.59,125.59,54Zm-7.67,15.48a.57.57,0,0,0-.21-.48,17,17,0,0,0-5.54-4.84,2.72,2.72,0,0,0-.92-.32c-.29,0-.46.06-.47.39a1.45,1.45,0,0,0,.36,1,13.17,13.17,0,0,0,6.21,4.13A1.23,1.23,0,0,0,117.92,69.47Zm-7.27,4.92a2.42,2.42,0,0,0-.71-.6,11.91,11.91,0,0,0-7.72-1.73,4,4,0,0,0-1.41.37c-.15.06-.35.16-.19.35.4.46.79,1,1.51.94a31.46,31.46,0,0,1,3.22.07C107.11,73.91,108.85,74.15,110.65,74.39Zm28.28-7.92a19.36,19.36,0,0,0,.61,4.73,6.74,6.74,0,0,0,.82,2c.11.18.21.49.45.45s.23-.37.27-.58a6.65,6.65,0,0,0,.13-1.17,18.08,18.08,0,0,0-1.27-6.62,5.08,5.08,0,0,0-.35-.7c-.07-.14-.17-.31-.36-.29s-.17.25-.2.4A12,12,0,0,0,138.93,66.47ZM98.81,79.3a6.11,6.11,0,0,0,1.36-.24,57.76,57.76,0,0,1,8.68-1.32c.18,0,.46.11.51-.12s-.15-.42-.34-.56a.9.9,0,0,0-.36-.12,17,17,0,0,1-2.14-.49,2.36,2.36,0,0,0-1-.1A13.9,13.9,0,0,0,100,78.14,3.22,3.22,0,0,0,98.81,79.3Zm28.08-12.87c0-.37.13-.64,0-.9a16.7,16.7,0,0,0-3.81-5,3.21,3.21,0,0,0-1.09-.63c-.22-.07-.52-.11-.51.23,0,.9,0,1.81.85,2.45s1.67,1.3,2.48,2S126.14,65.76,126.89,66.43ZM142,117.16l-.82,0a4.51,4.51,0,0,0-.53.09c-.17,0-.4,0-.45.24s.19.28.32.4a2,2,0,0,0,.28.19,14.57,14.57,0,0,0,6.17,1.82c.29,0,.7.1.81-.27s-.2-.62-.48-.83l-.12-.08A11.69,11.69,0,0,0,142,117.16Zm-22.83-39c-.22-.35.11-.74-.32-.89a35.68,35.68,0,0,0-6-1.53c-.16,0-.25,0-.26.17-.06.7-.56.94-1.15,1.08a4.94,4.94,0,0,1-1.21.09c-.22,0-.27,0-.23.28s.28.39.58.41C113.44,77.91,116.28,77.45,119.21,78.14ZM125,50.89c0-.1,0-.14,0-.16-1.35-2.24-2.71-4.48-4.15-6.67a2.14,2.14,0,0,0-1-.77c-.42-.19-.58-.08-.65.37a1.43,1.43,0,0,0,.16,1A21.19,21.19,0,0,0,123.74,50,5.36,5.36,0,0,0,125,50.89Zm-16.15,27.8,0-.1c-.12,0-.23,0-.34,0a64.12,64.12,0,0,0-9.54,1.57c-.45.1-.22.36-.08.53a2,2,0,0,0,1,.47,7.45,7.45,0,0,0,4-.17,13.23,13.23,0,0,0,3-1.16c-1.08.3-2.17.57-3.27.78a6.25,6.25,0,0,1-1.93.2c-.14,0-.33-.06-.33-.23s.19-.19.34-.2a19.5,19.5,0,0,0,5.59-1.28c.14,0,.34-.14.4,0,.15.4.32.16.48,0S108.61,78.85,108.83,78.69Zm65.49,78.7a5.37,5.37,0,0,0-.43,2.57c.18,1.77.27,3.54.46,5.31a20,20,0,0,0,1,5.37c.61,1.53,1,3.13,1.74,4.62a5.61,5.61,0,0,1,.3.93,6.82,6.82,0,0,0,.92,1.72,76.35,76.35,0,0,1-2.9-10A56.05,56.05,0,0,1,174.32,157.39ZM137.37,70.62a2.83,2.83,0,0,1-.12-.3q-1.91-3.57-4.1-7a1.19,1.19,0,0,0-1.14-.47.27.27,0,0,0-.28.23,1.53,1.53,0,0,0,.12,1.09A36.19,36.19,0,0,0,135.53,69,9.13,9.13,0,0,0,137.37,70.62ZM121.25,79.9c0,.2.19.26.29.36a13.23,13.23,0,0,0,5,2.73,6.36,6.36,0,0,0,2.45.35c.24,0,.58,0,.63-.32s-.25-.39-.47-.48a41.23,41.23,0,0,0-3.88-1.47A34.09,34.09,0,0,0,121.25,79.9Zm50.83,10c.27-.5.59-.84.51-1.33q-.18-1.22-.39-2.43c-.36-2-.71-4.1-1.07-6.15-.13-.73-.3-1.46-.47-2.29a1.62,1.62,0,0,0-.36,1.33,5.71,5.71,0,0,1,.34,1.48,20.26,20.26,0,0,0,.35,2.83c.08,1.1.35,2.19.54,3.28S171.88,88.77,172.08,90Zm-74,17.11c-1,.46-1.94.84-2.86,1.31a13,13,0,0,0-2.44,2c-.76.68-1.5,1.39-2.24,2.09.49-.22.93-.45,1.41-.63a1.08,1.08,0,0,1,1.11.09c.3.25.4.14.57-.12a18,18,0,0,1,4.21-4.53A1.73,1.73,0,0,0,98.08,107.06ZM62.61,76.42c-.11-.09-.2,0-.29,0a17.83,17.83,0,0,0-7,3.37,6.49,6.49,0,0,0-1.2,1.14,1.27,1.27,0,0,0-.37.93C56.72,80,59.63,78.15,62.61,76.42ZM167,81l.1,0c.42-.9.81-1.83,1.29-2.7a4.26,4.26,0,0,0,.51-3.32,7.27,7.27,0,0,0-.25-1.19L168,75.5a22.29,22.29,0,0,1-1,2.37,1.5,1.5,0,0,0-.25.93C166.85,79.52,166.93,80.25,167,81ZM103.7,74.67a10.11,10.11,0,0,0,2,.83,13.43,13.43,0,0,0,4.9.86,2.38,2.38,0,0,0,1-.21.33.33,0,0,0,.21-.39.31.31,0,0,0-.3-.27l-1-.17A50.72,50.72,0,0,0,103.7,74.67ZM122.59,64a.88.88,0,0,0,.07.24,18.46,18.46,0,0,0,3.8,4.86,3.77,3.77,0,0,0,.52.37c.13.08.28.23.44.11s0-.29,0-.44c-.11-.41-.24-.81-.34-1.22a.75.75,0,0,0-.22-.42A35,35,0,0,0,122.59,64Zm40.66,14a.64.64,0,0,0,.28-.42c.42-1.08.76-2.19,1.27-3.22.6-1.21.19-2.37,0-3.56-.46,1-.79,2.07-1.3,3C162.84,75.19,163.32,76.56,163.25,78Zm-3.35,32.09c-.24.18-.22.46-.54.55a3.42,3.42,0,0,0-.19-2.91c-.42,1.47-.41,1.47-.19,2.33.56,2.15,1.3,4.24,2,6.33.05.15.12.3.21.55a1.91,1.91,0,0,0,.13-1.39c-.17-.48-.27-1-.4-1.46C160.6,112.75,160.26,111.43,159.9,110.07Zm9.4-19.25a2.92,2.92,0,0,0-.41.74,4.18,4.18,0,0,0-.51,3.13c.18.84.24,1.71.35,2.65a4.79,4.79,0,0,0,.93-3.76C169.55,92.68,169.43,91.78,169.3,90.82ZM170.93,103l-.11,0a16.29,16.29,0,0,1-.7,1.53,5.34,5.34,0,0,0-.75,3.95,2.79,2.79,0,0,0,.13.82c.45-1.26,1-2.39,1.5-3.56a1.29,1.29,0,0,0,.16-.61C171.08,104.41,171,103.71,170.93,103Zm-.11-15.64c-.07.06-.12.08-.14.12a4.28,4.28,0,0,0-.61,3.39,2.89,2.89,0,0,1,.08.58c.09.66.19,1.32.28,2a13.52,13.52,0,0,0,.94-1.86.69.69,0,0,0,0-.38C171.23,89.94,171,88.67,170.82,87.37Zm-15.34,5a11,11,0,0,1-.32,1.15,2.25,2.25,0,0,0,0,1.47c.24,1,.43,1.91.64,2.86.06.31.12.61.2.91a3.57,3.57,0,0,0,.26.9,5.25,5.25,0,0,0-.06-4.37l-.24.34A6.36,6.36,0,0,0,155.48,92.4ZM112.29,58a10.64,10.64,0,0,0,1.49,1.36,9.92,9.92,0,0,0,3.58,2.11,2,2,0,0,0,.81.13c.15,0,.32,0,.35-.21s-.14-.2-.25-.26c-1.25-.75-2.49-1.53-3.79-2.2A13.72,13.72,0,0,0,112.29,58ZM128,68.62c.45,2.17,3.6,5.75,5.17,5.9A75.51,75.51,0,0,0,128,68.62Zm-8.12,9.29a1,1,0,0,0,.72,1,59.42,59.42,0,0,1,5.86,1.69c.12,0,.29.21.38,0s-.09-.28-.25-.35a53.59,53.59,0,0,0-6.4-2.54C120,77.61,119.82,77.63,119.86,77.91Zm50.59,21.67h-.09c-.39.87-.75,1.76-1.17,2.62s0,2,0,3c.56-1.07,1-2.15,1.52-3.23a.56.56,0,0,0,0-.34C170.65,100.93,170.55,100.25,170.45,99.58Zm-6.93-18.45c.37-.9,1-1.69.87-2.77,0-.34,0-.68.5-.6.22,0,.2-.17.27-.28.64-1,.33-2,.18-3-.19.13-.2.33-.26.48-.51,1.29-1,2.59-1.52,3.86A4.53,4.53,0,0,0,163.52,81.13ZM89.28,113.9a48.06,48.06,0,0,0-6.09,7.26A9.26,9.26,0,0,1,85.43,119a6.75,6.75,0,0,0,2.49-2.91C88.33,115.32,88.83,114.62,89.28,113.9Zm87.77,10.4a16.37,16.37,0,0,0-3.21,6.54C175.3,128.84,176.69,126.81,177.05,124.3ZM164,71.23a3.5,3.5,0,0,0,.65-2.71,10.29,10.29,0,0,1-.15-1.36c-.09-.82-.17-1.64-.26-2.46a3.73,3.73,0,0,0-.59,1.7C163.73,68,163.87,69.62,164,71.23Zm9.28,66c-.75,1.3-1.5,2.5-2.15,3.75a6.49,6.49,0,0,0-.36,2.3C171.86,141.35,173.18,139.58,173.27,137.18ZM166,58.87a3,3,0,0,0-.27,2c.12.59.18,1.19.26,1.79.14.93.27,1.86.41,2.87a2.76,2.76,0,0,0,.42-2.49,5.71,5.71,0,0,1-.13-.72C166.42,61.22,166.2,60.1,166,58.87ZM180.73,185c-1.43-2.76-2.92-5.47-4.38-8.3,0,.14,0,.18,0,.2a56.27,56.27,0,0,0,3.12,6.84A4.31,4.31,0,0,0,180.73,185ZM55.43,108.48c.66-.9,1.32-1.81,2-2.71s1.43-1.86,2.14-2.79c.11-.15.32-.34.13-.51s-.28.09-.39.18A12.44,12.44,0,0,0,55.43,108.48ZM173.07,96.17c.16-.19.15-.4.31-.45s.2-.26.18-.44c-.13-.92-.24-1.84-.38-2.76s-.27-1.77-.41-2.71a2.47,2.47,0,0,0-.42,2,21.72,21.72,0,0,1,.45,2.66C172.84,95.05,173,95.57,173.07,96.17Zm1.2,37.14c-.65,1-1.27,2.09-2,3.07a6.25,6.25,0,0,0-.91,3C172.42,137.37,174,135.69,174.27,133.31Zm-2.21-37.66c-.79,1.42-1.35,2.91-.64,4.55A4.65,4.65,0,0,0,172.06,95.65Zm.46,14.58c.68-1.56,1.61-3.07.92-5C172.79,106.89,171.84,108.39,172.52,110.23Zm.07-11.15a5,5,0,0,0-.71,4.51C172.6,102.16,173.36,100.74,172.59,99.08Zm2.79,30.43c-1.16,1.87-2.74,3.52-3,5.86C173.45,133.46,175.09,131.85,175.38,129.51Zm-5,17.69a10.83,10.83,0,0,0,1.88-5.43C171.29,143.5,170,145.07,170.36,147.2Zm1.23-54.78a4.69,4.69,0,0,0-.65,4.4A4.83,4.83,0,0,0,171.59,92.42Zm.64,14.34c1-1.57,1.35-3.49.83-4.49C172.37,103.7,171.58,105.09,172.23,106.76Zm-10.62-3.64a5.18,5.18,0,0,0,.26,4.42C162.68,106,162.12,104.56,161.61,103.12Zm5.73-30.9a4.26,4.26,0,0,0,.3-4.18A5.05,5.05,0,0,0,167.34,72.22Zm6.39,36.48c-.57,1.59-1.62,2.92-1,4.71C173.28,111.89,174.23,110.54,173.73,108.7Zm-137-11.12,2.69-3.13c-1,.49-1.89,1-2.86,1.42-.13.06-.39.13-.19.33A1.64,1.64,0,0,1,36.75,97.58ZM165,115.9a5.7,5.7,0,0,0-.25,2.25c.2.71.38,1.43.57,2.18A5.27,5.27,0,0,0,165,115.9Zm-88.86-62a3.06,3.06,0,0,0-2.23-.18,14.19,14.19,0,0,0-3,1.39C72.69,54.66,74.44,54.31,76.17,53.88ZM168.84,88c-.67,1.23-1.23,2.47-.67,3.9C168.79,90.64,169.5,89.44,168.84,88Zm9.49,31.86a16.21,16.21,0,0,0-2.38,5.07A9.45,9.45,0,0,0,178.33,119.82ZM159,86.36a2.35,2.35,0,0,0,0-1.73c-.49-1.43-.93-2.89-1.42-4.41a1.38,1.38,0,0,0-.09,1c.22.73.43,1.47.65,2.2,0,.12,0,.27.17.34s.2.31.19.51A7.63,7.63,0,0,0,159,86.36Zm-2,16.49a4.7,4.7,0,0,0,0-4,5.83,5.83,0,0,1-.58,1.56c-.08.1,0,.22,0,.33C156.63,101.42,156.8,102.1,157,102.85Zm18.18,43.54c-.69,1.67-1.73,3.25-1.4,5.29A16.47,16.47,0,0,0,175.18,146.39Zm-3.62-.37c-.66,1.43-1.69,2.66-1.3,4.43C170.92,149,171.77,147.72,171.56,146Zm4.83-13.9a9.57,9.57,0,0,0-2,4.77A10.33,10.33,0,0,0,176.39,132.12ZM166,93.05c.52-1.31,1.43-2.47.85-4A4.71,4.71,0,0,0,166,93.05ZM149.16,67.71c.41-1.19-.14-2.16-.39-3.17a.54.54,0,0,0-.07-.12c-.49.13-.19-.26-.23-.39s0-.4,0-.58c-.38-1.41-.78-2.82-1.17-4.23C147.75,62.06,148.46,64.84,149.16,67.71Zm16.39,16.43c1.1-1.21.71-2.53.5-3.89C165.12,81.49,165.5,82.81,165.55,84.14Zm4.73.48a3.76,3.76,0,0,0-.5,3.52A3.49,3.49,0,0,0,170.28,84.62Zm-9.21,26.27c.14-.64.55-1.22.29-1.93s-.38-1.23-.57-1.86C160,108.47,160.73,109.66,161.07,110.89Zm.37-49.51c-.77,1.75-.08,3.56-.26,5.35a.59.59,0,0,0,.17-.29C161.94,64.76,161.39,63.07,161.44,61.38Zm13.77,75.28a9.24,9.24,0,0,0-1.88,4.78A12.18,12.18,0,0,0,175.21,136.66Zm1.17,4.61a11.63,11.63,0,0,0-1,2.41,3.56,3.56,0,0,1-.6,1.22,4,4,0,0,0-.66,2.53A30.58,30.58,0,0,0,176.38,141.27ZM31.49,104.62q1.95-2.81,4-5.51A13.84,13.84,0,0,0,31.49,104.62ZM163.25,60.33a8.59,8.59,0,0,0,.1-4.91C162.83,56.61,163.08,56.45,163.25,60.33Zm1.81,1.58a20.54,20.54,0,0,0,.39,5.92,1.44,1.44,0,0,0,.29-.83C165.53,65.33,165.3,63.65,165.06,61.91Zm-.71,54.35a5.11,5.11,0,0,0-.16-3.91A4.79,4.79,0,0,0,164.35,116.26Zm-14-39.39h-.07c.6,3.13,1.2,6.27,1.81,9.48a2.9,2.9,0,0,0,0-1.89Zm11.51,37.38a4.14,4.14,0,0,0-.17-3.71c-.06.54-.51.92-.42,1.42C161.43,112.7,161.66,113.43,161.88,114.25Zm2.47,5.65c-.74,1.53.12,2.78.35,4.17C165.39,122.58,164.61,121.32,164.35,119.9ZM161.17,38c.43,3.41.85,6.82,1.2,10.34C162.68,47.63,162,41.74,161.17,38Zm5.51,48.27a4,4,0,0,0-.78,3.51A4,4,0,0,0,166.68,86.31ZM152.6,83a5.38,5.38,0,0,0-.2-4C151.73,80.29,152.24,81.59,152.6,83Zm17.74,70.35c.83-1.35,1.22-3,.91-3.77C170.71,150.74,169.89,151.85,170.34,153.3Zm-5.86-72.89c-.57,1.16-1.23,2.24-.71,3.59A4.39,4.39,0,0,0,164.48,80.41Zm-6.67,25.32a4.53,4.53,0,0,0,0-3.61A4.16,4.16,0,0,0,157.81,105.73Zm8.41,17.55c.49-1.22.44-3-.12-3.71C165.85,120.82,165.49,122.05,166.22,123.28Zm1.39-37.11a3.3,3.3,0,0,0,.62-3.26A3.58,3.58,0,0,0,167.61,86.17Zm6.62,54.72c-.76,1.44-1.66,2.74-1.57,4.44A10.78,10.78,0,0,0,174.23,140.89ZM166.78,68.6a3.51,3.51,0,0,0,.31-3.34C166.29,66.29,166.54,67.44,166.78,68.6ZM62.05,100.14c1.33-1.35,2.74-2.6,4.13-3.87C65,96.52,62.55,98.87,62.05,100.14ZM163.53,64.59a5.41,5.41,0,0,0,.28-3.94C163.06,61.91,163.48,63.27,163.53,64.59ZM160.82,104c.32-1.25.68-2.45,0-3.61A4.32,4.32,0,0,0,160.82,104Zm1.89,6.37a4.17,4.17,0,0,0-.05-3.49A4,4,0,0,0,162.71,110.32Zm-1.8-62.82c0,.78,0,1.54,0,2.3,0,2.57.21,5.14.21,7.71v2.74C161.46,59.68,161.26,50.58,160.91,47.5Zm9.74,108.78a5.93,5.93,0,0,0,.6-3.57C170.63,153.86,170.13,155,170.65,156.28ZM151.49,75.46c-.55,1.3,0,2.5.22,3.77A4.66,4.66,0,0,0,151.49,75.46ZM163.66,120a4.28,4.28,0,0,0-.23-3.45A3.91,3.91,0,0,0,163.66,120Zm-.93-70.56c-.28,1.76.17,3.49.24,5.23C163.51,53,162.84,51.23,162.73,49.48Zm5.12,39.3c.88-1.59,1.07-2.48.68-3.29C168,86.54,167.35,87.52,167.85,88.78Zm-.17-13.94c.33-1.1,1.23-2,.59-3.35C167.8,72.57,167.13,73.56,167.68,74.84Zm-14.4,7.76a5.39,5.39,0,0,0,.1,3.8A5.42,5.42,0,0,0,153.28,82.6Zm29.38,30c-1.09,1.21-1.1,2.78-1.43,4.25C182.28,115.62,182.2,114,182.66,112.6Zm-14.1,15.94a5.33,5.33,0,0,0,.18,3.83A5.79,5.79,0,0,0,168.56,128.54ZM122.14,44.07a6.51,6.51,0,0,0-2.56-3.38C120.4,41.84,120.93,43.2,122.14,44.07Zm45,82.24c.4-1.77.36-2.77-.13-3.63C166.7,123.89,166.39,125.1,167.09,126.31Zm-3.88-25.77c-.07-.42.4-.69.29-1.09-.22-.8-.47-1.6-.73-2.45C162.17,98.32,162.91,99.39,163.21,100.54Zm-7.61.74.09,0c-.59-2.63-1.18-5.25-1.79-7.92a.71.71,0,0,0-.14.71c.15.63.3,1.25.46,1.87C154.67,97.7,155.14,99.49,155.6,101.28Zm7,12.34a3.78,3.78,0,0,0,.1,3.35A4.12,4.12,0,0,0,162.6,113.62Zm-10.17-46c-.43,1.37.35,2.51.67,3.75C153.57,70,152.7,68.9,152.43,67.66ZM163,73.59c.19-.23.4-.45.33-.71a14.91,14.91,0,0,1-.25-2.57c-.06-.64-.11-1.28-.17-2a1.25,1.25,0,0,0-.27.75Zm-3,27.48a3.87,3.87,0,0,0,0-3.34A4.3,4.3,0,0,0,160.07,101.07Zm-5.32-7.93c.48-1.64.47-2.69,0-3.54A5,5,0,0,0,154.75,93.14Zm8.68,16.45c-.28,1.13-.66,2.24,0,3.39C163.67,111.83,164.1,110.71,163.43,109.59Zm-7.27-20.65c-.59,1.29,0,2.41.24,3.6C157.05,91.29,156.36,90.17,156.16,88.94Zm10.24-5.16a3.62,3.62,0,0,0-.67,3.06A3.2,3.2,0,0,0,166.4,83.78Zm-7.93,8.35a4.06,4.06,0,0,0,.16,3.2A3.59,3.59,0,0,0,158.47,92.13ZM178,124.43a6.38,6.38,0,0,0,1.42-3.69A6.93,6.93,0,0,0,178,124.43Zm-4.67,20.84a5.14,5.14,0,0,0-1,3.48A6.49,6.49,0,0,0,173.34,145.27Zm2.31-13.14a6.72,6.72,0,0,0,1.69-3.53A6.81,6.81,0,0,0,175.65,132.13Zm-6.07-52.07a2.78,2.78,0,0,0-.46,2.82A2.84,2.84,0,0,0,169.58,80.06Zm-1.65.49a3.09,3.09,0,0,0-.57,2.89C167.83,82.52,168.46,81.67,167.93,80.55ZM159.3,95a3.87,3.87,0,0,0,.06,3.21A4,4,0,0,0,159.3,95Zm5.49,34.49c.41,1,.81,2.05,1.23,3.13.33-.69,0-1.27-.09-1.88S165.19,129.92,164.79,129.53ZM154.14,89.69a4.78,4.78,0,0,0-.11-3.41A4.66,4.66,0,0,0,154.14,89.69ZM178.37,125a7.21,7.21,0,0,0-1.61,3.52A6.77,6.77,0,0,0,178.37,125Zm-18.32-17.61a3.2,3.2,0,0,0-.12-3A3.56,3.56,0,0,0,160.05,107.35Zm-1.5-2.16a2.93,2.93,0,0,0,0,2.93A3.53,3.53,0,0,0,158.55,105.19Zm6.85,18.72a3.67,3.67,0,0,0,.19,3.12A3.91,3.91,0,0,0,165.4,123.91Zm2.48,5.21c.12-1.18.53-2.25-.06-3.33A4.24,4.24,0,0,0,167.88,129.12Zm.88-48.69a2.61,2.61,0,0,0,.45-2.67C168.78,78.61,168.2,79.41,168.76,80.43Zm-19.09-12.3c-.37,1.35.25,2.51.45,3.73A6.8,6.8,0,0,0,149.67,68.13Zm8,18.23a5.27,5.27,0,0,0-.55-3.19C156.66,84.34,157.36,85.31,157.63,86.36Zm8.71-14.66c-.67,1-.13,2-.11,3.08C166.76,74,166.79,73.13,166.34,71.7Zm6.41,80.62a4.9,4.9,0,0,0-.46,3.41A5.92,5.92,0,0,0,172.75,152.32Zm-2.81-69.86c-.71,1.12-.87,2-.49,2.69C169.74,84.26,170.43,83.48,169.94,82.46Zm-4.06-14.17c-.65,1-.1,2,0,3C166.49,70.29,166,69.29,165.88,68.29ZM158,98.55c.52-1,0-1.91-.18-2.94A3.31,3.31,0,0,0,158,98.55ZM137.36,68.7a10.41,10.41,0,0,0-2.62-4.46ZM166.27,127a2.84,2.84,0,0,0,.23,2.73A3.25,3.25,0,0,0,166.27,127Zm14.09-6.28c.88-.88.89-2.06,1.12-3.16C180.59,118.46,180.66,119.66,180.36,120.74ZM146.57,54.35c.63,2.15,1.27,4.29,1.9,6.44l.15,0A47.67,47.67,0,0,0,146.57,54.35Zm19.14,23.3a3,3,0,0,0-.38,2.65A2.82,2.82,0,0,0,165.71,77.65Zm13.75,38.18a8.68,8.68,0,0,0-1.41,3.38A7.07,7.07,0,0,0,179.46,115.83ZM157.15,95.47a3.73,3.73,0,0,0-.12-2.88A3.57,3.57,0,0,0,157.15,95.47Zm15.79,53.45a3.84,3.84,0,0,0-.67,3A5.47,5.47,0,0,0,172.94,148.92Zm-9.1-48.26a3.62,3.62,0,0,0,.17,2.84C164.51,102.54,164.1,101.64,163.84,100.66Zm-5.3-1.88c-.53,1-.08,1.93.1,2.87A3.59,3.59,0,0,0,158.54,98.78Zm.71,2.92a3.47,3.47,0,0,0,.08,2.79A3.32,3.32,0,0,0,159.25,101.7Zm-5.19-27.23c.48-1.11-.11-1.94-.36-2.89C153.23,72.65,153.78,73.49,154.06,74.47Zm17.25,81.82a2.92,2.92,0,0,0-.15,2.85C171.68,158.19,171.3,157.23,171.31,156.29ZM150.68,72.34a4.93,4.93,0,0,0,.21,3A4.26,4.26,0,0,0,150.68,72.34Zm7.16,19.84a3.1,3.1,0,0,0-.15-2.71C157.21,90.41,157.6,91.27,157.84,92.18Zm-1.24-5.92c-.27,1,.33,1.93.5,2.9C157.62,88.07,156.82,87.22,156.6,86.26Zm3,.27a2.63,2.63,0,0,0,.15,2.19c0,.09,0,.33.21.2s.4-.08.29-.39C160,87.9,159.84,87.26,159.6,86.53Zm6.47,23.26c-.36,1.12.2,2.08.41,3.1C166.76,112,166.67,111.32,166.07,109.79Zm14.29,6.63a19.08,19.08,0,0,0-1.1,3.46A5.57,5.57,0,0,0,180.36,116.42Zm-15-57.68a3.53,3.53,0,0,0-.1-3C164.84,56.76,165.3,57.68,165.36,58.74Zm-14.25,5.87c.33-1.18-.42-2.14-.64-3.2C150.27,62.56,150.84,63.55,151.11,64.61Zm-74.31,6c-.77,0-1.53.09-2.29.07-.24,0-.33.08-.28.31s-.08.28,0,.45ZM182.28,112a3.76,3.76,0,0,0,.92-2.76A5.08,5.08,0,0,0,182.28,112Zm-1.19,12.55a7.21,7.21,0,0,0-1.24,3A6.43,6.43,0,0,0,181.09,124.55Zm-26.41-50c-.47,1.11.16,1.9.38,2.76C155.5,76.37,154.86,75.58,154.68,74.58Zm7,42.2c-.22.24-.44.33-.33.61l.77,2C162.48,118.48,161.83,117.73,161.72,116.78Zm-9.12-30c-.43.36-.45-.23.21,2.75C153.25,88.56,152.76,87.71,152.6,86.78Zm-3.39-29.34a10.64,10.64,0,0,0,.74,3.15A5.35,5.35,0,0,0,149.21,57.44ZM78.76,80.28c-1.24-.36-1.74.57-2.34,1.32Zm83.34,20.17a7,7,0,0,0,.64,3A7.59,7.59,0,0,0,162.1,100.45Zm-6.69-14a2.72,2.72,0,0,0,.14,2.45A3,3,0,0,0,155.41,86.45Zm18.28,68a9.44,9.44,0,0,0,.9-3.35A6.91,6.91,0,0,0,173.69,154.42Zm-8.16-45.33c.4-.89-.1-1.67-.27-2.49C164.86,107.48,165.34,108.27,165.53,109.09ZM161.45,94.4c.3-.9.33-.79-.28-2.51C160.76,92.77,161.24,93.51,161.45,94.4Zm.74,2.54a2.87,2.87,0,0,0-.2-2.41A2.65,2.65,0,0,0,162.19,96.94Zm18.43,24.57a3.7,3.7,0,0,0-1,2.49A4.16,4.16,0,0,0,180.62,121.51ZM166.81,75.06c-.6.72-.35,1.47-.24,2.26C167.2,76.6,166.92,75.84,166.81,75.06Zm-12,11c.47-1.06-.05-1.87-.27-2.72C154.29,84.27,154.71,85.1,154.83,86.08ZM92.91,82a12.11,12.11,0,0,0,3.7-1.22A23.92,23.92,0,0,0,92.91,82Zm39.19-21.8,1.39,2.13a6.91,6.91,0,0,0-.29-1.41c0-.14-.07-.24-.23-.27C132.63,60.61,132.41,60.36,132.1,60.21Zm45.43,71.24a5.71,5.71,0,0,0,1.07-3A9.16,9.16,0,0,0,177.53,131.45ZM155.89,80.27c.35-.84-.07-1.56-.29-2.3C155.22,78.81,155.69,79.52,155.89,80.27Zm11.46,52a3.07,3.07,0,0,0-.24-2.32A2.77,2.77,0,0,0,167.35,132.28ZM183.12,108l.15,0a12,12,0,0,0,.69-3.77ZM162.61,67.36c.4-1,0-2,0-3A10.55,10.55,0,0,0,162.61,67.36Zm-2,24.21c.45-.87,0-1.57-.2-2.34A3,3,0,0,0,160.63,91.57ZM169.41,72a.92.92,0,0,0,0,.6c.12.74.22,1.48.35,2.22,0,.12-.08.39.2.35s.15-.29.13-.42C169.85,73.87,169.63,73,169.41,72Zm-4.79,31.65a2.58,2.58,0,0,0,.1,2.31C165.15,105.22,164.77,104.51,164.62,103.67Zm-.12-52-.14,0,.45,3.19.16,0C165.14,53.77,164.63,52.76,164.5,51.69ZM162.36,63h.2l-.21-4.2h-.16C162.25,60.15,162.3,61.55,162.36,63Zm4.7,50.41a3.41,3.41,0,0,0,.21,2.46A3.5,3.5,0,0,0,167.06,113.36Zm16.25,1.13a6.89,6.89,0,0,0-.81,2.69A5.56,5.56,0,0,0,183.31,114.49Zm-13.2-37c.07-.24.54-.15.42-.55s-.22-.89-.33-1.37C169.72,76.24,170,76.88,170.11,77.53ZM153.29,90.1c-.38.92,0,1.73.18,2.6A3.84,3.84,0,0,0,153.29,90.1Zm-95,3.63a4.47,4.47,0,0,1,.32.49c.09.17.18.2.33.06.32-.31.64-.61,1.06-1ZM169,124.94a2.68,2.68,0,0,0,.27,2.33A5,5,0,0,0,169,124.94Zm3.41,33.58a3.89,3.89,0,0,0,.31-2.36A2.94,2.94,0,0,0,172.45,158.52Zm5.22-26.05a4.34,4.34,0,0,0-1,2.54A6.59,6.59,0,0,0,177.67,132.47Zm-18.61-43a2.63,2.63,0,0,0,.32,2.25C159.71,90.92,159.21,90.29,159.06,89.47ZM160.62,95c-.36.77.07,1.43.26,2.25C161.22,96.34,160.78,95.68,160.62,95Zm15,44.3a10,10,0,0,0,1-2.77A5.92,5.92,0,0,0,175.59,139.26Zm3.16-12.14a6,6,0,0,0,1.12-2.48A4.73,4.73,0,0,0,178.75,127.12Zm-10.9-10.9c-.17,1.32-.15,1.51.17,2.1C168.45,117.63,168,117,167.85,116.22Zm-9.34-27.36c.28-.75-.14-1.36-.3-2.09C157.81,87.61,158.29,88.21,158.51,88.86Zm8.38,46.22a2.31,2.31,0,0,0-.31-1.88A2,2,0,0,0,166.89,135.08Zm12.4-3.81a6.35,6.35,0,0,0-1.07,2.49A7.15,7.15,0,0,0,179.29,131.27Zm-27.45-64a2.12,2.12,0,0,0-.23-2A2.78,2.78,0,0,0,151.84,67.23ZM179,130.57a8.17,8.17,0,0,0,1.18-2.45A6.2,6.2,0,0,0,179,130.57ZM169.14,122a18.33,18.33,0,0,0-.52-2.64C168.33,120.36,168.87,121.13,169.14,122ZM156.57,82.79a2.08,2.08,0,0,0-.18-1.93A2.5,2.5,0,0,0,156.57,82.79Zm25.18,37.69a4.35,4.35,0,0,0,.85-2.23A4,4,0,0,0,181.75,120.48ZM154.12,77.6a5.08,5.08,0,0,0,.5,2.23A4.79,4.79,0,0,0,154.12,77.6Zm6,16.77c.34-.82,0-1.42-.24-2.15C159.52,93,160,93.63,160.1,94.37Zm-5-13.59a3.73,3.73,0,0,0,.41,2.23A4.82,4.82,0,0,0,155.06,80.78Zm19.25,73.73a4.79,4.79,0,0,0-.51,2.41A6.93,6.93,0,0,0,174.31,154.51Zm-8.2-38.72a7.79,7.79,0,0,0-.61-2.56A9,9,0,0,0,166.11,115.79Zm-4.48-16.2c.23-.68-.11-1.26-.31-2C161,98.41,161.45,99,161.63,99.59Zm20.27,21.76a3.36,3.36,0,0,0-.79,2A3.88,3.88,0,0,0,181.9,121.35ZM153.67,80.09a9.21,9.21,0,0,0,.48,2.32A5.25,5.25,0,0,0,153.67,80.09Zm9,40-.2,0a9.65,9.65,0,0,0,.62,2.09l.15,0Zm.47-15.66c-.19.66.16,1.19.33,1.77A2.71,2.71,0,0,0,163.18,104.38Zm1.94,7.52a6.47,6.47,0,0,0-.48-2.12A6,6,0,0,0,165.12,111.9Zm-9-26.29a1.85,1.85,0,0,0-.3-1.7A3.61,3.61,0,0,0,156.11,85.61Zm16.65,75.19a2.2,2.2,0,0,0,.11-1.59A1.84,1.84,0,0,0,172.76,160.8Zm-14.94-51.74a9,9,0,0,0,.77,2.79C158.34,110.92,158.08,110,157.82,109.06Zm6.15-2a2.08,2.08,0,0,0,.25,1.58A2.69,2.69,0,0,0,164,107.06Zm3.91,25.85a2.38,2.38,0,0,0,.18,1.86A4.76,4.76,0,0,0,167.88,132.91Zm9.2,4.76c.66-.45.53-1.16.77-1.72A6.43,6.43,0,0,0,177.08,137.67Zm-15-80.42h.12a22.11,22.11,0,0,0-.12-2.37Zm9.55,104.09c.27-.59,0-1.06,0-1.64C171.24,160.3,171.52,160.75,171.66,161.34ZM151.86,73a10.86,10.86,0,0,0,.52,2.52l.11,0Zm16.58,51.09a2,2,0,0,0-.19-1.53A2,2,0,0,0,168.44,124.11Zm-4-65.6.21,2.35.13,0A8.11,8.11,0,0,0,164.48,58.51Zm-7.41,21.25c.35-.65-.1-1.05-.2-1.51C156.65,78.76,156.94,79.18,157.07,79.76Zm-9-25.58c.2.66.4,1.33.61,2A3.71,3.71,0,0,0,148,54.18Zm19.74,67.62a2.85,2.85,0,0,0-.36-1.79A6.68,6.68,0,0,0,167.77,121.8Zm-15-45a7.63,7.63,0,0,0,.52,2.13A8.5,8.5,0,0,0,152.79,76.75ZM166.61,117l-.14,0a7.72,7.72,0,0,0,.4,1.52l.16,0Zm-17.5-54.54a3.8,3.8,0,0,0,.49,1.86ZM179.81,114a3.59,3.59,0,0,0,.53-1.78C180.17,112.78,180,113.38,179.81,114ZM118.6,38.78a2.45,2.45,0,0,0,.8,1.47Zm62.5,74.16-.48,1.86A3.79,3.79,0,0,0,181.1,112.94ZM153.64,76.52a2.47,2.47,0,0,0-.42-1.58Zm30.13,34.94-.37,1.71A3.07,3.07,0,0,0,183.77,111.46Zm-68-41.84,0-.08-.95-.48c-.08,0-.16,0-.2,0s0,.18.11.21ZM151,70a4.4,4.4,0,0,0,.37,1.55A5.24,5.24,0,0,0,151,70Zm17.9.05a5.2,5.2,0,0,0,.39,1.69A6.49,6.49,0,0,0,168.92,70Zm-12.53,7.31.11,0a3.89,3.89,0,0,0-.55-1.5C156.1,76.3,156.24,76.81,156.39,77.32ZM138.54,70c-.06.39-.19.81.25,1.18Zm29.05,66.9a1.61,1.61,0,0,0-.23-1.12C167.19,136.19,167.39,136.47,167.59,136.9Z"/><path class="cls-2" d="M113.16,100a2.29,2.29,0,0,1-.34,1.11,10,10,0,0,1-1.63,2.13,18.37,18.37,0,0,1-5.11,4,7,7,0,0,1-2.08.69c-1,.16-1.54-.44-1.31-1.41a3.83,3.83,0,0,1,.46-1.08,15.62,15.62,0,0,1,7.07-6.31,3,3,0,0,1,2-.26A1,1,0,0,1,113.16,100Zm-1.59-.5a2.12,2.12,0,0,0-1,.23,15.78,15.78,0,0,0-6,4.77,7.27,7.27,0,0,0-1.19,2.12c-.18.57,0,.77.6.67a7.65,7.65,0,0,0,2.78-1.16,20.25,20.25,0,0,0,4.85-4.43,4.93,4.93,0,0,0,.68-1.12C112.6,99.79,112.39,99.46,111.57,99.46Z"/><path class="cls-2" d="M22.43,134a1.41,1.41,0,0,1,.14-.85,35.4,35.4,0,0,0,1.87-5.69c0-.15,0-.38.25-.35s.18.28.15.44a28.54,28.54,0,0,1-1.31,4.34c-.18.52-.41,1-.63,1.53A.91.91,0,0,1,22.43,134Z"/><path class="cls-2" d="M23.25,128.18a3.12,3.12,0,0,1,.15-1.93.16.16,0,0,1,.23-.11.22.22,0,0,1,.13.24A4.43,4.43,0,0,1,23.25,128.18Z"/><path class="cls-2" d="M89,52.09a1.7,1.7,0,0,1-.27,0,22.14,22.14,0,0,1-3-1.42c-.15-.09-.28-.22-.17-.4s.28-.1.43,0c.91.5,1.87.91,2.82,1.33l.33.2c.08.06.18.12.16.23S89.05,52,89,52.09Z"/><path class="cls-2" d="M94.07,53.49c-.87-.24-1.75-.47-2.62-.72-.15,0-.27-.14-.21-.32s.21-.18.36-.14l2.58.7c.15,0,.38.11.33.29S94.24,53.45,94.07,53.49Z"/><path class="cls-2" d="M29.83,114.15a30.17,30.17,0,0,1-1.23,6.19c-.17.58-.35,1.15-.54,1.72,0,.13-.09.33-.28.27s-.13-.22-.11-.34a6.25,6.25,0,0,1,.17-.72,37.46,37.46,0,0,0,1.46-6.37c0-.41.05-.82.07-1.22,0-.18,0-.41.26-.39s.19.22.2.38Z"/><path class="cls-2" d="M27.71,118.11a1,1,0,0,1,0-.76c.16-.71.34-1.42.52-2.13.05-.16.07-.41.31-.36s.17.3.13.48c-.16.65-.32,1.3-.49,1.94A1.61,1.61,0,0,1,27.71,118.11Z"/><path class="cls-2" d="M85.16,66.45a24.39,24.39,0,0,0,4.89-.59c.16,0,.35-.1.4.12s-.15.25-.3.3a9.12,9.12,0,0,1-2.25.42,26,26,0,0,1-4.14.18c-.23,0-.62,0-.6-.25s.4-.17.63-.17Z"/><path class="cls-2" d="M84.32,65.54a.91.91,0,0,1,.68-.21c.89,0,1.77-.14,2.66-.23.17,0,.4-.09.44.16s-.21.28-.39.3a21.43,21.43,0,0,1-2.52.22A1.19,1.19,0,0,1,84.32,65.54Z"/><path class="cls-2" d="M74.8,69a1.65,1.65,0,0,1,1.09-.31A35.53,35.53,0,0,0,80,68c.19,0,.46-.22.53.1s-.26.3-.45.34a28,28,0,0,1-3.28.52c-.45.06-.9.09-1.36.12A.68.68,0,0,1,74.8,69Z"/><path class="cls-2" d="M74.85,67.9a.51.51,0,0,1,.42-.24l3-.26c.15,0,.33,0,.35.19s-.14.22-.29.23c-1,.08-2,.15-3,.21A.52.52,0,0,1,74.85,67.9Z"/><path class="cls-2" d="M74.62,66.91a1.32,1.32,0,0,1,1-.35l1.07-.09c.12,0,.23,0,.25.18a.17.17,0,0,1-.14.18A6.61,6.61,0,0,1,74.62,66.91Z"/><path class="cls-2" d="M35.8,94a.65.65,0,0,1,.42-.29,19.92,19.92,0,0,0,4.88-2.81,1.32,1.32,0,0,1,.25-.16.19.19,0,0,1,.25.07.18.18,0,0,1,0,.23,1,1,0,0,1-.2.21A21.77,21.77,0,0,1,37,93.93C36.38,94.19,36.23,94.19,35.8,94Z"/><path class="cls-2" d="M37.65,91.67a.91.91,0,0,1,.54-.52L40,90.21c.12-.06.24-.11.35,0a.19.19,0,0,1,0,.3A6.42,6.42,0,0,1,37.65,91.67Z"/><path class="cls-2" d="M79.18,52.12a1.25,1.25,0,0,1,.79-.33,12,12,0,0,1,3.38.3c.16,0,.36.08.33.29s-.24.2-.39.16a17,17,0,0,0-3.48-.35C79.63,52.19,79.46,52.15,79.18,52.12Z"/><path class="cls-2" d="M49.78,65.28a1.43,1.43,0,0,1,.82-.63,27.73,27.73,0,0,0,3.13-1.45c.15-.09.33-.21.46,0s0,.28-.17.35a18.2,18.2,0,0,1-3.86,1.7A2.06,2.06,0,0,1,49.78,65.28Z"/><path class="cls-2" d="M23,115.28a1.7,1.7,0,0,1,.63-.67,24.73,24.73,0,0,0,3.78-3.94,6.38,6.38,0,0,0,.93-1.65c.05-.15.12-.29.3-.23a.27.27,0,0,1,.15.37,5.39,5.39,0,0,1-.4.88,20,20,0,0,1-4.51,5A1.07,1.07,0,0,1,23,115.28Z"/><path class="cls-2" d="M25.71,111.38A15.72,15.72,0,0,0,27,109.63a.19.19,0,0,1,.26,0,.22.22,0,0,1,.12.19C27.39,110.31,26.32,111.4,25.71,111.38Z"/><path class="cls-2" d="M44.25,108.55a.84.84,0,0,1,.39-.53A8.42,8.42,0,0,0,47,104.86a1.73,1.73,0,0,1,.16-.3.18.18,0,0,1,.25-.07.18.18,0,0,1,.11.2,1.68,1.68,0,0,1-.09.32,8.92,8.92,0,0,1-2.22,3.11A1.25,1.25,0,0,1,44.25,108.55Z"/><path class="cls-2" d="M39.07,118.44a1.44,1.44,0,0,1,.55-.72,17.36,17.36,0,0,0,2.74-3.24,7.47,7.47,0,0,0,.83-1.76c.06-.18.09-.51.36-.43s.11.36.05.55a7.27,7.27,0,0,1-1,2.1A17.2,17.2,0,0,1,40,118,1.11,1.11,0,0,1,39.07,118.44Z"/><path class="cls-2" d="M39.63,116.57a.87.87,0,0,1,.31-.59,8.13,8.13,0,0,0,1.59-2.38c.06-.13.12-.29.31-.22a.21.21,0,0,1,.11.32,5.86,5.86,0,0,1-2,2.75A1.82,1.82,0,0,1,39.63,116.57Z"/><path class="cls-2" d="M22.9,143.73a2.82,2.82,0,0,1-.08-1.4,20,20,0,0,0,0-3.37,2.54,2.54,0,0,1,0-.39.21.21,0,0,1,.42,0,2,2,0,0,1,0,.24,19.59,19.59,0,0,1-.06,4.05A1.49,1.49,0,0,1,22.9,143.73Z"/><path class="cls-2" d="M64.52,54.51a.83.83,0,0,1,.65-.27c1.09,0,2.16-.22,3.24-.35.29,0,.78-.26.84.14s-.45.27-.72.31a23.46,23.46,0,0,1-3.24.37A1.14,1.14,0,0,1,64.52,54.51Z"/><path class="cls-2" d="M51,80a.57.57,0,0,1,.44-.39,7.5,7.5,0,0,0,2.11-1.07c.11-.08.23-.16.35,0s0,.26-.07.33A4.67,4.67,0,0,1,51,80Z"/><path class="cls-2" d="M54.74,101.91A12,12,0,0,1,53.3,106a.44.44,0,0,1-.12.15c-.13.1-.27.27-.42.15s0-.28.07-.4a11.82,11.82,0,0,0,1.44-4.17c0-.15,0-.31.25-.28S54.72,101.67,54.74,101.91Z"/><path class="cls-2" d="M50.2,110a.53.53,0,0,1,.18-.44,8.18,8.18,0,0,0,1.2-1.78c.06-.14.14-.28.33-.22s.15.25.09.38a5.74,5.74,0,0,1-1.32,1.91A.46.46,0,0,1,50.2,110Z"/><path class="cls-2" d="M87.53,123.21a1.06,1.06,0,0,1,.33-.58,33.63,33.63,0,0,0,2.67-3.72c.08-.13.14-.35.34-.25s.1.32,0,.46a34.08,34.08,0,0,1-2.75,3.78C87.94,123.1,87.9,123.11,87.53,123.21Z"/><path class="cls-2" d="M89.13,119a.48.48,0,0,1,.2-.37,7,7,0,0,0,1.25-1.92c0-.13.13-.29.31-.22a.22.22,0,0,1,.12.32,4.78,4.78,0,0,1-1.39,2A.62.62,0,0,1,89.13,119Z"/><path class="cls-2" d="M35.21,130.71a2.55,2.55,0,0,1,.55-.86,16.47,16.47,0,0,0,3.39-6.69,1.73,1.73,0,0,1,.11-.32.2.2,0,0,1,.23-.14.19.19,0,0,1,.13.23,6.17,6.17,0,0,1-.11.62,16.8,16.8,0,0,1-3.35,6.5A1.5,1.5,0,0,1,35.21,130.71Z"/><path class="cls-2" d="M94.72,115.41a2.41,2.41,0,0,1,.71-.84,18.4,18.4,0,0,0,3.25-4.14,6.74,6.74,0,0,0,.62-1.58c0-.14.09-.32.28-.26s.15.22.11.37a7.77,7.77,0,0,1-.83,2,18.94,18.94,0,0,1-3,3.82A2.15,2.15,0,0,1,94.72,115.41Z"/><path class="cls-2" d="M63.52,89.05a1,1,0,0,1-.16.26,11.74,11.74,0,0,1-1.85,1.6l-.08,0c-.22.08-.51.29-.66,0s.23-.3.4-.42A12.16,12.16,0,0,0,63,89c.11-.11.2-.23.38-.16S63.51,88.94,63.52,89.05Z"/><path class="cls-2" d="M103.15,51.6a1.29,1.29,0,0,1-.53-.12,27.13,27.13,0,0,1-3.48-2l-.3-.25c-.1-.1-.16-.22-.06-.35a.22.22,0,0,1,.34,0c.19.12.37.27.56.39A26.38,26.38,0,0,0,102.74,51a4.21,4.21,0,0,1,.51.29c.08.05.18.12.14.23S103.22,51.58,103.15,51.6Z"/><path class="cls-2" d="M115.23,56.79a1.58,1.58,0,0,1-.54-.55,20.22,20.22,0,0,0-3.51-4.15c-.11-.09-.21-.19-.12-.33a.24.24,0,0,1,.35,0,1.54,1.54,0,0,1,.36.25A22.79,22.79,0,0,1,115,56,1,1,0,0,1,115.23,56.79Z"/><path class="cls-2" d="M51.86,98.57c-.15,0-.37,0-.39-.18s.2-.17.33-.22a10.17,10.17,0,0,0,4.72-3.31c.1-.12.2-.26.36-.14s.08.28,0,.4a3.71,3.71,0,0,1-.42.54,12.86,12.86,0,0,1-3.79,2.7A2,2,0,0,1,51.86,98.57Z"/><path class="cls-2" d="M64.77,73.24c-.22,0-.45,0-.68,0s-.42,0-.42-.24.25-.2.41-.2c.69,0,1.37-.06,2-.14a25.11,25.11,0,0,0,5.49-1.11c.15,0,.33-.14.42.06s-.12.31-.28.37a17.84,17.84,0,0,1-3.93.93A26,26,0,0,1,64.77,73.24Z"/><path class="cls-2" d="M66.71,71.71a.62.62,0,0,1,.5-.3c.89-.16,1.79-.3,2.69-.43.15,0,.37-.07.41.13s-.2.25-.36.28c-.9.14-1.8.29-2.7.42A.68.68,0,0,1,66.71,71.71Z"/><path class="cls-2" d="M37.31,100.21a12.06,12.06,0,0,1-1,2.86c-.08.16-.2.4-.43.28s-.06-.33,0-.48a14.28,14.28,0,0,0,.92-2.72c0-.15.09-.34.31-.29S37.34,100.06,37.31,100.21Z"/><path class="cls-2" d="M33.9,106.61c-.27,0-.3-.11-.19-.26a15.75,15.75,0,0,0,.92-1.38.23.23,0,0,1,.29-.12.2.2,0,0,1,.15.27,3.31,3.31,0,0,1-1,1.43A.41.41,0,0,1,33.9,106.61Z"/><path class="cls-2" d="M77.48,78.9c-.11,0-.26,0-.29-.11s.11-.23.22-.26c.45-.14.91-.26,1.36-.39.91-.25,1.8-.52,2.69-.85.16-.06.39-.23.49,0s-.17.29-.32.35a34,34,0,0,1-4,1.19A1.23,1.23,0,0,1,77.48,78.9Z"/><path class="cls-2" d="M77.62,77.7a1.32,1.32,0,0,1,.7-.44l2.78-.92a1.61,1.61,0,0,1,.38-.08.19.19,0,0,1,.11.36,21.6,21.6,0,0,1-3.78,1.12Z"/><path class="cls-2" d="M113.26,27.11c0,.09,0,.24-.11.27s-.16-.1-.21-.18-.16-.28-.23-.43a26.43,26.43,0,0,0-2.95-5.1c-.1-.12-.2-.26-.06-.39s.31-.06.42.07a6.8,6.8,0,0,1,.57.73,31.17,31.17,0,0,1,2.37,4.27A1.75,1.75,0,0,1,113.26,27.11Z"/><path class="cls-2" d="M46.86,90.23c.08-.25.28-.31.43-.41a20.69,20.69,0,0,0,4.19-3.56,5,5,0,0,0,1-1.51c.06-.15.13-.34.34-.25s.13.28.07.42a5.18,5.18,0,0,1-.94,1.54,23.34,23.34,0,0,1-3.86,3.43A1.36,1.36,0,0,1,46.86,90.23Z"/><path class="cls-2" d="M93.12,107.14l-.3,0c-.12,0-.22-.09-.2-.23s.1-.16.2-.17a9.32,9.32,0,0,0,3.36-.94c.11,0,.25-.1.32,0s0,.24-.11.33a1,1,0,0,1-.24.16A10.11,10.11,0,0,1,93.12,107.14Z"/><path class="cls-2" d="M100.12,103.91a.78.78,0,0,1-.45.56l-1.93,1.14c-.15.08-.35.23-.48,0s.1-.33.26-.43l2-1.22A.54.54,0,0,1,100.12,103.91Z"/><path class="cls-2" d="M93.14,79.93a1.19,1.19,0,0,1,.65-.31,19.5,19.5,0,0,0,3.14-1c.17-.08.4-.22.51,0s-.15.35-.33.42a17.67,17.67,0,0,1-2.9,1A1.53,1.53,0,0,1,93.14,79.93Z"/><path class="cls-2" d="M138.67,98.61a1.29,1.29,0,0,1-.89.44,24,24,0,0,1-3.79.1c-.17,0-.36,0-.37-.23s.14-.23.3-.23a40.07,40.07,0,0,0,4.52-.1A1.11,1.11,0,0,1,138.67,98.61Z"/><path class="cls-2" d="M72.65,86.83c0,.09-.06.18-.1.27a5.58,5.58,0,0,1-1,1.5A16.42,16.42,0,0,1,68,91.44c-.24.14-.61.41-.77.15s.29-.39.51-.52a17.52,17.52,0,0,0,3.16-2.46,6,6,0,0,0,1.24-1.75c.07-.13.15-.26.32-.25S72.63,86.72,72.65,86.83Z"/><path class="cls-2" d="M69.14,89a1.38,1.38,0,0,1,.57-.64,4.46,4.46,0,0,0,.89-.9c.08-.09.17-.17.3-.1s.11.18.07.29A2.93,2.93,0,0,1,69.14,89Z"/><path class="cls-2" d="M106,20.63a3.24,3.24,0,0,1-.74-.88c-.23-.36-.47-.7-.71-1.05-.08-.11-.14-.23,0-.34a.18.18,0,0,1,.26.05A4.6,4.6,0,0,1,106,20.63Z"/><path class="cls-2" d="M107.44,68.77a7.38,7.38,0,0,1-2-.49c-.16,0-.34-.14-.26-.34s.26-.15.41-.09a8.86,8.86,0,0,0,1.89.47c.19,0,.51,0,.47.25S107.6,68.75,107.44,68.77Z"/><path class="cls-2" d="M109.16,68.2l1.46.22c.11,0,.25,0,.24.19s-.15.18-.25.18a15.93,15.93,0,0,1-1.84-.2.17.17,0,0,1-.15-.22C108.68,68.16,108.87,68.21,109.16,68.2Z"/><path class="cls-2" d="M69.43,98.06a1.72,1.72,0,0,1,.61-.74,15.92,15.92,0,0,0,2.57-2.81,2.86,2.86,0,0,0,.65-1.5c0-.15.07-.27.22-.27s.26.13.26.29a2,2,0,0,1-.32,1.11,13.79,13.79,0,0,1-3.2,3.65A.94.94,0,0,1,69.43,98.06Z"/><path class="cls-2" d="M61.21,80.33a1.43,1.43,0,0,1,.67-.57,14.38,14.38,0,0,0,3.05-2c.12-.1.26-.25.41-.07s0,.26-.08.34a10.71,10.71,0,0,1-3.8,2.31A1,1,0,0,1,61.21,80.33Z"/><path class="cls-2" d="M67.69,83.57c.06-.27.26-.36.45-.45,1.64-.82,3.26-1.69,4.94-2.42a3,3,0,0,1,.32-.12c.12,0,.27-.07.34.07s0,.28-.18.34c-1.79.76-3.49,1.72-5.26,2.54A1,1,0,0,1,67.69,83.57Z"/><path class="cls-2" d="M126.31,47.8a1,1,0,0,1-.44-.61A28.67,28.67,0,0,0,124,43.33a3,3,0,0,1-.15-.31.22.22,0,0,1,.1-.29c.12-.08.22,0,.3.07a.94.94,0,0,1,.14.19,29.21,29.21,0,0,1,1.84,3.72A1.55,1.55,0,0,1,126.31,47.8Z"/><path class="cls-2" d="M76.74,87a5.14,5.14,0,0,0,1.41-.12c.11,0,.25,0,.3.07s-.07.25-.18.3a4.65,4.65,0,0,1-2.31.17.23.23,0,0,1-.22-.27c0-.13.15-.15.27-.15Z"/><path class="cls-2" d="M81.45,84.74a.8.8,0,0,1-.35.73,4.85,4.85,0,0,1-1.16.79.21.21,0,0,1-.3,0,.18.18,0,0,1,0-.26Z"/><path class="cls-2" d="M118.93,94.32a24.59,24.59,0,0,1-2.73-.4c-.18,0-.44-.07-.37-.34s.31-.18.49-.14c.88.16,1.76.3,2.65.39.21,0,.59,0,.58.22S119.15,94.28,118.93,94.32Z"/><path class="cls-2" d="M121.31,94.46c-.22,0-.46,0-.48-.21s.21-.24.39-.26c.87-.11,1.75,0,2.62-.22.1,0,.26,0,.31.06s-.1.23-.2.29a1.66,1.66,0,0,1-.84.23A17.06,17.06,0,0,0,121.31,94.46Z"/><path class="cls-2" d="M41.84,85.54c-.16,0-.38,0-.4-.21s.16-.19.28-.22L46.42,84c.13,0,.28,0,.33.11s-.08.28-.22.32q-.48.15-1,.27l-3.42.78Z"/><path class="cls-2" d="M42.56,84.45c-.15,0-.38,0-.4-.2s.19-.2.33-.23c.33-.08.66-.14,1-.2.14,0,.31,0,.34.19s-.12.24-.27.27Z"/><path class="cls-2" d="M63.79,102.6c-.11,0-.18-.1-.06-.24.38-.43.77-.84,1.16-1.25a.14.14,0,0,1,.22,0,.26.26,0,0,1,.07.17A3.07,3.07,0,0,1,63.79,102.6Z"/><path class="cls-2" d="M61.47,104.22a4.06,4.06,0,0,1,1.37-1,.19.19,0,0,1,.26.06.16.16,0,0,1,0,.22C62.59,103.8,62.15,104.26,61.47,104.22Z"/><path class="cls-2" d="M109.48,96.84a1.57,1.57,0,0,1-.92.74,11.22,11.22,0,0,1-3.08.66c-.18,0-.39,0-.42-.21s.12-.22.26-.23a13.74,13.74,0,0,0,4-1A.62.62,0,0,1,109.48,96.84Z"/><path class="cls-2" d="M83.13,88.05a1.34,1.34,0,0,1-.57.72,22.33,22.33,0,0,1-4.27,2.32c-.15.06-.33.14-.43-.06s.08-.26.21-.31a22.59,22.59,0,0,0,4.64-2.57A.4.4,0,0,1,83.13,88.05Z"/><path class="cls-2" d="M126.94,98.3a1.27,1.27,0,0,1-1,.43,11.58,11.58,0,0,1-2.76-.16c-.17,0-.35-.09-.32-.3s.21-.18.35-.15a13.43,13.43,0,0,0,3.35.14A1.85,1.85,0,0,1,126.94,98.3Z"/><path class="cls-2" d="M92.75,73a.63.63,0,0,1,.56-.18c.83,0,1.66.11,2.48.18.16,0,.41,0,.38.28s-.27.17-.43.16l-2.38-.2A.94.94,0,0,1,92.75,73Z"/><path class="cls-2" d="M74.16,135.91a.42.42,0,0,1,.16-.41,10.43,10.43,0,0,0,1.49-2.45c.1-.19.17-.52.46-.37s.06.41,0,.6a11.28,11.28,0,0,1-1.15,2A1.18,1.18,0,0,1,74.16,135.91Z"/><path class="cls-2" d="M136.41,122.94c-.19,0-.33,0-.37-.13s.1-.2.19-.25l2.42-1.14a.22.22,0,0,1,.3.08.21.21,0,0,1-.06.3A9.86,9.86,0,0,1,136.41,122.94Z"/><path class="cls-2" d="M114.84,80.27a1,1,0,0,1,.82-.15l3.39.47c.18,0,.45,0,.43.28s-.29.21-.46.18l-3.63-.5A.91.91,0,0,1,114.84,80.27Z"/><path class="cls-2" d="M51.18,117.39a10,10,0,0,0,1.35-3c0-.13.13-.24.29-.19a.2.2,0,0,1,.13.28A7.21,7.21,0,0,1,51.88,117,.93.93,0,0,1,51.18,117.39Z"/><path class="cls-2" d="M127.07,126.65c.21,0,.23.22.13.37a6.55,6.55,0,0,1-1.63,1.85c-.12.09-.33.23-.47,0s.1-.26.2-.35a9.85,9.85,0,0,0,1.46-1.69C126.83,126.77,126.9,126.65,127.07,126.65Z"/><path class="cls-2" d="M133.8,119.43a1.28,1.28,0,0,1-1,.36c-.57,0-1.14,0-1.71,0-.14,0-.28,0-.31-.18s.07-.22.2-.22A18.73,18.73,0,0,1,133.8,119.43Z"/><path class="cls-2" d="M56.88,110.21a1.23,1.23,0,0,1,.33-.55A9.91,9.91,0,0,0,59,107c.06-.14.13-.29.31-.22s.15.25.09.38a7.91,7.91,0,0,1-2,2.86A.53.53,0,0,1,56.88,110.21Z"/><path class="cls-2" d="M102.47,77.84a.71.71,0,0,1,.57-.3,16.63,16.63,0,0,1,3.15-.21,1.27,1.27,0,0,1,.34,0,.18.18,0,0,1,.13.23.16.16,0,0,1-.18.13c-1.32-.1-2.62.22-3.93.17C102.52,77.91,102.5,77.87,102.47,77.84Z"/><path class="cls-2" d="M109.66,102.57a1.64,1.64,0,0,1-.49.82,15.62,15.62,0,0,1-3.28,2.36c-.15.08-.36.22-.47,0s.13-.29.27-.38A16.26,16.26,0,0,0,109,103,1.35,1.35,0,0,1,109.66,102.57Z"/><text class="cls-3" transform="translate(87.55 193.75)">Rice</text></g></g></svg>