<?xml version="1.0" encoding="utf-8"?>
<!-- Generator: Adobe Illustrator 25.4.1, SVG Export Plug-In . SVG Version: 6.00 Build 0)  -->
<svg version="1.1" id="图层_1" xmlns="http://www.w3.org/2000/svg" xmlns:xlink="http://www.w3.org/1999/xlink" x="0px" y="0px"
	 viewBox="0 0 731 732" style="enable-background:new 0 0 731 732;" xml:space="preserve">
<style type="text/css">
	.st0{opacity:0.2;fill:#1F787A;enable-background:new    ;}
	.st1{fill:#1F787A;}
	.st2{font-family:'Arial-BoldMT';}
	.st3{font-size:35.48px;}
	.st4{font-size:35.3698px;}
	.st5{font-size:35.352px;}
	.st6{font-size:35.3823px;}
	.st7{font-size:35.5438px;}
	.st8{font-size:35.4818px;}
	.st9{font-size:35.5668px;}
	.st10{font-size:35.6393px;}
	.st11{font-size:35.2879px;}
	.st12{font-size:35.4552px;}
	.st13{font-size:35.5597px;}
	.st14{font-size:35.5456px;}
	.st15{font-size:35.295px;}
	.st16{font-size:35.4303px;}
	.st17{font-size:35.3467px;}
	.st18{font-size:35.2986px;}
	.st19{font-size:35.6252px;}
	.st20{font-size:35.4179px;}
	.st21{font-size:35.5243px;}
	.st22{font-size:35.5544px;}
	.st23{font-size:35.6234px;}
	.st24{font-size:35.4534px;}
	.st25{font-size:35.6817px;}
	.st26{font-size:35.4747px;}
	.st27{font-size:35.5084px;}
	.st28{font-size:35.4871px;}
	.st29{font-size:35.581px;}
	.st30{font-size:35.5119px;}
	.st31{font-size:35.4125px;}
	.st32{font-size:35.6287px;}
	.st33{font-size:35.5739px;}
	.st34{font-size:35.4321px;}
	.st35{font-size:35.5403px;}
	.st36{font-size:35.4267px;}
	.st37{font-size:35.6446px;}
	.st38{font-size:35.2897px;}
	.st39{fill:#EEBC8A;}
	.st40{font-family:'Algerian';}
	.st41{font-size:45px;}
</style>
<g id="图层_2_00000169517050536071145820000006138542511740435333_">
	<g id="图层_1-2">
		<ellipse class="st0" cx="365.5" cy="366" rx="365.5" ry="366"/>
		<ellipse class="st0" cx="365.5" cy="366" rx="317.4" ry="317.8"/>
		<ellipse class="st0" cx="365.5" cy="366" rx="269.3" ry="269.7"/>
		<ellipse class="st0" cx="365.5" cy="366" rx="221.2" ry="221.5"/>
		<ellipse class="st0" cx="365.5" cy="366" rx="173.1" ry="173.4"/>
		<ellipse class="st0" cx="365.5" cy="366" rx="125.1" ry="125.2"/>
		<text transform="matrix(-0.28 -0.96 0.96 -0.28 57.25 470.2401)" class="st1 st2 st3">A</text>
		<text transform="matrix(-0.2307 -0.973 0.973 -0.2307 50.3095 445.8914)" class="st1 st2 st4">l</text>
		<text transform="matrix(-0.1807 -0.9835 0.9835 -0.1807 47.9695 436.5997)" class="st1 st2 st5">p</text>
		<text transform="matrix(-0.1203 -0.9927 0.9927 -0.1203 44.0703 415.6601)" class="st1 st2 st6">h</text>
		<text transform="matrix(-5.989229e-02 -0.9982 0.9982 -5.989229e-02 41.5694 394.4902)" class="st1 st2 st7">a</text>
		<text transform="matrix(9.999500e-03 -0.9999 0.9999 9.999500e-03 40.4498 375.1498)" class="st1 st2 st8">F</text>
		<text transform="matrix(6.982913e-02 -0.9976 0.9976 6.982913e-02 40.5696 353.8394)" class="st1 st2 st9">o</text>
		<text transform="matrix(0.1203 -0.9927 0.9927 0.1203 42.2303 332.4998)" class="st1 st2 st6">l</text>
		<text transform="matrix(0.1692 -0.9856 0.9856 0.1692 43.2097 322.9911)" class="st1 st2 st10">d</text>
		<text transform="matrix(0.2614 -0.9753 0.9652 0.2614 48.7199 292.52)" class="st1 st2 st11">P</text>
		<text transform="matrix(0.3102 -0.9507 0.9507 0.3102 54.9204 270.0199)" class="st1 st2 st12">r</text>
		<text transform="matrix(0.361 -0.9326 0.9326 0.361 59.0901 257.161)" class="st1 st2 st6">e</text>
		<text transform="matrix(0.4191 -0.908 0.908 0.4191 66.06 239.0809)" class="st1 st2 st13">d</text>
		<text transform="matrix(0.4592 -0.8884 0.8884 0.4592 75.1603 219.7)" class="st1 st2 st14">i</text>
		<text transform="matrix(0.5026 -0.8746 0.8645 0.5026 79.4809 211.1599)" class="st1 st2 st15">c</text>
		<text transform="matrix(0.5408 -0.8412 0.8412 0.5408 89.31 194.3703)" class="st1 st2 st16">t</text>
		<text transform="matrix(0.5822 -0.8131 0.8131 0.5822 95.4898 184.6096)" class="st1 st2 st17">e</text>
		<text transform="matrix(0.6332 -0.784 0.774 0.6332 106.7205 168.8501)" class="st1 st2 st18">d</text>
		<text transform="matrix(0.7071 -0.7071 0.7071 0.7071 126.6106 145.1102)" class="st1 st2 st19">P</text>
		<text transform="matrix(0.7413 -0.6712 0.6712 0.7413 143.1897 128.6792)" class="st1 st2 st20">l</text>
		<text transform="matrix(0.769 -0.6392 0.6392 0.769 150.2304 122.1301)" class="st1 st2 st21">a</text>
		<text transform="matrix(0.8083 -0.5888 0.5888 0.8083 165.0802 109.7303)" class="st1 st2 st22">n</text>
		<text transform="matrix(0.8366 -0.5478 0.5478 0.8366 182.3998 97.18)" class="st1 st2 st23">t</text>
		<text transform="matrix(0.8784 -0.4691 0.4592 0.8884 199.9902 85.5205)" class="st1 st2 st14">W</text>
		<text transform="matrix(0.9207 -0.3903 0.3903 0.9207 229.2905 70.3702)" class="st1 st2 st24">h</text>
		<text transform="matrix(0.9347 -0.3281 0.3281 0.9446 248.88 62.0604)" class="st1 st2 st25">o</text>
		<text transform="matrix(0.96 -0.28 0.28 0.96 269.12 55.18)" class="st1 st2 st3">l</text>
		<text transform="matrix(0.9707 -0.2402 0.2402 0.9707 278.2504 52.3704)" class="st1 st2 st24">e</text>
		<text transform="matrix(0.9901 -0.15 0.14 0.9901 306.5002 45.7703)" class="st1 st2 st26">P</text>
		<text transform="matrix(0.996 -8.963770e-02 8.963770e-02 0.996 329.58 42.5198)" class="st1 st2 st23">r</text>
		<text transform="matrix(0.9992 -3.996804e-02 3.996804e-02 0.9992 343.0197 41.2093)" class="st1 st2 st27">o</text>
		<text transform="matrix(0.9998 9.997999e-03 -1.999600e-02 0.9998 364.3496 40.5709)" class="st1 st2 st28">t</text>
		<text transform="matrix(0.9982 5.989229e-02 -5.989229e-02 0.9982 375.8898 40.6394)" class="st1 st2 st7">e</text>
		<text transform="matrix(0.9927 0.1203 -0.1203 0.9927 395.2098 41.8098)" class="st1 st2 st6">o</text>
		<text transform="matrix(0.9798 0.2 -0.2 0.9798 416.2702 44.2303)" class="st1 st2 st28">m</text>
		<text transform="matrix(0.96 0.28 -0.28 0.96 446.6401 50.7401)" class="st1 st2 st3">e</text>
		<text transform="matrix(-8.963770e-02 0.996 -0.996 -8.963770e-02 690.3403 382.1897)" class="st1 st2 st23">R</text>
		<text transform="matrix(-0.1595 0.9872 -0.9872 -0.1595 687.9992 407.3307)" class="st1 st2 st29">e</text>
		<text transform="matrix(-0.2195 0.9778 -0.9778 -0.2095 684.9688 426.4693)" class="st1 st2 st13">v</text>
		<text transform="matrix(-0.2707 0.9627 -0.9627 -0.2707 680.8109 445.4102)" class="st1 st2 st6">e</text>
		<text transform="matrix(-0.3192 0.9477 -0.9477 -0.3192 675.4509 464.1102)" class="st1 st2 st9">r</text>
		<text transform="matrix(-0.3697 0.9292 -0.9292 -0.3697 671.201 476.9198)" class="st1 st2 st30">s</text>
		<text transform="matrix(-0.4191 0.908 -0.908 -0.4191 664.079 494.9595)" class="st1 st2 st13">e</text>
		<text transform="matrix(-0.5101 0.8601 -0.8601 -0.5101 651.4817 521.1304)" class="st1 st2 st26">V</text>
		<text transform="matrix(-0.5478 0.8366 -0.8366 -0.5478 639.8295 540.64)" class="st1 st2 st23">i</text>
		<text transform="matrix(-0.5822 0.8231 -0.8131 -0.5822 634.5595 548.7399)" class="st1 st2 st17">r</text>
		<text transform="matrix(-0.6112 0.7915 -0.7915 -0.6112 626.6904 559.7997)" class="st1 st2 st31">t</text>
		<text transform="matrix(-0.65 0.76 -0.76 -0.65 619.7697 569.0202)" class="st1 st2 st8">u</text>
		<text transform="matrix(-0.6971 0.717 -0.717 -0.6971 605.9282 585.1893)" class="st1 st2 st32">a</text>
		<text transform="matrix(-0.7267 0.6869 -0.6869 -0.7267 592.3115 599.0997)" class="st1 st2 st10">l</text>
		<text transform="matrix(-0.7779 0.6283 -0.6283 -0.7779 578.2313 612.2603)" class="st1 st2 st33">S</text>
		<text transform="matrix(-0.8211 0.5808 -0.5708 -0.8211 560.07 626.791)" class="st1 st2 st34">c</text>
		<text transform="matrix(-0.8486 0.5291 -0.5291 -0.8486 544.1387 637.8999)" class="st1 st2 st35">r</text>
		<text transform="matrix(-0.8713 0.4907 -0.4907 -0.8713 532.7316 645.1901)" class="st1 st2 st36">e</text>
		<text transform="matrix(-0.8984 0.4392 -0.4392 -0.8984 515.8591 654.6799)" class="st1 st2 st7">e</text>
		<text transform="matrix(-0.9158 0.3782 -0.3782 -0.9257 498.4709 663.1812)" class="st1 st2 st37">n</text>
		<text transform="matrix(-0.9435 0.3312 -0.3312 -0.9435 478.6404 671.1698)" class="st1 st2 st17">i</text>
		<text transform="matrix(-0.9573 0.2892 -0.2892 -0.9573 469.6808 674.5101)" class="st1 st2 st29">n</text>
		<text transform="matrix(-0.9752 0.2312 -0.2212 -0.9752 449.2994 680.6715)" class="st1 st2 st38">g</text>
		<text transform="matrix(1 0 0 1 278.89 379.81)" class="st39 st40 st41">PokeVA</text>
	</g>
</g>
</svg>
