<svg xmlns="http://www.w3.org/2000/svg" viewBox="0 0 185.64 225.97"><defs><style>.cls-1{font-size:22px;fill:#666;font-family:Arial-BoldMT, Arial;font-weight:700;}.cls-2{fill:#e59d8b;}.cls-3,.cls-4{isolation:isolate;}.cls-4{font-size:12.26px;fill:#ff0d0d;font-family:ArialMT, Arial;}</style></defs><g id="图层_2" data-name="图层 2"><g id="图层_1-2" data-name="图层 1"><text/><text class="cls-1" transform="translate(25.23 217.69)">Salicylic acid</text><circle class="cls-2" cx="92.82" cy="92.82" r="92.82"/><polygon points="141.66 119.4 127.44 144.04 127.12 143.48 126.8 142.93 140.38 119.4 141.02 119.4 141.66 119.4"/><polygon points="137.65 119.68 125.67 140.42 125.19 140.15 124.71 139.87 136.69 119.12 137.17 119.4 137.65 119.68"/><polygon points="127.44 144.04 98.99 144.04 99.31 143.48 99.63 142.93 126.8 142.93 127.12 143.48 127.44 144.04"/><polygon points="98.99 144.04 85.09 119.96 85.41 119.4 86.05 119.4 99.63 142.93 99.31 143.48 98.99 144.04"/><polygon points="100.76 140.42 88.78 119.68 89.26 119.4 89.74 119.12 101.72 139.87 101.24 140.15 100.76 140.42"/><polygon points="85.09 118.84 98.67 95.32 99.31 95.32 99.63 95.88 86.05 119.4 85.41 119.4 85.09 118.84"/><polygon points="99.63 94.77 127.44 94.77 127.12 95.32 126.8 95.88 99.63 95.88 99.31 95.32 99.63 94.77"/><polygon points="101.24 98.1 125.19 98.1 125.19 98.66 125.19 99.22 101.24 99.22 101.24 98.66 101.24 98.1"/><polygon points="127.44 94.77 141.66 119.4 141.02 119.4 140.38 119.4 126.8 95.88 127.12 95.32 127.44 94.77"/><polygon points="98.67 95.32 84.77 71.24 85.41 71.24 86.05 71.24 99.63 94.77 99.31 95.32 98.67 95.32"/><polygon points="86.37 73.47 63.49 73.47 63.49 72.91 63.49 72.35 86.37 72.35 86.37 72.91 86.37 73.47"/><polygon points="86.37 70.13 63.49 70.13 63.49 69.57 63.49 69.02 86.37 69.02 86.37 69.57 86.37 70.13"/><g class="cls-3"><text class="cls-4" transform="translate(52.84 76.21)">O</text></g><polygon points="84.77 71.24 95.26 53.07 95.74 53.35 96.22 53.63 86.05 71.24 85.41 71.24 84.77 71.24"/><g class="cls-3"><text class="cls-4" transform="translate(94.54 52.13)">O</text><text class="cls-4" transform="translate(104.08 52.13)">H</text></g><polygon points="85.09 119.96 63.49 119.96 63.49 119.4 63.49 118.84 85.09 118.84 85.41 119.4 85.09 119.96"/><g class="cls-3"><text class="cls-4" transform="translate(43.98 124.37)">H</text><text class="cls-4" transform="translate(52.84 124.37)">O</text></g></g></g></svg>