<svg xmlns="http://www.w3.org/2000/svg" viewBox="0 0 255 235"><defs><style>.cls-1{fill:#1f787a;stroke-miterlimit:10;stroke-width:4.99px;}.cls-1,.cls-3{stroke:#eebc8a;}.cls-2{font-size:15.31px;}.cls-2,.cls-4{fill:#eebc8a;font-family:ArialMT, Arial;}.cls-3,.cls-5{fill:none;}.cls-3{stroke-width:0.36px;}.cls-4{font-size:23.1px;}</style></defs><g id="图层_2" data-name="图层 2"><g id="图层_1-2" data-name="图层 1"><rect class="cls-1" x="2.99" y="2.5" width="249.02" height="230" rx="12.23"/><text class="cls-2" transform="translate(67.59 201.21)">Protein # : 27,434<tspan x="-3.41" y="20.42">Pocket # : 134,556</tspan></text><path class="cls-3" d="M101.56,176.44a22.65,22.65,0,0,1-5.6,1.4H93.34l-2-.09-.58-.36-1.34,0h0c-.09-.57-.46-.57-.9-.44h0c-.09-.55-.44-.59-.88-.46h0c0-.35-.16-.47-.48-.44h0c0-.32-.15-.45-.46-.45l0,0a.4.4,0,0,0-.46-.46l0,0c0-.31-.14-.47-.46-.46l0,0c0-.31-.11-.49-.44-.47h0c.25-.68-.34-1.18-.41-1.79a.9.9,0,0,0,0-.43c0-.88,0-1.76,0-2.63l.06-.89c.18-.88.75-1.7.4-2.66h0c1.17-.52,1.19-1.62,1.3-2.66l0,0a1.31,1.31,0,0,0,.9-1.77h0c.54-.09.6-.43.46-.88h0c.78-.13,1-.6.87-1.34h0c.33,0,.45-.16.44-.46l0,0c.51-.11.61-.43.47-.89h0c.34,0,.45-.17.45-.47l0,0c.51-.11.62-.43.47-.89h0c.34,0,.45-.16.44-.47l0,0c.53-.09.63-.42.48-.88h0c.35,0,.47-.15.44-.47v0c.33,0,.45-.16.44-.47l0,0c.52-.1.64-.42.48-.88h0c.35,0,.48-.13.45-.46l0,0c.34,0,.46-.15.45-.47l0,0a1,1,0,0,0,.91-1.31h0c.34,0,.48-.12.44-.46v0c.34,0,.47-.14.45-.46l0,0c.33,0,.46-.15.45-.47l0,0c.32,0,.46-.15.45-.46l0,0c.32,0,.46-.15.46-.46l0,0c.31,0,.45-.16.46-.46l0,0A2.58,2.58,0,0,0,99,147l0,0a.4.4,0,0,0,.46-.46l0,0c.3,0,.47-.14.46-.46l0,0c.31,0,.47-.13.46-.45l0,0c.31,0,.48-.12.46-.45h0c.32,0,.5-.1.46-.44h0c.33,0,.49-.1.46-.44h0c.46.16.78,0,.88-.48l0,0c.31,0,.49-.12.46-.45v0c.31,0,.49-.1.46-.44h0c.46.15.79.06.88-.47l0,0c.3,0,.49-.1.47-.45h0a1,1,0,0,0,1.32-.88h0c.45.14.79.07.88-.47h0c.44.13.78.06.89-.46l0,0c.3,0,.51-.08.47-.44h0c.44.14.79.1.88-.45h0c.43.12.79.1.88-.46h0c.82.17,1.51.07,1.77-.88h0c.42.11.8.14.89-.44h0c.55.16,1.07.22,1.32-.48l0,0a1.91,1.91,0,0,0,2.21-.89h0c.55.15,1.07.24,1.34-.45h0l.92.06.59-.37,2.9-.55,3.46-.35c-.55.77-1.77.71-2.16,1.7a5.11,5.11,0,0,0-3.19,2.23c1.65-.5,2.73-.93,3.21-2.21.72.31,1.43-.8,2.16,0l-.39,1,0-.05a5.4,5.4,0,0,0-2.49,2.61c-2.79,4.71-4.67,9.83-6.83,14.83C112.13,162.91,108.53,170.8,101.56,176.44Zm14.07-35c.39-.06.88.14,1.09-.39a.35.35,0,0,0-.16-.3c-.54-.1-.73.31-.94.68-.32.06-.69.06-.66.53a.2.2,0,0,0,.14.14C115.57,142.12,115.58,141.75,115.63,141.43ZM104.7,151.5a2.84,2.84,0,0,0-1.31,2.19,4.74,4.74,0,0,0-.87.93c-2,3.9-3.93,7.79-5.81,11.73a3.13,3.13,0,0,0-.48,2.65c2-4.05,3.93-7.85,5.78-11.68.56-1.16,1.45-2.21,1.39-3.61,1.21-.27,1.25-1.24,1.31-2.2.32,0,.69-.06.66-.53a.2.2,0,0,0-.14-.14C104.76,150.81,104.76,151.18,104.7,151.5Zm1.07-1.65,4.21-4.36A16.33,16.33,0,0,0,105.77,149.85Zm5.2-4.6c.93-.17,1.38-.54,1.44-1.51C111.48,143.9,111,144.27,111,145.25Zm3.36-2.51c-.29-.14-.52-.32-.6-.27a1.16,1.16,0,0,0-.53.57c-.1.4.24.48.51.34S114.07,143,114.33,142.74Zm5.07-3.62c-.12-.05-.27-.17-.36-.14s-.12.23-.17.35c.12,0,.27.17.36.14S119.35,139.24,119.4,139.12Zm-1.32.87c-.12-.06-.27-.18-.36-.14s-.11.23-.17.35c.12.05.28.17.36.14S118,140.11,118.08,140Z"/><path class="cls-3" d="M200.2,140.48l-1.15.09-.58.35-1.16.08-.61.35-1.14.07-.85.08-3.55,0-1.27-.07-2-.1-.59-.33-1.61-.09-.57-.34-1.22-.12-1-.34-1.73-.41a98.93,98.93,0,0,0-17.92-3.08l-7-.81-1.72-.1-3.07-.37a.76.76,0,0,0-.42,0c-6.68-.72-13.35-1.64-20.1-1.31,0-.2,0-.4,0-.6l1.2,0a.74.74,0,0,0,1-.68l.84-.06c.56.6,1.17.27,1.81.17,7.07-1.14,14.11-2.66,21.31-2.36,5.27.22,10.51,1,15.78,1.2a61,61,0,0,1,16,2.72c1.94.61,3.8,1.55,6,1.46a.63.63,0,0,0-.46-.48c-7.09-2.36-14.25-4.23-21.8-4.61-3-.15-6.06-.2-9.08-.64a53.62,53.62,0,0,0-10-.48c-3.38.14-6.73.94-10.11,1.14-1.38.08-2.78,1.16-4.2.16.36-.07.72-.13,1.07-.21,7.8-1.83,15.55-4.06,23.71-3.38,3.82.32,7.63.58,11.45.86l3.07.37,1.3.07,2.63.38.21.05h.21l2.06.11a1.11,1.11,0,0,0,1,.34l1.62.1,1,.35,1.59.08.59.35,1.19.09,1,.37,2.85.73-.09,0c1.14.36,2.17,1.06,3.42,1l0,0c.11.51.45.59.89.46h0c0,.33.15.46.46.45l0,0c0,.32.15.47.47.46l0-.06a10.44,10.44,0,0,1-.12,6.21Z"/><path class="cls-3" d="M101.56,176.44c7-5.64,10.57-13.53,14-21.49,2.16-5,4-10.12,6.83-14.83a5.4,5.4,0,0,1,2.49-2.61c-.17,1.66-1.65,2.53-2.34,3.9-2.23,4.42-4.23,8.93-6.05,13.53A72.93,72.93,0,0,1,106,173.47c-1,1.28-2,2.74-3.79,3.06Z"/><path class="cls-3" d="M93.34,177.84H96l-1.71.79-.9-.09Z"/><path class="cls-3" d="M194.71,141.5l.85-.08v.6l-.16-.06Z"/><path class="cls-3" d="M198.47,140.92l.58-.35Z"/><path class="cls-3" d="M200.2,140.48l.59-.4Z"/><path class="cls-3" d="M196.7,141.35l.61-.35Z"/><path class="cls-3" d="M61.29,137.87l0-.13.13-.06c.26-.15.5-.32.47-.68h0c.45.13.8.09.89-.46h0a2.61,2.61,0,0,0,2.64-1.34l0,0c1.34-.23,2.75-.34,3.52-1.75h0c.55.15,1.07.23,1.32-.47l0,0c.79.27,1.41-.19,2.06-.46a41.46,41.46,0,0,1,8-2.57,1.13,1.13,0,0,0,1-.35l1.61-.09a1.66,1.66,0,0,0,1.42-.36l2.07-.09.85-.06,3.08-.36,1.73-.08,6.57-.37a68,68,0,0,1,7.15.2,150.77,150.77,0,0,1,18.19,3.72l1.68.55c-.39.5-.9.4-1.4.27-2-.56-4.09-.91-6.13-1.38a86.11,86.11,0,0,0-25.22-2.39,46.35,46.35,0,0,0-10.5,1.45,107.3,107.3,0,0,0-12.77,4.94,56.63,56.63,0,0,0-7.21,3.27c.39.18.54.31.64.28a11,11,0,0,0,1.21-.44c8.37-3.39,16.36-7.95,25.67-8.49,3.25-.19,6.5-.65,9.74-.53a82.68,82.68,0,0,1,10.75,1.24,87.27,87.27,0,0,1,13.93,3l-2.59.54-3,0-.87,0-7.45-.37h-5.2l-3.07.37-.89.06-1.74.39a.86.86,0,0,0-.42,0c-3.25.89-6.66,1.25-9.6,3.08h0c-.54-.13-1.07-.24-1.34.45l0,0A12.19,12.19,0,0,0,82,140.62h0c-.91-.15-1.77-.16-2.21.89l0,0c-.8-.14-1.52-.1-1.78.87h0c-.55-.14-1.08-.25-1.32.47l0,0A9.32,9.32,0,0,0,71.1,145h0l-1.18,0a.28.28,0,0,1-.31.2L65,146.69l-.59.37-2.9.53-.58.35-2,.08H55.75c.25-.56-.16-.93-.39-1.35l-.37-.59.31-3.39h0c.54-.08.6-.43.46-.88h0c.34,0,.48-.13.44-.46h0c.34,0,.49-.12.45-.45h0q.49,0,.45-.45h0q.5.06.45-.45l0,0c.33,0,.5-.1.46-.45h0a1,1,0,0,0,1.32-.91l0,0c.31,0,.49-.1.46-.44h0c.45.13.8.08.88-.47v0Z"/><path class="cls-3" d="M131.42,125l.13.07,0,.13.73,0h0c0,.3,0,.61,0,.91v1.31c-.28.7-.84,1.34-.59,2.33a2.91,2.91,0,0,0,2.17-1.24l0,.09.6-.79,0,0c.32,0,.5-.1.47-.44h0c.46.15.8.08.88-.47v0c.44.12.78,0,.89-.47l0,0c.3,0,.49-.1.47-.44h0c.45.14.79.08.89-.46h0c.44.12.79.07.89-.46l0,0c.31,0,.51-.08.48-.44h0c.43.13.81.12.89-.45h0c.44.12.81.12.89-.45h0c1.67.28,2.92-.9,4.4-1.29l.59-.36,1.16-.08.6-.36,2.45-.08,1.73-.08a77.9,77.9,0,0,1,10.36-.27,1.13,1.13,0,0,0,1,.35c1.34.22,2.51,1.22,4,.86h0a2.38,2.38,0,0,0,2.65,1.3l0,0c.11.54.47.57.9.46l0,0c.1.54.46.57.89.46l0,0a1.5,1.5,0,0,0,1.77.9h0c.09.54.43.61.88.46h0c-.08.57.37.74.74,1-2.49.77-5-.09-7.42-.24-5.14-.31-10.22-.53-15.33.45-7.17,1.39-14.22,3.27-21.28,5.11-.8,0-.77-.44-.42-1,.43-.24,1.08-.68.74-1.05-.54-.6-.88.24-1.26.56-.35-2.08-.79-4.16.35-6.15h-.1Z"/><path class="cls-3" d="M133,23.6c-.33,1-.14,2.12-.63,3.13-.24.49-.24,1.18.69,1.12.16.3,1.13-.66.77.79-.67,2.65.15,3.55,2,3.22a22.45,22.45,0,0,0-1.49,3.33c-.16.56-1.92,1.65.32,2,.49.08.09.74-.14,1.07-.48.7-1.16,1.3-1,2.28a2.32,2.32,0,0,1-.38.06c-.55-.56-.93-1.14-1.68,0-1.33,1.93,1.14,1,1.21,1.75v1.78l0,.53-.84-1c0-.35.11-.71-.33-1.09l-.09,1.08c-.11,1-.21,2-.32,3,0,1.48,0,3,0,4.43l-.22,3.48-.43,0V48.1h-.35v5.65l-1.48,0c.12-.63.27-1.26.34-1.89,0-.15-.22-.39-.39-.46a.71.71,0,0,0-.53.11c0,.92-.77,1.94.31,2.73l.46.53c-.68,2.75-1.57,5.51.49,8.19v-7c.86,2.86,0,5.85.8,8.74v-7.1L130.9,59c-.56,3.08-.29,6.19-.5,9.29-1.23,1.45.86,1.36,1,2.18-.21,2-1.48,3.65-1.43,5.67-.79-1.07-.07-2.35-.53-3.61-.53.57.09,1.76-1,1.87C130,68.91,127.58,64,126.24,59c-.11-.41-.16-.84-.24-1.27.67-.45.66-1.24.93-1.9,0-1.37,0-2.74.07-4.11,0-.58.09-1.45.69-1.42,2.72.14,1.3-1.55,1.24-2.63,1-.45.49-1.16.31-1.81s-.59-1.46-.09-2.23c0-1.28.43-2.66-.87-3.62.3-1,.76-1.62,1.79-.69.36.32.77.52,1.05,0s-.16-.68-.43-.89c-.77-.6-1.85-1-1.44-2.31-.2-1-.41-1.93-.61-2.9.65,0,.94-.58,1.34-1,.34,1.53.5,3.14,1.58,4.43a1.66,1.66,0,0,0,.63-1.84c-.77-3.2-.73-6.64-3-9.38-1.15-1.38-.1-2.2,1.06-2.86.42.09,1-1.17,1.29.21C131.66,23.48,132.41,23.49,133,23.6Zm-5.38,31.94h.11l0-.18Z"/><path class="cls-3" d="M131.42,125l-1.21-.25,0-.16.05.16c-1.14,2-.7,4.07-.35,6.15l.52.49c-.35.54-.38.94.42,1,0,.25,0,.5,0,.75-.55.13-1.32.2-1.07,1,.16.49.72.29,1.07,0,6.75-.33,13.42.59,20.1,1.31.13.21.27.24.42,0l3.07.37v.64c-6.86-.32-13.65-1.8-20.58-1.3,4.94.79,9.89,1.47,14.8,2.42,4.07.8,8.2,1.52,12,3.37-1.48.48-2.68-.51-4-.76a.85.85,0,0,0-1-.37l-.76-.08-.59-.36-1.16-.08-.6-.35-1.15-.08a.86.86,0,0,0-1-.36l-1.2-.1-.58-.34-1.6-.09-.59-.35-2-.11c-.12-.2-.26-.24-.42,0l-5.26-.82c-.25-.4-.54-.44-.85-.06l-2.64-.39c-.12-.21-.26-.25-.42,0l-1.76-.37c-.12-.22-.26-.26-.43,0-1.1.14-2-1.32-3.19-.4h-.66l-1,0-.89-.44-.33,0-.52-.1v-.65c.8-.82.19-1.11-.51-1.36l-1.68-.55c0-.31,0-.61-.05-.91a.85.85,0,0,0,0-.32l1-.05c.61.19.83,1,1.64,1,.23-1.32-.64-2.36-.82-3.55l.46-.49c.45.38.29,1.22,1.29,1.64,0-1.35,0-2.43,0-3.5,0-.61.26-1.46-.69-1.58-.72-.09-1.67-.39-1.91.81l-.47.54c-.55,0-.74.3-.81.77-.06,0-.17.09-.16.11a1.51,1.51,0,0,0,.13.33c.08,1-.17,2.11.48,3.06l-.48.5-2.69-2.59.3-.46c.67.38,1.41,1.64,1.59-.44.17-1.87,1-3.43,3.3-3.56,1.91-.1-.48-1.73.7-2.15.21,0,.23.55.56.21l-.53-.25c-1.25.39-1.66-.76-2.41-1.3l1.83,0,.17.23c0-.05,0-.11,0-.14a.54.54,0,0,0-.16-.1l.12-1,1.59,1V104.09c0-1.17-1.1-.93-1.71-1.32l0-.57c.48.09,1.23.39,1.4,0,.3-.71-.65-.76-1-1.15l.54-.43c.27,0,.69,0,.68-.29-.1-2.79.58-5.65-.62-8.35,1.21-.69.52-1.84.67-2.79l.08-3,.48,0c0,1.19.07,2.37.1,3.55-.12,6.18.31,12.35,0,18.55-.41,8.29,0,16.62-.94,24.9-.05.42-.13.95.46,1,.77.13.73-.5.78-1,.11-1.3.29-2.6.3-3.91.07-7.08.1-14.16.15-21.24l.7.42c0,2.08-.07,4.15,0,6.22,0,.61-.46,1.47.58,1.78.26.5-.41,1,.08,1.57,1.45-.55,2.57-2,4.35-1.48-.74.88-1.88,1.06-2.83,1.48-2.13,1-2.22,2.59-2.29,4.6C129.74,124.17,131.67,123.68,131.42,125Z"/><path class="cls-3" d="M129.93,108.53l-.7-.42q-.1-9.18-.2-18.36c0-.93.07-1.86.09-2.79,0-.49.13-1.13-.74-.75l-.48,0c0-4-.27-7.92.51-11.84,1.12-.11.5-1.3,1-1.87.46,1.26-.26,2.54.53,3.61.22.83-.33,1.7.18,2.72,1.63-1.32,2.88-3,4.58-4.06,2.7-1.77,5.17-.91,6.23,2.23h0l-1.23.36c-.32-1.83-1.81-3.22-3.11-2.68a7,7,0,0,0-3.53,2.77.71.71,0,0,0-.15.08s0,.07,0,.11l.18-.19c2.2-.85,4.43.37,6.63-.07l-.33,1.4,0,0c-2.63-.69-5.26-1.48-7.51,1a3.34,3.34,0,0,1-1.07.75,2.24,2.24,0,0,0-1.3,2.48c.12,3,.2,6,.23,8.95,0,3.72,0,7.43,0,11.15l.68,0,1.82-3.68c.4.8.83.43,1.26,0,.21,1.5,1.08.47,1.6.36,4.09-.88,8-2.8,12.29-2.61.67,0,1.84.52,2-.58.1-.77-.88-1.23-1.59-1.63a2.7,2.7,0,0,0-2.09-.06,43,43,0,0,0-12.21,4.52c0-.79-.19-1.71,1.13-1.49,3.62-2.11,7.63-3.1,11.67-4a3.06,3.06,0,0,1,2.11.36c1,.57,2.25,1.3,2,2.58s-1.69,1.2-2.74,1.14c-4.4-.24-8.37,1.57-12.49,2.64a2.08,2.08,0,0,0-1.12.63C132.45,103.52,130.62,105.7,129.93,108.53Z"/><path class="cls-3" d="M115.2,85.59c1.91-2.22,4.44-3.11,7.42-3.37-2.46-5.87-4.89-11.61-12-13.08,1-.23,2.32.76,2.86-.88l2.36,1.59c.22.15.42.45.69.08-.27.13-.19.31,0,.46s.2,0,.31,0c-.1-.15-.2-.3-.29-.45l-.38-.49-.88-1.26c1.41-.21,1.47-1,.76-2a1.42,1.42,0,0,1-.38-1.15c1-.51,2.17-.16,3.06-.91l1.33.11,0,0c-1.72,3.92-.48,7.54,1.13,11.76.45-2.6,1-4.5,2.45-6a3.76,3.76,0,0,1,1.68-1.33,1.71,1.71,0,0,1,1.83.3c.57.61.25,1.21,0,1.81a7.94,7.94,0,0,1-2.33,2.56c-2.64,2.23-2.9,3.48-1.48,6.57a11,11,0,0,1,1.25,3.47c-1.07.6.52,1.83-.58,2.41-1.68-.74-2.91.35-4.13,1.14a41.76,41.76,0,0,0-3.41,2.71c-.82.67-1.77,1.32-2.75.63-1.14-.81-.21-1.85.09-2.74a5.49,5.49,0,0,1,.83-1.26l.31.46a5,5,0,0,0-.28.82c-.13.67-1,1.44-.27,2s1.31-.37,1.85-.76c1.69-1.22,3.15-2.76,5.11-3.63.51-.22,1.55-.13,1.21-1.14s-1.16-.81-2-.62c-1.82.42-3.19,1.64-4.76,2.51Zm7.3-11.47c1.33-1.38,2.64-1.91,3.33-3.14.22-.38.91-.76.36-1.26a1.06,1.06,0,0,0-1.53.26A8,8,0,0,0,122.5,74.12Z"/><path class="cls-3" d="M139.45,78.72l0,0C140.85,79,141,78,141,77h0c1.87-.41,2-1.58,1.32-3.08l0,0,1.31-.12a2.46,2.46,0,0,0,2.78.64c1.16-.36.16-1.45.27-2.2.68,0,.43.86.91,1.06.26.24.37.1.44-.17.23-.33.47-.65.71-1l.65,0,.83.35-.44.55-.26.23.27,0-.07-.3c.55.44.81.19.95-.38l0,.06c1.09.27,1.72-.61,2.55-1a1,1,0,0,0,.49,1c-.64,1.26-2,1.42-3.09,1.76-3.56,1.06-5.53,3.71-7.17,6.78l-.15.46h.53a39.11,39.11,0,0,0,5-4.23c.57,1.78,1.83,1.47,3.14,1-3.25,1.54-6.5,3.08-9.06,5.71l-.19-.19-1.4-1.63c-1.1,1-.72,2.24-.83,3.34l-.17.24.24-.17a2.73,2.73,0,0,1,.41,0l.24.22-1.75,2.63-.28-.25c.32-.92.71-1.88-.93-1.78C138.41,83.91,139.82,81.46,139.45,78.72Z"/><path class="cls-3" d="M132.66,43.2c0-.28,0-.57,0-.86h.45l.2,0,.21,0,.37.45-.29,2.6c-1,1.68-.63,3.35,0,5,0,.48-.26,1,.18,1.59.9-2.36,3.06-3.86,3.53-6.36.85.25,1.23,1,1.67,1.66-.22.6-.75.78-1.53.83.71.86,2.22-.18,2.24,1.31a1.61,1.61,0,0,1-1.38,1.68l-2.6,1.26a3.63,3.63,0,0,0-2,1.86Q132.32,56.6,130.9,59l-.84-1.37v7.1c-.85-2.89.06-5.88-.8-8.74-.19-.39.13-1-.49-1.22l-.46-.53.27-.49,1.48,0c.12.28.24.56.35.84l.43,0,.2,1.71c1.22-1.87.13-3.54.16-5.19l.18-4.32c.88-.46,1.57-1,1.24-2.18l0-.53C133.12,43.82,133.14,43.51,132.66,43.2Z"/><path class="cls-3" d="M126.93,55.83c-.27.66-.26,1.45-.93,1.9-.19-.53-.42-1.06-.56-1.6-.89-3.43-2.56-6.22-6-7.6a1.85,1.85,0,0,1-.87-.92c.9-.28,1.19-1.18,1.81-1.75.66.77.26,2.24,1.78,2.56.22-2.33-1.12-4.11-2-6.05-.26-.58-1.07-1.13-.21-1.86,1,.09,1.78-.16,1.75-1.4.54.17,1,.44.82,1.11-.53.59-.64,1.15.11,1.66a15.53,15.53,0,0,0,2.28,8.29c.74-1.21.09-2.33-.08-3.46.81-.21,1.65-.84,2.39.12-1,1.43-.55,3.22-1.16,4.73A3.74,3.74,0,0,0,126.93,55.83Z"/><path class="cls-3" d="M135.73,52.38l2.6-1.26.63,2.06c-.07.38-.13.76-.19,1.13a1.18,1.18,0,0,0-.76,1s.16.14.24.21l.59-.87c.63-.08.56,1.53,1.7.57.64-.54.29.58.55.84-1.67,1.33-3.28,2.75-5,4a3.13,3.13,0,0,0-1.65,3l0,0c-.69.15-.46.69-.47,1.13a4,4,0,0,0-1.81,4.56l-.75,1.78c-.14-.82-2.23-.73-1-2.18,1.37-3.28,2.63-6.62,4.15-9.82A11.78,11.78,0,0,0,135.73,52.38Zm.52,5.93A3.09,3.09,0,0,0,138,55.94C136.77,56.27,136.44,57,136.25,58.31Z"/><path class="cls-3" d="M134.92,116.62c-1.78-.54-2.9.93-4.35,1.48-.49-.52.18-1.07-.08-1.57l.63-.54a1.14,1.14,0,0,0,1.2-.39c1-.18,1.57-1,2.18-1.72a12.4,12.4,0,0,1,6-3.77c.91-.26,2-.64,2.48.5s-.23,1.62-1.06,2.09a2.94,2.94,0,0,0-.61.61c-.79.34-1.81.36-2,1.48v-.06c-.42-.08-.79-.06-.89.47v0c-.54-.09-1.08-.2-1.31.51l0,0a1.85,1.85,0,0,0-2.22.9Z"/><path class="cls-3" d="M126.23,119l-.12,1h0l-1.83,0h.06c0-1-.64-1-1.34-.86l0,0a1.53,1.53,0,0,0-1.77-.9h0a1,1,0,0,0-1.32-.9h0c0-.34-.14-.48-.46-.45v0c0-.33-.14-.47-.45-.46v0c0-.32-.13-.47-.45-.46l0,0c0-.31-.11-.49-.45-.46h0c.14-.46.07-.8-.47-.89l0,0,0-.92-.34-.59c-.13-1,.49-1.21,1.3-1.22l0,0c.15.72.54,1.1,1.32.92h0c0,.34.12.49.45.45v0c0,.35.14.47.46.45h0l.47.69.12,0v.14c.53.2,1,.64,1.62.44l0,0c.08.54.42.62.87.48h0q-.06.51.45.45h0a1,1,0,0,0,.89,1.32h0c-.15.44-.1.79.45.89v0c-.14.45-.08.8.46.89Z"/><path class="cls-3" d="M133.62,50.41c-.64-1.67-1-3.34,0-5,.3,0,.3,1.43.82.23a10.15,10.15,0,0,0,.91-3.34c0-.92-.24-2.19,1.35-2.43.23,0,.2-1.21,1.09-.65a1.23,1.23,0,0,1,.35,1.9C136.15,44,135.36,47.43,133.62,50.41Z"/><path class="cls-3" d="M133,23.6c-.55-.11-1.3-.12-1.43-.75-.29-1.38-.87-.12-1.29-.21-.19-.47-.39-.93-.55-1.41-.25-.72-.8-1.44,0-2.18a1.37,1.37,0,0,1,1.38-.36c1,.28.61,1.18.85,1.93.56-1,1.17-2.07,2.41-1.24s.32,1.67-.14,2.45C133.83,22.45,133.38,23,133,23.6Z"/><path class="cls-3" d="M153.67,72.66a1,1,0,0,1-.49-1l0,0,.46-.46,0,0a.45.45,0,0,0,.46-.45l0,0c.37,0,.78,0,.9-.46l0,0c.49,0,1,.13,1.34-.46h0c.37,0,.79.06.9-.45l0,0c.51,0,1.1.14,1.41-.49,1.63-.57,3.1-1.85,5.3-1C161,71,157.38,72,153.67,72.66Z"/><path class="cls-3" d="M132.15,68.64A4,4,0,0,1,134,64.08c.12-.39,1.07-.44.47-1.13l0,0c1.33.39,2-1,3.19-1.15.71-.08,1.38-.41,2.08-.53a1.31,1.31,0,0,1,1.6.79c.28.8-.34,1.22-1,1.45-1,.36-2.06.63-3.09.92C134.92,65.11,132.89,66.08,132.15,68.64Zm3.56-4.82a7.8,7.8,0,0,0,4.93-1.7c-2.11.14-3.66.5-4.91,1.72a.69.69,0,0,0-.15.07s0,.07,0,.1Z"/><path class="cls-3" d="M134.69,97.88c-1.32-.22-1.14.7-1.13,1.49h0c-.43.41-.86.78-1.26,0,.82-2.21,1.34-4.54,2.69-6.53,1.51-.43,1.39-1.58,1.19-2.76,1.25-.43.78-2,1.68-2.61a3.66,3.66,0,0,1-.2,1.85c-.3.88.31.44.64.37l.23.25C137.3,92.6,135,94.77,134.69,97.88Z"/><path class="cls-3" d="M141.32,113.31a2.94,2.94,0,0,1,.61-.61c.83-.47,1.53-1.09,1.06-2.09s-1.57-.76-2.48-.5a12.4,12.4,0,0,0-6,3.77c-.61.68-1.15,1.54-2.18,1.72l-.64-.08c2.31-2.62,4.7-5.17,8.23-6.07,1.29-.32,2.93-1.35,3.83.54s-.44,2.92-1.93,3.73Z"/><path class="cls-3" d="M129.25,36.16c-.41,1.33.67,1.71,1.44,2.31.27.21.64.54.43.89s-.69.28-1.05,0c-1-.93-1.49-.33-1.79.69a.54.54,0,0,0-.41-.07c-.86-.6-1.57.34-2.37.23-.56-.25-1.27-.43-.65-1.28a2,2,0,0,0,1.93.18l-1.07-.69c-.64-1.14-1-2.22,1-1.55C127.81,37.22,128.16,35.42,129.25,36.16Z"/><path class="cls-3" d="M80.25,130a41.46,41.46,0,0,0-8,2.57c-.65.27-1.27.73-2.06.46,2.48-1.9,5.44-2.68,8.38-3.38A62.82,62.82,0,0,1,90.28,128v.66l-3.08.36c-.31-.39-.59-.34-.85.06l-2.07.09c-.52-.05-1.05-.17-1.42.36l-1.61.09A.87.87,0,0,0,80.25,130Z"/><path class="cls-3" d="M116,66.25c.71,1,.65,1.77-.76,2L113,67a5.59,5.59,0,0,0-1.85-2.55,1.3,1.3,0,0,1-.3-1.17c.19-.4.75-.21,1.18-.13a4.25,4.25,0,0,1,2.2,1.62C114.76,65.29,115.19,66,116,66.25Z"/><path class="cls-3" d="M191.94,130.53l-1.19-.09-.59-.35-1.59-.08a.89.89,0,0,0-1-.35l-1.62-.1a.86.86,0,0,0-1-.34l-2.06-.11c-.12-.21-.26-.24-.42,0l-2.63-.38V128a81.33,81.33,0,0,1,17.29,3.34c.71.23,1.75.14,2,1.23-1.25,0-2.28-.67-3.42-1l.09,0-2.85-.73A.86.86,0,0,0,191.94,130.53Z"/><path class="cls-3" d="M135.8,31.86c-1.86.33-2.68-.57-2-3.22.36-1.45-.61-.49-.77-.79.27-1,1-1.1,1.87-1s.82.84.83,1.52a1.13,1.13,0,0,0,.31.74C137.53,30.53,137.53,30.55,135.8,31.86Z"/><path class="cls-3" d="M127.09,100.61l-.54.43L124.69,100a3.74,3.74,0,0,0-4.75.49c-1.62,1.42-2.31,2.91-1.14,4.91l-.38.48a3.19,3.19,0,0,1-.45-4.48c1.7-2.51,3.91-3.46,6-2.62A9.37,9.37,0,0,1,127.09,100.61Z"/><path class="cls-3" d="M150.15,72.49l-.83-.35c0-.58,0-1.17-.07-1.76l0,0c.32,0,.44-.17.45-.46l0,0c.49-.13.53-.48.46-.89v0a.45.45,0,0,0,.46-.46l0,0a.9.9,0,0,0,1.05-.5c.89-.59,2.14-1.47,2.8-.48s-.79,1.82-1.52,2.49-2.24,1-2.24,2.53l0-.06Z"/><path class="cls-3" d="M167.2,122.54c-1.46.36-2.63-.64-4-.86a.87.87,0,0,0-1-.35,77.9,77.9,0,0,0-10.36.27c-.28-.22-.56-.44-.83-.67,4.6-.38,9.21-.8,13.75.44C165.62,121.59,166.62,121.67,167.2,122.54Z"/><path class="cls-3" d="M146.61,72.25c-.11.75.89,1.84-.27,2.2a2.46,2.46,0,0,1-2.78-.64c-.49-.51-.92-.44-1.31.12l0,0c-.77-.48-1.15-1.1-.5-1.91s1.23-1.08,2-.29S145.77,71.57,146.61,72.25Z"/><path class="cls-3" d="M118.68,134.44l3,0c0,.26,0,.52,0,.77l-2.9.55c-.2.12-.4.24-.59.37l-.92-.06c.53-1.14-.36-1-1-1-2.85-.12-5.71-.22-8.57-.32.72-.74,1.85.07,2.57-.7l7.45.37C118.09,134.85,118.38,134.87,118.68,134.44Z"/><path class="cls-3" d="M123.9,85.76c1.1-.58-.49-1.81.58-2.41l0,.07c.09.2.19.39.29.59,1.08,1.69,1.41,3.83,3.07,5.17-.15.95.54,2.1-.67,2.79Z"/><path class="cls-3" d="M125.5,40.17c.8.11,1.51-.83,2.37-.23-1,1.74.75,2.5,1.28,3.69-.5.77-.12,1.5.09,2.23s.72,1.36-.31,1.81c-.63-1-.57-2.25-1.52-3l-.51-1.45C127.37,41.73,125.29,41.49,125.5,40.17Z"/><path class="cls-3" d="M113.47,68.26c-.54,1.64-1.89.65-2.86.88a3.33,3.33,0,0,1-3.52-1.82c.31,0,.6-.07.67-.45l0,0c1.79-.33,3.36.67,5.06.85Z"/><path class="cls-3" d="M120.37,45.86c-.62.57-.91,1.47-1.81,1.75a1.89,1.89,0,0,1-1.6-1.55c-.15-1,.09-2.06,1.14-2.29C119.62,43.44,119.94,44.79,120.37,45.86Z"/><path class="cls-3" d="M126.9,43.18l.51,1.45a3.93,3.93,0,0,1-.18,2.2c-.74-1-1.58-.33-2.39-.12C123.83,44.11,124.55,42.86,126.9,43.18Z"/><path class="cls-3" d="M99.46,134.86l1.74-.39c0,.24,0,.49,0,.74A103,103,0,0,0,91,137.86c-.47.15-1,.65-1.58.13,2.94-1.83,6.35-2.19,9.6-3.08C99.2,135.13,99.34,135.09,99.46,134.86Z"/><path class="cls-3" d="M139,47.3c-.44-.67-.82-1.41-1.67-1.66,1.2-2.36,2.21-2.76,3.19-1.16S140.27,46.77,139,47.3Z"/><path class="cls-3" d="M65,146.69l4.67-1.52c.86.66,0,.74-.34.85-3.41,1.16-6.8,2.41-10.43,2.69V148l2-.08.58-.35,2.9-.53Z"/><path class="cls-3" d="M138.77,54.31c.06-.37.12-.75.19-1.13a5.49,5.49,0,0,0,.81-.14c1.07-.31,2.2-.59,2.7.76.44,1.19-.38,1.81-1.38,2.22-.26-.26.09-1.38-.55-.84-1.14,1-1.07-.65-1.7-.57A.2.2,0,0,1,138.77,54.31Z"/><path class="cls-3" d="M130,32.29c-.4.39-.69.93-1.34,1h0c0-.32,0-.8-.14-.91-.37-.25-.3.27-.45.43-.16-.78-1.39-1.47-.61-2.2.46-.44.33-1.91,1.46-1.3A2.6,2.6,0,0,1,130,32.29Z"/><path class="cls-3" d="M98.59,128.25l-6.57.37-.83-.66c1.71-.13,3.41-.36,5.12-.36a2.86,2.86,0,0,0,3-1.65l.3.28c0,.37-.44.7-.15,1.12Z"/><path class="cls-3" d="M145.33,122.56c-1.48.39-2.73,1.57-4.4,1.29,2.73-2,5.93-2.55,9.2-2.83v.66l-2.45.08-.6.36-1.17.08Z"/><path class="cls-3" d="M119.1,61.62c.48-.53,1.15-1.3,1.7-.46s1.89.85,1.36,2.17c-.43,1-1.26,1.07-2.18.93l0,0a6.36,6.36,0,0,1,.31-2.08c.23-1.24-.65-.39-1-.44Z"/><path class="cls-3" d="M118.67,64.19c-.89.75-2.1.4-3.06.91a1.82,1.82,0,0,1-.35-1.68c1.12,0,2.12-.9,3.31-.44C118.6,63.38,118.64,63.79,118.67,64.19Z"/><path class="cls-3" d="M99.32,126a9.7,9.7,0,0,1,6.69-2.33v.68l-2.07.08a.86.86,0,0,0-1,.38l-3.34,1.47Z"/><path class="cls-3" d="M109.08,123.65a18.76,18.76,0,0,1,6.82.83l-.38.43-1.21-.17c-.25-.4-.53-.46-.84-.07l-4.39-.36Z"/><path class="cls-3" d="M123,103.48a25.73,25.73,0,0,0-1.72,2.18c-.9,1.44-1.82,1.38-2.85.18l.38-.48c.74.43,1.34.63,1.94-.33a11.43,11.43,0,0,1,1.78-1.84Z"/><path class="cls-3" d="M82,140.62a12.19,12.19,0,0,1,6.15-2.21A12,12,0,0,1,82,140.62Z"/><path class="cls-3" d="M118.57,63c-1.19-.46-2.19.42-3.31.44,0-1.92,0-3.84,0-5.75l.2,0c.43,1.57-.52,3.31.62,4.77.5,0,1,0,1.25-.54l.91.15.49.34Z"/><path class="cls-3" d="M71.1,145a9.32,9.32,0,0,1,5.69-2.21A10.32,10.32,0,0,1,71.1,145Z"/><path class="cls-3" d="M134.38,127.78l-.6.79,0-.09a2.91,2.91,0,0,1-2.17,1.24c-.25-1,.31-1.63.59-2.33.5-.32.41-.82.41-1.3l.24-.19C133.4,126.51,132.39,128.34,134.38,127.78Z"/><path class="cls-3" d="M85,172.55c.07.61.66,1.11.41,1.79-1.67-1.3-1.31-3.11-1.18-4.86H85c0,.87,0,1.75,0,2.63,0,0-.14.11-.13.14S85,172.45,85,172.55Z"/><path class="cls-3" d="M115.51,57.7l-.2,0c0-.68.07-1.52.78-1.54,1,0,.86.93.89,1.63-.35,1.3.53,2.8-.61,4a9.3,9.3,0,0,0,.1-4C116.3,56.42,115.84,57.39,115.51,57.7Z"/><path class="cls-3" d="M118.75,112c-.81,0-1.43.22-1.3,1.23,0,.19,0,.38-.07.57l-.23.18a15.25,15.25,0,0,1-.3-1.64c0-.55-.08-1.3.68-1.34C118.06,111,118.81,111.1,118.75,112Z"/><path class="cls-3" d="M178.54,128.62l-3.07-.37V127l.2-.17a5.24,5.24,0,0,0,3.28,1.15Z"/><path class="cls-3" d="M68.86,133.48c-.77,1.41-2.18,1.52-3.52,1.75A4.68,4.68,0,0,1,68.86,133.48Z"/><path class="cls-3" d="M110.36,134.05c-.72.77-1.85,0-2.57.7H106l-.83-.7Z"/><path class="cls-3" d="M116.37,61.73c1.14-1.17.26-2.67.61-4,.68,1.34.21,2.79.4,4.17-.26.54-.75.55-1.25.54C116.12,62.2,116.05,61.9,116.37,61.73Z"/><path class="cls-3" d="M105.16,134l.83.7-3.9.31v-.64Z"/><path class="cls-3" d="M93.34,177.84v.7c-1.38-.19-2.85,0-4-1.13l1.34,0,.58.36Z"/><path class="cls-3" d="M55.3,142.7c-.1,1.13-.21,2.26-.31,3.39l-.06.57-.14.13C54.16,145.33,53.89,143.9,55.3,142.7Z"/><path class="cls-3" d="M109.08,123.65v.66H106v-.68A7.56,7.56,0,0,1,109.08,123.65Z"/><path class="cls-3" d="M112.64,67.33c0,.13.1.27.16.41-1.7-.18-3.27-1.18-5.06-.85C109.48,65.82,111,66.94,112.64,67.33Z"/><path class="cls-3" d="M126.15,102.2l0,.57c-1,0-2-.27-2.87.47l-.28-.49C123.86,101.61,125,101.79,126.15,102.2Z"/><path class="cls-3" d="M121.71,39.11c0,1.24-.72,1.49-1.75,1.4C120.42,39.89,120.2,38.42,121.71,39.11Z"/><path class="cls-3" d="M141.32,113.31l.49.41a3.94,3.94,0,0,1-2.54,1.07C139.51,113.67,140.53,113.65,141.32,113.31Z"/><path class="cls-3" d="M169.84,123.83a2.38,2.38,0,0,1-2.65-1.3A2.72,2.72,0,0,1,169.84,123.83Z"/><path class="cls-3" d="M65.37,135.21a2.61,2.61,0,0,1-2.64,1.34A2.66,2.66,0,0,1,65.37,135.21Z"/><path class="cls-3" d="M86.74,163.29c-.11,1-.13,2.14-1.3,2.66C85.46,164.86,85.62,163.84,86.74,163.29Z"/><path class="cls-3" d="M99,147a2.58,2.58,0,0,1-1.79,1.8A1.74,1.74,0,0,1,99,147Z"/><path class="cls-3" d="M85.45,165.94c.35,1-.22,1.78-.4,2.66l-.58,0A3.63,3.63,0,0,1,85.45,165.94Z"/><path class="cls-3" d="M79.83,141.5c.44-1.05,1.3-1,2.21-.89A1.83,1.83,0,0,1,79.83,141.5Z"/><path class="cls-3" d="M58.84,148v.69a2.72,2.72,0,0,1-1.76,0V148Z"/><path class="cls-3" d="M122.64,41.88c-.75-.51-.64-1.07-.11-1.66C123.13,40.73,123,41.3,122.64,41.88Z"/><path class="cls-3" d="M116,136.53a1.91,1.91,0,0,1-2.21.89A1.78,1.78,0,0,1,116,136.53Z"/><path class="cls-3" d="M134.88,116.55a1.85,1.85,0,0,1,2.22-.9A1.8,1.8,0,0,1,134.88,116.55Z"/><path class="cls-3" d="M111.67,138.3c-.26.95-1,1-1.77.88A1.46,1.46,0,0,1,111.67,138.3Z"/><path class="cls-3" d="M78.08,142.35c.26-1,1-1,1.78-.87C79.54,142.34,78.84,142.41,78.08,142.35Z"/><path class="cls-3" d="M87.62,161.55a1.31,1.31,0,0,1-.9,1.77A1.38,1.38,0,0,1,87.62,161.55Z"/><path class="cls-3" d="M125.71,38.38l1.07.69a2,2,0,0,1-1.93-.18C124.85,38.25,125.38,38.48,125.71,38.38Z"/><path class="cls-3" d="M150.13,121.68V121l.9-.09c.27.23.55.45.83.67Z"/><path class="cls-3" d="M123,119.12c.7-.12,1.36-.16,1.34.86C123.73,120,123.14,119.88,123,119.12Z"/><path class="cls-3" d="M121.26,118.24a1.53,1.53,0,0,1,1.77.9A1.34,1.34,0,0,1,121.26,118.24Z"/><path class="cls-3" d="M149.25,70.38c0,.59,0,1.18.07,1.76l-.65,0C148.7,71.52,148.59,70.82,149.25,70.38Z"/><path class="cls-3" d="M91.19,128l.83.66-1.73.08V128Z"/><path class="cls-3" d="M173.33,125.59a1.5,1.5,0,0,1-1.77-.9A1.38,1.38,0,0,1,173.33,125.59Z"/><path class="cls-3" d="M178.54,128.62l.4-.68.9.1v.65Z"/><path class="cls-3" d="M174.93,127c-.37-.23-.82-.4-.74-1,.7-.16,1,.38,1.47.76l-.2.17Z"/><path class="cls-3" d="M120,117.35a1,1,0,0,1,1.32.9C120.55,118.38,120.18,118,120,117.35Z"/><path class="cls-3" d="M139.45,88.6l-.91,1.32-.23-.25a1.48,1.48,0,0,1,.86-1.32Z"/><path class="cls-3" d="M123.1,115.07c-.64.2-1.09-.24-1.62-.44C122.32,113.67,122.71,114.39,123.1,115.07Z"/><path class="cls-3" d="M57.09,148v.69c-.54,0-1.12,0-1.34-.68Z"/><path class="cls-3" d="M59.25,138.73a1,1,0,0,1-1.32.91C58.17,139.05,58.5,138.59,59.25,138.73Z"/><path class="cls-3" d="M55.36,146.68c.23.42.64.79.39,1.35-.69-.12-.84-.67-1-1.24l.14-.13Z"/><path class="cls-3" d="M106,141.38a1,1,0,0,1-1.32.88A1.14,1.14,0,0,1,106,141.38Z"/><path class="cls-3" d="M125.28,117.29a1,1,0,0,1-.89-1.32A1.09,1.09,0,0,1,125.28,117.29Z"/><path class="cls-3" d="M94.63,151.48a1,1,0,0,1-.91,1.31C93.55,152,94.07,151.74,94.63,151.48Z"/><path class="cls-3" d="M120,112.9c-.78.18-1.17-.2-1.32-.92C119.52,111.75,119.77,112.33,120,112.9Z"/><path class="cls-3" d="M118.86,125.87l1.31.9-.3.34a2.3,2.3,0,0,1-1.31-.87Z"/><path class="cls-3" d="M88.93,159.35c.16.74-.09,1.21-.87,1.34A1.11,1.11,0,0,1,88.93,159.35Z"/><path class="cls-3" d="M84.47,168.56l.58,0-.06.89h-.73A.92.92,0,0,1,84.47,168.56Z"/><path class="cls-3" d="M102.09,134.41v.64l-.88.16c0-.25,0-.5,0-.74Z"/><path class="cls-3" d="M128.06,32.78c.15-.16.08-.68.45-.43.17.11.1.59.14.91Z"/><path class="cls-3" d="M88.12,138.43c.27-.69.8-.58,1.34-.45C89.18,138.62,88.76,138.85,88.12,138.43Z"/><path class="cls-3" d="M137.06,115.67c.23-.71.77-.6,1.31-.51C138.08,115.71,137.69,116,137.06,115.67Z"/><path class="cls-3" d="M117.36,136.09c-.27.69-.79.6-1.34.45C116.31,135.93,116.71,135.66,117.36,136.09Z"/><path class="cls-3" d="M70.18,133c-.25.7-.77.62-1.32.47C69.16,133,69.56,132.67,70.18,133Z"/><path class="cls-3" d="M158.51,69c-.31.63-.9.46-1.41.49A1.58,1.58,0,0,1,158.51,69Z"/><path class="cls-3" d="M76.77,142.81c.24-.72.77-.61,1.32-.47A.9.9,0,0,1,76.77,142.81Z"/><path class="cls-3" d="M156.25,69.94c-.3.59-.85.44-1.34.46A1.21,1.21,0,0,1,156.25,69.94Z"/><path class="cls-3" d="M115.9,124.48l1.24.48c-.1.14-.21.28-.32.41l-1.3-.46Z"/><path class="cls-3" d="M113.86,137.4c-.25.7-.77.64-1.32.48C112.84,137.34,113.24,137.05,113.86,137.4Z"/><path class="cls-3" d="M174.19,126c-.45.15-.79.08-.88-.46C173.8,125.35,174.08,125.53,174.19,126Z"/><path class="cls-3" d="M133.53,42.34a1.5,1.5,0,0,1,0-.37c.47.12.43.46.34.82Z"/><path class="cls-3" d="M157.12,69.5c-.11.51-.53.44-.9.45C156.34,69.45,156.76,69.52,157.12,69.5Z"/><path class="cls-3" d="M88.07,160.68c.14.45.08.79-.46.88C87.4,161.08,87.56,160.79,88.07,160.68Z"/><path class="cls-3" d="M55.75,141.83c.14.45.08.8-.46.88C55.05,142.21,55.31,142,55.75,141.83Z"/><path class="cls-3" d="M150.12,69.07c.07.41,0,.76-.46.89A.73.73,0,0,1,150.12,69.07Z"/><path class="cls-3" d="M151.59,68.15a.9.9,0,0,1-1.05.5A1,1,0,0,1,151.59,68.15Z"/><path class="cls-3" d="M89.81,158c.14.46,0,.78-.47.89C89,158.35,89.24,158.12,89.81,158Z"/><path class="cls-3" d="M107.74,140.47c-.11.52-.45.59-.89.46C106.92,140.35,107.17,140.1,107.74,140.47Z"/><path class="cls-3" d="M106.86,140.92c-.09.54-.43.61-.88.47C106.1,140.9,106.35,140.66,106.86,140.92Z"/><path class="cls-3" d="M90.68,156.73c.15.46,0,.78-.47.89C89.84,157,90.15,156.83,90.68,156.73Z"/><path class="cls-3" d="M132.24,126.08c0-.3,0-.61,0-.91.49,0,.49.42.63.73l-.24.19Z"/><path class="cls-3" d="M117.14,125l.9.43-.34.4-.88-.42Z"/><path class="cls-3" d="M91.57,155.42c.15.46.05.79-.48.88C90.77,155.75,91.14,155.57,91.57,155.42Z"/><path class="cls-3" d="M171.58,124.71c-.43.11-.79.08-.89-.46C171.25,123.88,171.53,124.07,171.58,124.71Z"/><path class="cls-3" d="M140.07,124.28c-.08.57-.46.58-.89.45C139.29,124.22,139.63,124.15,140.07,124.28Z"/><path class="cls-3" d="M136.57,126.44c-.11.52-.45.59-.89.47C135.75,126.33,136,126.07,136.57,126.44Z"/><path class="cls-3" d="M109.92,139.17c-.09.56-.45.58-.88.46C109.15,139.11,109.44,139,109.92,139.17Z"/><path class="cls-3" d="M200,133c-.44.13-.78.05-.89-.46C199.66,132.17,199.88,132.48,200,133Z"/><path class="cls-3" d="M92.88,153.67c.16.46,0,.78-.48.88C92,154,92.47,153.83,92.88,153.67Z"/><path class="cls-3" d="M170.71,124.27c-.43.11-.79.08-.9-.46C170.38,123.45,170.66,123.64,170.71,124.27Z"/><path class="cls-3" d="M140.94,123.84c-.08.57-.45.57-.89.45C140.16,123.76,140.5,123.7,140.94,123.84Z"/><path class="cls-3" d="M137.88,125.58c-.1.54-.44.6-.89.46C137.1,125.52,137.34,125.27,137.88,125.58Z"/><path class="cls-3" d="M126.69,121.28l.53.25c-.33.34-.35-.19-.56-.21Z"/><path class="cls-3" d="M126.18,119c-.54-.09-.6-.44-.46-.89C126.23,118.26,126.5,118.5,126.18,119Z"/><path class="cls-3" d="M62.75,136.54c-.09.55-.44.59-.89.46C62,136.49,62.25,136.3,62.75,136.54Z"/><path class="cls-3" d="M125.73,118.17c-.55-.1-.6-.45-.45-.89C125.78,117.39,125.92,117.69,125.73,118.17Z"/><path class="cls-3" d="M118,125.39l.82.48-.3.37-.86-.45Z"/><path class="cls-3" d="M135.69,126.89c-.08.55-.42.62-.88.47C135,126.9,135.19,126.66,135.69,126.89Z"/><path class="cls-3" d="M60.56,137.85c-.08.55-.43.6-.88.47C59.83,137.88,60.05,137.59,60.56,137.85Z"/><path class="cls-3" d="M131.68,115.52l.64.08a1.14,1.14,0,0,1-1.2.39Z"/><path class="cls-3" d="M124,115.53c-.45.14-.79.06-.87-.48C123.61,114.76,123.81,115.1,124,115.53Z"/><path class="cls-3" d="M138.37,115.2c.1-.53.47-.55.89-.47C139.18,115.3,138.79,115.28,138.37,115.2Z"/><path class="cls-3" d="M117.74,114.71c.54.09.61.43.47.89C117.7,115.48,117.48,115.22,117.74,114.71Z"/><path class="cls-3" d="M112.55,137.87c-.09.58-.47.55-.89.44C111.75,137.75,112.11,137.74,112.55,137.87Z"/><path class="cls-3" d="M117.79,113.81l0,.92c-.61.08-.45-.46-.61-.75l.23-.18Z"/><path class="cls-3" d="M69.93,145l1.18,0C70.44,145.79,70.25,145.79,69.93,145Z"/><path class="cls-3" d="M88.5,177c.44-.13.81-.13.9.44C89,177.56,88.59,177.55,88.5,177Z"/><path class="cls-3" d="M87.64,176.53c.44-.13.79-.09.88.46C88,177.21,87.76,177,87.64,176.53Z"/><path class="cls-3" d="M102.5,144c-.1.53-.42.64-.88.48C101.78,144.06,101.9,143.59,102.5,144Z"/><path class="cls-3" d="M109.05,139.62c-.09.55-.44.59-.88.45C108.28,139.57,108.59,139.44,109.05,139.62Z"/><path class="cls-3" d="M154.94,70.38c-.12.5-.53.44-.9.46C154.21,70.42,154.56,70.37,154.94,70.38Z"/><path class="cls-3" d="M104.24,142.67c-.09.53-.42.62-.88.47C103.51,142.71,103.69,142.35,104.24,142.67Z"/><path class="cls-3" d="M138.75,125.13c-.1.53-.45.58-.89.46C137.93,125,138.18,124.76,138.75,125.13Z"/><path class="cls-3" d="M118.59,62l.51-.35.16.16c-.11.17-.22.34-.32.52Z"/><path class="cls-3" d="M118.78,62.42l-.49-.34a.36.36,0,0,1,.3-.11l.35.33Z"/><path class="cls-3" d="M107.76,66.87c-.07.38-.36.43-.67.45Z"/><path class="cls-3" d="M57.06,140.5q0,.5-.45.45C56.51,140.56,56.66,140.4,57.06,140.5Z"/><path class="cls-3" d="M56.62,140.94c0,.33-.11.49-.45.45C56.1,141,56.22,140.84,56.62,140.94Z"/><path class="cls-3" d="M108.17,140.06c0,.36-.17.45-.47.44C107.52,140,107.83,140,108.17,140.06Z"/><path class="cls-3" d="M139.19,124.72c0,.36-.17.45-.48.44C138.53,124.64,138.87,124.69,139.19,124.72Z"/><path class="cls-3" d="M132.26,125.17l-.73,0c.08-.15.13-.39.24-.42C132.1,124.64,132.21,124.9,132.26,125.17Z"/><path class="cls-3" d="M120.17,126.77l.57.4-.42.34-.45-.4Z"/><path class="cls-3" d="M120.74,127.17l.33.3-.3.46-.46-.42Z"/><path class="cls-3" d="M137,126c0,.34-.17.45-.47.44C136.34,126,136.63,126,137,126Z"/><path class="cls-3" d="M200.43,133.49c-.31,0-.48-.12-.46-.45C200.39,132.91,200.59,133,200.43,133.49Z"/><path class="cls-3" d="M134.82,127.36c0,.34-.15.46-.47.44C134.2,127.32,134.51,127.34,134.82,127.36Z"/><path class="cls-3" d="M200.87,133.93c-.32,0-.47-.14-.47-.46C200.86,133.31,201,133.45,200.87,133.93Z"/><path class="cls-3" d="M61.87,137c0,.36-.21.53-.47.68C61,137,61.43,137,61.87,137Z"/><path class="cls-3" d="M119.51,116.91c.32,0,.49.11.46.45C119.63,117.4,119.38,117.35,119.51,116.91Z"/><path class="cls-3" d="M119.07,116.47c.31,0,.48.13.45.46C119.11,117,118.93,116.92,119.07,116.47Z"/><path class="cls-3" d="M61.29,137.87h-.74c0-.31.13-.56.48-.46C61.15,137.45,61.2,137.71,61.29,137.87Z"/><path class="cls-3" d="M118.63,116c.32,0,.47.14.45.46C118.65,116.62,118.5,116.47,118.63,116Z"/><path class="cls-3" d="M124.4,116q-.51.06-.45-.45C124.27,115.5,124.43,115.64,124.4,116Z"/><path class="cls-3" d="M118.2,115.59c.34,0,.46.15.45.46C118.18,116.21,118.15,115.94,118.2,115.59Z"/><path class="cls-3" d="M121.37,114.45l-.47-.69C121.38,113.77,121.82,113.81,121.37,114.45Z"/><path class="cls-3" d="M59.69,138.32c0,.34-.15.46-.46.44C59.09,138.3,59.38,138.29,59.69,138.32Z"/><path class="cls-3" d="M87.17,176.1c.32,0,.5.09.48.44C87.33,176.56,87,176.59,87.17,176.1Z"/><path class="cls-3" d="M120.92,113.77c-.32,0-.49-.1-.46-.45C120.81,113.27,121.05,113.32,120.92,113.77Z"/><path class="cls-3" d="M120.47,113.34c-.33,0-.49-.11-.45-.45C120.34,112.87,120.54,113,120.47,113.34Z"/><path class="cls-3" d="M86.73,175.66c.31,0,.48.13.46.45C86.75,176.26,86.56,176.14,86.73,175.66Z"/><path class="cls-3" d="M86.3,175.22a.4.4,0,0,1,.46.46C86.28,175.85,86.13,175.7,86.3,175.22Z"/><path class="cls-3" d="M85.86,174.78c.32,0,.46.15.46.46C85.84,175.41,85.7,175.25,85.86,174.78Z"/><path class="cls-3" d="M85.44,174.33c.33,0,.45.16.44.47C85.38,175,85.35,174.71,85.44,174.33Z"/><path class="cls-3" d="M123.24,103.24a.53.53,0,0,1-.25.24l-.47-.29.44-.44Z"/><path class="cls-3" d="M114.53,86.24l.51-.49.23.52-.43.43Z"/><path class="cls-3" d="M141.59,85.51l-.39.46-.24-.22.44-.44Z"/><path class="cls-3" d="M124.75,84c-.1-.2-.2-.39-.29-.59C124.55,83.62,124.65,83.81,124.75,84Z"/><path class="cls-3" d="M142.48,84.64l-.44.45-.21-.22.44-.44C142.34,84.51,142.41,84.57,142.48,84.64Z"/><path class="cls-3" d="M93.32,153.21c0,.33-.1.5-.45.46C92.85,153.35,92.93,153.14,93.32,153.21Z"/><path class="cls-3" d="M93.75,152.76c0,.32-.11.49-.45.47C93.24,152.87,93.27,152.6,93.75,152.76Z"/><path class="cls-3" d="M115,85.75s.11-.1.16-.16c.16.09.33.17.5.25l-.43.43Z"/><path class="cls-3" d="M95.06,151c0,.34-.1.5-.44.46C94.59,151.16,94.69,151,95.06,151Z"/><path class="cls-3" d="M95.5,150.58c0,.32-.11.49-.45.46C95,150.68,95.06,150.45,95.5,150.58Z"/><path class="cls-3" d="M95.93,150.13c0,.32-.12.49-.45.47C95.37,150.19,95.46,150,95.93,150.13Z"/><path class="cls-3" d="M96.36,149.69c0,.31-.13.48-.45.46C95.77,149.71,95.89,149.52,96.36,149.69Z"/><path class="cls-3" d="M96.8,149.25c0,.31-.14.47-.46.46C96.18,149.24,96.33,149.09,96.8,149.25Z"/><path class="cls-3" d="M97.24,148.81c0,.3-.15.46-.46.46C96.61,148.8,96.77,148.65,97.24,148.81Z"/><path class="cls-3" d="M99.42,146.62a.4.4,0,0,1-.46.46C98.8,146.61,99,146.45,99.42,146.62Z"/><path class="cls-3" d="M99.86,146.18c0,.32-.16.46-.46.46C99.23,146.17,99.39,146,99.86,146.18Z"/><path class="cls-3" d="M100.3,145.75c0,.32-.15.46-.46.45C99.67,145.72,99.86,145.6,100.3,145.75Z"/><path class="cls-3" d="M148,73.14c-.07.27-.18.41-.44.17Z"/><path class="cls-3" d="M100.74,145.32c0,.33-.15.46-.46.45C100.12,145.3,100.35,145.22,100.74,145.32Z"/><path class="cls-3" d="M57.94,139.63c0,.35-.13.48-.46.45C57.41,139.69,57.62,139.6,57.94,139.63Z"/><path class="cls-3" d="M101.18,144.89c0,.34-.14.47-.46.44C100.6,144.91,100.82,144.83,101.18,144.89Z"/><path class="cls-3" d="M101.63,144.46c0,.34-.13.48-.46.44C101.1,144.53,101.31,144.44,101.63,144.46Z"/><path class="cls-3" d="M92,155c0,.32-.09.5-.44.47C91.53,155.11,91.56,154.84,92,155Z"/><path class="cls-3" d="M90.25,157.58c0,.3-.11.49-.45.47C89.7,157.65,89.74,157.39,90.25,157.58Z"/><path class="cls-3" d="M102.92,143.56c0,.33-.15.46-.46.45C102.28,143.52,102.52,143.46,102.92,143.56Z"/><path class="cls-3" d="M89.37,158.9c0,.3-.11.49-.44.46C88.83,159,88.87,158.71,89.37,158.9Z"/><path class="cls-3" d="M153.62,71.25l-.46.46C153.13,71.38,153.26,71.21,153.62,71.25Z"/><path class="cls-3" d="M92.43,154.51c0,.31-.11.49-.44.47C91.89,154.59,91.94,154.33,92.43,154.51Z"/><path class="cls-3" d="M103.37,143.14c0,.34-.15.47-.46.44C102.78,143.13,103.05,143.11,103.37,143.14Z"/><path class="cls-3" d="M154.06,70.82a.45.45,0,0,1-.46.45C153.55,70.91,153.78,70.84,154.06,70.82Z"/><path class="cls-3" d="M142,85.09l-.45.42-.19-.2.43-.44Z"/><path class="cls-3" d="M149.68,69.94c0,.29-.13.47-.45.46C149.25,70.12,149.32,69.88,149.68,69.94Z"/><path class="cls-3" d="M142.9,84.19l-.42.45c-.07-.07-.14-.13-.21-.21l.44-.43Z"/><path class="cls-3" d="M91.12,156.27c0,.31-.1.49-.44.47C90.61,156.37,90.63,156.09,91.12,156.27Z"/><path class="cls-3" d="M104.68,142.25c0,.35-.17.46-.47.45C104,142.19,104.33,142.2,104.68,142.25Z"/><path class="cls-3" d="M56.19,141.38c0,.33-.1.49-.44.46C55.73,141.53,55.8,141.31,56.19,141.38Z"/><path class="cls-3" d="M150.57,68.63a.45.45,0,0,1-.46.46Z"/><path class="cls-3" d="M57.5,140.06q0,.51-.45.45C57,140.11,57.12,140,57.5,140.06Z"/><path class="cls-3" d="M135.28,136.13l2.64.39.85.06,5.26.82.21,0,.21,0,2,.11.59.35,1.6.09.58.34,1.21.1,1,.36,1.15.08.6.35,1.16.08.59.36.76.08,1,.37c1.34.25,2.54,1.24,4,.76l-.06,0a5,5,0,0,0,3.94,1.35h0c.08.58.46.56.89.44h0c.52,1.17,1.6,1.21,2.65,1.32l0,0c.28.9.94,1.07,1.76.9h0c.1.54.45.59.89.46h0c.09.56.44.59.89.46h0c0,.35.16.46.47.44l0,0c.09.54.43.61.88.47h0c0,.34.16.46.47.43l0,0a1,1,0,0,0,1.32.9h0c0,.34.15.47.46.45l0,0c0,.33.16.47.47.46l0,0c0,.31.14.47.45.45l0,0c0,.32.13.48.46.47l0,0c0,.31.1.49.44.46h0c-.14.45-.06.79.46.88v0c-.11.44-.07.79.45.9v0a2.2,2.2,0,0,0,.37,1.81l.38,1,.1,1.21.34.58.08,2v2.2l-.43.94v0h-1.79a.76.76,0,0,0-.42,0c-1.88.37-3.73,1.12-5.7.42a.86.86,0,0,0-.42,0c-2.43-.26-4.59-1.58-7-1.72l0,0c-.26-.68-.77-.63-1.33-.47h0c-.09-.56-.45-.57-.89-.45l0,0c-.09-.55-.45-.59-.89-.46h0c-.09-.55-.44-.59-.88-.46h0c0-.35-.15-.46-.46-.44l0,0c-.08-.54-.42-.62-.87-.47h0c.14-.73-.19-1-.89-.87h0c0-.34-.12-.49-.46-.45h0c0-.33-.13-.48-.46-.45l0,0c0-.34-.14-.47-.46-.45h0c0-.32-.14-.47-.46-.45l0,0c0-.33-.14-.47-.46-.46l0,0c0-.32-.14-.47-.46-.45l0,0a.39.39,0,0,0-.46-.46l0,0a.41.41,0,0,0-.46-.46l0,0a.41.41,0,0,0-.46-.46l0,0c-.16-.57-.39-.34-.62,0l-.18,0-.05-.18c.28-1-.52-1.43-1.06-2a42.15,42.15,0,0,0-16.1-10.51,10.8,10.8,0,0,1-5.19-3c.25-.32.73-.65.71-1,0-.55-.65-.35-1-.41l-.15-.45c1.19-.92,2.09.54,3.19.4l.21.05h.22l1.76.38.2,0Zm31,15.81c-.05-.32-.06-.69-.53-.66-.05,0-.14.08-.14.13,0,.48.34.48.66.54a6.23,6.23,0,0,0,3.84,2.16C168.71,152.78,167.77,151.9,166.3,151.94Zm-2.2-1.74c.06.32.06.69.54.66a.24.24,0,0,0,.14-.14c0-.48-.35-.47-.66-.53a6.28,6.28,0,0,0-3.85-2.17C161.7,149.35,162.64,150.24,164.1,150.2Zm-10.48-6.58c.22.37.41.78.94.68a.35.35,0,0,0,.16-.3c-.21-.53-.69-.33-1.09-.39,0-1-.82-1.32-1.53-1.63a40.45,40.45,0,0,0-5.76-1.9c-4.8-1.25-10-.88-14.49-3.3,0,0-.19.15-.43.35a11.53,11.53,0,0,0,4.93,2.1C142.25,140.11,148.26,140.58,153.62,143.62Zm16.85,10.87c.45.58.85,1.27,2,1.16A1.72,1.72,0,0,0,170.47,154.49Zm-10.85-7.19c-.05.13-.17.28-.14.36s.23.12.35.17c0-.12.18-.28.14-.36S159.74,147.36,159.62,147.3Zm-3.53-2.48-.37-.16c-.05.12-.17.28-.14.36s.23.12.35.17C156,145.07,156,144.94,156.09,144.82Zm.91.73c-.05.12-.17.28-.14.36s.23.11.35.17c0-.13.18-.28.14-.36S157.12,145.6,157,145.55Zm1.71,1-.37-.15c-.05.12-.17.27-.13.35s.22.12.34.17C158.61,146.82,158.66,146.7,158.71,146.57Z"/><path class="cls-3" d="M130,137.08a10.8,10.8,0,0,0,5.19,3,42.15,42.15,0,0,1,16.1,10.51c.54.55,1.34,1,1.06,2l-5.74-5a31.23,31.23,0,0,0-10.47-6.13,28.52,28.52,0,0,1-5.92-2.86,4.68,4.68,0,0,0,.69,3.48,22.54,22.54,0,0,0,3.87,5.53c4,4.38,4.32,9.69,4,15.18a2.25,2.25,0,0,1-1.05,1.82l-.36-.48c1.24-5.32.88-10.4-2.45-14.94-1.93-2.62-4.27-5-5.36-8.14-.59-1.88-.38-3.86-.72-5.77h.65l.15.45C129.62,136.2,129.55,136.7,130,137.08Z"/><path class="cls-3" d="M126.64,134.83l.33,0a19.67,19.67,0,0,1-1.43,6.77c-1.43,4.11-3.34,8.1-4.3,12.32-1.43,6.25-.17,9.05,5.48,10.87a3.83,3.83,0,0,1,1.17.56c2.06,1.58,4.18,1.27,6.34.25,1.05-.49,2.09-1,3.13-1.5l.36.48c-3.29,2.16-6.6,4.19-10.53,1.35a1.61,1.61,0,0,0-.59-.28c-7-1.87-7.91-7.4-5.77-13.52,1.49-4.24,3.21-8.41,4.55-12.72.24-.75.75-1.57-.55-1.87l.39-1C126,136.28,126.14,135.4,126.64,134.83Z"/><path class="cls-3" d="M176.77,161.63h1.79a10.58,10.58,0,0,1-6.32,1.32c-3.17-.23-6.35-.67-9.06-2.63,2.46.14,4.62,1.46,7,1.72.12.22.26.26.42,0,2,.7,3.82-.05,5.7-.42C176.51,161.87,176.65,161.84,176.77,161.63Z"/><path class="cls-3" d="M156.22,135.83l7,.81c.09,1.05.76,1.33,1.69,1.27a1.1,1.1,0,0,1,.2.31l-.35.44a40.14,40.14,0,0,0-9.37-2.18Z"/><path class="cls-3" d="M194.71,141.5l.69.46c-3.68,1.07-7.22-.14-10.79-.68-.43-.06-.85-.16-1.27-.24l.53-.57,1.22.12.57.34,1.61.09.59.33,2,.1a.74.74,0,0,0,1.27.07Z"/><path class="cls-3" d="M182.31,146.08c-2.61.84-4.59-.75-6.71-1.75l.4-.4c2,.5,3.72,1.91,5.91,1.73Z"/><path class="cls-3" d="M178.56,155.9l-.09-1.21a.87.87,0,0,0-.39-1,2.2,2.2,0,0,1-.37-1.81c1.73,1.89,1.62,4.32,1.92,6.62H179c0-.68,0-1.36-.08-2C178.79,156.28,178.67,156.09,178.56,155.9Z"/><path class="cls-3" d="M164.58,142.26a5,5,0,0,1-3.94-1.35A5.29,5.29,0,0,1,164.58,142.26Z"/><path class="cls-3" d="M183.24,141.44a5.06,5.06,0,0,1-.1,3.71l-.41-.34c0-.94.05-1.88.08-2.82Z"/><path class="cls-3" d="M168.1,144c-1-.11-2.13-.15-2.65-1.32A2.65,2.65,0,0,1,168.1,144Z"/><path class="cls-3" d="M169.83,144.88c-.82.17-1.48,0-1.76-.9A1.35,1.35,0,0,1,169.83,144.88Z"/><path class="cls-3" d="M179,158.52h.65l.1.91a1.12,1.12,0,0,0-.12,1.4V161l-.62-.27Z"/><path class="cls-3" d="M183.24,141.44l-.43.55c-.18-.44-.37-.87-.55-1.31l.62-.55,1,.34-.53.57A1.8,1.8,0,0,1,183.24,141.44Z"/><path class="cls-3" d="M156.22,135.83l-.82.65-.91-.11v-.64Z"/><path class="cls-3" d="M174.63,148a1,1,0,0,1-1.32-.9C174.06,146.91,174.42,147.32,174.63,148Z"/><path class="cls-3" d="M157.08,156.8c.7-.12,1,.14.89.87C157.5,157.57,157.11,157.36,157.08,156.8Z"/><path class="cls-3" d="M161.89,159.88c.56-.16,1.07-.21,1.33.47C162.57,160.79,162.2,160.42,161.89,159.88Z"/><path class="cls-3" d="M183.14,145.15a1.53,1.53,0,0,1-.83.93l-.4-.41.82-.87Z"/><path class="cls-3" d="M179.61,160.82a1.12,1.12,0,0,1,.12-1.4A1.46,1.46,0,0,1,179.61,160.82Z"/><path class="cls-3" d="M179,160.72l.62.27c-.21.44-.37,1-1.05.67C178.7,161.35,178.84,161,179,160.72Z"/><path class="cls-3" d="M167,139.58l-1.28-.58.28-.36,1.29.47Z"/><path class="cls-3" d="M168.73,140.48l-1-.53.42-.39.87.46Z"/><path class="cls-3" d="M173.1,143l-.84-.51.28-.32.86.43Z"/><path class="cls-3" d="M165.46,142.69c-.43.12-.81.14-.89-.44C165,142.15,165.38,142.11,165.46,142.69Z"/><path class="cls-3" d="M171.77,142.22l-1-.53.39-.41.85.49Z"/><path class="cls-3" d="M161,159.44c.44-.12.8-.11.89.45C161.44,160.08,161.11,160,161,159.44Z"/><path class="cls-3" d="M160.14,159c.44-.13.8-.09.89.46C160.54,159.69,160.25,159.52,160.14,159Z"/><path class="cls-3" d="M159.28,158.55c.44-.13.79-.09.88.46A.58.58,0,0,1,159.28,158.55Z"/><path class="cls-3" d="M170,141.23l-.84-.51.29-.33.86.44Z"/><path class="cls-3" d="M158,157.67c.45-.15.79-.07.87.47C158.33,158.4,158.14,158.06,158,157.67Z"/><path class="cls-3" d="M170.82,141.69l-.79-.46c.11-.13.21-.27.31-.4l.87.45Z"/><path class="cls-3" d="M177.72,151.92c-.52-.11-.56-.46-.45-.9C177.87,151.09,178.09,151.36,177.72,151.92Z"/><path class="cls-3" d="M177.28,151c-.52-.09-.6-.43-.46-.88C177.3,150.28,177.64,150.48,177.28,151Z"/><path class="cls-3" d="M167.71,140l-.74-.37.29-.47.87.44Z"/><path class="cls-3" d="M172.88,146.65c-.45.14-.79.07-.88-.47C172.52,145.91,172.74,146.2,172.88,146.65Z"/><path class="cls-3" d="M171.57,145.78c-.45.13-.8.1-.89-.46A.6.6,0,0,1,171.57,145.78Z"/><path class="cls-3" d="M170.7,145.33c-.44.13-.79.08-.89-.46C170.32,144.61,170.59,144.81,170.7,145.33Z"/><path class="cls-3" d="M175.6,144.33l-.86-.44.39-.41.87.44Z"/><path class="cls-3" d="M174.74,143.89l-.82-.46.34-.39.87.44Z"/><path class="cls-3" d="M173.92,143.43l-.82-.46.3-.39.86.45Z"/><path class="cls-3" d="M165.69,139l-.92-.34.34-.44.86.42Z"/><path class="cls-3" d="M169.19,140.72l-.46-.24L169,140l.48.37Z"/><path class="cls-3" d="M153.57,153.3a.41.41,0,0,1,.46.46C153.56,153.92,153.4,153.78,153.57,153.3Z"/><path class="cls-3" d="M153.13,152.86a.41.41,0,0,1,.46.46C153.12,153.49,153,153.34,153.13,152.86Z"/><path class="cls-3" d="M152.54,152.84c.23-.29.46-.52.62,0A.37.37,0,0,1,152.54,152.84Z"/><path class="cls-3" d="M156.2,155.92c.33,0,.49.12.46.45C156.3,156.43,156.11,156.32,156.2,155.92Z"/><path class="cls-3" d="M176.82,150.16c-.34,0-.46-.15-.44-.46C176.84,149.55,176.88,149.81,176.82,150.16Z"/><path class="cls-3" d="M176.4,149.72c-.33,0-.47-.15-.46-.47C176.43,149.08,176.52,149.3,176.4,149.72Z"/><path class="cls-3" d="M176,149.27c-.31,0-.46-.14-.45-.45Q176.2,148.58,176,149.27Z"/><path class="cls-3" d="M175.53,148.84c-.31,0-.48-.13-.47-.46C175.48,148.27,175.7,148.35,175.53,148.84Z"/><path class="cls-3" d="M175.08,148.4c-.31,0-.49-.11-.46-.45C175,147.89,175.22,148,175.08,148.4Z"/><path class="cls-3" d="M173.34,147.08c-.31,0-.5-.09-.47-.43C173.18,146.63,173.5,146.6,173.34,147.08Z"/><path class="cls-3" d="M155.76,155.49c.32,0,.49.11.46.45C155.83,156,155.64,155.91,155.76,155.49Z"/><path class="cls-3" d="M158.82,158.12c.31,0,.5.09.46.44C159,158.58,158.67,158.59,158.82,158.12Z"/><path class="cls-3" d="M172,146.21c-.31,0-.5-.09-.47-.44C171.86,145.76,172.19,145.72,172,146.21Z"/><path class="cls-3" d="M155.32,155.05c.32,0,.48.13.46.45C155.36,155.62,155.2,155.48,155.32,155.05Z"/><path class="cls-3" d="M154.88,154.61c.32,0,.48.13.46.46C154.92,155.19,154.73,155.07,154.88,154.61Z"/><path class="cls-3" d="M154.44,154.18c.32,0,.47.13.46.45C154.47,154.77,154.28,154.65,154.44,154.18Z"/><path class="cls-3" d="M156.64,156.36c.34,0,.49.11.46.45C156.76,156.85,156.58,156.73,156.64,156.36Z"/><path class="cls-3" d="M154,153.74a.39.39,0,0,1,.46.46C154,154.36,153.84,154.21,154,153.74Z"/><path class="cls-3" d="M172.26,142.46l-.49-.24.29-.45.48.37Z"/><path class="cls-3" d="M103.4,153.71c.06,1.4-.83,2.45-1.39,3.61-1.85,3.83-3.77,7.63-5.78,11.68a3.13,3.13,0,0,1,.48-2.65c1.88-3.94,3.85-7.83,5.81-11.73a4.74,4.74,0,0,1,.87-.93Z"/><path class="cls-3" d="M105.77,149.85a16.33,16.33,0,0,1,4.21-4.36Z"/><path class="cls-3" d="M121.74,135.24c0-.25,0-.51,0-.77l2.59-.54,1.8.15v.65l-.92.16Z"/><path class="cls-3" d="M125.2,134.89l.92-.16.52.1c-.5.57-.6,1.45-1.42,1.76-.73-.78-1.44.33-2.16,0l0,0C123.43,135.6,124.65,135.66,125.2,134.89Z"/><path class="cls-3" d="M123.06,136.61c-.48,1.28-1.56,1.71-3.21,2.21a5.11,5.11,0,0,1,3.19-2.23Z"/><path class="cls-3" d="M111,145.25c.07-1,.51-1.35,1.44-1.51C112.35,144.71,111.9,145.08,111,145.25Z"/><path class="cls-3" d="M103.39,153.69a2.84,2.84,0,0,1,1.31-2.19h0c-.06,1-.1,1.93-1.31,2.2Z"/><path class="cls-3" d="M114.33,142.74c-.26.28-.4.53-.62.64s-.61.06-.51-.34a1.16,1.16,0,0,1,.53-.57C113.81,142.42,114,142.6,114.33,142.74Z"/><path class="cls-3" d="M115.62,141.42c.21-.37.4-.78.94-.68a.35.35,0,0,1,.16.3c-.21.53-.7.33-1.09.39Z"/><path class="cls-3" d="M104.7,151.5c.06-.32.06-.69.53-.66a.2.2,0,0,1,.14.14c0,.47-.34.48-.66.53Z"/><path class="cls-3" d="M119.4,139.12c-.05.12-.08.31-.17.35s-.24-.09-.36-.14c0-.12.08-.31.17-.35S119.28,139.07,119.4,139.12Z"/><path class="cls-3" d="M115.63,141.43c0,.32-.06.69-.53.66A.2.2,0,0,1,115,142c0-.47.34-.47.66-.53Z"/><path class="cls-3" d="M118.09,140c-.06.12-.09.31-.18.35s-.24-.09-.36-.14c.06-.12.08-.31.17-.35S118,139.93,118.09,140Z"/><path class="cls-3" d="M118.25,136.16c.19-.13.39-.25.59-.37C118.64,135.91,118.44,136,118.25,136.16Z"/><path class="cls-3" d="M91.31,177.75l-.58-.36Z"/><path class="cls-3" d="M85,172.55c-.06-.1-.13-.19-.18-.29s.09-.09.13-.14A.9.9,0,0,1,85,172.55Z"/><path class="cls-3" d="M139.24,131c1.42,1,2.82-.08,4.2-.16,3.38-.2,6.73-1,10.11-1.14a53.62,53.62,0,0,1,10,.48c3,.44,6.07.49,9.08.64,7.55.38,14.71,2.25,21.8,4.61a.63.63,0,0,1,.46.48c-2.2.09-4.06-.85-6-1.46a61,61,0,0,0-16-2.72c-5.27-.21-10.51-1-15.78-1.2-7.2-.3-14.24,1.22-21.31,2.36-.64.1-1.25.43-1.81-.17C135.54,131.56,137.51,131.62,139.24,131Z"/><path class="cls-3" d="M139.24,131c-1.73.64-3.7.58-5.27,1.72l-.84.06a.77.77,0,0,0-1,.68h-1.2a1.09,1.09,0,0,0,0-.36c0-.25,0-.5,0-.75,7.06-1.84,14.11-3.72,21.28-5.11,5.11-1,10.19-.76,15.33-.45,2.46.15,4.93,1,7.42.24l.53,0c0,.43,0,.86,0,1.29-3.82-.28-7.63-.54-11.45-.86-8.16-.68-15.91,1.55-23.71,3.38C140,130.85,139.6,130.91,139.24,131Z"/><path class="cls-3" d="M164.92,137.91c-.93.06-1.6-.22-1.69-1.27a98.93,98.93,0,0,1,17.92,3.08v.78C175.76,139.49,170.48,137.81,164.92,137.91Z"/><path class="cls-3" d="M130.91,133.07a1.09,1.09,0,0,1,0,.36c0,.19,0,.39,0,.59-.35.34-.91.54-1.07,0C129.59,133.27,130.36,133.2,130.91,133.07Z"/><path class="cls-3" d="M181.15,140.5v-.78l1.73.41c-.2.19-.41.37-.62.55Z"/><path class="cls-3" d="M132.13,133.44a.77.77,0,0,1,1-.68A.74.74,0,0,1,132.13,133.44Z"/><path class="cls-3" d="M191.16,141.52a.74.74,0,0,1-1.27-.07Z"/><path class="cls-3" d="M185,129.22a.86.86,0,0,1,1,.34A1.11,1.11,0,0,1,185,129.22Z"/><path class="cls-3" d="M187.56,129.66a.89.89,0,0,1,1,.35Z"/><path class="cls-3" d="M191.94,130.53a.86.86,0,0,1,1,.37Z"/><path class="cls-3" d="M185.66,140.93l-.57-.34Z"/><path class="cls-3" d="M187.86,141.35l-.59-.33Z"/><path class="cls-3" d="M182.47,129.07c.16-.2.3-.17.42,0h-.21Z"/><path class="cls-3" d="M190.16,130.09l.59.35Z"/><path class="cls-3" d="M195.79,131.63l-.09,0Z"/><path class="cls-3" d="M151.43,135.36c-.15.21-.29.18-.42,0A.76.76,0,0,1,151.43,135.36Z"/><path class="cls-3" d="M126.12,134.08l-1.8-.15a87.27,87.27,0,0,0-13.93-3,82.68,82.68,0,0,0-10.75-1.24c-3.24-.12-6.49.34-9.74.53-9.31.54-17.3,5.1-25.67,8.49a11,11,0,0,1-1.21.44c-.1,0-.25-.1-.64-.28a56.63,56.63,0,0,1,7.21-3.27,107.3,107.3,0,0,1,12.77-4.94,46.35,46.35,0,0,1,10.5-1.45,86.11,86.11,0,0,1,25.22,2.39c2,.47,4.11.82,6.13,1.38.5.13,1,.23,1.4-.27C126.31,133,126.92,133.26,126.12,134.08Z"/><path class="cls-3" d="M98.59,128.25l.88-.9A60.28,60.28,0,0,1,114.13,129c3.11.69,6.25,1.27,9.37,1.9l0,0,.41.37c0,.3,0,.6.05.91a150.77,150.77,0,0,0-18.19-3.72A68,68,0,0,0,98.59,128.25Z"/><path class="cls-3" d="M82.87,129.57c.37-.53.9-.41,1.42-.36A1.66,1.66,0,0,1,82.87,129.57Z"/><path class="cls-3" d="M80.25,130a.87.87,0,0,1,1-.35A1.13,1.13,0,0,1,80.25,130Z"/><path class="cls-3" d="M86.36,129.12c.26-.4.54-.45.85-.06Z"/><path class="cls-3" d="M118.68,134.44c-.3.43-.59.41-.87,0Z"/><path class="cls-3" d="M99.46,134.86c-.12.23-.26.27-.42,0A.86.86,0,0,1,99.46,134.86Z"/><path class="cls-3" d="M61.46,147.59l-.58.35Z"/><path class="cls-3" d="M65,146.69l-.59.37Z"/><path class="cls-3" d="M55.36,146.68l-.43,0,.06-.57Z"/><path class="cls-3" d="M130.48,131.34l-.52-.49c.38-.32.72-1.16,1.26-.56C131.56,130.66,130.91,131.1,130.48,131.34Z"/><path class="cls-3" d="M132.24,126.08h.41c0,.48.09,1-.41,1.3Z"/><path class="cls-3" d="M162.22,121.33a.87.87,0,0,1,1,.35A1.13,1.13,0,0,1,162.22,121.33Z"/><polygon class="cls-3" points="130.31 124.69 130.26 124.54 130.21 124.69 130.31 124.69"/><path class="cls-3" d="M145.33,122.56l.58-.36Z"/><path class="cls-3" d="M147.08,122.12l.6-.36Z"/><path class="cls-3" d="M133.82,128.48l0,.09Z"/><path class="cls-3" d="M128.58,53.7l-.27.49c-1.08-.79-.31-1.81-.31-2.73a.71.71,0,0,1,.53-.11c.17.07.41.31.39.46C128.85,52.44,128.7,53.07,128.58,53.7Z"/><path class="cls-3" d="M130.41,54.59c-.11-.28-.23-.56-.35-.84V48.1h.35Z"/><path class="cls-3" d="M131.78,43.69h-.42l.09-1.08C131.89,43,131.78,43.34,131.78,43.69Z"/><polygon class="cls-3" points="127.58 55.54 127.65 55.37 127.69 55.55 127.58 55.54"/><path class="cls-3" d="M137.36,164.12c-1,.5-2.08,1-3.13,1.5-2.16,1-4.28,1.33-6.34-.25a3.83,3.83,0,0,0-1.17-.56c-5.65-1.82-6.91-4.62-5.48-10.87,1-4.22,2.87-8.21,4.3-12.32a19.67,19.67,0,0,0,1.43-6.77l.89.44c0,1,0,1.9,0,2.84.67,7.06,1.79,14.08,1.71,21.2,0,.66-.24,1.42.3,2,.5-.08.52-.4.53-.67.18-3.85-.41-7.66-.62-11.49-.14-2.7-1.23-5.38-.28-8.11,1.09,3.18,3.43,5.52,5.36,8.14C138.24,153.72,138.6,158.8,137.36,164.12Z"/><path class="cls-3" d="M123.5,130.91c-3.12-.63-6.26-1.21-9.37-1.9a60.28,60.28,0,0,0-14.66-1.66c-.29-.42.12-.75.15-1.12l3.34-1.47,1-.38,2.07-.08h3.07l4.38.36.85.07,1.21.17,1.3.46.88.42.86.45a2.3,2.3,0,0,0,1.31.87l.45.4.45.42,2.69,2.59C123.47,130.65,123.49,130.78,123.5,130.91Z"/><path class="cls-3" d="M129,89.75q.09,9.18.2,18.36c0,7.08-.08,14.16-.15,21.24,0,1.31-.19,2.61-.3,3.91-.05.5,0,1.13-.78,1-.59-.1-.51-.63-.46-1,.93-8.28.53-16.61.94-24.9.31-6.2-.12-12.37,0-18.55Z"/><path class="cls-3" d="M123,102.75l-.44.44a11.43,11.43,0,0,0-1.78,1.84c-.6,1-1.2.76-1.94.33-1.17-2-.48-3.49,1.14-4.91a3.74,3.74,0,0,1,4.75-.49l1.86,1.08c.35.39,1.3.44,1,1.15-.17.4-.92.1-1.4,0C125,101.79,123.86,101.61,123,102.75Z"/><path class="cls-3" d="M129.55,141c-1,2.73.14,5.41.28,8.11.21,3.83.8,7.64.62,11.49,0,.27,0,.59-.53.67-.54-.56-.31-1.32-.3-2,.08-7.12-1-14.14-1.71-21.2-.09-.94,0-1.89,0-2.84l1,0C129.17,137.18,129,139.16,129.55,141Z"/><path class="cls-3" d="M123.49,126.52c.07-.47.26-.81.81-.77a4.48,4.48,0,0,0,1.33,2.58c.18,1.19,1.05,2.23.82,3.55-.81.05-1-.8-1.64-1l-.87-.87c-.65-1-.4-2-.48-3.06Z"/><path class="cls-3" d="M124.77,125.21c.24-1.2,1.19-.9,1.91-.81.95.12.67,1,.69,1.58,0,1.07,0,2.15,0,3.5-1-.42-.84-1.26-1.29-1.64Z"/><path class="cls-3" d="M129,89.75h-.55c0-1.18-.07-2.36-.1-3.55.87-.38.75.26.74.75C129.1,87.89,129.06,88.82,129,89.75Z"/><path class="cls-3" d="M124.77,125.21l1.32,2.63-.46.49a4.48,4.48,0,0,1-1.33-2.58Z"/><path class="cls-3" d="M123.94,130l.87.87-1,.05-.38-.05,0,0c0-.13,0-.26,0-.39Z"/><path class="cls-3" d="M138.77,136.58l-.85-.06C138.23,136.14,138.52,136.18,138.77,136.58Z"/><path class="cls-3" d="M151.44,138.78l-1-.36A.85.85,0,0,1,151.44,138.78Z"/><path class="cls-3" d="M156.68,140.1l-1-.37A.85.85,0,0,1,156.68,140.1Z"/><path class="cls-3" d="M123.47,130.89l.38.05a.85.85,0,0,1,0,.32Z"/><path class="cls-3" d="M123.49,126.52l0,.44a1.51,1.51,0,0,1-.13-.33S123.43,126.56,123.49,126.52Z"/><path class="cls-3" d="M133.1,135.71h-.22l-.21-.05C132.84,135.45,133,135.49,133.1,135.71Z"/><path class="cls-3" d="M135.28,136.13h-.22l-.2,0C135,135.88,135.16,135.92,135.28,136.13Z"/><path class="cls-3" d="M126.11,119.94a.54.54,0,0,1,.16.1s0,.09,0,.14l-.17-.23Z"/><path class="cls-3" d="M144.45,137.43l-.21,0-.21,0C144.19,137.19,144.33,137.23,144.45,137.43Z"/><path class="cls-3" d="M147.07,137.89l-.59-.35Z"/><path class="cls-3" d="M149.25,138.32l-.58-.34Z"/><path class="cls-3" d="M153.19,139.21l-.6-.35Z"/><path class="cls-3" d="M154.94,139.65l-.59-.36Z"/><path class="cls-3" d="M133.56,99.37a43,43,0,0,1,12.21-4.52,2.7,2.7,0,0,1,2.09.06c.71.4,1.69.86,1.59,1.63-.15,1.1-1.32.61-2,.58-4.34-.19-8.2,1.73-12.29,2.61-.52.11-1.39,1.14-1.6-.36Z"/><path class="cls-3" d="M133.1,77.42a7,7,0,0,1,3.53-2.77c1.3-.54,2.79.85,3.11,2.68v0c-2.2.44-4.43-.78-6.63.07Z"/><path class="cls-3" d="M133.1,77.42l-.18.19s0-.09,0-.11a.71.71,0,0,1,.15-.08Z"/><path class="cls-3" d="M115.27,86.27l.43-.43c1.57-.87,2.94-2.09,4.76-2.51.84-.19,1.67-.37,2,.62s-.7.92-1.21,1.14c-2,.87-3.42,2.41-5.11,3.63-.54.39-1.16,1.31-1.85.76s.14-1.29.27-2a5,5,0,0,1,.28-.82Z"/><path class="cls-3" d="M122.5,74.12A8,8,0,0,1,124.66,70a1.06,1.06,0,0,1,1.53-.26c.55.5-.14.88-.36,1.26C125.14,72.21,123.83,72.74,122.5,74.12Z"/><path class="cls-3" d="M142.71,84l-.44.43-.44.44-.43.44-.44.44a2.73,2.73,0,0,0-.41,0l-.07-.07c.11-1.1-.27-2.31.83-3.34Z"/><path class="cls-3" d="M139.17,88.35a1.48,1.48,0,0,0-.86,1.32c-.33.07-.94.51-.64-.37a3.66,3.66,0,0,0,.2-1.85v0c.51-.13.49-.51.45-.91l-.07,0C139.88,86.47,139.49,87.43,139.17,88.35Z"/><path class="cls-3" d="M140.55,85.78l-.24.17.17-.24Z"/><path class="cls-3" d="M117.79,113.81h-.41c0-.19.05-.38.07-.57Z"/><path class="cls-3" d="M135.73,63.84c1.25-1.22,2.8-1.58,4.91-1.72a7.8,7.8,0,0,1-4.93,1.7Z"/><path class="cls-3" d="M135.71,63.82l-.16.19s0-.08,0-.1a.69.69,0,0,1,.15-.07Z"/><path class="cls-3" d="M135,92.82c-.2-3.07-1.73-5.82-2.08-8.86a12.59,12.59,0,0,1-.16-1.94c.05-.86.42-1.58,1.4-1.64s1.51.67,1.58,1.65a63.47,63.47,0,0,1,.45,8C136.39,91.24,136.51,92.39,135,92.82Zm.09-4.41a16.63,16.63,0,0,0-.19-5.93c-.12-.46,0-1.15-.78-1s-.58.76-.55,1.24A15.05,15.05,0,0,0,135.09,88.41Zm.37,1.17a.42.42,0,0,0,0,.16s.06,0,.1.05a.83.83,0,0,0,0-.15S135.49,89.6,135.46,89.58Z"/><path class="cls-3" d="M103.94,124.38l-1,.38A.86.86,0,0,1,103.94,124.38Z"/><path class="cls-3" d="M114.31,124.74l-.85-.07C113.78,124.28,114.06,124.34,114.31,124.74Z"/><path class="cls-3" d="M116.37,61.73c-.32.17-.25.47-.24.74-1.14-1.46-.19-3.2-.62-4.77.33-.31.79-1.28,1,0A9.3,9.3,0,0,1,116.37,61.73Z"/><path class="cls-3" d="M153.62,143.62c-5.36-3-11.37-3.51-17.27-4.39a11.53,11.53,0,0,1-4.93-2.1c.24-.2.38-.37.43-.35,4.53,2.42,9.69,2.05,14.49,3.3a40.45,40.45,0,0,1,5.76,1.9c.71.31,1.53.61,1.53,1.63Z"/><path class="cls-3" d="M164.1,150.2c-1.46,0-2.4-.85-3.83-2.18a6.28,6.28,0,0,1,3.85,2.17Z"/><path class="cls-3" d="M166.3,151.94c1.47,0,2.41.84,3.83,2.17a6.23,6.23,0,0,1-3.84-2.16Z"/><path class="cls-3" d="M170.47,154.49a1.72,1.72,0,0,1,2,1.16C171.32,155.76,170.92,155.07,170.47,154.49Z"/><path class="cls-3" d="M130,137.08c-.41-.38-.34-.88-.33-1.36.39.06,1-.14,1,.41C130.69,136.43,130.21,136.76,130,137.08Z"/><path class="cls-3" d="M153.63,143.61c.4.06.88-.14,1.09.39a.35.35,0,0,1-.16.3c-.53.1-.72-.31-.94-.68Z"/><path class="cls-3" d="M159.62,147.3c.12.06.31.08.35.17s-.09.24-.14.36c-.12-.05-.31-.08-.35-.17S159.57,147.43,159.62,147.3Z"/><path class="cls-3" d="M164.12,150.19c.31.06.68.05.66.53a.24.24,0,0,1-.14.14c-.48,0-.48-.34-.54-.66Z"/><path class="cls-3" d="M166.29,152c-.32-.06-.69-.06-.66-.54,0,0,.09-.13.14-.13.47,0,.48.34.53.66Z"/><path class="cls-3" d="M156.09,144.82c-.05.12-.1.25-.16.37-.12-.05-.31-.08-.35-.17s.09-.24.14-.36Z"/><path class="cls-3" d="M157,145.55c.12,0,.31.08.35.17s-.09.23-.14.36c-.12-.06-.31-.08-.35-.17S157,145.67,157,145.55Z"/><path class="cls-3" d="M158.71,146.58c-.05.12-.1.24-.16.36-.12-.05-.31-.08-.34-.17s.08-.23.13-.35Z"/><path class="cls-3" d="M178.08,153.7a.87.87,0,0,1,.39,1Z"/><path class="cls-3" d="M170.65,162.09c-.16.22-.3.18-.42,0A.86.86,0,0,1,170.65,162.09Z"/><path class="cls-3" d="M176.77,161.63c-.12.21-.26.24-.42,0A.76.76,0,0,1,176.77,161.63Z"/><path class="cls-3" d="M178.56,155.9c.11.19.23.38.34.58Z"/><path class="cls-3" d="M181.15,140.5l1.11.18c.18.44.37.87.55,1.31,0,.94-.06,1.88-.08,2.82-.28.28-.55.57-.82.86-2.19.17-3.92-1.24-5.91-1.74l-.87-.45-.87-.44c-.28-.16-.57-.31-.86-.46l-.86-.44-.48-.37-.85-.49-.87-.45-.86-.44L169,140l-.87-.46-.87-.45-1.29-.47-.86-.42a.89.89,0,0,0-.19-.31C170.48,137.81,175.76,139.49,181.15,140.5Z"/><path class="cls-3" d="M138.31,86.59c0,.4.06.78-.45.91C137.86,87.12,137.69,86.66,138.31,86.59Z"/><path class="cls-3" d="M135.09,88.41a15.05,15.05,0,0,1-1.52-5.72c0-.48-.12-1.13.55-1.24s.66.57.78,1A16.63,16.63,0,0,1,135.09,88.41Z"/><path class="cls-3" d="M135.46,89.58s.1,0,.1.06a.83.83,0,0,1,0,.15s-.1,0-.1-.05A.42.42,0,0,1,135.46,89.58Z"/><text class="cls-4" transform="translate(236.38 177.98) rotate(-90)">Arabidopsis</text><rect class="cls-5" width="255" height="235"/></g></g></svg>