<svg xmlns="http://www.w3.org/2000/svg" viewBox="0 0 249.89 230"><defs><style>.cls-1{fill:#1f787a;stroke-miterlimit:10;stroke-width:5px;}.cls-1,.cls-3{stroke:#eebc8a;}.cls-2{font-size:15px;}.cls-2,.cls-4{fill:#eebc8a;font-family:ArialMT, Arial;}.cls-3{fill:none;stroke-width:0.35px;}.cls-4{font-size:22.71px;}</style></defs><g id="图层_2" data-name="图层 2"><g id="图层_1-2" data-name="图层 1"><rect class="cls-1" x="2.5" y="2.5" width="244.89" height="225" rx="12"/><text class="cls-2" transform="translate(65.74 197)">Protein # : 27,434<tspan x="-3.34" y="20">Pocket # : 134,556</tspan></text><path class="cls-3" d="M98.6,173.17a22.69,22.69,0,0,1-5.62,1.4H90.35l-2-.09-.58-.36-1.35,0h0c-.09-.57-.46-.57-.89-.44h0c-.08-.55-.44-.59-.88-.46h0c0-.34-.16-.46-.47-.43h0c0-.32-.15-.45-.46-.45l0,0a.4.4,0,0,0-.46-.46l0,0c0-.31-.14-.47-.46-.46l0,0c0-.31-.11-.49-.44-.47h0c.25-.68-.34-1.18-.41-1.79a.9.9,0,0,0-.05-.43v-2.63c0-.3.05-.59.07-.89.18-.88.75-1.7.4-2.66h0c1.17-.53,1.19-1.62,1.31-2.66l0,0a1.31,1.31,0,0,0,.9-1.77h0c.54-.09.6-.43.46-.88h0c.78-.13,1-.6.88-1.34h0c.34,0,.45-.16.45-.47l0,0c.51-.11.62-.43.47-.89h0c.33,0,.45-.17.45-.47l0,0c.51-.11.63-.43.47-.89h0c.34,0,.46-.16.45-.47l0,0c.54-.09.63-.42.48-.88h0c.34,0,.47-.15.44-.47l0,0c.34,0,.46-.16.45-.47l0,0c.52-.1.63-.42.48-.88h0c.35,0,.48-.13.45-.46l0,0c.34,0,.46-.15.45-.47l0,0a1,1,0,0,0,.91-1.32h0c.34,0,.48-.13.44-.46v0c.34,0,.47-.14.45-.46h0c.33,0,.46-.14.45-.46l0,0a.39.39,0,0,0,.46-.46l0,0c.31,0,.46-.15.45-.46l0,0a.41.41,0,0,0,.46-.46l0,0a2.58,2.58,0,0,0,1.79-1.8l0,0a.41.41,0,0,0,.46-.46l0,0c.3,0,.47-.14.46-.46l0,0c.32,0,.48-.13.47-.45l0,0c.31,0,.48-.12.46-.45h0c.32,0,.5-.1.46-.44h0c.33,0,.49-.1.46-.44h0c.47.16.79.05.88-.48l0,0c.31,0,.48-.12.46-.45l0,0c.32,0,.5-.1.47-.44h0c.46.15.79.06.89-.47l0,0c.31,0,.5-.1.47-.45h0c.75.16,1.21-.1,1.33-.88h0c.45.15.8.08.89-.46h0c.44.13.79.06.9-.46l0,0c.3,0,.5-.09.47-.44h0c.45.14.8.1.89-.45h0c.44.12.8.1.89-.46h0c.82.17,1.51.07,1.77-.88h0c.43.11.81.14.89-.44h0c.56.16,1.08.22,1.33-.48l0,0a1.94,1.94,0,0,0,2.22-.89h0c.55.15,1.08.24,1.34-.45h0l.93.06.59-.37,2.91-.55,3.48-.36c-.56.78-1.78.72-2.17,1.71a5.14,5.14,0,0,0-3.21,2.23c1.67-.5,2.74-.93,3.23-2.21.72.31,1.44-.8,2.17,0l-.39,1,0,0a5.37,5.37,0,0,0-2.5,2.61c-2.8,4.7-4.68,9.83-6.85,14.83C109.21,159.63,105.6,167.53,98.6,173.17Zm14.13-35c.39-.06.88.14,1.09-.39a.35.35,0,0,0-.16-.3c-.54-.1-.73.31-.94.68-.32.06-.69.06-.66.53,0,0,.08.14.13.14C112.67,138.85,112.68,138.48,112.73,138.16Zm-11,10.07a2.84,2.84,0,0,0-1.31,2.19,4.46,4.46,0,0,0-.87.93c-2,3.9-3.95,7.79-5.84,11.73a3.13,3.13,0,0,0-.48,2.65c2-4,4-7.85,5.8-11.68.57-1.16,1.46-2.21,1.4-3.61,1.22-.27,1.26-1.24,1.32-2.2.32-.05.68-.06.66-.53,0-.05-.09-.14-.14-.14C101.81,147.54,101.82,147.91,101.75,148.23Zm1.08-1.65,4.23-4.36A16.25,16.25,0,0,0,102.83,146.58Zm5.22-4.6c.93-.17,1.38-.54,1.45-1.51C108.56,140.63,108.12,141,108.05,142Zm3.37-2.51c-.29-.14-.52-.32-.6-.27a1.12,1.12,0,0,0-.53.57c-.1.4.24.48.51.34S111.17,139.75,111.42,139.47Zm5.1-3.62c-.13,0-.28-.17-.37-.14s-.11.23-.17.35c.12.05.28.17.36.14S116.46,136,116.52,135.85Zm-1.33.87c-.12-.06-.27-.18-.36-.14s-.12.23-.17.35c.12,0,.27.17.36.14S115.14,136.84,115.19,136.72Z"/><path class="cls-3" d="M197.63,137.21l-1.15.09-.59.35-1.17.08-.6.35-1.15.07-.85.08-3.56,0-1.28-.07-2-.1-.6-.33-1.62-.09-.57-.34-1.23-.12-1-.34-1.73-.41a99.83,99.83,0,0,0-18-3.08l-7-.81-1.73-.1-3.08-.37a.76.76,0,0,0-.42,0c-6.71-.72-13.41-1.64-20.18-1.31,0-.2,0-.4,0-.6l1.2,0a.75.75,0,0,0,1-.68l.84-.06c.56.6,1.17.27,1.82.17,7.09-1.14,14.16-2.67,21.39-2.36,5.29.22,10.55,1,15.84,1.2a61.47,61.47,0,0,1,16.05,2.72c1.95.61,3.82,1.55,6,1.46a.62.62,0,0,0-.47-.48c-7.11-2.36-14.3-4.23-21.88-4.61-3-.15-6.08-.2-9.12-.64a54,54,0,0,0-10-.48c-3.39.14-6.75.94-10.14,1.14-1.39.08-2.79,1.16-4.22.16.36-.07.72-.13,1.07-.21,7.84-1.83,15.61-4.06,23.81-3.38,3.83.32,7.66.58,11.49.86l3.08.37,1.31.07,2.64.38.21,0h.21l2.07.11a1.13,1.13,0,0,0,1,.34l1.62.1,1,.35,1.6.08.59.35,1.19.09,1,.37,2.86.73-.08-.05c1.13.36,2.17,1.06,3.42,1l0,0c.12.51.45.59.9.46h0c0,.33.16.46.47.45l0,0c0,.32.15.47.47.46l0-.06a10.33,10.33,0,0,1-.12,6.2Z"/><path class="cls-3" d="M98.6,173.17c7-5.64,10.61-13.54,14.06-21.49,2.17-5,4-10.13,6.85-14.83a5.37,5.37,0,0,1,2.5-2.61c-.16,1.66-1.65,2.53-2.34,3.9-2.24,4.42-4.25,8.93-6.08,13.53A72.76,72.76,0,0,1,103,170.2c-1,1.28-2,2.74-3.8,3.06Z"/><path class="cls-3" d="M90.35,174.57H93l-1.72.79-.9-.09Z"/><path class="cls-3" d="M192.12,138.23l.85-.08v.6l-.16-.06Z"/><path class="cls-3" d="M195.89,137.65l.59-.35Z"/><path class="cls-3" d="M197.63,137.21l.59-.41Z"/><path class="cls-3" d="M194.12,138.08l.6-.35Z"/><path class="cls-3" d="M58.17,134.6l0-.13.13-.06c.27-.15.51-.32.48-.68h0c.44.13.8.09.89-.46h0a2.62,2.62,0,0,0,2.65-1.34l0,0c1.35-.23,2.76-.34,3.54-1.75h0c.55.15,1.08.23,1.33-.47l0,0c.79.27,1.42-.19,2.07-.46a41.52,41.52,0,0,1,8.08-2.57,1.13,1.13,0,0,0,1-.35l1.62-.09a1.69,1.69,0,0,0,1.43-.36l2.08-.09.85-.06,3.09-.36,1.73-.08,6.61-.37a68.44,68.44,0,0,1,7.17.2,151.88,151.88,0,0,1,18.26,3.72l1.69.55c-.39.5-.91.4-1.41.27-2-.56-4.11-.91-6.15-1.38A86.82,86.82,0,0,0,89.87,126a46.7,46.7,0,0,0-10.54,1.45,108,108,0,0,0-12.82,4.94,56.36,56.36,0,0,0-7.24,3.27c.39.18.54.31.64.28a11.13,11.13,0,0,0,1.22-.44c8.4-3.39,16.42-7.95,25.76-8.49,3.27-.19,6.54-.65,9.79-.54a85.3,85.3,0,0,1,10.79,1.25,87.86,87.86,0,0,1,14,3l-2.59.54-3.07,0-.87,0-7.49-.37h-5.22l-3.08.37-.88.06-1.75.39a.9.9,0,0,0-.43,0c-3.26.89-6.68,1.25-9.64,3.08h0c-.54-.14-1.07-.24-1.34.45l0,0A12.26,12.26,0,0,0,79,137.35h0c-.92-.16-1.78-.16-2.22.89l0,0c-.81-.14-1.52-.11-1.79.87h0c-.55-.15-1.08-.25-1.33.47l0,0A9.38,9.38,0,0,0,68,141.73h0l-1.18,0a.28.28,0,0,1-.32.2l-4.68,1.52-.6.37-2.91.53-.58.35-2,.08h-3.1c.24-.56-.17-.93-.4-1.35l-.37-.59.31-3.39h0c.54-.08.6-.43.47-.88h0c.34,0,.48-.13.44-.46h0c.34,0,.48-.12.45-.45h0c.34,0,.49-.12.46-.45h0c.34,0,.49-.11.46-.45l0,0c.34,0,.5-.1.46-.45h0a1,1,0,0,0,1.31-.91l0,0c.32,0,.5-.1.47-.44h0c.45.13.8.08.88-.47v0Z"/><path class="cls-3" d="M128.58,121.68l.13.07,0,.13.73,0h0c0,.3,0,.61,0,.91v1.31c-.29.7-.85,1.34-.6,2.33a3,3,0,0,0,2.18-1.24l0,.09.6-.79,0,0c.32,0,.51-.1.47-.44h0c.45.15.79.08.88-.47l0,0c.45.12.79,0,.9-.47l0,0c.3,0,.5-.1.47-.44h0c.45.14.8.07.89-.47l0,0c.44.12.8.06.9-.47l0,0c.3,0,.51-.08.48-.44h0c.44.12.81.12.89-.45h0c.43.12.8.12.89-.45h0c1.69.28,2.94-.9,4.42-1.29l.59-.36,1.17-.08.61-.36,2.45-.08,1.74-.08a76.94,76.94,0,0,1,10.41-.27,1.12,1.12,0,0,0,1,.35c1.34.22,2.51,1.22,4,.86h0a2.4,2.4,0,0,0,2.67,1.3l0,0c.1.54.46.57.89.46l0,0c.11.54.47.57.9.46l0,0a1.5,1.5,0,0,0,1.77.9h0c.1.54.44.61.89.46h0c-.08.57.37.74.74,1-2.5.77-5-.09-7.45-.24-5.16-.31-10.26-.53-15.39.45-7.2,1.39-14.27,3.27-21.36,5.11-.81,0-.78-.44-.43-1,.43-.25,1.09-.68.75-1-.55-.6-.88.24-1.26.56-.36-2.08-.8-4.16.34-6.16h-.1Z"/><path class="cls-3" d="M130.13,20.33c-.34,1-.14,2.12-.63,3.13-.25.49-.25,1.18.69,1.12.16.3,1.13-.66.77.79-.67,2.65.15,3.55,2,3.22a22.51,22.51,0,0,0-1.5,3.33c-.16.56-1.92,1.65.32,2,.5.08.09.74-.14,1.07-.48.7-1.16,1.3-1,2.28a2.32,2.32,0,0,1-.38.06c-.55-.56-.93-1.14-1.69,0-1.34,1.93,1.14,1,1.21,1.75v1.78l0,.53-.84-1c0-.34.11-.7-.33-1.08l-.09,1.08c-.11,1-.22,2-.32,3,0,1.47,0,2.95,0,4.43L128,51.36l-.43,0V44.83h-.35v5.65l-1.49,0c.12-.63.27-1.26.34-1.89,0-.15-.22-.39-.39-.46a.71.71,0,0,0-.53.11c0,.92-.77,1.94.31,2.73l.46.53c-.68,2.75-1.58,5.51.49,8.19v-7c.86,2.86,0,5.85.8,8.74v-7.1l.85,1.37c-.57,3.08-.29,6.19-.51,9.29-1.23,1.45.87,1.36,1,2.18-.21,2-1.48,3.65-1.44,5.67-.79-1.07-.06-2.35-.53-3.61-.53.57.09,1.76-1,1.87,1.55-5.44-.84-10.32-2.18-15.35a10.55,10.55,0,0,1-.24-1.27c.68-.45.66-1.24.93-1.9,0-1.37,0-2.74.07-4.11,0-.58.1-1.45.69-1.42,2.73.14,1.31-1.55,1.26-2.63,1-.45.48-1.16.3-1.81s-.6-1.46-.09-2.23c0-1.28.43-2.66-.87-3.62.3-1,.76-1.62,1.79-.69.37.32.77.52,1.06,0s-.16-.69-.43-.9c-.77-.59-1.86-1-1.45-2.3-.2-1-.41-1.93-.61-2.9.65,0,.94-.58,1.34-1,.34,1.53.51,3.14,1.59,4.43a1.64,1.64,0,0,0,.63-1.84c-.77-3.2-.73-6.64-3-9.38-1.15-1.38-.09-2.2,1.06-2.86.42.09,1-1.17,1.3.21C128.82,20.21,129.57,20.22,130.13,20.33Zm-5.4,31.94h.11l0-.18Z"/><path class="cls-3" d="M128.58,121.68l-1.22-.26,0-.15,0,.15c-1.14,2-.7,4.08-.34,6.16l.51.49c-.35.54-.38.94.43,1,0,.25,0,.5,0,.75-.55.13-1.33.19-1.07,1,.16.49.71.29,1.07-.05,6.77-.33,13.47.59,20.18,1.31.13.21.26.24.42,0l3.08.37v.64c-6.89-.32-13.7-1.8-20.66-1.31,5,.8,9.93,1.48,14.86,2.43,4.09.8,8.23,1.52,12,3.37-1.49.48-2.69-.51-4-.76a.85.85,0,0,0-1-.37l-.77-.08-.59-.36-1.17-.08-.59-.35-1.16-.08a.86.86,0,0,0-1-.36l-1.21-.1-.58-.34-1.61-.09-.59-.35-2-.11c-.12-.2-.26-.24-.42,0l-5.28-.82c-.26-.4-.54-.44-.85-.06l-2.66-.39c-.12-.21-.26-.25-.42-.05l-1.77-.37c-.12-.22-.26-.27-.43,0-1.1.14-2-1.32-3.2-.4H126l-1,0-.89-.44-.34,0-.52-.1v-.65c.8-.82.19-1.11-.51-1.36l-1.69-.55c0-.31,0-.61,0-.91a.85.85,0,0,0,0-.32l1,0c.61.19.83,1,1.64,1,.24-1.32-.64-2.36-.83-3.56l.47-.48c.45.37.29,1.22,1.29,1.64,0-1.35,0-2.43,0-3.51,0-.6.27-1.45-.69-1.57-.73-.09-1.68-.39-1.92.81l-.47.54c-.55,0-.75.3-.81.77-.06,0-.17.09-.16.11a1.27,1.27,0,0,0,.13.32c.08,1-.17,2.12.48,3.07l-.48.5-2.7-2.59.3-.46c.67.38,1.42,1.64,1.6-.44.16-1.87,1-3.43,3.31-3.56,1.92-.1-.49-1.73.7-2.15.21,0,.23.55.57.21l-.54-.25c-1.25.39-1.66-.77-2.41-1.3l1.83,0,.17.22s0-.1,0-.13a.54.54,0,0,0-.16-.1l.12-1,1.59,1.05V100.82c0-1.17-1.1-.93-1.71-1.32l0-.57c.48.09,1.23.39,1.4,0,.3-.71-.65-.76-1-1.15l.54-.43c.28,0,.7,0,.69-.29-.1-2.79.57-5.65-.63-8.35,1.22-.69.52-1.84.68-2.79l.08-3,.47,0c0,1.18.08,2.37.11,3.55-.12,6.18.31,12.35,0,18.55-.41,8.29,0,16.62-.95,24.9,0,.42-.12.95.46,1.05.77.13.74-.5.79-1,.11-1.3.29-2.6.3-3.91.07-7.08.1-14.16.15-21.24l.71.42c0,2.07-.08,4.15,0,6.22,0,.61-.45,1.47.59,1.78.25.5-.41,1,.07,1.57,1.46-.55,2.58-2,4.37-1.48-.74.88-1.88,1.06-2.83,1.48-2.15,1-2.24,2.59-2.31,4.6C126.9,120.9,128.83,120.41,128.58,121.68Z"/><path class="cls-3" d="M127.09,105.26l-.71-.42q-.1-9.18-.2-18.36c0-.93.07-1.86.09-2.79,0-.49.13-1.13-.74-.75l-.48,0c0-4-.28-7.92.51-11.84,1.12-.11.5-1.3,1-1.87.47,1.26-.26,2.54.53,3.61.22.83-.32,1.7.19,2.72,1.63-1.32,2.89-3,4.59-4.06,2.71-1.77,5.19-.91,6.26,2.23h0l-1.24.36c-.32-1.83-1.82-3.22-3.12-2.68a7,7,0,0,0-3.54,2.77.71.71,0,0,0-.15.08s0,.07,0,.11l.17-.19c2.22-.85,4.45.37,6.67-.07l-.34,1.4,0,0c-2.64-.69-5.28-1.48-7.54,1a3.34,3.34,0,0,1-1.07.75,2.25,2.25,0,0,0-1.31,2.48c.13,3,.2,6,.23,9,0,3.72,0,7.43,0,11.15l.69,0,1.83-3.68c.4.8.83.43,1.26,0,.21,1.5,1.08.47,1.6.36,4.11-.88,8-2.8,12.34-2.61.68,0,1.85.52,2-.58.1-.77-.89-1.23-1.59-1.63a2.75,2.75,0,0,0-2.11-.06,43.22,43.22,0,0,0-12.25,4.52c0-.79-.19-1.71,1.13-1.49,3.64-2.11,7.66-3.1,11.72-4a3,3,0,0,1,2.11.36c1,.57,2.26,1.3,2,2.58S146,94.78,145,94.72c-4.43-.24-8.41,1.57-12.55,2.64a2.08,2.08,0,0,0-1.12.63C129.61,100.25,127.77,102.43,127.09,105.26Z"/><path class="cls-3" d="M112.29,82.32c1.92-2.22,4.46-3.11,7.45-3.37-2.47-5.87-4.91-11.61-12-13.08,1-.23,2.33.76,2.87-.88l2.37,1.59c.22.15.42.45.69.08-.27.13-.19.31-.05.46s.21,0,.31,0l-.29-.45-.38-.49L112.33,65c1.41-.21,1.48-.95.76-2a1.42,1.42,0,0,1-.38-1.15c1-.51,2.18-.16,3.07-.91l1.34.1,0,0c-1.73,3.92-.48,7.54,1.13,11.76.45-2.6,1-4.5,2.46-6a3.79,3.79,0,0,1,1.69-1.33,1.71,1.71,0,0,1,1.83.3c.58.61.25,1.21,0,1.81A7.86,7.86,0,0,1,121.84,70c-2.64,2.23-2.91,3.48-1.48,6.57a10.78,10.78,0,0,1,1.25,3.47c-1.07.6.53,1.83-.58,2.41-1.68-.74-2.92.35-4.15,1.14a41.9,41.9,0,0,0-3.42,2.71c-.82.66-1.78,1.32-2.76.63-1.14-.81-.21-1.85.09-2.74a5.83,5.83,0,0,1,.83-1.26c.11.15.21.31.31.46a6.1,6.1,0,0,0-.28.82c-.13.67-1,1.43-.27,2s1.32-.37,1.86-.76c1.7-1.23,3.17-2.76,5.13-3.63.51-.22,1.56-.13,1.22-1.14s-1.17-.81-2-.62c-1.83.42-3.21,1.64-4.78,2.51Zm7.33-11.47c1.34-1.38,2.65-1.92,3.35-3.14.22-.38.91-.76.36-1.26a1.06,1.06,0,0,0-1.53.26A7.89,7.89,0,0,0,119.62,70.85Z"/><path class="cls-3" d="M136.64,75.45l0,0c1.46.23,1.58-.72,1.58-1.78h0c1.88-.41,2-1.58,1.32-3.08l0,0,1.32-.12a2.45,2.45,0,0,0,2.79.63c1.17-.35.16-1.44.27-2.19.68,0,.43.86.91,1.06.26.24.38.1.44-.17.24-.33.48-.65.71-1l.66,0,.83.35-.44.55-.26.23.27,0-.06-.29c.54.44.81.19.94-.38l0,.06c1.09.27,1.73-.61,2.56-1a1,1,0,0,0,.5,1c-.65,1.26-2,1.42-3.1,1.76-3.58,1.06-5.56,3.71-7.2,6.78-.05.15-.11.3-.16.46H141a39.2,39.2,0,0,0,5-4.23c.58,1.78,1.85,1.47,3.16,1-3.27,1.53-6.52,3.08-9.1,5.71l-.19-.19-1.4-1.63c-1.1,1-.73,2.24-.84,3.34l-.17.24.24-.17a3,3,0,0,1,.42,0,1.7,1.7,0,0,0,.24.22l-1.76,2.63-.28-.25c.32-.92.71-1.88-.93-1.78C135.59,80.64,137,78.19,136.64,75.45Z"/><path class="cls-3" d="M129.82,39.93c0-.29,0-.57,0-.86h.46l.2,0,.21,0,.37.46-.29,2.6a5.55,5.55,0,0,0,0,5c0,.48-.27,1,.18,1.59.9-2.36,3.08-3.86,3.54-6.36.86.25,1.23,1,1.68,1.66-.22.6-.75.78-1.53.83.7.86,2.23-.18,2.24,1.31a1.61,1.61,0,0,1-1.38,1.68l-2.61,1.26a3.61,3.61,0,0,0-2,1.86q-1.44,2.36-2.87,4.71l-.85-1.37v7.1c-.85-2.89.06-5.88-.8-8.74-.19-.39.13-1-.49-1.22l-.46-.53.27-.49,1.49,0,.35.84.43,0,.2,1.71c1.22-1.87.13-3.55.16-5.19l.18-4.32c.88-.46,1.58-1,1.24-2.18l0-.53C130.28,40.55,130.3,40.24,129.82,39.93Z"/><path class="cls-3" d="M124.07,52.56c-.27.66-.25,1.45-.93,1.9-.19-.53-.43-1.06-.57-1.6-.89-3.43-2.57-6.22-6-7.6a1.85,1.85,0,0,1-.87-.92c.9-.28,1.19-1.19,1.82-1.75.66.77.26,2.24,1.79,2.56.22-2.33-1.13-4.11-2-6-.26-.58-1.08-1.13-.21-1.86,1,.09,1.78-.16,1.75-1.4.54.17,1,.44.82,1.11-.53.59-.64,1.15.11,1.65a15.56,15.56,0,0,0,2.3,8.3c.74-1.21.08-2.33-.08-3.46.81-.21,1.65-.84,2.4.12-1,1.43-.56,3.22-1.17,4.73A3.71,3.71,0,0,0,124.07,52.56Z"/><path class="cls-3" d="M132.91,49.11l2.61-1.26c.21.69.42,1.37.62,2.06L136,51a1.18,1.18,0,0,0-.76,1s.15.14.24.21l.59-.87c.63-.08.56,1.53,1.71.57.64-.54.29.58.55.84-1.68,1.33-3.3,2.75-5.06,4a3.12,3.12,0,0,0-1.66,3l0,0c-.69.15-.46.69-.47,1.13a4.05,4.05,0,0,0-1.82,4.56l-.75,1.78c-.14-.82-2.24-.73-1-2.18,1.38-3.28,2.65-6.62,4.17-9.82A11.69,11.69,0,0,0,132.91,49.11Zm.52,5.93a3.09,3.09,0,0,0,1.78-2.37C134,53,133.62,53.77,133.43,55Z"/><path class="cls-3" d="M132.09,113.35c-1.79-.54-2.91.93-4.37,1.48-.48-.52.18-1.07-.07-1.57l.63-.54a1.14,1.14,0,0,0,1.2-.39c1-.18,1.58-1,2.19-1.72a12.5,12.5,0,0,1,6-3.77c.92-.26,2-.64,2.5.5s-.23,1.62-1.07,2.09a2.94,2.94,0,0,0-.61.61c-.8.34-1.82.36-2.06,1.48v-.06c-.42-.08-.79-.06-.89.47v0c-.54-.09-1.09-.2-1.32.51l0,0a1.86,1.86,0,0,0-2.23.9Z"/><path class="cls-3" d="M123.37,115.71l-.12,1h0l-1.83,0h0c0-1-.64-1-1.35-.86l0,0a1.52,1.52,0,0,0-1.77-.9h0a1,1,0,0,0-1.33-.9h0c0-.35-.14-.48-.46-.45l0,0c0-.33-.15-.47-.46-.46l0,0c0-.32-.14-.48-.46-.46l0,0c0-.31-.11-.49-.45-.46h0c.15-.45.08-.79-.46-.88v0l0-.92-.34-.59c-.12-1,.49-1.21,1.31-1.22l0,0c.15.72.54,1.09,1.32.92h0c0,.34.13.49.46.45v0c0,.35.14.47.46.45h0l.47.69.12,0v.13c.53.21,1,.65,1.62.45l0,0c.09.54.43.62.88.48h0q0,.51.45.45h0a1,1,0,0,0,.89,1.33h0c-.14.44-.09.79.46.89v0c-.14.45-.08.8.46.89Z"/><path class="cls-3" d="M130.79,47.14a5.55,5.55,0,0,1,0-5c.3,0,.3,1.43.82.23a10.15,10.15,0,0,0,.91-3.34c.06-.92-.24-2.19,1.36-2.43.24,0,.2-1.21,1.1-.65a1.23,1.23,0,0,1,.34,1.9C133.33,40.71,132.53,44.15,130.79,47.14Z"/><path class="cls-3" d="M130.13,20.33c-.56-.11-1.31-.12-1.44-.75-.29-1.38-.88-.12-1.3-.21-.18-.47-.38-.93-.55-1.41-.25-.72-.8-1.44,0-2.18a1.38,1.38,0,0,1,1.39-.36c1,.28.61,1.18.85,1.93.57-1,1.17-2.08,2.43-1.24s.32,1.67-.15,2.45C131,19.18,130.55,19.74,130.13,20.33Z"/><path class="cls-3" d="M150.92,69.39a1,1,0,0,1-.5-1v0l.45-.46,0,0a.46.46,0,0,0,.47-.46l0,0c.37,0,.78,0,.9-.47l0,0c.5,0,1.05.13,1.35-.46h0c.37,0,.79.06.9-.45l0,0c.52,0,1.1.14,1.42-.49,1.63-.57,3.11-1.85,5.31-1C158.24,67.72,154.64,68.68,150.92,69.39Z"/><path class="cls-3" d="M129.31,65.37a4.05,4.05,0,0,1,1.82-4.56c.12-.39,1.07-.44.47-1.13l0,0c1.34.39,2-1,3.2-1.15.71-.08,1.39-.41,2.1-.53a1.32,1.32,0,0,1,1.6.79c.28.8-.34,1.22-1,1.45-1,.36-2.07.63-3.11.92C132.09,61.84,130.05,62.81,129.31,65.37Zm3.58-4.82a7.92,7.92,0,0,0,5-1.7c-2.12.14-3.68.49-4.93,1.72a.69.69,0,0,0-.15.07s0,.07,0,.1Z"/><path class="cls-3" d="M131.86,94.61c-1.32-.22-1.14.7-1.13,1.49h0c-.43.41-.86.78-1.26,0,.82-2.21,1.33-4.54,2.69-6.53,1.52-.43,1.4-1.58,1.2-2.76,1.25-.43.79-2,1.69-2.61a3.68,3.68,0,0,1-.21,1.85c-.3.88.31.44.64.37l.24.25C134.48,89.32,132.21,91.5,131.86,94.61Z"/><path class="cls-3" d="M138.52,110a2.94,2.94,0,0,1,.61-.61c.84-.47,1.54-1.09,1.07-2.09s-1.58-.76-2.5-.5a12.5,12.5,0,0,0-6,3.77c-.61.68-1.15,1.54-2.19,1.72l-.63-.08c2.31-2.62,4.71-5.17,8.26-6.07,1.29-.32,2.93-1.35,3.83.54s-.44,2.92-1.93,3.73Z"/><path class="cls-3" d="M126.4,32.89c-.41,1.33.68,1.71,1.45,2.3.27.21.64.55.43.9s-.69.28-1.06,0c-1-.93-1.49-.33-1.79.69a.56.56,0,0,0-.42-.07c-.86-.6-1.57.34-2.38.23-.56-.25-1.26-.43-.64-1.28a2,2,0,0,0,1.93.18l-1.08-.69c-.63-1.14-1-2.22,1-1.55C125,34,125.31,32.15,126.4,32.89Z"/><path class="cls-3" d="M77.21,126.74a41.52,41.52,0,0,0-8.08,2.57c-.65.27-1.28.73-2.07.46,2.49-1.9,5.46-2.68,8.41-3.38a63.46,63.46,0,0,1,11.81-1.62v.66l-3.09.36c-.31-.39-.6-.35-.85.06l-2.08.09c-.52,0-1.06-.17-1.43.36l-1.62.09A.87.87,0,0,0,77.21,126.74Z"/><path class="cls-3" d="M113.09,63c.72,1,.65,1.77-.76,2l-2.25-1.27a5.68,5.68,0,0,0-1.86-2.55,1.3,1.3,0,0,1-.3-1.17c.19-.4.75-.21,1.18-.13a4.23,4.23,0,0,1,2.21,1.62A4.67,4.67,0,0,0,113.09,63Z"/><path class="cls-3" d="M189.33,127.26l-1.19-.09-.59-.35-1.6-.08a.89.89,0,0,0-1-.35l-1.62-.1a.87.87,0,0,0-1-.34l-2.07-.11c-.12-.21-.26-.24-.42,0l-2.64-.38v-.65a82,82,0,0,1,17.36,3.34c.71.22,1.76.13,2,1.22-1.25,0-2.29-.66-3.42-1l.08.05-2.86-.73A.87.87,0,0,0,189.33,127.26Z"/><path class="cls-3" d="M133,28.59c-1.87.33-2.69-.57-2-3.22.36-1.45-.61-.49-.77-.79.26-1,1-1.1,1.87-1s.82.84.83,1.52a1.19,1.19,0,0,0,.32.74C134.71,27.26,134.72,27.28,133,28.59Z"/><path class="cls-3" d="M124.23,97.34l-.54.43c-.62-.36-1.24-.73-1.87-1.08a3.74,3.74,0,0,0-4.76.49c-1.63,1.42-2.32,2.91-1.15,4.91l-.38.48a3.18,3.18,0,0,1-.46-4.48c1.72-2.51,3.94-3.46,6-2.62A9.42,9.42,0,0,1,124.23,97.34Z"/><path class="cls-3" d="M147.38,69.22l-.83-.35c0-.58-.05-1.17-.07-1.76l0,0c.32,0,.44-.17.45-.46l0,0c.49-.13.53-.48.47-.89l0,0a.44.44,0,0,0,.46-.46l0,0a.9.9,0,0,0,1.05-.5c.89-.59,2.15-1.47,2.81-.48s-.79,1.82-1.53,2.49-2.25,1-2.25,2.53l0-.06Z"/><path class="cls-3" d="M164.5,119.27c-1.47.36-2.64-.64-4-.86a.87.87,0,0,0-1-.35,76.94,76.94,0,0,0-10.41.27c-.28-.22-.56-.44-.83-.67,4.62-.38,9.24-.8,13.8.44C162.92,118.32,163.92,118.4,164.5,119.27Z"/><path class="cls-3" d="M143.83,69c-.11.75.9,1.84-.27,2.19a2.45,2.45,0,0,1-2.79-.63c-.49-.51-.93-.45-1.32.12l0,0c-.77-.48-1.15-1.1-.5-1.91s1.24-1.08,2-.29S143,68.3,143.83,69Z"/><path class="cls-3" d="M115.79,131.17l3.07,0V132l-2.91.55c-.2.12-.4.24-.59.37l-.93-.06c.54-1.14-.36-1-1-1-2.87-.12-5.75-.22-8.62-.32.73-.74,1.87.07,2.58-.7l7.49.37C115.2,131.58,115.49,131.59,115.79,131.17Z"/><path class="cls-3" d="M121,82.49c1.11-.58-.49-1.81.58-2.41l0,.07.29.59c1.09,1.69,1.42,3.83,3.09,5.17-.16,1,.54,2.1-.68,2.79Z"/><path class="cls-3" d="M122.63,36.9c.81.11,1.52-.83,2.38-.23-1,1.74.75,2.5,1.29,3.69-.51.77-.12,1.5.09,2.23s.72,1.36-.3,1.81c-.64-.95-.58-2.25-1.53-3L124,39.91C124.52,38.46,122.43,38.22,122.63,36.9Z"/><path class="cls-3" d="M110.56,65c-.54,1.64-1.9.65-2.87.88a3.36,3.36,0,0,1-3.54-1.82c.31,0,.61-.07.68-.45l0,0c1.79-.33,3.37.67,5.08.85Z"/><path class="cls-3" d="M117.49,42.59c-.63.56-.92,1.47-1.82,1.75a1.9,1.9,0,0,1-1.61-1.55c-.14-1,.09-2.06,1.15-2.29C116.73,40.17,117.06,41.52,117.49,42.59Z"/><path class="cls-3" d="M124,39.91l.52,1.45a3.93,3.93,0,0,1-.18,2.2c-.75-1-1.59-.33-2.4-.12C121,40.84,121.69,39.59,124,39.91Z"/><path class="cls-3" d="M96.5,131.59l1.75-.39v.74A103.07,103.07,0,0,0,88,134.59c-.47.15-1,.65-1.59.13,3-1.83,6.38-2.19,9.64-3.08C96.24,131.86,96.38,131.82,96.5,131.59Z"/><path class="cls-3" d="M136.19,44c-.45-.67-.82-1.41-1.68-1.66,1.21-2.36,2.22-2.76,3.2-1.16S137.47,43.5,136.19,44Z"/><path class="cls-3" d="M61.85,143.42l4.68-1.52c.87.66,0,.74-.33.85-3.42,1.16-6.83,2.41-10.48,2.69v-.69l2-.08.58-.35,2.92-.53Z"/><path class="cls-3" d="M136,51l.18-1.13a7,7,0,0,0,.82-.14c1.08-.31,2.21-.59,2.72.76.44,1.19-.38,1.81-1.39,2.22-.26-.26.09-1.38-.55-.84-1.15,1-1.08-.65-1.71-.57A.2.2,0,0,1,136,51Z"/><path class="cls-3" d="M127.13,29c-.4.39-.69.93-1.34,1h0c0-.32,0-.8-.14-.91-.37-.25-.3.27-.45.43-.16-.78-1.4-1.47-.61-2.2.45-.44.33-1.91,1.46-1.3S127.35,27.81,127.13,29Z"/><path class="cls-3" d="M95.63,125l-6.61.37-.83-.66c1.71-.13,3.43-.36,5.14-.36a2.86,2.86,0,0,0,3-1.65l.3.28c0,.37-.44.7-.14,1.12Z"/><path class="cls-3" d="M142.54,119.29c-1.48.39-2.73,1.57-4.42,1.29,2.74-2,6-2.55,9.24-2.83v.66l-2.46.08-.6.36-1.17.07Z"/><path class="cls-3" d="M116.21,58.35c.49-.53,1.16-1.3,1.71-.46s1.9.85,1.36,2.17c-.43,1-1.26,1.07-2.18.93l0,0a6.08,6.08,0,0,1,.3-2.07c.24-1.24-.65-.39-1-.44Z"/><path class="cls-3" d="M115.78,60.92c-.89.75-2.11.4-3.07.91a1.85,1.85,0,0,1-.36-1.68c1.13,0,2.14-.9,3.33-.44C115.71,60.11,115.75,60.52,115.78,60.92Z"/><path class="cls-3" d="M96.35,122.68a9.77,9.77,0,0,1,6.72-2.33V121l-2.08.08a.86.86,0,0,0-1,.38L96.65,123Z"/><path class="cls-3" d="M106.15,120.38a18.92,18.92,0,0,1,6.85.83l-.38.43-1.22-.17c-.25-.4-.53-.46-.85-.07l-4.4-.36Z"/><path class="cls-3" d="M120.12,100.21a25.85,25.85,0,0,0-1.73,2.18c-.91,1.44-1.83,1.38-2.86.18l.38-.48c.74.43,1.35.63,2-.33a11.87,11.87,0,0,1,1.78-1.84Z"/><path class="cls-3" d="M79,137.35a12.26,12.26,0,0,1,6.17-2.21A12.08,12.08,0,0,1,79,137.35Z"/><path class="cls-3" d="M115.68,59.71c-1.19-.46-2.2.42-3.33.44,0-1.92,0-3.84.05-5.75l.21,0c.43,1.56-.53,3.31.62,4.77.5,0,1,0,1.26-.54l.91.15.49.34Z"/><path class="cls-3" d="M68,141.73a9.38,9.38,0,0,1,5.72-2.21A10.41,10.41,0,0,1,68,141.73Z"/><path class="cls-3" d="M131.55,124.51l-.6.79,0-.09a3,3,0,0,1-2.18,1.24c-.25-1,.31-1.63.6-2.33.49-.32.41-.82.41-1.3a2.11,2.11,0,0,1,.23-.19C130.57,123.24,129.56,125.07,131.55,124.51Z"/><path class="cls-3" d="M82,169.28c.07.61.66,1.11.41,1.79-1.68-1.31-1.32-3.11-1.18-4.86H82v2.63c0,.05-.14.11-.13.14A2.29,2.29,0,0,0,82,169.28Z"/><path class="cls-3" d="M112.61,54.43l-.21,0c0-.68.08-1.52.79-1.54,1,0,.87.93.9,1.63-.35,1.3.52,2.8-.62,4a9.15,9.15,0,0,0,.1-4C113.4,53.15,112.94,54.12,112.61,54.43Z"/><path class="cls-3" d="M115.86,108.73c-.82,0-1.43.22-1.31,1.22l-.06.58-.23.18a11.79,11.79,0,0,1-.3-1.64c0-.55-.09-1.3.67-1.34C115.17,107.71,115.92,107.83,115.86,108.73Z"/><path class="cls-3" d="M175.88,125.35,172.8,125v-1.29l.2-.17a5.36,5.36,0,0,0,3.3,1.15Z"/><path class="cls-3" d="M65.78,130.21c-.78,1.41-2.19,1.52-3.54,1.75A4.72,4.72,0,0,1,65.78,130.21Z"/><path class="cls-3" d="M107.43,130.78c-.71.77-1.85,0-2.58.7h-1.8l-.84-.7Z"/><path class="cls-3" d="M113.47,58.46c1.14-1.17.27-2.67.62-4,.68,1.34.2,2.79.4,4.17-.26.54-.76.55-1.26.54C113.22,58.93,113.15,58.63,113.47,58.46Z"/><path class="cls-3" d="M102.21,130.77l.84.7-3.91.31v-.64Z"/><path class="cls-3" d="M90.35,174.57v.7c-1.38-.19-2.86,0-4-1.13l1.35,0,.58.36Z"/><path class="cls-3" d="M52.16,139.43c-.1,1.13-.21,2.26-.31,3.39l-.06.57-.15.13C51,142.06,50.75,140.63,52.16,139.43Z"/><path class="cls-3" d="M106.15,120.38V121h-3.08v-.68A7.61,7.61,0,0,1,106.15,120.38Z"/><path class="cls-3" d="M109.72,64.06c.06.13.11.27.17.41-1.71-.18-3.29-1.18-5.08-.85C106.55,62.55,108.11,63.67,109.72,64.06Z"/><path class="cls-3" d="M123.29,98.93l0,.57c-1,0-2-.27-2.88.47l-.29-.49C121,98.34,122.12,98.52,123.29,98.93Z"/><path class="cls-3" d="M118.83,35.84c0,1.24-.72,1.49-1.75,1.4C117.54,36.62,117.32,35.15,118.83,35.84Z"/><path class="cls-3" d="M138.52,110l.49.41a4,4,0,0,1-2.55,1.07C136.7,110.4,137.72,110.38,138.52,110Z"/><path class="cls-3" d="M167.16,120.56a2.4,2.4,0,0,1-2.67-1.3A2.76,2.76,0,0,1,167.16,120.56Z"/><path class="cls-3" d="M62.27,131.94a2.62,2.62,0,0,1-2.65,1.34A2.68,2.68,0,0,1,62.27,131.94Z"/><path class="cls-3" d="M83.73,160c-.12,1-.14,2.13-1.31,2.66C82.44,161.59,82.6,160.57,83.73,160Z"/><path class="cls-3" d="M96,143.77a2.58,2.58,0,0,1-1.79,1.8A1.74,1.74,0,0,1,96,143.77Z"/><path class="cls-3" d="M82.43,162.67c.35,1-.22,1.78-.4,2.66l-.59,0A3.63,3.63,0,0,1,82.43,162.67Z"/><path class="cls-3" d="M76.79,138.23c.44-1,1.3-1,2.22-.89A1.84,1.84,0,0,1,76.79,138.23Z"/><path class="cls-3" d="M55.72,144.75v.69a2.72,2.72,0,0,1-1.76,0v-.69Z"/><path class="cls-3" d="M119.76,38.6c-.75-.5-.64-1.06-.11-1.65C120.26,37.46,120.09,38,119.76,38.6Z"/><path class="cls-3" d="M113.14,133.26a1.94,1.94,0,0,1-2.22.89A1.79,1.79,0,0,1,113.14,133.26Z"/><path class="cls-3" d="M132.05,113.28a1.86,1.86,0,0,1,2.23-.9A1.82,1.82,0,0,1,132.05,113.28Z"/><path class="cls-3" d="M108.75,135c-.26.95-1,1.05-1.77.88A1.46,1.46,0,0,1,108.75,135Z"/><path class="cls-3" d="M75,139.08c.27-1,1-1,1.79-.87C76.5,139.07,75.8,139.14,75,139.08Z"/><path class="cls-3" d="M84.61,158.28a1.31,1.31,0,0,1-.9,1.77A1.37,1.37,0,0,1,84.61,158.28Z"/><path class="cls-3" d="M122.84,35.11l1.08.69a2,2,0,0,1-1.93-.18C122,35,122.51,35.21,122.84,35.11Z"/><path class="cls-3" d="M147.36,118.41v-.66l.91-.09c.27.23.55.45.83.67Z"/><path class="cls-3" d="M120.12,115.85c.71-.12,1.37-.16,1.35.86C120.86,116.68,120.27,116.61,120.12,115.85Z"/><path class="cls-3" d="M118.38,115a1.52,1.52,0,0,1,1.77.9A1.34,1.34,0,0,1,118.38,115Z"/><path class="cls-3" d="M146.48,67.11c0,.59,0,1.18.07,1.76l-.66,0C145.93,68.25,145.82,67.55,146.48,67.11Z"/><path class="cls-3" d="M88.19,124.69l.83.66-1.73.08v-.66Z"/><path class="cls-3" d="M170.65,122.32a1.5,1.5,0,0,1-1.77-.9A1.38,1.38,0,0,1,170.65,122.32Z"/><path class="cls-3" d="M175.88,125.35l.41-.68.9.1v.65Z"/><path class="cls-3" d="M172.26,123.73c-.37-.23-.82-.4-.74-1,.7-.16,1,.38,1.47.76l-.2.17Z"/><path class="cls-3" d="M117.07,114.08a1,1,0,0,1,1.33.9A1.12,1.12,0,0,1,117.07,114.08Z"/><path class="cls-3" d="M136.64,85.33l-.91,1.32-.24-.25a1.5,1.5,0,0,1,.87-1.32Z"/><path class="cls-3" d="M120.22,111.8c-.63.2-1.09-.24-1.62-.45C119.45,110.4,119.83,111.12,120.22,111.8Z"/><path class="cls-3" d="M54,144.75v.69c-.54-.05-1.13,0-1.34-.68Z"/><path class="cls-3" d="M56.12,135.46a1,1,0,0,1-1.31.91C55.05,135.77,55.38,135.32,56.12,135.46Z"/><path class="cls-3" d="M52.22,143.41c.23.42.64.79.4,1.35-.7-.12-.85-.67-1-1.24l.15-.13Z"/><path class="cls-3" d="M103.05,138.11c-.12.78-.58,1-1.33.88A1.16,1.16,0,0,1,103.05,138.11Z"/><path class="cls-3" d="M122.42,114a1,1,0,0,1-.89-1.33A1.12,1.12,0,0,1,122.42,114Z"/><path class="cls-3" d="M91.64,148.2a1,1,0,0,1-.91,1.32C90.56,148.75,91.08,148.47,91.64,148.2Z"/><path class="cls-3" d="M117.14,109.63c-.78.17-1.17-.2-1.32-.92C116.64,108.48,116.88,109.06,117.14,109.63Z"/><path class="cls-3" d="M116,122.59l1.31.91-.3.34a2.33,2.33,0,0,1-1.32-.87Z"/><path class="cls-3" d="M85.93,156.08c.15.74-.1,1.21-.88,1.34A1.11,1.11,0,0,1,85.93,156.08Z"/><path class="cls-3" d="M81.44,165.29l.59,0c0,.3,0,.59-.07.89h-.72A.89.89,0,0,1,81.44,165.29Z"/><path class="cls-3" d="M99.13,131.14v.64l-.89.16v-.74Z"/><path class="cls-3" d="M125.21,29.51c.15-.16.08-.68.45-.43.17.11.1.59.14.91Z"/><path class="cls-3" d="M85.11,135.16c.27-.69.8-.59,1.34-.45C86.17,135.35,85.75,135.57,85.11,135.16Z"/><path class="cls-3" d="M134.24,112.4c.23-.71.78-.6,1.32-.51C135.27,112.44,134.87,112.72,134.24,112.4Z"/><path class="cls-3" d="M114.46,132.82c-.26.69-.79.6-1.34.45C113.41,132.66,113.82,132.39,114.46,132.82Z"/><path class="cls-3" d="M67.1,129.75c-.25.7-.78.62-1.33.47C66.08,129.68,66.48,129.4,67.1,129.75Z"/><path class="cls-3" d="M155.78,65.76c-.32.63-.9.46-1.42.49A1.57,1.57,0,0,1,155.78,65.76Z"/><path class="cls-3" d="M73.71,139.54c.25-.72.78-.62,1.33-.47A.91.91,0,0,1,73.71,139.54Z"/><path class="cls-3" d="M153.51,66.67c-.3.59-.85.43-1.35.46A1.23,1.23,0,0,1,153.51,66.67Z"/><path class="cls-3" d="M113,121.21l1.25.48-.33.41-1.3-.46Z"/><path class="cls-3" d="M111,134.13c-.25.7-.77.64-1.33.48C109.93,134.07,110.33,133.78,111,134.13Z"/><path class="cls-3" d="M171.52,122.77c-.45.15-.79.08-.89-.46C171.13,122.08,171.41,122.26,171.52,122.77Z"/><path class="cls-3" d="M130.7,39.06a1.1,1.1,0,0,1,0-.36c.47.12.43.46.34.82Z"/><path class="cls-3" d="M154.38,66.23c-.11.51-.53.44-.9.45C153.6,66.18,154,66.25,154.38,66.23Z"/><path class="cls-3" d="M85.06,157.41c.14.45.08.79-.46.88C84.38,157.81,84.55,157.52,85.06,157.41Z"/><path class="cls-3" d="M52.62,138.56c.13.45.07.8-.47.88C51.91,138.94,52.17,138.7,52.62,138.56Z"/><path class="cls-3" d="M147.36,65.8c.06.41,0,.76-.47.89A.73.73,0,0,1,147.36,65.8Z"/><path class="cls-3" d="M148.83,64.88a.9.9,0,0,1-1.05.5A1,1,0,0,1,148.83,64.88Z"/><path class="cls-3" d="M86.8,154.77c.15.46,0,.78-.47.89C86,155.08,86.24,154.85,86.8,154.77Z"/><path class="cls-3" d="M104.81,137.2c-.11.52-.46.59-.9.46C104,137.08,104.24,136.83,104.81,137.2Z"/><path class="cls-3" d="M103.93,137.65c-.09.54-.44.61-.89.46C103.16,137.63,103.41,137.39,103.93,137.65Z"/><path class="cls-3" d="M87.68,153.46c.16.46,0,.78-.47.89C86.84,153.77,87.15,153.56,87.68,153.46Z"/><path class="cls-3" d="M129.4,122.81c0-.3,0-.61,0-.91.49,0,.49.42.63.73a2.11,2.11,0,0,0-.23.19Z"/><path class="cls-3" d="M114.25,121.69l.9.43c-.11.13-.23.26-.34.4l-.89-.42Z"/><path class="cls-3" d="M88.57,152.15c.15.46.06.79-.48.88C87.77,152.48,88.14,152.3,88.57,152.15Z"/><path class="cls-3" d="M168.9,121.44c-.43.11-.79.08-.9-.46C168.57,120.61,168.85,120.8,168.9,121.44Z"/><path class="cls-3" d="M137.26,121c-.08.57-.45.57-.89.45C136.49,121,136.82,120.88,137.26,121Z"/><path class="cls-3" d="M133.75,123.17c-.11.52-.45.59-.9.47C132.93,123.06,133.17,122.8,133.75,123.17Z"/><path class="cls-3" d="M107,135.9c-.09.56-.45.58-.89.46C106.22,135.84,106.51,135.68,107,135.9Z"/><path class="cls-3" d="M197.4,129.77c-.45.13-.78,0-.9-.46C197.09,128.9,197.31,129.21,197.4,129.77Z"/><path class="cls-3" d="M89.89,150.4c.15.46,0,.78-.48.88C89,150.69,89.48,150.56,89.89,150.4Z"/><path class="cls-3" d="M168,121c-.43.11-.79.08-.89-.46C167.69,120.18,168,120.36,168,121Z"/><path class="cls-3" d="M138.14,120.57c-.09.57-.46.57-.89.45C137.35,120.49,137.69,120.43,138.14,120.57Z"/><path class="cls-3" d="M135.06,122.3c-.09.54-.44.61-.89.47C134.28,122.25,134.53,122,135.06,122.3Z"/><path class="cls-3" d="M123.83,118l.54.25c-.34.34-.36-.19-.57-.21Z"/><path class="cls-3" d="M123.32,115.77c-.54-.09-.6-.44-.46-.89C123.37,115,123.64,115.23,123.32,115.77Z"/><path class="cls-3" d="M59.64,133.27c-.09.55-.45.59-.89.46C58.86,133.22,59.14,133,59.64,133.27Z"/><path class="cls-3" d="M122.87,114.9c-.55-.1-.6-.45-.46-.89C122.92,114.12,123.06,114.42,122.87,114.9Z"/><path class="cls-3" d="M115.15,122.12l.82.47-.3.38-.86-.45Z"/><path class="cls-3" d="M132.87,123.62c-.09.55-.43.62-.88.47C132.12,123.63,132.37,123.38,132.87,123.62Z"/><path class="cls-3" d="M57.44,134.58c-.08.55-.43.6-.88.47C56.7,134.61,56.93,134.32,57.44,134.58Z"/><path class="cls-3" d="M128.85,112.25l.63.08a1.14,1.14,0,0,1-1.2.39Z"/><path class="cls-3" d="M121.08,112.26c-.45.14-.79.06-.88-.48C120.74,111.49,120.94,111.83,121.08,112.26Z"/><path class="cls-3" d="M135.56,111.93c.1-.53.47-.55.89-.47C136.37,112,136,112,135.56,111.93Z"/><path class="cls-3" d="M114.85,111.44c.54.09.61.43.46.88C114.81,112.21,114.58,112,114.85,111.44Z"/><path class="cls-3" d="M109.63,134.6c-.08.58-.46.55-.89.44C108.83,134.48,109.2,134.47,109.63,134.6Z"/><path class="cls-3" d="M114.89,110.54l0,.92c-.6.08-.45-.46-.6-.75l.23-.18Z"/><path class="cls-3" d="M66.85,141.7l1.18,0C67.37,142.52,67.17,142.52,66.85,141.7Z"/><path class="cls-3" d="M85.5,173.71c.43-.13.8-.13.89.44C86,174.29,85.59,174.28,85.5,173.71Z"/><path class="cls-3" d="M84.63,173.26c.44-.13.8-.09.88.46C85,173.94,84.75,173.75,84.63,173.26Z"/><path class="cls-3" d="M99.54,140.71c-.09.53-.41.64-.88.48C98.82,140.79,98.94,140.32,99.54,140.71Z"/><path class="cls-3" d="M106.12,136.35c-.09.55-.44.59-.89.45C105.35,136.3,105.66,136.17,106.12,136.35Z"/><path class="cls-3" d="M152.19,67.1c-.12.51-.53.45-.9.47C151.45,67.15,151.81,67.1,152.19,67.1Z"/><path class="cls-3" d="M101.3,139.4c-.1.53-.43.62-.89.47C100.56,139.44,100.74,139.08,101.3,139.4Z"/><path class="cls-3" d="M135.94,121.85c-.1.53-.46.59-.9.47C135.11,121.73,135.37,121.49,135.94,121.85Z"/><path class="cls-3" d="M115.7,58.7l.51-.35.16.16-.32.52Z"/><path class="cls-3" d="M115.89,59.15l-.49-.34a.36.36,0,0,1,.3-.11l.35.33Z"/><path class="cls-3" d="M104.83,63.6c-.07.38-.37.43-.68.45Z"/><path class="cls-3" d="M53.93,137.23c0,.33-.12.48-.46.45C53.38,137.28,53.53,137.13,53.93,137.23Z"/><path class="cls-3" d="M53.49,137.67c0,.33-.11.49-.45.45C53,137.75,53.09,137.57,53.49,137.67Z"/><path class="cls-3" d="M105.24,136.79c0,.35-.17.45-.47.44C104.58,136.72,104.9,136.74,105.24,136.79Z"/><path class="cls-3" d="M136.38,121.45c0,.36-.18.45-.48.44C135.72,121.37,136.06,121.42,136.38,121.45Z"/><path class="cls-3" d="M129.42,121.9l-.73,0c.08-.15.13-.39.24-.42C129.26,121.37,129.37,121.63,129.42,121.9Z"/><path class="cls-3" d="M117.29,123.5l.57.4-.43.34-.45-.4Z"/><path class="cls-3" d="M117.86,123.9l.33.3-.3.46-.46-.42Z"/><path class="cls-3" d="M134.18,122.76c0,.34-.17.45-.47.44C133.52,122.69,133.81,122.69,134.18,122.76Z"/><path class="cls-3" d="M197.86,130.22c-.31,0-.49-.12-.47-.45C197.82,129.64,198,129.74,197.86,130.22Z"/><path class="cls-3" d="M132,124.09c0,.34-.15.46-.47.44C131.37,124.05,131.69,124.07,132,124.09Z"/><path class="cls-3" d="M198.3,130.66c-.32,0-.47-.14-.47-.46C198.3,130,198.46,130.18,198.3,130.66Z"/><path class="cls-3" d="M58.76,133.73c0,.36-.21.53-.48.68C57.84,133.77,58.32,133.76,58.76,133.73Z"/><path class="cls-3" d="M116.62,113.64c.32,0,.49.1.46.45C116.74,114.13,116.49,114.08,116.62,113.64Z"/><path class="cls-3" d="M116.18,113.2c.31,0,.48.13.46.46C116.23,113.76,116,113.65,116.18,113.2Z"/><path class="cls-3" d="M58.17,134.6h-.74c0-.31.13-.56.48-.46C58,134.18,58.09,134.44,58.17,134.6Z"/><path class="cls-3" d="M115.74,112.76c.32,0,.47.14.46.46C115.76,113.35,115.61,113.2,115.74,112.76Z"/><path class="cls-3" d="M121.53,112.7q-.5.06-.45-.45C121.4,112.23,121.57,112.37,121.53,112.7Z"/><path class="cls-3" d="M115.31,112.32c.34,0,.46.15.45.46C115.29,112.93,115.26,112.67,115.31,112.32Z"/><path class="cls-3" d="M118.49,111.18l-.47-.69C118.5,110.5,118.94,110.54,118.49,111.18Z"/><path class="cls-3" d="M56.57,135.05c0,.34-.15.46-.47.44C56,135,56.25,135,56.57,135.05Z"/><path class="cls-3" d="M84.16,172.83c.31,0,.5.09.47.43C84.31,173.29,84,173.32,84.16,172.83Z"/><path class="cls-3" d="M118,110.5c-.32,0-.5-.1-.46-.45C117.92,110,118.17,110.05,118,110.5Z"/><path class="cls-3" d="M117.59,110.07c-.33,0-.49-.11-.46-.45C117.46,109.59,117.66,109.69,117.59,110.07Z"/><path class="cls-3" d="M83.72,172.39c.31,0,.48.13.46.45C83.73,173,83.55,172.87,83.72,172.39Z"/><path class="cls-3" d="M83.28,172a.4.4,0,0,1,.46.46C83.27,172.58,83.11,172.43,83.28,172Z"/><path class="cls-3" d="M82.84,171.51c.32,0,.46.15.46.46C82.82,172.14,82.68,172,82.84,171.51Z"/><path class="cls-3" d="M82.42,171.06c.33,0,.45.16.44.47C82.36,171.72,82.33,171.44,82.42,171.06Z"/><path class="cls-3" d="M120.37,100a.53.53,0,0,1-.25.24l-.48-.29.44-.44Z"/><path class="cls-3" d="M111.62,83l.51-.49.23.52-.42.43Z"/><path class="cls-3" d="M138.79,82.24l-.39.46a1.7,1.7,0,0,1-.24-.22l.44-.44Z"/><path class="cls-3" d="M121.88,80.74l-.29-.59Z"/><path class="cls-3" d="M139.69,81.37l-.45.45L139,81.6l.44-.44Z"/><path class="cls-3" d="M90.33,149.94c0,.33-.1.5-.45.46C89.86,150.08,89.94,149.87,90.33,149.94Z"/><path class="cls-3" d="M90.76,149.49c0,.32-.11.49-.45.47C90.25,149.6,90.28,149.33,90.76,149.49Z"/><path class="cls-3" d="M112.13,82.48a1.21,1.21,0,0,0,.16-.16l.51.25-.44.43Z"/><path class="cls-3" d="M92.08,147.75c0,.33-.1.5-.44.46C91.61,147.89,91.7,147.68,92.08,147.75Z"/><path class="cls-3" d="M92.52,147.31c0,.32-.11.49-.45.46C92,147.41,92.08,147.18,92.52,147.31Z"/><path class="cls-3" d="M93,146.86c0,.32-.12.49-.45.46C92.39,146.92,92.48,146.7,93,146.86Z"/><path class="cls-3" d="M93.39,146.42a.39.39,0,0,1-.46.46C92.79,146.44,92.91,146.25,93.39,146.42Z"/><path class="cls-3" d="M93.82,146c0,.31-.14.47-.45.46C93.2,146,93.35,145.81,93.82,146Z"/><path class="cls-3" d="M94.26,145.54a.41.41,0,0,1-.46.46C93.64,145.53,93.79,145.37,94.26,145.54Z"/><path class="cls-3" d="M96.46,143.35a.41.41,0,0,1-.46.46C95.83,143.34,96,143.18,96.46,143.35Z"/><path class="cls-3" d="M96.9,142.91c0,.32-.16.46-.46.46C96.26,142.9,96.43,142.75,96.9,142.91Z"/><path class="cls-3" d="M97.34,142.48c0,.32-.15.46-.47.45C96.7,142.45,96.89,142.33,97.34,142.48Z"/><path class="cls-3" d="M145.18,69.87c-.06.27-.18.41-.44.17Z"/><path class="cls-3" d="M97.78,142.05c0,.33-.15.46-.46.45C97.16,142,97.39,142,97.78,142.05Z"/><path class="cls-3" d="M54.81,136.36c0,.35-.12.48-.46.45C54.28,136.42,54.49,136.33,54.81,136.36Z"/><path class="cls-3" d="M98.22,141.62c0,.34-.14.47-.46.44C97.64,141.64,97.86,141.55,98.22,141.62Z"/><path class="cls-3" d="M98.67,141.19c0,.34-.13.48-.46.44C98.14,141.25,98.36,141.17,98.67,141.19Z"/><path class="cls-3" d="M89,151.69c0,.32-.1.5-.44.47C88.54,151.84,88.56,151.57,89,151.69Z"/><path class="cls-3" d="M87.25,154.31c0,.3-.12.49-.45.47C86.7,154.38,86.74,154.12,87.25,154.31Z"/><path class="cls-3" d="M100,140.29c0,.33-.15.46-.46.45C99.33,140.25,99.57,140.19,100,140.29Z"/><path class="cls-3" d="M86.37,155.62c0,.31-.11.49-.45.47C85.83,155.71,85.86,155.44,86.37,155.62Z"/><path class="cls-3" d="M150.86,68l-.45.46C150.37,68.11,150.51,67.93,150.86,68Z"/><path class="cls-3" d="M89.44,151.24c0,.31-.11.49-.45.47C88.9,151.32,89,151.06,89.44,151.24Z"/><path class="cls-3" d="M100.42,139.87c0,.34-.15.46-.47.44C99.82,139.86,100.1,139.84,100.42,139.87Z"/><path class="cls-3" d="M151.31,67.54a.46.46,0,0,1-.47.46C150.79,67.64,151,67.57,151.31,67.54Z"/><path class="cls-3" d="M139.24,81.82l-.45.42-.19-.2.43-.44Z"/><path class="cls-3" d="M146.91,66.67c0,.29-.13.47-.45.46C146.48,66.85,146.55,66.61,146.91,66.67Z"/><path class="cls-3" d="M140.1,80.92l-.41.45-.22-.21.44-.43Z"/><path class="cls-3" d="M88.13,153c0,.31-.11.49-.45.47C87.61,153.1,87.63,152.82,88.13,153Z"/><path class="cls-3" d="M101.73,139c0,.35-.16.46-.47.45C101.08,138.92,101.39,138.93,101.73,139Z"/><path class="cls-3" d="M53.05,138.11c0,.33-.1.49-.44.46C52.59,138.26,52.67,138,53.05,138.11Z"/><path class="cls-3" d="M147.8,65.36a.44.44,0,0,1-.46.46Z"/><path class="cls-3" d="M54.37,136.79c0,.34-.12.49-.46.45C53.82,136.84,54,136.71,54.37,136.79Z"/><path class="cls-3" d="M132.45,132.86l2.66.39.85.06,5.28.82.21.05.21,0,2,.11.59.35,1.61.09.58.34,1.21.09,1,.37,1.16.08.59.35,1.17.08.59.36.77.08,1,.37c1.35.25,2.55,1.24,4,.76l-.07,0a5,5,0,0,0,4,1.35h0c.08.58.47.56.89.44h0c.53,1.17,1.61,1.21,2.66,1.32l0,0c.29.9.94,1.07,1.77.9h0c.1.54.45.59.89.46h0c.08.56.44.59.88.46h0c0,.35.16.46.47.44l0,0c.09.54.43.61.88.47h0c0,.35.16.47.47.44l0,0a1,1,0,0,0,1.32.9h0c0,.34.15.47.47.45l0,0c0,.33.15.47.46.46l0,0c0,.31.14.46.46.45l0,0c0,.32.13.48.45.47l0,0c0,.31.11.49.45.46h0c-.15.45-.07.78.46.88v0c-.11.44-.07.79.46.9l0,0a2.2,2.2,0,0,0,.37,1.81l.39,1,.1,1.21.34.58.08,2v2.2l-.43.94v0h-1.8a.76.76,0,0,0-.42,0c-1.89.37-3.75,1.12-5.72.42a.89.89,0,0,0-.43,0c-2.43-.26-4.61-1.58-7.07-1.72l0,0c-.26-.68-.77-.63-1.33-.47h0c-.09-.56-.45-.57-.89-.45l0,0c-.1-.55-.45-.59-.89-.46h0c-.09-.55-.44-.6-.88-.46h0c0-.35-.15-.46-.47-.44l0,0c-.08-.54-.42-.62-.88-.47h0c.13-.73-.19-1-.89-.87h0c0-.34-.12-.49-.46-.45h0c0-.34-.12-.48-.45-.45v0c0-.34-.13-.47-.45-.45h0q0-.48-.45-.45v0c0-.33-.14-.47-.46-.46l0,0c0-.32-.14-.47-.46-.45l0,0a.39.39,0,0,0-.46-.46l0,0c0-.31-.15-.46-.46-.46l0,0a.41.41,0,0,0-.46-.46l0,0c-.16-.57-.38-.34-.62-.05l-.17,0-.05-.18c.27-1-.53-1.43-1.07-2a42.51,42.51,0,0,0-16.16-10.52,10.75,10.75,0,0,1-5.22-3c.25-.32.74-.65.71-.95,0-.56-.65-.35-1-.42l-.15-.44c1.2-.92,2.1.54,3.2.4l.22,0h.21l1.77.37.21.05Zm31.15,15.81c-.06-.33-.06-.69-.54-.66a.2.2,0,0,0-.14.13c0,.48.35.48.67.54a6.23,6.23,0,0,0,3.86,2.16C166,149.51,165.07,148.63,163.6,148.67Zm-2.21-1.74c.06.32.06.68.54.66a.24.24,0,0,0,.14-.14c0-.48-.35-.47-.67-.53a6.23,6.23,0,0,0-3.86-2.17C159,146.08,159.92,147,161.39,146.93Zm-10.52-6.58c.22.37.4.78.94.68a.35.35,0,0,0,.16-.3c-.2-.53-.7-.33-1.09-.39,0-1-.82-1.32-1.54-1.63a40.29,40.29,0,0,0-5.78-1.9c-4.82-1.25-10-.88-14.55-3.3,0,0-.19.15-.43.35a11.55,11.55,0,0,0,4.95,2.1C139.46,136.84,145.49,137.31,150.87,140.35Zm16.91,10.87c.45.58.86,1.27,2,1.16A1.73,1.73,0,0,0,167.78,151.22ZM156.89,144c0,.12-.17.28-.14.36s.23.12.35.17c.06-.12.18-.28.14-.36S157,144.09,156.89,144Zm-3.54-2.48-.37-.16c-.06.12-.18.28-.14.36s.23.11.35.17C153.24,141.8,153.29,141.67,153.35,141.55Zm.91.73c0,.12-.18.28-.14.36s.23.11.35.17c.05-.13.18-.28.14-.36S154.38,142.33,154.26,142.28Zm1.72,1-.37-.15c-.05.12-.18.27-.14.35s.23.12.35.17C155.87,143.55,155.93,143.43,156,143.3Z"/><path class="cls-3" d="M127.11,133.81a10.75,10.75,0,0,0,5.22,3,42.51,42.51,0,0,1,16.16,10.52c.54.55,1.34,1,1.07,2l-5.77-5a31.3,31.3,0,0,0-10.51-6.13,28.43,28.43,0,0,1-5.94-2.86,4.68,4.68,0,0,0,.69,3.48,22.31,22.31,0,0,0,3.88,5.53c4,4.38,4.34,9.69,4.05,15.18a2.26,2.26,0,0,1-1.06,1.82l-.35-.48c1.24-5.32.88-10.41-2.46-14.94-1.94-2.62-4.29-5-5.39-8.14-.59-1.88-.38-3.86-.73-5.77h.66l.15.44C126.77,132.93,126.7,133.43,127.11,133.81Z"/><path class="cls-3" d="M123.78,131.56l.34,0a19.68,19.68,0,0,1-1.44,6.77c-1.44,4.11-3.36,8.1-4.32,12.32-1.43,6.25-.17,9.05,5.5,10.87a3.88,3.88,0,0,1,1.18.56c2.07,1.58,4.2,1.27,6.36.25,1-.49,2.1-1,3.15-1.5l.35.48c-3.3,2.16-6.62,4.19-10.56,1.35a1.77,1.77,0,0,0-.59-.28c-7-1.88-8-7.4-5.8-13.52,1.5-4.24,3.22-8.41,4.57-12.72.24-.75.75-1.57-.55-1.87l.39-1C123.18,133,123.28,132.13,123.78,131.56Z"/><path class="cls-3" d="M174.11,158.36h1.8a10.69,10.69,0,0,1-6.35,1.32c-3.18-.23-6.38-.67-9.09-2.63,2.46.14,4.64,1.46,7.07,1.72.12.22.26.26.43,0,2,.7,3.83,0,5.72-.42C173.85,158.6,174,158.57,174.11,158.36Z"/><path class="cls-3" d="M153.48,132.56l7,.81c.09,1,.76,1.33,1.69,1.27a1.1,1.1,0,0,1,.2.31l-.35.44a40.39,40.39,0,0,0-9.4-2.18Z"/><path class="cls-3" d="M192.12,138.23l.69.46c-3.69,1.07-7.24-.14-10.84-.68-.42-.06-.84-.16-1.26-.24l.52-.57,1.23.12.57.34,1.62.09.6.33,2,.1a.75.75,0,0,0,1.28.07Z"/><path class="cls-3" d="M179.67,142.81c-2.62.84-4.6-.75-6.74-1.75l.41-.4c2,.5,3.73,1.91,5.93,1.73Z"/><path class="cls-3" d="M175.91,152.63c0-.41-.07-.81-.1-1.21a.86.86,0,0,0-.39-1,2.2,2.2,0,0,1-.37-1.81c1.74,1.89,1.63,4.32,1.93,6.62h-.65c0-.68-.06-1.36-.08-2Z"/><path class="cls-3" d="M161.87,139a5,5,0,0,1-4-1.35A5.32,5.32,0,0,1,161.87,139Z"/><path class="cls-3" d="M180.6,138.17a5,5,0,0,1-.1,3.71l-.41-.35c0-.93,0-1.87.08-2.81Z"/><path class="cls-3" d="M165.4,140.73c-1.05-.11-2.13-.15-2.66-1.32A2.66,2.66,0,0,1,165.4,140.73Z"/><path class="cls-3" d="M167.14,141.61c-.83.17-1.48,0-1.77-.9A1.36,1.36,0,0,1,167.14,141.61Z"/><path class="cls-3" d="M176.33,155.25H177l.1.91a1.12,1.12,0,0,0-.12,1.4v.17l-.63-.27Z"/><path class="cls-3" d="M180.6,138.17l-.43.55c-.18-.44-.37-.87-.55-1.31l.62-.55,1,.34-.52.57A2,2,0,0,1,180.6,138.17Z"/><path class="cls-3" d="M153.48,132.56l-.82.65-.92-.11v-.64Z"/><path class="cls-3" d="M172,144.69a1,1,0,0,1-1.32-.9C171.39,143.63,171.75,144.05,172,144.69Z"/><path class="cls-3" d="M154.35,153.53c.7-.12,1,.14.89.87C154.76,154.3,154.37,154.09,154.35,153.53Z"/><path class="cls-3" d="M159.17,156.61c.56-.16,1.07-.21,1.33.47C159.85,157.52,159.48,157.15,159.17,156.61Z"/><path class="cls-3" d="M180.5,141.88a1.53,1.53,0,0,1-.83.93l-.4-.42.82-.86Z"/><path class="cls-3" d="M177,157.55a1.12,1.12,0,0,1,.12-1.4A1.46,1.46,0,0,1,177,157.55Z"/><path class="cls-3" d="M176.33,157.45l.63.27c-.21.44-.37,1-1.06.67C176.05,158.08,176.19,157.76,176.33,157.45Z"/><path class="cls-3" d="M164.27,136.31l-1.28-.58.27-.36,1.3.47Z"/><path class="cls-3" d="M166,137.21l-1-.53.42-.4.88.47Z"/><path class="cls-3" d="M170.42,139.7l-.84-.51.28-.32.87.43Z"/><path class="cls-3" d="M162.75,139.42c-.42.12-.81.14-.89-.44C162.28,138.88,162.67,138.84,162.75,139.42Z"/><path class="cls-3" d="M169.09,139l-1-.53.39-.41.86.49Z"/><path class="cls-3" d="M158.29,156.17c.44-.12.8-.11.89.45C158.72,156.81,158.38,156.73,158.29,156.17Z"/><path class="cls-3" d="M157.42,155.73c.44-.13.79-.09.89.46C157.81,156.42,157.52,156.25,157.42,155.73Z"/><path class="cls-3" d="M156.55,155.28c.44-.14.79-.09.88.46A.58.58,0,0,1,156.55,155.28Z"/><path class="cls-3" d="M167.34,138l-.84-.51.29-.33.86.44Z"/><path class="cls-3" d="M155.23,154.4c.46-.15.8-.07.88.47C155.59,155.13,155.4,154.79,155.23,154.4Z"/><path class="cls-3" d="M168.13,138.42l-.79-.46c.11-.13.21-.27.31-.4l.87.45Z"/><path class="cls-3" d="M175.07,148.65c-.53-.11-.57-.46-.46-.9C175.21,147.82,175.43,148.09,175.07,148.65Z"/><path class="cls-3" d="M174.62,147.77c-.53-.1-.61-.43-.46-.88C174.64,147,175,147.21,174.62,147.77Z"/><path class="cls-3" d="M165,136.68l-.74-.37c.09-.16.19-.31.29-.47l.87.44Z"/><path class="cls-3" d="M170.2,143.38c-.45.14-.79.07-.88-.47C169.84,142.64,170.06,142.93,170.2,143.38Z"/><path class="cls-3" d="M168.88,142.51c-.44.13-.8.1-.88-.46A.6.6,0,0,1,168.88,142.51Z"/><path class="cls-3" d="M168,142.06c-.44.13-.79.08-.89-.46C167.63,141.34,167.9,141.54,168,142.06Z"/><path class="cls-3" d="M172.93,141.06l-.86-.44.39-.41.88.44Z"/><path class="cls-3" d="M172.07,140.62l-.83-.46c.12-.13.24-.26.35-.4l.87.45Z"/><path class="cls-3" d="M171.24,140.16l-.82-.46.31-.39.86.45Z"/><path class="cls-3" d="M163,135.73l-.93-.34c.12-.15.23-.3.35-.44l.85.42Z"/><path class="cls-3" d="M166.5,137.45l-.47-.24.28-.46.48.36Z"/><path class="cls-3" d="M150.81,150c.31,0,.47.15.46.46C150.8,150.65,150.64,150.51,150.81,150Z"/><path class="cls-3" d="M150.37,149.59a.41.41,0,0,1,.46.46C150.36,150.22,150.21,150.07,150.37,149.59Z"/><path class="cls-3" d="M149.78,149.57c.24-.29.46-.52.62.05A.37.37,0,0,1,149.78,149.57Z"/><path class="cls-3" d="M153.46,152.65c.33,0,.49.11.45.45C153.56,153.16,153.37,153.05,153.46,152.65Z"/><path class="cls-3" d="M174.16,146.89c-.34,0-.46-.15-.45-.46C174.18,146.28,174.22,146.54,174.16,146.89Z"/><path class="cls-3" d="M173.73,146.45c-.32,0-.46-.15-.45-.47C173.76,145.81,173.85,146,173.73,146.45Z"/><path class="cls-3" d="M173.3,146c-.32,0-.47-.14-.46-.45C173.3,145.39,173.46,145.54,173.3,146Z"/><path class="cls-3" d="M172.86,145.57c-.31,0-.48-.13-.46-.46C172.81,145,173,145.08,172.86,145.57Z"/><path class="cls-3" d="M172.42,145.13c-.32,0-.5-.11-.47-.45C172.32,144.62,172.55,144.68,172.42,145.13Z"/><path class="cls-3" d="M170.66,143.81c-.31,0-.49-.09-.47-.44C170.5,143.36,170.82,143.33,170.66,143.81Z"/><path class="cls-3" d="M153,152.22c.32,0,.49.11.45.45C153.09,152.75,152.89,152.64,153,152.22Z"/><path class="cls-3" d="M156.08,154.85c.32,0,.5.09.47.44C156.24,155.31,155.94,155.32,156.08,154.85Z"/><path class="cls-3" d="M169.35,142.94c-.31,0-.5-.09-.47-.44C169.18,142.49,169.51,142.45,169.35,142.94Z"/><path class="cls-3" d="M152.58,151.78q.48,0,.45.45C152.62,152.35,152.45,152.21,152.58,151.78Z"/><path class="cls-3" d="M152.13,151.34c.32,0,.48.13.46.46C152.17,151.92,152,151.8,152.13,151.34Z"/><path class="cls-3" d="M151.69,150.91c.32,0,.47.13.46.45C151.72,151.5,151.53,151.38,151.69,150.91Z"/><path class="cls-3" d="M153.9,153.09c.34,0,.49.11.46.45C154,153.58,153.84,153.46,153.9,153.09Z"/><path class="cls-3" d="M151.25,150.47a.39.39,0,0,1,.46.46C151.24,151.09,151.09,150.94,151.25,150.47Z"/><path class="cls-3" d="M169.58,139.19l-.49-.24.29-.45.48.37Z"/><path class="cls-3" d="M100.45,150.44c.06,1.4-.83,2.45-1.4,3.61-1.85,3.83-3.78,7.63-5.8,11.68a3.13,3.13,0,0,1,.48-2.65c1.89-3.94,3.87-7.83,5.84-11.73a4.46,4.46,0,0,1,.87-.93Z"/><path class="cls-3" d="M102.83,146.58a16.25,16.25,0,0,1,4.23-4.36Z"/><path class="cls-3" d="M118.86,132v-.77l2.59-.54,1.81.15v.65l-.92.15Z"/><path class="cls-3" d="M122.34,131.61l.92-.15.52.1c-.5.57-.6,1.45-1.42,1.76-.73-.78-1.45.33-2.17,0l0,0C120.56,132.33,121.78,132.39,122.34,131.61Z"/><path class="cls-3" d="M120.19,133.34c-.49,1.28-1.56,1.71-3.23,2.21a5.14,5.14,0,0,1,3.21-2.23Z"/><path class="cls-3" d="M108.05,142c.07-1,.51-1.35,1.45-1.51C109.43,141.44,109,141.81,108.05,142Z"/><path class="cls-3" d="M100.44,150.42a2.84,2.84,0,0,1,1.31-2.19h0c-.06,1-.1,1.93-1.32,2.2Z"/><path class="cls-3" d="M111.42,139.47c-.25.28-.4.53-.62.64s-.61.06-.51-.34a1.12,1.12,0,0,1,.53-.57C110.9,139.15,111.13,139.33,111.42,139.47Z"/><path class="cls-3" d="M112.72,138.15c.21-.37.4-.78.94-.68a.35.35,0,0,1,.16.3c-.21.53-.7.33-1.09.39Z"/><path class="cls-3" d="M101.75,148.23c.07-.32.06-.69.54-.66,0,0,.13.09.14.14,0,.47-.34.48-.66.53Z"/><path class="cls-3" d="M116.52,135.85c-.06.12-.09.31-.18.35s-.24-.09-.36-.14c.06-.12.08-.31.17-.35S116.39,135.8,116.52,135.85Z"/><path class="cls-3" d="M112.73,138.16c0,.32-.06.69-.54.66,0,0-.13-.09-.13-.14,0-.47.34-.47.66-.53Z"/><path class="cls-3" d="M115.19,136.72c0,.12-.08.31-.17.35s-.24-.09-.36-.14c0-.12.08-.31.17-.35S115.07,136.66,115.19,136.72Z"/><path class="cls-3" d="M115.36,132.89c.19-.13.39-.25.59-.37C115.75,132.64,115.55,132.76,115.36,132.89Z"/><path class="cls-3" d="M88.31,174.48l-.58-.36Z"/><path class="cls-3" d="M82,169.28a2.29,2.29,0,0,1-.18-.29s.08-.09.13-.14A.9.9,0,0,1,82,169.28Z"/><path class="cls-3" d="M136.43,127.71c1.43,1,2.83-.08,4.22-.16,3.39-.2,6.75-1,10.14-1.14a54,54,0,0,1,10,.48c3,.44,6.1.49,9.12.64,7.58.38,14.77,2.25,21.88,4.61a.62.62,0,0,1,.47.48c-2.21.09-4.08-.85-6-1.46a61.47,61.47,0,0,0-16.05-2.72c-5.29-.21-10.55-1-15.84-1.2-7.23-.31-14.3,1.22-21.39,2.36-.65.1-1.26.43-1.82-.17C132.72,128.29,134.69,128.35,136.43,127.71Z"/><path class="cls-3" d="M136.43,127.71c-1.74.64-3.71.58-5.29,1.72l-.84.06a.78.78,0,0,0-1,.68h-1.2a1.45,1.45,0,0,0,0-.36c0-.25,0-.5,0-.75,7.09-1.84,14.16-3.72,21.36-5.11,5.13-1,10.23-.76,15.39-.45,2.47.15,4.95,1,7.45.24l.53,0c0,.43,0,.86,0,1.29-3.83-.28-7.66-.54-11.49-.86-8.2-.68-16,1.55-23.81,3.38C137.15,127.58,136.79,127.64,136.43,127.71Z"/><path class="cls-3" d="M162.21,134.64c-.93.06-1.6-.22-1.69-1.27a99.83,99.83,0,0,1,18,3.08v.78C173.1,136.22,167.79,134.54,162.21,134.64Z"/><path class="cls-3" d="M128.07,129.8a1.45,1.45,0,0,1,0,.36c0,.19,0,.39,0,.59-.36.34-.91.54-1.07.05C126.74,130,127.52,129.93,128.07,129.8Z"/><path class="cls-3" d="M178.51,137.23v-.78l1.73.41c-.2.19-.41.37-.62.55Z"/><path class="cls-3" d="M129.29,130.17a.78.78,0,0,1,1-.68A.75.75,0,0,1,129.29,130.17Z"/><path class="cls-3" d="M188.56,138.25a.75.75,0,0,1-1.28-.07Z"/><path class="cls-3" d="M182.32,126a.87.87,0,0,1,1,.34A1.13,1.13,0,0,1,182.32,126Z"/><path class="cls-3" d="M184.94,126.39a.89.89,0,0,1,1,.35Z"/><path class="cls-3" d="M189.33,127.26a.87.87,0,0,1,1,.37Z"/><path class="cls-3" d="M183,137.66l-.57-.34Z"/><path class="cls-3" d="M185.25,138.08l-.6-.33Z"/><path class="cls-3" d="M179.83,125.8c.16-.2.3-.17.42,0H180Z"/><path class="cls-3" d="M187.55,126.82l.59.35Z"/><path class="cls-3" d="M193.2,128.36l-.08-.05Z"/><path class="cls-3" d="M148.67,132.09c-.16.21-.29.18-.42,0A.76.76,0,0,1,148.67,132.09Z"/><path class="cls-3" d="M123.26,130.81l-1.81-.15a87.86,87.86,0,0,0-14-3,85.3,85.3,0,0,0-10.79-1.25c-3.25-.11-6.52.35-9.79.54-9.34.54-17.36,5.1-25.76,8.49a11.13,11.13,0,0,1-1.22.44c-.1,0-.25-.1-.64-.28a56.36,56.36,0,0,1,7.24-3.27,108,108,0,0,1,12.82-4.94A46.7,46.7,0,0,1,89.87,126a86.82,86.82,0,0,1,25.32,2.39c2,.47,4.12.82,6.15,1.38.5.13,1,.23,1.41-.27C123.45,129.7,124.06,130,123.26,130.81Z"/><path class="cls-3" d="M95.63,125l.88-.9a60.88,60.88,0,0,1,14.72,1.66c3.12.69,6.26,1.27,9.4,1.9l0,0,.41.37c0,.3,0,.6,0,.91a151.88,151.88,0,0,0-18.26-3.72A68.44,68.44,0,0,0,95.63,125Z"/><path class="cls-3" d="M79.84,126.3c.37-.53.91-.41,1.43-.36A1.69,1.69,0,0,1,79.84,126.3Z"/><path class="cls-3" d="M77.21,126.74a.87.87,0,0,1,1-.35A1.13,1.13,0,0,1,77.21,126.74Z"/><path class="cls-3" d="M83.35,125.85c.25-.41.54-.45.85-.06Z"/><path class="cls-3" d="M115.79,131.17c-.3.42-.59.41-.87,0Z"/><path class="cls-3" d="M96.5,131.59c-.12.23-.26.27-.43,0A.9.9,0,0,1,96.5,131.59Z"/><path class="cls-3" d="M58.34,144.32l-.58.35Z"/><path class="cls-3" d="M61.85,143.42l-.59.37Z"/><path class="cls-3" d="M52.22,143.41l-.43,0,.06-.57Z"/><path class="cls-3" d="M127.63,128.07l-.51-.49c.38-.32.71-1.16,1.26-.56C128.72,127.39,128.06,127.82,127.63,128.07Z"/><path class="cls-3" d="M129.4,122.81h.42c0,.48.08,1-.41,1.3C129.41,123.68,129.4,123.25,129.4,122.81Z"/><path class="cls-3" d="M159.51,118.06a.87.87,0,0,1,1,.35A1.12,1.12,0,0,1,159.51,118.06Z"/><polygon class="cls-3" points="127.46 121.42 127.41 121.27 127.36 121.42 127.46 121.42"/><path class="cls-3" d="M142.54,119.29l.59-.37C142.94,119.05,142.74,119.17,142.54,119.29Z"/><path class="cls-3" d="M144.3,118.85l.6-.36Z"/><path class="cls-3" d="M131,125.21l0,.09Z"/><path class="cls-3" d="M125.73,50.43l-.27.49c-1.08-.79-.31-1.81-.31-2.73a.71.71,0,0,1,.53-.11c.17.07.41.31.39.46C126,49.17,125.85,49.8,125.73,50.43Z"/><path class="cls-3" d="M127.57,51.32l-.35-.84V44.83h.35Z"/><path class="cls-3" d="M128.94,40.41h-.42l.09-1.08C129.05,39.71,128.94,40.07,128.94,40.41Z"/><polygon class="cls-3" points="124.73 52.27 124.8 52.1 124.84 52.28 124.73 52.27"/><path class="cls-3" d="M134.55,160.85c-1.05.5-2.1,1-3.15,1.5-2.16,1-4.29,1.33-6.36-.25a3.88,3.88,0,0,0-1.18-.56c-5.67-1.82-6.93-4.62-5.5-10.87,1-4.22,2.88-8.21,4.32-12.32a19.68,19.68,0,0,0,1.44-6.77l.89.44c0,.95,0,1.9,0,2.84.67,7.06,1.8,14.08,1.71,21.2,0,.66-.24,1.42.31,2,.5-.08.52-.4.53-.67.18-3.85-.42-7.66-.63-11.49-.14-2.7-1.23-5.38-.28-8.11,1.1,3.18,3.45,5.52,5.39,8.14C135.43,150.44,135.79,155.53,134.55,160.85Z"/><path class="cls-3" d="M120.63,127.64c-3.14-.63-6.28-1.21-9.4-1.9a60.88,60.88,0,0,0-14.72-1.66c-.3-.42.12-.75.14-1.12l3.36-1.47,1-.38,2.08-.08h3.08l4.4.36.85.07,1.22.17,1.3.46.89.42.86.45a2.33,2.33,0,0,0,1.32.87l.44.4.46.42,2.7,2.59C120.6,127.38,120.61,127.51,120.63,127.64Z"/><path class="cls-3" d="M126.18,86.48q.09,9.18.2,18.36c0,7.08-.08,14.16-.15,21.24,0,1.31-.19,2.61-.3,3.91-.05.5,0,1.13-.79,1-.58-.1-.5-.63-.46-1.05.94-8.28.54-16.61.95-24.9.31-6.2-.12-12.37,0-18.55Z"/><path class="cls-3" d="M120.08,99.48l-.44.44a11.87,11.87,0,0,0-1.78,1.84c-.6,1-1.21.76-2,.33-1.17-2-.48-3.49,1.15-4.91a3.74,3.74,0,0,1,4.76-.49c.63.35,1.25.72,1.87,1.08.35.39,1.3.44,1,1.15-.17.4-.92.1-1.4,0C122.12,98.52,121,98.34,120.08,99.48Z"/><path class="cls-3" d="M126.7,137.77c-1,2.73.14,5.41.28,8.11.21,3.83.81,7.64.63,11.49,0,.27,0,.59-.53.67-.55-.56-.32-1.32-.31-2,.09-7.12-1-14.14-1.71-21.2-.09-.94,0-1.89,0-2.84l1,0C126.32,133.91,126.11,135.89,126.7,137.77Z"/><path class="cls-3" d="M120.62,123.25c.06-.47.26-.81.81-.78a4.54,4.54,0,0,0,1.33,2.59c.19,1.19,1.07,2.23.83,3.55-.81,0-1-.8-1.64-1l-.88-.87c-.65-1-.4-2-.48-3.07Z"/><path class="cls-3" d="M121.9,121.94c.24-1.2,1.19-.9,1.92-.81,1,.12.67,1,.69,1.57,0,1.08,0,2.16,0,3.51-1-.42-.84-1.27-1.29-1.64C122.78,123.7,122.34,122.82,121.9,121.94Z"/><path class="cls-3" d="M126.18,86.48h-.55c0-1.18-.07-2.37-.11-3.55.88-.38.76.26.75.75C126.25,84.62,126.21,85.55,126.18,86.48Z"/><path class="cls-3" d="M121.9,121.94c.44.88.88,1.76,1.33,2.63l-.47.48a4.48,4.48,0,0,1-1.33-2.58C121.59,122.3,121.74,122.12,121.9,121.94Z"/><path class="cls-3" d="M121.07,126.75l.88.87-1,0-.38,0,0,0c0-.13,0-.26,0-.39Z"/><path class="cls-3" d="M136,133.31l-.85-.06C135.42,132.87,135.7,132.91,136,133.31Z"/><path class="cls-3" d="M148.68,135.51l-1-.37A.88.88,0,0,1,148.68,135.51Z"/><path class="cls-3" d="M153.94,136.83l-1-.37A.85.85,0,0,1,153.94,136.83Z"/><path class="cls-3" d="M120.6,127.62l.38,0a.85.85,0,0,1,0,.32Z"/><path class="cls-3" d="M120.62,123.25l0,.43a1.27,1.27,0,0,1-.13-.32S120.56,123.29,120.62,123.25Z"/><path class="cls-3" d="M130.26,132.44h-.21l-.22,0C130,132.17,130.14,132.22,130.26,132.44Z"/><path class="cls-3" d="M132.45,132.86h-.21l-.21-.05C132.19,132.61,132.33,132.65,132.45,132.86Z"/><path class="cls-3" d="M123.25,116.67a.54.54,0,0,1,.16.1s0,.09,0,.13l-.17-.22Z"/><path class="cls-3" d="M141.66,134.16l-.21,0-.21-.05C141.4,133.92,141.54,134,141.66,134.16Z"/><path class="cls-3" d="M144.29,134.62l-.59-.35Z"/><path class="cls-3" d="M146.48,135.05l-.58-.34Z"/><path class="cls-3" d="M150.43,135.94l-.59-.35Z"/><path class="cls-3" d="M152.19,136.38l-.59-.36Z"/><path class="cls-3" d="M130.73,96.1A43.22,43.22,0,0,1,143,91.58a2.75,2.75,0,0,1,2.11.06c.7.4,1.69.86,1.59,1.63-.15,1.1-1.32.61-2,.58-4.35-.19-8.23,1.73-12.34,2.61-.52.11-1.39,1.14-1.6-.36Z"/><path class="cls-3" d="M130.27,74.15a7,7,0,0,1,3.54-2.77c1.3-.54,2.8.85,3.12,2.68v0c-2.22.44-4.45-.78-6.67.07Z"/><path class="cls-3" d="M130.26,74.15l-.17.19s0-.09,0-.11a.71.71,0,0,1,.15-.08Z"/><path class="cls-3" d="M112.36,83l.44-.43c1.57-.87,3-2.09,4.78-2.51.84-.19,1.67-.37,2,.62s-.71.92-1.22,1.14c-2,.87-3.43,2.4-5.13,3.63-.54.39-1.16,1.31-1.86.76s.14-1.29.27-2a6.1,6.1,0,0,1,.28-.82Z"/><path class="cls-3" d="M119.62,70.85a7.89,7.89,0,0,1,2.18-4.14,1.06,1.06,0,0,1,1.53-.26c.55.5-.14.88-.36,1.26C122.27,68.93,121,69.47,119.62,70.85Z"/><path class="cls-3" d="M139.91,80.73l-.44.43-.44.44-.43.44-.44.44a3,3,0,0,0-.42,0l-.07-.07c.11-1.1-.26-2.31.84-3.34Z"/><path class="cls-3" d="M136.36,85.08a1.5,1.5,0,0,0-.87,1.32c-.33.07-.94.51-.64-.37a3.68,3.68,0,0,0,.21-1.85v0c.51-.13.48-.51.44-.91l-.06,0C137.07,83.2,136.68,84.16,136.36,85.08Z"/><path class="cls-3" d="M137.74,82.51l-.24.17.17-.24Z"/><path class="cls-3" d="M114.89,110.54h-.4l.06-.58Z"/><path class="cls-3" d="M132.91,60.57c1.25-1.23,2.81-1.58,4.93-1.72a7.92,7.92,0,0,1-5,1.7Z"/><path class="cls-3" d="M132.89,60.55l-.17.19s0-.08,0-.1a.69.69,0,0,1,.15-.07Z"/><path class="cls-3" d="M132.17,89.55c-.2-3.07-1.73-5.82-2.08-8.86a12.69,12.69,0,0,1-.16-1.94c0-.86.42-1.58,1.4-1.64s1.51.67,1.59,1.65a65.39,65.39,0,0,1,.45,8C133.57,88,133.69,89.12,132.17,89.55Zm.1-4.41a17.1,17.1,0,0,0-.19-5.93c-.13-.47-.05-1.15-.79-1s-.58.76-.55,1.24A14.93,14.93,0,0,0,132.27,85.14Zm.36,1.17a.4.4,0,0,0,0,.15s.06,0,.09.06a.42.42,0,0,0,0-.15S132.67,86.33,132.63,86.31Z"/><path class="cls-3" d="M101,121.11l-1,.38A.86.86,0,0,1,101,121.11Z"/><path class="cls-3" d="M111.4,121.47l-.85-.07C110.87,121,111.15,121.07,111.4,121.47Z"/><path class="cls-3" d="M113.47,58.46c-.32.17-.25.47-.24.74-1.15-1.46-.19-3.21-.62-4.77.33-.31.79-1.28,1,0A9.15,9.15,0,0,1,113.47,58.46Z"/><path class="cls-3" d="M150.87,140.35c-5.38-3-11.41-3.51-17.34-4.39a11.55,11.55,0,0,1-4.95-2.1c.24-.2.39-.37.43-.35,4.55,2.42,9.73,2.05,14.55,3.3a40.29,40.29,0,0,1,5.78,1.9c.72.31,1.53.61,1.54,1.63Z"/><path class="cls-3" d="M161.39,146.93c-1.47,0-2.41-.85-3.85-2.18a6.23,6.23,0,0,1,3.86,2.17Z"/><path class="cls-3" d="M163.6,148.67c1.47,0,2.42.84,3.85,2.17a6.23,6.23,0,0,1-3.86-2.16Z"/><path class="cls-3" d="M167.78,151.22a1.73,1.73,0,0,1,2,1.16C168.64,152.49,168.23,151.8,167.78,151.22Z"/><path class="cls-3" d="M127.11,133.81c-.41-.38-.34-.88-.33-1.37.39.07,1-.14,1,.42C127.85,133.16,127.36,133.49,127.11,133.81Z"/><path class="cls-3" d="M150.88,140.34c.39.06.89-.14,1.09.39a.35.35,0,0,1-.16.3c-.54.1-.72-.31-.94-.68Z"/><path class="cls-3" d="M156.89,144c.12.06.31.08.35.17s-.08.24-.14.36c-.12-.05-.31-.08-.35-.17S156.84,144.15,156.89,144Z"/><path class="cls-3" d="M161.4,146.92c.32.06.69.05.67.53a.24.24,0,0,1-.14.14c-.48,0-.48-.34-.54-.66Z"/><path class="cls-3" d="M163.59,148.68c-.32-.06-.7-.06-.67-.54a.2.2,0,0,1,.14-.13c.48,0,.48.33.54.66Z"/><path class="cls-3" d="M153.35,141.55c-.06.12-.11.25-.16.37-.12-.06-.31-.08-.35-.17s.08-.24.14-.36Z"/><path class="cls-3" d="M154.26,142.28c.12.05.31.08.35.17s-.09.23-.14.36c-.12-.06-.31-.08-.35-.17S154.21,142.4,154.26,142.28Z"/><path class="cls-3" d="M156,143.31l-.16.36c-.12,0-.31-.08-.35-.17s.09-.23.14-.35Z"/><path class="cls-3" d="M175.42,150.43a.86.86,0,0,1,.39,1Z"/><path class="cls-3" d="M168,158.82c-.17.22-.31.18-.43,0A.89.89,0,0,1,168,158.82Z"/><path class="cls-3" d="M174.11,158.36c-.12.21-.26.24-.42,0A.76.76,0,0,1,174.11,158.36Z"/><path class="cls-3" d="M175.91,152.63l.34.58C176.13,153,176,152.82,175.91,152.63Z"/><path class="cls-3" d="M178.51,137.23l1.11.18c.18.44.37.87.55,1.31,0,.94,0,1.88-.08,2.81l-.82.86c-2.2.18-3.93-1.23-5.93-1.73l-.88-.45-.87-.45-.86-.45-.87-.44-.48-.37-.86-.49-.87-.45-.86-.44-.48-.37-.88-.47-.87-.44-1.3-.47-.85-.42a1.1,1.1,0,0,0-.2-.31C167.79,134.54,173.1,136.22,178.51,137.23Z"/><path class="cls-3" d="M135.49,83.32c0,.4.07.78-.44.91C135.05,83.85,134.87,83.39,135.49,83.32Z"/><path class="cls-3" d="M132.27,85.14a14.93,14.93,0,0,1-1.53-5.72c0-.48-.13-1.13.55-1.24s.66.56.79,1A17.1,17.1,0,0,1,132.27,85.14Z"/><path class="cls-3" d="M132.63,86.31s.1,0,.1.06a.42.42,0,0,1,0,.15s-.09,0-.09-.06A.4.4,0,0,1,132.63,86.31Z"/><text class="cls-4" transform="translate(231.73 174.25) rotate(-90)">Arabidopsis</text></g></g></svg>