<svg xmlns="http://www.w3.org/2000/svg" viewBox="0 0 255 235"><defs><style>.cls-1{fill:#1f787a;stroke-width:5px;}.cls-1,.cls-3{stroke:#eebc8a;stroke-miterlimit:10;}.cls-2{font-size:15px;}.cls-2,.cls-4{fill:#eebc8a;font-family:ArialMT, Arial;}.cls-3,.cls-5{fill:none;}.cls-3{stroke-width:0.6px;}.cls-4{font-size:22.71px;}</style></defs><g id="图层_2" data-name="图层 2"><g id="图层_1-2" data-name="图层 1"><rect class="cls-1" x="2.5" y="2.5" width="250" height="230" rx="12.08"/><text class="cls-2" transform="translate(68.46 200.65)">Protein # : 43,649<tspan x="-3.34" y="20">Pocket # : 149,563</tspan></text><path class="cls-3" d="M50.92,130.43c.12-.88.22-1.76.36-2.63a20.71,20.71,0,0,1,3.27-8.17A5.2,5.2,0,0,1,56,118.11a.51.51,0,0,0,.24-.3c.39-1.26.79-2.51,1.18-3.77a2.44,2.44,0,0,0,.06-.31c-.22,0-.3.17-.42.26a9.16,9.16,0,0,1-2.58,1.63c-.63.24-1.3.45-1.88-.08a1.68,1.68,0,0,1-.26-1.83,15.5,15.5,0,0,1,3.38-5.87,14,14,0,0,1,4.4-3.53,1.55,1.55,0,0,1,1.66.13c.35.35.43.12.5-.16a15.64,15.64,0,0,1,.91-2.64c-.23.15-.36.22-.48.31a18,18,0,0,1-3.58,2,3.8,3.8,0,0,1-1.15.28,1.05,1.05,0,0,1-1.17-1.42,6,6,0,0,1,1.1-2.11,19.71,19.71,0,0,1,5.47-4.74l.49-.29a8.64,8.64,0,0,1-1.23-.08,1.23,1.23,0,0,1-.92-2,8,8,0,0,1,1.7-2.15,14.59,14.59,0,0,1,7.93-3.84,3.47,3.47,0,0,1,2.09.16,1.41,1.41,0,0,1,.91,1.77,14.52,14.52,0,0,0,1.81-1.88,16.32,16.32,0,0,1,5.31-4.88,2.58,2.58,0,0,1,1.31-.45c.41,0,.49-.24.44-1-.14,0-.22.07-.31.12a11,11,0,0,1-2.65,1.22c-.14,0-.29.06-.35.23A2.45,2.45,0,0,1,79.08,84a11.42,11.42,0,0,1-5.72,2.64,14.42,14.42,0,0,1-3.65.37,2.84,2.84,0,0,1-1-.22.78.78,0,0,1-.33-1.28,5.73,5.73,0,0,1,1.53-1.33,16.34,16.34,0,0,1,3.76-1.65c.27-.08.38-.13.19-.43A1.38,1.38,0,0,1,74,80.33a6.65,6.65,0,0,1,1.84-1.58,14.75,14.75,0,0,1,7.44-2,5.22,5.22,0,0,1,1.31.15c1.13.29,1.33.58,1.28,1.7l.39-.24a16.22,16.22,0,0,1,7.16-2.53,6,6,0,0,0,2-.92h-.3A21.49,21.49,0,0,1,90,74.66a3.94,3.94,0,0,1-1.45-.52.93.93,0,0,1-.1-1.62,5.74,5.74,0,0,1,1.44-.78,19.4,19.4,0,0,1,6.85-1.49l.35,0,.06,0-.38-.27a2.71,2.71,0,0,1-1-1.18,1.12,1.12,0,0,1,.34-1.43,4.22,4.22,0,0,1,1.32-.71,15.58,15.58,0,0,1,6-.84,4.21,4.21,0,0,1,.79.06c.4.09.56,0,.64-.45a1.92,1.92,0,0,1,1-1.2,5.79,5.79,0,0,1,2.49-.73,15.67,15.67,0,0,1,9.6,2.37,1.49,1.49,0,0,1-.09,2.77,6.44,6.44,0,0,1-3.09.65A19,19,0,0,1,111,69c-.25,0-.41,0-.52.25a1.55,1.55,0,0,1-.68.73c-.21.13-.43.25-.63.4,1.66-.32,3.31-.61,5-.85a98.63,98.63,0,0,1,13.31-.87c.19,0,.53.13.52-.2s-.32-.06-.49-.07A18.69,18.69,0,0,1,119,66.23a6.28,6.28,0,0,1-1.14-.83,2.83,2.83,0,0,1-.55-.7,1.17,1.17,0,0,1,.83-1.83,6.43,6.43,0,0,1,2.51-.09,20.33,20.33,0,0,1,7.71,2.61,8.83,8.83,0,0,1,.8.56c.35.26.66.56.51,1.07-.05.2,0,.34.28.26a10.5,10.5,0,0,1,5.48,0l.43.09a9.54,9.54,0,0,0-.59-.77,1.37,1.37,0,0,1-.25-1.37.75.75,0,0,1,.68-.6,2,2,0,0,1,1.28.25,15.69,15.69,0,0,1,5.52,4.78,3,3,0,0,1,.2.34c.32.66.12,1-.7,1.07a10.74,10.74,0,0,0,2,.66,9.56,9.56,0,0,1,4.55,2,7.65,7.65,0,0,0,1.09.59,61.91,61.91,0,0,1,9.58,6.47,32.67,32.67,0,0,1,5.61,6,2.88,2.88,0,0,0,.61.65l-.15-.28a55.76,55.76,0,0,0-6.24-8.28c-.77-.91-1.49-1.87-2.3-2.75-.21-.23-.38-.43-.75-.33a1.06,1.06,0,0,1-.68-.15A6.32,6.32,0,0,1,153,73.73a15.55,15.55,0,0,1-1.66-2.35c-.09-.17-.17-.28-.41-.2A1.09,1.09,0,0,1,150,71a4.36,4.36,0,0,1-.81-.62,17,17,0,0,1-3.77-5.27,1.52,1.52,0,0,0-.64-.75c-.28-.17-.54-.36-.82-.54s-.68-.63-1.18-.1c-.27.29-.76.16-1.15.06a8.26,8.26,0,0,1-3-1.52.42.42,0,0,0-.61,0,3.17,3.17,0,0,1-2,.5,14.92,14.92,0,0,1-8-2.34,3.82,3.82,0,0,1-1.12-1,1,1,0,0,1,.49-1.71,6.3,6.3,0,0,1,2-.28.36.36,0,0,0,.26-.12l-2.56-.6-1.9-.43c-.11,0-.24-.1-.32,0a2.09,2.09,0,0,1-1.16.7,3.42,3.42,0,0,1,.87.87.93.93,0,0,1,0,1.29,2.7,2.7,0,0,1-1.16.87,13.11,13.11,0,0,1-8,.6,3,3,0,0,1-1.31-.63.85.85,0,0,1-.08-1.33,3.28,3.28,0,0,1,1.18-.76,15,15,0,0,1,4-.88c.32,0,.64-.07,1-.13-1-.2-2-.41-2.93-.68-.48-.13-1-.25-1.44-.42a3.16,3.16,0,0,0-2.54.1,11.25,11.25,0,0,1-4.73.74c-.33,0-.52,0-.63.41a2.59,2.59,0,0,1-1.17,1.4,13.47,13.47,0,0,1-5.29,1.93,9.25,9.25,0,0,1-3.4,0A1.47,1.47,0,0,1,96.54,59l-1.81.59a43.63,43.63,0,0,0-7.54,3.06c-.26.14-.43.23-.3.6a1.31,1.31,0,0,1-.25,1.13,8.22,8.22,0,0,1-1.93,2.06A17,17,0,0,1,77,70a6.27,6.27,0,0,1-2.16.05,1.13,1.13,0,0,1-.9-1.82,5.89,5.89,0,0,1,1.38-1.6,18,18,0,0,1,9.9-4.48,1.16,1.16,0,0,1,.82.1.33.33,0,0,0,.37,0,48.28,48.28,0,0,1,8.78-3.54.44.44,0,0,0,.19-.12c-.82,0-1.63,0-2.44-.13a.2.2,0,0,0-.21.13,2.37,2.37,0,0,1-1.09.94,23.5,23.5,0,0,1-8.4,2.36,6.8,6.8,0,0,1-2.11-.17c-.94-.24-1.14-.86-.54-1.61a4.08,4.08,0,0,1,1.17-.94,16.16,16.16,0,0,1,7.08-2.22l.22,0s.05,0,.11-.05a1.35,1.35,0,0,1-.16-1.17,2.12,2.12,0,0,1,1-1,12.57,12.57,0,0,1,5-1.42,15.62,15.62,0,0,1,4.68.15c.2,0,.3,0,.3-.23a1.53,1.53,0,0,1,1.12-1.44,8.19,8.19,0,0,1,2.68-.53,21.71,21.71,0,0,1,5.85.6c.33.07.54.12.64-.33s.66-.81,1.17-1a8.59,8.59,0,0,1,3.6-.3,16.81,16.81,0,0,1,8.11,3.19,6.6,6.6,0,0,1,1.32,1c.09.11.25.21.28.33.14.56.59.53,1,.6.91.15,1.83.3,2.77.38l-.45-.19a22.64,22.64,0,0,1-6.43-4.19,7.14,7.14,0,0,1-1.24-1.39,1.12,1.12,0,0,1,.93-1.88,4.43,4.43,0,0,1,1.88.22,20.55,20.55,0,0,1,7.44,4.45,3,3,0,0,1,1.07,1.64c.24,1.23-.17,1.76-1.43,1.85l3.75,1.27c-.1-.19-.16-.33-.24-.46a8,8,0,0,1-1.14-3.09c-.05-.62-.08-1.26.48-1.67s1.17-.16,1.72.12a13,13,0,0,1,3.21,2.35,19.1,19.1,0,0,1,4.38,5.75c.23.51.43,1,.64,1.55a.45.45,0,0,0,.18.25l1.36.88c0-.43-.07-.81-.06-1.18a.84.84,0,0,1,1.19-.83,3.9,3.9,0,0,1,1.44.85,15.68,15.68,0,0,1,3.08,4c.14.24.22.4.54.19a1.08,1.08,0,0,1,1.07,0,5.5,5.5,0,0,1,1.42,1,12.93,12.93,0,0,1,3.5,5.37,2.67,2.67,0,0,1,.27,1.84c0,.15.09.23.18.33a101.9,101.9,0,0,1,12,16.71c.4.68.81,1.35,1.21,2l.11.13a.54.54,0,0,0-.09-.41c-2.23-5.34-4.62-10.61-7.34-15.72-.94-1.76-2-3.44-3-5.16,0-.09-.1-.18-.22-.19a2.13,2.13,0,0,1-1.38-.72,18.89,18.89,0,0,1-2.86-3.26c-.55-.77-1.06-1.57-1.6-2.35a1.6,1.6,0,0,1-.16-1.48c.16-.52.61-.55,1.07-.55a2.61,2.61,0,0,0-.47-.85c-.07-.13-.15-.08-.25,0a.77.77,0,0,1-.87.05,4.54,4.54,0,0,1-1.25-.83,13.65,13.65,0,0,1-2.12-2.43c-.42-.6-.76-1.24-1.22-1.8a2.46,2.46,0,0,1-.45-1.15c-.17-1,.1-1.38,1.17-1.45-.34-.45-.43-1-1.14-1.11A3.25,3.25,0,0,1,147,53.2a20.25,20.25,0,0,1-4.13-5.12,2.53,2.53,0,0,1-.32-1c-.07-.72.26-1,1.19-1.19-.37-.57-.73-1.13-1.08-1.69-.07-.11-.14-.18-.29-.09a1.11,1.11,0,0,1-1,0,7.19,7.19,0,0,1-2.06-1.28,17.12,17.12,0,0,1-4.68-5.27,4.71,4.71,0,0,1-.61-1.84c-.05-.92.52-1.38,1.41-1.1a6.45,6.45,0,0,1,1.78,1l.86.64a3.92,3.92,0,0,0-.72-1.21,17.23,17.23,0,0,1-1.47-1.93c-.08-.11-.14-.23-.31-.2a2.28,2.28,0,0,1-1.52-.53A15.79,15.79,0,0,1,130.67,29a30.32,30.32,0,0,1-2.6-4,3.36,3.36,0,0,1-.51-2.1c.09-1.09.73-1.49,1.75-1.1a7.7,7.7,0,0,1,3.16,2.43c.24.3.42.45.81.2a1.17,1.17,0,0,1,1.23.07,5.89,5.89,0,0,1,1.36,1.13,11.8,11.8,0,0,1,1.7,2.27,29,29,0,0,1,2.24,5.06,5.47,5.47,0,0,1,.31,2c0,.93-.32,1.22-1.21,1.27.81,1.89,2.28,3.36,3.22,5.17a30.92,30.92,0,0,1-1-3.52A7.49,7.49,0,0,1,141,34c.12-.43.29-.55.73-.43a2,2,0,0,1,1.09.93,15.75,15.75,0,0,1,1.65,3.28c.07.2.15.39.22.58.17,0,.18-.16.24-.25a1.1,1.1,0,0,1,1.1-.67,1.32,1.32,0,0,1,1.21.88,15.46,15.46,0,0,1,.68,2.76,16.62,16.62,0,0,1,.29,3.79.78.78,0,0,0,.19.52A17.2,17.2,0,0,1,152,53.59a3.17,3.17,0,0,1,0,.53c-.05,1-.5,1.24-1.38.88a1.22,1.22,0,0,0-.34-.1,9.51,9.51,0,0,0,1.1,1.63,19.82,19.82,0,0,1,2.35,3.33,5.85,5.85,0,0,1,.86,2.38,1,1,0,0,0,0-1,15.35,15.35,0,0,1-1.55-9,4.57,4.57,0,0,1,.23-.9.72.72,0,0,1,1.09-.46,2,2,0,0,1,.86.87,11.38,11.38,0,0,1,1.05,3c.07.27.1.45.48.46a1.47,1.47,0,0,1,1.22.85,8,8,0,0,1,.87,2.69,21.45,21.45,0,0,1,.39,6.14,3,3,0,0,1-.35,1.22c-.06.11-.11.2,0,.32A17.51,17.51,0,0,1,160.65,70c0-.32-.07-.63-.09-1a17.55,17.55,0,0,1,.08-3.55.62.62,0,0,1,.41-.52.86.86,0,0,1,.92.12,1.73,1.73,0,0,1,.51.72,15.93,15.93,0,0,1,1.31,7.4c0,.62-.11,1.29-.81,1.62-.22.1,0,.26.05.37.65,1.24,1.32,2.47,2,3.71,3,5.64,6,11.28,8.48,17.13.6,1.39,1.17,2.78,1.76,4.17a1,1,0,0,0,.28.42c-.13-.48-.23-1-.37-1.43-1.06-3.68-1.87-7.41-2.66-11.16-.74-3.46-1.35-6.94-2-10.41s-1.31-6.9-2-10.34c-.64-3.11-1.19-6.23-1.8-9.35-.75-3.81-1.34-7.66-2.3-11.43-.53-2.07-1.26-4.09-1.85-6.15-.9-3.1-1.71-6.22-2.59-9.33-.69-2.4-1.43-4.79-2.15-7.18-.52-1.73-1.21-3.39-1.81-5.1l0-.16h.18c1,1.75,1.78,3.57,2.65,5.37a85.9,85.9,0,0,1,3.5,8.62c2,5.52,4,11,5.94,16.56s4,11,5.93,16.51c2.29,6.49,4.68,12.94,6.73,19.51a.5.5,0,0,0,.2.29c-.06-.71-.12-1.42-.19-2.13s-.07-1.21-.08-1.81c0-1.45-.14-2.89-.12-4.34s-.07-3-.1-4.44-.09-3.15-.18-4.73c-.11-1.92,0-3.84,0-5.76,0-.74.09-1.48.07-2.22-.07-2-.14-4-.19-5.93,0-1.48-.12-3-.18-4.43s-.22-3.07-.33-4.61c0-.59-.06-1.18-.08-1.77-.05-1.52-.19-3-.29-4.54s-.26-3.25-.45-4.87-.33-3.12-.49-4.68a22.22,22.22,0,0,1-.2-3.65,1.68,1.68,0,0,1,.06-.31,10.81,10.81,0,0,1,.46,1.13c1.11,4.47,2.41,8.89,3.6,13.34.61,2.24,1,4.52,1.54,6.78.61,2.57,1.22,5.15,1.81,7.73q1.11,4.8,2.19,9.62T190,73.55c.59,2.72,1.2,5.44,1.69,8.18.35,2,.66,4,1,6,.24,1.45.49,2.9.7,4.36.18,1.26.29,2.53.46,3.8.24,1.79.34,3.59.51,5.39.12,1.24.18,2.5.18,3.75,0,2.09.15,4.17.11,6.26,0,.45-.11.89-.09,1.47.38-.87.72-1.61,1-2.37.66-1.69,1.4-3.34,2-5a73.24,73.24,0,0,0,2.36-7.5c.49-1.95,1-3.91,1.38-5.88.29-1.44.53-2.89.76-4.34s.44-3,.59-4.52a55.51,55.51,0,0,0,.2-6c0-1.16,0-2.31-.11-3.45a11.38,11.38,0,0,0-.24-1.74,1,1,0,0,1,0-.31c0-.14,0-.31.19-.33a.35.35,0,0,1,.39.22,4.08,4.08,0,0,1,.3,1.14c.17,1.18.31,2.37.38,3.58.08,1.46,0,2.93.11,4.38.22,3,.1,6.09.17,9.13,0,2,0,4-.14,6,0,1.27-.08,2.54-.16,3.81-.1,1.6-.26,3.19-.33,4.79,0,.93-.12,1.85-.21,2.78-.11,1.25-.24,2.5-.45,3.74-.31,1.79-.67,3.57-1,5.35a134.55,134.55,0,0,1-3.82,14.47c-.53,1.61-.92,3.27-1.38,4.9a.86.86,0,0,0,0,.17c0,1.48-.11,3-.09,4.43a80.1,80.1,0,0,0,3.2,20.81c1.19,4.21,2.4,8.42,3.88,12.54.27.75.59,1.49.88,2.23.18.48.11.71-.31,1-.65.4-.88.4-1.24,0a7.56,7.56,0,0,1-.57-.79c-.1-.14-.14-.19-.32,0a.54.54,0,0,0-.15.83,11.1,11.1,0,0,1,.54,1c.15.3.22.51-.21.69s-.81.18-1.2.32c-.22.08-.33-.14-.41-.32-.24-.52-.47-1-.7-1.58-.07-.16-.12-.33-.36-.32a.38.38,0,0,1-.23-.11,11.51,11.51,0,0,1-1.88-2.12,66.27,66.27,0,0,1-3.81-8.73c-1.18-3.22-2.56-6.35-3.77-9.55a53.78,53.78,0,0,1-2.72-9.54,36.57,36.57,0,0,1-.48-4.06c-.07-1-.06-2.06-.06-3.09,0-.84.1-1.68.17-2.52a3.38,3.38,0,0,0-.25-1.33c-.7-2.09-1.46-4.16-2.21-6.23a15.61,15.61,0,0,0-8.56-9c-1.65-.78-3.24-1.69-5-2.31a20.62,20.62,0,0,0-6.65-1.16c-.32,0-.58,0-.66.43a1.43,1.43,0,0,1-.64.78,15.67,15.67,0,0,1-6.63,2.9,3,3,0,0,1-.89,0,.85.85,0,0,1-.78-1.23c.07-.22.2-.42.35-.76l-1.57.76a.21.21,0,0,0-.09.23,3.31,3.31,0,0,1-.54,1.81,15.07,15.07,0,0,1-3.79,4.47,3.6,3.6,0,0,1-1.31.73c-.76.22-1.19-.09-1.16-.88a6.21,6.21,0,0,1,.8-2.61,1.61,1.61,0,0,0,.17-.4,17,17,0,0,0-3.2,2.73c.4,0,.79-.12,1.09.2a1.68,1.68,0,0,1,.42,1.23,5.67,5.67,0,0,1-.26,1.48,14.77,14.77,0,0,1-2.87,5.75,7.38,7.38,0,0,1-.62.63c-.14.13-.34.29-.51.23-.52-.16-.6.21-.74.54a19,19,0,0,1-1.49,2.73,5.07,5.07,0,0,1-1,1.15.79.79,0,0,1-1.25,0c-.15.08-.19.24-.27.37a13.79,13.79,0,0,1-2.19,2.84,4.37,4.37,0,0,1-1.18.86c-.66.32-1.08.11-1.21-.62a5.73,5.73,0,0,1,.23-2.5,15.49,15.49,0,0,1,4.34-7.5,14.29,14.29,0,0,0,1.56-2.08c-.11-.14-.21,0-.29,0a5.63,5.63,0,0,1-.9.22c-.86.07-1.25-.33-1.14-1.2a3.88,3.88,0,0,1,.48-1.32,13.2,13.2,0,0,1,6-5.47,2.66,2.66,0,0,1,1.07-.25c.69,0,1,.19,1.36,1a25.63,25.63,0,0,1,5.26-3.57.68.68,0,0,0-.52.11,14.33,14.33,0,0,1-3.87,1.06,3.12,3.12,0,0,1-1.1,0,.65.65,0,0,1-.44-1.08,3,3,0,0,1,.55-.63,11.89,11.89,0,0,1,5.72-3c.26-.06.36-.12.33-.42a1.18,1.18,0,0,1,.53-.93,7.44,7.44,0,0,1,3.54-1.52,13.11,13.11,0,0,1,4.33-.09,1.45,1.45,0,0,1,.46.14c.82.36.92,1,.24,1.58a4.44,4.44,0,0,1-1.52.8,21.83,21.83,0,0,1-3.81,1c-.1,0-.23,0-.28.09-.32.73-1,1-1.62,1.48,0,0,.08,0,.1,0,1.6-.87,3.35-1.42,5-2.18a8.71,8.71,0,0,1,4.27-1c.72,0,1.43.06,2.2,0-.11-.18-.28-.19-.41-.25a6.93,6.93,0,0,1-1.6-.94c-.64-.58-.52-1.19.32-1.45a5.2,5.2,0,0,1,2.54-.09,9.12,9.12,0,0,1,4.48,1.88,1.08,1.08,0,0,1,.23,1.63,31.83,31.83,0,0,1,6.33,2.68,25.15,25.15,0,0,1,5.69,3.86c-.22-.66-.47-1.31-.65-2a20.93,20.93,0,0,0-1.61-3.81,61.18,61.18,0,0,0-13.27-18,25.85,25.85,0,0,0-2.45-2c-.13-.09-.24-.2-.43-.08a10.58,10.58,0,0,1-5,1.23,14.09,14.09,0,0,1-4.61-.51,2.41,2.41,0,0,1-1.3-.72c-.16-.21-.35-.08-.52,0a25.73,25.73,0,0,1-3.59.55,10.36,10.36,0,0,1-3.09-.23c-.36-.09-.73-.19-.84-.62s.17-.73.46-1a7.2,7.2,0,0,1,1.81-1.12,18.8,18.8,0,0,1,4.87-1.43,7,7,0,0,1,2.42,0,2.37,2.37,0,0,1,1.6.86.28.28,0,0,0,.31.1l1.76-.26c-.11-.16-.29-.17-.43-.22a24.52,24.52,0,0,0-6.51-1.25,4.07,4.07,0,0,1-.49,0c-.24,0-.37,0-.5.27a2.11,2.11,0,0,1-1.39,1,6.91,6.91,0,0,1-1.92.28,22.67,22.67,0,0,1-3-.08,2.66,2.66,0,0,0-1,.09,55.45,55.45,0,0,0-14.3,6.55.89.89,0,0,0-.32.29,7.43,7.43,0,0,1-2.67,2.67c-.09.06-.22.09-.26.27a1.35,1.35,0,0,1,.9-.12,1.16,1.16,0,0,1,1.15,1.17,2.86,2.86,0,0,1-.1.92,16.47,16.47,0,0,1-4.2,7.26,6.82,6.82,0,0,1-2,1.43,2.12,2.12,0,0,1-1.37.23c-.3-.07-.32.14-.39.3a24,24,0,0,1-2.35,4,8.75,8.75,0,0,1-2.72,2.63c-.18.1-.22.27-.29.43a17.16,17.16,0,0,1-3,5,5.09,5.09,0,0,1-1.72,1.37,1.25,1.25,0,0,1-2-1,5.79,5.79,0,0,1,.16-2.55,19.15,19.15,0,0,1,2.53-6.11,2.43,2.43,0,0,0,.18-.32c-.12,0-.14,0-.17.09a58,58,0,0,0-3.89,6c-.14.26-.19.42.08.62a.76.76,0,0,1,.25.6,4,4,0,0,1-.24,1.7,20.33,20.33,0,0,1-3.14,5.53,5.37,5.37,0,0,1-1.65,1.46c-.9.5-1.49.14-1.45-.88a8.7,8.7,0,0,1,.67-2.79,14.07,14.07,0,0,1,2.19-3.89,6.08,6.08,0,0,1,2-1.79.41.41,0,0,0,.22-.26c.19-.59.49-1.11.73-1.7l-.33.36a8.88,8.88,0,0,1-2.43,2,2.56,2.56,0,0,1-1.23.34.86.86,0,0,1-.91-.88,2.83,2.83,0,0,1,.36-1.4,12,12,0,0,1,3-3.83,6,6,0,0,1,1.4-1,1.65,1.65,0,0,1,.9-.17,1.09,1.09,0,0,1,1.07,1.47c0,.09,0,.19-.09.4l2.86-4c-.19,0-.29.1-.4.16a8.63,8.63,0,0,1-2.28,1l-.17,0c-1.16.19-1.61-.36-1.21-1.45a7.57,7.57,0,0,1,1.5-2.29,12.51,12.51,0,0,1,5.29-3.53,1.43,1.43,0,0,1,1.71.34c.1.12.18.17.31,0,1.43-1.56,3-3,4.53-4.44v-.07c-.3,0-.61,0-.91,0a1,1,0,0,1-.9-1.38,5.32,5.32,0,0,1,1.08-1.72,14,14,0,0,1,6.74-4.07,4.07,4.07,0,0,1,1.67-.14,1.07,1.07,0,0,1,.92.66c.07.16.15.2.3.1,1.28-.81,2.61-1.56,3.93-2.32-.81.13-1.61.26-2.42.37a5.24,5.24,0,0,1-1.81,0c-.79-.17-1-.76-.47-1.37a5.76,5.76,0,0,1,1.6-1.26,17.2,17.2,0,0,1,6.8-2.11,3.56,3.56,0,0,1,2.23.38c.59.35.68.46.59,1.16l2.18-.73c0-.17-.18-.14-.28-.16a8.19,8.19,0,0,1-2.18-.86c-.77-.49-.76-1.12,0-1.56a9,9,0,0,1,3.84-1,15.46,15.46,0,0,1,6.29.82,3.4,3.4,0,0,1,1,.55,1.08,1.08,0,0,0,.68.17,24.28,24.28,0,0,1,9.64,2.27,2.76,2.76,0,0,0,.94.23,4,4,0,0,1,2.71,1.24.84.84,0,0,1,.25.36c.08.52.5.74.86,1a27,27,0,0,1,3.75,3.33,64.63,64.63,0,0,1,8.12,10c.61,1,1.18,2,1.78,3,.09-.13,0-.23,0-.33a43.54,43.54,0,0,0-5.22-10.65,60.9,60.9,0,0,0-11.42-13.39c-2.14-1.8-4.26-3.62-6.56-5.22a12.25,12.25,0,0,0-1.25-.76c-.19-.1-.31-.17-.42.12s-.58.47-1,.51a6.56,6.56,0,0,1-2.45-.31,11.78,11.78,0,0,1-2.95-1.3.91.91,0,0,0-.89-.09,10.22,10.22,0,0,1-5.51.23,8.21,8.21,0,0,1-3.22-1.29,3.68,3.68,0,0,1-.9-.86,1,1,0,0,1-.15-1c.11-.27,0-.31-.21-.3l-.93,0a.44.44,0,0,0-.42.19,4.34,4.34,0,0,1-1.39,1.09,14.31,14.31,0,0,1-5.46,1.84,5.35,5.35,0,0,1-2.45-.22,1.46,1.46,0,0,1-.64-.3c-.49-.55-.93-.29-1.45,0a13.84,13.84,0,0,1-6.15,1.49,1,1,0,0,0-.43.08l-2.27.9c-.12,0-.31.07-.25.29a2.1,2.1,0,0,1-.59,2,14.16,14.16,0,0,1-2.39,2.38,18.19,18.19,0,0,1-4.1,2.53,4.57,4.57,0,0,1-1.62.42c-.93,0-1.3-.48-1-1.36.16-.45.43-.84.63-1.3l-2.4,1.54a1.45,1.45,0,0,1,.77,1.19,2.87,2.87,0,0,1-.27,1.38,14.09,14.09,0,0,1-3,3.94,12.56,12.56,0,0,1-2.3,1.81,3.77,3.77,0,0,1-1.94.67c-.23,0-.29.17-.39.31a14,14,0,0,1-2.82,3,5.68,5.68,0,0,1-1.81,1c-.22.07-.29.23-.38.4a23.11,23.11,0,0,1-2.51,4,7.46,7.46,0,0,1-1.36,1.39c-1.07.79-1.68.65-2.26-.57a.77.77,0,0,0-.24.64,5.05,5.05,0,0,1-.35,3,14.14,14.14,0,0,1-2.5,4,3.5,3.5,0,0,1-1.21,1,.73.73,0,0,1-1.11-.55,3.42,3.42,0,0,1,.07-1.71,13.77,13.77,0,0,1,2.84-5.66,3.62,3.62,0,0,1,.59-.65,1,1,0,0,1,1-.2c.1,0,.23.14.31,0a5.39,5.39,0,0,0,.66-1.34,11,11,0,0,1,4.82-7.46,5.21,5.21,0,0,0,1.47-1.45A15.14,15.14,0,0,1,94,94.39a2.48,2.48,0,0,1,1.69-.54,1.25,1.25,0,0,0,.92-.33,85.91,85.91,0,0,1,7.56-5.28.83.83,0,0,0,.4-.34,9.83,9.83,0,0,1-1.33,0,2.18,2.18,0,0,1-1.06-.31c-.26-.18-.37-.11-.54.13a14.4,14.4,0,0,1-4.62,4.2,6.65,6.65,0,0,1-2.35.89c-1.11.16-1.61-.44-1.23-1.5a12.67,12.67,0,0,1,1.36-2.44.46.46,0,0,0,.11-.31c-.25.19-.51.37-.75.57-1.87,1.54-3.79,3-5.54,4.71a3.26,3.26,0,0,0-.49.62A7.43,7.43,0,0,1,86,96.51a6.18,6.18,0,0,0-1.23,1.12A1.84,1.84,0,0,1,86,99.82a14.1,14.1,0,0,1-4.68,9,3.78,3.78,0,0,1-1.39.86,1,1,0,0,1-1.5-.81,6,6,0,0,1,.14-2.77,14.65,14.65,0,0,1,.73-2.21.72.72,0,0,0-.33.34c-.62.87-1.22,1.75-1.83,2.62a3.83,3.83,0,0,0-.87,2.12,6,6,0,0,1-.74,2.13,20,20,0,0,1-3.77,5.39c-.21.22-.22.33,0,.56a2,2,0,0,1,.34,1.65,17.81,17.81,0,0,1-.85,3.53,19,19,0,0,1-3.32,6,4.25,4.25,0,0,1-1,.93,1.1,1.1,0,0,1-1.75-.59,5.58,5.58,0,0,1-.15-3.16,15.64,15.64,0,0,1,2.4-6c0-.08.14-.16.13-.27-1.29-.4-1.66-1.08-1.25-2.4a19.27,19.27,0,0,1,3.18-5.9c.18-.24.23-.37,0-.61a1.35,1.35,0,0,1-.19-1.38,7.63,7.63,0,0,1,1.23-2.45,17.74,17.74,0,0,1,7.19-6.22c1.15-.49,1.89,0,1.91,1.24,0,.2,0,.41,0,.66,1.26-1.23,2.19-2.71,3.36-4a17.87,17.87,0,0,1-2,.48,5.56,5.56,0,0,1-1.63.06,1.49,1.49,0,0,1-1.22-2.39,6.41,6.41,0,0,1,1.92-2.06,14.16,14.16,0,0,1,3.21-1.77c.23-.09.44-.12.18-.45s-.14-.88.14-1.27a10.39,10.39,0,0,1,3.1-2.88,13.68,13.68,0,0,1,6-1.86c1.08-.09,1.92.08,2.25,1.61,1.83-1.28,3.6-2.6,5.46-3.81a28.5,28.5,0,0,1-2.84.79,13.59,13.59,0,0,1-1.93.27,2.9,2.9,0,0,1-.88-.06.74.74,0,0,1-.56-1.05,3.36,3.36,0,0,1,.83-1.2,14.59,14.59,0,0,1,5.51-3.46c.25-.09.41-.14.38-.5a1.27,1.27,0,0,1,.6-1.08,6.7,6.7,0,0,1,1.71-1,16.12,16.12,0,0,1,7.5-1.44,2.67,2.67,0,0,1,1.74.86.77.77,0,0,1,.12.8,3.73,3.73,0,0,1-.57,1c1.93-.67,3.73-1.41,5.61-1.92,0-.2-.19-.15-.28-.17A12.76,12.76,0,0,1,115,75c-.22-.09-.44-.18-.65-.29s-.66-.39-.67-.81.33-.68.67-.86a9.26,9.26,0,0,1,3.91-1,13.58,13.58,0,0,1,4.71.34,4.27,4.27,0,0,1,2.83,1.82c.15.26.34.11.54.1,0-.18-.16-.24-.24-.33-.58-.65-.46-1.17.36-1.5a5.51,5.51,0,0,1,1.65-.34,13.27,13.27,0,0,1,5.94.94,8.18,8.18,0,0,1,2.4,1.72,1.1,1.1,0,0,0,.61.32,35.68,35.68,0,0,1,6.66,1.67.77.77,0,0,0,.29.07,6.79,6.79,0,0,1,3.89,1,80.58,80.58,0,0,1,8.19,4.68A62.15,62.15,0,0,1,170.1,96c.1.14.2.26.32.41.08-.18,0-.27-.11-.36a93.36,93.36,0,0,0-7.62-10.69,40.77,40.77,0,0,0-8.89-7.57c-1.45-1-3-1.82-4.48-2.69-.13-.08-.26-.22-.39,0a1.24,1.24,0,0,1-1.09.59,13,13,0,0,1-8-2,2.63,2.63,0,0,1-.52-.48.81.81,0,0,1,.38-1.4c.47-.17,1,0,1.55-.24l-2.76-.82a.44.44,0,0,0-.22,0,14.37,14.37,0,0,1-9.47-.9.48.48,0,0,1-.16-.08c-.52-.59-1.21-.48-1.89-.47a87.56,87.56,0,0,0-16.7,1.58,66.12,66.12,0,0,0-14.32,4.68.91.91,0,0,0-.45.27.64.64,0,0,0,.43.08.77.77,0,0,1,.73,1.17,3.42,3.42,0,0,1-.71,1A15.65,15.65,0,0,1,91,81.36a15.81,15.81,0,0,1-4.59,1.58,4.6,4.6,0,0,1-2.66-.28A2,2,0,0,1,83.81,85,14.33,14.33,0,0,1,78,91.16a4.63,4.63,0,0,1-1.71.58c-1.15.18-1.62-.33-1.34-1.46,0-.07,0-.14,0-.21-.15-.06-.2.06-.27.12a62.64,62.64,0,0,0-4.89,5.15c-.19.23-.21.33.06.52a1.64,1.64,0,0,1,.61,1.58,5.45,5.45,0,0,1-.28,1.39,20,20,0,0,1-2.9,5.86A8.23,8.23,0,0,1,65,106.88a1.67,1.67,0,0,1-2.7-.6c-.19.3-.15.5.15.74a2.75,2.75,0,0,1,.87,1.7,14,14,0,0,1,0,5,18.72,18.72,0,0,1-1.87,6,6.2,6.2,0,0,1-1.23,1.73,1.86,1.86,0,0,1-1.19.61c-.33,0-.23.25-.24.42a17.71,17.71,0,0,1-1.32,6.26c-.21.5-.47,1-.71,1.48-.06.13-.13.25,0,.41a7.07,7.07,0,0,1,.81,3.24A22.82,22.82,0,0,1,56.32,143a5.62,5.62,0,0,1-.84,1.61c-.78,1-1.71.9-2.24-.24a9.51,9.51,0,0,1-.71-3.72,23.84,23.84,0,0,1,.58-6.13c.07-.31,0-.42-.32-.36a1.19,1.19,0,0,1-1.2-.59A3.43,3.43,0,0,1,51,132c0-.18-.07-.35-.1-.52Zm130.84-62a1.5,1.5,0,0,0-.39,1c0,.64.06,1.27.08,1.91.05,1.44.05,2.89.08,4.34.08,3,0,6.1.11,9.14,0,.69.07,1.39.12,2.08a7.13,7.13,0,0,0,.12,1.53c.37,1.25.74,2.51,1.14,3.75.85,2.69,1.77,5.36,2.43,8.11,1,4,2,8,3,12.06a54.7,54.7,0,0,1,1.26,6.83,18,18,0,0,1,.36,3.45c.19-.08.21-.23.26-.34,1.06-2.18,2-4.42,3-6.62a6.32,6.32,0,0,0,.57-3c-.07-1.29-.1-2.59-.17-3.89s-.13-2.59-.18-3.88c-.08-1.94-.26-3.87-.45-5.8-.11-1-.15-2-.29-3.06a2.49,2.49,0,0,0-.23-1.18,2.43,2.43,0,0,0-.28,1.17c.08.43.13.88.21,1.31s.22,1.1.28,1.68c.19,1.82.48,3.63.61,5.46a26.35,26.35,0,0,1,.14,3.77,1.39,1.39,0,0,1-.41,1l-.19-.36c-1,1.72-1.34,3.2-1,4.43.08-.22.14-.38.19-.54.24-.69.46-1.38.7-2.06.07-.2.08-.58.4-.45s.08.4,0,.61a1.66,1.66,0,0,1-.06.21c-.37,1.07-.73,2.13-1.1,3.19a2.35,2.35,0,0,0-.13,1,3.92,3.92,0,0,1-.1,1.67c-.05.14-.1.34-.24.35s-.17-.21-.22-.34,0-.23-.16-.29a4.26,4.26,0,0,1-1.08,1.7,15.26,15.26,0,0,1,.91-2.58,6.94,6.94,0,0,0,0-2.53c-.57.86-.75,1.94-1.63,2.66a1.75,1.75,0,0,1,.25-1c.39-.86.78-1.72,1.18-2.58.31-.65,0-1.3,0-2a8.59,8.59,0,0,1-1.46,2.42c0-.18,0-.27.05-.35a10.85,10.85,0,0,1,1-2.48,4.92,4.92,0,0,0,.18-2.76c-.59.93-.81,2.06-1.72,2.86a1.71,1.71,0,0,1,.25-.94c.34-.75.64-1.53,1.05-2.25a4.35,4.35,0,0,0,.16-2.78,1.68,1.68,0,0,0-.23.38,17.37,17.37,0,0,1-.85,1.8,3.89,3.89,0,0,0-.76,1.68.35.35,0,0,1-.23.35,4.47,4.47,0,0,1-.16-.57,21,21,0,0,1-.29-3.16c-.08-1.27-.28-2.53-.31-3.8,0-.59-.09-1.18-.12-1.77a.33.33,0,0,1,.29-.39c.24,0,.34.14.37.35s0,.42.06.64c.38-.64.61-1.33,1-1.94.61-1,.17-2,0-3a15.76,15.76,0,0,0-1,2.31,1.59,1.59,0,0,1-.83,1c.4-.7.09-1.38,0-2.07s-.2-1.6-.31-2.51a14.69,14.69,0,0,1-1.78,3.12,1.8,1.8,0,0,1,.24-1c.34-.77.66-1.56,1.07-2.29a3.35,3.35,0,0,0,.16-2.39,11.62,11.62,0,0,0-1.43,4.3c-.09-.58-.49-1-.37-1.69a9.07,9.07,0,0,0-.05-1.93c-.26.28-.38.57-.79.71.45-1.07,1-2,.61-3.21a3.16,3.16,0,0,1-.94,1.28,2.84,2.84,0,0,1,.45-1.33,3.51,3.51,0,0,0,.4-2.73,3.7,3.7,0,0,1,0-.81c0-.73,0-1.46-.07-2.19a4.46,4.46,0,0,0-.51.8,1.64,1.64,0,0,0-.28,1.2,1.49,1.49,0,0,1-.32,1.24c-.59-.84-.4-1.84-.65-2.73-.17.06-.2.27-.45.25a4.41,4.41,0,0,0,.23-2.84c-.23.11-.26.41-.53.48a4.34,4.34,0,0,1,.37-1.19,1.44,1.44,0,0,0,.11-.65c0-.72-.08-1.45-.12-2.17,0-.32-.21-.69-.16-.92a7.45,7.45,0,0,0,0-2.11c-.08-1.16-.18-2.32-.29-3.48C181.84,70.12,181.79,69.25,181.76,68.39ZM58.15,122.7c0-.22.19-.64-.07-.94a4.34,4.34,0,0,1-1-2.52c-.08-.72-.38-.89-1-.56a1.67,1.67,0,0,0-.62.56c-.2.29-.38.6-.57.89a20.93,20.93,0,0,0-3.34,10.48,4.33,4.33,0,0,0,.43,2.5.78.78,0,0,0,1.26.29,8.74,8.74,0,0,0,2.85-3.16A16.49,16.49,0,0,0,58.15,122.7ZM130,76.14a24.31,24.31,0,0,1-2.37-1,.38.38,0,0,0-.18,0,10,10,0,0,0-2.5.29,9.27,9.27,0,0,1-2.2.46,20.34,20.34,0,0,0-4.59.66A58.82,58.82,0,0,0,103,83.13c-.37.24-.75.46-1.2.73a1.47,1.47,0,0,1,1,1l.25-.18a12.52,12.52,0,0,1,4.68-2.24,4,4,0,0,1,1.52-.23c1.26.15,2,.42,2.24,1.39a3.08,3.08,0,0,1,1.27-.34c1.07,0,1.89-.67,2.89-.94a1.47,1.47,0,0,1-.19-2.29,4.84,4.84,0,0,1,.81-.82A14,14,0,0,1,123.76,76,2.86,2.86,0,0,1,126.49,77c.07.09.13.14.25.08A16.25,16.25,0,0,1,130,76.14ZM114.12,50.72c-.37,0-.74,0-1.1.06a4.32,4.32,0,0,0-1.62.42.78.78,0,0,0-.42,1.17,2.37,2.37,0,0,0,.93,1A14.36,14.36,0,0,0,115.33,55a27.27,27.27,0,0,0,6.56,1.43,4.3,4.3,0,0,0,2-.21.67.67,0,0,0,.37-1,1.37,1.37,0,0,0-.33-.42,11.63,11.63,0,0,0-1.52-1.27A15.82,15.82,0,0,0,114.12,50.72ZM62,107.42l-.13.24a20.5,20.5,0,0,1-2.38,3.84,9.46,9.46,0,0,0-1.6,3.81,13.52,13.52,0,0,0-.17,3.54,4.55,4.55,0,0,0,.5,2c.41.73.76.77,1.46.27a3,3,0,0,0,.47-.47,7.21,7.21,0,0,0,1.09-1.78,19.82,19.82,0,0,0,1.7-6.89,10,10,0,0,0-.26-3.53A1.73,1.73,0,0,0,62,107.42Zm136.21.7a1,1,0,0,0-.16.21c-.78,1.9-1.57,3.79-2.34,5.69-1.19,2.93-2.42,5.84-3.78,8.7-.69,1.44-1.34,2.9-1.91,4.4-.7,1.83-1,3.76-1.51,5.62a30.4,30.4,0,0,0-1,9.63,38.67,38.67,0,0,0,2,10.2.85.85,0,0,0,.26.48,36.08,36.08,0,0,1-1.12-8.85c-.19,0-.24.23-.42.18a1,1,0,0,1,.13-.72,3.23,3.23,0,0,0,.33-1.59c0-.36,0-.73.05-1.1a1.43,1.43,0,0,0,0-.25c-.46-.08-.19-.39-.12-.53a12.79,12.79,0,0,0,.5-2.82c-.28.17-.36.47-.74.56.55-1.26,1.25-2.39,1.15-3.79a11.76,11.76,0,0,1-1.38,2,1.66,1.66,0,0,1,.28-1c.37-.64.73-1.28,1.14-1.9a8.71,8.71,0,0,0,.74-2.49,2,2,0,0,0-.37.34.47.47,0,0,1-.45.18,17.25,17.25,0,0,0,2.57-5.82,4.13,4.13,0,0,1-.91.82,4.06,4.06,0,0,1,.69-1.23,9.26,9.26,0,0,0,1.37-2.67l.9-2.63c.23-.65.57-1.26.81-1.92.14-.39.31-.77.42-1.17a2,2,0,0,0,.19-1c-.08-.4.4-.79.56-1.22A62.72,62.72,0,0,0,198.16,108.12ZM113.52,68.58a13.18,13.18,0,0,0,3.09-.21,2.73,2.73,0,0,0,1.23-.57c.38-.33.48-.74.2-1a3.27,3.27,0,0,0-1-.89A15.7,15.7,0,0,0,111,64a9.36,9.36,0,0,0-4.07.33,3.1,3.1,0,0,0-1.18.68.89.89,0,0,0,.11,1.49,4.13,4.13,0,0,0,.58.33A15.33,15.33,0,0,0,113.52,68.58Zm-10.76-2.27h0c-.31,0-.62,0-.93,0A12.45,12.45,0,0,0,97,67.42c-.88.45-.95.9-.27,1.62a2.76,2.76,0,0,0,.37.31,5.23,5.23,0,0,0,1.87.9,15.09,15.09,0,0,0,5.52.51,20.36,20.36,0,0,0,4-.92,3.17,3.17,0,0,0,1.18-.68c.28-.27.24-.38-.12-.49l-.85-.25a9.17,9.17,0,0,1-3.28-1.5,2.57,2.57,0,0,0-1.76-.6ZM63.42,95c.16,0,.32,0,.48,0a16.52,16.52,0,0,0,8.61-4.07,5.29,5.29,0,0,0,1.17-1.49c.24-.47.13-.83-.35-1a4,4,0,0,0-2-.28,13.78,13.78,0,0,0-8.29,4.48,5.65,5.65,0,0,0-.9,1.31c-.24.5-.09.82.44,1A2.6,2.6,0,0,0,63.42,95ZM113.5,55a.94.94,0,0,0-.44-.28,6.07,6.07,0,0,1-2.62-2.05.39.39,0,0,0-.3-.14,22,22,0,0,0-6.46-.68,6.27,6.27,0,0,0-2.44.57.9.9,0,0,0-.47,1.26,2.27,2.27,0,0,0,.84,1,8.45,8.45,0,0,0,3.2,1.09c.76.12,1.53,0,2.28.11a15.85,15.85,0,0,0,3,.06A7.4,7.4,0,0,0,113.5,55ZM75.72,69.53c.43,0,.86-.08,1.28-.16a16.17,16.17,0,0,0,8.09-4.13,4.89,4.89,0,0,0,1-1.31.65.65,0,0,0-.32-1,1.26,1.26,0,0,0-.81-.15c-.4.07-.79.12-1.18.2a17.39,17.39,0,0,0-8.33,4.36,4,4,0,0,0-1.08,1.39.47.47,0,0,0,.35.71A4.36,4.36,0,0,0,75.72,69.53ZM61.63,106.19c0-1.18-.3-1.47-1.11-1.35a2.94,2.94,0,0,0-1.16.54,16.87,16.87,0,0,0-6.2,7.73,3.62,3.62,0,0,0-.33,1.46c0,.5.26.72.76.67a3,3,0,0,0,1-.3,9.57,9.57,0,0,0,2.71-2,25.23,25.23,0,0,0,3.32-4.24A5.52,5.52,0,0,0,61.63,106.19ZM79,101.62v-.22c0-.7-.5-1-1.13-.69a13.71,13.71,0,0,0-4,2.73,16.9,16.9,0,0,0-3.71,4.77,3.86,3.86,0,0,0-.38,1.08c-.08.46.08.65.52.81a1.79,1.79,0,0,0,1.51-.3,15.4,15.4,0,0,0,4.08-3,13.94,13.94,0,0,0,2.69-3.6A3.62,3.62,0,0,0,79,101.62Zm-3.25,6.9c0-.19,0-.49-.16-.59s-.3.18-.44.29a16,16,0,0,1-3,2,3.73,3.73,0,0,1-1.51.49.76.76,0,0,0-.62.34,21.36,21.36,0,0,0-3,5.14,4,4,0,0,0-.37,1.36.92.92,0,0,0,.76,1,1.53,1.53,0,0,0,1.14-.23,12.68,12.68,0,0,0,3.51-3.06,18.46,18.46,0,0,0,3.4-5.72A3.5,3.5,0,0,0,75.72,108.52ZM56.94,136c0-.42,0-.83,0-1.25a11.33,11.33,0,0,0-.51-3.27c0-.11,0-.27-.18-.28s-.17.14-.23.23a10,10,0,0,1-1.88,2.06.77.77,0,0,0-.28.44,23.46,23.46,0,0,0-.62,8.09,5.48,5.48,0,0,0,.6,2.21c.32.56.65.59,1.07.1a5.48,5.48,0,0,0,.89-1.67A22.22,22.22,0,0,0,56.94,136ZM102,55.5a6.28,6.28,0,0,1-1.5-1.13A1,1,0,0,0,100,54a16.59,16.59,0,0,0-6.51.07,9.25,9.25,0,0,0-3.37,1.27c-.7.45-.67,1,0,1.48a4.42,4.42,0,0,0,1.89.83,15,15,0,0,0,5.58-.09,1.16,1.16,0,0,0,.44-.2,18.41,18.41,0,0,1,3.08-1.53ZM83.74,80a16.91,16.91,0,0,1-3.66,1.33,4.16,4.16,0,0,1-1.48.22c-.12,0-.27,0-.29-.16s.15-.16.26-.18c.46-.1.93-.15,1.38-.28a12.92,12.92,0,0,0,3.78-1.47c.19-.12.36-.53.68-.14,0,.05.13,0,.17-.1a3.54,3.54,0,0,0,.6-1c.09-.24,0-.42-.19-.51a4.18,4.18,0,0,0-1.76-.52,14.44,14.44,0,0,0-7.34,2.16,5.52,5.52,0,0,0-1.47,1.34.93.93,0,0,0,.21,1.39,2.32,2.32,0,0,0,1.18.43,10.45,10.45,0,0,0,6.57-1.49A6.82,6.82,0,0,0,83.74,80Zm1.62,19.73v-.35c0-.43-.08-.87-.53-1a1,1,0,0,0-1.14.39c-.38.42-.75.84-1.16,1.22a12.78,12.78,0,0,0-3.28,5.74,6.42,6.42,0,0,0-.33,2.75c.09.76.36.91,1,.59a5,5,0,0,0,1.38-1A15.58,15.58,0,0,0,84.64,103,9.43,9.43,0,0,0,85.36,99.76ZM66.69,95.05c-.21-.09-.38,0-.56.09A15.57,15.57,0,0,0,63,96.8a17.93,17.93,0,0,0-4.9,4.57,4.48,4.48,0,0,0-.72,1.51c-.12.5.1.74.61.7a3.55,3.55,0,0,0,1.06-.29,19.75,19.75,0,0,0,4.33-2.58,2.87,2.87,0,0,0,.73-.82,10.62,10.62,0,0,1,3.21-3.49,1.09,1.09,0,0,0,.45-.83.45.45,0,0,0-.35-.53C67.17,95,66.93,95.08,66.69,95.05Zm45.76,25.49c0,.37,0,.73.29.9s.65,0,.92-.23.36-.3.54-.46a18.43,18.43,0,0,0,3.78-5.42,1.6,1.6,0,0,0,.24-1.42,1.18,1.18,0,0,1,0-.53,9,9,0,0,1,1.06-3.31c.09-.18.18-.35,0-.53a.44.44,0,0,0-.52-.11,4.51,4.51,0,0,0-2.15,1.5,24,24,0,0,0-4,8.71C112.53,120,112.49,120.28,112.45,120.54Zm-47,6.27a4.41,4.41,0,0,0,.22,1.49c.2.6.52.69,1,.33a3.94,3.94,0,0,0,.84-.84,19.09,19.09,0,0,0,3.86-8.67,2.84,2.84,0,0,0,0-1.36c-.14-.43-.37-.5-.7-.21a8.35,8.35,0,0,1-2,1.37.74.74,0,0,0-.31.24A14.81,14.81,0,0,0,65.43,126.81Zm130.28,11.88a21.34,21.34,0,0,0-.49,2.51c-.19,1.25-.32,2.52-.47,3.78s-.26,2.72-.32,4.08a21.68,21.68,0,0,0,.55,5.2c.66,3.38,1.6,6.69,2.48,10a66.11,66.11,0,0,0,3.5,10.54c.07.15.08.32.23.42a1.74,1.74,0,0,0,.1-1.82,32.17,32.17,0,0,1-1.55-3.7,57.36,57.36,0,0,1-2.7-10c-.3-2-.62-4-.85-6-.14-1.19-.26-2.38-.35-3.58-.11-1.66-.21-3.33-.27-5a52.51,52.51,0,0,1,.19-5.88A1.05,1.05,0,0,0,195.71,138.69ZM126.14,105.4c0-.64-.21-.85-.84-.73a3.89,3.89,0,0,0-2,1,17.78,17.78,0,0,0-4,5.35,9.69,9.69,0,0,0-.67,2.1,1.09,1.09,0,0,0,.32,1.14c.35.29.71.11,1,0a6.16,6.16,0,0,0,2.21-1.6,15.91,15.91,0,0,0,3.72-6.53A2.62,2.62,0,0,0,126.14,105.4ZM85.81,92a6,6,0,0,0,1.28-.08A9.27,9.27,0,0,0,91.91,90c.53-.47,1.09-.9,1.65-1.35a2,2,0,0,0,.54-.57.91.91,0,0,0-.2-1.17,1.69,1.69,0,0,0-1.22-.4A14,14,0,0,0,88,87.75,9.73,9.73,0,0,0,84.07,91c-.32.46-.22.72.33.86A6.16,6.16,0,0,0,85.81,92Zm27.51,23.55a2.6,2.6,0,0,0-.85.62,18,18,0,0,0-5.07,9.28,4.59,4.59,0,0,0-.11,2.15c.16.63.44.77,1,.52a4.89,4.89,0,0,0,1.67-1.36,16.75,16.75,0,0,0,2.62-4.35c0-.09.12-.18,0-.31a2.39,2.39,0,0,0-.4.56,15.36,15.36,0,0,1-1.63,2.21c-.12.13-.33.29-.45.17s0-.31.15-.44a19.85,19.85,0,0,0,1.57-2.19c.37-.57.37-.57,0-1.17-.78.92-1.24,2.13-2.46,2.63a1.29,1.29,0,0,1,.36-.61,16.31,16.31,0,0,0,1.92-2.6,1.55,1.55,0,0,0,.25-.61,9.76,9.76,0,0,1,.33-1.42A28.1,28.1,0,0,1,113.32,115.52Zm6.35-52.22c-.39,0-.76.05-1.13.12s-.66,0-.77.41a1,1,0,0,0,.34.92,3,3,0,0,0,.31.31,7.64,7.64,0,0,0,1.82,1.09,19.42,19.42,0,0,0,7,1.56,3.15,3.15,0,0,0,1.39-.21c.37-.16.46-.4.21-.69a4.85,4.85,0,0,0-1.19-1.16A19.64,19.64,0,0,0,119.67,63.3Zm2.18-14.67c-.12,0-.24,0-.36,0-.66,0-.84.39-.48.94a4.5,4.5,0,0,0,.62.75,21.13,21.13,0,0,0,7.53,4.86,4.35,4.35,0,0,0,1.34.3c.56,0,.81-.28.67-.81a3.1,3.1,0,0,0-.84-1.57,21.47,21.47,0,0,0-6.34-4A5.44,5.44,0,0,0,121.85,48.63Zm20.63,13.08c-.12-.3-.18-.47-.25-.65a14,14,0,0,0-2.42-3.8,17.69,17.69,0,0,0-5-4.33c-.38-.21-.83-.51-1.24-.2s-.29.81-.23,1.24a9,9,0,0,0,1.44,3.36,1.8,1.8,0,0,0,.9.8c.58.23,1.13.52,1.68.8C139.06,59.78,140.72,60.69,142.48,61.71ZM80,98.07a11.48,11.48,0,0,0,4.5-1.36,1.84,1.84,0,0,0,.38-.31c.89-.86,1.77-1.74,2.67-2.59a.51.51,0,0,0,.05-.81.9.9,0,0,0-.62-.39,8.67,8.67,0,0,0-2.6,0,11.07,11.07,0,0,0-5.22,3.13,3.16,3.16,0,0,0-.62,1,.8.8,0,0,0,.54,1.19A3.2,3.2,0,0,0,80,98.07Zm12.9-23.79A17.21,17.21,0,0,0,100.24,73a3.64,3.64,0,0,0,1.26-.81c.11-.11.26-.23.19-.41a.5.5,0,0,0-.43-.34l-.66-.09A12.65,12.65,0,0,0,97,70.83c-.44,0-.88,0-1.32.09a17.18,17.18,0,0,0-6.24,1.72,3.3,3.3,0,0,0-.59.38c-.24.2-.21.41,0,.57a2.93,2.93,0,0,0,.94.37A16.25,16.25,0,0,0,92.92,74.28Zm-30.1,30.88c0,.77.18,1.18.57,1.39a1.15,1.15,0,0,0,1.24-.19,7.69,7.69,0,0,0,2.05-1.93,19.13,19.13,0,0,0,2.92-5.94,3.33,3.33,0,0,0,.19-1.44.77.77,0,0,0-.47-.69c-.33-.12-.48.16-.64.36a92.16,92.16,0,0,0-5.56,7.62A1.62,1.62,0,0,0,62.82,105.16ZM130.15,58a6.94,6.94,0,0,0-2.4.19c-.54.17-.61.46-.27.89a3.43,3.43,0,0,0,.87.75,14,14,0,0,0,8,2.23,3.07,3.07,0,0,0,1.12-.23c.31-.13.4-.25.08-.51a15.81,15.81,0,0,1-1.9-1.85.85.85,0,0,0-.39-.28A11,11,0,0,0,130.15,58ZM105.54,79.56A10.64,10.64,0,0,0,110.67,78a3.42,3.42,0,0,0,1.15-1.15.55.55,0,0,0-.19-.83,3.31,3.31,0,0,0-2.15-.45,16.58,16.58,0,0,0-6.63,1.75,3.56,3.56,0,0,0-1.18.85c-.27.33-.24.56.09.83a2.1,2.1,0,0,0,1,.43A8.61,8.61,0,0,0,105.54,79.56Zm34-44.85c0-.11,0-.2,0-.29a1.65,1.65,0,0,0,0-.31,20.59,20.59,0,0,0-3.37-7.26,9.2,9.2,0,0,0-1-1.09,3.32,3.32,0,0,0-.95-.72.72.72,0,0,0-1,.22,1,1,0,0,0-.1,1.12,28.55,28.55,0,0,0,3.58,6.86,8.16,8.16,0,0,0,1.82,2c.23.18.51.44.78.31S139.5,35,139.53,34.71Zm-56,49.05a.67.67,0,0,0-.56-.71,1.32,1.32,0,0,0-1.09.2,15.35,15.35,0,0,0-4.35,3.67,10.68,10.68,0,0,0-2,3.58c-.17.55,0,.71.55.64a4.07,4.07,0,0,0,1.56-.49,13.6,13.6,0,0,0,5.65-6A2,2,0,0,0,83.48,83.76Zm35.2,22c.1,0,.32,0,.53-.09a16.62,16.62,0,0,0,6.57-3.25,4.74,4.74,0,0,0,1.1-1.26,2.3,2.3,0,0,0,.27-.6c.14-.55-.1-.88-.67-.87a10.47,10.47,0,0,0-1.36.15,11.2,11.2,0,0,0-5,2.5,7.8,7.8,0,0,0-2.13,2.51C117.64,105.55,117.81,105.8,118.68,105.78Zm-2.05-23.85.32-.1a55.86,55.86,0,0,1,6.8-2.26c.14,0,.25-.08.3-.23a3.51,3.51,0,0,1,1.58-1.67c.38-.23.38-.36,0-.6a3.21,3.21,0,0,0-2.33-.5,13.94,13.94,0,0,0-6.81,3.3,3.35,3.35,0,0,0-.61.69c-.17.27-.33.56-.16.87S116.26,81.85,116.63,81.93ZM82.89,61.29a22.38,22.38,0,0,0,8.62-2.42,2.69,2.69,0,0,0,.44-.31c.07-.06.19-.12.15-.24s-.15-.08-.23-.1A6.27,6.27,0,0,1,90,57.47a.71.71,0,0,0-.43-.1,15.85,15.85,0,0,0-7.7,2.35,2.69,2.69,0,0,0-.85.76c-.24.33-.19.49.21.61A6.21,6.21,0,0,0,82.89,61.29ZM157.47,98a17.44,17.44,0,0,0,2.47-.19,8.19,8.19,0,0,0,2.73-.85c.56-.3.59-.59.1-1a3.84,3.84,0,0,0-1.5-.81,12.68,12.68,0,0,0-2.67-.34,13.69,13.69,0,0,0-3.92.54,3.88,3.88,0,0,0-1.54.75c-.59.47-.52.94.16,1.23a6.65,6.65,0,0,0,.75.26A14.67,14.67,0,0,0,157.47,98ZM101.33,84.51a2.1,2.1,0,0,0-1.19.42c-.88.59-1.79,1.15-2.63,1.8A12.76,12.76,0,0,0,94,91.58s0,.06,0,.09c-.1.42,0,.54.44.52a4.67,4.67,0,0,0,1.92-.62,13.94,13.94,0,0,0,4.78-4.22,9.23,9.23,0,0,0,.94-1.75C102.38,85,102.08,84.51,101.33,84.51Zm33.94-52.25a.85.85,0,0,0-.19-.46,34.84,34.84,0,0,1-1.72-3.25,9.56,9.56,0,0,1-1-3.34.64.64,0,0,0-.13-.32,8,8,0,0,0-2.71-2.31c-.35-.16-.75-.5-1.1-.2s-.26.78-.2,1.21a3.6,3.6,0,0,0,.44,1.24,23.13,23.13,0,0,0,4.92,6.4A4.74,4.74,0,0,0,135.27,32.26Zm-.64,3.27a5.7,5.7,0,0,0,1.11,2.88,22.12,22.12,0,0,0,4.42,4.33,5.37,5.37,0,0,0,1.29.75c.2.08.46.24.62,0s0-.38-.16-.56c-.7-1.21-1.47-2.4-2.09-3.65a9.56,9.56,0,0,0-3.92-3.85,2.17,2.17,0,0,0-.77-.32C134.81,35.09,134.6,35.18,134.63,35.53ZM118.32,60.35a13.2,13.2,0,0,0,4.7-.87,2.53,2.53,0,0,0,1-.7.41.41,0,0,0,0-.59,1.82,1.82,0,0,0-1.39-.76,24.29,24.29,0,0,0-3.19.1,13.49,13.49,0,0,0-4.29,1c-.35.16-.86.31-.82.76s.54.51.89.63A10.32,10.32,0,0,0,118.32,60.35Zm16.61,10.26c.61,0,1.23-.06,1.85-.12a3.24,3.24,0,0,0,1.48-.42c.29-.2.33-.44.05-.64A6.51,6.51,0,0,0,135,67.7c-.49,0-1-.16-1.45-.2a7.65,7.65,0,0,0-4.19.63c-.32.15-.78.27-.78.69s.47.51.8.65A14,14,0,0,0,134.93,70.61ZM102.81,91.53c0-.77-.49-1.07-1.18-.71l-.16.08a15.76,15.76,0,0,0-4.12,3.6,9,9,0,0,0-1.75,3.15c-.16.59.17.93.76.77a3.31,3.31,0,0,0,.66-.25,14.61,14.61,0,0,0,5.51-5.63A2.1,2.1,0,0,0,102.81,91.53ZM84.36,82.19a3.18,3.18,0,0,0,1.56.17,13.4,13.4,0,0,0,4.45-1.42,15.36,15.36,0,0,0,4.81-3.19,2.61,2.61,0,0,0,.57-.79c0-.11.1-.22-.07-.29a2.12,2.12,0,0,0-1.9-.13c-3,1.45-5.7,3.3-8.5,5C85,81.75,84.72,82,84.36,82.19Zm20.13-2-.74,0a4.74,4.74,0,0,1-2.24-.62.59.59,0,0,0-.61-.06A15.07,15.07,0,0,0,96.36,82,7.5,7.5,0,0,0,95,83.49c-.11.17-.3.35-.2.56s.39.17.6.17a10.26,10.26,0,0,0,2.27-.31,13.75,13.75,0,0,0,6.21-3A2.63,2.63,0,0,0,104.49,80.21Zm2.16,37a2.73,2.73,0,0,0,1-.25,13.53,13.53,0,0,0,5.72-4.48,3.3,3.3,0,0,0,.34-.57c.23-.51.06-.81-.5-.83a2.28,2.28,0,0,0-1,.15,11.43,11.43,0,0,0-5.54,4.52,3.35,3.35,0,0,0-.44,1C106.15,117.15,106.22,117.24,106.65,117.23Zm44.77-63.44c0-.08,0-.29-.06-.49a18.3,18.3,0,0,0-3.1-7.1,3.42,3.42,0,0,0-.59-.67.79.79,0,0,0-.85-.22.7.7,0,0,0-.38.74,8.51,8.51,0,0,0,.36,2.4A17,17,0,0,0,149,52.86a4.44,4.44,0,0,0,1.68,1.48C151.33,54.65,151.43,54.58,151.42,53.79ZM104,87.31a5.72,5.72,0,0,0,3.91-1.4,16.07,16.07,0,0,1,2.39-1.6,1.34,1.34,0,0,0,.37-.25.45.45,0,0,0-.13-.79,3.3,3.3,0,0,0-2.18-.35,11.94,11.94,0,0,0-4.9,2.26,3.44,3.44,0,0,0-1.05,1.4.36.36,0,0,0,.24.55A3.47,3.47,0,0,0,104,87.31Zm41.31,6.33a14,14,0,0,0,2.16-.15,2.38,2.38,0,0,0,1.36-.6.4.4,0,0,0,0-.67,2.88,2.88,0,0,0-1.43-.73,15.86,15.86,0,0,0-6.32-.39,7.15,7.15,0,0,0-2.48.76c-.33.18-.3.31,0,.48a6.83,6.83,0,0,0,1.34.57A19.26,19.26,0,0,0,145.28,93.64Zm13.48-30.43a25.91,25.91,0,0,0-.86-5.72,3.58,3.58,0,0,0-.52-1.12c-.36-.52-.64-.5-.91.08a5.19,5.19,0,0,0-.38,1.4,10.84,10.84,0,0,0,.43,4.63,5.37,5.37,0,0,0,1.65,3.1c.26.2.32.17.39-.11A12.83,12.83,0,0,0,158.76,63.21Zm-15,61.36c-.25.09-.45.16-.64.25a14.33,14.33,0,0,0-3.28,2.16,1.77,1.77,0,0,1-.77.48c0-.33,0-.36.35-.63a14.51,14.51,0,0,1,3.35-2.29c.26-.12.55-.2.83-.31.11,0,.31.17.33-.11a.46.46,0,0,0-.25-.52,1.07,1.07,0,0,0-.43-.09,2.53,2.53,0,0,0-1.26.34,14.08,14.08,0,0,0-3.1,2.26A10.7,10.7,0,0,0,136.7,129a3.41,3.41,0,0,0-.36,1.09c0,.27,0,.52.36.47a3.93,3.93,0,0,0,2.53-1.12,48.94,48.94,0,0,1,4.15-4.37A1.08,1.08,0,0,0,143.8,124.57ZM79.11,83l-.48.07A8.12,8.12,0,0,1,75.16,83a2.42,2.42,0,0,0-1.66.1l-.33.11a11.48,11.48,0,0,0-4,2.2c-.2.19-.52.38-.41.68s.47.29.76.32a10.15,10.15,0,0,0,2.91-.18,13.81,13.81,0,0,0,4.84-1.6A6.16,6.16,0,0,0,79.11,83ZM96.33,94.75c-.15,0-.22.07-.3.13a49.47,49.47,0,0,0-6,5.79,2,2,0,0,0-.49,1.34c0,.84.41,1.13,1.19.79A10.85,10.85,0,0,0,95,98.93a.3.3,0,0,0,0-.33,1.6,1.6,0,0,1,0-1.12,8.15,8.15,0,0,1,1.07-2.27C96.22,95.08,96.38,95,96.33,94.75Zm3.14-34.83a13.88,13.88,0,0,0,6.08-1.55,4,4,0,0,0,1.33-.94c.2-.23.51-.52.36-.79s-.51-.09-.79-.07l-.13,0-3.35.66a49.57,49.57,0,0,0-5.36,1.38c-.23.07-.4.17-.42.44a.52.52,0,0,0,.32.53,2.41,2.41,0,0,0,.42.16A6.1,6.1,0,0,0,99.47,59.92ZM128.6,97.31a16.85,16.85,0,0,0,2.69-.35,18.29,18.29,0,0,0,5.78-2c.3-.17.78-.36.69-.7s-.59-.41-1-.48a7,7,0,0,0-2.84.16,18.14,18.14,0,0,0-5,1.91,5.19,5.19,0,0,0-1.24,1q-.3.34.15.42C128.14,97.27,128.42,97.29,128.6,97.31Zm-23.14-6.72a2,2,0,0,0,.32,0,3.83,3.83,0,0,0,.64-.18,16.63,16.63,0,0,0,6.68-5,2.09,2.09,0,0,0,.43-.82c0-.15.08-.34,0-.46s-.3,0-.43.07c-1.65.73-3.25,1.56-4.83,2.43a8.53,8.53,0,0,0-2.61,2.28A3.71,3.71,0,0,0,105,90C104.83,90.48,104.94,90.61,105.46,90.59Zm29.3,48.61a.85.85,0,0,1,.21-.73c.4-.67.74-1.38,1.09-2.08.11-.21,0-.67.5-.56a.32.32,0,0,0,.05-.15,16.56,16.56,0,0,1,.48-2.26c-.29,0-.41.22-.56.38a15.24,15.24,0,0,0-3.83,7,6.27,6.27,0,0,0-.21,2c0,.51.15.56.6.3a4.16,4.16,0,0,0,.91-.7,15.41,15.41,0,0,0,2.54-3.51.85.85,0,0,0,0-.7c-.67.92-.92,2.06-1.85,2.78-.15-.31,0-.49.12-.67.55-.86,1-1.77,1.49-2.67a2.4,2.4,0,0,0,.24-1.25C136,137.33,135.69,138.45,134.76,139.2Zm20.08-44.51a2.66,2.66,0,0,0-1.62-.58,13.36,13.36,0,0,0-6.51,1.42,6.57,6.57,0,0,0-1.53,1c-.11.09-.27.19-.24.35s.22.16.35.2a3.34,3.34,0,0,0,.43.1,16.15,16.15,0,0,0,6.19-.48.36.36,0,0,0,.3-.28,1.89,1.89,0,0,1,.81-.91A7,7,0,0,1,154.84,94.69ZM123,74.69c-1.23,0-2.47-.09-3.7-.22a10.39,10.39,0,0,1-2.14-.35c-.14-.05-.29-.14-.26-.31s.21-.12.33-.09a25.81,25.81,0,0,0,6.08.51c.26,0,.61-.16.72.29,0,.09.15,0,.24,0l.52-.07c.12,0,.28,0,.31-.12s-.08-.22-.16-.29A4.37,4.37,0,0,0,123,73a14.24,14.24,0,0,0-4.16-.45,9.86,9.86,0,0,0-4,.93c-.2.11-.52.18-.5.44s.33.31.54.41a8.11,8.11,0,0,0,1.85.58,10.06,10.06,0,0,0,3.07.34C120.83,75.11,121.92,74.9,123,74.69ZM105.2,126.41c0-.58-.26-.76-.82-.55a1.43,1.43,0,0,0-.51.34,13.83,13.83,0,0,0-3.25,5,9,9,0,0,0-.67,2.7c0,.47.1.54.51.32a4.6,4.6,0,0,0,1.46-1.28A19.85,19.85,0,0,0,105,127.5,3.11,3.11,0,0,0,105.2,126.41Zm41.64-51.28a5.7,5.7,0,0,0,1-.07c.56-.13.66-.42.29-.87a2.72,2.72,0,0,0-.92-.69,13.63,13.63,0,0,0-6.11-1.39,3.08,3.08,0,0,0-1,.18c-.37.11-.41.39-.14.66a3.74,3.74,0,0,0,.76.54A13.47,13.47,0,0,0,146.84,75.13Zm-1-29.38c.35-.92.76-1.25,1.42-1.1.4.09.4-.07.4-.36a19.91,19.91,0,0,0-.44-3.78,10.75,10.75,0,0,0-.54-1.92.73.73,0,0,0-.69-.46c-.32,0-.45.18-.57.41a8.58,8.58,0,0,0-.43,1.2C144.24,41.85,145,43.74,145.81,45.75Zm-45,79.24c0,.43.16.58.55.52a3,3,0,0,0,1.33-.59,11.37,11.37,0,0,0,3.47-4,2.79,2.79,0,0,0,.25-.66c.15-.58-.12-.87-.7-.73a4,4,0,0,0-1.51.71,10.73,10.73,0,0,0-3.15,4A2.86,2.86,0,0,0,100.84,125Zm39.44,8.76c-.25.38-.45.73-.68,1.05s-.39.73-1,.89c.57-1.35,1.79-2.3,1.85-3.87-.13.18-.22.29-.3.42-.46.7-.91,1.41-1.38,2.11a2.18,2.18,0,0,1-.3.38.2.2,0,0,1-.24.06c-.1-.06-.07-.16,0-.24a3,3,0,0,1,.25-.47c.52-.82,1.06-1.63,1.58-2.46a7.86,7.86,0,0,0,.89-1.67c.11-.3-.05-.29-.2-.27a1.64,1.64,0,0,0-1.14.61,9.61,9.61,0,0,0-1.91,3.27,11.51,11.51,0,0,0-.4,5.34c0,.21.06.52.39.23a8.15,8.15,0,0,0,1.64-2.42c-.25.15-.42.41-.82.42a5.29,5.29,0,0,1,.28-.5,11.8,11.8,0,0,0,1-1.46c.13-.24.18-.57.37-.69S140.38,134.06,140.28,133.75Zm57.29,21.75h0c0,.32,0,.64.1.95.25,1.52.51,3.05.78,4.57a60.39,60.39,0,0,0,2.11,8.27c.58,1.73,1.22,3.44,1.79,5.17a6.27,6.27,0,0,0,.77,1.53c.15.21.28.31.54.16s.15-.31.08-.48c-.28-.74-.58-1.46-.84-2.2-1.67-4.65-3-9.38-4.35-14.15C198.16,158.06,197.88,156.77,197.57,155.5Zm-53-111.2,0-.22a8.38,8.38,0,0,1-.16-4.47.58.58,0,0,0,0-.39,17.91,17.91,0,0,0-1.9-4.18,2.79,2.79,0,0,0-.54-.65c-.21-.18-.35-.17-.44.12a2.66,2.66,0,0,0-.11,1.05,19.25,19.25,0,0,0,2.36,7.56A4.49,4.49,0,0,0,144.55,44.3Zm8.8,73.15a6.72,6.72,0,0,1-1.79-.2,1.34,1.34,0,0,0-.74,0,11.48,11.48,0,0,0-4.9,2.14,8.71,8.71,0,0,0-1.33,1.17c-.2.24-.18.4.17.42a5.35,5.35,0,0,0,1.06,0,18.68,18.68,0,0,0,6.94-2.88A1.91,1.91,0,0,0,153.35,117.45Zm2.29-55.84a.9.9,0,0,0,0-.47,8.3,8.3,0,0,1,.1-4.17,2.87,2.87,0,0,0,0-1.76c-.07-.24-.11-.49-.18-.73a9.16,9.16,0,0,0-.92-2.43c-.16-.25-.34-.57-.67-.49s-.25.43-.29.68a14.83,14.83,0,0,0,1.55,8.85A1.2,1.2,0,0,0,155.64,61.61Zm5.5,54.79a8.89,8.89,0,0,0-5.84,2.69,2.22,2.22,0,0,0-.38.65c-.11.32,0,.48.33.5a3.89,3.89,0,0,0,1-.06,16,16,0,0,0,5.67-2.48,5.25,5.25,0,0,0,.66-.59c.2-.21.17-.38-.12-.49A3.2,3.2,0,0,0,161.14,116.4ZM145.8,81.24A12.46,12.46,0,0,1,144,79.59c-.07-.09-.23-.12-.35-.16a18.83,18.83,0,0,0-5.78-.76c-.42,0-.95,0-1.1.49s.33.71.63,1c.09.08.19.26.37.13s.37-.06.55,0a25.35,25.35,0,0,0,3.35.63,12.54,12.54,0,0,0,2,.16c.14,0,.32,0,.33.19s-.16.22-.31.24a2,2,0,0,1-.35,0,15.07,15.07,0,0,1-2.12-.21c-.79-.12-1.58-.26-2.37-.39A10.17,10.17,0,0,0,145.8,81.24Zm-66.34,34.6c0,.12,0,.24,0,.35,0,.43.16.5.52.28a3.55,3.55,0,0,0,.78-.66,13.9,13.9,0,0,0,2.29-3.61,5.13,5.13,0,0,0,.48-1.92c0-.16.07-.35-.11-.45a.38.38,0,0,1-.16-.53c0-.09.08-.2,0-.28a.3.3,0,0,0-.33,0,2.42,2.42,0,0,0-.79.7,13.89,13.89,0,0,0-2,3.45A7.84,7.84,0,0,0,79.46,115.84Zm115.11,39.64c.07.5.15,1,.19,1.51a34.63,34.63,0,0,0,.66,4.2c.66,2.95,1.6,5.83,2.52,8.71.54,1.69,1.3,3.3,1.75,5a14.52,14.52,0,0,0,1.18,2.75c.17.36.46.21.68.11s0-.27-.06-.39a53,53,0,0,1-3.38-8.69C197,164.28,195.6,159.92,194.57,155.48ZM142.08,131.1,142,131a23.7,23.7,0,0,0,2-3.51c.08-.17.22-.22.39,0s.44,0,.46,0a1.1,1.1,0,0,0-.08-1c-.15-.29-.38-.15-.58,0a4.25,4.25,0,0,0-1.94,2,17,17,0,0,0-1.45,4.72,4,4,0,0,0,0,.92.57.57,0,0,0,.38.46c.18.08.29-.1.4-.21a8.13,8.13,0,0,0,1.1-1.38,5,5,0,0,0,.71-1.35c-.16.17-.29.36-.43.54a.69.69,0,0,1-.63.35,12.88,12.88,0,0,0,2.07-4.77C143.63,128.93,143.34,130.35,142.08,131.1Zm14.41-57.38a1,1,0,0,0,0-.68,12.14,12.14,0,0,0-3.66-5.61,4.34,4.34,0,0,0-1.12-.71.53.53,0,0,0-.58,0,1.35,1.35,0,0,0-.07,1.62,70.24,70.24,0,0,1,5.12,5.09C156.25,73.56,156.33,73.7,156.49,73.72Zm-9.66,52c0,.59.07.68.45.56a3.21,3.21,0,0,0,1.08-.61,14.39,14.39,0,0,0,3.62-4.33,5.9,5.9,0,0,0,.37-.85c0-.12.11-.28,0-.38s-.24,0-.35.09c-.81.42-1.63.82-2.42,1.29A5.76,5.76,0,0,0,146.83,125.69Zm6.36-8.9a6.46,6.46,0,0,0,2.23-.29,13.92,13.92,0,0,0,3.54-1.24c.18-.11.45-.22.42-.47s-.3-.21-.47-.28a1.43,1.43,0,0,0-.49-.17,11.74,11.74,0,0,0-5,.54,4.74,4.74,0,0,0-1.91,1.09c-.35.35-.32.45.14.63A5.58,5.58,0,0,0,153.19,116.79ZM89,102.08l-.22.27c-1.18,1.54-2.33,3.09-3.45,4.67a1.76,1.76,0,0,0-.2,1.6c.08.33.31.41.61.29a2.55,2.55,0,0,0,.84-.57,18.61,18.61,0,0,0,3.23-4.63c0-.08.15-.21,0-.26C89.15,103.23,89,102.72,89,102.08ZM149,56.33a2.07,2.07,0,0,0,.21.81,15.28,15.28,0,0,0,3.44,4.57,3.82,3.82,0,0,0,1,.65c.22.1.31,0,.29-.2a2.77,2.77,0,0,0-.28-1,16.77,16.77,0,0,0-2.84-4.26,3.74,3.74,0,0,0-.93-.75,1.89,1.89,0,0,0-.44-.19C149.19,55.86,149,56,149,56.33Zm-7,14c0-.19-.09-.31-.18-.43a15.47,15.47,0,0,0-5-4.39,2.51,2.51,0,0,0-.83-.3c-.27,0-.42.06-.44.36a1.34,1.34,0,0,0,.34.93,12,12,0,0,0,5.63,3.74A1.1,1.1,0,0,0,142.07,70.37Zm-6.59,4.46a2.12,2.12,0,0,0-.65-.54,10.75,10.75,0,0,0-7-1.57,4.1,4.1,0,0,0-1.28.33c-.13.06-.32.15-.17.32.37.42.72.88,1.37.86a25.83,25.83,0,0,1,2.92.06C132.27,74.4,133.84,74.61,135.48,74.83Zm25.65-7.18a17.29,17.29,0,0,0,.55,4.29,6.57,6.57,0,0,0,.74,1.8c.11.16.19.44.41.4s.21-.33.25-.53a6.14,6.14,0,0,0,.12-1,16.71,16.71,0,0,0-1.15-6,6.19,6.19,0,0,0-.32-.63c-.07-.13-.16-.28-.33-.26s-.15.22-.18.35A11.2,11.2,0,0,0,161.13,67.65ZM124.74,79.28a5.53,5.53,0,0,0,1.23-.21,51.17,51.17,0,0,1,7.88-1.19c.16,0,.42.09.46-.12s-.14-.38-.31-.5a.73.73,0,0,0-.33-.12,13.24,13.24,0,0,1-1.94-.44,2.21,2.21,0,0,0-.92-.09,12.54,12.54,0,0,0-5,1.63A2.93,2.93,0,0,0,124.74,79.28Zm25.47-11.67c0-.33.11-.57,0-.81a15.1,15.1,0,0,0-3.45-4.52,3.16,3.16,0,0,0-1-.57c-.2-.06-.48-.1-.47.21,0,.81,0,1.64.78,2.22s1.51,1.18,2.25,1.8S149.53,67,150.21,67.61Zm13.74,46-.75,0a4,4,0,0,0-.48.08c-.15,0-.36.05-.4.22s.16.26.28.36l.26.17a13,13,0,0,0,5.6,1.65c.26,0,.63.1.73-.24s-.18-.56-.43-.75l-.11-.08A10.78,10.78,0,0,0,164,113.62ZM143.24,78.23c-.19-.31.1-.67-.29-.8A31.92,31.92,0,0,0,137.51,76c-.14,0-.23,0-.24.15-.05.64-.5.85-1,1a4.5,4.5,0,0,1-1.1.08c-.19,0-.24,0-.2.26s.25.35.52.37C138,78,140.59,77.61,143.24,78.23Zm5.24-24.71c0-.09,0-.12,0-.15-1.23-2-2.46-4.06-3.76-6a1.92,1.92,0,0,0-.9-.69c-.39-.17-.53-.08-.59.34a1.27,1.27,0,0,0,.15.85,19,19,0,0,0,4,4.92A4.92,4.92,0,0,0,148.48,53.52ZM133.83,78.74l0-.1c-.1,0-.21,0-.31,0a57.59,57.59,0,0,0-8.65,1.43c-.41.09-.2.32-.07.47a1.75,1.75,0,0,0,.91.43,6.69,6.69,0,0,0,3.63-.15,11.49,11.49,0,0,0,2.77-1.06c-1,.28-2,.53-3,.71a5.5,5.5,0,0,1-1.76.18c-.12,0-.3-.05-.3-.21s.18-.17.31-.18a17.62,17.62,0,0,0,5.07-1.15c.13,0,.31-.14.36,0,.14.36.3.14.45,0S133.63,78.88,133.83,78.74Zm59.4,71.37a4.78,4.78,0,0,0-.4,2.33c.17,1.6.25,3.22.42,4.82a18.35,18.35,0,0,0,.89,4.87c.55,1.38.94,2.83,1.58,4.19a5.5,5.5,0,0,1,.27.84,6.53,6.53,0,0,0,.83,1.56,70.61,70.61,0,0,1-2.62-9.09A50.82,50.82,0,0,1,193.23,150.11Zm-33.52-78.7c-.07-.16-.08-.22-.11-.27q-1.72-3.24-3.71-6.33a1,1,0,0,0-1-.43.23.23,0,0,0-.25.21,1.35,1.35,0,0,0,.11,1,31.07,31.07,0,0,0,3.34,4.4A8.19,8.19,0,0,0,159.71,71.41Zm-14.62,8.42c0,.18.17.24.27.32a11.71,11.71,0,0,0,4.55,2.48,5.6,5.6,0,0,0,2.22.32c.22,0,.52,0,.57-.29s-.22-.35-.42-.44c-1.15-.51-2.33-.93-3.52-1.33A34.39,34.39,0,0,0,145.09,79.83ZM191.19,89c.25-.46.54-.77.47-1.21-.11-.74-.23-1.47-.36-2.2q-.48-2.79-1-5.58c-.12-.67-.27-1.32-.42-2.08a1.45,1.45,0,0,0-.33,1.2,4.72,4.72,0,0,1,.3,1.35,19.84,19.84,0,0,0,.33,2.57c.07,1,.31,2,.48,3Zm-67.11,15.52c-.88.41-1.76.75-2.59,1.18a12.15,12.15,0,0,0-2.22,1.83c-.69.62-1.35,1.26-2,1.9.44-.2.85-.41,1.28-.57a1,1,0,0,1,1,.08c.26.23.36.12.52-.11a16.2,16.2,0,0,1,3.81-4.11C123.94,104.61,124,104.53,124.08,104.47ZM91.91,76.67c-.1-.07-.18,0-.26,0a16.24,16.24,0,0,0-6.32,3.06,6,6,0,0,0-1.09,1,1.17,1.17,0,0,0-.33.84C86.57,79.9,89.21,78.24,91.91,76.67Zm94.7,4.14.08,0c.39-.82.74-1.66,1.18-2.45a3.84,3.84,0,0,0,.45-3,6.47,6.47,0,0,0-.22-1.08l-.63,1.55a20.25,20.25,0,0,1-.89,2.15,1.29,1.29,0,0,0-.23.84C186.45,79.49,186.52,80.15,186.61,80.81Zm-57.43-5.72a9.14,9.14,0,0,0,1.83.75,12,12,0,0,0,4.45.78,2.17,2.17,0,0,0,.94-.19.3.3,0,0,0,.19-.36.27.27,0,0,0-.27-.24l-.92-.15A44.69,44.69,0,0,0,129.18,75.09Zm17.13-9.68a2.2,2.2,0,0,0,.06.22,16.76,16.76,0,0,0,3.45,4.4,2.69,2.69,0,0,0,.47.34c.12.07.26.21.4.1s0-.27,0-.4c-.1-.37-.22-.73-.31-1.11a.81.81,0,0,0-.19-.38A32.76,32.76,0,0,0,146.31,65.41Zm36.88,12.68a.66.66,0,0,0,.25-.38c.38-1,.69-2,1.15-2.92.55-1.1.17-2.15,0-3.23-.42.92-.72,1.88-1.18,2.76C182.82,75.55,183.25,76.8,183.19,78.09Zm-3,29.1c-.22.17-.2.42-.49.5a3.1,3.1,0,0,0-.18-2.64c-.38,1.34-.37,1.34-.17,2.12.51,1.94,1.18,3.84,1.85,5.73a5.12,5.12,0,0,0,.19.5,1.76,1.76,0,0,0,.11-1.26c-.15-.43-.24-.88-.36-1.32C180.79,109.62,180.47,108.42,180.15,107.19Zm8.52-17.46a2.86,2.86,0,0,0-.37.67,3.81,3.81,0,0,0-.46,2.84c.16.77.21,1.56.32,2.41a4.33,4.33,0,0,0,.84-3.41C188.9,91.42,188.79,90.61,188.67,89.73Zm1.48,11.06-.1,0a13.31,13.31,0,0,1-.64,1.38,4.91,4.91,0,0,0-.67,3.58,2,2,0,0,0,.12.74c.4-1.13.92-2.16,1.35-3.22a1.08,1.08,0,0,0,.15-.55Zm-.09-14.19a1.36,1.36,0,0,0-.14.11,3.93,3.93,0,0,0-.55,3.08,3.08,3.08,0,0,1,.08.53l.24,1.79a11.13,11.13,0,0,0,.86-1.68.71.71,0,0,0,0-.35C190.42,88.93,190.24,87.79,190.06,86.6Zm-13.93,4.57a8.33,8.33,0,0,1-.28,1,2.05,2.05,0,0,0,0,1.34c.22.85.39,1.72.58,2.59.06.27.11.55.18.82a3.07,3.07,0,0,0,.24.82,4.78,4.78,0,0,0-.06-4l-.22.31A5.59,5.59,0,0,0,176.13,91.17ZM137,59.94a9.21,9.21,0,0,0,1.35,1.23,9,9,0,0,0,3.24,1.92,2.09,2.09,0,0,0,.74.12c.14,0,.29,0,.32-.19s-.13-.18-.23-.24c-1.14-.68-2.26-1.39-3.44-2A12.83,12.83,0,0,0,137,59.94Zm14.22,9.66c.42,2,3.27,5.21,4.7,5.35C154.42,73.08,152.86,71.34,151.19,69.6ZM143.83,78a.89.89,0,0,0,.65.87,54,54,0,0,1,5.32,1.54c.11,0,.26.19.35,0s-.09-.26-.23-.32a50,50,0,0,0-5.8-2.31C143.91,77.75,143.8,77.78,143.83,78Zm45.89,19.66h-.09c-.35.79-.68,1.6-1.06,2.37s0,1.8,0,2.71c.51-1,.95-2,1.38-2.93a.54.54,0,0,0,0-.31C189.89,98.9,189.8,98.29,189.72,97.68ZM183.43,81c.34-.82,1-1.54.79-2.52-.05-.3,0-.62.46-.54.19,0,.18-.15.24-.25a3.68,3.68,0,0,0,.16-2.75c-.17.12-.18.29-.24.44-.46,1.16-.89,2.34-1.37,3.5A4.12,4.12,0,0,0,183.43,81ZM116.1,110.66a44.24,44.24,0,0,0-5.53,6.59,8.7,8.7,0,0,1,2-2,6,6,0,0,0,2.26-2.64C115.24,112,115.69,111.32,116.1,110.66Zm79.6,9.44a14.79,14.79,0,0,0-2.91,5.93A13.53,13.53,0,0,0,195.7,120.1ZM183.85,72a3.15,3.15,0,0,0,.6-2.46,7.24,7.24,0,0,1-.14-1.24L184.07,66a3.42,3.42,0,0,0-.53,1.55C183.62,69.05,183.75,70.51,183.85,72Zm8.43,59.81c-.69,1.18-1.37,2.26-1.95,3.4a5.57,5.57,0,0,0-.33,2.08C191,135.56,192.19,134,192.28,131.78Zm-6.64-71a2.73,2.73,0,0,0-.25,1.83c.11.54.16,1.08.24,1.62l.37,2.6a2.52,2.52,0,0,0,.38-2.25,4.94,4.94,0,0,1-.12-.65C186.06,62.89,185.86,61.88,185.64,60.75ZM199,175.12c-1.29-2.5-2.65-5-4-7.52,0,.13,0,.16,0,.18a51.8,51.8,0,0,0,2.84,6.2A3.75,3.75,0,0,0,199,175.12ZM85.39,105.75l1.81-2.46c.64-.85,1.3-1.69,1.94-2.53.11-.14.29-.31.13-.46s-.26.08-.37.17A11.33,11.33,0,0,0,85.39,105.75Zm106.7-11.17c.14-.17.14-.36.29-.4s.18-.24.15-.4c-.11-.83-.22-1.67-.34-2.5s-.24-1.61-.37-2.46a2.24,2.24,0,0,0-.38,1.86,19.23,19.23,0,0,1,.4,2.41C191.88,93.57,192,94,192.09,94.58Zm1.09,33.69c-.59.93-1.15,1.89-1.8,2.79a5.64,5.64,0,0,0-.82,2.67C191.5,132,193,130.43,193.18,128.27Zm-2-34.16a4.48,4.48,0,0,0-.57,4.13A4.2,4.2,0,0,0,191.17,94.11Zm.42,13.23c.62-1.41,1.46-2.78.84-4.49C191.84,104.31,191,105.67,191.59,107.34Zm.07-10.11a4.5,4.5,0,0,0-.65,4.09C191.67,100,192.35,98.73,191.66,97.23Zm2.52,27.59c-1.05,1.7-2.48,3.19-2.73,5.31C192.44,128.41,193.92,126.94,194.18,124.82Zm-4.55,16.05a9.83,9.83,0,0,0,1.71-4.93C190.48,137.51,189.34,138.94,189.63,140.87Zm1.12-49.68a4.23,4.23,0,0,0-.59,4A4.35,4.35,0,0,0,190.75,91.19Zm.58,13c.9-1.42,1.23-3.16.75-4.07C191.45,101.42,190.74,102.68,191.33,104.19Zm-9.63-3.3a4.69,4.69,0,0,0,.23,4C182.67,103.52,182.16,102.2,181.7,100.89Zm5.19-28a3.87,3.87,0,0,0,.28-3.8A4.63,4.63,0,0,0,186.89,72.87Zm5.8,33.08c-.51,1.44-1.46,2.65-.93,4.28C192.28,108.85,193.15,107.62,192.69,106ZM68.46,95.86,70.89,93c-.87.44-1.71.9-2.59,1.28-.12.06-.36.12-.17.3A1.54,1.54,0,0,1,68.46,95.86ZM184.8,112.48a5.42,5.42,0,0,0-.23,2c.18.65.35,1.3.52,2A4.78,4.78,0,0,0,184.8,112.48ZM104.21,56.23a2.89,2.89,0,0,0-2-.17,13.57,13.57,0,0,0-2.7,1.27C101.05,56.93,102.64,56.62,104.21,56.23Zm84.05,30.91a4,4,0,0,0-.61,3.54C188.21,89.57,188.86,88.48,188.26,87.14Zm8.6,28.9a14.36,14.36,0,0,0-2.15,4.59A8.52,8.52,0,0,0,196.86,116ZM179.34,85.69a2.13,2.13,0,0,0,0-1.57c-.45-1.3-.85-2.62-1.29-4a1.26,1.26,0,0,0-.08.94c.2.67.39,1.34.59,2,0,.11,0,.25.16.31s.17.28.17.46A6.87,6.87,0,0,0,179.34,85.69Zm-1.83,15a4.25,4.25,0,0,0,0-3.64,4.84,4.84,0,0,1-.53,1.42c-.06.1,0,.2,0,.3C177.18,99.35,177.34,100,177.51,100.65ZM194,140.13c-.62,1.52-1.56,3-1.26,4.8A15,15,0,0,0,194,140.13Zm-3.28-.33c-.6,1.3-1.53,2.41-1.18,4C190.14,142.51,190.92,141.34,190.72,139.8Zm4.38-12.6a8.66,8.66,0,0,0-1.81,4.32A9.43,9.43,0,0,0,195.1,127.2Zm-9.38-35.45c.46-1.18,1.3-2.23.76-3.61A4.31,4.31,0,0,0,185.72,91.75Zm-15.32-23c.38-1.08-.12-2-.35-2.88a.27.27,0,0,0-.06-.11c-.45.12-.17-.24-.21-.36s0-.36,0-.52c-.35-1.28-.71-2.56-1.07-3.83C169.13,63.65,169.77,66.17,170.4,68.78Zm14.87,14.9c1-1.1.64-2.3.46-3.53C184.89,81.27,185.23,82.47,185.27,83.68Zm4.29.43a3.46,3.46,0,0,0-.46,3.19A3.13,3.13,0,0,0,189.56,84.11Zm-8.36,23.83c.14-.58.51-1.11.27-1.75s-.34-1.12-.52-1.69C180.25,105.74,180.9,106.82,181.2,107.94ZM181.54,63c-.69,1.59-.06,3.24-.23,4.85a.63.63,0,0,0,.15-.26C182,66.1,181.5,64.56,181.54,63ZM194,131.31a8.34,8.34,0,0,0-1.7,4.33A10.94,10.94,0,0,0,194,131.31Zm1.06,4.18a10.8,10.8,0,0,0-.92,2.19,3.32,3.32,0,0,1-.54,1.1,3.58,3.58,0,0,0-.6,2.3A28,28,0,0,0,195.09,135.49ZM63.68,102.25c1.18-1.69,2.4-3.37,3.66-5A12.57,12.57,0,0,0,63.68,102.25ZM183.19,62.08a7.8,7.8,0,0,0,.08-4.45C182.8,58.7,183,58.56,183.19,62.08Zm1.64,1.44a18.37,18.37,0,0,0,.35,5.36,1.29,1.29,0,0,0,.26-.75C185.25,66.61,185,65.1,184.83,63.52Zm-.65,49.29a4.66,4.66,0,0,0-.14-3.55A4.39,4.39,0,0,0,184.18,112.81ZM171.51,77.08h-.07c.54,2.84,1.09,5.69,1.64,8.6a2.62,2.62,0,0,0,0-1.71C172.54,81.68,172,79.38,171.51,77.08ZM181.94,111a3.74,3.74,0,0,0-.15-3.37c-.06.49-.47.83-.38,1.28C181.54,109.58,181.75,110.24,181.94,111Zm2.24,5.11c-.67,1.4.11,2.53.32,3.79C185.12,118.54,184.42,117.4,184.18,116.1ZM181.3,41.87c.39,3.09.77,6.18,1.08,9.37C182.67,50.56,182,45.22,181.3,41.87Zm5,43.77a3.61,3.61,0,0,0-.71,3.19A3.72,3.72,0,0,0,186.3,85.64Zm-12.77-3a4.86,4.86,0,0,0-.19-3.62C172.74,80.19,173.2,81.36,173.53,82.6Zm16.08,63.8a4.65,4.65,0,0,0,.83-3.41C190,144.08,189.21,145.08,189.61,146.4ZM184.3,80.3c-.52,1-1.11,2-.64,3.25A4,4,0,0,0,184.3,80.3Zm-6.05,23a4.12,4.12,0,0,0,0-3.28A3.81,3.81,0,0,0,178.25,103.26Zm7.63,15.91a4,4,0,0,0-.11-3.36C185.55,116.94,185.22,118.06,185.88,119.17Zm1.26-33.65a3,3,0,0,0,.57-3A3.23,3.23,0,0,0,187.14,85.52Zm6,49.63c-.69,1.3-1.5,2.48-1.42,4A9.87,9.87,0,0,0,193.14,135.15Zm-6.75-65.57a3.19,3.19,0,0,0,.28-3C185.94,67.49,186.17,68.53,186.39,69.58Zm-95,28.61c1.2-1.22,2.49-2.36,3.75-3.51A8.37,8.37,0,0,0,91.4,98.19Zm92-32.25a5,5,0,0,0,.26-3.57C183,63.52,183.39,64.74,183.44,65.94ZM181,101.65c.29-1.14.62-2.23,0-3.28A3.94,3.94,0,0,0,181,101.65Zm1.71,5.77a3.78,3.78,0,0,0,0-3.17A3.6,3.6,0,0,0,182.69,107.42Zm-1.63-57c0,.7,0,1.39,0,2.08,0,2.33.19,4.66.19,7V62C181.56,61.49,181.38,53.24,181.06,50.45Zm8.83,98.65a5.39,5.39,0,0,0,.55-3.24A3.66,3.66,0,0,0,189.89,149.1ZM172.52,75.8c-.5,1.18,0,2.27.2,3.42A4.27,4.27,0,0,0,172.52,75.8Zm11,40.44a3.87,3.87,0,0,0-.2-3.14A3.59,3.59,0,0,0,183.55,116.24Zm-.83-64a22.89,22.89,0,0,0,.22,4.75C183.42,55.39,182.82,53.82,182.72,52.24Zm4.64,35.64c.79-1.44,1-2.25.62-3C187.51,85.85,186.9,86.74,187.36,87.88Zm-.15-12.64c.3-1,1.11-1.85.53-3C187.31,73.18,186.7,74.08,187.21,75.24Zm-13.07,7a4.87,4.87,0,0,0,.1,3.45A4.89,4.89,0,0,0,174.14,82.28Zm26.65,27.2c-1,1.11-1,2.53-1.3,3.86C200.44,112.22,200.37,110.77,200.79,109.48ZM188,124a4.83,4.83,0,0,0,.16,3.47A5.17,5.17,0,0,0,188,124ZM145.9,47.34a5.86,5.86,0,0,0-2.32-3.07C144.32,45.31,144.8,46.55,145.9,47.34Zm40.77,74.58c.36-1.61.32-2.51-.12-3.29A4.32,4.32,0,0,0,186.67,121.92Zm-3.52-23.37c-.07-.38.36-.63.26-1-.2-.72-.43-1.45-.66-2.22C182.21,96.53,182.88,97.51,183.15,98.55Zm-6.9.67.08,0c-.54-2.39-1.08-4.77-1.62-7.19a.62.62,0,0,0-.13.65c.14.56.27,1.13.41,1.69Zm6.35,11.19a3.39,3.39,0,0,0,.09,3A3.75,3.75,0,0,0,182.6,110.41Zm-9.23-41.68c-.39,1.24.32,2.28.61,3.4C174.41,70.87,173.62,69.85,173.37,68.73ZM183,74.11c.17-.21.36-.41.29-.65a13.93,13.93,0,0,1-.22-2.33c-.06-.58-.1-1.16-.16-1.85a1.14,1.14,0,0,0-.24.68ZM180.3,99a3.5,3.5,0,0,0,0-3A3.89,3.89,0,0,0,180.3,99Zm-4.82-7.19a4,4,0,0,0,0-3.21A4.54,4.54,0,0,0,175.48,91.84Zm7.87,14.92c-.26,1-.6,2,0,3.07C183.56,108.79,184,107.78,183.35,106.76ZM176.75,88c-.53,1.17,0,2.19.22,3.26C177.56,90.16,176.94,89.15,176.75,88Zm9.3-4.68a3.25,3.25,0,0,0-.61,2.77A2.94,2.94,0,0,0,186.05,83.35Zm-7.2,7.57a3.71,3.71,0,0,0,.14,2.9A3.24,3.24,0,0,0,178.85,90.92Zm17.72,29.3a5.77,5.77,0,0,0,1.29-3.35A6.38,6.38,0,0,0,196.57,120.22Zm-4.23,18.9a4.66,4.66,0,0,0-.9,3.15A6,6,0,0,0,192.34,139.12Zm2.09-11.92A6.19,6.19,0,0,0,196,124,6.21,6.21,0,0,0,194.43,127.2ZM188.93,80a2.53,2.53,0,0,0-.42,2.57A2.61,2.61,0,0,0,188.93,80Zm-1.5.45a2.77,2.77,0,0,0-.52,2.62C187.34,82.21,187.91,81.43,187.43,80.42Zm-7.82,13.14a3.54,3.54,0,0,0,0,2.92A3.7,3.7,0,0,0,179.61,93.56Zm5,31.28,1.12,2.84c.3-.63,0-1.15-.08-1.7S184.94,125.2,184.58,124.84Zm-9.66-36.13a4.23,4.23,0,0,0-.1-3.09A4.27,4.27,0,0,0,174.92,88.71Zm22,32a6.57,6.57,0,0,0-1.46,3.19A6.15,6.15,0,0,0,196.9,120.7Zm-16.61-16a2.94,2.94,0,0,0-.12-2.72A3.25,3.25,0,0,0,180.29,104.73Zm-1.36-2a2.63,2.63,0,0,0,0,2.66A3.25,3.25,0,0,0,178.93,102.77Zm6.21,17a3.32,3.32,0,0,0,.17,2.82A3.56,3.56,0,0,0,185.14,119.75Zm2.24,4.72c.11-1.07.48-2,0-3A3.87,3.87,0,0,0,187.38,124.47Zm.8-44.16a2.34,2.34,0,0,0,.41-2.42C188.2,78.66,187.67,79.38,188.18,80.31ZM170.87,69.16c-.34,1.22.23,2.27.41,3.38A6.27,6.27,0,0,0,170.87,69.16Zm7.22,16.53a4.77,4.77,0,0,0-.5-2.9C177.21,83.86,177.84,84.74,178.09,85.69ZM186,72.39c-.6.94-.11,1.84-.09,2.79C186.37,74.51,186.39,73.69,186,72.39Zm5.82,73.12a4.52,4.52,0,0,0-.42,3.1A5.38,5.38,0,0,0,191.8,145.51Zm-2.55-63.35c-.64,1-.79,1.77-.45,2.43C189.07,83.78,189.69,83.08,189.25,82.16ZM185.57,69.3c-.59.9-.09,1.81,0,2.71C186.12,71.11,185.64,70.21,185.57,69.3Zm-7.18,27.44c.47-.9,0-1.73-.16-2.66A3,3,0,0,0,178.39,96.74ZM159.71,69.67a9.5,9.5,0,0,0-2.38-4Zm26.21,52.89a2.62,2.62,0,0,0,.21,2.48A2.93,2.93,0,0,0,185.92,122.56Zm12.78-5.69a5.08,5.08,0,0,0,1-2.86C198.91,114.8,199,115.89,198.7,116.87ZM168.05,56.66c.58,1.94,1.15,3.89,1.73,5.84l.13,0A42.54,42.54,0,0,0,168.05,56.66Zm17.36,21.13a2.77,2.77,0,0,0-.34,2.4A2.52,2.52,0,0,0,185.41,77.79Zm12.47,34.62a8,8,0,0,0-1.27,3.07A6.41,6.41,0,0,0,197.88,112.41ZM177.65,94a3.37,3.37,0,0,0-.11-2.61A3.26,3.26,0,0,0,177.65,94ZM192,142.43a3.42,3.42,0,0,0-.6,2.71A4.92,4.92,0,0,0,192,142.43Zm-8.25-43.77a3.29,3.29,0,0,0,.16,2.58C184.33,100.37,184,99.55,183.72,98.66ZM178.91,97c-.48.93-.07,1.74.1,2.6A3.27,3.27,0,0,0,178.91,97Zm.65,2.64a3.13,3.13,0,0,0,.07,2.53A3,3,0,0,0,179.56,99.6Zm-4.71-24.7c.43-1-.1-1.75-.33-2.61C174.1,73.25,174.6,74,174.85,74.9Zm15.64,74.21a2.64,2.64,0,0,0-.13,2.58C190.83,150.84,190.48,150,190.49,149.11ZM171.79,73a4.4,4.4,0,0,0,.19,2.77A3.87,3.87,0,0,0,171.79,73Zm6.49,18a2.79,2.79,0,0,0-.14-2.46A3.28,3.28,0,0,0,178.28,91Zm-1.12-5.37c-.25,1,.3,1.75.45,2.62C178.08,87.24,177.35,86.46,177.16,85.6Zm2.72.24a2.36,2.36,0,0,0,.13,2c0,.08,0,.3.19.18s.37-.07.27-.35C180.27,87.09,180.09,86.51,179.88,85.84Zm5.86,21.1c-.33,1,.19,1.89.37,2.81C186.37,108.91,186.29,108.33,185.74,106.94Zm13,6a16.59,16.59,0,0,0-1,3.14A5.13,5.13,0,0,0,198.7,113ZM185.1,60.64a3.22,3.22,0,0,0-.09-2.71C184.63,58.84,185.05,59.68,185.1,60.64ZM172.17,66c.3-1.07-.37-1.93-.58-2.9A6.9,6.9,0,0,0,172.17,66Zm-67.39,5.48c-.7,0-1.39.08-2.08.07-.22,0-.29.07-.25.28s-.08.25,0,.4ZM200.44,109a3.44,3.44,0,0,0,.84-2.51A4.67,4.67,0,0,0,200.44,109Zm-1.08,11.37a6.51,6.51,0,0,0-1.12,2.76A5.84,5.84,0,0,0,199.36,120.32ZM175.41,75c-.42,1,.15,1.72.34,2.5C176.16,76.63,175.57,75.91,175.41,75Zm6.39,38.27c-.2.22-.4.3-.3.55.24.62.46,1.24.7,1.85C182.49,114.82,181.9,114.14,181.8,113.28Zm-8.28-27.21c-.39.33-.4-.21.19,2.5C174.11,87.69,173.67,86.91,173.52,86.07Zm-3.07-26.61a9.41,9.41,0,0,0,.68,2.86A4.88,4.88,0,0,0,170.45,59.46ZM106.56,80.17c-1.13-.32-1.58.52-2.12,1.2Zm75.58,18.3a6.37,6.37,0,0,0,.58,2.72A6.75,6.75,0,0,0,182.14,98.47Zm-6.07-12.7A2.49,2.49,0,0,0,176.2,88,2.66,2.66,0,0,0,176.07,85.77Zm16.58,61.64a8.5,8.5,0,0,0,.82-3A6.4,6.4,0,0,0,192.65,147.41Zm-7.39-41.11c.36-.8-.09-1.51-.25-2.25C184.65,104.85,185.08,105.56,185.26,106.3ZM181.55,93c.28-.81.3-.71-.25-2.28C180.92,91.5,181.36,92.17,181.55,93Zm.67,2.31A2.59,2.59,0,0,0,182,93.1,2.43,2.43,0,0,0,182.22,95.29Zm16.72,22.28a3.33,3.33,0,0,0-.91,2.26A3.85,3.85,0,0,0,198.94,117.57ZM186.42,75.44c-.55.65-.32,1.34-.22,2C186.77,76.83,186.52,76.15,186.42,75.44Zm-10.87,10c.43-1,0-1.7-.25-2.48A6.13,6.13,0,0,0,175.55,85.44Zm-56.16-3.7a11.05,11.05,0,0,0,3.36-1.1A22,22,0,0,0,119.39,81.74ZM154.94,62l1.25,1.93a6.45,6.45,0,0,0-.25-1.28c0-.12-.07-.22-.22-.24A2.65,2.65,0,0,1,154.94,62Zm41.19,64.61a5.22,5.22,0,0,0,1-2.72A8.65,8.65,0,0,0,196.13,126.58ZM176.51,80.16c.32-.76-.06-1.41-.27-2.08C175.91,78.84,176.33,79.48,176.51,80.16Zm10.39,47.18a2.82,2.82,0,0,0-.21-2.11A2.54,2.54,0,0,0,186.9,127.34Zm14.3-22,.14,0a10.41,10.41,0,0,0,.63-3.42C201.71,103.07,201.46,104.19,201.2,105.32ZM182.6,68.46a5.82,5.82,0,0,0,0-2.69A9.7,9.7,0,0,0,182.6,68.46Zm-1.79,22c.4-.78,0-1.42-.18-2.12A2.63,2.63,0,0,0,180.81,90.41Zm8-17.73a.82.82,0,0,0,0,.55c.1.67.2,1.34.32,2,0,.11-.08.35.18.32s.14-.27.11-.39C189.17,74.36,189,73.55,188.77,72.68Zm-4.35,28.71a2.4,2.4,0,0,0,.1,2.1C184.91,102.8,184.57,102.15,184.42,101.39Zm-.1-47.15-.13,0c.14,1,.27,1.93.41,2.9l.14,0A10.22,10.22,0,0,0,184.32,54.24Zm-1.94,10.22h.18c-.06-1.27-.13-2.54-.19-3.81h-.15C182.27,61.92,182.33,63.19,182.38,64.46Zm4.26,45.72a3.11,3.11,0,0,0,.19,2.23A3.14,3.14,0,0,0,186.64,110.18Zm14.74,1a6.35,6.35,0,0,0-.74,2.44A5,5,0,0,0,201.38,111.2Zm-12-33.52c.06-.22.48-.13.38-.5s-.2-.81-.3-1.24C189.05,76.51,189.32,77.09,189.41,77.68Zm-15.26,11.4a4,4,0,0,0,.17,2.36A3.51,3.51,0,0,0,174.15,89.08ZM88,92.37a4.66,4.66,0,0,1,.29.44c.09.16.17.19.3.06l1-.9Zm100.44,28.31a2.43,2.43,0,0,0,.26,2.11A4.5,4.5,0,0,0,188.43,120.68Zm3.1,30.45a3.45,3.45,0,0,0,.28-2.13A2.63,2.63,0,0,0,191.53,151.13Zm4.73-23.62a4,4,0,0,0-.9,2.3A5.8,5.8,0,0,0,196.26,127.51Zm-16.87-39a2.36,2.36,0,0,0,.29,2C180,89.83,179.52,89.25,179.39,88.51Zm1.41,5c-.33.69.06,1.3.24,2C181.34,94.74,180.94,94.14,180.8,93.49Zm13.58,40.18a9.34,9.34,0,0,0,.89-2.52A5.28,5.28,0,0,0,194.38,133.67Zm2.87-11a5.42,5.42,0,0,0,1-2.25A4.21,4.21,0,0,0,197.25,122.66Zm-9.89-9.89c-.15,1.2-.14,1.37.15,1.91C187.9,114.05,187.51,113.49,187.36,112.77ZM178.89,88c.25-.67-.13-1.22-.28-1.89C178.25,86.82,178.69,87.37,178.89,88Zm7.59,41.93a2.07,2.07,0,0,0-.27-1.71A1.87,1.87,0,0,0,186.48,129.88Zm11.26-3.46a5.86,5.86,0,0,0-1,2.26A6.59,6.59,0,0,0,197.74,126.42Zm-24.9-58.08a2,2,0,0,0-.21-1.8A2.5,2.5,0,0,0,172.84,68.34Zm24.64,57.45a7.35,7.35,0,0,0,1.07-2.22A5.66,5.66,0,0,0,197.48,125.79Zm-9-7.82a14.92,14.92,0,0,0-.47-2.4A3.92,3.92,0,0,0,188.52,118ZM177.13,82.46A1.92,1.92,0,0,0,177,80.7,2.34,2.34,0,0,0,177.13,82.46ZM200,116.64a4,4,0,0,0,.77-2A3.64,3.64,0,0,0,200,116.64Zm-25.05-38.9a4.52,4.52,0,0,0,.45,2A4.45,4.45,0,0,0,174.91,77.74ZM180.33,93c.31-.75,0-1.3-.22-2C179.81,91.74,180.19,92.28,180.33,93Zm-4.57-12.33a3.33,3.33,0,0,0,.37,2A4.46,4.46,0,0,0,175.76,80.63Zm17.46,66.87c-.2.72-.65,1.38-.46,2.18A6.54,6.54,0,0,0,193.22,147.5Zm-7.44-35.12a6.86,6.86,0,0,0-.56-2.32A8.46,8.46,0,0,0,185.78,112.38Zm-4.06-14.69c.2-.62-.1-1.15-.28-1.81C181.18,96.62,181.56,97.14,181.72,97.69Zm18.38,19.73a3.11,3.11,0,0,0-.72,1.84A3.52,3.52,0,0,0,200.1,117.42ZM174.5,80a8.34,8.34,0,0,0,.43,2.1A4.74,4.74,0,0,0,174.5,80Zm8.19,36.23-.18,0a8.25,8.25,0,0,0,.57,1.89l.13,0Zm.44-14.2c-.18.6.14,1.08.29,1.61A2.49,2.49,0,0,0,183.13,102Zm1.75,6.82a5.59,5.59,0,0,0-.44-1.92A5.54,5.54,0,0,0,184.88,108.85ZM176.71,85a1.69,1.69,0,0,0-.27-1.54A3.19,3.19,0,0,0,176.71,85Zm15.1,68.19a2,2,0,0,0,.1-1.44A1.72,1.72,0,0,0,191.81,153.2Zm-13.54-46.92a8,8,0,0,0,.69,2.53Zm5.57-1.82a1.91,1.91,0,0,0,.22,1.44A2.46,2.46,0,0,0,183.84,104.46Zm3.55,23.44a2.17,2.17,0,0,0,.15,1.69A4.14,4.14,0,0,0,187.39,127.9Zm8.34,4.32c.6-.4.48-1.05.7-1.55A5.35,5.35,0,0,0,195.73,132.22ZM182.15,59.29h.11a18.54,18.54,0,0,0-.11-2.14Zm8.66,94.4c.24-.54,0-1,0-1.48C190.43,152.75,190.69,153.16,190.81,153.69Zm-17.95-80.1a10.57,10.57,0,0,0,.46,2.29l.11,0Zm15,46.34a1.82,1.82,0,0,0-.17-1.39A1.82,1.82,0,0,0,187.89,119.93Zm-3.58-59.5.18,2.13h.12A7.65,7.65,0,0,0,184.31,60.43Zm-6.73,19.28c.31-.59-.09-1-.18-1.37C177.2,78.79,177.46,79.18,177.58,79.71Zm-8.2-23.21.55,1.81A3.32,3.32,0,0,0,169.38,56.5Zm17.9,61.33a2.6,2.6,0,0,0-.32-1.63A6.09,6.09,0,0,0,187.28,117.83ZM173.7,77a7,7,0,0,0,.47,1.94A7.85,7.85,0,0,0,173.7,77Zm12.54,36.54-.13,0a6.59,6.59,0,0,0,.36,1.37l.15,0ZM170.36,64a3.51,3.51,0,0,0,.44,1.68Zm27.84,46.69a3.3,3.3,0,0,0,.49-1.62Zm-55.51-68.2a2.24,2.24,0,0,0,.73,1.34Zm56.68,67.27-.43,1.68A3.56,3.56,0,0,0,199.37,109.8Zm-24.9-33a2.23,2.23,0,0,0-.38-1.44Zm27.33,31.68-.34,1.55A2.76,2.76,0,0,0,201.8,108.45ZM140.16,70.51l0-.08-.86-.43c-.07,0-.14,0-.18,0s0,.17.1.2Zm31.93.3a4.27,4.27,0,0,0,.33,1.41A4.39,4.39,0,0,0,172.09,70.81Zm16.24,0a4.85,4.85,0,0,0,.35,1.54A5.75,5.75,0,0,0,188.33,70.86ZM177,77.49l.11,0a3.63,3.63,0,0,0-.51-1.36Zm-16.18-6.64c-.06.36-.18.73.22,1.07Zm26.34,60.68a1.57,1.57,0,0,0-.2-1C186.76,130.88,186.94,131.14,187.12,131.53Z"/><path class="cls-3" d="M137.76,98a2.15,2.15,0,0,1-.32,1A8.65,8.65,0,0,1,136,101a16.51,16.51,0,0,1-4.64,3.67,6.94,6.94,0,0,1-1.88.63c-.9.14-1.4-.41-1.19-1.29a3.54,3.54,0,0,1,.42-1,14.18,14.18,0,0,1,6.41-5.72,2.69,2.69,0,0,1,1.85-.23A.9.9,0,0,1,137.76,98Zm-1.44-.45a1.86,1.86,0,0,0-.9.21A14.27,14.27,0,0,0,130,102.1a6.92,6.92,0,0,0-1.08,1.93c-.17.51,0,.69.54.6a6.81,6.81,0,0,0,2.52-1,18.31,18.31,0,0,0,4.4-4,4.64,4.64,0,0,0,.62-1C137.25,97.87,137.05,97.57,136.32,97.57Z"/><path class="cls-3" d="M55.47,128.91a1.14,1.14,0,0,1,.13-.76A32.54,32.54,0,0,0,57.29,123c0-.14,0-.34.23-.31s.16.25.13.39A25.86,25.86,0,0,1,56.47,127c-.17.47-.37.93-.57,1.39A.84.84,0,0,1,55.47,128.91Z"/><path class="cls-3" d="M56.21,123.62a2.84,2.84,0,0,1,.14-1.75.15.15,0,0,1,.21-.1.19.19,0,0,1,.11.22A4,4,0,0,1,56.21,123.62Z"/><path class="cls-3" d="M115.83,54.61a1.42,1.42,0,0,1-.24,0,19.8,19.8,0,0,1-2.76-1.29c-.13-.08-.25-.2-.15-.36s.26-.09.39,0c.82.46,1.69.82,2.55,1.21a1.92,1.92,0,0,1,.31.18c.07.05.16.11.14.2S115.89,54.55,115.83,54.61Z"/><path class="cls-3" d="M120.44,55.88l-2.38-.65a.23.23,0,0,1-.19-.3c.06-.15.19-.16.33-.12l2.34.63c.14,0,.34.1.3.27S120.6,55.84,120.44,55.88Z"/><path class="cls-3" d="M62.18,110.9a26.47,26.47,0,0,1-1.12,5.6c-.15.53-.31,1-.49,1.57,0,.11-.07.29-.25.24s-.11-.2-.1-.31.09-.44.15-.65a33.42,33.42,0,0,0,1.33-5.78c0-.37,0-.74.07-1.1,0-.17,0-.37.22-.36s.18.21.19.35Z"/><path class="cls-3" d="M60.26,114.48a.85.85,0,0,1,0-.68c.14-.65.31-1.29.47-1.93,0-.15.07-.38.28-.33s.16.27.12.44c-.14.58-.29,1.17-.44,1.75A1.49,1.49,0,0,1,60.26,114.48Z"/><path class="cls-3" d="M112.36,67.63a22,22,0,0,0,4.43-.53c.15,0,.32-.1.37.1s-.13.23-.27.28a8.35,8.35,0,0,1-2,.38,23.61,23.61,0,0,1-3.76.16c-.2,0-.56,0-.54-.22s.36-.16.57-.16Z"/><path class="cls-3" d="M111.6,66.81a.8.8,0,0,1,.62-.2c.8,0,1.61-.12,2.41-.2.15,0,.37-.08.4.14s-.19.26-.36.28a21.9,21.9,0,0,1-2.28.19A1.12,1.12,0,0,1,111.6,66.81Z"/><path class="cls-3" d="M103,69.9a1.61,1.61,0,0,1,1-.29,30.86,30.86,0,0,0,3.72-.54c.18,0,.42-.19.48.09s-.23.28-.4.32a27.16,27.16,0,0,1-3,.47c-.41,0-.82.08-1.23.1A.62.62,0,0,1,103,69.9Z"/><path class="cls-3" d="M103,69a.46.46,0,0,1,.39-.22c.92-.09,1.84-.16,2.76-.23.13,0,.29,0,.32.16s-.13.21-.27.22c-.92.06-1.84.13-2.77.18A.48.48,0,0,1,103,69Z"/><path class="cls-3" d="M102.81,68.05a1.14,1.14,0,0,1,.91-.32l1-.08c.11,0,.21,0,.22.16a.15.15,0,0,1-.12.17A6.48,6.48,0,0,1,102.81,68.05Z"/><path class="cls-3" d="M67.59,92.65a.61.61,0,0,1,.38-.27,17.91,17.91,0,0,0,4.43-2.55,1.64,1.64,0,0,1,.22-.14.19.19,0,0,1,.24.06.18.18,0,0,1,0,.21,1.14,1.14,0,0,1-.19.19,20.06,20.06,0,0,1-4,2.41A1.15,1.15,0,0,1,67.59,92.65Z"/><path class="cls-3" d="M69.27,90.5a.82.82,0,0,1,.49-.47l1.6-.85c.11-.05.23-.1.33,0a.17.17,0,0,1,0,.27A6,6,0,0,1,69.27,90.5Z"/><path class="cls-3" d="M106.94,54.64a1.07,1.07,0,0,1,.71-.3,10.56,10.56,0,0,1,3.07.27c.15,0,.32.07.3.26s-.22.18-.35.15a15.26,15.26,0,0,0-3.16-.32Z"/><path class="cls-3" d="M80.27,66.57A1.32,1.32,0,0,1,81,66a22.21,22.21,0,0,0,2.84-1.32c.14-.08.31-.19.42,0s0,.26-.15.32a16.06,16.06,0,0,1-3.5,1.54A1.78,1.78,0,0,1,80.27,66.57Z"/><path class="cls-3" d="M56,111.92a1.47,1.47,0,0,1,.57-.61A22.72,22.72,0,0,0,60,107.74a6.14,6.14,0,0,0,.84-1.5c0-.14.1-.27.27-.21a.24.24,0,0,1,.13.33,5.38,5.38,0,0,1-.36.81,18.25,18.25,0,0,1-4.09,4.5A1,1,0,0,1,56,111.92Z"/><path class="cls-3" d="M58.44,108.38a15,15,0,0,0,1.14-1.58.17.17,0,0,1,.24,0,.2.2,0,0,1,.11.17A2,2,0,0,1,58.44,108.38Z"/><path class="cls-3" d="M75.26,105.81a.77.77,0,0,1,.35-.48,7.59,7.59,0,0,0,2.16-2.86,1.47,1.47,0,0,1,.14-.28.16.16,0,0,1,.23-.06.16.16,0,0,1,.1.18,1.38,1.38,0,0,1-.08.29,7.88,7.88,0,0,1-2,2.82A1.13,1.13,0,0,1,75.26,105.81Z"/><path class="cls-3" d="M70.56,114.79a1.3,1.3,0,0,1,.5-.66,15.78,15.78,0,0,0,2.48-2.93,6.9,6.9,0,0,0,.76-1.6c.06-.17.08-.46.33-.39s.09.33,0,.49a6.48,6.48,0,0,1-.92,1.91,16.32,16.32,0,0,1-2.39,2.79A1.07,1.07,0,0,1,70.56,114.79Z"/><path class="cls-3" d="M71.07,113.09a.81.81,0,0,1,.28-.54,7.44,7.44,0,0,0,1.44-2.15c0-.13.11-.27.28-.21s.15.19.11.3A5.52,5.52,0,0,1,71.36,113,1.48,1.48,0,0,1,71.07,113.09Z"/><path class="cls-3" d="M55.89,137.72a2.52,2.52,0,0,1-.06-1.27,18.39,18.39,0,0,0,0-3.06,2.08,2.08,0,0,1,0-.35.2.2,0,0,1,.38,0,1.7,1.7,0,0,1,0,.22,18,18,0,0,1-.06,3.67A1.34,1.34,0,0,1,55.89,137.72Z"/><path class="cls-3" d="M93.65,56.8a.72.72,0,0,1,.58-.24c1,0,2-.2,2.94-.32.26,0,.71-.23.77.13s-.42.24-.66.28a22.22,22.22,0,0,1-2.94.33A.94.94,0,0,1,93.65,56.8Z"/><path class="cls-3" d="M81.37,79.91a.52.52,0,0,1,.4-.35,6.71,6.71,0,0,0,1.92-1c.09-.07.2-.14.31,0s0,.23-.06.3A4.29,4.29,0,0,1,81.37,79.91Z"/><path class="cls-3" d="M84.77,99.79a10.9,10.9,0,0,1-1.3,3.71.53.53,0,0,1-.12.14c-.11.09-.24.24-.37.13s0-.25.06-.36a10.56,10.56,0,0,0,1.3-3.78c0-.14,0-.29.23-.26S84.76,99.57,84.77,99.79Z"/><path class="cls-3" d="M80.65,107.14a.47.47,0,0,1,.17-.4,7,7,0,0,0,1.08-1.62c.06-.12.14-.25.3-.19s.14.22.09.34a5.22,5.22,0,0,1-1.2,1.73A.43.43,0,0,1,80.65,107.14Z"/><path class="cls-3" d="M114.51,119.11a1,1,0,0,1,.3-.52,29.71,29.71,0,0,0,2.42-3.38c.07-.12.13-.32.31-.23s.09.29,0,.42a29.09,29.09,0,0,1-2.5,3.42C114.89,119,114.85,119,114.51,119.11Z"/><path class="cls-3" d="M116,115.25c0-.15.1-.24.18-.33a6.06,6.06,0,0,0,1.13-1.74c0-.12.12-.26.29-.2s.15.18.1.29a4.35,4.35,0,0,1-1.25,1.85A.55.55,0,0,1,116,115.25Z"/><path class="cls-3" d="M67.06,125.91a2.44,2.44,0,0,1,.5-.78,14.93,14.93,0,0,0,3.07-6.07,2.47,2.47,0,0,1,.1-.29.18.18,0,0,1,.21-.12.16.16,0,0,1,.12.21,5,5,0,0,1-.1.56,15.5,15.5,0,0,1-3,5.9A1.42,1.42,0,0,1,67.06,125.91Z"/><path class="cls-3" d="M121,112a2,2,0,0,1,.64-.77,16.46,16.46,0,0,0,2.94-3.75,5.74,5.74,0,0,0,.56-1.44c0-.12.09-.29.26-.23s.14.2.1.33a7.07,7.07,0,0,1-.75,1.79,17.36,17.36,0,0,1-2.75,3.47A2.07,2.07,0,0,1,121,112Z"/><path class="cls-3" d="M92.74,88.13a1.05,1.05,0,0,1-.15.24,11,11,0,0,1-1.68,1.44l-.07,0c-.2.08-.46.27-.59,0s.2-.28.35-.38a11,11,0,0,0,1.68-1.44c.1-.09.19-.2.34-.14S92.73,88,92.74,88.13Z"/><path class="cls-3" d="M128.68,54.16a1,1,0,0,1-.48-.11A23.36,23.36,0,0,1,125,52.26l-.27-.23c-.09-.09-.15-.2-.06-.31s.21-.09.32,0l.5.35a24.49,24.49,0,0,0,2.78,1.57c.16.08.31.17.46.26s.16.11.13.21S128.75,54.15,128.68,54.16Z"/><path class="cls-3" d="M139.64,58.87a1.38,1.38,0,0,1-.49-.5A18.87,18.87,0,0,0,136,54.6c-.1-.08-.19-.17-.1-.29s.2-.11.31-.05a1.54,1.54,0,0,1,.32.23,20.24,20.24,0,0,1,3,3.62A.92.92,0,0,1,139.64,58.87Z"/><path class="cls-3" d="M82.16,96.76c-.13,0-.33,0-.35-.16s.18-.16.3-.2a9.36,9.36,0,0,0,4.28-3c.09-.11.18-.24.32-.13s.07.25,0,.36a4.62,4.62,0,0,1-.37.5,11.76,11.76,0,0,1-3.45,2.44A1.65,1.65,0,0,1,82.16,96.76Z"/><path class="cls-3" d="M93.87,73.79h-.62c-.16,0-.38,0-.38-.22s.23-.18.38-.18c.62,0,1.23,0,1.85-.13a22.79,22.79,0,0,0,5-1c.14-.05.3-.13.38,0s-.1.28-.25.34a16.26,16.26,0,0,1-3.57.84A23.45,23.45,0,0,1,93.87,73.79Z"/><path class="cls-3" d="M95.63,72.4a.55.55,0,0,1,.45-.27c.81-.15,1.63-.27,2.44-.39.14,0,.34-.07.38.12s-.19.22-.34.25l-2.44.39A.64.64,0,0,1,95.63,72.4Z"/><path class="cls-3" d="M69,98.25a11.34,11.34,0,0,1-.89,2.59c-.07.15-.18.37-.38.26s-.06-.3,0-.44a13.44,13.44,0,0,0,.83-2.46c0-.14.08-.31.28-.27S69,98.11,69,98.25Z"/><path class="cls-3" d="M65.87,104.06c-.24,0-.27-.11-.17-.25a11.78,11.78,0,0,0,.83-1.25.22.22,0,0,1,.27-.1.18.18,0,0,1,.13.24,3.07,3.07,0,0,1-.88,1.3A.54.54,0,0,1,65.87,104.06Z"/><path class="cls-3" d="M105.39,78.92c-.09,0-.23,0-.26-.09s.1-.21.21-.25l1.23-.34c.82-.23,1.63-.48,2.43-.78.15-.06.36-.21.45.05s-.15.26-.29.32a32.21,32.21,0,0,1-3.59,1.08Z"/><path class="cls-3" d="M105.53,77.83a1.13,1.13,0,0,1,.63-.39c.83-.29,1.68-.56,2.52-.84l.34-.08a.2.2,0,0,1,.22.12.16.16,0,0,1-.12.21,18.67,18.67,0,0,1-3.42,1Z"/><path class="cls-3" d="M137.85,32c0,.08,0,.22-.1.25s-.15-.09-.19-.16a3.72,3.72,0,0,1-.21-.39A23.82,23.82,0,0,0,134.67,27c-.08-.1-.18-.22,0-.35s.28-.05.38.06a7.9,7.9,0,0,1,.51.67,28.73,28.73,0,0,1,2.16,3.87A1.64,1.64,0,0,1,137.85,32Z"/><path class="cls-3" d="M77.62,89.2c.07-.23.26-.28.4-.37a19.24,19.24,0,0,0,3.8-3.23,4.4,4.4,0,0,0,.88-1.37c.06-.13.12-.31.31-.23s.12.25.07.39a4.55,4.55,0,0,1-.86,1.39,20.72,20.72,0,0,1-3.5,3.11A1.25,1.25,0,0,1,77.62,89.2Z"/><path class="cls-3" d="M119.58,104.54l-.27,0c-.11,0-.2-.07-.18-.2a.18.18,0,0,1,.18-.16,8.32,8.32,0,0,0,3-.85c.09,0,.22-.09.29,0s0,.22-.11.3a.8.8,0,0,1-.21.15A9.51,9.51,0,0,1,119.58,104.54Z"/><path class="cls-3" d="M125.93,101.6a.7.7,0,0,1-.41.51l-1.75,1c-.14.08-.32.21-.43,0s.08-.31.23-.39c.62-.38,1.24-.74,1.86-1.11A.53.53,0,0,1,125.93,101.6Z"/><path class="cls-3" d="M119.6,79.86a1,1,0,0,1,.59-.28,18.86,18.86,0,0,0,2.84-.93c.16-.07.37-.19.47,0s-.14.31-.3.38a16.28,16.28,0,0,1-2.63.89A1.42,1.42,0,0,1,119.6,79.86Z"/><path class="cls-3" d="M160.89,96.8a1.15,1.15,0,0,1-.8.4,22,22,0,0,1-3.44.09c-.15,0-.32,0-.34-.21s.13-.21.27-.21a35.25,35.25,0,0,0,4.11-.09Z"/><path class="cls-3" d="M101,86.12a2.44,2.44,0,0,1-.1.24,4.74,4.74,0,0,1-.9,1.36,14.4,14.4,0,0,1-3.2,2.57c-.22.13-.56.38-.7.14s.26-.35.46-.47a15.92,15.92,0,0,0,2.86-2.23,5.32,5.32,0,0,0,1.13-1.58c.06-.13.13-.25.29-.23S101,86,101,86.12Z"/><path class="cls-3" d="M97.83,88a1.29,1.29,0,0,1,.52-.58,4.19,4.19,0,0,0,.81-.82c.07-.08.15-.15.26-.09s.11.16.07.27A2.63,2.63,0,0,1,97.83,88Z"/><path class="cls-3" d="M131.25,26.08a2.69,2.69,0,0,1-.67-.81c-.21-.32-.43-.63-.65-.94-.07-.11-.12-.22,0-.31a.15.15,0,0,1,.23,0A4.18,4.18,0,0,1,131.25,26.08Z"/><path class="cls-3" d="M132.57,69.73a6.44,6.44,0,0,1-1.84-.44c-.13-.05-.3-.12-.23-.31s.24-.13.38-.08a7.71,7.71,0,0,0,1.7.43c.18,0,.47,0,.43.22S132.71,69.72,132.57,69.73Z"/><path class="cls-3" d="M134.13,69.22l1.32.2c.1,0,.23,0,.22.17s-.13.16-.23.16a11.84,11.84,0,0,1-1.67-.18.15.15,0,0,1-.13-.2C133.69,69.18,133.86,69.23,134.13,69.22Z"/><path class="cls-3" d="M98.1,96.3a1.46,1.46,0,0,1,.55-.67A14.83,14.83,0,0,0,101,93.08a2.65,2.65,0,0,0,.59-1.36c0-.13.06-.24.2-.25s.23.12.24.27a1.91,1.91,0,0,1-.29,1,12.79,12.79,0,0,1-2.91,3.31A.87.87,0,0,1,98.1,96.3Z"/><path class="cls-3" d="M90.64,80.22a1.3,1.3,0,0,1,.61-.52A13.32,13.32,0,0,0,94,77.88c.11-.09.24-.22.38-.06s0,.23-.07.31a9.82,9.82,0,0,1-3.46,2.09A.78.78,0,0,1,90.64,80.22Z"/><path class="cls-3" d="M96.51,83.16a.64.64,0,0,1,.41-.41c1.49-.75,3-1.53,4.48-2.19a1.72,1.72,0,0,1,.29-.11c.12,0,.25-.07.32.06s0,.26-.17.31c-1.62.69-3.17,1.56-4.77,2.3A.87.87,0,0,1,96.51,83.16Z"/><path class="cls-3" d="M149.69,50.72a1,1,0,0,1-.41-.56,26.29,26.29,0,0,0-1.7-3.5,2.44,2.44,0,0,1-.14-.28.22.22,0,0,1,.09-.27.21.21,0,0,1,.27.07.83.83,0,0,1,.13.18,26.39,26.39,0,0,1,1.67,3.37A1.44,1.44,0,0,1,149.69,50.72Z"/><path class="cls-3" d="M104.73,86.3a4.19,4.19,0,0,0,1.27-.12c.1,0,.23,0,.28.07s-.07.23-.17.27a4.12,4.12,0,0,1-2.09.16c-.12,0-.23-.1-.2-.25s.13-.14.24-.14Z"/><path class="cls-3" d="M109,84.22a.71.71,0,0,1-.32.66,4.77,4.77,0,0,1-1.05.72c-.1.05-.2.08-.28,0a.16.16,0,0,1,0-.23Z"/><path class="cls-3" d="M143,92.91a24.47,24.47,0,0,1-2.47-.36c-.17,0-.4-.07-.34-.31s.28-.17.44-.13c.8.15,1.6.27,2.41.35.19,0,.53,0,.52.21S143.19,92.87,143,92.91Z"/><path class="cls-3" d="M145.15,93c-.21,0-.42,0-.44-.18s.19-.22.35-.24c.79-.1,1.6,0,2.38-.2.1,0,.24,0,.28.06s-.09.2-.18.26a1.47,1.47,0,0,1-.76.2C146.22,93,145.66,93,145.15,93Z"/><path class="cls-3" d="M73.07,84.94c-.15,0-.34,0-.36-.18s.15-.18.26-.2l4.26-1c.11,0,.25,0,.3.1s-.07.25-.2.29q-.45.14-.9.24l-3.1.71Z"/><path class="cls-3" d="M73.73,84c-.14,0-.35,0-.37-.18s.18-.18.3-.21c.3-.08.6-.13.9-.18.14,0,.29,0,.31.17s-.1.22-.24.24Z"/><path class="cls-3" d="M93,100.42c-.1,0-.16-.1,0-.22.34-.39.69-.76,1-1.14a.13.13,0,0,1,.19,0,.26.26,0,0,1,.07.16A2.77,2.77,0,0,1,93,100.42Z"/><path class="cls-3" d="M90.88,101.89a3.68,3.68,0,0,1,1.24-.94.17.17,0,0,1,.23,0,.14.14,0,0,1,0,.2C91.89,101.51,91.49,101.93,90.88,101.89Z"/><path class="cls-3" d="M134.42,95.2a1.42,1.42,0,0,1-.84.66,9.94,9.94,0,0,1-2.79.6c-.17,0-.36,0-.38-.19s.11-.2.23-.2a12.65,12.65,0,0,0,3.59-.87A1.14,1.14,0,0,1,134.42,95.2Z"/><path class="cls-3" d="M110.52,87.22a1.17,1.17,0,0,1-.52.65A20.15,20.15,0,0,1,106.13,90c-.13,0-.3.12-.39,0s.07-.24.2-.29a20.53,20.53,0,0,0,4.2-2.33A.38.38,0,0,1,110.52,87.22Z"/><path class="cls-3" d="M150.26,96.52a1.2,1.2,0,0,1-.88.39,10.53,10.53,0,0,1-2.51-.15c-.15,0-.31-.08-.29-.27s.19-.16.32-.14a12.36,12.36,0,0,0,3,.13A1.6,1.6,0,0,1,150.26,96.52Z"/><path class="cls-3" d="M119.24,73.55a.63.63,0,0,1,.52-.16c.75,0,1.5.1,2.24.17.15,0,.38,0,.35.25s-.24.15-.4.14l-2.15-.18A.92.92,0,0,1,119.24,73.55Z"/><path class="cls-3" d="M102.39,130.63c0-.19.06-.28.14-.38a9.1,9.1,0,0,0,1.35-2.21c.09-.18.15-.48.42-.34s0,.37,0,.54a9.63,9.63,0,0,1-1,1.85A1.11,1.11,0,0,1,102.39,130.63Z"/><path class="cls-3" d="M158.84,118.86c-.17,0-.3,0-.33-.12s.08-.18.17-.22l2.19-1a.2.2,0,0,1,.27.07.18.18,0,0,1,0,.27A8.58,8.58,0,0,1,158.84,118.86Z"/><path class="cls-3" d="M139.28,80.16A.89.89,0,0,1,140,80l3.06.42c.17,0,.41,0,.4.26s-.26.19-.42.17l-3.29-.46A.84.84,0,0,1,139.28,80.16Z"/><path class="cls-3" d="M81.54,113.83a9,9,0,0,0,1.23-2.72c0-.12.12-.22.26-.17a.19.19,0,0,1,.12.25,6.41,6.41,0,0,1-1,2.3A.84.84,0,0,1,81.54,113.83Z"/><path class="cls-3" d="M150.38,122.23c.19,0,.2.2.11.33a5.92,5.92,0,0,1-1.47,1.68c-.12.09-.31.21-.43,0s.08-.23.17-.31a8.87,8.87,0,0,0,1.33-1.54C150.16,122.34,150.22,122.23,150.38,122.23Z"/><path class="cls-3" d="M156.48,115.68a1.24,1.24,0,0,1-.9.33c-.51,0-1,0-1.55,0-.12,0-.24,0-.27-.16a.15.15,0,0,1,.17-.2A16.69,16.69,0,0,1,156.48,115.68Z"/><path class="cls-3" d="M86.72,107.32a1.09,1.09,0,0,1,.29-.5,8.87,8.87,0,0,0,1.58-2.39c0-.13.11-.27.28-.2s.13.22.08.34a7.12,7.12,0,0,1-1.8,2.6A.47.47,0,0,1,86.72,107.32Z"/><path class="cls-3" d="M128.06,78a.63.63,0,0,1,.52-.27,15.17,15.17,0,0,1,2.86-.19,1,1,0,0,1,.3,0,.18.18,0,0,1,.13.21.16.16,0,0,1-.17.12c-1.2-.09-2.38.2-3.57.15C128.11,78,128.09,78,128.06,78Z"/><path class="cls-3" d="M134.58,100.39a1.35,1.35,0,0,1-.45.74,13.59,13.59,0,0,1-3,2.14c-.13.08-.32.2-.42,0s.11-.27.24-.35a15,15,0,0,0,3-2.17A1.2,1.2,0,0,1,134.58,100.39Z"/><text class="cls-4" transform="translate(239.61 140.19) rotate(-90)">Rice</text><rect class="cls-5" width="255" height="235"/></g></g></svg>