<svg xmlns="http://www.w3.org/2000/svg" viewBox="0 0 250 226.99"><defs><style>.cls-1{fill:#1f787a;}.cls-2{font-size:15px;}.cls-2,.cls-4{fill:#eebc8a;font-family:ArialMT, Arial;}.cls-3{fill:none;stroke:#eebc8a;stroke-miterlimit:10;stroke-width:0.6px;}.cls-4{font-size:22.71px;}</style></defs><g id="图层_2" data-name="图层 2"><g id="图层_1-2" data-name="图层 1"><rect class="cls-1" width="250" height="226.99" rx="12"/><text class="cls-2" transform="translate(65.79 196.64)">Protein # : 43,649<tspan x="-3.34" y="20">Pocket # : 149,563</tspan></text><path class="cls-3" d="M48.25,126.8c.12-.88.22-1.76.37-2.63A20.65,20.65,0,0,1,51.88,116a5.19,5.19,0,0,1,1.48-1.51.6.6,0,0,0,.24-.3l1.17-3.77a2.44,2.44,0,0,0,.06-.31c-.21,0-.3.17-.41.26A9.3,9.3,0,0,1,51.84,112c-.63.24-1.3.45-1.88-.08a1.66,1.66,0,0,1-.27-1.83,15.69,15.69,0,0,1,3.38-5.87,14,14,0,0,1,4.4-3.53,1.56,1.56,0,0,1,1.67.13c.34.35.42.12.5-.16A14.81,14.81,0,0,1,60.55,98c-.24.15-.37.22-.49.31a17.92,17.92,0,0,1-3.57,2,3.93,3.93,0,0,1-1.16.28,1.05,1.05,0,0,1-1.17-1.42A5.86,5.86,0,0,1,55.27,97a19.53,19.53,0,0,1,5.46-4.74l.49-.29A7.37,7.37,0,0,1,60,91.9a1.22,1.22,0,0,1-.92-2,8.28,8.28,0,0,1,1.71-2.15A14.52,14.52,0,0,1,68.71,84a3.48,3.48,0,0,1,2.09.16,1.41,1.41,0,0,1,.9,1.77A14.61,14.61,0,0,0,73.52,84a16.19,16.19,0,0,1,5.3-4.88,2.58,2.58,0,0,1,1.32-.45c.4,0,.48-.24.43-1-.13,0-.22.06-.31.12a10.8,10.8,0,0,1-2.65,1.22c-.14,0-.29.06-.34.23a2.67,2.67,0,0,1-.85,1.06A11.46,11.46,0,0,1,70.7,83a14.51,14.51,0,0,1-3.65.37,2.67,2.67,0,0,1-1-.23.77.77,0,0,1-.33-1.27,5.63,5.63,0,0,1,1.54-1.33A16,16,0,0,1,71,78.89c.26-.08.37-.13.18-.43a1.38,1.38,0,0,1,.17-1.76,6.84,6.84,0,0,1,1.85-1.58,14.71,14.71,0,0,1,7.43-2,5.35,5.35,0,0,1,1.32.15c1.12.29,1.32.58,1.27,1.7l.39-.24a16.22,16.22,0,0,1,7.16-2.53,6.09,6.09,0,0,0,2-.92h-.31A21.49,21.49,0,0,1,87.32,71a3.94,3.94,0,0,1-1.45-.52.92.92,0,0,1-.09-1.62,5.52,5.52,0,0,1,1.43-.78,19.49,19.49,0,0,1,6.85-1.49l.35,0,.06,0-.38-.27a2.68,2.68,0,0,1-1-1.18,1.12,1.12,0,0,1,.33-1.43A4.16,4.16,0,0,1,94.77,63a15.53,15.53,0,0,1,6-.84,4.08,4.08,0,0,1,.79.06c.4.09.56,0,.65-.45a1.89,1.89,0,0,1,1-1.2,5.75,5.75,0,0,1,2.49-.73,15.64,15.64,0,0,1,9.6,2.37,1.49,1.49,0,0,1-.09,2.77,6.51,6.51,0,0,1-3.1.65,19,19,0,0,1-3.84-.23c-.24,0-.41,0-.51.25a1.57,1.57,0,0,1-.69.73c-.21.13-.42.25-.62.4,1.65-.32,3.31-.61,5-.85A98.84,98.84,0,0,1,124.75,65c.19,0,.53.13.53-.2s-.32-.06-.49-.07a18.51,18.51,0,0,1-8.47-2.15,5.52,5.52,0,0,1-1.15-.83,2.39,2.39,0,0,1-.54-.69,1.16,1.16,0,0,1,.82-1.83,6.44,6.44,0,0,1,2.51-.09,20.32,20.32,0,0,1,7.72,2.61,7.19,7.19,0,0,1,.8.56c.35.26.65.55.51,1.07-.06.2,0,.34.28.26a10.46,10.46,0,0,1,5.47,0l.44.09c-.23-.3-.4-.55-.59-.77a1.37,1.37,0,0,1-.26-1.37A.76.76,0,0,1,133,61a2.06,2.06,0,0,1,1.29.25A15.74,15.74,0,0,1,139.81,66a2.33,2.33,0,0,1,.2.34c.32.66.12,1-.69,1.07a10.88,10.88,0,0,0,2,.66A9.72,9.72,0,0,1,145.91,70a6.33,6.33,0,0,0,1.08.6,62,62,0,0,1,9.59,6.47,32.62,32.62,0,0,1,5.6,6,3.12,3.12,0,0,0,.61.65c0-.09-.09-.19-.15-.28a55,55,0,0,0-6.23-8.28c-.78-.91-1.5-1.87-2.31-2.75-.2-.23-.38-.43-.74-.33a1,1,0,0,1-.68-.15,6.24,6.24,0,0,1-2.37-1.82,14.25,14.25,0,0,1-1.66-2.35c-.1-.17-.18-.28-.41-.2a1.08,1.08,0,0,1-.88-.2,3.78,3.78,0,0,1-.81-.62,16.88,16.88,0,0,1-3.78-5.27,1.52,1.52,0,0,0-.64-.75c-.28-.17-.54-.36-.81-.54s-.69-.63-1.19-.1c-.27.29-.76.16-1.15.06a8.34,8.34,0,0,1-3-1.52.41.41,0,0,0-.6,0,3.2,3.2,0,0,1-2,.5,14.94,14.94,0,0,1-8-2.34,4,4,0,0,1-1.12-1,1,1,0,0,1,.5-1.71,6.2,6.2,0,0,1,2-.28.38.38,0,0,0,.27-.12l-2.56-.6-1.9-.43c-.12,0-.24-.1-.33,0a2.06,2.06,0,0,1-1.16.7,3.8,3.8,0,0,1,.88.86,1,1,0,0,1,0,1.3,2.76,2.76,0,0,1-1.16.87,13.13,13.13,0,0,1-8,.6,2.92,2.92,0,0,1-1.3-.63.86.86,0,0,1-.09-1.33,3.32,3.32,0,0,1,1.19-.76,14.94,14.94,0,0,1,4-.88c.33,0,.65-.07,1-.13-1-.2-2-.41-2.93-.68-.49-.13-1-.25-1.45-.42a3.14,3.14,0,0,0-2.53.1,11.27,11.27,0,0,1-4.74.74c-.33,0-.51,0-.62.41a2.66,2.66,0,0,1-1.18,1.4,13.41,13.41,0,0,1-5.29,1.93,9.25,9.25,0,0,1-3.4,0,1.46,1.46,0,0,1-1.42-1.41l-1.82.58A44.48,44.48,0,0,0,84.52,59c-.26.14-.43.23-.29.6A1.31,1.31,0,0,1,84,60.72,8,8,0,0,1,82,62.78a16.9,16.9,0,0,1-7.67,3.58,6.27,6.27,0,0,1-2.16,0,1.13,1.13,0,0,1-.9-1.82A5.75,5.75,0,0,1,72.7,63a18,18,0,0,1,9.9-4.48,1.17,1.17,0,0,1,.82.1.33.33,0,0,0,.37,0A47.71,47.71,0,0,1,92.57,55a.44.44,0,0,0,.19-.12c-.82,0-1.64,0-2.45-.13a.21.21,0,0,0-.21.13,2.32,2.32,0,0,1-1.09.94,23.44,23.44,0,0,1-8.4,2.36A6.83,6.83,0,0,1,78.5,58c-.94-.24-1.14-.86-.53-1.61a4,4,0,0,1,1.16-.94,16.2,16.2,0,0,1,7.09-2.22l.22,0,.1,0A1.38,1.38,0,0,1,86.38,52a2.09,2.09,0,0,1,1-1,12.37,12.37,0,0,1,5-1.42,15.32,15.32,0,0,1,4.68.15c.19,0,.3,0,.3-.23a1.51,1.51,0,0,1,1.11-1.44,8.25,8.25,0,0,1,2.69-.53,21.64,21.64,0,0,1,5.84.6c.33.07.54.12.65-.33s.65-.81,1.17-1a8.55,8.55,0,0,1,3.59-.3,16.81,16.81,0,0,1,8.12,3.19,6.83,6.83,0,0,1,1.31,1c.1.11.26.21.29.33.13.56.58.53,1,.6.92.15,1.83.3,2.77.38l-.44-.2a22.44,22.44,0,0,1-6.44-4.18,6.78,6.78,0,0,1-1.23-1.39,1.12,1.12,0,0,1,.92-1.88,4.43,4.43,0,0,1,1.88.22,20.55,20.55,0,0,1,7.44,4.45,3.09,3.09,0,0,1,1.08,1.64c.23,1.23-.17,1.76-1.44,1.85l3.76,1.27-.24-.46a7.81,7.81,0,0,1-1.14-3.09,1.64,1.64,0,0,1,.48-1.67,1.53,1.53,0,0,1,1.71.12,13,13,0,0,1,3.21,2.35,19.13,19.13,0,0,1,4.39,5.75c.23.51.42,1,.63,1.55a.51.51,0,0,0,.18.25l1.37.88a9.92,9.92,0,0,1-.06-1.18.83.83,0,0,1,1.18-.83,3.82,3.82,0,0,1,1.44.85,15.54,15.54,0,0,1,3.09,4c.14.24.22.4.54.19a1.06,1.06,0,0,1,1.06,0,5.5,5.5,0,0,1,1.42,1,12.83,12.83,0,0,1,3.5,5.37,2.62,2.62,0,0,1,.27,1.84c-.05.15.09.23.18.33a102,102,0,0,1,12,16.71c.39.68.8,1.35,1.21,2a.76.76,0,0,0,.1.13c.06-.18,0-.3-.09-.42-2.23-5.33-4.62-10.6-7.34-15.71-.93-1.76-2-3.44-3-5.16,0-.09-.1-.18-.22-.19a2.08,2.08,0,0,1-1.38-.72,18.94,18.94,0,0,1-2.87-3.26c-.55-.77-1-1.57-1.59-2.35a1.6,1.6,0,0,1-.16-1.48c.16-.52.6-.55,1.07-.55a3,3,0,0,0-.47-.85c-.08-.13-.16-.08-.25,0a.79.79,0,0,1-.88,0,4.35,4.35,0,0,1-1.24-.83A13.7,13.7,0,0,1,147.45,56c-.41-.6-.76-1.24-1.22-1.8a2.35,2.35,0,0,1-.44-1.15c-.18-1,.09-1.38,1.16-1.45-.33-.45-.43-1-1.13-1.11a3.25,3.25,0,0,1-1.48-1,19.83,19.83,0,0,1-4.13-5.12,2.43,2.43,0,0,1-.32-1c-.08-.72.25-1,1.18-1.19L140,40.53c-.07-.11-.14-.18-.28-.09a1.11,1.11,0,0,1-1,0,7.24,7.24,0,0,1-2.07-1.28,17.25,17.25,0,0,1-4.68-5.27,4.71,4.71,0,0,1-.61-1.84c-.05-.92.52-1.38,1.41-1.1a6.31,6.31,0,0,1,1.78,1l.86.64a4.11,4.11,0,0,0-.71-1.21,18.29,18.29,0,0,1-1.48-1.93c-.07-.11-.13-.23-.31-.2a2.27,2.27,0,0,1-1.51-.53A15.83,15.83,0,0,1,128,25.37a31.36,31.36,0,0,1-2.6-4,3.36,3.36,0,0,1-.51-2.1c.1-1.09.73-1.49,1.75-1.1a7.57,7.57,0,0,1,3.16,2.43c.24.3.42.45.82.2a1.15,1.15,0,0,1,1.22.07A5.5,5.5,0,0,1,133.2,22a11.8,11.8,0,0,1,1.7,2.27,28.23,28.23,0,0,1,2.24,5.06,5.47,5.47,0,0,1,.31,2c0,.93-.31,1.22-1.2,1.27.8,1.89,2.27,3.36,3.21,5.17a30.92,30.92,0,0,1-1.05-3.52,7.6,7.6,0,0,1-.08-3.79c.13-.43.29-.55.74-.43a2,2,0,0,1,1.09.93,16.8,16.8,0,0,1,1.65,3.28c.07.2.14.39.22.58.16,0,.18-.16.23-.25a1.1,1.1,0,0,1,1.1-.67,1.32,1.32,0,0,1,1.21.88,16.39,16.39,0,0,1,.69,2.76,17.84,17.84,0,0,1,.29,3.79.73.73,0,0,0,.19.52A17.19,17.19,0,0,1,149.36,50a2.37,2.37,0,0,1,0,.53c0,1-.5,1.24-1.38.88a1.13,1.13,0,0,0-.34-.1,9.51,9.51,0,0,0,1.1,1.63,19.26,19.26,0,0,1,2.35,3.33,5.86,5.86,0,0,1,.87,2.38,1,1,0,0,0,0-1,15.27,15.27,0,0,1-1.54-9,3.5,3.5,0,0,1,.23-.9.71.71,0,0,1,1.08-.46,1.93,1.93,0,0,1,.87.87,12.15,12.15,0,0,1,1,3c.07.27.09.45.48.45a1.47,1.47,0,0,1,1.21.86,8,8,0,0,1,.87,2.69,21.45,21.45,0,0,1,.4,6.14,3.11,3.11,0,0,1-.35,1.22c-.07.11-.11.2,0,.32A17,17,0,0,1,158,66.4c0-.32-.07-.63-.09-1A18.3,18.3,0,0,1,158,61.9a.63.63,0,0,1,.42-.52.86.86,0,0,1,.92.12,1.71,1.71,0,0,1,.5.72,15.94,15.94,0,0,1,1.32,7.4c0,.62-.11,1.29-.81,1.62-.22.1,0,.26,0,.36.65,1.25,1.33,2.48,2,3.72,3,5.64,5.95,11.28,8.49,17.13.6,1.39,1.17,2.78,1.75,4.17a1.24,1.24,0,0,0,.28.42c-.12-.48-.23-1-.37-1.43-1.05-3.68-1.87-7.41-2.66-11.16-.73-3.46-1.35-6.94-2-10.41s-1.31-6.9-2-10.34c-.64-3.11-1.19-6.23-1.8-9.35-.75-3.81-1.33-7.66-2.3-11.43-.53-2.07-1.25-4.09-1.85-6.15-.9-3.1-1.7-6.23-2.59-9.33-.68-2.4-1.43-4.79-2.15-7.18-.52-1.73-1.21-3.39-1.8-5.1a.9.9,0,0,1,0-.16h.17c1,1.75,1.78,3.57,2.65,5.37A88.4,88.4,0,0,1,159.59,29c2,5.52,4,11,5.93,16.56s4,11,5.93,16.51c2.29,6.49,4.68,12.94,6.74,19.51a.53.53,0,0,0,.19.29l-.18-2.13c0-.6-.08-1.21-.09-1.81,0-1.45-.14-2.89-.12-4.34s-.07-3-.1-4.44-.08-3.15-.17-4.73c-.12-1.92-.06-3.84-.06-5.77,0-.73.1-1.47.07-2.21-.07-2-.14-4-.19-5.93,0-1.48-.12-3-.17-4.43s-.23-3.07-.34-4.61c0-.59-.06-1.18-.08-1.77,0-1.52-.19-3-.29-4.54s-.26-3.25-.44-4.87-.33-3.12-.5-4.68a22.28,22.28,0,0,1-.2-3.65,1.68,1.68,0,0,1,.06-.31,9,9,0,0,1,.46,1.13c1.12,4.47,2.41,8.89,3.61,13.34.6,2.24,1,4.52,1.54,6.78q.92,3.86,1.81,7.73c.73,3.2,1.47,6.41,2.18,9.62s1.42,6.45,2.12,9.68c.58,2.72,1.2,5.44,1.68,8.18.36,2,.67,4,1,6,.24,1.45.49,2.9.7,4.36.18,1.26.29,2.53.46,3.79.25,1.8.34,3.6.51,5.4.12,1.24.19,2.5.19,3.75,0,2.09.15,4.17.1,6.26,0,.45-.11.89-.08,1.47.37-.87.71-1.61,1-2.37.67-1.69,1.4-3.34,2-5a75.75,75.75,0,0,0,2.35-7.5c.5-2,1-3.91,1.38-5.88.3-1.44.54-2.89.76-4.34s.45-3,.59-4.52a55.61,55.61,0,0,0,.2-6.06,33.14,33.14,0,0,0-.11-3.45,9.35,9.35,0,0,0-.24-1.73,1.55,1.55,0,0,1,0-.31c0-.14,0-.31.19-.33a.35.35,0,0,1,.39.22,3.75,3.75,0,0,1,.29,1.14,35.29,35.29,0,0,1,.38,3.58c.09,1.46,0,2.93.11,4.38.23,3,.11,6.09.18,9.13,0,2-.05,4-.14,6-.06,1.27-.09,2.54-.16,3.81-.1,1.6-.26,3.19-.34,4.79-.05.93-.12,1.85-.2,2.78-.11,1.25-.24,2.5-.46,3.74-.3,1.79-.67,3.57-1.05,5.35a136.88,136.88,0,0,1-3.81,14.47c-.54,1.61-.92,3.27-1.39,4.9a.88.88,0,0,0,0,.17c0,1.48-.11,2.95-.09,4.43a80.51,80.51,0,0,0,3.19,20.81c1.2,4.21,2.4,8.42,3.88,12.54.27.75.59,1.49.88,2.23a.65.65,0,0,1-.31,1c-.64.4-.87.4-1.24,0a7.56,7.56,0,0,1-.57-.79c-.1-.14-.14-.19-.32,0a.53.53,0,0,0-.14.83c.2.33.36.68.53,1s.23.51-.21.69-.8.18-1.19.32c-.22.08-.33-.14-.41-.32-.24-.52-.48-1-.71-1.58-.07-.16-.12-.33-.35-.32a.35.35,0,0,1-.24-.12,11.09,11.09,0,0,1-1.87-2.11,66.27,66.27,0,0,1-3.81-8.73c-1.19-3.22-2.57-6.35-3.77-9.55a53.81,53.81,0,0,1-2.73-9.54,39.11,39.11,0,0,1-.48-4.06c-.07-1-.06-2.06-.05-3.09,0-.84.09-1.68.17-2.52a3.19,3.19,0,0,0-.26-1.33c-.7-2.09-1.45-4.16-2.2-6.23a15.67,15.67,0,0,0-8.56-9c-1.66-.78-3.25-1.69-5-2.31a20.62,20.62,0,0,0-6.65-1.16c-.32,0-.58,0-.66.43a1.41,1.41,0,0,1-.63.78,15.66,15.66,0,0,1-6.64,2.9,2.89,2.89,0,0,1-.88,0,.85.85,0,0,1-.79-1.23,7.74,7.74,0,0,1,.36-.76l-1.57.76a.23.23,0,0,0-.1.23,3.3,3.3,0,0,1-.53,1.81,15.22,15.22,0,0,1-3.79,4.47,3.77,3.77,0,0,1-1.31.73c-.77.22-1.2-.09-1.16-.88a6.21,6.21,0,0,1,.8-2.61,1.76,1.76,0,0,0,.16-.4,17.66,17.66,0,0,0-3.2,2.73c.41,0,.79-.12,1.1.2a1.7,1.7,0,0,1,.41,1.23,5.67,5.67,0,0,1-.26,1.48,14.77,14.77,0,0,1-2.87,5.75,5.26,5.26,0,0,1-.62.63c-.14.13-.34.29-.51.23-.52-.16-.59.21-.74.54a20,20,0,0,1-1.48,2.73,5.34,5.34,0,0,1-1,1.15c-.5.4-.77.4-1.25,0-.16.08-.2.24-.28.37a13.41,13.41,0,0,1-2.18,2.84,4.7,4.7,0,0,1-1.18.86c-.67.32-1.09.11-1.22-.62a5.73,5.73,0,0,1,.23-2.5,15.49,15.49,0,0,1,4.34-7.5,13.61,13.61,0,0,0,1.56-2.08c-.11-.14-.2,0-.29,0a5.63,5.63,0,0,1-.9.22c-.86.07-1.24-.33-1.13-1.2a3.66,3.66,0,0,1,.47-1.32,13.2,13.2,0,0,1,6-5.47,2.71,2.71,0,0,1,1.08-.25c.68,0,1,.19,1.36,1a25.1,25.1,0,0,1,5.26-3.57.66.66,0,0,0-.52.11,14.5,14.5,0,0,1-3.88,1.06,3.13,3.13,0,0,1-1.1,0,.65.65,0,0,1-.44-1.08,3,3,0,0,1,.56-.63,11.9,11.9,0,0,1,5.71-3c.27-.06.36-.12.34-.42a1.13,1.13,0,0,1,.53-.93,7.44,7.44,0,0,1,3.54-1.52,13.05,13.05,0,0,1,4.32-.09,1.59,1.59,0,0,1,.47.14c.81.36.91,1,.23,1.58a4.35,4.35,0,0,1-1.52.8,21.83,21.83,0,0,1-3.81,1c-.1,0-.23,0-.28.09-.32.73-1,1-1.61,1.48,0,0,.08,0,.1,0,1.6-.87,3.34-1.42,5-2.18a8.71,8.71,0,0,1,4.27-1c.72,0,1.44.06,2.2,0-.1-.18-.27-.19-.4-.25a6.73,6.73,0,0,1-1.6-.94c-.65-.58-.52-1.19.31-1.45a5.24,5.24,0,0,1,2.55-.09,9,9,0,0,1,4.47,1.88A1.09,1.09,0,0,1,167,113a32.08,32.08,0,0,1,6.33,2.68,25.38,25.38,0,0,1,5.69,3.86c-.22-.66-.48-1.31-.66-2a21.62,21.62,0,0,0-1.6-3.81,61.39,61.39,0,0,0-13.28-18,25.85,25.85,0,0,0-2.45-2c-.12-.09-.23-.2-.43-.08a10.52,10.52,0,0,1-5,1.23,14.09,14.09,0,0,1-4.61-.51,2.35,2.35,0,0,1-1.29-.72c-.17-.21-.36-.09-.53,0a25.51,25.51,0,0,1-3.59.55,10.27,10.27,0,0,1-3.08-.23c-.36-.09-.74-.19-.85-.62s.17-.73.47-1a7.14,7.14,0,0,1,1.8-1.12,18.8,18.8,0,0,1,4.87-1.43,7,7,0,0,1,2.42,0,2.35,2.35,0,0,1,1.6.86.28.28,0,0,0,.31.1l1.76-.26c-.11-.16-.28-.17-.43-.22a24.44,24.44,0,0,0-6.51-1.25,3.91,3.91,0,0,1-.48,0c-.25,0-.37,0-.5.27a2.16,2.16,0,0,1-1.39,1,7,7,0,0,1-1.93.28,22.47,22.47,0,0,1-3-.08,2.71,2.71,0,0,0-1.06.09,55.39,55.39,0,0,0-14.29,6.55.85.85,0,0,0-.33.29,7.43,7.43,0,0,1-2.67,2.67c-.09.06-.21.09-.26.27a1.36,1.36,0,0,1,.9-.12,1.16,1.16,0,0,1,1.15,1.17,2.61,2.61,0,0,1-.1.92,16.36,16.36,0,0,1-4.19,7.26,7,7,0,0,1-2,1.43,2.11,2.11,0,0,1-1.37.23c-.29-.07-.32.14-.39.3a22.66,22.66,0,0,1-2.35,4,8.83,8.83,0,0,1-2.71,2.63.7.7,0,0,0-.29.43,17.38,17.38,0,0,1-3,5A5.23,5.23,0,0,1,106,125a1.24,1.24,0,0,1-2-1,5.51,5.51,0,0,1,.16-2.55,19.07,19.07,0,0,1,2.53-6.12c.06-.09.11-.19.18-.31-.12,0-.15,0-.18.09a59.71,59.71,0,0,0-3.89,6c-.14.26-.18.42.09.62a.78.78,0,0,1,.24.6,3.67,3.67,0,0,1-.24,1.7,20.33,20.33,0,0,1-3.14,5.53,5.25,5.25,0,0,1-1.65,1.46c-.9.5-1.48.14-1.45-.88a9,9,0,0,1,.68-2.79,13.58,13.58,0,0,1,2.19-3.89,5.9,5.9,0,0,1,2-1.79.37.37,0,0,0,.21-.26c.19-.59.49-1.11.73-1.7l-.33.36a8.74,8.74,0,0,1-2.43,2,2.5,2.5,0,0,1-1.23.34.86.86,0,0,1-.91-.88,2.83,2.83,0,0,1,.36-1.4,11.94,11.94,0,0,1,3-3.83,6,6,0,0,1,1.4-1,1.57,1.57,0,0,1,.9-.17,1.09,1.09,0,0,1,1.07,1.47c0,.09,0,.19-.08.4l2.85-4c-.18,0-.28.1-.4.16a8.56,8.56,0,0,1-2.27,1l-.18,0c-1.15.19-1.61-.36-1.2-1.45a7.42,7.42,0,0,1,1.49-2.29,12.64,12.64,0,0,1,5.29-3.53,1.43,1.43,0,0,1,1.71.34c.11.12.18.17.31,0,1.43-1.56,3-3,4.53-4.44,0,0,0,0,0-.07-.3,0-.6,0-.9,0a1,1,0,0,1-.9-1.38,5.16,5.16,0,0,1,1.08-1.72,14,14,0,0,1,6.73-4.07,4.07,4.07,0,0,1,1.67-.14,1.09,1.09,0,0,1,.93.66c.07.16.14.2.3.1,1.28-.81,2.6-1.56,3.93-2.32-.81.13-1.62.26-2.43.37a5.24,5.24,0,0,1-1.81,0c-.78-.17-1-.76-.46-1.37a5.57,5.57,0,0,1,1.59-1.26A17.24,17.24,0,0,1,133,89.46a3.54,3.54,0,0,1,2.22.38c.59.35.68.46.6,1.16l2.17-.73c0-.17-.17-.14-.27-.16a8.06,8.06,0,0,1-2.18-.86c-.78-.49-.76-1.12,0-1.56a9,9,0,0,1,3.84-1,15.41,15.41,0,0,1,6.28.82,3.57,3.57,0,0,1,1.06.55,1.07,1.07,0,0,0,.67.17,28.21,28.21,0,0,1,6.76,1.14,29.82,29.82,0,0,1,2.89,1.13,2.65,2.65,0,0,0,.93.23A4,4,0,0,1,160.71,92a.84.84,0,0,1,.25.36c.09.52.5.74.87,1a27.48,27.48,0,0,1,3.74,3.33,64.05,64.05,0,0,1,8.12,10c.62,1,1.19,2,1.78,3,.1-.12,0-.22,0-.32a43,43,0,0,0-5.22-10.65,60.9,60.9,0,0,0-11.42-13.39c-2.14-1.8-4.26-3.62-6.56-5.22a11.25,11.25,0,0,0-1.25-.76c-.19-.1-.3-.17-.42.12s-.58.47-1,.51a6.51,6.51,0,0,1-2.44-.31,11.69,11.69,0,0,1-3-1.3.89.89,0,0,0-.88-.09,10.22,10.22,0,0,1-5.51.23,8.2,8.2,0,0,1-3.23-1.29,3.68,3.68,0,0,1-.9-.86,1,1,0,0,1-.15-1c.12-.27,0-.31-.21-.3l-.93,0a.45.45,0,0,0-.42.18,4.31,4.31,0,0,1-1.38,1.1,14.53,14.53,0,0,1-5.47,1.84,5.36,5.36,0,0,1-2.45-.22,1.46,1.46,0,0,1-.64-.3c-.49-.55-.93-.29-1.45,0A13.84,13.84,0,0,1,114.42,79a1.09,1.09,0,0,0-.43.08c-.76.29-1.51.6-2.26.9-.13.05-.32.07-.25.29a2.13,2.13,0,0,1-.6,2,13.75,13.75,0,0,1-2.38,2.38,18.48,18.48,0,0,1-4.11,2.53,4.46,4.46,0,0,1-1.62.42c-.92,0-1.3-.48-1-1.36a14,14,0,0,1,.63-1.3L100,86.44a1.41,1.41,0,0,1,.77,1.19,2.76,2.76,0,0,1-.27,1.38,14.09,14.09,0,0,1-3,3.94,11.92,11.92,0,0,1-2.3,1.81,3.71,3.71,0,0,1-1.94.67c-.22,0-.29.17-.39.31a14,14,0,0,1-2.82,3,5.47,5.47,0,0,1-1.81,1c-.22.07-.29.23-.38.4a22.51,22.51,0,0,1-2.51,4,7.16,7.16,0,0,1-1.36,1.39c-1.07.79-1.67.65-2.25-.57a.75.75,0,0,0-.24.64,5.06,5.06,0,0,1-.36,3,14.34,14.34,0,0,1-2.49,4,3.54,3.54,0,0,1-1.22,1,.73.73,0,0,1-1.11-.55,3.54,3.54,0,0,1,.07-1.71,13.77,13.77,0,0,1,2.84-5.66,4,4,0,0,1,.59-.65,1,1,0,0,1,1-.2c.11,0,.24.14.31,0a5.39,5.39,0,0,0,.66-1.34,11.12,11.12,0,0,1,4.82-7.46A5.24,5.24,0,0,0,88,94.45a14.75,14.75,0,0,1,3.36-3.69,2.44,2.44,0,0,1,1.68-.54,1.25,1.25,0,0,0,.92-.33,87.43,87.43,0,0,1,7.56-5.28.85.85,0,0,0,.41-.34,12,12,0,0,1-1.34,0A2.29,2.29,0,0,1,99.55,84c-.26-.18-.37-.11-.54.12a14.21,14.21,0,0,1-4.62,4.21,6.77,6.77,0,0,1-2.35.89c-1.11.16-1.6-.44-1.22-1.5a12.16,12.16,0,0,1,1.36-2.44.46.46,0,0,0,.1-.31c-.25.19-.51.37-.75.57-1.87,1.54-3.79,3-5.54,4.71a3.26,3.26,0,0,0-.49.62,7.27,7.27,0,0,1-2.12,2A6.52,6.52,0,0,0,82.14,94a1.84,1.84,0,0,1,1.19,2.19,14.06,14.06,0,0,1-4.69,9,3.74,3.74,0,0,1-1.38.86,1,1,0,0,1-1.51-.81,6.17,6.17,0,0,1,.14-2.77,15.87,15.87,0,0,1,.73-2.21.72.72,0,0,0-.33.34l-1.83,2.62a3.9,3.9,0,0,0-.87,2.12,5.65,5.65,0,0,1-.74,2.13,20,20,0,0,1-3.76,5.39c-.21.22-.22.33,0,.56a2,2,0,0,1,.33,1.65,17.81,17.81,0,0,1-.85,3.53,18.64,18.64,0,0,1-3.32,6,3.9,3.9,0,0,1-1,.93,1.1,1.1,0,0,1-1.75-.6,5.63,5.63,0,0,1-.15-3.15,15.64,15.64,0,0,1,2.4-6c.06-.08.14-.16.13-.27a1.63,1.63,0,0,1-1.25-2.4,19.27,19.27,0,0,1,3.18-5.9c.19-.24.23-.37,0-.61a1.3,1.3,0,0,1-.19-1.38,7.63,7.63,0,0,1,1.23-2.45A17.67,17.67,0,0,1,75,96.61c1.15-.49,1.88,0,1.91,1.24v.66c1.26-1.23,2.19-2.71,3.36-4-.68.17-1.3.38-2,.48a5.64,5.64,0,0,1-1.64,0,1.49,1.49,0,0,1-1.22-2.38,6.41,6.41,0,0,1,1.92-2.06,14.23,14.23,0,0,1,3.22-1.77c.23-.09.43-.12.17-.46s-.14-.87.14-1.26A10.31,10.31,0,0,1,84,84.19a13.6,13.6,0,0,1,6-1.86c1.09-.09,1.92.08,2.26,1.61,1.82-1.28,3.6-2.6,5.46-3.81a28.5,28.5,0,0,1-2.84.79,14,14,0,0,1-1.93.27,2.86,2.86,0,0,1-.88-.06.74.74,0,0,1-.56-1,3.13,3.13,0,0,1,.83-1.2,14.55,14.55,0,0,1,5.5-3.46c.25-.09.42-.15.38-.5a1.27,1.27,0,0,1,.6-1.08,6.7,6.7,0,0,1,1.71-1,16.16,16.16,0,0,1,7.5-1.44,2.71,2.71,0,0,1,1.75.86.79.79,0,0,1,.12.8,4,4,0,0,1-.57,1c1.92-.67,3.72-1.41,5.6-1.92,0-.2-.18-.15-.28-.17a12.76,12.76,0,0,1-2.36-.6c-.22-.09-.43-.18-.64-.29s-.66-.39-.68-.81.33-.68.68-.86a9.18,9.18,0,0,1,3.91-1,13.53,13.53,0,0,1,4.7.34,4.27,4.27,0,0,1,2.83,1.82c.15.26.35.11.54.1,0-.18-.15-.24-.24-.33-.58-.65-.45-1.17.37-1.5a5.45,5.45,0,0,1,1.64-.34,13.31,13.31,0,0,1,6,.94,8.32,8.32,0,0,1,2.4,1.72,1.11,1.11,0,0,0,.6.32A35.3,35.3,0,0,1,141,73.14a.82.82,0,0,0,.3.07,6.74,6.74,0,0,1,3.88,1.05,80.58,80.58,0,0,1,8.19,4.68,62.19,62.19,0,0,1,14,13.44c.09.13.2.26.31.41.08-.18-.05-.27-.1-.37A94.21,94.21,0,0,0,160,81.74a41,41,0,0,0-8.88-7.57c-1.45-1-3-1.82-4.49-2.69-.13-.08-.25-.22-.39,0a1.23,1.23,0,0,1-1.09.59,13.06,13.06,0,0,1-8-2,2.68,2.68,0,0,1-.53-.48.81.81,0,0,1,.38-1.4c.47-.17,1,0,1.56-.24l-2.77-.82a.4.4,0,0,0-.21,0,14.4,14.4,0,0,1-9.48-.9.36.36,0,0,1-.15-.08c-.53-.59-1.22-.48-1.89-.47a87.48,87.48,0,0,0-16.7,1.58A66.38,66.38,0,0,0,93.07,72a1,1,0,0,0-.45.27.67.67,0,0,0,.43.08.77.77,0,0,1,.73,1.17,3.24,3.24,0,0,1-.71,1,15.73,15.73,0,0,1-4.74,3.22,16,16,0,0,1-4.6,1.58A4.55,4.55,0,0,1,81.08,79a2.05,2.05,0,0,1,.07,2.31,14.39,14.39,0,0,1-5.85,6.19,4.75,4.75,0,0,1-1.71.58c-1.16.18-1.63-.34-1.35-1.46a1.6,1.6,0,0,0,.05-.21c-.15-.06-.2.06-.26.12a59.43,59.43,0,0,0-4.89,5.15c-.2.23-.22.33.06.52a1.66,1.66,0,0,1,.61,1.58,5.91,5.91,0,0,1-.28,1.39,20,20,0,0,1-2.9,5.86,8.41,8.41,0,0,1-2.3,2.19,1.66,1.66,0,0,1-2.69-.6.48.48,0,0,0,.14.74,2.7,2.7,0,0,1,.87,1.7,13.72,13.72,0,0,1,0,5,19,19,0,0,1-1.87,6,6.2,6.2,0,0,1-1.23,1.73,1.86,1.86,0,0,1-1.2.61c-.33,0-.22.25-.23.42a17.51,17.51,0,0,1-1.33,6.26c-.21.5-.46,1-.7,1.48-.07.13-.14.25,0,.41a7.18,7.18,0,0,1,.8,3.24,22.65,22.65,0,0,1-1.21,9.13,5.62,5.62,0,0,1-.84,1.61c-.78,1-1.7.9-2.24-.24a9.5,9.5,0,0,1-.7-3.72,23,23,0,0,1,.58-6.13c.07-.31,0-.42-.32-.36a1.19,1.19,0,0,1-1.21-.59,3.55,3.55,0,0,1-.57-1.57c0-.18-.06-.35-.1-.52Zm130.85-62a1.51,1.51,0,0,0-.4,1c0,.64.07,1.27.09,1.91,0,1.44,0,2.89.08,4.34.07,3,0,6.1.1,9.14,0,.69.07,1.39.13,2.08a7.12,7.12,0,0,0,.11,1.53c.38,1.25.75,2.51,1.14,3.75.85,2.69,1.77,5.36,2.44,8.11,1,4,2,8,3,12.06a54.73,54.73,0,0,1,1.27,6.83,18,18,0,0,1,.36,3.45c.19-.08.21-.23.26-.34,1.06-2.18,2-4.42,3-6.62a6.19,6.19,0,0,0,.56-3c-.06-1.29-.1-2.59-.17-3.89s-.12-2.59-.17-3.88c-.08-1.94-.27-3.87-.46-5.8-.1-1-.15-2-.29-3.06a2.48,2.48,0,0,0-.22-1.18,2.32,2.32,0,0,0-.28,1.17c.08.43.12.87.2,1.31s.22,1.1.28,1.68c.19,1.82.48,3.63.61,5.46a25,25,0,0,1,.14,3.77,1.4,1.4,0,0,1-.4,1l-.19-.36c-1,1.72-1.34,3.2-1,4.43.07-.22.13-.38.19-.55.23-.68.45-1.37.7-2,.07-.2.07-.58.4-.46s.07.41,0,.62a1.72,1.72,0,0,1-.07.21c-.36,1.07-.72,2.13-1.09,3.19a2.19,2.19,0,0,0-.13,1,3.92,3.92,0,0,1-.11,1.67c0,.14-.1.34-.24.35s-.16-.21-.22-.34,0-.23-.16-.29a4.23,4.23,0,0,1-1.07,1.7,15.26,15.26,0,0,1,.9-2.58,6.94,6.94,0,0,0,0-2.53c-.58.86-.75,1.94-1.64,2.66a1.92,1.92,0,0,1,.25-1c.39-.86.78-1.72,1.19-2.58.31-.66,0-1.3,0-2-.5.78-.66,1.73-1.46,2.42a3.48,3.48,0,0,1,0-.35,10.88,10.88,0,0,1,1-2.48,5,5,0,0,0,.17-2.76c-.59.93-.81,2.06-1.71,2.86a1.7,1.7,0,0,1,.24-.94c.35-.75.64-1.53,1-2.25a4.35,4.35,0,0,0,.16-2.78,1.63,1.63,0,0,0-.22.38,19.71,19.71,0,0,1-.85,1.8,3.63,3.63,0,0,0-.76,1.68.37.37,0,0,1-.23.35c-.06-.2-.13-.38-.17-.57a22.36,22.36,0,0,1-.29-3.16c-.08-1.27-.28-2.53-.31-3.8,0-.59-.08-1.18-.12-1.77a.34.34,0,0,1,.29-.39c.24,0,.35.14.38.35s0,.42.06.64c.38-.64.61-1.33,1-1.94.6-1,.16-2,0-3a17,17,0,0,0-1,2.31,1.56,1.56,0,0,1-.83,1c.4-.7.1-1.38,0-2.07s-.2-1.6-.32-2.51a14.69,14.69,0,0,1-1.78,3.12,1.89,1.89,0,0,1,.24-1c.35-.77.66-1.56,1.08-2.29a3.35,3.35,0,0,0,.15-2.39,11.62,11.62,0,0,0-1.43,4.3c-.08-.58-.48-1-.37-1.69a9.73,9.73,0,0,0,0-1.93c-.27.28-.39.57-.8.71.45-1.07,1-2,.62-3.21a3.25,3.25,0,0,1-.94,1.28,2.64,2.64,0,0,1,.45-1.33,3.55,3.55,0,0,0,.4-2.73,3.17,3.17,0,0,1,0-.81c0-.73,0-1.46-.07-2.19a4.53,4.53,0,0,0-.52.8,1.69,1.69,0,0,0-.28,1.2,1.46,1.46,0,0,1-.32,1.24c-.59-.84-.4-1.84-.64-2.73-.18.06-.2.27-.46.25a4.41,4.41,0,0,0,.23-2.84c-.22.11-.26.41-.53.48a5.15,5.15,0,0,1,.37-1.19,1.6,1.6,0,0,0,.12-.65c0-.72-.09-1.45-.13-2.17,0-.32-.21-.69-.16-.92a7.85,7.85,0,0,0,0-2.11c-.09-1.16-.18-2.32-.3-3.48C179.18,66.49,179.13,65.62,179.1,64.76ZM55.48,119.07c0-.22.19-.64-.07-.94a4.33,4.33,0,0,1-.95-2.52c-.09-.72-.39-.89-1.05-.56a1.67,1.67,0,0,0-.62.56c-.19.29-.37.6-.57.89A20.93,20.93,0,0,0,48.88,127a4.34,4.34,0,0,0,.44,2.5.78.78,0,0,0,1.26.29,8.81,8.81,0,0,0,2.84-3.16A16.49,16.49,0,0,0,55.48,119.07Zm71.86-46.56a25.43,25.43,0,0,1-2.37-1,.34.34,0,0,0-.17,0,10,10,0,0,0-2.5.29,9.35,9.35,0,0,1-2.21.46,20.42,20.42,0,0,0-4.59.66,59,59,0,0,0-15.17,6.65c-.37.24-.75.46-1.19.73a1.45,1.45,0,0,1,1,1,2.4,2.4,0,0,0,.25-.18,12.67,12.67,0,0,1,4.68-2.24,4,4,0,0,1,1.53-.23c1.25.15,2,.42,2.23,1.39a3,3,0,0,1,1.27-.34c1.07,0,1.89-.67,2.89-.94a1.47,1.47,0,0,1-.18-2.29,4.84,4.84,0,0,1,.81-.82,14,14,0,0,1,7.44-3.26,2.86,2.86,0,0,1,2.73,1c.07.09.12.14.25.08A16.15,16.15,0,0,1,127.34,72.51ZM111.46,47.09c-.37,0-.74,0-1.11.06a4.37,4.37,0,0,0-1.62.42.78.78,0,0,0-.42,1.17,2.44,2.44,0,0,0,.93,1,14.74,14.74,0,0,0,3.42,1.64,27.37,27.37,0,0,0,6.56,1.43,4.27,4.27,0,0,0,2-.21.67.67,0,0,0,.37-1,1.34,1.34,0,0,0-.32-.42,11.72,11.72,0,0,0-1.53-1.27A15.78,15.78,0,0,0,111.46,47.09Zm-52.17,56.7c0,.09-.1.16-.14.24a20.46,20.46,0,0,1-2.37,3.84,9.34,9.34,0,0,0-1.61,3.81,13.52,13.52,0,0,0-.17,3.54,4.83,4.83,0,0,0,.5,2c.41.73.77.77,1.47.27a3.41,3.41,0,0,0,.46-.47,7.4,7.4,0,0,0,1.09-1.78,19.6,19.6,0,0,0,1.7-6.89,9.79,9.79,0,0,0-.26-3.53A1.72,1.72,0,0,0,59.29,103.79Zm136.21.7a1.23,1.23,0,0,0-.17.21L193,110.39c-1.19,2.93-2.42,5.84-3.78,8.7-.69,1.44-1.34,2.9-1.91,4.4-.7,1.83-1,3.76-1.51,5.62a30.69,30.69,0,0,0-1,9.63,38.29,38.29,0,0,0,2,10.2.79.79,0,0,0,.26.48,36.1,36.1,0,0,1-1.13-8.85c-.19,0-.24.23-.41.18a.94.94,0,0,1,.12-.72,3,3,0,0,0,.33-1.59c0-.36,0-.73.05-1.1,0-.09,0-.25,0-.25-.46-.08-.18-.39-.12-.53a13.4,13.4,0,0,0,.51-2.82c-.28.17-.36.47-.75.56.55-1.26,1.25-2.39,1.15-3.79a10.7,10.7,0,0,1-1.38,2,1.59,1.59,0,0,1,.29-1c.36-.64.73-1.28,1.14-1.9a8.69,8.69,0,0,0,.73-2.49,3,3,0,0,0-.37.34.47.47,0,0,1-.45.18,17.47,17.47,0,0,0,2.58-5.82,4.41,4.41,0,0,1-.92.82,4.06,4.06,0,0,1,.69-1.23,9,9,0,0,0,1.37-2.67c.3-.88.6-1.76.91-2.63.22-.65.57-1.27.8-1.92a10.22,10.22,0,0,0,.42-1.17,2,2,0,0,0,.19-1c-.08-.4.41-.79.57-1.22A65.4,65.4,0,0,0,195.5,104.49ZM110.85,65a13.18,13.18,0,0,0,3.09-.21,2.76,2.76,0,0,0,1.24-.57c.37-.33.47-.74.2-1.05a3.74,3.74,0,0,0-1-.9,15.86,15.86,0,0,0-6.11-1.83,9.4,9.4,0,0,0-4.08.33,3.17,3.17,0,0,0-1.18.68.89.89,0,0,0,.11,1.49,4.13,4.13,0,0,0,.58.33A15.36,15.36,0,0,0,110.85,65ZM100.1,62.68h0c-.31,0-.62,0-.93,0a12.49,12.49,0,0,0-4.85,1.11c-.88.45-.95.9-.27,1.61a2.73,2.73,0,0,0,.37.32,5.39,5.39,0,0,0,1.87.9,15.11,15.11,0,0,0,5.52.51,20.45,20.45,0,0,0,4-.92,3.17,3.17,0,0,0,1.18-.68c.27-.27.23-.38-.13-.49l-.85-.25a9.17,9.17,0,0,1-3.28-1.5,2.55,2.55,0,0,0-1.76-.6ZM60.75,91.39c.16,0,.33,0,.49,0a16.52,16.52,0,0,0,8.6-4.07A5.32,5.32,0,0,0,71,85.8a.64.64,0,0,0-.36-1,3.93,3.93,0,0,0-1.94-.28A13.83,13.83,0,0,0,60.42,89a5.61,5.61,0,0,0-.89,1.31c-.24.5-.1.82.43,1A2.64,2.64,0,0,0,60.75,91.39Zm50.09-40a1,1,0,0,0-.45-.28,6,6,0,0,1-2.61-2c-.07-.12-.2-.12-.31-.14a21.9,21.9,0,0,0-6.45-.68,6.32,6.32,0,0,0-2.45.57A.91.91,0,0,0,98.1,50,2.23,2.23,0,0,0,99,51a8.4,8.4,0,0,0,3.19,1.09c.77.12,1.54,0,2.29.11a15.83,15.83,0,0,0,3,.06A7.43,7.43,0,0,0,110.84,51.36ZM73.06,65.9c.42-.05.85-.08,1.27-.16a16.25,16.25,0,0,0,8.1-4.13,4.89,4.89,0,0,0,1-1.31.65.65,0,0,0-.33-1,1.26,1.26,0,0,0-.81-.15c-.39.07-.79.12-1.18.2a17.39,17.39,0,0,0-8.33,4.36,4.21,4.21,0,0,0-1.08,1.39.47.47,0,0,0,.35.71A4.45,4.45,0,0,0,73.06,65.9ZM59,102.56c0-1.18-.3-1.47-1.11-1.35a2.84,2.84,0,0,0-1.15.54,16.83,16.83,0,0,0-6.21,7.73,3.62,3.62,0,0,0-.33,1.46c0,.5.26.72.77.67a3,3,0,0,0,1-.3,9.61,9.61,0,0,0,2.72-2,25.7,25.7,0,0,0,3.31-4.24A5.52,5.52,0,0,0,59,102.56ZM76.3,98a1.62,1.62,0,0,0,0-.22c0-.7-.5-1-1.12-.69a13.62,13.62,0,0,0-4,2.73,16.9,16.9,0,0,0-3.71,4.77,4.62,4.62,0,0,0-.38,1.08c-.07.46.09.65.52.81a1.79,1.79,0,0,0,1.51-.3,15.24,15.24,0,0,0,4.08-3,13.76,13.76,0,0,0,2.7-3.6A3.75,3.75,0,0,0,76.3,98Zm-3.24,6.9c0-.19,0-.49-.16-.59s-.31.18-.45.29a16,16,0,0,1-3,2,3.69,3.69,0,0,1-1.5.49.76.76,0,0,0-.63.34,21.36,21.36,0,0,0-2.95,5.14,4.5,4.5,0,0,0-.37,1.36.92.92,0,0,0,.76,1,1.53,1.53,0,0,0,1.14-.23,12.54,12.54,0,0,0,3.51-3.06,18.42,18.42,0,0,0,3.41-5.73A4.12,4.12,0,0,0,73.06,104.89ZM54.28,132.38c0-.42,0-.83,0-1.25a11,11,0,0,0-.51-3.27c0-.11,0-.27-.17-.28s-.17.14-.24.23a10,10,0,0,1-1.88,2.06.71.71,0,0,0-.27.44,23.22,23.22,0,0,0-.63,8.09,5.49,5.49,0,0,0,.61,2.21c.32.56.65.59,1.06.1a5.27,5.27,0,0,0,.89-1.67A21.92,21.92,0,0,0,54.28,132.38Zm45.1-80.51a5.9,5.9,0,0,1-1.5-1.13,1,1,0,0,0-.6-.33,16.59,16.59,0,0,0-6.51.07,9.32,9.32,0,0,0-3.37,1.27c-.69.45-.67,1,0,1.48a4.47,4.47,0,0,0,1.89.83A15,15,0,0,0,94.88,54a1,1,0,0,0,.44-.2,18.5,18.5,0,0,1,3.09-1.53ZM81.07,76.4a17.46,17.46,0,0,1-3.66,1.33,4.12,4.12,0,0,1-1.48.22c-.12,0-.27,0-.28-.16s.14-.16.25-.18c.46-.1.93-.15,1.39-.28a12.86,12.86,0,0,0,3.77-1.47c.19-.12.37-.53.69-.14,0,0,.12,0,.17-.11a3.32,3.32,0,0,0,.59-1c.09-.24,0-.42-.19-.51a4.18,4.18,0,0,0-1.76-.52,14.44,14.44,0,0,0-7.34,2.16,5.48,5.48,0,0,0-1.46,1.34A.92.92,0,0,0,72,78.5a2.29,2.29,0,0,0,1.18.43,10.44,10.44,0,0,0,6.56-1.49A6.54,6.54,0,0,0,81.07,76.4ZM82.7,96.13c0-.11,0-.23,0-.35,0-.43-.08-.87-.53-1a1,1,0,0,0-1.14.39,16.58,16.58,0,0,1-1.15,1.22,12.8,12.8,0,0,0-3.29,5.74,6.58,6.58,0,0,0-.33,2.75c.1.76.36.91,1,.59a4.84,4.84,0,0,0,1.38-1A15.43,15.43,0,0,0,82,99.32,9.45,9.45,0,0,0,82.7,96.13ZM64,91.42a.68.68,0,0,0-.56.09,15.65,15.65,0,0,0-3.13,1.66,17.75,17.75,0,0,0-4.89,4.57,4.48,4.48,0,0,0-.72,1.51c-.13.5.09.74.6.7a3.55,3.55,0,0,0,1.06-.29,19.52,19.52,0,0,0,4.33-2.58,3,3,0,0,0,.73-.82,10.75,10.75,0,0,1,3.22-3.49,1.08,1.08,0,0,0,.44-.83.44.44,0,0,0-.35-.53C64.5,91.32,64.26,91.45,64,91.42Zm45.75,25.49c0,.37,0,.73.29.9s.65,0,.92-.23.37-.3.54-.46a18.46,18.46,0,0,0,3.79-5.42,1.6,1.6,0,0,0,.24-1.42,1.18,1.18,0,0,1,0-.53,9.38,9.38,0,0,1,1.06-3.31c.09-.18.19-.35,0-.53a.46.46,0,0,0-.53-.11,4.49,4.49,0,0,0-2.14,1.5,23.64,23.64,0,0,0-4,8.71C109.86,116.32,109.82,116.65,109.78,116.91Zm-47,6.27a4.41,4.41,0,0,0,.21,1.49c.2.6.52.69,1,.33a3.94,3.94,0,0,0,.84-.84,19.09,19.09,0,0,0,3.86-8.67,2.72,2.72,0,0,0,0-1.36q-.2-.64-.69-.21A8.4,8.4,0,0,1,66,115.29a.81.81,0,0,0-.31.24A14.8,14.8,0,0,0,62.77,123.18ZM193,135.06a21,21,0,0,0-.49,2.51c-.19,1.25-.31,2.52-.47,3.78s-.25,2.72-.32,4.08a21.68,21.68,0,0,0,.55,5.2c.66,3.38,1.6,6.69,2.48,10a68.18,68.18,0,0,0,3.5,10.54c.07.15.09.32.24.42a1.74,1.74,0,0,0,.09-1.82,36.16,36.16,0,0,1-1.55-3.7,57.33,57.33,0,0,1-2.69-10c-.31-2-.62-4-.85-6-.14-1.19-.27-2.38-.35-3.58-.12-1.66-.21-3.33-.27-5a50.23,50.23,0,0,1,.19-5.88A1.17,1.17,0,0,0,193,135.06Zm-69.57-33.3c0-.63-.21-.84-.84-.72a3.93,3.93,0,0,0-2,1,17.75,17.75,0,0,0-4,5.35,9.18,9.18,0,0,0-.67,2.1,1.09,1.09,0,0,0,.31,1.14c.35.29.72.11,1,0a6.12,6.12,0,0,0,2.2-1.6,15.79,15.79,0,0,0,3.72-6.53A2.31,2.31,0,0,0,123.47,101.76ZM83.14,88.34a5.92,5.92,0,0,0,1.28-.08,9.27,9.27,0,0,0,4.82-1.92c.53-.47,1.1-.9,1.65-1.35a2,2,0,0,0,.54-.57.91.91,0,0,0-.19-1.17,1.72,1.72,0,0,0-1.22-.4,14,14,0,0,0-4.68,1.27,9.7,9.7,0,0,0-3.93,3.28c-.33.46-.22.72.32.86A6.16,6.16,0,0,0,83.14,88.34Zm27.51,23.55a2.71,2.71,0,0,0-.85.62,18.06,18.06,0,0,0-5.06,9.28,4.59,4.59,0,0,0-.11,2.15c.16.63.44.77,1,.52a4.82,4.82,0,0,0,1.67-1.36,16.12,16.12,0,0,0,2.62-4.36c0-.08.13-.17,0-.3a2.39,2.39,0,0,0-.4.56,15.29,15.29,0,0,1-1.62,2.21c-.12.13-.33.29-.46.17s0-.31.15-.44a19.94,19.94,0,0,0,1.58-2.19c.37-.57.36-.57,0-1.17-.77.92-1.23,2.13-2.45,2.63a1.15,1.15,0,0,1,.36-.61A16.25,16.25,0,0,0,109,117a1.55,1.55,0,0,0,.25-.61,11.26,11.26,0,0,1,.33-1.42A28.1,28.1,0,0,1,110.65,111.89ZM117,59.67c-.39,0-.76,0-1.12.12s-.66,0-.77.41a1,1,0,0,0,.33.92,3.14,3.14,0,0,0,.32.31,7.39,7.39,0,0,0,1.81,1.09,19.47,19.47,0,0,0,7,1.56,3.19,3.19,0,0,0,1.4-.21c.36-.16.46-.4.21-.69A4.85,4.85,0,0,0,125,62,19.73,19.73,0,0,0,117,59.67ZM119.18,45h-.35c-.67,0-.85.39-.48.94a4,4,0,0,0,.61.75,21.08,21.08,0,0,0,7.54,4.86,4,4,0,0,0,1.33.29c.56,0,.81-.27.68-.8a3.26,3.26,0,0,0-.84-1.57,21.65,21.65,0,0,0-6.35-4A5.44,5.44,0,0,0,119.18,45Zm20.63,13.08c-.11-.3-.17-.48-.25-.65a14,14,0,0,0-2.41-3.8,17.87,17.87,0,0,0-5-4.33c-.38-.21-.83-.51-1.24-.2s-.29.81-.22,1.24a9,9,0,0,0,1.43,3.36,1.83,1.83,0,0,0,.91.8c.57.23,1.12.52,1.68.8C136.39,56.15,138.05,57.06,139.81,58.08ZM77.35,94.44a11.48,11.48,0,0,0,4.5-1.36,1.43,1.43,0,0,0,.38-.31c.9-.86,1.77-1.74,2.68-2.59a.52.52,0,0,0,0-.81.94.94,0,0,0-.63-.39,8.61,8.61,0,0,0-2.59,0,11,11,0,0,0-5.22,3.13,3.19,3.19,0,0,0-.63,1,.81.81,0,0,0,.54,1.19A3.2,3.2,0,0,0,77.35,94.44Zm12.9-23.79a17.26,17.26,0,0,0,7.33-1.31,3.83,3.83,0,0,0,1.26-.81c.1-.11.26-.23.18-.41a.51.51,0,0,0-.43-.35l-.65-.08a12.72,12.72,0,0,0-3.63-.49c-.43,0-.88,0-1.32.09A17.13,17.13,0,0,0,86.76,69a3.79,3.79,0,0,0-.6.38c-.24.2-.21.41,0,.57a3,3,0,0,0,1,.37A16.15,16.15,0,0,0,90.25,70.65Zm-30.1,30.88c0,.77.18,1.18.57,1.39a1.15,1.15,0,0,0,1.24-.19A7.73,7.73,0,0,0,64,100.8a19.1,19.1,0,0,0,2.91-5.94,3.5,3.5,0,0,0,.2-1.44.78.78,0,0,0-.48-.69c-.33-.12-.47.16-.64.36-2,2.43-3.81,5-5.56,7.62A1.62,1.62,0,0,0,60.15,101.53Zm67.34-47.16a7,7,0,0,0-2.41.19c-.53.17-.61.46-.26.89a3.12,3.12,0,0,0,.87.75,14,14,0,0,0,8,2.23,3.11,3.11,0,0,0,1.12-.23c.3-.13.39-.25.08-.51a15.1,15.1,0,0,1-1.9-1.85,1,1,0,0,0-.39-.28A11.06,11.06,0,0,0,127.49,54.37ZM102.87,75.93A10.64,10.64,0,0,0,108,74.32a3.45,3.45,0,0,0,1.16-1.15.55.55,0,0,0-.19-.83,3.33,3.33,0,0,0-2.16-.45,16.62,16.62,0,0,0-6.63,1.75,3.56,3.56,0,0,0-1.18.85c-.27.33-.23.56.09.83a2.14,2.14,0,0,0,1,.43A8.63,8.63,0,0,0,102.87,75.93Zm34-44.85a2.62,2.62,0,0,0,0-.29,1.67,1.67,0,0,0,0-.31,20.7,20.7,0,0,0-3.36-7.27,10.05,10.05,0,0,0-1-1.08,3.19,3.19,0,0,0-1-.72.72.72,0,0,0-1,.22,1,1,0,0,0-.1,1.12A28.91,28.91,0,0,0,134,29.61a8.37,8.37,0,0,0,1.82,2c.23.18.51.44.79.31S136.84,31.36,136.86,31.08ZM80.81,80.13a.67.67,0,0,0-.55-.71,1.33,1.33,0,0,0-1.1.2,15.31,15.31,0,0,0-4.34,3.67,10.54,10.54,0,0,0-2,3.58c-.17.55,0,.71.56.64A4,4,0,0,0,74.93,87a13.62,13.62,0,0,0,5.66-6A2.12,2.12,0,0,0,80.81,80.13Zm35.2,22a4.39,4.39,0,0,0,.54-.08,16.51,16.51,0,0,0,6.56-3.25,5,5,0,0,0,1.11-1.26,2.69,2.69,0,0,0,.27-.6c.14-.55-.11-.88-.68-.87a10.47,10.47,0,0,0-1.36.15,11.16,11.16,0,0,0-5,2.5,7.6,7.6,0,0,0-2.14,2.51C115,101.92,115.14,102.17,116,102.14ZM114,78.3l.32-.1a56.44,56.44,0,0,1,6.8-2.26.39.39,0,0,0,.31-.23A3.42,3.42,0,0,1,123,74c.37-.23.38-.36,0-.6a3.23,3.23,0,0,0-2.33-.5,13.94,13.94,0,0,0-6.81,3.3,3.13,3.13,0,0,0-.62.69c-.16.27-.33.56-.16.87S113.59,78.22,114,78.3ZM80.22,57.66a22.43,22.43,0,0,0,8.63-2.42,2.61,2.61,0,0,0,.43-.31c.08-.06.19-.12.15-.24s-.14-.08-.23-.1a6.38,6.38,0,0,1-1.88-.75.63.63,0,0,0-.42-.1,15.78,15.78,0,0,0-7.7,2.35,2.84,2.84,0,0,0-.86.76c-.23.33-.18.49.21.61A6.26,6.26,0,0,0,80.22,57.66Zm74.59,36.73a17.3,17.3,0,0,0,2.46-.19,8.32,8.32,0,0,0,2.74-.85c.55-.3.58-.59.1-1a3.88,3.88,0,0,0-1.51-.81,12.6,12.6,0,0,0-2.67-.34,13.74,13.74,0,0,0-3.92.54,4,4,0,0,0-1.54.75c-.58.47-.52.94.17,1.23a6,6,0,0,0,.75.26A14.61,14.61,0,0,0,154.81,94.39ZM98.66,80.88a2.07,2.07,0,0,0-1.18.42c-.89.59-1.8,1.15-2.64,1.8A12.87,12.87,0,0,0,91.36,88s0,.06,0,.08c-.09.43,0,.55.44.53a4.62,4.62,0,0,0,1.92-.62,13.94,13.94,0,0,0,4.78-4.22A9.23,9.23,0,0,0,99.42,82C99.72,81.32,99.41,80.88,98.66,80.88Zm34-52.25a.93.93,0,0,0-.19-.47,33.55,33.55,0,0,1-1.73-3.24,9.78,9.78,0,0,1-1-3.34.5.5,0,0,0-.13-.32,7.91,7.91,0,0,0-2.7-2.31c-.35-.16-.75-.5-1.11-.2s-.26.78-.2,1.21A3.43,3.43,0,0,0,126,21.2a22.94,22.94,0,0,0,4.92,6.4A4.66,4.66,0,0,0,132.61,28.63ZM132,31.9a5.6,5.6,0,0,0,1.1,2.88,22.39,22.39,0,0,0,4.42,4.33,5.24,5.24,0,0,0,1.3.75c.2.08.45.24.61,0s-.05-.38-.15-.56c-.7-1.22-1.47-2.4-2.09-3.65a9.68,9.68,0,0,0-3.92-3.85,2.22,2.22,0,0,0-.78-.32C132.14,31.46,131.93,31.55,132,31.9ZM115.65,56.72a13.22,13.22,0,0,0,4.71-.87,2.43,2.43,0,0,0,1-.7.41.41,0,0,0,0-.59A1.8,1.8,0,0,0,120,53.8a24.24,24.24,0,0,0-3.19.1,13.55,13.55,0,0,0-4.3,1c-.34.16-.85.31-.81.76s.53.51.88.63A10.36,10.36,0,0,0,115.65,56.72ZM132.26,67c.62,0,1.24-.07,1.85-.12a3.2,3.2,0,0,0,1.48-.42c.3-.2.33-.44.06-.64a6.58,6.58,0,0,0-3.37-1.73c-.48,0-1-.16-1.44-.2a7.63,7.63,0,0,0-4.19.63c-.32.15-.79.27-.79.69s.48.51.8.65A14,14,0,0,0,132.26,67ZM100.14,87.9c0-.77-.49-1.07-1.18-.71l-.15.08a15.61,15.61,0,0,0-4.12,3.6A8.91,8.91,0,0,0,92.93,94c-.16.59.17.93.76.77a2.9,2.9,0,0,0,.66-.25,14.61,14.61,0,0,0,5.51-5.63A2,2,0,0,0,100.14,87.9ZM81.7,78.56a3.13,3.13,0,0,0,1.55.17,13.53,13.53,0,0,0,4.46-1.42,15.47,15.47,0,0,0,4.81-3.19,2.77,2.77,0,0,0,.56-.79c0-.11.11-.22-.06-.29a2.14,2.14,0,0,0-1.91-.13c-3,1.45-5.69,3.3-8.5,5C82.33,78.12,82.05,78.32,81.7,78.56Zm20.13-2-.74,0a4.74,4.74,0,0,1-2.24-.62.59.59,0,0,0-.61-.06A15,15,0,0,0,93.7,78.4a7.23,7.23,0,0,0-1.41,1.46c-.12.17-.3.35-.21.56s.39.17.6.17A10.34,10.34,0,0,0,95,80.28a13.8,13.8,0,0,0,6.21-3A3,3,0,0,0,101.83,76.58Zm2.15,37a2.83,2.83,0,0,0,1-.25,13.51,13.51,0,0,0,5.71-4.48,2.77,2.77,0,0,0,.34-.57c.24-.51.06-.81-.5-.83a2.28,2.28,0,0,0-1,.15,11.36,11.36,0,0,0-5.53,4.52,3.1,3.1,0,0,0-.44,1C103.48,113.52,103.56,113.61,104,113.6Zm44.77-63.44c0-.08,0-.29-.06-.49a18.15,18.15,0,0,0-3.1-7.1,3.72,3.72,0,0,0-.58-.67.8.8,0,0,0-.85-.22.68.68,0,0,0-.38.74,8.87,8.87,0,0,0,.35,2.4,17.29,17.29,0,0,0,2.24,4.41,4.44,4.44,0,0,0,1.68,1.48C148.66,51,148.77,51,148.75,50.16ZM101.3,83.68a5.76,5.76,0,0,0,3.92-1.4,15.56,15.56,0,0,1,2.39-1.6,1.78,1.78,0,0,0,.36-.25.44.44,0,0,0-.12-.79,3.34,3.34,0,0,0-2.19-.35,11.94,11.94,0,0,0-4.9,2.26,3.27,3.27,0,0,0-1,1.4c-.13.29,0,.45.24.55A3.4,3.4,0,0,0,101.3,83.68ZM142.61,90a14.15,14.15,0,0,0,2.17-.15,2.35,2.35,0,0,0,1.35-.6.4.4,0,0,0,0-.67,3,3,0,0,0-1.44-.73,16,16,0,0,0-6.32-.4,7.53,7.53,0,0,0-2.48.77c-.32.17-.3.31,0,.48a6.35,6.35,0,0,0,1.34.57A19.24,19.24,0,0,0,142.61,90Zm13.48-30.43a25.82,25.82,0,0,0-.86-5.72,3.55,3.55,0,0,0-.51-1.12c-.37-.52-.65-.5-.92.08a5.58,5.58,0,0,0-.38,1.4,11,11,0,0,0,.43,4.63,5.33,5.33,0,0,0,1.66,3.1c.26.2.32.17.38-.11A11.24,11.24,0,0,0,156.09,59.58Zm-15,61.36c-.24.09-.44.16-.64.25a14.55,14.55,0,0,0-3.28,2.16,1.77,1.77,0,0,1-.77.48.74.74,0,0,1,.35-.63,14.57,14.57,0,0,1,3.36-2.29c.26-.12.55-.2.82-.31.11,0,.31.17.34-.11a.45.45,0,0,0-.26-.52,1,1,0,0,0-.42-.09,2.57,2.57,0,0,0-1.27.34,14.08,14.08,0,0,0-3.1,2.26,11.11,11.11,0,0,0-2.23,2.91,3.41,3.41,0,0,0-.36,1.09c0,.27.05.52.36.47a3.91,3.91,0,0,0,2.53-1.12,50.42,50.42,0,0,1,4.15-4.37A1,1,0,0,0,141.13,120.94ZM76.44,79.35l-.47.07a8.28,8.28,0,0,1-3.47-.06,2.45,2.45,0,0,0-1.67.1l-.33.11a11.66,11.66,0,0,0-4,2.2c-.19.19-.51.38-.41.68s.48.29.77.32a10.08,10.08,0,0,0,2.9-.18A13.87,13.87,0,0,0,74.6,81,6.25,6.25,0,0,0,76.44,79.35ZM93.66,91.12a.34.34,0,0,0-.29.13,48.75,48.75,0,0,0-6,5.79,2,2,0,0,0-.49,1.34c0,.84.4,1.13,1.18.79a10.79,10.79,0,0,0,4.28-3.87.28.28,0,0,0,0-.33,1.66,1.66,0,0,1,0-1.12,8.17,8.17,0,0,1,1.08-2.27C93.56,91.45,93.71,91.34,93.66,91.12ZM96.8,56.29a13.89,13.89,0,0,0,6.09-1.55,4.24,4.24,0,0,0,1.33-.94c.2-.23.5-.52.35-.79s-.51-.09-.79-.07l-.13,0c-1.11.21-2.23.43-3.34.66A49.75,49.75,0,0,0,94.94,55c-.23.07-.4.17-.42.44a.52.52,0,0,0,.33.53,2.05,2.05,0,0,0,.41.16A6.15,6.15,0,0,0,96.8,56.29Zm29.14,37.39a16.87,16.87,0,0,0,2.68-.35,18.21,18.21,0,0,0,5.78-2c.3-.17.78-.36.7-.7s-.6-.41-1-.48a7,7,0,0,0-2.84.16,18.21,18.21,0,0,0-5,1.91,5,5,0,0,0-1.23,1c-.2.23-.16.37.14.42ZM102.79,87a2,2,0,0,0,.32,0,3.36,3.36,0,0,0,.64-.18,16.59,16.59,0,0,0,6.69-5,2.07,2.07,0,0,0,.42-.82c0-.15.09-.34,0-.46s-.3,0-.44.07c-1.65.73-3.25,1.56-4.82,2.43A8.53,8.53,0,0,0,103,85.28a3.74,3.74,0,0,0-.64,1.11C102.17,86.85,102.27,87,102.79,87Zm29.31,48.61a.82.82,0,0,1,.2-.73c.41-.67.75-1.38,1.1-2.08.11-.21,0-.67.49-.56a.45.45,0,0,0,.06-.15,14,14,0,0,1,.48-2.26c-.3,0-.42.22-.57.38a15.24,15.24,0,0,0-3.83,7,6.27,6.27,0,0,0-.21,2c.05.51.15.56.61.3a4.41,4.41,0,0,0,.91-.7,15.37,15.37,0,0,0,2.53-3.51.89.89,0,0,0,0-.7c-.68.92-.93,2.06-1.85,2.78a.59.59,0,0,1,.12-.67c.55-.86,1-1.77,1.48-2.67a2.3,2.3,0,0,0,.24-1.25C133.28,133.69,133,134.82,132.1,135.57Zm20.07-44.51a2.62,2.62,0,0,0-1.62-.58,13.32,13.32,0,0,0-6.5,1.42,6.63,6.63,0,0,0-1.54,1c-.11.09-.26.19-.24.35s.22.16.36.2a3,3,0,0,0,.43.1,16.12,16.12,0,0,0,6.18-.48.39.39,0,0,0,.31-.28,1.89,1.89,0,0,1,.81-.91A6.92,6.92,0,0,1,152.17,91.06Zm-31.81-20c-1.24,0-2.47-.09-3.71-.22a10.3,10.3,0,0,1-2.13-.35c-.15,0-.3-.14-.27-.31s.22-.12.34-.09a25.77,25.77,0,0,0,6.07.51c.26,0,.62-.16.72.29,0,.09.16,0,.24,0l.53-.07c.11,0,.27,0,.31-.12s-.08-.22-.17-.29a4.37,4.37,0,0,0-2-1.09,14.21,14.21,0,0,0-4.16-.45,9.82,9.82,0,0,0-4,.93c-.21.11-.52.18-.51.44s.33.31.54.41a8,8,0,0,0,1.86.58,10,10,0,0,0,3.07.34C118.16,71.48,119.25,71.27,120.36,71.06Zm-17.82,51.72c0-.58-.27-.76-.82-.55a1.38,1.38,0,0,0-.52.34,14,14,0,0,0-3.25,5,9,9,0,0,0-.67,2.7c0,.47.1.54.51.32a4.49,4.49,0,0,0,1.46-1.28,19.35,19.35,0,0,0,3.07-5.41A3.36,3.36,0,0,0,102.54,122.78ZM144.18,71.5a5.83,5.83,0,0,0,1-.07c.56-.13.66-.42.28-.87a2.78,2.78,0,0,0-.91-.69,13.68,13.68,0,0,0-6.12-1.39,3.08,3.08,0,0,0-1,.18c-.37.11-.41.39-.13.66a3.67,3.67,0,0,0,.75.54A13.51,13.51,0,0,0,144.18,71.5Zm-1-29.38c.35-.92.76-1.25,1.43-1.1.39.09.4-.07.39-.36a19.13,19.13,0,0,0-.44-3.78A11.62,11.62,0,0,0,144,35a.74.74,0,0,0-.7-.46c-.31,0-.44.18-.56.41a6.62,6.62,0,0,0-.43,1.2C141.58,38.22,142.35,40.11,143.14,42.12Zm-45,79.23c0,.44.15.59.54.53a3,3,0,0,0,1.33-.59,11.49,11.49,0,0,0,3.48-4,3.31,3.31,0,0,0,.25-.66c.15-.58-.13-.87-.71-.73a4.12,4.12,0,0,0-1.51.71,10.83,10.83,0,0,0-3.15,4A2.56,2.56,0,0,0,98.18,121.35Zm39.43,8.77c-.24.38-.45.73-.68,1s-.39.73-1,.89c.57-1.36,1.79-2.3,1.85-3.87l-.29.41-1.38,2.12a2.85,2.85,0,0,1-.31.38.2.2,0,0,1-.24.06c-.09-.06-.07-.16,0-.24a4.16,4.16,0,0,1,.24-.47c.53-.82,1.06-1.63,1.59-2.46a8.34,8.34,0,0,0,.89-1.67c.11-.3-.05-.29-.21-.27a1.66,1.66,0,0,0-1.14.61,9.61,9.61,0,0,0-1.91,3.27,11.64,11.64,0,0,0-.39,5.34c0,.21.06.52.38.23a7.79,7.79,0,0,0,1.64-2.42c-.25.15-.42.41-.81.42a5.29,5.29,0,0,1,.28-.5,14.49,14.49,0,0,0,1-1.46c.13-.24.17-.57.37-.69S137.71,130.43,137.61,130.12Zm57.29,21.75h0c0,.32,0,.64.09.95.26,1.52.51,3.05.79,4.57a58.94,58.94,0,0,0,2.1,8.27c.58,1.73,1.23,3.44,1.8,5.17a5.64,5.64,0,0,0,.77,1.53c.14.21.27.31.54.15s.14-.3.07-.47c-.28-.74-.57-1.46-.84-2.2-1.66-4.65-3.05-9.38-4.34-14.15C195.49,154.43,195.21,153.14,194.9,151.87Zm-53-111.2a1.49,1.49,0,0,0,0-.22,8.28,8.28,0,0,1-.15-4.47.65.65,0,0,0,0-.39,18,18,0,0,0-1.91-4.18,3,3,0,0,0-.53-.65c-.21-.18-.36-.17-.45.12a2.66,2.66,0,0,0-.11,1.05A19.42,19.42,0,0,0,141,39.49,4.49,4.49,0,0,0,141.88,40.67Zm8.81,73.15a6.75,6.75,0,0,1-1.8-.2,1.34,1.34,0,0,0-.74,0,11.48,11.48,0,0,0-4.9,2.14,8.64,8.64,0,0,0-1.32,1.17c-.21.24-.18.4.17.42a5.28,5.28,0,0,0,1.05,0,18.68,18.68,0,0,0,6.94-2.88A1.83,1.83,0,0,0,150.69,113.82ZM153,58a.81.81,0,0,0,0-.47,8.41,8.41,0,0,1,.1-4.17,2.79,2.79,0,0,0,0-1.76c-.07-.24-.11-.49-.18-.73a9.16,9.16,0,0,0-.92-2.43c-.16-.25-.34-.57-.66-.49s-.25.43-.29.68a14.9,14.9,0,0,0,1.54,8.85A1.2,1.2,0,0,0,153,58Zm5.51,54.79a8.85,8.85,0,0,0-5.84,2.69,2.25,2.25,0,0,0-.39.65c-.11.32,0,.48.34.5a3.79,3.79,0,0,0,1-.06,15.91,15.91,0,0,0,5.67-2.48,4.64,4.64,0,0,0,.66-.59c.21-.21.17-.38-.12-.49A3.18,3.18,0,0,0,158.48,112.77ZM143.13,77.61A11.86,11.86,0,0,1,141.35,76a.79.79,0,0,0-.36-.16,18.83,18.83,0,0,0-5.78-.76c-.42,0-.94,0-1.09.49s.32.71.63,1c.09.08.18.26.36.13s.37-.06.56,0a25.2,25.2,0,0,0,3.34.63,12.54,12.54,0,0,0,2,.16c.15,0,.33,0,.34.19s-.17.22-.31.24a2.17,2.17,0,0,1-.36,0,14.93,14.93,0,0,1-2.11-.21l-2.38-.39A10.17,10.17,0,0,0,143.13,77.61Zm-66.34,34.6v.35c0,.43.16.5.53.28a3.74,3.74,0,0,0,.77-.66,14.2,14.2,0,0,0,2.3-3.61,4.93,4.93,0,0,0,.47-1.92c0-.16.07-.35-.1-.45a.38.38,0,0,1-.17-.53c0-.09.09-.2,0-.28a.32.32,0,0,0-.34,0,2.53,2.53,0,0,0-.79.7,14.17,14.17,0,0,0-2,3.45A7.86,7.86,0,0,0,76.79,112.21ZM191.9,151.85c.07.5.15,1,.2,1.51a32.78,32.78,0,0,0,.66,4.2c.66,2.95,1.59,5.83,2.51,8.71.54,1.69,1.3,3.3,1.75,5A15.19,15.19,0,0,0,198.2,174c.18.36.46.21.68.11s0-.27,0-.39a54,54,0,0,1-3.39-8.69C194.33,160.65,192.94,156.29,191.9,151.85Zm-52.49-24.38c0-.09-.06-.1,0-.11a25.66,25.66,0,0,0,2-3.51c.07-.17.21-.22.38,0a.38.38,0,0,0,.46,0,1.1,1.1,0,0,0-.08-1c-.15-.29-.38-.15-.57,0a4.16,4.16,0,0,0-1.94,2,17.25,17.25,0,0,0-1.46,4.72,4.06,4.06,0,0,0,0,.92.54.54,0,0,0,.37.46c.18.08.29-.1.4-.21a8.72,8.72,0,0,0,1.11-1.38,5.28,5.28,0,0,0,.71-1.35c-.16.17-.29.36-.43.54a.71.71,0,0,1-.63.35,13,13,0,0,0,2.07-4.77C141,125.3,140.68,126.72,139.41,127.47Zm14.42-57.38a1,1,0,0,0,0-.68,12,12,0,0,0-3.66-5.61,4.46,4.46,0,0,0-1.11-.71.55.55,0,0,0-.59,0,1.38,1.38,0,0,0-.07,1.62,70.38,70.38,0,0,1,5.13,5.09C153.59,69.93,153.66,70.07,153.83,70.09Zm-9.66,52c0,.59.07.68.45.56a3.17,3.17,0,0,0,1.07-.61,14.69,14.69,0,0,0,3.63-4.33,5.86,5.86,0,0,0,.36-.85c0-.12.12-.28,0-.38s-.24,0-.35.09c-.81.42-1.64.82-2.43,1.29A5.74,5.74,0,0,0,144.17,122.06Zm6.36-8.9a6.49,6.49,0,0,0,2.23-.29,13.72,13.72,0,0,0,3.53-1.24c.19-.11.45-.22.42-.47s-.29-.21-.46-.28a1.48,1.48,0,0,0-.5-.17,11.75,11.75,0,0,0-5,.54,4.77,4.77,0,0,0-1.9,1.09c-.36.35-.32.45.13.63A5.65,5.65,0,0,0,150.53,113.16ZM86.29,98.45l-.23.27c-1.17,1.54-2.32,3.09-3.45,4.67a1.76,1.76,0,0,0-.2,1.6.4.4,0,0,0,.61.29,2.45,2.45,0,0,0,.84-.57,18.91,18.91,0,0,0,3.24-4.63c0-.08.14-.21,0-.26C86.48,99.6,86.37,99.09,86.29,98.45ZM146.36,52.7a2.26,2.26,0,0,0,.21.81A15.31,15.31,0,0,0,150,58.08a3.74,3.74,0,0,0,1,.65c.22.09.3,0,.29-.2a3,3,0,0,0-.28-1,17,17,0,0,0-2.84-4.26,3.93,3.93,0,0,0-.93-.75,1.79,1.79,0,0,0-.45-.19C146.53,52.23,146.35,52.33,146.36,52.7Zm-7,14c0-.19-.1-.31-.19-.43a15.41,15.41,0,0,0-5-4.4,2.64,2.64,0,0,0-.83-.29c-.27,0-.42.06-.43.36a1.33,1.33,0,0,0,.33.93,12.1,12.1,0,0,0,5.63,3.74A1.12,1.12,0,0,0,139.41,66.74Zm-6.59,4.46a2.12,2.12,0,0,0-.65-.54,10.78,10.78,0,0,0-7-1.57,4,4,0,0,0-1.28.33c-.13.06-.32.15-.17.32.36.42.71.88,1.36.85a28.66,28.66,0,0,1,2.93.07C129.6,70.77,131.18,71,132.82,71.2ZM158.47,64a16.83,16.83,0,0,0,.55,4.29,6,6,0,0,0,.74,1.8c.1.16.19.44.4.4s.22-.33.25-.53a5.28,5.28,0,0,0,.12-1,16.71,16.71,0,0,0-1.15-6,3.73,3.73,0,0,0-.32-.63c-.07-.13-.15-.28-.32-.26s-.16.22-.18.35A9,9,0,0,0,158.47,64ZM122.08,75.65a5.63,5.63,0,0,0,1.23-.21,51,51,0,0,1,7.88-1.19c.15,0,.41.09.45-.12s-.13-.38-.3-.5a.77.77,0,0,0-.33-.12,14,14,0,0,1-1.94-.44,2.07,2.07,0,0,0-.92-.09,12.58,12.58,0,0,0-5,1.63A2.9,2.9,0,0,0,122.08,75.65ZM147.55,64c0-.33.11-.57,0-.82a15.22,15.22,0,0,0-3.46-4.51,3,3,0,0,0-1-.57c-.2-.06-.47-.1-.47.21,0,.81,0,1.64.78,2.22s1.51,1.18,2.25,1.8S146.86,63.38,147.55,64Zm13.73,46-.74,0a2.53,2.53,0,0,0-.48.08c-.15,0-.37,0-.41.22s.17.26.29.36a2.2,2.2,0,0,0,.25.17,13,13,0,0,0,5.6,1.65c.26,0,.64.1.73-.24s-.17-.56-.43-.75l-.11-.08A10.74,10.74,0,0,0,161.28,110ZM140.58,74.6c-.2-.31.1-.67-.3-.81a33.64,33.64,0,0,0-5.44-1.39c-.14,0-.22,0-.23.16-.05.64-.51.85-1,1a4.5,4.5,0,0,1-1.1.08c-.2,0-.24,0-.21.26s.25.35.53.37C135.34,74.4,137.92,74,140.58,74.6Zm5.23-24.71a.88.88,0,0,0,0-.15c-1.23-2-2.47-4.06-3.77-6.05a2,2,0,0,0-.89-.69c-.39-.17-.54-.08-.6.34a1.27,1.27,0,0,0,.15.85,19.16,19.16,0,0,0,4,4.92A4.92,4.92,0,0,0,145.81,49.89ZM131.17,75.11l0-.1c-.1,0-.2,0-.3,0a57.38,57.38,0,0,0-8.65,1.43c-.41.09-.21.32-.07.47a1.68,1.68,0,0,0,.91.43,6.65,6.65,0,0,0,3.62-.15,11.49,11.49,0,0,0,2.77-1.06,30.33,30.33,0,0,1-3,.71,5.46,5.46,0,0,1-1.75.18c-.13,0-.3,0-.3-.21s.17-.17.3-.18a17.68,17.68,0,0,0,5.08-1.15c.12,0,.3-.14.36,0,.13.36.29.14.44,0S131,75.25,131.17,75.11Zm59.39,71.37a4.89,4.89,0,0,0-.39,2.33c.16,1.6.25,3.21.42,4.82a18,18,0,0,0,.89,4.87c.55,1.38.94,2.83,1.57,4.19a4.58,4.58,0,0,1,.27.84,6.57,6.57,0,0,0,.84,1.56,70.66,70.66,0,0,1-2.63-9.09A50.82,50.82,0,0,1,190.56,146.48ZM157,67.78l-.1-.27c-1.16-2.16-2.39-4.27-3.72-6.33a1,1,0,0,0-1-.43.22.22,0,0,0-.24.21,1.29,1.29,0,0,0,.1,1,31.84,31.84,0,0,0,3.34,4.4A8.19,8.19,0,0,0,157,67.78ZM142.43,76.2c0,.18.17.24.26.32A11.78,11.78,0,0,0,147.24,79a5.81,5.81,0,0,0,2.23.32c.22,0,.52,0,.57-.29s-.23-.35-.43-.44c-1.15-.51-2.33-.93-3.52-1.33A34.21,34.21,0,0,0,142.43,76.2Zm46.1,9.12c.24-.46.53-.77.46-1.21-.11-.74-.23-1.47-.36-2.2-.32-1.86-.63-3.73-1-5.58-.11-.67-.26-1.32-.42-2.08a1.48,1.48,0,0,0-.33,1.2,5.12,5.12,0,0,1,.31,1.35,18.23,18.23,0,0,0,.32,2.57c.07,1,.32,2,.49,3Zm-67.12,15.51c-.87.42-1.76.76-2.59,1.19a12.08,12.08,0,0,0-2.21,1.83c-.7.62-1.36,1.26-2,1.9.45-.2.85-.41,1.28-.57a1,1,0,0,1,1,.08c.27.23.36.12.52-.11a16.21,16.21,0,0,1,3.81-4.11A2.18,2.18,0,0,0,121.41,100.83ZM89.25,73c-.11-.07-.19,0-.27,0a16.2,16.2,0,0,0-6.31,3.06,5.38,5.38,0,0,0-1.09,1,1.09,1.09,0,0,0-.33.84C83.91,76.27,86.54,74.61,89.25,73Zm94.69,4.14.09,0c.38-.82.73-1.66,1.17-2.45a3.84,3.84,0,0,0,.46-3,7.67,7.67,0,0,0-.22-1.08c-.24.57-.44,1.06-.64,1.55a18.35,18.35,0,0,1-.89,2.15,1.35,1.35,0,0,0-.23.84C183.78,75.86,183.86,76.52,183.94,77.18Zm-57.43-5.72a9.65,9.65,0,0,0,1.83.75,12.07,12.07,0,0,0,4.45.78,2.21,2.21,0,0,0,1-.19.32.32,0,0,0,.19-.36.28.28,0,0,0-.28-.24l-.91-.15A44.69,44.69,0,0,0,126.51,71.46Zm17.14-9.68a1.22,1.22,0,0,0,0,.22,16.76,16.76,0,0,0,3.45,4.4,3.72,3.72,0,0,0,.47.34c.12.07.26.21.4.1s0-.27,0-.4c-.1-.37-.22-.73-.3-1.11a.78.78,0,0,0-.2-.38A32.65,32.65,0,0,0,143.65,61.78Zm36.87,12.68a.57.57,0,0,0,.25-.38c.38-1,.7-2,1.16-2.92.54-1.1.17-2.15,0-3.23-.41.92-.72,1.88-1.17,2.76C180.15,71.92,180.59,73.17,180.52,74.46Zm-3,29.1c-.22.17-.21.42-.5.5a3.1,3.1,0,0,0-.17-2.64c-.38,1.34-.38,1.34-.17,2.12.51,1.94,1.18,3.84,1.84,5.73,0,.14.1.28.19.5a1.71,1.71,0,0,0,.11-1.26c-.15-.43-.24-.88-.36-1.32ZM186,86.1a2.93,2.93,0,0,0-.38.67,3.76,3.76,0,0,0-.45,2.84c.15.77.21,1.56.31,2.41a4.33,4.33,0,0,0,.84-3.41C186.24,87.79,186.12,87,186,86.1Zm1.47,11.06-.1,0a14.27,14.27,0,0,1-.63,1.38,4.87,4.87,0,0,0-.68,3.58,2.54,2.54,0,0,0,.12.74c.4-1.13.92-2.16,1.36-3.22a1.18,1.18,0,0,0,.14-.55ZM187.39,83c-.07.06-.12.08-.13.11a3.89,3.89,0,0,0-.55,3.08,3.07,3.07,0,0,1,.07.53c.08.6.17,1.2.25,1.79a13.35,13.35,0,0,0,.86-1.68.7.7,0,0,0,0-.35C187.76,85.3,187.57,84.16,187.39,83Zm-13.92,4.57c-.12.43-.17.75-.28,1a2,2,0,0,0,0,1.34c.22.85.39,1.72.58,2.59.06.27.11.55.18.82a3.49,3.49,0,0,0,.24.82,4.75,4.75,0,0,0-.06-4l-.21.31A5.69,5.69,0,0,0,173.47,87.54ZM134.3,56.31a9.21,9.21,0,0,0,1.35,1.23,9,9,0,0,0,3.25,1.92,2.05,2.05,0,0,0,.74.12c.13,0,.28,0,.31-.19s-.13-.18-.22-.24c-1.14-.68-2.26-1.39-3.44-2A12.54,12.54,0,0,0,134.3,56.31ZM148.53,66c.41,2,3.27,5.21,4.69,5.35A69.31,69.31,0,0,0,148.53,66Zm-7.37,8.42a.89.89,0,0,0,.66.87c1.79.43,3.57.93,5.32,1.54.1,0,.26.19.34,0s-.08-.26-.22-.33a50.83,50.83,0,0,0-5.81-2.3C141.25,74.12,141.13,74.14,141.16,74.39Zm45.89,19.66H187c-.36.79-.68,1.6-1.07,2.37-.45.92,0,1.8,0,2.71.51-1,.95-2,1.38-2.93a.65.65,0,0,0,0-.31C187.23,95.27,187.14,94.66,187.05,94.05Zm-6.28-16.73c.33-.82.95-1.54.79-2.52-.06-.3,0-.62.45-.54.2,0,.18-.15.24-.25.58-.88.3-1.81.17-2.75-.18.12-.19.29-.24.44-.46,1.16-.89,2.34-1.38,3.49A4.05,4.05,0,0,0,180.77,77.32ZM113.43,107a43.56,43.56,0,0,0-5.52,6.59,8.47,8.47,0,0,1,2-2A6.08,6.08,0,0,0,112.2,109C112.57,108.32,113,107.69,113.43,107Zm79.6,9.44a14.93,14.93,0,0,0-2.91,5.93A13.32,13.32,0,0,0,193,116.47ZM181.19,68.34a3.18,3.18,0,0,0,.59-2.46,10,10,0,0,1-.14-1.24c-.07-.74-.15-1.48-.23-2.23a3.42,3.42,0,0,0-.53,1.55C181,65.42,181.08,66.88,181.19,68.34Zm8.42,59.81c-.68,1.18-1.37,2.26-2,3.4a5.78,5.78,0,0,0-.33,2.08C188.33,131.93,189.53,130.33,189.61,128.15Zm-6.64-71a2.79,2.79,0,0,0-.25,1.83c.12.53.17,1.08.24,1.62l.37,2.6a2.5,2.5,0,0,0,.39-2.25,5,5,0,0,1-.13-.65C183.39,59.25,183.19,58.25,183,57.12Zm13.4,114.37c-1.29-2.5-2.65-5-4-7.52,0,.13,0,.16,0,.18a51.73,51.73,0,0,0,2.83,6.2A4,4,0,0,0,196.37,171.49ZM82.73,102.12l1.81-2.46c.64-.85,1.29-1.69,1.94-2.53.1-.14.28-.31.12-.46s-.25.08-.36.17A11.26,11.26,0,0,0,82.73,102.12ZM189.42,91c.15-.17.14-.36.29-.4s.18-.24.16-.4c-.11-.83-.22-1.67-.34-2.5s-.25-1.61-.38-2.46a2.24,2.24,0,0,0-.38,1.86,19.24,19.24,0,0,1,.41,2.41C189.22,89.94,189.33,90.41,189.42,91Zm1.1,33.69c-.6.93-1.16,1.89-1.8,2.79a5.54,5.54,0,0,0-.83,2.67C188.83,128.32,190.29,126.8,190.52,124.64Zm-2-34.16a4.45,4.45,0,0,0-.58,4.13A4.23,4.23,0,0,0,188.51,90.48Zm.41,13.23c.63-1.42,1.47-2.78.84-4.49C189.18,100.68,188.31,102,188.92,103.71ZM189,93.6a4.53,4.53,0,0,0-.65,4.09C189,96.39,189.69,95.1,189,93.6Zm2.53,27.59c-1.06,1.7-2.49,3.19-2.74,5.31C189.77,124.78,191.26,123.31,191.52,121.19Zm-4.55,16a9.75,9.75,0,0,0,1.7-4.92C187.81,133.88,186.68,135.31,187,137.23Zm1.11-49.67a4.26,4.26,0,0,0-.59,4A4.36,4.36,0,0,0,188.08,87.56Zm.58,13c.9-1.42,1.23-3.16.76-4.07C188.79,97.79,188.07,99.05,188.66,100.56ZM179,97.26a4.66,4.66,0,0,0,.23,4C180,99.89,179.49,98.57,179,97.26Zm5.19-28a3.9,3.9,0,0,0,.27-3.8A4.59,4.59,0,0,0,184.23,69.24Zm5.8,33.08c-.52,1.44-1.47,2.65-.93,4.28C189.61,105.22,190.48,104,190,102.32ZM65.79,92.23l2.44-2.83c-.88.44-1.72.9-2.6,1.28-.12,0-.35.12-.17.3A1.51,1.51,0,0,1,65.79,92.23Zm116.34,16.62a5.22,5.22,0,0,0-.22,2c.18.65.34,1.3.52,2A4.79,4.79,0,0,0,182.13,108.85ZM101.54,52.6a2.81,2.81,0,0,0-2-.17,13.32,13.32,0,0,0-2.7,1.27C98.39,53.3,100,53,101.54,52.6Zm84.05,30.91a4,4,0,0,0-.61,3.54C185.54,85.94,186.19,84.85,185.59,83.51Zm8.61,28.9A14.6,14.6,0,0,0,192,117,8.61,8.61,0,0,0,194.2,112.41ZM176.68,82.06a2.13,2.13,0,0,0,0-1.57c-.44-1.3-.84-2.62-1.28-4a1.22,1.22,0,0,0-.09.94c.21.67.4,1.34.6,2,0,.11,0,.25.15.31s.18.28.17.46A6.55,6.55,0,0,0,176.68,82.06Zm-1.83,15a4.29,4.29,0,0,0,0-3.64,4.84,4.84,0,0,1-.53,1.42c-.07.1,0,.2,0,.3C174.51,95.72,174.67,96.33,174.85,97Zm16.49,39.48c-.62,1.52-1.57,2.95-1.27,4.8A15,15,0,0,0,191.34,136.5Zm-3.28-.33c-.61,1.3-1.54,2.41-1.19,4C187.47,138.88,188.25,137.71,188.06,136.17Zm4.38-12.61a8.66,8.66,0,0,0-1.82,4.33A9.33,9.33,0,0,0,192.44,123.56Zm-9.39-35.44c.47-1.18,1.3-2.23.77-3.61A4.28,4.28,0,0,0,183.05,88.12Zm-15.31-23c.37-1.07-.12-2-.36-2.87a.28.28,0,0,0,0-.11c-.45.12-.18-.24-.22-.36s0-.36,0-.52c-.35-1.28-.71-2.56-1.06-3.83C166.46,60,167.1,62.54,167.74,65.14ZM182.6,80.05c1-1.1.65-2.3.46-3.53C182.22,77.64,182.56,78.84,182.6,80.05Zm4.29.43a3.43,3.43,0,0,0-.45,3.19A3.15,3.15,0,0,0,186.89,80.48Zm-8.35,23.83c.13-.58.5-1.11.27-1.75s-.35-1.12-.52-1.69C177.58,102.11,178.23,103.19,178.54,104.31Zm.34-44.91c-.7,1.59-.07,3.24-.24,4.85a.56.56,0,0,0,.16-.26C179.33,62.47,178.83,60.93,178.88,59.4Zm12.49,68.28a8.44,8.44,0,0,0-1.71,4.33A11,11,0,0,0,191.37,127.68Zm1,4.18a10.77,10.77,0,0,0-.91,2.19,3.34,3.34,0,0,1-.55,1.1,3.64,3.64,0,0,0-.6,2.3A28,28,0,0,0,192.42,131.86ZM61,98.62c1.18-1.7,2.39-3.37,3.66-5A12.47,12.47,0,0,0,61,98.62Zm119.5-40.17a7.8,7.8,0,0,0,.09-4.45C180.14,55.07,180.37,54.93,180.52,58.45Zm1.64,1.44a18.4,18.4,0,0,0,.36,5.36,1.36,1.36,0,0,0,.26-.75C182.59,63,182.38,61.47,182.16,59.89Zm-.64,49.29a4.66,4.66,0,0,0-.15-3.55A4.39,4.39,0,0,0,181.52,109.18ZM168.84,73.45h-.07c.55,2.84,1.09,5.69,1.65,8.6a2.62,2.62,0,0,0,0-1.71C169.87,78.05,169.36,75.75,168.84,73.45Zm10.44,33.91a3.8,3.8,0,0,0-.15-3.37c-.07.49-.47.83-.39,1.28C178.87,106,179.08,106.61,179.28,107.36Zm2.24,5.11c-.68,1.4.11,2.53.31,3.79C182.46,114.91,181.75,113.77,181.52,112.47Zm-2.89-74.23c.39,3.09.78,6.18,1.09,9.37C180,46.93,179.37,41.59,178.63,38.24Zm5,43.77a3.64,3.64,0,0,0-.71,3.19A3.72,3.72,0,0,0,183.63,82Zm-12.77-3a4.91,4.91,0,0,0-.18-3.62C170.07,76.55,170.53,77.73,170.86,79ZM187,142.77a4.63,4.63,0,0,0,.82-3.41C187.28,140.45,186.54,141.45,187,142.77Zm-5.32-66.1c-.51,1-1.11,2-.64,3.25A4,4,0,0,0,181.63,76.67Zm-6,23a4.16,4.16,0,0,0,0-3.28A3.77,3.77,0,0,0,175.59,99.63Zm7.62,15.91a4,4,0,0,0-.1-3.36C182.88,113.31,182.55,114.43,183.21,115.54Zm1.26-33.65a3,3,0,0,0,.57-3A3.23,3.23,0,0,0,184.47,81.89Zm6,49.63c-.69,1.3-1.51,2.48-1.43,4A9.74,9.74,0,0,0,190.48,131.52ZM183.72,66a3.17,3.17,0,0,0,.28-3A3.44,3.44,0,0,0,183.72,66Zm-95,28.61c1.2-1.23,2.48-2.36,3.74-3.51A8.35,8.35,0,0,0,88.74,94.56Zm92-32.25a5,5,0,0,0,.25-3.57C180.35,59.89,180.72,61.11,180.78,62.31ZM178.32,98c.28-1.14.61-2.23,0-3.29A3.89,3.89,0,0,0,178.32,98Zm1.71,5.77a3.78,3.78,0,0,0-.05-3.17A3.64,3.64,0,0,0,180,103.79Zm-1.64-57c0,.7,0,1.39,0,2.08,0,2.33.2,4.66.19,7v2.49C178.89,57.86,178.71,49.61,178.39,46.82Zm8.84,98.65a5.31,5.31,0,0,0,.54-3.24A3.66,3.66,0,0,0,187.23,145.47Zm-17.37-73.3c-.5,1.18,0,2.27.19,3.42A4.22,4.22,0,0,0,169.86,72.17Zm11,40.44a3.91,3.91,0,0,0-.21-3.14A3.56,3.56,0,0,0,180.89,112.61Zm-.84-64a23.47,23.47,0,0,0,.22,4.74C180.76,51.76,180.15,50.19,180.05,48.61Zm4.64,35.64c.8-1.44,1-2.25.62-3C184.85,82.22,184.23,83.11,184.69,84.25Zm-.15-12.64c.3-1,1.11-1.85.54-3C184.65,69.55,184,70.45,184.54,71.61Zm-13.07,7a5,5,0,0,0,.1,3.46A4.87,4.87,0,0,0,171.47,78.64Zm26.65,27.21c-1,1.11-1,2.53-1.3,3.86C197.78,108.59,197.7,107.14,198.12,105.85Zm-12.79,14.46a4.91,4.91,0,0,0,.17,3.48A5.27,5.27,0,0,0,185.33,120.31Zm-42.09-76.6a6,6,0,0,0-2.32-3.07C141.66,41.68,142.13,42.92,143.24,43.71ZM184,118.29c.36-1.61.33-2.51-.12-3.29A4.32,4.32,0,0,0,184,118.29Zm-3.52-23.37c-.06-.38.37-.63.27-1-.21-.73-.43-1.45-.66-2.22C179.54,92.9,180.21,93.88,180.48,94.92Zm-6.9.67.08,0c-.53-2.39-1.07-4.77-1.62-7.19a.62.62,0,0,0-.12.65c.13.56.26,1.13.41,1.69Q172.95,93.15,173.58,95.59Zm6.35,11.19a3.42,3.42,0,0,0,.09,3A3.75,3.75,0,0,0,179.93,106.78ZM170.71,65.1c-.4,1.24.32,2.28.6,3.4C171.74,67.24,171,66.22,170.71,65.1Zm9.61,5.38c.18-.21.36-.41.3-.65a14,14,0,0,1-.23-2.33c-.06-.58-.1-1.16-.15-1.85a1.08,1.08,0,0,0-.24.68C180.1,67.72,180.21,69.1,180.32,70.48ZM177.64,95.4a3.53,3.53,0,0,0,0-3A3.89,3.89,0,0,0,177.64,95.4Zm-4.83-7.19c.44-1.49.43-2.44,0-3.21A4.66,4.66,0,0,0,172.81,88.21Zm7.88,14.92c-.26,1-.6,2,0,3.07C180.9,105.16,181.29,104.15,180.69,103.13Zm-6.6-18.73c-.54,1.17-.05,2.19.22,3.26C174.9,86.53,174.28,85.52,174.09,84.4Zm9.29-4.68a3.25,3.25,0,0,0-.61,2.77A2.94,2.94,0,0,0,183.38,79.72Zm-7.2,7.57a3.67,3.67,0,0,0,.15,2.9A3.21,3.21,0,0,0,176.18,87.29Zm17.72,29.3a5.7,5.7,0,0,0,1.29-3.35A6.38,6.38,0,0,0,193.9,116.59Zm-4.23,18.9a4.72,4.72,0,0,0-.9,3.15A5.87,5.87,0,0,0,189.67,135.49Zm2.09-11.92a6.11,6.11,0,0,0,1.54-3.2A6.21,6.21,0,0,0,191.76,123.57Zm-5.5-47.23a2.55,2.55,0,0,0-.42,2.57A2.61,2.61,0,0,0,186.26,76.34Zm-1.5.45a2.8,2.8,0,0,0-.51,2.62C184.67,78.58,185.24,77.8,184.76,76.79Zm-7.82,13.14a3.52,3.52,0,0,0,.05,2.91A3.64,3.64,0,0,0,176.94,89.93Zm5,31.28,1.11,2.84c.3-.63,0-1.15-.08-1.7S182.28,121.57,181.92,121.21Zm-9.67-36.13a4.28,4.28,0,0,0-.09-3.09A4.27,4.27,0,0,0,172.25,85.08Zm22,32a6.57,6.57,0,0,0-1.46,3.19A6.15,6.15,0,0,0,194.23,117.07Zm-16.61-16a2.91,2.91,0,0,0-.11-2.72A3.24,3.24,0,0,0,177.62,101.1Zm-1.36-2a2.65,2.65,0,0,0,0,2.66A3.21,3.21,0,0,0,176.26,99.14Zm6.21,17a3.32,3.32,0,0,0,.17,2.82A3.51,3.51,0,0,0,182.47,116.12Zm2.25,4.72c.11-1.07.48-2-.05-3A3.82,3.82,0,0,0,184.72,120.84Zm.8-44.16a2.35,2.35,0,0,0,.4-2.42C185.54,75,185,75.75,185.52,76.68ZM168.21,65.53c-.34,1.22.22,2.27.41,3.38A6.37,6.37,0,0,0,168.21,65.53Zm7.21,16.53a4.77,4.77,0,0,0-.5-2.9C174.55,80.23,175.17,81.11,175.42,82.06Zm7.9-13.3c-.6.94-.12,1.84-.1,2.79C183.71,70.88,183.73,70.06,183.32,68.76Zm5.82,73.12a4.45,4.45,0,0,0-.42,3.09A5.5,5.5,0,0,0,189.14,141.88Zm-2.56-63.35c-.64,1-.79,1.77-.44,2.43C186.41,80.15,187,79.45,186.58,78.53Zm-3.67-12.86c-.59.9-.09,1.81,0,2.71C183.46,67.48,183,66.58,182.91,65.67Zm-7.19,27.44c.47-.9,0-1.73-.16-2.66A3,3,0,0,0,175.72,93.11ZM157,66a9.49,9.49,0,0,0-2.37-4Zm26.22,52.89a2.57,2.57,0,0,0,.21,2.48A3,3,0,0,0,183.26,118.93ZM196,113.24c.79-.8.8-1.87,1-2.87C196.25,111.17,196.31,112.26,196,113.24ZM165.39,53c.57,1.94,1.15,3.89,1.72,5.84l.14,0A44,44,0,0,0,165.39,53Zm17.36,21.13a2.77,2.77,0,0,0-.35,2.4A2.55,2.55,0,0,0,182.75,74.16Zm12.47,34.62a7.9,7.9,0,0,0-1.28,3.07A6.33,6.33,0,0,0,195.22,108.78ZM175,90.32a3.37,3.37,0,0,0-.12-2.61A3.3,3.3,0,0,0,175,90.32ZM189.3,138.8a3.49,3.49,0,0,0-.6,2.71A4.92,4.92,0,0,0,189.3,138.8ZM181.05,95a3.29,3.29,0,0,0,.16,2.58C181.66,96.74,181.29,95.92,181.05,95Zm-4.8-1.7c-.48.93-.08,1.74.09,2.6A3.27,3.27,0,0,0,176.25,93.33Zm.64,2.64A3.09,3.09,0,0,0,177,98.5,3,3,0,0,0,176.89,96Zm-4.7-24.7c.43-1-.1-1.75-.33-2.61C171.43,69.62,171.93,70.39,172.19,71.27Zm15.64,74.21a2.61,2.61,0,0,0-.13,2.58C188.17,147.21,187.82,146.33,187.83,145.48ZM169.12,69.34a4.54,4.54,0,0,0,.19,2.77A3.87,3.87,0,0,0,169.12,69.34Zm6.49,18a2.76,2.76,0,0,0-.14-2.46A3.28,3.28,0,0,0,175.61,87.34ZM174.49,82c-.25,1,.3,1.75.46,2.62C175.41,83.61,174.69,82.83,174.49,82Zm2.72.24a2.44,2.44,0,0,0,.13,2c0,.08,0,.3.2.18s.36-.07.26-.35C177.6,83.46,177.43,82.88,177.21,82.21Zm5.87,21.1c-.33,1,.18,1.89.37,2.81A3.79,3.79,0,0,0,183.08,103.31Zm12.95,6a18.17,18.17,0,0,0-1,3.14A5,5,0,0,0,196,109.32ZM182.43,57a3.22,3.22,0,0,0-.08-2.71C182,55.21,182.38,56.05,182.43,57Zm-12.92,5.32c.29-1.07-.38-1.93-.58-2.9A6.75,6.75,0,0,0,169.51,62.33Zm-67.4,5.48c-.7,0-1.38.08-2.07.07-.22,0-.3.07-.26.28s-.07.25,0,.4Zm95.67,37.51a3.5,3.5,0,0,0,.84-2.51A4.58,4.58,0,0,0,197.78,105.32Zm-1.08,11.37a6.51,6.51,0,0,0-1.12,2.76A5.84,5.84,0,0,0,196.7,116.69ZM172.75,71.37c-.43,1,.14,1.73.34,2.51C173.49,73,172.91,72.28,172.75,71.37Zm6.39,38.28c-.21.22-.41.3-.31.55.24.62.47,1.24.7,1.85C179.83,111.19,179.23,110.51,179.14,109.65Zm-8.28-27.21c-.39.33-.41-.21.19,2.5C171.45,84.06,171,83.28,170.86,82.44Zm-3.08-26.61a10,10,0,0,0,.68,2.86A4.88,4.88,0,0,0,167.78,55.83ZM103.89,76.54c-1.12-.32-1.57.52-2.12,1.2Zm75.58,18.3a6.53,6.53,0,0,0,.59,2.72A6.76,6.76,0,0,0,179.47,94.84Zm-6.07-12.7a2.49,2.49,0,0,0,.14,2.22A2.7,2.7,0,0,0,173.4,82.14ZM190,143.78a8.72,8.72,0,0,0,.82-3A6.17,6.17,0,0,0,190,143.78Zm-7.4-41.11c.36-.8-.09-1.51-.24-2.26C182,101.22,182.42,101.93,182.59,102.67Zm-3.7-13.32c.27-.81.29-.71-.26-2.28C178.26,87.87,178.7,88.54,178.89,89.35Zm.66,2.31a2.55,2.55,0,0,0-.18-2.19A2.46,2.46,0,0,0,179.55,91.66Zm16.72,22.28a3.33,3.33,0,0,0-.91,2.26A3.85,3.85,0,0,0,196.27,113.94ZM183.75,71.81c-.54.65-.32,1.34-.22,2C184.1,73.2,183.85,72.52,183.75,71.81Zm-10.87,10c.43-1,0-1.7-.24-2.48A6.12,6.12,0,0,0,172.88,81.81Zm-56.16-3.7A10.8,10.8,0,0,0,120.08,77,23.6,23.6,0,0,0,116.72,78.11Zm35.55-19.77,1.26,1.93a6.45,6.45,0,0,0-.26-1.28c0-.12-.07-.22-.21-.24A2.84,2.84,0,0,1,152.27,58.34ZM193.47,123a5.12,5.12,0,0,0,1-2.72A8.39,8.39,0,0,0,193.47,123ZM173.84,76.53c.33-.76-.06-1.41-.26-2.08C173.24,75.21,173.66,75.85,173.84,76.53Zm10.4,47.17a2.8,2.8,0,0,0-.22-2.1A2.48,2.48,0,0,0,184.24,123.7Zm14.3-22,.13,0a10.41,10.41,0,0,0,.63-3.42C199.05,99.44,198.79,100.56,198.54,101.69Zm-18.6-36.86a6,6,0,0,0,0-2.69A9.7,9.7,0,0,0,179.94,64.83Zm-1.8,22c.41-.78,0-1.42-.18-2.12A2.71,2.71,0,0,0,178.14,86.78Zm8-17.73a.9.9,0,0,0-.05.55c.11.67.2,1.34.32,2,0,.11-.07.35.18.32s.14-.27.11-.39C186.5,70.73,186.31,69.91,186.11,69.05Zm-4.35,28.71a2.4,2.4,0,0,0,.09,2.1C182.25,99.17,181.9,98.52,181.76,97.76Zm-.11-47.15-.12,0c.13,1,.27,1.93.4,2.9l.15,0A10.55,10.55,0,0,0,181.65,50.61Zm-1.94,10.22h.18L179.71,57h-.15ZM184,106.55a3.06,3.06,0,0,0,.19,2.23A3.19,3.19,0,0,0,184,106.55Zm14.74,1A6,6,0,0,0,198,110,5.15,5.15,0,0,0,198.72,107.57Zm-12-33.52c.07-.22.49-.13.38-.5s-.2-.81-.3-1.24C186.39,72.88,186.65,73.46,186.74,74.05Zm-15.25,11.4a3.88,3.88,0,0,0,.16,2.36A3.56,3.56,0,0,0,171.49,85.45ZM85.32,88.74c.12.18.22.3.3.44s.16.19.29.06l1-.9Zm100.45,28.31a2.39,2.39,0,0,0,.25,2.11A4.62,4.62,0,0,0,185.77,117.05Zm3.1,30.45a3.52,3.52,0,0,0,.27-2.13A2.58,2.58,0,0,0,188.87,147.5Zm4.73-23.62a3.86,3.86,0,0,0-.9,2.3A6.12,6.12,0,0,0,193.6,123.88Zm-16.88-39a2.4,2.4,0,0,0,.29,2C177.31,86.2,176.86,85.62,176.72,84.88Zm1.41,5c-.32.69.06,1.3.24,2C178.68,91.11,178.28,90.51,178.13,89.86ZM191.71,130a9.34,9.34,0,0,0,.89-2.52A5.38,5.38,0,0,0,191.71,130Zm2.87-11a5.42,5.42,0,0,0,1-2.25A4.18,4.18,0,0,0,194.58,119Zm-9.89-9.89c-.15,1.2-.13,1.37.15,1.91C185.23,110.42,184.85,109.86,184.69,109.14Zm-8.47-24.82c.25-.67-.13-1.22-.27-1.89C175.58,83.19,176,83.74,176.22,84.32Zm7.6,41.93a2.11,2.11,0,0,0-.28-1.71A1.87,1.87,0,0,0,183.82,126.25Zm11.25-3.46a5.69,5.69,0,0,0-1,2.26A6.56,6.56,0,0,0,195.07,122.79Zm-24.9-58.08a1.94,1.94,0,0,0-.21-1.8A2.55,2.55,0,0,0,170.17,64.71Zm24.64,57.45a7.35,7.35,0,0,0,1.07-2.22A5.66,5.66,0,0,0,194.81,122.16Zm-8.95-7.82a16.1,16.1,0,0,0-.47-2.4A3.85,3.85,0,0,0,185.86,114.34Zm-11.4-35.51a1.89,1.89,0,0,0-.16-1.76A2.29,2.29,0,0,0,174.46,78.83ZM197.29,113a4,4,0,0,0,.78-2A3.65,3.65,0,0,0,197.29,113Zm-25-38.9a4.66,4.66,0,0,0,.45,2A4.42,4.42,0,0,0,172.24,74.11Zm5.42,15.22c.31-.75,0-1.3-.22-2C177.14,88.11,177.52,88.65,177.66,89.33ZM173.09,77a3.4,3.4,0,0,0,.37,2A4.33,4.33,0,0,0,173.09,77Zm17.46,66.87a4.33,4.33,0,0,0-.46,2.18A6.3,6.3,0,0,0,190.55,143.87Zm-7.43-35.12a7.1,7.1,0,0,0-.56-2.32A8.11,8.11,0,0,0,183.12,108.75Zm-4.07-14.69c.21-.62-.1-1.15-.28-1.81C178.52,93,178.89,93.51,179.05,94.06Zm18.38,19.73a3.18,3.18,0,0,0-.72,1.84A3.52,3.52,0,0,0,197.43,113.79Zm-25.6-37.42a8.34,8.34,0,0,0,.43,2.1A4.6,4.6,0,0,0,171.83,76.37ZM180,112.6l-.18,0a8.75,8.75,0,0,0,.56,1.89l.14,0Zm.43-14.2c-.18.6.14,1.08.3,1.61A2.56,2.56,0,0,0,180.46,98.4Zm1.76,6.82a6.09,6.09,0,0,0-.44-1.92A5.32,5.32,0,0,0,182.22,105.22ZM174,81.38a1.66,1.66,0,0,0-.27-1.54A3.44,3.44,0,0,0,174,81.38Zm15.1,68.19a2,2,0,0,0,.11-1.44A1.68,1.68,0,0,0,189.14,149.57ZM175.6,102.65a8,8,0,0,0,.7,2.53C176.06,104.33,175.83,103.49,175.6,102.65Zm5.57-1.82a1.91,1.91,0,0,0,.23,1.44A2.46,2.46,0,0,0,181.17,100.83Zm3.55,23.44a2.17,2.17,0,0,0,.16,1.69A4.32,4.32,0,0,0,184.72,124.27Zm8.34,4.32c.6-.4.48-1,.7-1.55A5.63,5.63,0,0,0,193.06,128.59ZM179.49,55.66h.11a21.14,21.14,0,0,0-.11-2.14Zm8.65,94.4c.25-.54,0-1,0-1.48C187.77,149.12,188,149.53,188.14,150.06ZM170.19,70a10,10,0,0,0,.47,2.29l.1,0Zm15,46.34c0-.45.19-.91-.17-1.39A1.83,1.83,0,0,0,185.22,116.3Zm-3.58-59.5.18,2.13h.12A7.65,7.65,0,0,0,181.64,56.8Zm-6.72,19.28c.31-.59-.1-1-.19-1.37C174.53,75.16,174.79,75.55,174.92,76.08Zm-8.21-23.21c.19.6.37,1.21.56,1.81A3.42,3.42,0,0,0,166.71,52.87Zm17.91,61.33a2.67,2.67,0,0,0-.33-1.63A5.76,5.76,0,0,0,184.62,114.2ZM171,73.34a7.33,7.33,0,0,0,.47,1.94A7.43,7.43,0,0,0,171,73.34Zm12.54,36.54-.13,0a8.13,8.13,0,0,0,.36,1.37l.15,0ZM167.7,60.41a3.4,3.4,0,0,0,.44,1.68Zm27.84,46.69a3.19,3.19,0,0,0,.48-1.62ZM140,38.9a2.17,2.17,0,0,0,.72,1.34Zm56.68,67.27-.44,1.68A3.45,3.45,0,0,0,196.71,106.17Zm-24.91-33a2.17,2.17,0,0,0-.38-1.44Zm27.33,31.68-.34,1.55A2.68,2.68,0,0,0,199.13,104.82ZM137.5,66.88l0-.08-.86-.43c-.08,0-.14-.05-.19,0a.13.13,0,0,0,.1.2Zm31.92.3a4.28,4.28,0,0,0,.34,1.41A4.69,4.69,0,0,0,169.42,67.18Zm16.24,0a4.85,4.85,0,0,0,.35,1.54A5.75,5.75,0,0,0,185.66,67.23ZM174.3,73.86l.1,0a3.61,3.61,0,0,0-.5-1.36Zm-16.19-6.64c-.06.36-.18.73.22,1.07Zm26.34,60.68a1.46,1.46,0,0,0-.2-1C184.1,127.25,184.28,127.51,184.45,127.9Z"/><path class="cls-3" d="M135.09,94.39a2.13,2.13,0,0,1-.31,1,8.69,8.69,0,0,1-1.48,1.93,16.47,16.47,0,0,1-4.63,3.67,7,7,0,0,1-1.89.63c-.89.14-1.39-.41-1.18-1.29a3.51,3.51,0,0,1,.41-1,14.25,14.25,0,0,1,6.42-5.72,2.68,2.68,0,0,1,1.85-.23A.9.9,0,0,1,135.09,94.39Zm-1.44-.45a1.86,1.86,0,0,0-.9.21,14.34,14.34,0,0,0-5.47,4.32,6.92,6.92,0,0,0-1.08,1.93c-.16.51,0,.69.55.6a6.88,6.88,0,0,0,2.52-1,18.26,18.26,0,0,0,4.39-4,4.68,4.68,0,0,0,.63-1C134.58,94.24,134.39,93.94,133.65,93.94Z"/><path class="cls-3" d="M52.81,125.28a1.14,1.14,0,0,1,.12-.76,33.62,33.62,0,0,0,1.7-5.17c0-.14,0-.34.22-.31s.16.25.14.39a25.9,25.9,0,0,1-1.19,3.94c-.17.47-.37.93-.57,1.39A.85.85,0,0,1,52.81,125.28Z"/><path class="cls-3" d="M53.55,120a2.83,2.83,0,0,1,.13-1.75.15.15,0,0,1,.21-.1.19.19,0,0,1,.12.21A4.11,4.11,0,0,1,53.55,120Z"/><path class="cls-3" d="M113.17,51a1.56,1.56,0,0,1-.25,0,20.35,20.35,0,0,1-2.76-1.29c-.13-.08-.25-.2-.14-.36s.25-.09.38,0c.83.46,1.7.82,2.56,1.21a2.38,2.38,0,0,1,.3.18c.07,0,.16.11.14.2S113.23,50.92,113.17,51Z"/><path class="cls-3" d="M117.78,52.25l-2.38-.65c-.14,0-.25-.14-.19-.3s.19-.16.33-.12l2.34.63c.13,0,.34.1.3.27S117.93,52.21,117.78,52.25Z"/><path class="cls-3" d="M59.51,107.27a26.45,26.45,0,0,1-1.11,5.6c-.16.53-.32,1-.49,1.57,0,.11-.08.29-.25.24s-.12-.2-.1-.31a4.69,4.69,0,0,1,.14-.65A31.67,31.67,0,0,0,59,107.94c0-.37,0-.74.07-1.11,0-.16,0-.36.23-.35s.18.21.18.35S59.51,107.1,59.51,107.27Z"/><path class="cls-3" d="M57.59,110.85a.94.94,0,0,1,0-.68c.15-.65.31-1.29.48-1.93,0-.15.06-.38.28-.33s.15.27.11.44c-.14.58-.29,1.17-.44,1.75A1.42,1.42,0,0,1,57.59,110.85Z"/><path class="cls-3" d="M109.7,64a22.07,22.07,0,0,0,4.43-.53c.14,0,.31-.1.36.1s-.13.23-.27.28a8.35,8.35,0,0,1-2,.38,23.61,23.61,0,0,1-3.76.16c-.2,0-.55,0-.54-.23s.37-.15.58-.15Z"/><path class="cls-3" d="M108.93,63.18a.82.82,0,0,1,.62-.2c.81,0,1.61-.12,2.41-.2.16,0,.37-.08.41.14s-.19.26-.37.28a21.45,21.45,0,0,1-2.28.19A1.12,1.12,0,0,1,108.93,63.18Z"/><path class="cls-3" d="M100.3,66.27a1.58,1.58,0,0,1,1-.29,31.32,31.32,0,0,0,3.73-.54c.17,0,.42-.19.47.09s-.23.28-.4.32a27,27,0,0,1-3,.47c-.41.05-.82.08-1.24.1A.61.61,0,0,1,100.3,66.27Z"/><path class="cls-3" d="M100.35,65.32a.43.43,0,0,1,.38-.22c.92-.09,1.84-.16,2.77-.23.13,0,.29,0,.31.16s-.13.21-.26.22l-2.77.18A.47.47,0,0,1,100.35,65.32Z"/><path class="cls-3" d="M100.14,64.42a1.16,1.16,0,0,1,.92-.32l1-.08c.11,0,.21,0,.23.16a.16.16,0,0,1-.13.17A6.48,6.48,0,0,1,100.14,64.42Z"/><path class="cls-3" d="M64.92,89a.62.62,0,0,1,.39-.27,18.28,18.28,0,0,0,4.43-2.55,1.64,1.64,0,0,1,.22-.14.18.18,0,0,1,.23.06.17.17,0,0,1,0,.21.81.81,0,0,1-.18.19,20.14,20.14,0,0,1-4,2.41A1.15,1.15,0,0,1,64.92,89Z"/><path class="cls-3" d="M66.6,86.87a.84.84,0,0,1,.5-.47l1.6-.85c.11,0,.22-.1.32,0a.16.16,0,0,1,0,.27A5.84,5.84,0,0,1,66.6,86.87Z"/><path class="cls-3" d="M104.27,51a1.14,1.14,0,0,1,.72-.31,11,11,0,0,1,3.07.28c.14,0,.32.07.29.26s-.21.18-.35.15a14.61,14.61,0,0,0-3.16-.32Z"/><path class="cls-3" d="M77.61,62.94a1.28,1.28,0,0,1,.74-.57,23.55,23.55,0,0,0,2.84-1.32c.14-.08.3-.19.42,0s0,.26-.15.32A16.35,16.35,0,0,1,78,62.92,1.67,1.67,0,0,1,77.61,62.94Z"/><path class="cls-3" d="M53.34,108.29a1.47,1.47,0,0,1,.57-.61,22.72,22.72,0,0,0,3.43-3.57,5.83,5.83,0,0,0,.84-1.5c0-.14.11-.27.28-.21a.24.24,0,0,1,.13.33,4.57,4.57,0,0,1-.37.81,18.41,18.41,0,0,1-4.08,4.5A1,1,0,0,1,53.34,108.29Z"/><path class="cls-3" d="M55.78,104.75a15,15,0,0,0,1.14-1.58.17.17,0,0,1,.23-.06.19.19,0,0,1,.11.18C57.3,103.78,56.33,104.76,55.78,104.75Z"/><path class="cls-3" d="M72.59,102.18a.75.75,0,0,1,.36-.48,7.7,7.7,0,0,0,2.16-2.86,1.47,1.47,0,0,1,.14-.28.17.17,0,0,1,.32.12,1,1,0,0,1-.08.29,7.76,7.76,0,0,1-2,2.82A1.11,1.11,0,0,1,72.59,102.18Z"/><path class="cls-3" d="M67.89,111.16a1.36,1.36,0,0,1,.5-.66,16.23,16.23,0,0,0,2.49-2.93,6.87,6.87,0,0,0,.75-1.6c.06-.17.08-.47.33-.39s.09.32,0,.49a6.46,6.46,0,0,1-.91,1.91,16.37,16.37,0,0,1-2.4,2.79A1.07,1.07,0,0,1,67.89,111.16Z"/><path class="cls-3" d="M68.4,109.46a.85.85,0,0,1,.28-.54,7.24,7.24,0,0,0,1.44-2.15c.06-.13.11-.27.29-.21a.2.2,0,0,1,.1.3,5.38,5.38,0,0,1-1.82,2.49A1.48,1.48,0,0,1,68.4,109.46Z"/><path class="cls-3" d="M53.23,134.09a2.52,2.52,0,0,1-.07-1.27,19.54,19.54,0,0,0,0-3.06,2,2,0,0,1,0-.35.18.18,0,0,1,.19-.15.18.18,0,0,1,.19.15.85.85,0,0,1,0,.22,17.31,17.31,0,0,1-.06,3.67A1.26,1.26,0,0,1,53.23,134.09Z"/><path class="cls-3" d="M91,53.17a.74.74,0,0,1,.58-.24c1,0,2-.2,2.94-.32.27,0,.71-.24.77.12s-.42.25-.66.29a22.08,22.08,0,0,1-2.93.33A1,1,0,0,1,91,53.17Z"/><path class="cls-3" d="M78.71,76.28a.53.53,0,0,1,.39-.35A6.71,6.71,0,0,0,81,75c.1-.07.21-.14.31,0s0,.23-.06.3A4.24,4.24,0,0,1,78.71,76.28Z"/><path class="cls-3" d="M82.1,96.16a10.9,10.9,0,0,1-1.3,3.71.76.76,0,0,1-.11.14c-.11.09-.25.24-.38.13s0-.25.07-.36A10.75,10.75,0,0,0,81.68,96c0-.14,0-.29.22-.26S82.09,95.94,82.1,96.16Z"/><path class="cls-3" d="M78,103.51a.47.47,0,0,1,.17-.4,7.38,7.38,0,0,0,1.08-1.62c.05-.12.13-.25.3-.19s.14.22.08.34a5.08,5.08,0,0,1-1.2,1.73A.42.42,0,0,1,78,103.51Z"/><path class="cls-3" d="M111.85,115.48a.91.91,0,0,1,.3-.52,29.62,29.62,0,0,0,2.41-3.38c.08-.12.14-.32.32-.23s.08.29,0,.42a29,29,0,0,1-2.49,3.42C112.22,115.38,112.18,115.38,111.85,115.48Z"/><path class="cls-3" d="M113.29,111.62c0-.15.1-.24.18-.33a6.09,6.09,0,0,0,1.14-1.74c0-.12.12-.26.28-.2a.2.2,0,0,1,.11.29,4.37,4.37,0,0,1-1.26,1.85A.54.54,0,0,1,113.29,111.62Z"/><path class="cls-3" d="M64.39,122.28a2.3,2.3,0,0,1,.51-.78A15.06,15.06,0,0,0,68,115.43a1.4,1.4,0,0,1,.09-.29.18.18,0,0,1,.21-.12c.11,0,.14.11.13.21a5.54,5.54,0,0,1-.11.56,15.36,15.36,0,0,1-3,5.9A1.39,1.39,0,0,1,64.39,122.28Z"/><path class="cls-3" d="M118.37,108.41a2.18,2.18,0,0,1,.64-.77,16.46,16.46,0,0,0,2.94-3.75,6.18,6.18,0,0,0,.57-1.44c0-.12.08-.29.26-.23s.13.2.1.33a6.75,6.75,0,0,1-.76,1.79,17.67,17.67,0,0,1-2.74,3.47A2.15,2.15,0,0,1,118.37,108.41Z"/><path class="cls-3" d="M90.07,84.5a1.05,1.05,0,0,1-.15.24,10.93,10.93,0,0,1-1.67,1.44l-.08,0c-.2.08-.46.26-.59,0s.21-.28.36-.38a11.51,11.51,0,0,0,1.68-1.44c.09-.09.18-.2.34-.14S90.06,84.39,90.07,84.5Z"/><path class="cls-3" d="M126,50.53a1,1,0,0,1-.48-.11,22.28,22.28,0,0,1-3.15-1.8,1.93,1.93,0,0,1-.28-.22c-.09-.09-.15-.2-.06-.31a.22.22,0,0,1,.32,0c.17.11.33.24.51.35A25.25,25.25,0,0,0,125.64,50c.16.08.31.17.46.26s.16.11.13.21S126.08,50.52,126,50.53Z"/><path class="cls-3" d="M137,55.24a1.38,1.38,0,0,1-.49-.5A18.87,18.87,0,0,0,133.29,51c-.09-.08-.18-.17-.1-.29s.21-.11.32,0a2.35,2.35,0,0,1,.32.23,20.68,20.68,0,0,1,3,3.62A1,1,0,0,1,137,55.24Z"/><path class="cls-3" d="M79.5,93.13c-.14,0-.34,0-.36-.16s.18-.16.3-.2a9.25,9.25,0,0,0,4.28-3c.09-.11.18-.24.33-.13s.07.25,0,.36a3.59,3.59,0,0,1-.37.5,11.58,11.58,0,0,1-3.44,2.44A1.84,1.84,0,0,1,79.5,93.13Z"/><path class="cls-3" d="M91.21,70.16c-.21,0-.42,0-.62,0s-.38,0-.39-.22.24-.18.38-.18c.62,0,1.24-.05,1.86-.13a22.82,22.82,0,0,0,5-1c.14,0,.31-.13.39.05s-.11.28-.26.34a16,16,0,0,1-3.56.84A23.45,23.45,0,0,1,91.21,70.16Z"/><path class="cls-3" d="M93,68.77a.57.57,0,0,1,.45-.27c.82-.15,1.63-.27,2.44-.39.14,0,.35-.07.38.12s-.18.22-.33.25l-2.44.39A.66.66,0,0,1,93,68.77Z"/><path class="cls-3" d="M66.3,94.62a11.31,11.31,0,0,1-.88,2.59c-.08.15-.19.37-.39.26s0-.3,0-.44a12.72,12.72,0,0,0,.83-2.46c0-.14.08-.31.28-.27S66.32,94.48,66.3,94.62Z"/><path class="cls-3" d="M63.21,100.43c-.25,0-.28-.11-.17-.25a13.54,13.54,0,0,0,.83-1.25.21.21,0,0,1,.26-.1c.11,0,.18.14.13.24a3,3,0,0,1-.88,1.3A.58.58,0,0,1,63.21,100.43Z"/><path class="cls-3" d="M102.73,75.29c-.1,0-.23,0-.27-.09s.1-.21.21-.25l1.23-.34c.82-.23,1.64-.48,2.44-.78.15-.06.35-.21.44,0s-.15.26-.29.31a29.72,29.72,0,0,1-3.59,1.09Z"/><path class="cls-3" d="M102.86,74.2a1.13,1.13,0,0,1,.63-.39c.84-.29,1.68-.56,2.52-.84l.35-.08a.18.18,0,0,1,.21.12.16.16,0,0,1-.11.21,18.54,18.54,0,0,1-3.43,1Z"/><path class="cls-3" d="M135.18,28.32c0,.08,0,.22-.1.25s-.14-.09-.19-.16-.14-.26-.2-.39A23.86,23.86,0,0,0,132,23.38c-.08-.1-.17-.22-.05-.35s.28-.05.38.06a8,8,0,0,1,.52.67A28.67,28.67,0,0,1,135,27.63,1.64,1.64,0,0,1,135.18,28.32Z"/><path class="cls-3" d="M75,85.57c.07-.23.25-.28.39-.37A19,19,0,0,0,79.15,82,4.62,4.62,0,0,0,80,80.6c0-.13.12-.31.31-.23s.11.25.06.39a4.73,4.73,0,0,1-.85,1.39,21.53,21.53,0,0,1-3.5,3.11A1.27,1.27,0,0,1,75,85.57Z"/><path class="cls-3" d="M116.92,100.91a2,2,0,0,1-.27,0c-.11,0-.2-.07-.19-.2s.09-.15.19-.16a8.27,8.27,0,0,0,3-.85c.1,0,.23-.09.29,0s0,.22-.1.3a1.07,1.07,0,0,1-.22.15A9.36,9.36,0,0,1,116.92,100.91Z"/><path class="cls-3" d="M123.26,98a.68.68,0,0,1-.4.51c-.58.35-1.17.69-1.76,1-.13.08-.31.21-.43,0s.09-.3.23-.38c.62-.38,1.24-.74,1.87-1.11A.51.51,0,0,1,123.26,98Z"/><path class="cls-3" d="M116.93,76.23a1,1,0,0,1,.59-.28,19,19,0,0,0,2.85-.93c.16-.07.36-.19.46,0s-.13.31-.3.38a16.28,16.28,0,0,1-2.63.89A1.42,1.42,0,0,1,116.93,76.23Z"/><path class="cls-3" d="M158.23,93.17a1.17,1.17,0,0,1-.81.4,21.94,21.94,0,0,1-3.44.09c-.15,0-.32,0-.34-.21s.14-.21.28-.21a35.08,35.08,0,0,0,4.1-.09Z"/><path class="cls-3" d="M98.35,82.49a2.44,2.44,0,0,1-.1.24,4.92,4.92,0,0,1-.89,1.36,14.68,14.68,0,0,1-3.21,2.57c-.22.13-.55.38-.7.14s.27-.35.47-.47a16.28,16.28,0,0,0,2.86-2.23,5.71,5.71,0,0,0,1.13-1.58c0-.13.13-.25.29-.23S98.34,82.39,98.35,82.49Z"/><path class="cls-3" d="M95.16,84.41a1.29,1.29,0,0,1,.52-.58,4.19,4.19,0,0,0,.81-.82c.07-.08.15-.15.27-.09s.1.16.06.27A2.63,2.63,0,0,1,95.16,84.41Z"/><path class="cls-3" d="M128.58,22.45a2.85,2.85,0,0,1-.67-.81c-.21-.32-.43-.63-.65-.94-.07-.11-.12-.22,0-.31a.16.16,0,0,1,.24,0A4.25,4.25,0,0,1,128.58,22.45Z"/><path class="cls-3" d="M129.9,66.1a6.45,6.45,0,0,1-1.83-.44c-.14,0-.31-.12-.24-.31s.24-.13.38-.08a7.79,7.79,0,0,0,1.71.43c.17,0,.46,0,.43.22S130.05,66.09,129.9,66.1Z"/><path class="cls-3" d="M131.47,65.59l1.32.2c.1,0,.22,0,.22.17s-.14.16-.24.16a13.16,13.16,0,0,1-1.66-.18.16.16,0,0,1-.14-.2C131,65.55,131.2,65.6,131.47,65.59Z"/><path class="cls-3" d="M95.43,92.67A1.6,1.6,0,0,1,96,92a14.44,14.44,0,0,0,2.33-2.55,2.65,2.65,0,0,0,.59-1.36c0-.13.06-.24.21-.25s.23.12.23.27a1.85,1.85,0,0,1-.29,1,12.32,12.32,0,0,1-2.91,3.32A.86.86,0,0,1,95.43,92.67Z"/><path class="cls-3" d="M88,76.59a1.28,1.28,0,0,1,.6-.52,13.39,13.39,0,0,0,2.77-1.82c.11-.09.23-.22.37-.06s0,.23-.07.31a9.78,9.78,0,0,1-3.45,2.09A.8.8,0,0,1,88,76.59Z"/><path class="cls-3" d="M93.85,79.53a.61.61,0,0,1,.4-.41c1.49-.75,3-1.53,4.49-2.19a1.45,1.45,0,0,1,.29-.11c.11,0,.24-.07.31.06s0,.26-.16.31c-1.63.69-3.17,1.56-4.78,2.3A.84.84,0,0,1,93.85,79.53Z"/><path class="cls-3" d="M147,47.09a1,1,0,0,1-.41-.56,25.06,25.06,0,0,0-1.69-3.5,1.47,1.47,0,0,1-.14-.28.21.21,0,0,1,.08-.27.22.22,0,0,1,.28.07.83.83,0,0,1,.13.18,26.33,26.33,0,0,1,1.66,3.37A1.44,1.44,0,0,1,147,47.09Z"/><path class="cls-3" d="M102.06,82.67a4.28,4.28,0,0,0,1.28-.12c.09,0,.23,0,.27.07s-.06.23-.17.27a4.12,4.12,0,0,1-2.09.16c-.12,0-.23-.1-.2-.25s.14-.14.25-.14Z"/><path class="cls-3" d="M106.33,80.59a.72.72,0,0,1-.31.66,5,5,0,0,1-1,.72c-.1,0-.21.07-.28,0a.15.15,0,0,1,0-.23C105.24,81.34,105.77,81,106.33,80.59Z"/><path class="cls-3" d="M140.33,89.28a24.67,24.67,0,0,1-2.48-.36c-.16,0-.4-.07-.34-.31s.28-.17.45-.13c.79.15,1.59.27,2.4.35.19,0,.54,0,.52.2S140.52,89.24,140.33,89.28Z"/><path class="cls-3" d="M142.48,89.4c-.2,0-.41,0-.43-.18s.18-.22.35-.24c.79-.1,1.59,0,2.37-.2.1,0,.24,0,.28.06s-.08.2-.17.26a1.48,1.48,0,0,1-.77.2C143.56,89.34,143,89.32,142.48,89.4Z"/><path class="cls-3" d="M70.41,81.31c-.15,0-.35,0-.37-.18s.15-.18.26-.2l4.26-1c.12,0,.25,0,.3.1s-.07.25-.2.29q-.43.14-.9.24l-3.1.71Z"/><path class="cls-3" d="M71.06,80.33c-.14,0-.35,0-.36-.18s.17-.18.29-.21c.3-.08.61-.13.91-.18.13,0,.28,0,.31.17s-.11.22-.25.24Z"/><path class="cls-3" d="M90.31,96.79c-.1,0-.16-.1,0-.22.34-.39.7-.76,1-1.14a.13.13,0,0,1,.2,0,.31.31,0,0,1,.06.16A2.72,2.72,0,0,1,90.31,96.79Z"/><path class="cls-3" d="M88.21,98.26a3.78,3.78,0,0,1,1.24-.94.18.18,0,0,1,.24.05.14.14,0,0,1,0,.2C89.22,97.88,88.83,98.3,88.21,98.26Z"/><path class="cls-3" d="M131.76,91.57a1.44,1.44,0,0,1-.85.66,9.87,9.87,0,0,1-2.79.6c-.16,0-.35,0-.38-.19s.11-.2.24-.2a12.74,12.74,0,0,0,3.59-.87Z"/><path class="cls-3" d="M107.85,83.59a1.16,1.16,0,0,1-.51.65,20.53,20.53,0,0,1-3.88,2.11c-.13.05-.3.12-.38,0s.07-.24.19-.29a20.53,20.53,0,0,0,4.2-2.33A.38.38,0,0,1,107.85,83.59Z"/><path class="cls-3" d="M147.59,92.89a1.2,1.2,0,0,1-.88.39,10.56,10.56,0,0,1-2.51-.15c-.14,0-.31-.08-.29-.27s.19-.16.32-.14a12.38,12.38,0,0,0,3,.13A1.6,1.6,0,0,1,147.59,92.89Z"/><path class="cls-3" d="M116.58,69.92a.6.6,0,0,1,.51-.16c.75,0,1.5.1,2.25.17.14,0,.37,0,.34.25s-.24.15-.39.14l-2.16-.18A.88.88,0,0,1,116.58,69.92Z"/><path class="cls-3" d="M99.72,127c0-.19.06-.28.14-.38a9.46,9.46,0,0,0,1.36-2.21c.08-.18.15-.48.41-.34s.06.37,0,.54a10.83,10.83,0,0,1-1,1.85A1.13,1.13,0,0,1,99.72,127Z"/><path class="cls-3" d="M156.18,115.23c-.17,0-.31,0-.34-.12s.09-.18.18-.22c.72-.35,1.45-.69,2.19-1a.19.19,0,0,1,.27.07.19.19,0,0,1,0,.27A8.89,8.89,0,0,1,156.18,115.23Z"/><path class="cls-3" d="M136.61,76.53a.89.89,0,0,1,.75-.13l3.07.42c.17,0,.41,0,.39.26s-.26.19-.42.17l-3.29-.46A.84.84,0,0,1,136.61,76.53Z"/><path class="cls-3" d="M78.88,110.2a9,9,0,0,0,1.22-2.72c0-.12.12-.22.26-.17a.18.18,0,0,1,.12.25,6.39,6.39,0,0,1-1,2.3A.86.86,0,0,1,78.88,110.2Z"/><path class="cls-3" d="M147.71,118.6c.19.05.2.2.12.33a6.11,6.11,0,0,1-1.48,1.68c-.12.08-.31.21-.43,0s.09-.23.18-.31a8.81,8.81,0,0,0,1.32-1.54C147.49,118.71,147.56,118.6,147.71,118.6Z"/><path class="cls-3" d="M153.81,112.05a1.21,1.21,0,0,1-.89.33c-.52,0-1,0-1.55,0-.12,0-.25,0-.28-.16a.16.16,0,0,1,.18-.2A16.56,16.56,0,0,1,153.81,112.05Z"/><path class="cls-3" d="M84.05,103.69a1,1,0,0,1,.3-.5,8.83,8.83,0,0,0,1.57-2.39c.06-.13.12-.27.29-.2s.13.22.08.34a7.24,7.24,0,0,1-1.8,2.6A.49.49,0,0,1,84.05,103.69Z"/><path class="cls-3" d="M125.39,74.33a.64.64,0,0,1,.52-.27,15.23,15.23,0,0,1,2.86-.19,1.1,1.1,0,0,1,.31,0,.18.18,0,0,1,.12.21.15.15,0,0,1-.16.12c-1.2-.09-2.38.2-3.58.15C125.44,74.39,125.43,74.36,125.39,74.33Z"/><path class="cls-3" d="M131.91,96.76a1.4,1.4,0,0,1-.44.74,13.59,13.59,0,0,1-3,2.14c-.14.08-.33.2-.43,0s.12-.27.25-.35a14.89,14.89,0,0,0,3-2.17A1.2,1.2,0,0,1,131.91,96.76Z"/><text class="cls-4" transform="translate(236.94 136.18) rotate(-90)">Rice</text></g></g></svg>