<svg xmlns="http://www.w3.org/2000/svg" viewBox="0 0 185.64 226.77"><defs><style>.cls-1{font-size:22px;fill:#666;font-family:Arial-BoldMT, Arial;font-weight:700;}.cls-2{fill:#f6c955;}.cls-3,.cls-4,.cls-5{isolation:isolate;}.cls-4,.cls-5{font-size:7.13px;font-family:ArialMT, Arial;}.cls-4{fill:#ff0d0d;}.cls-5{fill:#888;}</style></defs><g id="图层_2" data-name="图层 2"><g id="图层_1-2" data-name="图层 1"><text class="cls-1" transform="translate(14.68 218.49)">Strigolactones</text><circle class="cls-2" cx="92.82" cy="92.82" r="92.82"/><g class="cls-3"><text class="cls-4" transform="translate(116.61 134.49)">O</text></g><polygon points="115.86 130.79 103.91 126.91 104 126.6 104.33 126.37 116.06 130.18 115.96 130.49 115.86 130.79"/><polygon points="104.33 110.67 104.33 126.37 104 126.6 103.68 126.37 103.68 110.67 104 110.44 104.33 110.67"/><polygon points="103.68 110.67 88.75 105.82 88.63 105.44 89.07 105.24 104.11 110.13 104 110.44 103.68 110.67"/><polygon points="88.75 105.82 79.53 118.52 79.13 118.52 78.95 118.21 88.16 105.54 88.63 105.44 88.75 105.82"/><polygon points="88.26 131.64 78.97 118.86 79.13 118.52 79.53 118.52 88.75 131.22 88.63 131.6 88.26 131.64"/><polygon points="104.11 126.91 88.87 131.86 88.63 131.6 88.75 131.22 103.68 126.37 104 126.6 104.11 126.91"/><polygon points="88.87 131.86 82.42 146.33 82.05 146.37 81.83 146.06 88.26 131.64 88.63 131.6 88.87 131.86"/><polygon points="86.7 131.96 81.03 144.69 80.74 144.56 80.44 144.42 86.11 131.7 86.4 131.83 86.7 131.96"/><polygon points="81.9 146.71 66.19 148.36 65.98 148.06 66.13 147.72 81.83 146.06 82.05 146.37 81.9 146.71"/><polygon points="65.6 148.1 56.32 135.32 56.47 134.98 56.84 134.94 66.13 147.72 65.98 148.06 65.6 148.1"/><polygon points="66.63 146.2 58.44 134.93 58.7 134.74 58.96 134.55 67.15 145.82 66.89 146.01 66.63 146.2"/><polygon points="63.27 120.51 56.84 134.94 56.47 134.98 56.25 134.68 62.68 120.25 63.05 120.21 63.27 120.51"/><polygon points="78.97 118.86 63.27 120.51 63.05 120.21 63.2 119.87 78.95 118.21 79.13 118.52 78.97 118.86"/><polygon points="78.1 117 63.99 118.48 63.96 118.16 63.93 117.84 78.03 116.36 78.06 116.68 78.1 117"/><polygon points="62.68 120.25 55.9 110.92 56.16 110.72 56.42 110.53 63.2 119.87 63.05 120.21 62.68 120.25"/><g class="cls-3"><text class="cls-5" transform="translate(50.97 110.02)">H</text></g><polygon points="56.32 135.32 43.65 136.65 43.62 136.33 43.58 136.01 56.25 134.68 56.47 134.98 56.32 135.32"/><g class="cls-3"><text class="cls-5" transform="translate(37.82 139.55)">H</text></g><polygon points="66.19 148.36 61.3 159.36 61 159.23 60.71 159.1 65.6 148.1 65.98 148.06 66.19 148.36"/><g class="cls-3"><text class="cls-5" transform="translate(56.83 165.71)">H</text></g><polygon points="82.42 146.33 89.2 155.66 88.94 155.85 88.68 156.04 81.9 146.71 82.05 146.37 82.42 146.33"/><g class="cls-3"><text class="cls-5" transform="translate(88.98 162.33)">H</text></g><polygon points="88.48 104.98 93.31 94.14 93.6 94.27 93.9 94.4 89.07 105.24 88.63 105.44 88.48 104.98"/><g class="cls-3"><text class="cls-5" transform="translate(92.63 93.56)">H</text></g><polygon points="88.16 105.54 77.69 99.5 77.85 99.22 78.01 98.94 88.48 104.98 88.63 105.44 88.16 105.54"/><g class="cls-3"><text class="cls-5" transform="translate(72.05 100.24)">H</text></g><polygon points="103.91 110.13 119.12 105.18 119.38 105.44 119.26 105.82 104.33 110.67 104 110.44 103.91 110.13"/><polygon points="119.74 105.38 129.28 118.52 128.88 118.52 128.48 118.52 119.26 105.82 119.38 105.44 119.74 105.38"/><polygon points="121.73 127.81 128.48 118.52 128.88 118.52 129.28 118.52 122.25 128.19 121.99 128 121.73 127.81"/><polygon points="141.63 119.81 128.18 119.81 128.18 119.49 128.18 119.17 141.63 119.17 141.63 119.49 141.63 119.81"/><polygon points="141.63 117.87 128.18 117.87 128.18 117.55 128.18 117.22 141.63 117.22 141.63 117.55 141.63 117.87"/><g class="cls-3"><text class="cls-4" transform="translate(142.28 121.41)">O</text></g><polygon points="119.12 105.18 124.01 90.14 124.38 90.06 124.63 90.34 119.74 105.38 119.38 105.44 119.12 105.18"/><polygon points="121.22 105 125.57 91.63 125.88 91.73 126.18 91.83 121.84 105.2 121.53 105.1 121.22 105"/><polygon points="117.04 81.43 124.49 89.71 124.38 90.06 124.01 90.14 116.56 81.86 116.8 81.65 117.04 81.43"/><g class="cls-3"><text class="cls-4" transform="translate(110.79 80.94)">O</text></g><polygon points="114.42 74.35 118.14 62.92 118.55 62.67 118.74 63.15 115.03 74.55 114.73 74.45 114.42 74.35"/><polygon points="124.84 52.43 119.03 62.5 118.55 62.67 118.39 62.31 124.28 52.11 124.56 52.27 124.84 52.43"/><g class="cls-3"><text class="cls-4" transform="translate(123.86 51.56)">O</text></g><polygon points="123.16 45.3 115.74 37.05 115.82 36.66 115.9 36.27 123.64 44.86 123.4 45.08 123.16 45.3"/><polygon points="119.68 24.71 116.94 37.62 116.62 37.55 116.31 37.48 119.05 24.58 119.37 24.64 119.68 24.71"/><polygon points="117.78 24.31 115.04 37.22 114.72 37.15 114.41 37.08 117.15 24.17 117.47 24.24 117.78 24.31"/><g class="cls-3"><text class="cls-4" transform="translate(116.41 23.73)">O</text></g><polygon points="101.07 42.87 115.9 36.27 115.82 36.66 115.74 37.05 101.4 43.44 101.05 43.23 101.07 42.87"/><polygon points="102.4 59.18 100.75 43.43 101.05 43.23 101.4 43.44 103.04 59.05 102.74 59.31 102.4 59.18"/><polygon points="104.2 57.74 102.81 44.47 103.13 44.43 103.45 44.4 104.84 57.67 104.52 57.71 104.2 57.74"/><polygon points="118.14 62.92 102.83 59.66 102.74 59.31 103.04 59.05 118.39 62.31 118.55 62.67 118.14 62.92"/><polygon points="102.83 59.66 94.16 67.47 93.95 67.23 93.73 66.99 102.4 59.18 102.74 59.31 102.83 59.66"/><g class="cls-3"><text class="cls-5" transform="translate(88.15 73.02)">H</text></g><polygon points="100.75 43.43 87.17 35.59 87.05 35.15 87.49 35.03 101.07 42.87 101.05 43.23 100.75 43.43"/><polygon points="86.61 35.27 76.11 29.21 76.27 28.93 76.43 28.65 86.93 34.71 87.05 35.15 86.61 35.27"/><g class="cls-3"><text class="cls-5" transform="translate(70.48 29.96)">H</text></g><polygon points="86.93 34.71 92.78 24.59 93.06 24.75 93.34 24.91 87.49 35.03 87.05 35.15 86.93 34.71"/><g class="cls-3"><text class="cls-5" transform="translate(92.56 24.04)">H</text></g><polygon points="87.17 35.59 81.32 45.72 81.04 45.56 80.76 45.4 86.61 35.27 87.05 35.15 87.17 35.59"/><g class="cls-3"><text class="cls-5" transform="translate(76.39 52.04)">H</text></g><polygon points="119.03 62.5 130.69 66.49 130.1 67.82 129.51 69.15 118.74 63.15 118.55 62.67 119.03 62.5"/><g class="cls-3"><text class="cls-5" transform="translate(130.75 72.14)">H</text></g><polygon points="124.49 89.71 136.9 87.07 136.97 87.39 137.04 87.7 124.63 90.34 124.38 90.06 124.49 89.71"/><g class="cls-3"><text class="cls-5" transform="translate(137.62 89.59)">H</text></g><polygon points="104.36 110.39 103.65 110.39 103.65 110.06 103.65 109.74 104.36 109.74 104.36 110.06 104.36 110.39"/><polygon points="104.54 108.41 103.47 108.41 103.47 108.08 103.47 107.76 104.54 107.76 104.54 108.08 104.54 108.41"/><polygon points="104.72 106.43 103.29 106.43 103.29 106.1 103.29 105.78 104.72 105.78 104.72 106.1 104.72 106.43"/><polygon points="104.9 104.45 103.11 104.45 103.11 104.13 103.11 103.8 104.9 103.8 104.9 104.13 104.9 104.45"/><polygon points="105.07 102.47 102.94 102.47 102.94 102.14 102.94 101.82 105.07 101.82 105.07 102.14 105.07 102.47"/><polygon points="105.25 100.49 102.76 100.49 102.76 100.17 102.76 99.84 105.25 99.84 105.25 100.17 105.25 100.49"/><polygon points="105.43 98.51 102.58 98.51 102.58 98.19 102.58 97.86 105.43 97.86 105.43 98.19 105.43 98.51"/><g class="cls-3"><text class="cls-5" transform="translate(101.43 97.16)">H</text></g><polygon points="103.65 126.65 104.36 126.65 104.36 126.97 104.36 127.3 103.65 127.3 103.65 126.97 103.65 126.65"/><polygon points="103.47 128.63 104.54 128.63 104.54 128.95 104.54 129.28 103.47 129.28 103.47 128.95 103.47 128.63"/><polygon points="103.29 130.61 104.72 130.61 104.72 130.93 104.72 131.26 103.29 131.26 103.29 130.93 103.29 130.61"/><polygon points="103.11 132.59 104.9 132.59 104.9 132.91 104.9 133.24 103.11 133.24 103.11 132.91 103.11 132.59"/><polygon points="102.94 134.57 105.07 134.57 105.07 134.89 105.07 135.22 102.94 135.22 102.94 134.89 102.94 134.57"/><polygon points="102.76 136.55 105.25 136.55 105.25 136.87 105.25 137.19 102.76 137.19 102.76 136.87 102.76 136.55"/><polygon points="102.58 138.53 105.43 138.53 105.43 138.85 105.43 139.17 102.58 139.17 102.58 138.85 102.58 138.53"/><g class="cls-3"><text class="cls-5" transform="translate(101.43 145.66)">H</text></g></g></g></svg>